<svg width="118" height="138" viewBox="0 0 118 138" fill="none" xmlns="http://www.w3.org/2000/svg">
<path d="M99 137H1V19H49.5858L99 68.4142V137Z" fill="white" stroke="#1D1D1F" stroke-width="2"/>
<mask id="path-2-inside-1_1314_5727" fill="white">
<path d="M100 68H50V18H100V68Z"/>
</mask>
<path d="M100 18H100.5V17.5H100V18ZM100.5 68V65.9167H99.5V68H100.5ZM100.5 63.8333V59.6667H99.5V63.8333H100.5ZM100.5 57.5833V53.4167H99.5V57.5833H100.5ZM100.5 51.3333V47.1667H99.5V51.3333H100.5ZM100.5 45.0833V40.9167H99.5V45.0833H100.5ZM100.5 38.8333V34.6667H99.5V38.8333H100.5ZM100.5 32.5833V28.4167H99.5V32.5833H100.5ZM100.5 26.3333V22.1667H99.5V26.3333H100.5ZM100.5 20.0833V18H99.5V20.0833H100.5ZM100 17.5H97.9167V18.5H100V17.5ZM95.8333 17.5H91.6667V18.5H95.8333V17.5ZM89.5833 17.5H85.4167V18.5H89.5833V17.5ZM83.3333 17.5H79.1667V18.5H83.3333V17.5ZM77.0833 17.5H72.9167V18.5H77.0833V17.5ZM70.8333 17.5H66.6667V18.5H70.8333V17.5ZM64.5833 17.5H60.4167V18.5H64.5833V17.5ZM58.3333 17.5H54.1667V18.5H58.3333V17.5ZM52.0833 17.5H50V18.5H52.0833V17.5ZM100 18H101V17H100V18ZM101 68V65.9167H99V68H101ZM101 63.8333V59.6667H99V63.8333H101ZM101 57.5833V53.4167H99V57.5833H101ZM101 51.3333V47.1667H99V51.3333H101ZM101 45.0833V40.9167H99V45.0833H101ZM101 38.8333V34.6667H99V38.8333H101ZM101 32.5833V28.4167H99V32.5833H101ZM101 26.3333V22.1667H99V26.3333H101ZM101 20.0833V18H99V20.0833H101ZM100 17H97.9167V19H100V17ZM95.8333 17H91.6667V19H95.8333V17ZM89.5833 17H85.4167V19H89.5833V17ZM83.3333 17H79.1667V19H83.3333V17ZM77.0833 17H72.9167V19H77.0833V17ZM70.8333 17H66.6667V19H70.8333V17ZM64.5833 17H60.4167V19H64.5833V17ZM58.3333 17H54.1667V19H58.3333V17ZM52.0833 17H50V19H52.0833V17Z" fill="#6E6E73" mask="url(#path-2-inside-1_1314_5727)"/>
<path fill-rule="evenodd" clip-rule="evenodd" d="M98.8543 3.83607C99.0486 3.65046 99.0486 3.34953 98.8543 3.16392L95.6881 0.139208C95.4938 -0.0464028 95.1788 -0.0464028 94.9845 0.139208C94.7903 0.32482 94.7903 0.625755 94.9845 0.811366L97.3014 3.02471L51.6986 3.02471L54.0155 0.811366C54.2097 0.625755 54.2097 0.32482 54.0155 0.139208C53.8212 -0.0464028 53.5062 -0.0464028 53.3119 0.139208L50.1457 3.16392C49.9514 3.34953 49.9514 3.65046 50.1457 3.83607L53.3119 6.86078C53.5062 7.04639 53.8212 7.04639 54.0155 6.86078C54.2097 6.67517 54.2097 6.37424 54.0155 6.18862L51.6986 3.97528L97.3014 3.97528L94.9845 6.18862C94.7903 6.37424 94.7903 6.67517 94.9845 6.86078C95.1788 7.04639 95.4938 7.04639 95.6881 6.86078L98.8543 3.83607Z" fill="#6E6E73"/>
<path fill-rule="evenodd" clip-rule="evenodd" d="M49 0V18H50V0H49Z" fill="#6E6E73"/>
<path fill-rule="evenodd" clip-rule="evenodd" d="M99 -1.81993e-06L99 18L100 18L100 -1.90735e-06L99 -1.81993e-06Z" fill="#6E6E73"/>
<path d="M71.033 15V6.27273H74.229C74.8484 6.27273 75.3612 6.375 75.7674 6.57955C76.1737 6.78125 76.4776 7.0554 76.6793 7.40199C76.881 7.74574 76.9819 8.13352 76.9819 8.56534C76.9819 8.92898 76.9151 9.2358 76.7816 9.4858C76.6481 9.73295 76.4691 9.93182 76.2447 10.0824C76.0231 10.2301 75.7788 10.3381 75.5117 10.4062V10.4915C75.8015 10.5057 76.0842 10.5994 76.3597 10.7727C76.6381 10.9432 76.8683 11.1861 77.0501 11.5014C77.2319 11.8168 77.3228 12.2003 77.3228 12.652C77.3228 13.098 77.2177 13.4986 77.0075 13.8537C76.8001 14.206 76.479 14.4858 76.0444 14.6932C75.6097 14.8977 75.0543 15 74.3782 15H71.033ZM72.3498 13.8707H74.2504C74.881 13.8707 75.3327 13.7486 75.6055 13.5043C75.8782 13.2599 76.0146 12.9545 76.0146 12.5881C76.0146 12.3125 75.945 12.0597 75.8058 11.8295C75.6665 11.5994 75.4677 11.4162 75.2092 11.2798C74.9535 11.1435 74.6495 11.0753 74.2972 11.0753H72.3498V13.8707ZM72.3498 10.0483H74.114C74.4094 10.0483 74.6751 9.99148 74.9109 9.87784C75.1495 9.7642 75.3384 9.60511 75.4776 9.40057C75.6197 9.19318 75.6907 8.94886 75.6907 8.66761C75.6907 8.30682 75.5643 8.00426 75.3114 7.75994C75.0586 7.51562 74.6708 7.39347 74.1481 7.39347H72.3498V10.0483Z" fill="#6E6E73"/>
<path fill-rule="evenodd" clip-rule="evenodd" d="M114.164 67.8543C114.35 68.0486 114.65 68.0486 114.836 67.8543L117.861 64.6881C118.046 64.4938 118.046 64.1788 117.861 63.9845C117.675 63.7903 117.374 63.7903 117.189 63.9845L114.975 66.3014V20.6986L117.189 23.0155C117.374 23.2097 117.675 23.2097 117.861 23.0155C118.046 22.8212 118.046 22.5062 117.861 22.3119L114.836 19.1457C114.65 18.9514 114.35 18.9514 114.164 19.1457L111.139 22.3119C110.954 22.5062 110.954 22.8212 111.139 23.0155C111.325 23.2097 111.626 23.2097 111.811 23.0155L114.025 20.6986V66.3014L111.811 63.9845C111.626 63.7903 111.325 63.7903 111.139 63.9845C110.954 64.1788 110.954 64.4938 111.139 64.6881L114.164 67.8543Z" fill="#6E6E73"/>
<path fill-rule="evenodd" clip-rule="evenodd" d="M118 18L100 18V19L118 19V18Z" fill="#6E6E73"/>
<path fill-rule="evenodd" clip-rule="evenodd" d="M118 68L100 68L100 69L118 69L118 68Z" fill="#6E6E73"/>
<path d="M104.506 47.5V38.7727H105.822V42.5653H110.173V38.7727H111.494V47.5H110.173V43.6946H105.822V47.5H104.506Z" fill="#6E6E73"/>
</svg>
