<svg width="118" height="138" viewBox="0 0 118 138" fill="none" xmlns="http://www.w3.org/2000/svg">
<path d="M68 69H19V1H117V119H69V70V69H68Z" fill="white" stroke="#1D1D1F" stroke-width="2"/>
<mask id="path-2-inside-1_1309_5638" fill="white">
<path d="M18 70H68V120H18V70Z"/>
</mask>
<path d="M18 120H17.5V120.5H18V120ZM17.5 70V72.0833H18.5V70H17.5ZM17.5 74.1667V78.3333H18.5V74.1667H17.5ZM17.5 80.4167V84.5833H18.5V80.4167H17.5ZM17.5 86.6667V90.8333H18.5V86.6667H17.5ZM17.5 92.9167V97.0833H18.5V92.9167H17.5ZM17.5 99.1667V103.333H18.5V99.1667H17.5ZM17.5 105.417V109.583H18.5V105.417H17.5ZM17.5 111.667V115.833H18.5V111.667H17.5ZM17.5 117.917V120H18.5V117.917H17.5ZM18 120.5H20.0833V119.5H18V120.5ZM22.1667 120.5H26.3333V119.5H22.1667V120.5ZM28.4167 120.5H32.5833V119.5H28.4167V120.5ZM34.6667 120.5H38.8333V119.5H34.6667V120.5ZM40.9167 120.5H45.0833V119.5H40.9167V120.5ZM47.1667 120.5H51.3333V119.5H47.1667V120.5ZM53.4167 120.5H57.5833V119.5H53.4167V120.5ZM59.6667 120.5H63.8333V119.5H59.6667V120.5ZM65.9167 120.5H68V119.5H65.9167V120.5ZM18 120H17V121H18V120ZM17 70V72.0833H19V70H17ZM17 74.1667V78.3333H19V74.1667H17ZM17 80.4167V84.5833H19V80.4167H17ZM17 86.6667V90.8333H19V86.6667H17ZM17 92.9167V97.0833H19V92.9167H17ZM17 99.1667V103.333H19V99.1667H17ZM17 105.417V109.583H19V105.417H17ZM17 111.667V115.833H19V111.667H17ZM17 117.917V120H19V117.917H17ZM18 121H20.0833V119H18V121ZM22.1667 121H26.3333V119H22.1667V121ZM28.4167 121H32.5833V119H28.4167V121ZM34.6667 121H38.8333V119H34.6667V121ZM40.9167 121H45.0833V119H40.9167V121ZM47.1667 121H51.3333V119H47.1667V121ZM53.4167 121H57.5833V119H53.4167V121ZM59.6667 121H63.8333V119H59.6667V121ZM65.9167 121H68V119H65.9167V121Z" fill="#6E6E73" mask="url(#path-2-inside-1_1309_5638)"/>
<path fill-rule="evenodd" clip-rule="evenodd" d="M19.1457 134.164C18.9514 134.35 18.9514 134.65 19.1457 134.836L22.3119 137.861C22.5062 138.046 22.8212 138.046 23.0155 137.861C23.2097 137.675 23.2097 137.374 23.0155 137.189L20.6986 134.975H66.3014L63.9845 137.189C63.7903 137.374 63.7903 137.675 63.9845 137.861C64.1788 138.046 64.4938 138.046 64.6881 137.861L67.8543 134.836C68.0486 134.65 68.0486 134.35 67.8543 134.164L64.6881 131.139C64.4938 130.954 64.1788 130.954 63.9845 131.139C63.7903 131.325 63.7903 131.626 63.9845 131.811L66.3014 134.025H20.6986L23.0155 131.811C23.2097 131.626 23.2097 131.325 23.0155 131.139C22.8212 130.954 22.5062 130.954 22.3119 131.139L19.1457 134.164Z" fill="#6E6E73"/>
<path fill-rule="evenodd" clip-rule="evenodd" d="M69 138V120H68V138H69Z" fill="#6E6E73"/>
<path fill-rule="evenodd" clip-rule="evenodd" d="M19 138L19 120L18 120L18 138L19 138Z" fill="#6E6E73"/>
<path d="M41.033 132V123.273H44.229C44.8484 123.273 45.3612 123.375 45.7674 123.58C46.1737 123.781 46.4776 124.055 46.6793 124.402C46.881 124.746 46.9819 125.134 46.9819 125.565C46.9819 125.929 46.9151 126.236 46.7816 126.486C46.6481 126.733 46.4691 126.932 46.2447 127.082C46.0231 127.23 45.7788 127.338 45.5117 127.406V127.491C45.8015 127.506 46.0842 127.599 46.3597 127.773C46.6381 127.943 46.8683 128.186 47.0501 128.501C47.2319 128.817 47.3228 129.2 47.3228 129.652C47.3228 130.098 47.2177 130.499 47.0075 130.854C46.8001 131.206 46.479 131.486 46.0444 131.693C45.6097 131.898 45.0543 132 44.3782 132H41.033ZM42.3498 130.871H44.2504C44.881 130.871 45.3327 130.749 45.6055 130.504C45.8782 130.26 46.0146 129.955 46.0146 129.588C46.0146 129.312 45.945 129.06 45.8058 128.83C45.6665 128.599 45.4677 128.416 45.2092 128.28C44.9535 128.143 44.6495 128.075 44.2972 128.075H42.3498V130.871ZM42.3498 127.048H44.114C44.4094 127.048 44.6751 126.991 44.9109 126.878C45.1495 126.764 45.3384 126.605 45.4776 126.401C45.6197 126.193 45.6907 125.949 45.6907 125.668C45.6907 125.307 45.5643 125.004 45.3114 124.76C45.0586 124.516 44.6708 124.393 44.1481 124.393H42.3498V127.048Z" fill="#6E6E73"/>
<path fill-rule="evenodd" clip-rule="evenodd" d="M3.83607 70.1457C3.65046 69.9514 3.34953 69.9514 3.16392 70.1457L0.139208 73.3119C-0.0464028 73.5062 -0.0464028 73.8212 0.139208 74.0155C0.32482 74.2097 0.625755 74.2097 0.811366 74.0155L3.02471 71.6986L3.02471 117.301L0.811366 114.985C0.625755 114.79 0.32482 114.79 0.139208 114.985C-0.0464028 115.179 -0.0464028 115.494 0.139208 115.688L3.16392 118.854C3.34953 119.049 3.65046 119.049 3.83607 118.854L6.86078 115.688C7.04639 115.494 7.04639 115.179 6.86078 114.985C6.67517 114.79 6.37424 114.79 6.18862 114.985L3.97528 117.301L3.97528 71.6986L6.18862 74.0155C6.37424 74.2097 6.67517 74.2097 6.86078 74.0155C7.04639 73.8212 7.04639 73.5062 6.86078 73.3119L3.83607 70.1457Z" fill="#6E6E73"/>
<path fill-rule="evenodd" clip-rule="evenodd" d="M0 120H18V119H0V120Z" fill="#6E6E73"/>
<path fill-rule="evenodd" clip-rule="evenodd" d="M-1.81993e-06 70L18 70L18 69L-1.90735e-06 69L-1.81993e-06 70Z" fill="#6E6E73"/>
<path d="M6.50568 99.5V90.7727H7.82244V94.5653H12.1733V90.7727H13.4943V99.5H12.1733V95.6946H7.82244V99.5H6.50568Z" fill="#6E6E73"/>
</svg>
