<svg width="97" height="114" viewBox="0 0 97 114" fill="none" xmlns="http://www.w3.org/2000/svg">
<path d="M59.8816 0L0.169434 23.5582V102.681L5.97927 104.956C6.14065 105.118 6.46342 105.118 6.6248 105.118C6.78619 105.118 7.10896 105.118 7.27034 104.956L11.4663 103.006V99.432L6.6248 101.544V26.3202L58.2678 5.524V33.3065L61.4955 32.0067V5.524L90.5446 17.3843V94.0705L85.7031 91.7959V95.3702L89.8991 97.3199C90.0605 97.3199 90.3832 97.4823 90.5446 97.4823C90.706 97.4823 90.8674 97.4823 91.1902 97.3199L97 94.8828V15.1098L59.8816 0Z" fill="#1D1D1F"/>
<path d="M56.8152 64.3372L58.5904 63.6873L77.9565 70.5111L76.1813 71.161L78.2793 71.4859L83.9277 69.5362C83.7664 69.2113 83.4436 69.0488 83.1208 68.8864L59.2359 60.6004C58.9132 60.4379 58.429 60.4379 58.1063 60.6004L56.9766 61.0878L56.8152 64.3372Z" fill="#1D1D1F"/>
<path d="M83.6052 27.2966C83.4439 27.1342 82.6369 26.8092 81.9914 27.1342L56.6541 37.5323C55.6858 37.8572 55.0402 38.3446 55.0402 39.157V61.4154L14.21 76.5252C13.5645 76.8501 13.0803 77.3376 13.0803 77.9874V102.033C13.0803 102.683 13.4031 103.333 14.0486 103.658L37.7721 113.406C38.2563 113.731 38.7404 113.731 38.9018 113.731C39.0632 113.731 39.5473 113.731 39.7087 113.568L83.1211 96.1841C83.7666 95.8592 84.0894 95.2093 84.0894 94.7219V28.7589C84.0894 28.109 83.928 27.6216 83.6052 27.2966ZM80.8617 31.1959V69.214L77.9568 70.3513L58.2679 78.3124V40.2943L80.8617 31.1959ZM55.0402 64.9898V79.6121L38.7404 86.111L19.2129 78.1499L55.0402 64.9898ZM16.308 100.896V80.4245L37.288 88.873V109.507L16.308 100.896ZM40.5156 109.669V88.7105L80.8617 72.301V93.4221L40.5156 109.669Z" fill="#1D1D1F"/>
</svg>
