<svg width="118" height="138" viewBox="0 0 118 138" fill="none" xmlns="http://www.w3.org/2000/svg">
<path d="M19 137H117V19H68.4142L19 68.4142V137Z" fill="white" stroke="#1D1D1F" stroke-width="2"/>
<mask id="path-2-inside-1_1357_7800" fill="white">
<path d="M18 68H68V18H18V68Z"/>
</mask>
<path d="M18 18H17.5V17.5H18V18ZM17.5 68V65.9167H18.5V68H17.5ZM17.5 63.8333V59.6667H18.5V63.8333H17.5ZM17.5 57.5833V53.4167H18.5V57.5833H17.5ZM17.5 51.3333V47.1667H18.5V51.3333H17.5ZM17.5 45.0833V40.9167H18.5V45.0833H17.5ZM17.5 38.8333V34.6667H18.5V38.8333H17.5ZM17.5 32.5833V28.4167H18.5V32.5833H17.5ZM17.5 26.3333V22.1667H18.5V26.3333H17.5ZM17.5 20.0833V18H18.5V20.0833H17.5ZM18 17.5H20.0833V18.5H18V17.5ZM22.1667 17.5H26.3333V18.5H22.1667V17.5ZM28.4167 17.5H32.5833V18.5H28.4167V17.5ZM34.6667 17.5H38.8333V18.5H34.6667V17.5ZM40.9167 17.5H45.0833V18.5H40.9167V17.5ZM47.1667 17.5H51.3333V18.5H47.1667V17.5ZM53.4167 17.5H57.5833V18.5H53.4167V17.5ZM59.6667 17.5H63.8333V18.5H59.6667V17.5ZM65.9167 17.5H68V18.5H65.9167V17.5ZM18 18H17V17H18V18ZM17 68V65.9167H19V68H17ZM17 63.8333V59.6667H19V63.8333H17ZM17 57.5833V53.4167H19V57.5833H17ZM17 51.3333V47.1667H19V51.3333H17ZM17 45.0833V40.9167H19V45.0833H17ZM17 38.8333V34.6667H19V38.8333H17ZM17 32.5833V28.4167H19V32.5833H17ZM17 26.3333V22.1667H19V26.3333H17ZM17 20.0833V18H19V20.0833H17ZM18 17H20.0833V19H18V17ZM22.1667 17H26.3333V19H22.1667V17ZM28.4167 17H32.5833V19H28.4167V17ZM34.6667 17H38.8333V19H34.6667V17ZM40.9167 17H45.0833V19H40.9167V17ZM47.1667 17H51.3333V19H47.1667V17ZM53.4167 17H57.5833V19H53.4167V17ZM59.6667 17H63.8333V19H59.6667V17ZM65.9167 17H68V19H65.9167V17Z" fill="#6E6E73" mask="url(#path-2-inside-1_1357_7800)"/>
<path fill-rule="evenodd" clip-rule="evenodd" d="M19.1457 3.83607C18.9514 3.65046 18.9514 3.34953 19.1457 3.16392L22.3119 0.139208C22.5062 -0.0464028 22.8212 -0.0464028 23.0155 0.139208C23.2097 0.32482 23.2097 0.625755 23.0155 0.811366L20.6986 3.02471L66.3014 3.02471L63.9845 0.811366C63.7903 0.625755 63.7903 0.32482 63.9845 0.139208C64.1788 -0.0464028 64.4938 -0.0464028 64.6881 0.139208L67.8543 3.16392C68.0486 3.34953 68.0486 3.65046 67.8543 3.83607L64.6881 6.86078C64.4938 7.04639 64.1788 7.04639 63.9845 6.86078C63.7903 6.67517 63.7903 6.37424 63.9845 6.18862L66.3014 3.97528L20.6986 3.97528L23.0155 6.18862C23.2097 6.37424 23.2097 6.67517 23.0155 6.86078C22.8212 7.04639 22.5062 7.04639 22.3119 6.86078L19.1457 3.83607Z" fill="#6E6E73"/>
<path fill-rule="evenodd" clip-rule="evenodd" d="M69 -4.17233e-07V18H68V-4.17233e-07H69Z" fill="#6E6E73"/>
<path fill-rule="evenodd" clip-rule="evenodd" d="M19 -9.25856e-07L19 18L18 18L18 -1.01328e-06L19 -9.25856e-07Z" fill="#6E6E73"/>
<path d="M41.033 15V6.27273H44.229C44.8484 6.27273 45.3612 6.375 45.7674 6.57955C46.1737 6.78125 46.4776 7.0554 46.6793 7.40199C46.881 7.74574 46.9819 8.13352 46.9819 8.56534C46.9819 8.92898 46.9151 9.2358 46.7816 9.4858C46.6481 9.73295 46.4691 9.93182 46.2447 10.0824C46.0231 10.2301 45.7788 10.3381 45.5117 10.4062V10.4915C45.8015 10.5057 46.0842 10.5994 46.3597 10.7727C46.6381 10.9432 46.8683 11.1861 47.0501 11.5014C47.2319 11.8168 47.3228 12.2003 47.3228 12.652C47.3228 13.098 47.2177 13.4986 47.0075 13.8537C46.8001 14.206 46.479 14.4858 46.0444 14.6932C45.6097 14.8977 45.0543 15 44.3782 15H41.033ZM42.3498 13.8707H44.2504C44.881 13.8707 45.3327 13.7486 45.6055 13.5043C45.8782 13.2599 46.0146 12.9545 46.0146 12.5881C46.0146 12.3125 45.945 12.0597 45.8058 11.8295C45.6665 11.5994 45.4677 11.4162 45.2092 11.2798C44.9535 11.1435 44.6495 11.0753 44.2972 11.0753H42.3498V13.8707ZM42.3498 10.0483H44.114C44.4094 10.0483 44.6751 9.99148 44.9109 9.87784C45.1495 9.7642 45.3384 9.60511 45.4776 9.40057C45.6197 9.19318 45.6907 8.94886 45.6907 8.66761C45.6907 8.30682 45.5643 8.00426 45.3114 7.75994C45.0586 7.51562 44.6708 7.39347 44.1481 7.39347H42.3498V10.0483Z" fill="#6E6E73"/>
<path fill-rule="evenodd" clip-rule="evenodd" d="M3.83607 67.8543C3.65046 68.0486 3.34953 68.0486 3.16392 67.8543L0.139208 64.6881C-0.0464028 64.4938 -0.0464028 64.1788 0.139208 63.9845C0.32482 63.7903 0.625755 63.7903 0.811366 63.9845L3.02471 66.3014L3.02471 20.6986L0.811366 23.0155C0.625755 23.2097 0.32482 23.2097 0.139208 23.0155C-0.0464028 22.8212 -0.0464028 22.5062 0.139208 22.3119L3.16392 19.1457C3.34953 18.9514 3.65046 18.9514 3.83607 19.1457L6.86078 22.3119C7.04639 22.5062 7.04639 22.8212 6.86078 23.0155C6.67517 23.2097 6.37424 23.2097 6.18862 23.0155L3.97528 20.6986L3.97528 66.3014L6.18862 63.9845C6.37424 63.7903 6.67517 63.7903 6.86078 63.9845C7.04639 64.1788 7.04639 64.4938 6.86078 64.6881L3.83607 67.8543Z" fill="#6E6E73"/>
<path fill-rule="evenodd" clip-rule="evenodd" d="M-4.17233e-07 18L18 18V19L-4.17233e-07 19V18Z" fill="#6E6E73"/>
<path fill-rule="evenodd" clip-rule="evenodd" d="M-9.25856e-07 68L18 68L18 69L-1.01328e-06 69L-9.25856e-07 68Z" fill="#6E6E73"/>
<path d="M13.4943 47.5L13.4943 38.7727H12.1776V42.5653H7.8267L7.8267 38.7727H6.50568L6.50568 47.5H7.8267L7.8267 43.6946H12.1776L12.1776 47.5H13.4943Z" fill="#6E6E73"/>
</svg>
