<svg width="81" height="80" viewBox="0 0 81 80" fill="none" xmlns="http://www.w3.org/2000/svg">
<path d="M24.2703 3.33068C33.1666 -0.546127 43.1689 -1.05658 52.4136 1.89442C58.4088 3.80814 63.8203 7.09293 68.2487 11.4331L72.1215 8.44288L73.6632 19.8865L62.9819 15.4998L66.6497 12.6678C62.4799 8.64045 57.4113 5.58915 51.8055 3.79971C43.023 0.996256 33.5208 1.48119 25.0693 5.16415C16.6178 8.84712 9.79342 15.4769 5.8676 23.8184C1.94178 32.1598 1.18228 41.644 3.73059 50.5039C6.2789 59.3638 11.9612 66.9952 19.7189 71.9762C27.4766 76.9572 36.7805 78.9481 45.8972 77.578C55.0139 76.208 63.3217 71.5704 69.2727 64.5292C75.2236 57.4881 78.412 48.5236 78.2436 39.3061L80.2433 39.2695C80.4205 48.9722 77.0644 58.4085 70.8002 65.8202C64.536 73.2319 55.791 78.1137 46.1944 79.5558C36.5979 80.998 26.8043 78.9023 18.6383 73.6591C10.4723 68.416 4.49094 60.3829 1.80851 51.0567C-0.873922 41.7305 -0.0744417 31.7472 4.058 22.9667C8.19044 14.1862 15.374 7.20748 24.2703 3.33068Z" fill="#1D1D1F"/>
<path fill-rule="evenodd" clip-rule="evenodd" d="M41.25 44.9C43.5322 44.4367 45.25 42.419 45.25 40C45.25 39.9876 45.25 39.9751 45.2499 39.9627L45.2506 39.9638L60.7411 31.0203C61.4027 30.6384 61.6913 30.0012 61.7275 29.3904C61.7616 28.8148 61.5811 28.2505 61.3205 27.7991C61.0599 27.3477 60.6615 26.9092 60.1459 26.651C59.5989 26.3769 58.9027 26.3083 58.2411 26.6902L42.7501 35.6339C42.7501 35.6339 42.7501 35.634 42.7805 35.6867C42.0382 35.2503 41.1733 35 40.25 35C39.8021 35 39.368 35.0589 38.9549 35.1694L30.8651 27.0795C30.3249 26.5393 29.6347 26.4255 29.0354 26.5486C28.4705 26.6646 27.9722 26.985 27.6036 27.3536C27.235 27.7222 26.9146 28.2205 26.7986 28.7853C26.6755 29.3847 26.7894 30.0749 27.3295 30.615L35.4194 38.7049C35.3089 39.118 35.25 39.5521 35.25 40C35.25 42.419 36.9678 44.4367 39.25 44.9V48.0679C36.4179 48.4479 33.6069 50.3863 32.6202 53C32.3819 53.6314 32.25 54.3022 32.25 55H48.25C48.25 54.3022 48.1181 53.6314 47.8798 53C46.8931 50.3863 44.0821 48.4479 41.25 48.0679V44.9ZM43.25 40C43.25 41.6569 41.9069 43 40.25 43C38.5931 43 37.25 41.6569 37.25 40C37.25 38.3431 38.5931 37 40.25 37C41.9069 37 43.25 38.3431 43.25 40ZM44.2904 37.0541C44.4865 37.3225 44.6565 37.6113 44.7966 37.9165L59.7286 29.2955C59.7296 29.2894 59.7305 29.2817 59.731 29.2721C59.7368 29.1752 59.7028 28.9972 59.5885 28.7991C59.4741 28.601 59.3369 28.4826 59.2501 28.4391C59.2415 28.4348 59.2344 28.4317 59.2286 28.4295L44.2904 37.0541ZM29.4611 28.5039L37.0856 36.1285C36.8271 36.3401 36.5901 36.5771 36.3785 36.8356L28.7539 29.211C28.7546 29.2049 28.7558 29.1972 28.7577 29.1878C28.7772 29.0927 28.8561 28.9296 29.0178 28.7678C29.1796 28.6061 29.3427 28.5272 29.4378 28.5077C29.4472 28.5058 29.455 28.5046 29.4611 28.5039ZM40.25 50C38.8433 50 37.2863 50.5799 36.0912 51.5685C35.5633 52.0052 35.1415 52.4896 34.8355 53H45.6645C45.3585 52.4896 44.9367 52.0052 44.4088 51.5685C43.2137 50.5799 41.6567 50 40.25 50Z" fill="#1D1D1F"/>
<path d="M41.25 58C41.25 58.5523 40.8023 59 40.25 59C39.6977 59 39.25 58.5523 39.25 58C39.25 57.4477 39.6977 57 40.25 57C40.8023 57 41.25 57.4477 41.25 58Z" fill="#1D1D1F"/>
<path d="M36.25 59C36.8023 59 37.25 58.5523 37.25 58C37.25 57.4477 36.8023 57 36.25 57C35.6977 57 35.25 57.4477 35.25 58C35.25 58.5523 35.6977 59 36.25 59Z" fill="#1D1D1F"/>
<path d="M45.25 58C45.25 58.5523 44.8023 59 44.25 59C43.6977 59 43.25 58.5523 43.25 58C43.25 57.4477 43.6977 57 44.25 57C44.8023 57 45.25 57.4477 45.25 58Z" fill="#1D1D1F"/>
<path d="M40.25 63C40.8023 63 41.25 62.5523 41.25 62C41.25 61.4477 40.8023 61 40.25 61C39.6977 61 39.25 61.4477 39.25 62C39.25 62.5523 39.6977 63 40.25 63Z" fill="#1D1D1F"/>
<path d="M37.25 62C37.25 62.5523 36.8023 63 36.25 63C35.6977 63 35.25 62.5523 35.25 62C35.25 61.4477 35.6977 61 36.25 61C36.8023 61 37.25 61.4477 37.25 62Z" fill="#1D1D1F"/>
<path d="M44.25 63C44.8023 63 45.25 62.5523 45.25 62C45.25 61.4477 44.8023 61 44.25 61C43.6977 61 43.25 61.4477 43.25 62C43.25 62.5523 43.6977 63 44.25 63Z" fill="#1D1D1F"/>
<path d="M41.25 66C41.25 66.5523 40.8023 67 40.25 67C39.6977 67 39.25 66.5523 39.25 66C39.25 65.4477 39.6977 65 40.25 65C40.8023 65 41.25 65.4477 41.25 66Z" fill="#1D1D1F"/>
<path fill-rule="evenodd" clip-rule="evenodd" d="M40.25 72C57.9231 72 72.25 57.6731 72.25 40C72.25 22.3269 57.9231 8 40.25 8C22.5769 8 8.25 22.3269 8.25 40C8.25 57.6731 22.5769 72 40.25 72ZM40.25 70C56.4839 70 69.7062 57.1056 70.2337 41H64.25C63.6977 41 63.25 40.5523 63.25 40C63.25 39.4477 63.6977 39 64.25 39H70.2337C69.717 23.2264 57.0236 10.533 41.25 10.0164V16C41.25 16.5523 40.8023 17 40.25 17C39.6977 17 39.25 16.5523 39.25 16V10.0164C23.4764 10.533 10.783 23.2264 10.2664 39H16.25C16.8023 39 17.25 39.4477 17.25 40C17.25 40.5523 16.8023 41 16.25 41H10.2664C10.7938 57.1056 24.0161 70 40.25 70Z" fill="#1D1D1F"/>
</svg>
