<svg width="81" height="80" viewBox="0 0 81 80" fill="none" xmlns="http://www.w3.org/2000/svg">
<path d="M29.25 43.8125V45.2188H39.3438V43.5H31.9062V43.375L35.5 39.5312C36.4167 38.5469 37.1328 37.7135 37.6484 37.0312C38.1693 36.3438 38.5339 35.7214 38.7422 35.1641C38.9557 34.6016 39.0625 34.026 39.0625 33.4375C39.0625 32.6146 38.8568 31.8672 38.4453 31.1953C38.0339 30.5234 37.4661 29.9896 36.7422 29.5938C36.0182 29.1979 35.1875 29 34.25 29C33.3177 29 32.4766 29.1979 31.7266 29.5938C30.9818 29.9896 30.3932 30.5417 29.9609 31.25C29.5286 31.9583 29.3125 32.7812 29.3125 33.7188H31.1562C31.1562 33.1094 31.2786 32.5781 31.5234 32.125C31.7734 31.6719 32.125 31.3203 32.5781 31.0703C33.0365 30.8151 33.5729 30.6875 34.1875 30.6875C34.7656 30.6875 35.2865 30.7995 35.75 31.0234C36.2135 31.2474 36.5781 31.5651 36.8438 31.9766C37.1146 32.388 37.25 32.875 37.25 33.4375C37.25 33.9271 37.151 34.3958 36.9531 34.8438C36.7604 35.2865 36.4635 35.7604 36.0625 36.2656C35.6615 36.7656 35.151 37.3542 34.5312 38.0312L29.25 43.8125Z" fill="#1D1D1F"/>
<path d="M42.8937 44.8906C43.6281 45.2552 44.4536 45.4375 45.3703 45.4375C46.3859 45.4375 47.2922 45.2083 48.0891 44.75C48.8859 44.2865 49.5109 43.6562 49.9641 42.8594C50.4224 42.0573 50.6516 41.1458 50.6516 40.125C50.6516 39.0885 50.4302 38.1667 49.9875 37.3594C49.55 36.5521 48.9458 35.9167 48.175 35.4531C47.4094 34.9844 46.537 34.75 45.5578 34.75C45.0214 34.75 44.5057 34.8359 44.0109 35.0078C43.5161 35.1797 43.1047 35.3958 42.7766 35.6562H42.6828L43.2453 30.9375H49.9328V29.2188H41.6203L40.6516 37.0938L42.4641 37.3125C42.7974 37.0729 43.2219 36.8776 43.7375 36.7266C44.2531 36.5703 44.7557 36.4948 45.2453 36.5C45.9276 36.5052 46.5344 36.6667 47.0656 36.9844C47.5969 37.3021 48.0135 37.737 48.3156 38.2891C48.6229 38.8359 48.7766 39.4583 48.7766 40.1562C48.7766 40.8385 48.6281 41.4505 48.3313 41.9922C48.0396 42.5286 47.6359 42.9505 47.1203 43.2578C46.6099 43.5651 46.0266 43.7188 45.3703 43.7188C44.5526 43.7188 43.8495 43.4844 43.2609 43.0156C42.6776 42.5417 42.3495 41.9427 42.2766 41.2188H40.4016C40.4432 42.0312 40.6854 42.7552 41.1281 43.3906C41.5708 44.026 42.1594 44.526 42.8937 44.8906Z" fill="#1D1D1F"/>
<path fill-rule="evenodd" clip-rule="evenodd" d="M40.25 56C50.1911 56 58.25 47.9411 58.25 38C58.25 28.0589 50.1911 20 40.25 20C30.3089 20 22.25 28.0589 22.25 38C22.25 47.9411 30.3089 56 40.25 56ZM40.25 54C49.0866 54 56.25 46.8366 56.25 38C56.25 29.1634 49.0866 22 40.25 22C31.4134 22 24.25 29.1634 24.25 38C24.25 46.8366 31.4134 54 40.25 54Z" fill="#1D1D1F"/>
<path fill-rule="evenodd" clip-rule="evenodd" d="M13.25 38C13.257 36.0958 14.6766 34.59 15.9373 33.257L15.9462 33.2476C16.7551 32.3952 17.6012 31.5035 17.8531 30.7047C18.1325 29.8495 17.9728 28.58 17.8132 27.364L17.8095 27.3352C17.5712 25.4602 17.3264 23.5347 18.3985 22.059C19.4761 20.5624 21.4052 20.1882 23.2677 19.8408C24.4651 19.627 25.689 19.3865 26.4074 18.8653C27.0953 18.3604 27.6912 17.2608 28.2603 16.2105L28.2699 16.1928L28.3119 16.1157C29.2165 14.4559 30.1463 12.7498 31.9019 12.1839C33.6029 11.6233 35.3438 12.4494 37.0317 13.2504L37.0371 13.253L37.0431 13.2558C38.1721 13.7894 39.327 14.3353 40.2566 14.3353C41.1862 14.3353 42.3412 13.7894 43.4701 13.2558L43.4761 13.253L43.4816 13.2504C45.1695 12.4494 46.9103 11.6233 48.6114 12.1839C50.3808 12.7719 51.3786 14.5892 52.2433 16.1928L52.2473 16.2001C52.8181 17.2668 53.4024 18.3587 54.1058 18.8653C54.7977 19.3767 56.0019 19.605 57.178 19.828L57.2455 19.8408L57.3004 19.8514C59.1458 20.2088 61.0477 20.5771 62.1147 22.059C63.179 23.5423 62.9395 25.4799 62.7001 27.364C62.5404 28.58 62.3808 29.8495 62.6602 30.7047C62.9004 31.4666 63.6812 32.3009 64.4546 33.1273L64.5759 33.257C65.8307 34.5837 67.2299 36.1081 67.2498 38C67.2299 39.8919 65.8307 41.4163 64.5759 42.743L64.4546 42.8727C63.6812 43.6991 62.9004 44.5334 62.6602 45.2953C62.3808 46.1505 62.5404 47.42 62.7001 48.636C62.9395 50.5201 63.179 52.4577 62.1147 53.941C61.0477 55.4229 59.1458 55.7912 57.3004 56.1486L57.2455 56.1592L57.178 56.172C56.0019 56.395 54.7977 56.6233 54.1058 57.1347C53.4024 57.6413 52.8181 58.7332 52.2473 59.7999L52.2433 59.8072C51.3786 61.4108 50.3808 63.2281 48.6114 63.8161C46.9103 64.3767 45.1695 63.5506 43.4816 62.7496L43.4761 62.747L43.4701 62.7442C42.3412 62.2106 41.1862 61.6647 40.2566 61.6647C39.327 61.6647 38.1721 62.2106 37.0431 62.7442L37.0371 62.747L37.0317 62.7496C35.3438 63.5506 33.6029 64.3767 31.9019 63.8161C30.1463 63.2502 29.2165 61.5441 28.3119 59.8843L28.2699 59.8072L28.2603 59.7895C27.6912 58.7392 27.0953 57.6396 26.4074 57.1347C25.689 56.6135 24.4651 56.373 23.2677 56.1592C21.4052 55.8118 19.4761 55.4376 18.3985 53.941C17.3264 52.4653 17.5712 50.5398 17.8095 48.6648L17.8132 48.636C17.9728 47.42 18.1325 46.1505 17.8531 45.2953C17.6012 44.4965 16.7551 43.6048 15.9462 42.7524L15.9373 42.743C14.6766 41.41 13.257 39.9042 13.25 38ZM63.0387 34.76C64.0612 35.8396 65.1203 36.958 65.1474 38C65.1203 39.042 64.0612 40.1604 63.0387 41.24L63.0327 41.2464C62.0615 42.2753 61.0504 43.3577 60.638 44.6138C60.2123 45.9367 60.3985 47.4333 60.5848 48.8899C60.771 50.3464 60.9573 51.8698 60.3852 52.6582C59.7953 53.4482 58.3268 53.7323 56.8965 54.0089L56.8331 54.0212C55.4096 54.2884 53.9329 54.569 52.8287 55.3708C51.7517 56.1624 51.0507 57.4488 50.3673 58.7031L50.3409 58.7516L50.2992 58.8276C49.5941 60.1135 48.872 61.4303 47.9196 61.7448C47.0282 62.0388 45.6713 61.3974 44.3542 60.7694L44.3446 60.7648C43.0172 60.1382 41.6368 59.4865 40.23 59.4865C38.8232 59.4865 37.4429 60.1382 36.1154 60.7648L36.1059 60.7694C34.8021 61.3974 33.4451 62.0388 32.5404 61.7448C31.5707 61.4246 30.8398 60.0786 30.1224 58.7576L30.1192 58.7516L30.0718 58.6646C29.395 57.422 28.6974 56.1412 27.6313 55.3708C26.5271 54.569 25.0504 54.2884 23.6269 54.0212C22.1635 53.7539 20.6602 53.4733 20.0748 52.6582C19.5027 51.8698 19.689 50.3598 19.8753 48.8899C20.0615 47.4333 20.2478 45.9367 19.822 44.6138C19.4236 43.3599 18.4153 42.2924 17.4325 41.2518L17.4274 41.2464L17.4213 41.24C16.3989 40.1603 15.3398 39.042 15.3126 38C15.3398 36.958 16.3989 35.8396 17.4213 34.76L17.4325 34.7482C18.4153 33.7076 19.4236 32.6401 19.822 31.3862C20.2478 30.0633 20.0615 28.5667 19.8753 27.1101C19.689 25.6402 19.5027 24.1302 20.0748 23.3418C20.6602 22.5267 22.1635 22.2461 23.6269 21.9788C25.0504 21.7116 26.5271 21.431 27.6313 20.6292C28.6974 19.8588 29.395 18.578 30.0718 17.3354L30.1192 17.2484L30.1224 17.2424C30.8398 15.9214 31.5707 14.5754 32.5404 14.2552C33.4451 13.9612 34.8021 14.6026 36.1059 15.2306L36.1154 15.2352C37.4429 15.8618 38.8232 16.5135 40.23 16.5135C41.6368 16.5135 43.0172 15.8618 44.3446 15.2352L44.3542 15.2306C45.6713 14.6026 47.0282 13.9612 47.9196 14.2552C48.872 14.5697 49.5941 15.8865 50.2992 17.1724L50.3409 17.2484L50.3673 17.2969C51.0507 18.5512 51.7517 19.8376 52.8287 20.6292C53.9329 21.431 55.4096 21.7116 56.8331 21.9788L56.8965 21.9911C58.3268 22.2677 59.7953 22.5518 60.3852 23.3418C60.9573 24.1302 60.771 25.6536 60.5848 27.1101C60.3985 28.5667 60.2123 30.0633 60.638 31.3862C61.0504 32.6423 62.0615 33.7247 63.0327 34.7536L63.0387 34.76Z" fill="#1D1D1F"/>
<path fill-rule="evenodd" clip-rule="evenodd" d="M40.25 0C39.9366 0 39.6365 0.0931867 39.4089 0.312926L1.75503 10.4502C1.55128 10.5165 1.36918 10.6412 1.22915 10.8101C1.08913 10.9791 0.996714 11.1857 0.962279 11.4067C-0.255122 21.0492 0.0899283 30.8385 1.98283 40.3603C6.14705 60.6097 22.25 73.9813 40.25 79.9866C40.25 79.6273 40.2481 79.2811 40.2463 78.9617L40.2462 78.96C40.2442 78.5995 40.2424 78.2731 40.2438 78H40.2562C40.2577 78.2762 40.2558 78.608 40.2537 78.9751C40.2519 79.2945 40.25 79.6407 40.25 80C58.25 73.9947 74.353 60.6231 78.5172 40.3737C80.4101 30.8519 80.7551 21.0627 79.5377 11.4201C79.5033 11.1991 79.4109 10.9925 79.2708 10.8236C79.1308 10.6546 78.9487 10.53 78.745 10.4636L41.0911 0.326349C40.8635 0.10661 40.5634 0.0134232 40.25 0.0134232V0ZM39.2499 65L39.2499 77.2437C22.6639 71.4823 8.15411 59.0178 4.2244 39.9299C2.45393 30.9142 2.07246 21.6587 3.09451 12.5162L39.2499 2.78185V11.0645C39.2499 11.6167 39.6976 12.0645 40.2499 12.0645C40.8022 12.0645 41.2499 11.6167 41.2499 11.0645V2.79521L77.4055 12.5296C78.4275 21.6722 78.0461 30.9276 76.2756 39.9433C72.3459 59.0313 57.836 71.4958 41.2499 77.2572L41.2499 65C41.2499 64.4477 40.8022 64 40.2499 64C39.6976 64 39.2499 64.4477 39.2499 65Z" fill="#1D1D1F"/>
</svg>
