<svg width="80" height="80" viewBox="0 0 80 80" fill="none" xmlns="http://www.w3.org/2000/svg">
<path d="M20 11C20.5523 11 21 11.4477 21 12V16C21 16.5523 20.5523 17 20 17C19.4477 17 19 16.5523 19 16V12C19 11.4477 19.4477 11 20 11Z" fill="#1D1D1F"/>
<path fill-rule="evenodd" clip-rule="evenodd" d="M22.9998 30C23.1677 30 23.3259 29.9585 23.4649 29.8855L29.4472 26.8945C29.7861 26.7252 30 26.3789 30 26.0002V5.0013C30 4.66716 29.8328 4.35483 29.5546 4.16938L23.5548 0.169567C23.3615 0.0407955 23.1493 -0.0101918 22.9453 0.00166559H7.05469C6.85073 -0.0101912 6.63847 0.0407937 6.44518 0.169567L0.445394 4.16938C0.167201 4.35485 0 4.66715 0 5.0013V26.0002C0 26.3789 0.213927 26.7251 0.552834 26.8945L6.53483 29.8855C6.67381 29.9585 6.83201 30 6.99992 30H10.3818L10.3703 30.0366C8.80061 35.0501 8.57509 40.3892 9.71643 45.5172C9.86063 46.1651 10.0266 46.8096 10.2145 47.4497L10.2161 47.455L12.0102 46.928C10.3791 41.375 10.5032 35.4643 12.3485 30H22.9998ZM1.9995 21.3829V5.53695L5.99954 2.87059V23.3828L1.9995 21.3829ZM23.9992 23.3826V2.87041L27.9992 5.53677V21.3827L23.9992 23.3826ZM21.9993 28.0001H7.99929V26.0003H21.9993V28.0001ZM1.99925 25.3824V23.6188L5.9993 25.6186V27.3822L1.99925 25.3824ZM27.999 25.3824L23.9989 27.3823V25.6187L27.999 23.6188V25.3824ZM7.99929 2.00194H14V4.101C13.0466 4.29564 12.1628 4.76608 11.4645 5.46447C11.0182 5.9107 10.6651 6.4326 10.4174 7C10.1447 7.62489 10 8.30499 10 9L20 9C20 8.30499 19.8553 7.6249 19.5826 7C19.3349 6.4326 18.9818 5.9107 18.5355 5.46447C17.8372 4.76608 16.9534 4.29564 16 4.101V2.00194H21.9993V24.0003H7.99929V2.00194ZM17.1213 6.87868C17.1608 6.91815 17.1991 6.95861 17.2361 7H12.7639C12.8009 6.95861 12.8392 6.91815 12.8787 6.87868C13.4413 6.31607 14.2044 6 15 6C15.7956 6 16.5587 6.31607 17.1213 6.87868Z" fill="#1D1D1F"/>
<path d="M70 11C70.5523 11 71 11.4477 71 12V16C71 16.5523 70.5523 17 70 17C69.4477 17 69 16.5523 69 16V12C69 11.4477 69.4477 11 70 11Z" fill="#1D1D1F"/>
<path fill-rule="evenodd" clip-rule="evenodd" d="M50 26.0002V13.1995C44.7222 10.9492 38.8699 10.3678 33.2348 11.5514L32.8334 9.64065C33.4881 9.50315 34.1454 9.38792 34.8044 9.29483C39.9403 8.56937 45.1766 9.18835 50 11.0894V5.0013C50 4.66715 50.1672 4.35485 50.4454 4.16938L56.4452 0.169567C56.6385 0.0407937 56.8507 -0.0101912 57.0547 0.00166559H72.9453C73.1493 -0.0101918 73.3615 0.0407955 73.5548 0.169567L79.5546 4.16938C79.8328 4.35483 80 4.66716 80 5.0013V26.0002C80 26.3789 79.7861 26.7252 79.4472 26.8945L73.4649 29.8855C73.3259 29.9585 73.1677 30 72.9998 30H56.9999C56.832 30 56.6738 29.9585 56.5348 29.8855L50.5528 26.8945C50.2139 26.7251 50 26.3789 50 26.0002ZM52.0166 11.971L51.9995 12.0066V21.3829L55.9995 23.3828V2.87059L51.9995 5.53695V11.9628L52.0166 11.971ZM73.9992 2.87041V23.3826L77.9992 21.3827V5.53677L73.9992 2.87041ZM57.9993 28.0001H71.9993V26.0003H57.9993V28.0001ZM51.9993 23.6188V25.3824L55.9993 27.3822V25.6186L51.9993 23.6188ZM73.9989 27.3823L77.999 25.3824V23.6188L73.9989 25.6187V27.3823ZM64 2.00194H57.9993V24.0003H71.9993V2.00194H66V4.101C66.9534 4.29564 67.8372 4.76608 68.5355 5.46447C68.9818 5.9107 69.3349 6.4326 69.5826 7C69.8553 7.6249 70 8.30499 70 9L60 9C60 8.30499 60.1447 7.62489 60.4174 7C60.6651 6.4326 61.0182 5.9107 61.4645 5.46447C62.1628 4.76608 63.0466 4.29564 64 4.101V2.00194ZM67.2361 7C67.1991 6.95861 67.1608 6.91815 67.1213 6.87868C66.5587 6.31607 65.7956 6 65 6C64.2044 6 63.4413 6.31607 62.8787 6.87868C62.8392 6.91815 62.8009 6.95861 62.7639 7H67.2361Z" fill="#1D1D1F"/>
<path d="M70 61C70.5523 61 71 61.4477 71 62V66C71 66.5523 70.5523 67 70 67C69.4477 67 69 66.5523 69 66V62C69 61.4477 69.4477 61 70 61Z" fill="#1D1D1F"/>
<path fill-rule="evenodd" clip-rule="evenodd" d="M66.3787 32.9909C67.6316 38.6994 67.0668 44.6458 64.7812 50.0017H57.0547C56.8507 49.9898 56.6385 50.0408 56.4452 50.1696L50.4454 54.1694C50.1672 54.3549 50 54.6672 50 55.0013V76.0002C50 76.3789 50.2139 76.7251 50.5528 76.8945L56.5348 79.8855C56.6738 79.9585 56.832 80 56.9999 80H72.9998C73.1677 80 73.3259 79.9585 73.4649 79.8855L79.4472 76.8945C79.7861 76.7252 80 76.3789 80 76.0002V55.0013C80 54.6672 79.8328 54.3548 79.5546 54.1694L73.5548 50.1696C73.3615 50.0408 73.1493 49.9898 72.9453 50.0017H66.91C68.8452 45.0924 69.4517 39.757 68.6661 34.5364C68.5672 33.8792 68.4462 33.2237 68.3031 32.5712L68.3025 32.5686L66.3787 32.9909ZM66 54.101V52.0127L66.0251 52.0248L66.0361 52.0019H71.9993V74.0003H57.9993V52.0019H64V54.101C63.0466 54.2956 62.1628 54.7661 61.4645 55.4645C61.0182 55.9107 60.6651 56.4326 60.4174 57C60.1447 57.6249 60 58.305 60 59H70C70 58.305 69.8553 57.6249 69.5826 57C69.3349 56.4326 68.9818 55.9107 68.5355 55.4645C67.8372 54.7661 66.9534 54.2956 66 54.101ZM51.9995 55.537V71.3829L55.9995 73.3828V52.8706L51.9995 55.537ZM73.9992 52.8704V73.3826L77.9992 71.3827V55.5368L73.9992 52.8704ZM57.9993 78.0001H71.9993V76.0003H57.9993V78.0001ZM51.9993 73.6188V75.3824L55.9993 77.3822V75.6186L51.9993 73.6188ZM73.9989 77.3823L77.999 75.3824V73.6188L73.9989 75.6187V77.3823ZM67.2361 57C67.1991 56.9586 67.1608 56.9182 67.1213 56.8787C66.5587 56.3161 65.7956 56 65 56C64.2044 56 63.4413 56.3161 62.8787 56.8787C62.8392 56.9182 62.8009 56.9586 62.7639 57H67.2361Z" fill="#1D1D1F"/>
<path d="M21 62C21 61.4477 20.5523 61 20 61C19.4477 61 19 61.4477 19 62V66C19 66.5523 19.4477 67 20 67C20.5523 67 21 66.5523 21 66V62Z" fill="#1D1D1F"/>
<path fill-rule="evenodd" clip-rule="evenodd" d="M30 65.712C35.4439 67.5463 41.3303 67.6766 46.8673 66.0672L47.3732 67.8078C46.7309 67.9945 46.0841 68.1592 45.4341 68.302C40.3181 69.4254 34.9961 69.1895 30 67.6182V76.0002C30 76.3789 29.7861 76.7252 29.4472 76.8945L23.4649 79.8855C23.3259 79.9585 23.1677 80 22.9998 80H6.99992C6.83201 80 6.67381 79.9585 6.53483 79.8855L0.552834 76.8945C0.213927 76.7251 0 76.3789 0 76.0002V55.0013C0 54.6672 0.167201 54.3549 0.445394 54.1694L6.44518 50.1696C6.63847 50.0408 6.85073 49.9898 7.05469 50.0017H22.9453C23.1493 49.9898 23.3615 50.0408 23.5548 50.1696L29.5546 54.1694C29.8328 54.3548 30 54.6672 30 55.0013V65.712ZM1.9995 71.3829V55.537L5.99954 52.8706V73.3828L1.9995 71.3829ZM23.9992 73.3826V52.8704L27.9992 55.5368V71.3827L23.9992 73.3826ZM21.9993 78.0001H7.99929V76.0003H21.9993V78.0001ZM1.99925 75.3824V73.6188L5.9993 75.6186V77.3822L1.99925 75.3824ZM27.999 75.3824L23.9989 77.3823V75.6187L27.999 73.6188V75.3824ZM7.99929 52.0019H14V54.101C13.0466 54.2956 12.1628 54.7661 11.4645 55.4645C11.0182 55.9107 10.6651 56.4326 10.4174 57C10.1447 57.6249 10 58.305 10 59H20C20 58.305 19.8553 57.6249 19.5826 57C19.3349 56.4326 18.9818 55.9107 18.5355 55.4645C17.8372 54.7661 16.9534 54.2956 16 54.101V52.0019H21.9993V74.0003H7.99929V52.0019ZM17.1213 56.8787C17.1608 56.9182 17.1991 56.9586 17.2361 57H12.7639C12.8009 56.9586 12.8392 56.9182 12.8787 56.8787C13.4413 56.3161 14.2044 56 15 56C15.7956 56 16.5587 56.3161 17.1213 56.8787Z" fill="#1D1D1F"/>
<path fill-rule="evenodd" clip-rule="evenodd" d="M45.6652 40.4708C45.6652 37.4335 43.0821 34.8635 40.0294 34.8635C36.9179 34.8635 34.3935 37.4335 34.3935 40.4708C34.3935 43.5665 36.9179 46.078 40.0294 46.078C43.0821 46.078 45.6652 43.5665 45.6652 40.4708ZM43.7866 40.4708C43.7866 42.5735 42.0841 44.209 40.0294 44.209C37.9159 44.209 36.2721 42.5735 36.2721 40.4708C36.2721 38.4265 37.9159 36.7326 40.0294 36.7326C42.0841 36.7326 43.7866 38.4265 43.7866 40.4708Z" fill="#1D1D1F"/>
<path fill-rule="evenodd" clip-rule="evenodd" d="M53.9428 44.6178C54.1189 44.0337 53.8841 43.3328 53.297 43.0408L51.4184 41.931C51.4184 41.7266 51.4331 41.4637 51.4478 41.2009C51.4624 40.9381 51.4771 40.6752 51.4771 40.4708C51.4771 40.3023 51.4636 40.0663 51.4495 39.8213C51.4342 39.5566 51.4184 39.2813 51.4184 39.069L53.297 37.9592C53.8841 37.6672 54.1189 36.9663 53.9428 36.3822C53.297 34.1626 52.1229 32.1767 50.5965 30.5413C50.1269 30.074 49.4224 29.9572 48.8353 30.3077L46.9567 31.4174C46.311 30.8917 45.1955 30.2492 44.4323 29.9572V27.7961C44.4323 27.0952 44.0214 26.5695 43.3756 26.3943C41.1448 25.8686 38.8552 25.8686 36.6244 26.3943C35.9786 26.5695 35.5677 27.0952 35.5677 27.7961V29.9572C34.8045 30.2492 33.689 30.8917 33.0433 31.4174L31.1647 30.3077C30.5776 29.9572 29.8731 30.074 29.4035 30.5413C27.8771 32.1767 26.703 34.1626 26.0572 36.3822C25.8811 36.9663 26.1159 37.6672 26.703 37.9592L28.5816 39.069C28.5816 39.2813 28.5658 39.5566 28.5505 39.8213C28.5364 40.0663 28.5229 40.3023 28.5229 40.4708C28.5229 40.6752 28.5376 40.9381 28.5522 41.2009C28.5669 41.4637 28.5816 41.7266 28.5816 41.931L26.703 43.0408C26.1159 43.3328 25.8811 44.0337 26.0572 44.6178C26.703 46.8374 27.8771 48.8233 29.4035 50.4587C29.8731 50.926 30.5776 51.0428 31.1647 50.6923L33.0433 49.5826C33.689 50.1083 34.8045 50.7508 35.5677 51.0428V53.2039C35.5677 53.9048 35.9786 54.4305 36.6244 54.6057C38.8552 55.1314 41.1448 55.1314 43.3756 54.6057C44.0214 54.4305 44.4323 53.9048 44.4323 53.2039V51.0428C45.1955 50.7508 46.311 50.1083 46.9567 49.5826L48.8353 50.6923C49.4224 51.0428 50.1269 50.926 50.5965 50.4587C52.1229 48.8233 53.297 46.8374 53.9428 44.6178ZM52.0642 44.4426C51.4771 46.078 50.5965 47.5967 49.4811 48.8817L46.7219 47.3046C45.1368 48.7064 44.6085 48.9985 42.5537 49.7578V52.8535C41.8493 53.0287 40.7338 53.1455 40.0294 53.1455C39.2662 53.1455 38.1507 53.0287 37.4463 52.8535V49.7578C35.4502 49.0569 34.8632 48.7064 33.2781 47.3046L30.5189 48.8817C29.4035 47.5967 28.5229 46.078 27.9358 44.4426L30.695 42.924C30.2841 40.8212 30.2841 40.1788 30.695 38.076L27.9358 36.5574C28.5229 34.922 29.4035 33.4033 30.5189 32.1183L33.2781 33.6954C34.8632 32.2936 35.4502 31.9431 37.4463 31.2422V28.1465C38.1507 27.9713 39.2662 27.8545 40.0294 27.8545C40.7338 27.8545 41.8493 27.9713 42.5537 28.1465V31.2422C44.5498 31.9431 45.1368 32.2936 46.7219 33.6954L49.4811 32.1183C50.5965 33.4033 51.4771 34.922 52.0642 36.5574L49.305 38.076C49.7159 40.1788 49.7159 40.8212 49.305 42.924L52.0642 44.4426Z" fill="#1D1D1F"/>
</svg>
