<?xml version="1.0" encoding="utf-8"?>
<!-- Generator: Adobe Illustrator 23.1.0, SVG Export Plug-In . SVG Version: 6.00 Build 0)  -->
<svg version="1.1" id="Слой_1" xmlns="http://www.w3.org/2000/svg" xmlns:xlink="http://www.w3.org/1999/xlink" x="0px" y="0px"
	 width="150px" height="220px" viewBox="0 0 150 220" style="enable-background:new 0 0 150 220;" xml:space="preserve">
<style type="text/css">
	.st0{fill:#E1E2E1;}
	.st1{fill:#868686;}
	.st2{opacity:0.8;enable-background:new    ;}
	.st3{fill:#BACCD9;}
	.st4{opacity:0.7;enable-background:new    ;}
	.st5{fill-rule:evenodd;clip-rule:evenodd;fill:#E1E2E2;}
	.st6{fill:#878787;}
	.st7{fill:#E1E2E2;}
	.st8{fill-rule:evenodd;clip-rule:evenodd;fill:#BACDDA;}
	.st9{opacity:0.8;}
	.st10{fill-rule:evenodd;clip-rule:evenodd;fill:#BACDDA;stroke:#878787;stroke-miterlimit:10;}
	.st11{fill-rule:evenodd;clip-rule:evenodd;fill:#E1E2E1;}
	.st12{fill-rule:evenodd;clip-rule:evenodd;fill:#BACCD9;}
	.st13{fill-rule:evenodd;clip-rule:evenodd;fill:#FFFFFF;}
	.st14{fill:#FFFFFF;}
	.st15{fill:#BACDDA;}
	.st16{fill:none;}
	
		.st17{fill-rule:evenodd;clip-rule:evenodd;fill:#E1E2E1;stroke:#868686;stroke-linecap:round;stroke-linejoin:round;stroke-miterlimit:10;}
	
		.st18{fill-rule:evenodd;clip-rule:evenodd;fill:#E1E2E1;stroke:#868686;stroke-width:1.5;stroke-linecap:round;stroke-linejoin:round;stroke-miterlimit:10;}
</style>
<g>
	<g>
		<g>
			<polygon class="st0" points="145.5,190.2 31,183.8 31.7,8.1 146.3,14.6 			"/>
			<path class="st1" d="M145.5,190.9L145.5,190.9l-114.7-6.4c-0.4,0-0.6-0.3-0.6-0.7L31,8.1c0-0.1,0.1-0.4,0.1-0.4
				c0.1-0.1,0.3-0.3,0.6-0.3l114.7,6.5c0.4,0,0.6,0.3,0.6,0.7l-0.8,175.6c0,0.1-0.1,0.4-0.1,0.4C146,190.9,145.7,190.9,145.5,190.9z
				 M31.5,183.2l113.3,6.4l0.8-174.4L32.3,8.8L31.5,183.2z"/>
		</g>
		<g>
			<g>
				
					<rect x="88.2" y="-46" transform="matrix(5.605161e-02 -0.9984 0.9984 5.605161e-02 72.6035 99.4644)" class="st1" width="1.5" height="114.8"/>
			</g>
			<g>
				
					<rect x="88.1" y="-30" transform="matrix(5.605161e-02 -0.9984 0.9984 5.605161e-02 56.582 114.5464)" class="st1" width="1.5" height="114.8"/>
			</g>
			<g>
				
					<rect x="88" y="-14.1" transform="matrix(5.606242e-02 -0.9984 0.9984 5.606242e-02 40.5649 129.4323)" class="st1" width="1.5" height="114.8"/>
			</g>
			<g>
				
					<rect x="88" y="1.9" transform="matrix(5.605161e-02 -0.9984 0.9984 5.605161e-02 24.5611 144.5247)" class="st1" width="1.5" height="114.8"/>
			</g>
			<g>
				
					<rect x="88" y="17.9" transform="matrix(5.489273e-02 -0.9985 0.9985 5.489273e-02 8.6318 159.7117)" class="st1" width="1.5" height="114.8"/>
			</g>
			<g>
				
					<rect x="87.9" y="33.9" transform="matrix(5.488704e-02 -0.9985 0.9985 5.488704e-02 -7.3905 174.8107)" class="st1" width="1.5" height="114.8"/>
			</g>
			<g>
				
					<rect x="87.8" y="49.8" transform="matrix(5.488704e-02 -0.9985 0.9985 5.488704e-02 -23.3932 189.7214)" class="st1" width="1.5" height="114.8"/>
			</g>
			<g>
				
					<rect x="87.8" y="65.7" transform="matrix(5.606242e-02 -0.9984 0.9984 5.606242e-02 -39.3678 204.6084)" class="st1" width="1.5" height="114.8"/>
			</g>
			<g>
				
					<rect x="87.8" y="81.8" transform="matrix(5.606242e-02 -0.9984 0.9984 5.606242e-02 -55.3889 219.6871)" class="st1" width="1.5" height="114.8"/>
			</g>
			<g>
				
					<rect x="87.6" y="97.8" transform="matrix(5.488704e-02 -0.9985 0.9985 5.488704e-02 -71.4399 234.8304)" class="st1" width="1.5" height="114.8"/>
			</g>
			<g>
				
					<rect x="87.5" y="113.7" transform="matrix(5.488704e-02 -0.9985 0.9985 5.488704e-02 -87.4425 249.7408)" class="st1" width="1.5" height="114.8"/>
			</g>
			<g>
				
					<rect x="87.4" y="129.7" transform="matrix(5.488704e-02 -0.9985 0.9985 5.488704e-02 -103.4656 264.839)" class="st1" width="1.5" height="114.8"/>
			</g>
		</g>
		<g>
			<g>
				
					<rect x="-56.4" y="95.3" transform="matrix(4.485052e-03 -1 1 4.485052e-03 -64.8177 126.9394)" class="st1" width="175.6" height="1.5"/>
			</g>
			<g>
				
					<rect x="-37.4" y="96.3" transform="matrix(4.485052e-03 -1 1 4.485052e-03 -46.7957 147.1179)" class="st1" width="175.7" height="1.5"/>
			</g>
			<g>
				
					<rect x="-18.1" y="97.4" transform="matrix(4.485052e-03 -1 1 4.485052e-03 -28.7023 167.5159)" class="st1" width="175.7" height="1.5"/>
			</g>
			<g>
				
					<rect x="0.9" y="98.4" transform="matrix(4.485052e-03 -1 1 4.485052e-03 -10.7516 187.475)" class="st1" width="175.7" height="1.5"/>
			</g>
			<g>
				
					<rect x="20.1" y="99.6" transform="matrix(4.485052e-03 -1 1 4.485052e-03 7.1233 207.7986)" class="st1" width="175.6" height="1.5"/>
			</g>
			<g>
				
					<rect x="39.1" y="100.8" transform="matrix(4.485052e-03 -1 1 4.485052e-03 24.8534 227.9754)" class="st1" width="175.7" height="1.5"/>
			</g>
			<g>
				
					<rect x="58.2" y="101.7" transform="matrix(4.485052e-03 -1 1 4.485052e-03 42.949 248.0814)" class="st1" width="175.7" height="1.5"/>
			</g>
		</g>
		<g>
			<g>
				<polygon class="st0" points="148.5,184.3 130.5,214.9 131.3,39.1 149.3,8.8 				"/>
				<path class="st1" d="M130.5,215.6c-0.1,0-0.1,0-0.1,0c-0.3-0.1-0.4-0.4-0.4-0.7l0.8-175.7c0-0.1,0-0.1,0.1-0.3l18-30.4
					c0.1-0.3,0.4-0.4,0.7-0.3c0.3,0.1,0.4,0.4,0.4,0.7l-0.8,175.6c0,0.1,0,0.1-0.1,0.3l-18,30.4
					C130.9,215.5,130.8,215.6,130.5,215.6z M132,39.3l-0.8,173.1l16.6-28.2l0.8-172.9L132,39.3z"/>
			</g>
			<g>
				<g>
					<polygon class="st1" points="130.7,38.8 148.7,8.6 149.9,9.4 131.9,39.6 					"/>
				</g>
				<g>
					<polygon class="st1" points="130.6,55 148.6,24.6 149.8,25.3 131.8,55.5 					"/>
				</g>
				<g>
					<polygon class="st1" points="130.6,70.8 148.5,40.5 149.7,41.3 131.7,71.5 					"/>
				</g>
				<g>
					<polygon class="st1" points="130.5,86.9 148.5,56.5 149.6,57.2 131.7,87.5 					"/>
				</g>
				<g>
					<polygon class="st1" points="130.4,102.8 148.4,72.5 149.6,73.2 131.6,103.6 					"/>
				</g>
				<g>
					<polygon class="st1" points="130.4,118.8 148.3,88.4 149.5,89.2 131.5,119.5 					"/>
				</g>
				<g>
					<polygon class="st1" points="130.3,134.8 148.3,104.4 149.4,105.1 131.5,135.5 					"/>
				</g>
				<g>
					<polygon class="st1" points="130.2,150.7 148.2,120.3 149.4,121.1 131.4,151.5 					"/>
				</g>
				<g>
					<polygon class="st1" points="130.1,166.7 148.1,136.3 149.3,137 131.3,167.4 					"/>
				</g>
				<g>
					<polygon class="st1" points="130.1,182.6 148,152.3 149.2,153 131.2,183.4 					"/>
				</g>
				<g>
					<polygon class="st1" points="130,198.6 148,168.2 149.1,169 131.2,199.3 					"/>
				</g>
				<g>
					<polygon class="st1" points="129.9,214.6 147.9,184.2 149.1,184.9 131.1,215.3 					"/>
				</g>
			</g>
			<g>
				<g>
					
						<rect x="43" y="126.3" transform="matrix(4.485052e-03 -1 1 4.485052e-03 3.3164 257.3388)" class="st1" width="175.7" height="1.5"/>
				</g>
				<g>
					
						<rect x="49.1" y="116.2" transform="matrix(4.485052e-03 -1 1 4.485052e-03 19.4052 253.3452)" class="st1" width="175.7" height="1.5"/>
				</g>
				<g>
					
						<rect x="55.1" y="106" transform="matrix(4.485052e-03 -1 1 4.485052e-03 35.6411 249.2065)" class="st1" width="175.7" height="1.5"/>
				</g>
				<g>
					
						<rect x="61" y="95.9" transform="matrix(4.485052e-03 -1 1 4.485052e-03 51.585 245.0661)" class="st1" width="175.7" height="1.5"/>
				</g>
			</g>
		</g>
		<g>
			<g>
				<polygon class="st0" points="30.7,183.7 15.6,208.3 16.4,32.6 31.4,7.9 				"/>
				<path class="st1" d="M15.6,209.1c-0.1,0-0.1,0-0.1,0c-0.3-0.1-0.4-0.4-0.4-0.7l0.8-175.7c0-0.1,0-0.1,0.1-0.4L30.9,7.5
					c0.1-0.3,0.4-0.4,0.7-0.3C31.9,7.4,32,7.7,32,7.9l-0.8,175.7c0,0.1,0,0.1-0.1,0.4l-15,24.7C15.9,208.9,15.8,209.1,15.6,209.1z
					 M17.2,32.9L16.4,206l13.5-22.3l0.8-173.2L17.2,32.9z"/>
			</g>
			<g>
				<g>
					<polygon class="st1" points="15.8,32.5 30.9,7.8 32,8.5 17,33.2 					"/>
				</g>
				<g>
					<polygon class="st1" points="15.8,48.4 30.8,23.6 32,24.3 16.9,49.2 					"/>
				</g>
				<g>
					<polygon class="st1" points="15.7,64.4 30.7,39.7 31.9,40.5 16.9,65.1 					"/>
				</g>
				<g>
					<polygon class="st1" points="15.5,80.4 30.7,55.5 31.8,56.3 16.8,81.1 					"/>
				</g>
				<g>
					<polygon class="st1" points="15.6,96.3 30.6,71.6 31.7,72.4 16.7,97.1 					"/>
				</g>
				<g>
					<polygon class="st1" points="15.3,112.3 30.5,87.5 31.7,88.2 16.7,113 					"/>
				</g>
				<g>
					<polygon class="st1" points="15.4,128.2 30.4,103.6 31.6,104.3 16.6,129 					"/>
				</g>
				<g>
					<polygon class="st1" points="15.3,144.2 30.4,119.5 31.5,120.3 16.5,144.9 					"/>
				</g>
				<g>
					<polygon class="st1" points="15.3,160.2 30.3,135.5 31.5,136.2 16.4,160.9 					"/>
				</g>
				<g>
					<polygon class="st1" points="15.1,176.3 30.1,151.6 31.4,152.3 16.4,176.9 					"/>
				</g>
				<g>
					<polygon class="st1" points="15.1,192.1 30.1,167.4 31.3,168.1 16.3,192.8 					"/>
				</g>
				<g>
					<polygon class="st1" points="14.9,208.2 29.9,183.5 31.2,184.3 16.1,208.9 					"/>
				</g>
			</g>
			<g>
				<g>
					
						<rect x="-71.8" y="119.7" transform="matrix(4.485052e-03 -1 1 4.485052e-03 -104.448 135.9049)" class="st1" width="175.6" height="1.5"/>
				</g>
				<g>
					
						<rect x="-66.8" y="111.6" transform="matrix(4.485052e-03 -1 1 4.485052e-03 -91.359 132.8427)" class="st1" width="175.7" height="1.5"/>
				</g>
				<g>
					
						<rect x="-61.7" y="103.4" transform="matrix(4.485052e-03 -1 1 4.485052e-03 -78.0516 129.8548)" class="st1" width="175.7" height="1.5"/>
				</g>
				<g>
					
						<rect x="-56.8" y="95.1" transform="matrix(4.485052e-03 -1 1 4.485052e-03 -64.8868 126.4281)" class="st1" width="175.7" height="1.5"/>
				</g>
			</g>
		</g>
		<g>
			<polygon class="st0" points="16.1,33.4 15.3,209.1 0.7,208.1 1.5,32.4 15.7,33.4 			"/>
			<path class="st1" d="M15.3,209.7L15.3,209.7l-14.8-0.8c-0.4,0-0.6-0.3-0.6-0.7L0.8,32.4c0-0.1,0.1-0.4,0.1-0.4
				c0.1-0.1,0.3-0.1,0.4-0.1l14.2,0.8l0.7,0.1c0.3,0.1,0.4,0.3,0.4,0.7l-0.8,175.6c0,0.1-0.1,0.4-0.1,0.4
				C15.8,209.7,15.6,209.7,15.3,209.7z M1.5,207.4l13.4,0.8l0.8-174.3l0,0L2.2,33.1L1.5,207.4z"/>
		</g>
		<g>
			<polygon class="st0" points="116.9,60.2 32.7,55.5 32.8,41 116.9,45.8 			"/>
		</g>
		<g>
			<path class="st1" d="M47.1,46.1l-2.9-0.2c-1.5-0.2-2.3,1-2.3,2.2l0,1.2c0,1.2,1,2.3,2.3,2.5l1.8,0.2l0,0c0.7,0,1.2-0.4,1.2-1.2
				l-2.9-0.2c-0.7,0-1.2-0.4-1.2-1.2l0-1c0-0.7,0.4-1.2,1.2-1.2l2.9,0.2l0,0l0,0l0,5.3c0,0.7-0.4,1.2-1.2,1.2l-1.8-0.2
				c-0.7,0-1.2,0.4-1.2,1.2l1.2,0l0,0l1.8,0.2l0,0c1.5,0.2,2.3-1,2.3-2.2l0,0l0-5.3C48.4,46.7,47.8,46.1,47.1,46.1z"/>
		</g>
		<g>
			<path class="st1" d="M104.6,49.6c-1.5-0.2-2.3,1-2.3,2.2l0,2.3c0,0.7,0.4,1.2,1.2,1.2l0-3.4c0-0.7,0.4-1.2,1.2-1.2l1.5,0.2
				c0.7,0,1.2-0.4,1.2-1.2L104.6,49.6z"/>
		</g>
		<g>
			<path class="st1" d="M58.3,51.3c-0.7,0-1.2-0.4-1.2-1.2l0-2.3l1.8,0.2c0.7,0,1.2-0.4,1.2-1.2l-2.9-0.2l0-2.5
				c-0.7,0-1.2,0.4-1.2,1.2l0,4.8c0,1.2,1,2.3,2.3,2.5l0.4,0c0.7,0,1.2-0.4,1.2-1.2L58.3,51.3z"/>
		</g>
		<g>
			<path class="st1" d="M92.8,54.6c-1.5-0.2-2.3-1.2-2.3-2.5l0-2.3l-3.5,0l0,2.3c0,0.7,0.4,1.2,1.2,1.2l1.8,0.2
				c0,0.7-0.4,1.2-1.2,1.2l-0.6,0c-1.5-0.2-2.3-1.2-2.3-2.5l0-4.8c0-0.7,0.4-1.2,1.2-1.2l0,2.6l3.5,0.2l0-1.5c0-0.7,0.4-1.2,1.2-1.2
				l0,2.3l2.9,0.2c0,0.7-0.4,1.2-1.2,1.2l-1.8-0.2l0,2.3l0,0c0,0.7,0.4,1.2,1.2,1.2l0.4,0l1.2,0c0,0.7-0.4,1.2-1.2,1.2L92.8,54.6z"
				/>
		</g>
		<g>
			<path class="st1" d="M53.9,47.7l0,3.4c0,0.7,0.4,1.2,1.2,1.2l0-5.7C54.5,46.6,53.9,47,53.9,47.7z"/>
		</g>
		<g>
			<path class="st1" d="M51.3,51.1c-0.7,0-1.2-0.4-1.2-1.2l0-3.4c-0.7,0-1.2,0.4-1.2,1.2l0,2.2c0,1.2,1,2.3,2.3,2.5l1.6,0.2
				c0.7,0,1.2-0.4,1.2-1.2L51.3,51.1z"/>
		</g>
		<g>
			<path class="st1" d="M70.3,52c-0.7,0-1.2-0.4-1.2-1.2l0-3.4c-0.7,0-1.2,0.4-1.2,1.2l0,2.3c0,1.2,1,2.3,2.3,2.5l1,0
				c0.7,0,1.2-0.4,1.2-1.2L70.3,52z M76.4,49l0,2.3c0,0.7-0.4,1.2-1.2,1.2l0,0l-1.8-0.2l0,0l0-4.5c-0.7,0-1.2,0.4-1.2,1.2l0,3.4
				c0,0.7,0.4,1.2,1.2,1.2l1.8,0.2c1.5,0,2.3-0.7,2.3-2.2l0,0l0-3.4C77,47.8,76.4,48.4,76.4,49z"/>
		</g>
		<g>
			<path class="st1" d="M67.4,49.7c0-1.2-1-2.3-2.3-2.5L63,47c-1.5-0.2-2.3,1-2.3,2.2l0,1c0,1.2,1,2.3,2.3,2.5l2.6,0.2
				c0.7,0,1.2-0.4,1.2-1.2L63,51.4c-0.7,0-1.2-0.4-1.2-1.2l4.4,0.3C66.8,50.7,67.4,50.3,67.4,49.7z M63,49.4c-0.7,0-1.2,0.4-1.2,1.2
				l0,0l0-1.2c0-0.7,0.4-1.2,1.2-1.2l2,0.2c0.7,0,1.2,0.4,1.2,1.2L63,49.4z"/>
		</g>
		<g>
			<path class="st1" d="M85.1,50.6c0-1.2-1-2.3-2.3-2.5l-2-0.2c-1.5-0.2-2.3,1-2.3,2.2l0,1.2c0,1.2,1,2.3,2.3,2.5l2.6,0.2
				c0.7,0,1.2-0.4,1.2-1.2l-3.8-0.2c-0.7,0-1.2-0.4-1.2-1.2l4.4,0.3l0,0C84.5,51.7,85,51.4,85.1,50.6z M80.7,50.3
				c-0.7,0-1.2,0.4-1.2,1.2l0,0l0-1.2c0-0.7,0.4-1.2,1.2-1.2l2,0.2c0.7,0,1.2,0.4,1.2,1.2L80.7,50.3z"/>
		</g>
		<g>
			<path class="st1" d="M101.7,51.7c0-1.2-1-2.3-2.3-2.5l-2-0.2c-1.5-0.2-2.3,1-2.3,2.2l0,1.2c0,1.2,1,2.3,2.3,2.5l2.6,0.2
				c0.7,0,1.2-0.4,1.2-1.2l-3.8-0.3c-0.7,0-1.2-0.4-1.2-1.2l4.5,0.3C101.1,52.8,101.7,52.2,101.7,51.7z M97.3,51.4
				c-0.7,0-1.2,0.4-1.2,1.2l0,0l0-1.2c0-0.7,0.4-1.2,1.2-1.2l2,0.2c0.7,0,1.2,0.4,1.2,1.2L97.3,51.4z"/>
		</g>
		<g>
			<g>
				<path class="st1" d="M108.6,48.1c0.1-0.1,0.4-0.1,0.7-0.1s0.4,0,0.7,0.1s0.3,0.4,0.3,0.7c0,0.3,0,0.4-0.3,0.7
					c-0.1,0.1-0.4,0.1-0.7,0.1c-0.3,0-0.4,0-0.7-0.1c-0.3-0.1-0.3-0.4-0.3-0.7C108.5,48.6,108.5,48.3,108.6,48.1z M108.7,49.1
					c0.1,0.3,0.4,0.3,0.4,0.3s0.4,0,0.4-0.1c0.1-0.1,0.1-0.4,0.1-0.4c0-0.1,0-0.4-0.1-0.4c-0.1-0.3-0.4-0.3-0.4-0.3s-0.4,0-0.4,0.1
					c-0.1,0.1-0.1,0.4-0.1,0.4C108.6,48.9,108.6,49.1,108.7,49.1z M108.9,49.1l0-0.7c0,0,0,0,0-0.1c0-0.1,0,0,0.1,0l0.4,0
					c0.1,0,0.1,0,0.1,0c0.1,0,0.1,0.1,0.1,0.3c0,0.3-0.1,0.3-0.3,0.3l-0.1,0l0.4,0.4l-0.3,0l-0.3-0.3c0,0,0,0,0-0.1c0,0,0,0,0.1,0
					l0.1,0l0.1,0l0,0l0-0.1l0,0l-0.1,0l-0.6,0l0,0l0,0l0,0.6l-0.3,0l0-0.1C108.6,49.1,108.9,49.1,108.9,49.1z"/>
			</g>
		</g>
		<g>
			<polygon class="st0" points="131,39.9 130.2,215.5 114.3,214.5 115.1,38.9 130.7,39.9 			"/>
			<path class="st1" d="M130.2,216.2L130.2,216.2l-15.9-0.8c-0.4,0-0.6-0.3-0.6-0.7l0.8-175.7c0-0.1,0.1-0.4,0.1-0.4
				c0.1-0.1,0.3-0.1,0.4-0.1l15.6,0.8l0.1,0c0.4,0,0.7,0.3,0.7,0.7l-0.8,175.6c0,0.1-0.1,0.4-0.1,0.4
				C130.7,216,130.4,216.2,130.2,216.2z M114.9,213.9l14.6,0.8l0.8-174.3l-14.6-0.8C115.7,39.5,114.9,213.9,114.9,213.9z"/>
		</g>
		<g>
			<polygon class="st0" points="149.3,8.3 130.7,39.9 115.1,38.9 130.7,13.7 31.7,7.8 15.7,33.4 1.5,32.4 24,0.7 			"/>
			<path class="st1" d="M130.7,40.5L130.7,40.5l-15.8-0.8c-0.1,0-0.4-0.1-0.6-0.4c-0.1-0.1-0.1-0.4,0-0.7l15.2-24.2L32,8.5
				L16.3,33.6c-0.1,0.1-0.4,0.4-0.6,0.4L1.4,33.1c-0.1,0-0.4-0.1-0.6-0.4c0-0.1,0-0.4,0.1-0.6L23.6,0.3C23.7,0.1,23.9,0,24.2,0
				l125.1,7.7c0.1,0,0.4,0.1,0.6,0.4c0.1,0.1,0.1,0.4,0,0.7l-18.4,31.4C131.1,40.3,131,40.5,130.7,40.5z M116.1,38.2l14.2,0.8
				L148,8.9L24.3,1.5L2.8,31.7l12.6,0.8l15.8-25c0.1-0.1,0.4-0.3,0.6-0.3l99.1,5.7c0.1,0,0.4,0.1,0.6,0.4c0.1,0.1,0.1,0.4,0,0.7
				L116.1,38.2z"/>
		</g>
		<g class="st2">
			<polygon class="st3" points="99.4,219.4 20.6,199.7 21.4,40 100.1,59.4 			"/>
			<path class="st1" d="M99.4,220c-0.1,0-0.1,0-0.1,0l-78.7-19.5c-0.3-0.1-0.4-0.3-0.4-0.7L20.8,40c0-0.1,0.1-0.4,0.3-0.4
				c0.1-0.1,0.4-0.1,0.6-0.1l78.6,19.5c0.3,0.1,0.4,0.3,0.4,0.7l-0.7,159.9c0,0.1-0.1,0.4-0.3,0.4C99.6,220,99.5,220,99.4,220z
				 M21.4,199.3l77.4,19.2l0.7-158.6L22.1,40.8L21.4,199.3z"/>
		</g>
	</g>
</g>
</svg>
