<?xml version="1.0" encoding="utf-8"?>
<!-- Generator: Adobe Illustrator 23.1.0, SVG Export Plug-In . SVG Version: 6.00 Build 0)  -->
<svg version="1.1" id="Слой_1" xmlns="http://www.w3.org/2000/svg" xmlns:xlink="http://www.w3.org/1999/xlink" x="0px" y="0px"
	 width="150px" height="220px" viewBox="0 0 150 220" style="enable-background:new 0 0 150 220;" xml:space="preserve">
<style type="text/css">
	.st0{fill:#E1E2E1;}
	.st1{fill:#868686;}
	.st2{opacity:0.8;enable-background:new    ;}
	.st3{fill:#BACCD9;}
	.st4{opacity:0.7;enable-background:new    ;}
	.st5{fill-rule:evenodd;clip-rule:evenodd;fill:#E1E2E2;}
	.st6{fill:#878787;}
	.st7{fill:#E1E2E2;}
	.st8{fill-rule:evenodd;clip-rule:evenodd;fill:#BACDDA;}
	.st9{opacity:0.8;}
	.st10{fill-rule:evenodd;clip-rule:evenodd;fill:#BACDDA;stroke:#878787;stroke-miterlimit:10;}
	.st11{fill-rule:evenodd;clip-rule:evenodd;fill:#E1E2E1;}
	.st12{fill-rule:evenodd;clip-rule:evenodd;fill:#BACCD9;}
	.st13{fill-rule:evenodd;clip-rule:evenodd;fill:#FFFFFF;}
	.st14{fill:#FFFFFF;}
	.st15{fill:#BACDDA;}
	.st16{fill:none;}
	
		.st17{fill-rule:evenodd;clip-rule:evenodd;fill:#E1E2E1;stroke:#868686;stroke-linecap:round;stroke-linejoin:round;stroke-miterlimit:10;}
	
		.st18{fill-rule:evenodd;clip-rule:evenodd;fill:#E1E2E1;stroke:#868686;stroke-width:1.5;stroke-linecap:round;stroke-linejoin:round;stroke-miterlimit:10;}
</style>
<g>
	<g>
		<g>
			<polygon class="st0" points="146.2,193.6 30.7,187.6 30.7,8.4 146.2,14.4 			"/>
			<path class="st1" d="M146.2,194.2L146.2,194.2l-115.5-6c-0.4,0-0.6-0.3-0.6-0.7V8.4c0-0.1,0.1-0.4,0.1-0.4s0.3-0.1,0.4-0.1
				l115.5,6c0.4,0,0.6,0.3,0.6,0.7v179.1c0,0.1-0.1,0.4-0.1,0.4C146.6,194.2,146.5,194.2,146.2,194.2z M31.5,186.9l114.1,5.9V15.1
				l-114.1-6C31.5,9.1,31.5,186.9,31.5,186.9z"/>
		</g>
		<g>
			<g>
				
					<rect x="87.8" y="-46.5" transform="matrix(5.175770e-02 -0.9987 0.9987 5.175770e-02 72.5976 99.2551)" class="st1" width="1.5" height="115.8"/>
			</g>
			<g>
				
					<rect x="87.9" y="-30.1" transform="matrix(5.175770e-02 -0.9987 0.9987 5.175770e-02 56.3553 114.834)" class="st1" width="1.5" height="115.8"/>
			</g>
			<g>
				
					<rect x="87.8" y="-13.9" transform="matrix(5.175770e-02 -0.9987 0.9987 5.175770e-02 40.0024 130.0707)" class="st1" width="1.5" height="115.8"/>
			</g>
			<g>
				
					<rect x="87.8" y="2.3" transform="matrix(5.176339e-02 -0.9987 0.9987 5.176339e-02 23.7794 145.4595)" class="st1" width="1.5" height="115.8"/>
			</g>
			<g>
				
					<rect x="87.8" y="18.7" transform="matrix(5.293565e-02 -0.9986 0.9986 5.293565e-02 7.4392 160.9557)" class="st1" width="1.5" height="115.8"/>
			</g>
			<g>
				
					<rect x="87.8" y="35" transform="matrix(5.175770e-02 -0.9987 0.9987 5.175770e-02 -8.8055 176.4986)" class="st1" width="1.5" height="115.8"/>
			</g>
			<g>
				
					<rect x="87.8" y="51.2" transform="matrix(5.175200e-02 -0.9987 0.9987 5.175200e-02 -25.0268 191.8896)" class="st1" width="1.5" height="115.8"/>
			</g>
			<g>
				
					<rect x="87.9" y="67.6" transform="matrix(5.176339e-02 -0.9987 0.9987 5.176339e-02 -41.2703 207.4659)" class="st1" width="1.5" height="115.8"/>
			</g>
			<g>
				
					<rect x="87.7" y="83.8" transform="matrix(5.293565e-02 -0.9986 0.9986 5.293565e-02 -57.7194 222.5367)" class="st1" width="1.5" height="115.8"/>
			</g>
			<g>
				
					<rect x="87.8" y="100.2" transform="matrix(5.175200e-02 -0.9987 0.9987 5.175200e-02 -73.8343 238.3182)" class="st1" width="1.5" height="115.8"/>
			</g>
			<g>
				
					<rect x="87.8" y="116.5" transform="matrix(5.176339e-02 -0.9987 0.9987 5.176339e-02 -90.208 253.7421)" class="st1" width="1.5" height="115.8"/>
			</g>
			<g>
				
					<rect x="87.8" y="132.7" transform="matrix(5.175200e-02 -0.9987 0.9987 5.175200e-02 -106.4293 269.1339)" class="st1" width="1.5" height="115.8"/>
			</g>
		</g>
		<g>
			<g>
				<rect x="30.3" y="8.4" class="st1" width="1.5" height="179.4"/>
			</g>
			<g>
				<rect x="49.5" y="9.4" class="st1" width="1.5" height="179.4"/>
			</g>
			<g>
				<rect x="68.6" y="10.3" class="st1" width="1.5" height="179.4"/>
			</g>
			<g>
				<rect x="88.1" y="11.3" class="st1" width="1.5" height="179.4"/>
			</g>
			<g>
				<rect x="107.3" y="12.3" class="st1" width="1.5" height="179.4"/>
			</g>
			<g>
				<rect x="126.4" y="13.5" class="st1" width="1.5" height="179.4"/>
			</g>
			<g>
				<rect x="145.8" y="14.4" class="st1" width="1.5" height="179.4"/>
			</g>
		</g>
		<g>
			<g>
				<polygon class="st0" points="149.3,187.6 131.3,218.7 131.3,39.5 149.3,8.4 				"/>
				<path class="st1" d="M131.3,219.4c-0.1,0-0.1,0-0.1,0c-0.3-0.1-0.4-0.4-0.4-0.7V39.5c0-0.1,0-0.1,0.1-0.3l18-31.2
					c0.1-0.3,0.4-0.4,0.7-0.3c0.3,0.1,0.4,0.4,0.4,0.7v179.4c0,0.1,0,0.1-0.1,0.3l-18,31.1C131.7,219.3,131.6,219.4,131.3,219.4z
					 M132,39.7v176.4l16.5-28.6V10.9L132,39.7z"/>
			</g>
			<g>
				<g>
					<polygon class="st1" points="130.7,39.2 148.6,8.1 149.9,8.9 131.9,40 					"/>
				</g>
				<g>
					<polygon class="st1" points="130.7,55.5 148.7,24.4 149.9,25.1 132,56.2 					"/>
				</g>
				<g>
					<polygon class="st1" points="130.7,71.8 148.7,40.7 149.9,41.4 132,72.5 					"/>
				</g>
				<g>
					<polygon class="st1" points="130.7,88.2 148.7,57.1 150,57.8 132,88.9 					"/>
				</g>
				<g>
					<polygon class="st1" points="130.6,104.3 148.6,73.3 149.9,74 131.9,105.1 					"/>
				</g>
				<g>
					<polygon class="st1" points="130.7,120.7 148.7,89.7 150,90.4 132,121.5 					"/>
				</g>
				<g>
					<polygon class="st1" points="130.6,136.9 148.6,105.8 149.9,106.6 131.9,137.6 					"/>
				</g>
				<g>
					<polygon class="st1" points="131.9,154 130.7,153.3 148.7,122.3 149.9,122.9 					"/>
				</g>
				<g>
					<polygon class="st1" points="131.9,170.1 130.7,169.5 148.7,138.5 149.9,139.2 					"/>
				</g>
				<g>
					<polygon class="st1" points="130.7,185.9 148.7,154.8 149.9,155.5 131.9,186.6 					"/>
				</g>
				<g>
					<polygon class="st1" points="130.7,202.2 148.7,171.1 150,171.8 132,202.9 					"/>
				</g>
				<g>
					<polygon class="st1" points="131.9,219.3 130.7,218.5 148.7,187.4 149.9,188.2 					"/>
				</g>
			</g>
			<g>
				<g>
					<rect x="130.7" y="39.5" class="st1" width="1.5" height="179.4"/>
				</g>
				<g>
					<rect x="136.5" y="29" class="st1" width="1.5" height="179.4"/>
				</g>
				<g>
					<rect x="142.5" y="18.8" class="st1" width="1.5" height="179.4"/>
				</g>
				<g>
					<rect x="148.5" y="8.4" class="st1" width="1.5" height="179.4"/>
				</g>
			</g>
		</g>
		<g>
			<g>
				<polygon class="st0" points="30.6,187.4 15.7,212.7 15.7,33.4 30.6,8.2 				"/>
				<path class="st1" d="M15.7,213.4c-0.1,0-0.1,0-0.1,0c-0.3-0.1-0.4-0.4-0.4-0.7V33.4c0-0.1,0-0.1,0.1-0.3L30,7.9
					c0.1-0.3,0.4-0.4,0.7-0.3c0.3,0.1,0.4,0.4,0.4,0.7v179.1c0,0.1,0,0.1-0.1,0.3L16,213C16,213.3,15.8,213.4,15.7,213.4z
					 M16.4,33.6v176.6L30,187.3V10.7L16.4,33.6z"/>
			</g>
			<g>
				<g>
					<polygon class="st1" points="15.1,33.1 30,7.9 31.3,8.7 16.3,33.9 					"/>
				</g>
				<g>
					<polygon class="st1" points="15.1,49.4 30.1,24.2 31.3,25 16.3,50.2 					"/>
				</g>
				<g>
					<polygon class="st1" points="15,65.8 29.9,40.5 31.2,41.3 16.3,66.5 					"/>
				</g>
				<g>
					<polygon class="st1" points="15,82 30,56.8 31.2,57.5 16.3,82.7 					"/>
				</g>
				<g>
					<polygon class="st1" points="15,98.3 30,73.1 31.2,73.9 16.3,99.1 					"/>
				</g>
				<g>
					<polygon class="st1" points="15.1,114.5 30.1,89.3 31.4,90.1 16.3,115.3 					"/>
				</g>
				<g>
					<polygon class="st1" points="15,131.1 29.9,105.9 31.2,106.6 16.2,131.8 					"/>
				</g>
				<g>
					<polygon class="st1" points="15.1,147.3 30,122.1 31.3,122.8 16.3,148 					"/>
				</g>
				<g>
					<polygon class="st1" points="15.1,163.5 30.1,138.3 31.3,139.1 16.3,164.3 					"/>
				</g>
				<g>
					<polygon class="st1" points="15,179.7 29.9,154.5 31.2,155.2 16.2,180.4 					"/>
				</g>
				<g>
					<polygon class="st1" points="14.9,196 30,170.8 31.2,171.6 16.2,196.7 					"/>
				</g>
				<g>
					<polygon class="st1" points="15,212.4 30,187.2 31.2,187.9 16.3,213.1 					"/>
				</g>
			</g>
			<g>
				<g>
					<rect x="14.9" y="33.4" class="st1" width="1.5" height="179.4"/>
				</g>
				<g>
					<rect x="19.9" y="25.1" class="st1" width="1.5" height="179.4"/>
				</g>
				<g>
					<rect x="24.9" y="16.6" class="st1" width="1.5" height="179.4"/>
				</g>
				<g>
					<rect x="29.9" y="8.1" class="st1" width="1.5" height="179.4"/>
				</g>
			</g>
		</g>
		<g>
			<polygon class="st0" points="15.4,34 15.4,213.4 0.6,212.4 0.6,33.1 14.9,34 			"/>
			<path class="st1" d="M15.4,214L15.4,214l-14.8-1c-0.4,0-0.6-0.3-0.6-0.7V33.1c0-0.1,0.1-0.4,0.1-0.4c0.1-0.1,0.3-0.1,0.4-0.1
				l14.3,0.9h0.4c0.4,0,0.7,0.3,0.7,0.7v179.4c0,0.1-0.1,0.4-0.1,0.4C15.7,214,15.5,214,15.4,214z M1.3,211.8l13.5,0.9V34.6
				L1.3,33.9V211.8z"/>
		</g>
		<g>
			<polygon class="st0" points="116.8,61.2 31.9,56.6 31.9,41.9 116.8,46.5 			"/>
		</g>
		<g>
			<path class="st1" d="M46.5,46.9l-3.1-0.1c-1.5-0.1-2.3,1-2.3,2.2v1.2c0,1.5,1,2.5,2.3,2.5l1.8,0.1l0,0c0.7,0,1.2-0.4,1.2-1.2
				l-3.1-0.1c-0.7,0-1.2-0.4-1.2-1.2v-1.2c0-0.7,0.4-1.2,1.2-1.2l3.1,0.1l0,0l0,0v5.3c0,0.7-0.4,1.2-1.2,1.2l-1.8-0.1
				c-0.7,0-1.2,0.4-1.2,1.2h1.2l0,0l1.8,0.1l0,0c1.5,0.1,2.3-1,2.3-2.2l0,0v-5.3C47.6,47.7,47.3,47.1,46.5,46.9z"/>
		</g>
		<g>
			<path class="st1" d="M104.5,50.2c-1.5-0.1-2.3,1-2.3,2.2v2.3c0,0.7,0.4,1.2,1.2,1.2v-3.5c0-0.7,0.4-1.2,1.2-1.2l1.5,0.1
				c0.7,0,1.2-0.4,1.2-1.2L104.5,50.2z"/>
		</g>
		<g>
			<path class="st1" d="M58,52.2c-0.7,0-1.2-0.4-1.2-1.2v-2.3l1.8,0.1c0.7,0,1.2-0.4,1.2-1.2l-3.1-0.1v-2.6c-0.7,0-1.2,0.4-1.2,1.2
				v5c0,1.5,1,2.5,2.3,2.5h0.4c0.7,0,1.2-0.4,1.2-1.2L58,52.2z"/>
		</g>
		<g>
			<path class="st1" d="M92.5,55.3c-1.5-0.1-2.3-1.2-2.3-2.5v-2.3l-3.5-0.3v2.3c0,0.7,0.4,1.2,1.2,1.2l1.8,0.1
				c0,0.7-0.4,1.2-1.2,1.2h-0.6c-1.5-0.1-2.3-1.2-2.3-2.5v-5c0-0.7,0.4-1.2,1.2-1.2v2.8l3.5,0.3V48c0-0.7,0.4-1.2,1.2-1.2v2.6
				l3.1,0.1c0,0.7-0.4,1.2-1.2,1.2h-2v2.3l0,0c0,0.7,0.4,1.2,1.2,1.2h0.4H94c0,0.7-0.4,1.2-1.2,1.2L92.5,55.3z"/>
		</g>
		<g>
			<path class="st1" d="M53.6,48.5v3.7c0,0.7,0.4,1.2,1.2,1.2v-5.9C54,47.4,53.6,47.8,53.6,48.5z"/>
		</g>
		<g>
			<path class="st1" d="M50.6,51.9c-0.7,0-1.2-0.4-1.2-1.2v-3.7c-0.7,0-1.2,0.4-1.2,1.2v2.3c0,1.5,1,2.5,2.3,2.5l1.6,0.1
				c0.7,0,1.2-0.4,1.2-1.2L50.6,51.9z"/>
		</g>
		<g>
			<path class="st1" d="M70,52.9c-0.7,0-1.2-0.4-1.2-1.2v-3.7c-0.7,0-1.2,0.4-1.2,1.2v2.3c0,1.5,1,2.5,2.3,2.5h1
				c0.7,0,1.2-0.4,1.2-1.2H70z M76.1,49.7v2.3c0,0.7-0.4,1.2-1.2,1.2l0,0l-1.8-0.1l0,0v-4.8c-0.7,0-1.2,0.4-1.2,1.2v3.5
				c0,0.7,0.4,1.2,1.2,1.2l1.8,0.1c1.5,0,2.3-0.7,2.3-2.2l0,0v-3.5C76.5,48.5,76.1,49.1,76.1,49.7z"/>
		</g>
		<g>
			<path class="st1" d="M66.9,50.5c0-1.5-1-2.5-2.3-2.5l-2.2-0.1c-1.5-0.1-2.3,1-2.3,2.2v1.2c0,1.5,1,2.5,2.3,2.5l2.6,0.1
				c0.7,0,1.2-0.4,1.2-1.2l-3.8-0.3c-0.7,0-1.2-0.4-1.2-1.2l4.5,0.3C66.3,51.5,66.9,51.2,66.9,50.5z M62.5,50.2
				c-0.7,0-1.2,0.4-1.2,1.2l0,0v-1.2c0-0.7,0.4-1.2,1.2-1.2l2,0.1c0.7,0,1.2,0.4,1.2,1.2L62.5,50.2z"/>
		</g>
		<g>
			<path class="st1" d="M84.7,51.5c0-1.5-1-2.5-2.3-2.5l-2-0.1c-1.5-0.1-2.3,1-2.3,2.2v1.2c0,1.5,1,2.5,2.3,2.5l2.6,0.1
				c0.7,0,1.2-0.4,1.2-1.2l-3.8-0.1c-0.7,0-1.2-0.4-1.2-1.2l4.5,0.3l0,0C84.3,52.7,84.7,52.1,84.7,51.5z M80.5,51.2
				c-0.7,0-1.2,0.4-1.2,1.2l0,0v-1.2c0-0.7,0.4-1.2,1.2-1.2l2,0.1c0.7,0,1.2,0.4,1.2,1.2L80.5,51.2z"/>
		</g>
		<g>
			<path class="st1" d="M101.6,52.4c0-1.5-1-2.5-2.3-2.5l-2-0.1c-1.5-0.1-2.3,1-2.3,2.2v1.2c0,1.5,1,2.5,2.3,2.5l2.6,0.1
				c0.7,0,1.2-0.4,1.2-1.2l-3.8-0.3c-0.7,0-1.2-0.4-1.2-1.2l4.5,0.3C101,53.4,101.6,53.1,101.6,52.4z M97.2,52.1
				c-0.7,0-1.2,0.4-1.2,1l0,0v-1.2c0-0.7,0.4-1.2,1.2-1.2l2,0.1c0.7,0,1.2,0.4,1.2,1.2H97.2z"/>
		</g>
		<g>
			<g>
				<path class="st1" d="M108.4,48.5c0.1-0.1,0.4-0.1,0.7-0.1c0.1,0,0.4,0,0.7,0.1c0.1,0.1,0.3,0.4,0.3,0.7s0,0.4-0.3,0.7
					c-0.1,0.1-0.4,0.1-0.7,0.1c-0.1,0-0.4,0-0.7-0.1c-0.3-0.1-0.3-0.4-0.3-0.7C108.3,49.1,108.3,48.8,108.4,48.5z M108.4,49.9
					c0.1,0.3,0.4,0.3,0.4,0.3s0.4,0,0.4-0.1c0.1-0.1,0.1-0.4,0.1-0.4c0-0.1,0-0.4-0.1-0.4c-0.1-0.3-0.4-0.3-0.4-0.3s-0.4,0-0.4,0.1
					c-0.1,0.1-0.1,0.4-0.1,0.4C108.4,49.6,108.4,49.7,108.4,49.9z M108.7,49.9v-0.7c0,0,0,0,0-0.1c0,0,0,0,0.1,0h0.4
					c0.1,0,0.1,0,0.1,0c0.1,0,0.1,0.1,0.1,0.3c0,0.3-0.1,0.3-0.3,0.3h-0.1l0.4,0.4h-0.1l-0.4-0.4c0,0,0,0,0-0.1c0,0,0,0,0.1,0h0.1
					h0.1l0,0v-0.1l0,0h-0.1H109l0,0l0,0V50h-0.1v-0.1H108.7z"/>
			</g>
		</g>
		<g>
			<polygon class="st0" points="131,40.2 131,219.4 114.9,218.5 114.9,39.2 130.7,40 			"/>
			<path class="st1" d="M131,220L131,220l-16.1-0.7c-0.4,0-0.6-0.3-0.6-0.7V39.2c0-0.1,0.1-0.4,0.1-0.4s0.3-0.1,0.4-0.1l15.8,0.7
				c0.1,0,0.1,0,0.3,0.1l0.3,0.1c0.1,0.1,0.4,0.4,0.4,0.6v179.2c0,0.1-0.1,0.4-0.1,0.4C131.3,220,131.1,220,131,220z M115.5,217.9
				l14.6,0.7V40.6l-14.6-0.7V217.9z"/>
		</g>
		<g>
			<polygon class="st0" points="149.1,7.9 130.7,40 114.9,39.2 130.5,13.5 30.9,7.9 14.9,34 0.6,33.1 23.3,0.7 			"/>
			<path class="st1" d="M130.7,40.6L130.7,40.6l-16-0.7c-0.1,0-0.4-0.1-0.6-0.4c-0.1-0.3-0.1-0.4,0-0.7l15.2-24.8L31.2,8.7
				L15.5,34.3c-0.1,0.1-0.4,0.3-0.6,0.3L0.6,33.9c-0.1,0-0.4-0.1-0.6-0.4c0-0.1,0-0.4,0.1-0.7L22.7,0.3C22.8,0.1,23,0,23.3,0
				l125.9,7.2c0.1,0,0.4,0.1,0.6,0.4c0.1,0.1,0.1,0.4,0,0.7l-18.4,32.1C131.1,40.6,131,40.6,130.7,40.6z M116,38.6l14.3,0.7L148,8.5
				l-124.4-7L1.8,32.6l12.7,0.7L30.3,7.6c0.1-0.1,0.4-0.3,0.6-0.3l99.7,5.6c0.1,0,0.4,0.1,0.6,0.4c0.1,0.3,0.1,0.4,0,0.7L116,38.6z"
				/>
		</g>
		<g>
			<g class="st2">
				<polygon class="st3" points="84,195.4 44.6,211.2 44.6,51.5 84,35.6 				"/>
				<path class="st1" d="M44.6,211.9c-0.1,0-0.3,0-0.4-0.1c-0.1-0.1-0.3-0.3-0.3-0.6V51.5c0-0.3,0.1-0.4,0.4-0.6l39.4-16
					c0.1-0.1,0.4-0.1,0.6,0.1c0.1,0.1,0.3,0.3,0.3,0.6v159.7c0,0.3-0.1,0.4-0.4,0.6l-39.4,15.7C44.8,211.8,44.8,211.9,44.6,211.9z
					 M45.4,51.8V210l38-15.4V36.5L45.4,51.8z"/>
			</g>
			<g class="st2">
				<polygon class="st3" points="84,195.4 114.4,214.7 114.4,54.9 84,35.6 				"/>
				<path class="st1" d="M114.4,215.5c-0.1,0-0.3,0-0.4-0.1l-30.4-19.5c-0.1-0.1-0.3-0.3-0.3-0.6V35.6c0-0.1,0.1-0.4,0.4-0.6
					c0.1-0.1,0.4-0.1,0.7,0l30.4,19.5c0.1,0.1,0.3,0.3,0.3,0.6v159.7c0,0.1-0.1,0.4-0.4,0.6C114.7,215.5,114.6,215.5,114.4,215.5z
					 M84.7,194.9l29,18.5V55.3l-29-18.5V194.9z"/>
			</g>
		</g>
	</g>
</g>
</svg>
