<?xml version="1.0" encoding="utf-8"?>
<!-- Generator: Adobe Illustrator 27.3.1, SVG Export Plug-In . SVG Version: 6.00 Build 0)  -->
<svg version="1.1" id="Layer_1" xmlns="http://www.w3.org/2000/svg" xmlns:xlink="http://www.w3.org/1999/xlink" x="0px" y="0px"
	 viewBox="0 0 25 24" style="enable-background:new 0 0 25 24;" xml:space="preserve">
<style type="text/css">
	.st0{fill:#FFFFFF;}
</style>
<path class="st0" d="M11.6,24c-0.9,0-1.9-0.1-2.8-0.3c-0.4-0.1-0.7-0.4-0.7-0.9v-2l-0.2-0.1c-0.6-0.2-1.5-0.8-2.1-1.2l-0.2-0.1
	l-1.8,1c-0.1,0.1-0.3,0.1-0.5,0.1c-0.2,0-0.5-0.1-0.7-0.3c-1.3-1.4-2.2-3.1-2.8-4.8c-0.1-0.3,0-0.8,0.4-1l1.8-1v-0.2
	c0-0.2,0-0.4,0-0.6c0-0.2,0-0.4,0-0.6c0-0.1,0-0.3,0-0.5c0-0.2,0-0.5,0-0.7v-0.2l-1.7-1C0,9.4-0.1,8.9,0,8.6
	c0.5-1.8,1.5-3.4,2.8-4.8C3,3.6,3.2,3.5,3.5,3.5c0.2,0,0.3,0,0.5,0.1l1.8,1l0.2-0.1c0.5-0.4,1.4-1,2.1-1.2l0.2-0.1v-2
	c0-0.4,0.3-0.8,0.7-0.9C9.7,0.1,10.7,0,11.6,0c0.9,0,1.9,0.1,2.8,0.3c0.4,0.1,0.7,0.4,0.7,0.9v2l0.2,0.1c0.6,0.2,1.5,0.8,2.1,1.2
	l0.2,0.1l1.8-1c0.1-0.1,0.3-0.1,0.5-0.1c0.2,0,0.5,0.1,0.7,0.3c1.3,1.4,2.2,3.1,2.8,4.8c0.1,0.3,0,0.8-0.4,1l-1.8,1v0.2
	c0,0.2,0,0.4,0,0.7c0,0.2,0,0.4,0,0.5c0,0.2,0,0.4,0,0.6c0,0.2,0,0.5,0,0.6v0.2l1.7,1c0.4,0.2,0.5,0.7,0.4,1
	c-0.5,1.8-1.5,3.4-2.8,4.8c-0.2,0.2-0.4,0.3-0.7,0.3l0,0c-0.2,0-0.3,0-0.5-0.1l-1.8-1l-0.2,0.1c-0.5,0.4-1.4,1-2.1,1.2l-0.2,0.1v2
	c0,0.4-0.3,0.8-0.7,0.9C13.5,23.9,12.5,24,11.6,24z M9.1,22.7l0.2,0.1c0.6,0.1,1.6,0.3,2.3,0.3c0.6,0,1.6-0.1,2.2-0.3l0.2-0.1v-2.7
	c1.6-0.6,2.1-0.9,3.3-1.9l2.4,1.4l0.2-0.2c1-1.1,1.7-2.4,2.3-3.9l0.1-0.3l-2.4-1.3c0.3-1.6,0.3-2.2,0-3.8l2.4-1.3l-0.1-0.3
	c-0.5-1.4-1.3-2.8-2.3-3.9l-0.2-0.2l-2.4,1.4c-1.2-1.1-1.8-1.4-3.3-1.9V1.3l-0.2-0.1C13.2,1.1,12.2,1,11.6,1c-0.7,0-1.7,0.1-2.3,0.3
	L9.1,1.3v2.7C7.6,4.5,7.1,4.8,5.9,5.9L3.5,4.5L3.3,4.7c-1,1.1-1.7,2.4-2.3,3.9L1,8.8l2.4,1.3c-0.3,1.6-0.3,2.2,0,3.8L1,15.2l0.1,0.3
	c0.5,1.4,1.3,2.8,2.3,3.9l0.2,0.2l2.4-1.4c1.2,1.1,1.8,1.4,3.3,1.9V22.7z M11.6,16.4c-2.5,0-4.5-2-4.5-4.5c0-2.4,2.1-4.5,4.5-4.5
	c2.4,0,4.5,2,4.5,4.5S14.1,16.4,11.6,16.4z M11.6,8.5c-1.9,0-3.5,1.6-3.5,3.5c0,2,1.5,3.5,3.5,3.5c1.9,0,3.5-1.6,3.5-3.5
	S13.5,8.5,11.6,8.5z"/>
</svg>
