<svg width="20" height="24" viewBox="0 0 20 24" fill="none" xmlns="http://www.w3.org/2000/svg">
<path d="M6.5 2C4.40625 2 2.75 3.6875 2.75 5.75C2.75 7.84375 4.40625 9.5 6.5 9.5C8.5625 9.5 10.25 7.84375 10.25 5.75C10.25 3.6875 8.5625 2 6.5 2ZM6.5 8.5C4.96875 8.5 3.75 7.28125 3.75 5.75C3.75 4.25 4.96875 3 6.5 3C8 3 9.25 4.25 9.25 5.75C9.25 7.28125 8 8.5 6.5 8.5ZM7.75 6H7V4.25C7 4.125 6.875 4 6.75 4H6.25C6.09375 4 6 4.125 6 4.25V6.75C6 6.90625 6.09375 7 6.25 7H7.75C7.875 7 8 6.90625 8 6.75V6.25C8 6.125 7.875 6 7.75 6ZM19.75 11H19V7.625C19 7.125 18.7812 6.59375 18.4062 6.21875L15.7812 3.59375C15.4062 3.21875 14.9062 3 14.375 3H13V1.46875C13 0.65625 12.2812 0 11.4375 0H1.53125C0.6875 0 0 0.65625 0 1.46875V10.5625C0 11.375 0.6875 12 1.53125 12H2.03125C2 12.1875 2 12.3438 2 12.5C2 13.9062 3.09375 15 4.5 15C5.875 15 7 13.9062 7 12.5C7 12.3438 6.96875 12.1875 6.9375 12H13.0312C13 12.1875 13 12.3438 13 12.5C13 13.9062 14.0938 15 15.5 15C16.875 15 18 13.9062 18 12.5C18 12.3438 17.9688 12.1875 17.9375 12H19.75C19.875 12 20 11.9062 20 11.75V11.25C20 11.125 19.875 11 19.75 11ZM4.5 14C3.65625 14 3 13.3438 3 12.5C3 11.6875 3.65625 11 4.5 11C5.3125 11 6 11.6875 6 12.5C6 13.3438 5.3125 14 4.5 14ZM12 11H6.46875C6.03125 10.4062 5.3125 10 4.5 10C3.6875 10 2.96875 10.4062 2.5 11H1.53125C1.21875 11 1 10.8125 1 10.5625V1.46875C1 1.21875 1.21875 1 1.53125 1H11.4375C11.75 1 12 1.21875 12 1.46875V11ZM13 4H14.375C14.625 4 14.875 4.125 15.0625 4.3125L17.6875 6.9375C17.7188 6.96875 17.7188 7 17.75 7.03125H13V4ZM15.5 14C14.6562 14 14 13.3438 14 12.5C14 11.6875 14.6562 11 15.5 11C16.3125 11 17 11.6875 17 12.5C17 13.3438 16.3125 14 15.5 14ZM18 11H17.4688C17.0312 10.4062 16.3125 10 15.5 10C14.6875 10 13.9688 10.4062 13.5 11H13V8H18V11Z" fill="white"/>
<path d="M1.9478 24L5.04084 17.8778V17.8281H1.45064V16.7273H6.40447V17.853L3.31499 24H1.9478Z" fill="white"/>
<path d="M7.5506 24V23.0483L10.0755 20.5732C10.3169 20.3293 10.5182 20.1127 10.6792 19.9233C10.8401 19.7339 10.9609 19.5504 11.0414 19.3729C11.1219 19.1953 11.1621 19.0059 11.1621 18.8047C11.1621 18.575 11.11 18.3786 11.0059 18.2152C10.9017 18.0495 10.7585 17.9216 10.5762 17.8317C10.3939 17.7417 10.1867 17.6967 9.95472 17.6967C9.71561 17.6967 9.5061 17.7464 9.32617 17.8459C9.14625 17.9429 9.00657 18.0814 8.90714 18.2614C8.81007 18.4413 8.76154 18.6555 8.76154 18.9041H7.50799C7.50799 18.4425 7.61334 18.0412 7.82404 17.7003C8.03474 17.3594 8.32475 17.0954 8.69407 16.9084C9.06576 16.7214 9.49189 16.6278 9.97248 16.6278C10.4602 16.6278 10.8887 16.719 11.258 16.9013C11.6273 17.0836 11.9138 17.3333 12.1174 17.6506C12.3233 17.9678 12.4263 18.33 12.4263 18.7372C12.4263 19.0095 12.3742 19.277 12.2701 19.5398C12.1659 19.8026 11.9824 20.0938 11.7196 20.4134C11.4592 20.733 11.0935 21.12 10.6223 21.5746L9.36879 22.8494V22.8991H12.5364V24H7.5506Z" fill="white"/>
<path d="M18.3319 18.5455V24H17.0961V18.5455H18.3319ZM17.753 21.0099V22.0611C17.6133 22.1226 17.4547 22.1783 17.2772 22.228C17.102 22.2753 16.9161 22.3132 16.7196 22.3416C16.5255 22.37 16.3314 22.3842 16.1373 22.3842C15.4081 22.3842 14.8316 22.2209 14.4078 21.8942C13.9864 21.5651 13.7757 21.0526 13.7757 20.3565V18.5384H15.0044V20.3565C15.0044 20.5909 15.0459 20.7791 15.1287 20.9212C15.2116 21.0632 15.3371 21.1674 15.5051 21.2337C15.6732 21.2976 15.8839 21.3295 16.1373 21.3295C16.4213 21.3295 16.6912 21.3011 16.9469 21.2443C17.2026 21.1875 17.4713 21.1094 17.753 21.0099Z" fill="white"/>
</svg>
