<?xml version="1.0" encoding="utf-8"?>
<!-- Generator: Adobe Illustrator 23.0.0, SVG Export Plug-In . SVG Version: 6.00 Build 0)  -->
<svg version="1.1" id="Layer_1" xmlns="http://www.w3.org/2000/svg" xmlns:xlink="http://www.w3.org/1999/xlink" x="0px" y="0px"
	 width="30px" height="30px" viewBox="0 0 30 30" style="enable-background:new 0 0 30 30;" xml:space="preserve">
<style type="text/css">
	.st0{fill:#CCCCCC;}
</style>
<g id="Layer_2_1_">
	<path class="st0" d="M15.8,29.8L1.7,15.6c-0.3-0.3-0.3-0.8,0-1.1l0,0L15.8,0.2c0.3-0.3,0.8-0.3,1.1,0l0,0l1.3,1.3
		c0.3,0.3,0.3,0.8,0,1.1l0,0L6.1,15l12.2,12.3c0.3,0.3,0.3,0.8,0,1.1l0,0L17,29.8C16.7,30.1,16.2,30.1,15.8,29.8
		C15.9,29.8,15.9,29.8,15.8,29.8z"/>
</g>
</svg>
