<svg width="40" height="40" viewBox="0 0 40 40" fill="none" xmlns="http://www.w3.org/2000/svg">
<rect y="0.000976562" width="40" height="40" rx="20" fill="white"/>
<path d="M21.3008 20.251L26.5312 15.0713L27.5977 14.0049C27.75 13.8525 27.75 13.5986 27.5977 13.3955L26.4805 12.2783C26.2773 12.126 26.0234 12.126 25.8711 12.2783L19.625 18.5752L13.3281 12.2783C13.1758 12.126 12.9219 12.126 12.7188 12.2783L11.6016 13.3955C11.4492 13.5986 11.4492 13.8525 11.6016 14.0049L17.8984 20.251L11.6016 26.5479C11.4492 26.7002 11.4492 26.9541 11.6016 27.1572L12.7188 28.2744C12.9219 28.4268 13.1758 28.4268 13.3281 28.2744L19.625 21.9775L24.8047 27.208L25.8711 28.2744C26.0234 28.4268 26.2773 28.4268 26.4805 28.2744L27.5977 27.1572C27.75 26.9541 27.75 26.7002 27.5977 26.5479L21.3008 20.251Z" fill="#C3C3C7"/>
</svg>
