<svg id="Layer_1" data-name="Layer 1" xmlns="http://www.w3.org/2000/svg" viewBox="0 0 536 83"><defs><style>.cls-1{fill:#1d1d1f;}</style></defs><path class="cls-1" d="M41.38,19.13h-23C7.13,19.13,0,26.71,0,36.17v8.46c0,9.46,7,17,18.43,17H32.22c5.11,0,9.16-3.84,9.16-8.46h-23c-5.71,0-9.16-3.74-9.16-8.47V36.28c0-4.73,3.57-8.47,9.16-8.47H41.5V66.07c0,4.73-3.57,8.47-9.16,8.47H18.43c-5.11,0-9.16,3.84-9.16,8.46h23c11.3,0,18.43-7.59,18.43-17V27.7C50.65,23,46.49,19.13,41.38,19.13Z"/><path class="cls-1" d="M493.08,19.13c-11.3,0-18.43,7.58-18.43,17v17c0,4.73,4.16,8.46,9.15,8.46V36.17c0-4.73,3.57-8.47,9.16-8.47h11.53c5.11,0,9.16-3.84,9.16-8.46H493.08Z"/><path class="cls-1" d="M129.6,53.21c-5.71,0-9.16-3.74-9.16-8.47v-17h13.8c5.11,0,9.15-3.84,9.15-8.46H120.33V0c-5.12,0-9.16,3.85-9.16,8.46V44.63c0,9.46,7,17,18.43,17h4.64c5.11,0,9.15-3.84,9.15-8.46Z"/><path class="cls-1" d="M400.22,61.78c-11.3,0-18.43-7.58-18.43-17v-17H353.73v17c0,4.73,3.56,8.47,9.15,8.47h13.79c0,4.73-4.16,8.46-9.15,8.46h-4.64c-11.29,0-18.43-7.58-18.43-17V8.57c0-4.72,4.16-8.46,9.16-8.46V19.24h28.06V8.57c0-4.72,4.16-8.46,9.15-8.46V19.24h23.07c0,4.73-4.16,8.46-9.16,8.46H390.94v17c0,4.73,3.57,8.47,9.16,8.47h13.79c0,4.73-4.16,8.46-9.16,8.46Z"/><path class="cls-1" d="M96,27.7V53.21c0,4.73,4.16,8.46,9.16,8.46V19.13A8.85,8.85,0,0,0,96,27.7Z"/><path class="cls-1" d="M74.07,53.21c-5.7,0-9.15-3.74-9.15-8.47V19.13c-5.47,0-9.16,3.85-9.16,8.46v17c0,9.46,7,17,18.43,17H86.8c5.11,0,9.15-3.84,9.15-8.46Z"/><path class="cls-1" d="M223.29,53.21c-5.7,0-9.15-3.74-9.15-8.47V19.24c-5.11,0-9.16,3.85-9.16,8.46v17c0,9.46,7,17,18.43,17h6.9c5.11,0,9.15-3.84,9.15-8.46H223.29Zm48.4-25.51v17c0,5.28-4.05,8.47-9.16,8.47H248.74V19.13c-5.11,0-9.16,3.85-9.16,8.46V53.1c0,4.73,4.16,8.46,9.16,8.46h13.79c10.23,0,18.43-6.48,18.43-17V19.13C275.85,19.13,271.69,23,271.69,27.7Z"/><path class="cls-1" d="M199.87,36.17c0-9.46-7-17-18.43-17H165.39c-11.3,0-18.43,7.58-18.43,17v8.46c0,9.46,7,17,18.43,17h20.69c5.11,0,9.15-3.84,9.15-8.46h-30c-5.71,0-9.15-3.74-9.15-8.47H190.6C195.83,44.74,199.87,40.9,199.87,36.17Zm-34.48,0c-5.11,0-9.16,3.85-9.16,8.46V36.17c0-4.73,3.57-8.47,9.16-8.47h16.05c5.71,0,9.16,3.74,9.16,8.47Z"/><path class="cls-1" d="M339.46,36.17c0-9.46-7-17-18.43-17H305c-11.3,0-18.43,7.58-18.43,17v8.46c0,9.46,7,17,18.43,17h20.69c5.11,0,9.15-3.84,9.15-8.46H305c-5.71,0-9.16-3.74-9.16-8.47H330.3C335.3,44.74,339.46,40.9,339.46,36.17Zm-34.48,0c-5.12,0-9.16,3.85-9.16,8.46V36.17c0-4.73,3.57-8.47,9.16-8.47h16c5.71,0,9.15,3.74,9.15,8.47Z"/><path class="cls-1" d="M470.13,36.17c0-9.46-7-17-18.43-17H435.53c-11.3,0-18.43,7.58-18.43,17v8.46c0,9.46,7,17,18.43,17h20.69c5.11,0,9.15-3.84,9.15-8.46h-30c-5.71,0-9.15-3.74-9.15-8.47h34.48C466,44.74,470.13,40.9,470.13,36.17Zm-34.6,0c-5.11,0-9.16,3.85-9.16,8.46V36.17c0-4.73,3.57-8.47,9.16-8.47H451.7c5.71,0,9.16,3.74,9.16,8.47Z"/><path class="cls-1" d="M524.47,7c1.54-1.21,3.56-1.1,4.87-1.1s3.33-.11,4.88,1.1S536,10.22,536,11.87a6,6,0,0,1-1.78,4.84c-1.55,1.21-3.57,1.1-4.88,1.1s-3.33.11-4.87-1.1-1.79-3.19-1.79-4.84S522.8,8.35,524.47,7Zm.23,8.35c1.19,1.54,3.1,1.43,4.64,1.43s3.45.11,4.64-1.43a6.26,6.26,0,0,0,.95-3.52c0-.77,0-2.53-.95-3.52-1.19-1.53-3.09-1.42-4.64-1.42s-3.45-.11-4.64,1.42a6.26,6.26,0,0,0-1,3.52C523.87,12.64,523.87,14.4,524.7,15.39Zm1.43-.11V9.45a.77.77,0,0,1,.24-.66,1.34,1.34,0,0,1,1.07-.33h3a2.12,2.12,0,0,1,1.43.33,2.37,2.37,0,0,1,.71,1.87c0,1.87-1.07,2-1.54,2h-.72L533,15.17h-1.67l-2.49-2.31c-.24-.22-.36-.33-.36-.66,0-.55.36-.55.59-.55h1.07a2.21,2.21,0,0,0,.84-.11.86.86,0,0,0,.23-.44v-.88a2,2,0,0,0-.23-.55,1.36,1.36,0,0,0-.84-.33h-2.49a.77.77,0,0,0-.48.11.62.62,0,0,0-.12.44v5.28h-1Z"/></svg>