<svg width="18" height="18" viewBox="0 0 18 18" fill="none" xmlns="http://www.w3.org/2000/svg">
<path d="M16.5747 10.577L15.4341 9.88822C15.4341 9.63444 15.4697 9.23565 15.4697 8.98187C15.4697 8.76435 15.4341 8.36556 15.4341 8.11178L16.5747 7.42296C16.9311 7.24169 17.0737 6.80665 16.9667 6.44411C16.5747 5.06647 15.8618 3.83384 14.9351 2.81873C14.6499 2.5287 14.2222 2.45619 13.8658 2.67372L12.7252 3.36254C12.3331 3.03625 11.6559 2.63746 11.1925 2.45619V1.1148C11.1925 0.679758 10.943 0.353474 10.551 0.244713C9.19651 -0.081571 7.80642 -0.081571 6.45198 0.244713C6.0599 0.353474 5.8104 0.679758 5.8104 1.1148V2.45619C5.34704 2.63746 4.66982 3.03625 4.27774 3.36254L3.13716 2.67372C2.78072 2.45619 2.35301 2.5287 2.06786 2.81873C1.14113 3.83384 0.42827 5.06647 0.0361941 6.44411C-0.0707356 6.80665 0.0718374 7.24169 0.42827 7.42296L1.56885 8.11178C1.56885 8.36556 1.53321 8.76435 1.53321 8.98187C1.53321 9.23565 1.56885 9.63444 1.56885 9.88822L0.42827 10.577C0.0718374 10.7583 -0.0707356 11.1934 0.0361941 11.5559C0.42827 12.9335 1.14113 14.1662 2.06786 15.1813C2.35301 15.4713 2.78072 15.5438 3.13716 15.3263L4.27774 14.6375C4.66982 14.9637 5.34704 15.3625 5.8104 15.5438V16.8852C5.8104 17.3202 6.0599 17.6465 6.45198 17.7553C7.80642 18.0816 9.19651 18.0816 10.551 17.7553C10.943 17.6465 11.1925 17.3202 11.1925 16.8852V15.5438C11.6559 15.3625 12.3331 14.9637 12.7252 14.6375L13.8658 15.3263C14.2222 15.5438 14.6499 15.4713 14.9351 15.1813C15.8618 14.1662 16.5747 12.9335 16.9667 11.5559C17.0737 11.1934 16.9311 10.7583 16.5747 10.577ZM14.2578 14.2024L12.5826 13.2236C11.6202 14.0937 11.2995 14.2749 10.0519 14.7462V16.6677C9.62423 16.7764 8.94701 16.8489 8.51929 16.8489C8.05592 16.8489 7.3787 16.7764 6.95098 16.6677V14.7462C5.73911 14.3112 5.38268 14.0937 4.42031 13.2236L2.74508 14.2024C2.06786 13.4048 1.53321 12.4622 1.17678 11.4471L2.85201 10.5045C2.60251 9.1994 2.60251 8.8006 2.85201 7.49547L1.17678 6.55287C1.53321 5.53776 2.06786 4.59517 2.74508 3.79758L4.42031 4.77643C5.38268 3.90634 5.73911 3.68882 6.95098 3.25378V1.33233C7.3787 1.22356 8.05592 1.15106 8.51929 1.15106C8.94701 1.15106 9.62423 1.22356 10.0519 1.33233V3.25378C11.2638 3.68882 11.6202 3.90634 12.5826 4.77643L14.2578 3.79758C14.9351 4.59517 15.4697 5.53776 15.8262 6.55287L14.1509 7.49547C14.4004 8.8006 14.4004 9.1994 14.1509 10.5045L15.8262 11.4471C15.4697 12.4622 14.9351 13.4048 14.2578 14.2024ZM8.51929 5.50151C6.63019 5.50151 5.09753 7.09668 5.09753 8.98187C5.09753 10.9033 6.63019 12.4622 8.51929 12.4622C10.3727 12.4622 11.941 10.9033 11.941 8.98187C11.941 7.09668 10.3727 5.50151 8.51929 5.50151ZM8.51929 11.3021C7.23613 11.3021 6.23812 10.287 6.23812 8.98187C6.23812 7.71299 7.23613 6.66163 8.51929 6.66163C9.7668 6.66163 10.8005 7.71299 10.8005 8.98187C10.8005 10.287 9.7668 11.3021 8.51929 11.3021Z" fill="#6E6E73"/>
</svg>
