<svg width="35" height="35" viewBox="0 0 35 35" fill="none" xmlns="http://www.w3.org/2000/svg">
<path d="M17.5 0C27.1673 0 35 7.83266 35 17.5C35 27.1673 27.1673 35 17.5 35C7.83266 35 0 27.1673 0 17.5C0 7.83266 7.83266 0 17.5 0ZM26.0383 11.996C26.3206 10.8669 25.6149 10.373 24.8387 10.6552L7.97379 17.1472C6.84476 17.5706 6.84476 18.2762 7.7621 18.5585L12.0665 19.8992L22.0867 13.5484C22.5806 13.2661 23.004 13.4778 22.6512 13.7601L14.5363 21.0988L14.254 25.5444C14.6774 25.5444 14.8891 25.3327 15.1008 25.121L17.2177 23.0746L21.5927 26.3206C22.4395 26.744 23.004 26.5323 23.2157 25.5444L26.0383 11.996Z" fill="white"/>
</svg>
