<svg width="65" height="55" viewBox="0 0 65 55" fill="none" xmlns="http://www.w3.org/2000/svg">
<path fill-rule="evenodd" clip-rule="evenodd" d="M49.7656 45C48.0858 45 46.7187 46.346 46.7187 48C46.7187 49.654 48.0858 50.9999 49.7656 50.9999C51.4455 50.9999 52.8125 49.654 52.8125 48C52.8125 46.346 51.4455 45 49.7656 45ZM49.7656 49C49.205 49 48.75 48.552 48.75 48C48.75 47.448 49.205 47 49.7656 47C50.3262 47 50.7812 47.448 50.7812 48C50.7812 48.552 50.3262 49 49.7656 49Z" fill="white"/>
<path fill-rule="evenodd" clip-rule="evenodd" d="M16.25 45C14.5702 45 13.2031 46.346 13.2031 48C13.2031 49.654 14.5702 50.9999 16.25 50.9999C17.9299 50.9999 19.2969 49.654 19.2969 48C19.2969 46.346 17.9299 45 16.25 45ZM16.25 49C15.6894 49 15.2344 48.552 15.2344 48C15.2344 47.448 15.6894 47 16.25 47C16.8106 47 17.2656 47.448 17.2656 48C17.2656 48.552 16.8106 49 16.25 49Z" fill="white"/>
<path fill-rule="evenodd" clip-rule="evenodd" d="M18.9999 0H42.9999V18L56.8839 18C57.0683 18.0016 57.2408 18.0514 57.3892 18.1373C57.5742 18.2444 57.7216 18.4075 57.8075 18.6029L63.8732 31.5431C63.9289 31.6501 63.9655 31.7682 63.9788 31.8933C63.9833 31.9347 63.9851 31.976 63.9844 32.0172L64 43C64.5616 43 65 43.447 65 43.9999V47.9999C65 48.5529 64.546 48.9999 63.9844 48.9999L63.9698 48.9998L63.9587 48.9996L63.9378 48.9989H56.8026C56.3082 52.3862 53.3402 54.9989 49.7656 54.9989C46.191 54.9989 43.223 52.3862 42.7286 48.9989H23.2872C22.7931 52.3866 19.8249 54.9998 16.25 54.9998C12.6765 54.9998 9.70914 52.3885 9.21341 49.0027H3.03267C2.5 49 1.96875 48.4372 2 48L2.03125 44.9999L1 45C0.438359 45 5.19753e-05 44.5528 0 43.9998V31C0 30.4483 0.436209 30.0021 0.995921 30H2.99994V4H18.9999V0ZM20.9999 6V26H34.9999V2H20.9999V4L27.9972 3.99902C28.4972 3.99902 28.9972 4.49902 28.9972 4.99902V7.10046C29.3101 7.16415 29.6169 7.25782 29.9134 7.3806C30.52 7.63188 31.0712 8.00017 31.5355 8.46447C31.9776 8.90657 32.3326 9.42747 32.5825 10C32.5951 10.0287 32.6073 10.0576 32.6193 10.0866C32.8706 10.6932 32.9999 11.3434 32.9999 12H22.9999C22.9999 11.3434 23.1293 10.6932 23.3805 10.0866C23.3925 10.0576 23.4048 10.0287 23.4174 10C23.6672 9.42747 24.0223 8.90657 24.4644 8.46447C24.9287 8.00017 25.4799 7.63188 26.0865 7.3806C26.3812 7.25853 26.6862 7.16524 26.9972 7.10158V5.99902L20.9999 6ZM2 32V34H18.9999L18.9999 32L2 32ZM2 36H20.9999V32H41L40.9999 36L43 35.9997L43.0312 20L46 20V28C46 30.757 48.1999 33 51 33H62V38C61.4383 38 60.9375 38.447 60.9375 39C60.9375 39.553 61.4383 40 62 40V42.9996H61V45H63V47L56.8026 46.9989C56.3081 43.6117 53.3401 40.999 49.7656 40.999C46.1911 40.999 43.2231 43.6117 42.7286 46.9989H23.2869C22.792 43.6121 19.8242 40.9999 16.25 40.9999C12.6745 40.9999 9.70581 43.6141 9.21258 47.0027L4 47V45H6V42.9999L2 43V36ZM20.9999 30L21 28H40.9999V30H20.9999ZM18.9999 6H4.99994V30H18.9999V10L13.0027 9.99902V11.1016C13.3137 11.1652 13.6187 11.2585 13.9134 11.3806C14.52 11.6319 15.0712 12.0002 15.5355 12.4645C15.9776 12.9066 16.3326 13.4275 16.5825 14C16.5951 14.0287 16.6073 14.0576 16.6193 14.0866C16.8706 14.6932 16.9999 15.3434 16.9999 16H6.99994C6.99994 15.3434 7.12927 14.6932 7.38054 14.0866C7.39255 14.0576 7.40482 14.0287 7.41736 14C7.66723 13.4275 8.0223 12.9066 8.46441 12.4645C8.9287 12.0002 9.47989 11.6319 10.0865 11.3806C10.3829 11.2578 10.6898 11.1642 11.0027 11.1005V8.99902C11.0027 8.49902 11.5027 7.99902 12.0027 7.99902L18.9999 8V6ZM25.8786 9.87868C25.8392 9.91809 25.8009 9.95855 25.7639 10H30.236C30.1989 9.95855 30.1607 9.91809 30.1213 9.87868C29.8427 9.6001 29.512 9.37913 29.148 9.22836C28.784 9.0776 28.3939 9 27.9999 9C27.606 9 27.2159 9.0776 26.8519 9.22836C26.4879 9.37913 26.1572 9.6001 25.8786 9.87868ZM40.9999 26H36.9999V2H40.9999V26ZM48.0312 27.9998L48 20L56.2252 20L61.381 30.999C60.2995 30.999 59.1802 30.9982 58.0535 30.9974C55.6367 30.9957 53.1858 30.994 51 31C49.3378 30.9796 48.0312 29.6411 48.0312 27.9998ZM44.6917 48.2034C44.7056 48.1374 44.7129 48.069 44.7129 47.9989C44.7129 47.9288 44.7056 47.8604 44.6917 47.7943C44.8011 45.1319 47.0351 42.999 49.7656 42.999C52.5657 42.999 54.8437 45.242 54.8437 47.999C54.8437 50.7559 52.5657 52.9989 49.7656 52.9989C47.0351 52.9989 44.801 50.866 44.6917 48.2034ZM21.3281 48.0008C21.3276 50.7574 19.0498 52.9998 16.25 52.9998C13.4518 52.9998 11.175 50.7599 11.1719 48.0055L11.1719 47.9969L11.1719 47.9955C11.1743 45.2405 13.4514 42.9999 16.25 42.9999C19.0501 42.9999 21.3281 45.2438 21.3281 48.0008ZM14.1213 13.8787C14.1607 13.9181 14.1989 13.9586 14.236 14H9.76387C9.80094 13.9586 9.8392 13.9181 9.87862 13.8787C10.1572 13.6001 10.4879 13.3791 10.8519 13.2284C11.2159 13.0776 11.606 13 11.9999 13C12.3939 13 12.784 13.0776 13.148 13.2284C13.512 13.3791 13.8427 13.6001 14.1213 13.8787Z" fill="white"/>
</svg>
