<svg width="65" height="55" viewBox="0 0 65 55" fill="none" xmlns="http://www.w3.org/2000/svg">
<path d="M24 23C24 23.7956 23.6839 24.5587 23.1213 25.1213C22.5587 25.6839 21.7957 26 21 26C20.2044 26 19.4413 25.6839 18.8787 25.1213C18.3161 24.5587 18.0001 23.7956 18.0001 23V21H16.0001V23C16.0001 24.3261 16.5268 25.5979 17.4645 26.5356C18.4022 27.4732 19.674 28 21.0001 28C22.3262 28 23.5979 27.4732 24.5356 26.5356C25.4733 25.5979 26.0001 24.3261 26.0001 23V21H24V23Z" fill="white"/>
<path d="M6.00001 40.5H4V42.5H6.00001V40.5Z" fill="white"/>
<path d="M10 40.5H8.00002V42.5H10V40.5Z" fill="white"/>
<path d="M12 40.5H14V42.5H12V40.5Z" fill="white"/>
<path fill-rule="evenodd" clip-rule="evenodd" d="M29 0H52.9296V4H62.0002C63.5 4 65 5.5 65 7.00001V43.0001C64.9991 43.7954 64.6828 44.558 64.1204 45.1204C63.5579 45.6828 62.7954 45.9991 62 45.9999H39L39 49L42.4384 49C43.1076 48.9993 43.7576 49.2226 44.2851 49.6343C44.8126 50.0459 45.1872 50.6223 45.3491 51.2715L45.9702 53.7578C46.0069 53.9052 46.0096 54.059 45.978 54.2076C45.9464 54.3562 45.8814 54.4956 45.7879 54.6153C45.6944 54.7351 45.5749 54.8319 45.4384 54.8986C45.3019 54.9652 45.152 54.9999 45.0001 55H20C19.8481 54.9999 19.6982 54.9652 19.5617 54.8986C19.4252 54.8319 19.3056 54.7351 19.2121 54.6153C19.1186 54.4956 19.0536 54.3562 19.022 54.2076C18.9905 54.059 18.9931 53.9052 19.0298 53.7578L19.6509 51.2725C19.8127 50.6231 20.1872 50.0465 20.7147 49.6347C21.2422 49.2229 21.8924 48.9995 22.5616 49.0001L26 49V45.9999H2.99988C2.20453 45.9991 1.44201 45.6827 0.879618 45.1203C0.317224 44.5579 0.000882655 43.7954 0 43.0001V7.00001C0.000845949 6.20462 0.31719 5.44205 0.879618 4.87962C1.44205 4.31719 2.20462 4.00084 3.00001 4H26.0001V6.00001H3.00001C2.7349 6.00034 2.48073 6.1058 2.29327 6.29327C2.1058 6.48074 2.00034 6.7349 2.00001 7.00001V37H63V7.00001C63 6.5 62.5 6.00001 62 6.00001H52.9296V33.9768C52.9075 34.2406 52.7974 34.4878 52.6184 34.675C52.4395 34.8623 52.2032 34.9775 51.9511 35.0006H29.9785L29.9716 35H11.0001C10.8687 35 10.7387 34.9741 10.6173 34.9239C10.496 34.8737 10.3857 34.8 10.2929 34.7071C10.2 34.6143 10.1263 34.504 10.0761 34.3827C10.0259 34.2613 10 34.1313 10.0001 33.9999V18C10.0001 17.7348 10.1054 17.4804 10.293 17.2929C10.4805 17.1054 10.7348 17 11.0001 17H29V0ZM29 19V32.9999H12.0001V19H29ZM51 33H35V31H51V33ZM45 29H35V18C35 17.7348 34.8947 17.4804 34.7071 17.2929C34.5196 17.1054 34.2653 17 34 17H31V6L36.9973 5.99902V7.10158C36.6863 7.16524 36.3813 7.25853 36.0866 7.3806C35.48 7.63187 34.9288 8.00017 34.4645 8.46446C34.0224 8.90657 33.6673 9.42747 33.4174 10C33.4049 10.0287 33.3926 10.0576 33.3806 10.0866C33.1293 10.6932 33 11.3434 33 12H43C43 11.3434 42.8707 10.6932 42.6194 10.0866C42.6074 10.0576 42.5951 10.0287 42.5826 10C42.3327 9.42747 41.9776 8.90657 41.5355 8.46446C41.0712 8.00017 40.52 7.63187 39.9134 7.3806C39.617 7.25782 39.3102 7.16415 38.9973 7.10046V4.99902C38.9973 4.49902 38.4973 3.99902 37.9973 3.99902L31 4V2H45V29ZM31 19V29H33V19H31ZM33 31H31V32.9999H33V31ZM47 29H51V2H47V29ZM43.7193 53.0001L43.4087 51.757C43.3547 51.5406 43.2298 51.3486 43.054 51.2114C42.8781 51.0742 42.6614 50.9999 42.4384 51.0001H22.5616C22.3384 50.9999 22.1216 51.0744 21.9458 51.2117C21.7699 51.3491 21.6451 51.5414 21.5913 51.7579L21.2808 53.0001H43.7193ZM37 49L37 46.0001H28L28.0015 49.0001L37 49ZM62.7068 43.7069C62.8943 43.5194 62.9998 43.2652 63 43.0001V39H2.00001V43.0001C2.00027 43.2652 2.10571 43.5194 2.29319 43.7069C2.48067 43.8944 2.73488 43.9998 3.00001 44.0001H62C62.2652 43.9998 62.5194 43.8944 62.7068 43.7069ZM35.8787 9.87868C35.8393 9.91809 35.801 9.95855 35.7639 10H40.2361C40.199 9.95855 40.1607 9.91809 40.1213 9.87868C39.8427 9.6001 39.512 9.37912 39.148 9.22836C38.7841 9.07759 38.394 9 38 9C37.606 9 37.2159 9.07759 36.8519 9.22836C36.488 9.37912 36.1573 9.6001 35.8787 9.87868Z" fill="white"/>
</svg>
