<svg width="65" height="55" viewBox="0 0 65 55" fill="none" xmlns="http://www.w3.org/2000/svg">
<path fill-rule="evenodd" clip-rule="evenodd" d="M17 0H25C26.5 0 28 1.5 28 3V16.8902C28.6654 16.9995 29.3184 17.1755 29.9464 17.4169L32.4985 18.3979L35.0577 17.4141C36.6198 16.8154 38.3353 16.6191 40.0136 16.8471L51.4743 18.4282L54.3179 17.9802L54.1005 16.8709C54.0772 16.7523 54.08 16.6307 54.1088 16.513C54.1376 16.3954 54.1918 16.284 54.2684 16.1853C54.345 16.0866 54.4425 16.0025 54.5552 15.9378C54.6679 15.8731 54.7936 15.8291 54.9252 15.8083L59.9238 15.0141C60.0552 14.9932 60.1899 14.9958 60.3203 15.0219C60.4506 15.0479 60.5739 15.0969 60.6832 15.166C60.7926 15.235 60.8857 15.3229 60.9574 15.4245C61.029 15.526 61.0778 15.6394 61.1008 15.758L64.9843 35.6019C65.0077 35.7205 65.0049 35.8421 64.9761 35.9598C64.9473 36.0774 64.893 36.1888 64.8164 36.2875C64.7398 36.3862 64.6424 36.4703 64.5297 36.535C64.417 36.5997 64.2913 36.6437 64.1597 36.6645L59.1611 37.4587C59.0296 37.4797 58.8947 37.4772 58.7643 37.4512C58.6339 37.4252 58.5104 37.3763 58.401 37.3072C58.2915 37.2381 58.1983 37.1502 58.1266 37.0486C58.0549 36.9469 58.0061 36.8335 57.983 36.7148L57.8876 36.2275L57.0416 36.3576C56.2699 37.8966 55.1449 39.2703 53.741 40.3881C53.7867 40.9637 53.6797 41.5409 53.4289 42.0717C53.1781 42.6026 52.7907 43.072 52.2987 43.4409C51.8068 43.8099 51.2245 44.0678 50.6001 44.1934C49.9756 44.319 49.327 44.3086 48.7079 44.1631C48.7118 44.6465 48.6096 45.1258 48.4072 45.5734C48.2048 46.021 47.9061 46.4281 47.5285 46.7712C47.1509 47.1142 46.7018 47.3865 46.207 47.5723C45.7122 47.7581 45.1816 47.8538 44.6456 47.8537C44.3114 47.8513 43.9787 47.8113 43.6555 47.7347C43.6603 48.2187 43.5586 48.6988 43.3562 49.1471C43.1538 49.5954 42.8548 50.003 42.4764 50.3463C42.0981 50.6896 41.648 50.9617 41.1522 51.147C40.6564 51.3322 40.1248 51.4268 39.5881 51.4253C39.2467 51.4223 38.9071 51.3798 38.5776 51.2989C38.5977 52.0292 38.3702 52.7476 37.9256 53.3582C37.6312 53.7595 37.252 54.1046 36.8097 54.3738C36.3674 54.6429 35.8706 54.8308 35.3478 54.9268C34.825 55.0227 34.2863 55.0248 33.7625 54.933C33.2388 54.8411 32.7402 54.6571 32.2954 54.3914L31.8891 54.1478V54.1423C31.323 54.3899 30.7003 54.5142 30.0712 54.5051C29.4421 54.4959 28.8241 54.3536 28.2671 54.0896C27.7101 53.8256 27.2297 53.4473 26.8644 52.9852C26.4992 52.5231 26.2594 51.99 26.1644 51.429C25.603 51.7781 24.9524 51.9926 24.2737 52.0523C23.5951 52.112 22.9107 52.0149 22.2851 51.7702C21.6596 51.5254 21.1134 51.1411 20.6979 50.6534C20.2825 50.1656 20.0115 49.5906 19.9106 48.9823C19.1491 49.4498 18.2334 49.6685 17.3153 49.6022C16.3971 49.5358 15.5317 49.1884 14.8625 48.6175C14.1933 48.0466 13.7606 47.2866 13.636 46.4634C13.5115 45.6402 13.7026 44.8034 14.1777 44.0916C13.2937 43.8665 12.5214 43.3759 11.9888 42.7009C11.4561 42.0258 11.1951 41.207 11.2488 40.3799C9.84625 39.2639 8.72141 37.8928 7.94824 36.3567L7.10938 36.2229L7.01697 36.7148C6.99391 36.8334 6.94516 36.9467 6.87351 37.0483C6.80186 37.1499 6.70871 37.2377 6.59939 37.3068C6.49008 37.3759 6.36673 37.4249 6.23642 37.4509C6.1061 37.477 5.97137 37.4796 5.83993 37.4587L0.84031 36.6645C0.708737 36.6437 0.583004 36.5997 0.470312 36.535C0.35762 36.4703 0.260183 36.3862 0.183581 36.2875C0.10698 36.1888 0.0527193 36.0774 0.0239067 35.9598C-0.00490583 35.8421 -0.00770411 35.7205 0.0156722 35.6019L3.9002 15.758C3.92325 15.6393 3.97204 15.5259 4.04375 15.4242C4.11547 15.3226 4.20871 15.2347 4.31814 15.1656C4.42757 15.0965 4.55104 15.0476 4.68147 15.0216C4.81191 14.9956 4.94674 14.9931 5.07826 15.0141L10.0718 15.8083C10.2034 15.8291 10.3291 15.8731 10.4418 15.9378C10.5545 16.0025 10.6519 16.0866 10.7285 16.1853C10.8051 16.284 10.8594 16.3954 10.8882 16.513C10.917 16.6307 10.9198 16.7523 10.8964 16.8709L10.6801 17.9812L13.5156 18.4318L24.9813 16.8517C24.9875 16.8508 24.9938 16.85 25 16.8491V12V3H17C15.5 3 14 4.5 14 6V9C14 10.5 15.5 12 17 12H25C25 13.5 23.5 15 22 15H17C13.5 15 11 12.5 11 9V6C11 2.5 13.5 0 17 0ZM2.19304 35.0184L5.19302 35.4965L8.72007 17.4499L5.71908 16.9726L2.19304 35.0184ZM13.2736 40.4097C13.2268 40.8936 13.3949 41.3745 13.741 41.7466C13.9123 41.9311 14.1222 42.0834 14.3587 42.1947C14.5953 42.306 14.8538 42.3742 15.1196 42.3954C15.3853 42.4166 15.6531 42.3903 15.9076 42.3181C16.1621 42.2459 16.3984 42.1292 16.6029 41.9747L20.4935 39.0296C20.6978 38.8749 20.8663 38.6855 20.9895 38.472C21.1126 38.2586 21.1879 38.0253 21.2111 37.7856C21.2343 37.5459 21.2049 37.3044 21.1247 37.075C21.0444 36.8455 20.9148 36.6326 20.7433 36.4483C20.5718 36.264 20.3617 36.112 20.1251 36.0009C19.8885 35.8898 19.6299 35.8219 19.3641 35.801C19.0984 35.7801 18.8307 35.8066 18.5763 35.879C18.3219 35.9513 18.0858 36.0682 17.8815 36.2229L13.9908 39.1661C13.5785 39.4785 13.3205 39.9258 13.2736 40.4097ZM18.268 47.7049C18.5225 47.6325 18.7587 47.5156 18.963 47.3609L23.6316 43.826C24.0235 43.5085 24.2634 43.0661 24.3006 42.5921C24.3377 42.1181 24.1693 41.6496 23.8307 41.2855C23.4922 40.9215 23.0101 40.6903 22.4862 40.6408C21.9622 40.5913 21.4374 40.7273 21.0226 41.0202L16.351 44.5533C16.1466 44.708 15.978 44.8975 15.8548 45.111C15.7316 45.3244 15.6563 45.5577 15.633 45.7974C15.6098 46.0372 15.6391 46.2787 15.7194 46.5082C15.7996 46.7377 15.9292 46.9508 16.1007 47.1351C16.2722 47.3195 16.4823 47.4715 16.7189 47.5827C16.9556 47.6938 17.2142 47.7618 17.48 47.7827C17.7458 47.8037 18.0136 47.7772 18.268 47.7049ZM24.5189 50.1487C24.7733 50.0763 25.0095 49.9595 25.2138 49.8049L28.3265 47.4489C28.7326 47.1348 28.9848 46.6889 29.0286 46.208C29.0723 45.7272 28.904 45.2502 28.5602 44.8806C28.2164 44.511 27.7248 44.2787 27.1922 44.234C26.6596 44.1894 26.129 44.336 25.7155 44.6422L22.6028 46.9973C22.3984 47.1519 22.2298 47.3413 22.1066 47.5547C21.9834 47.7682 21.908 48.0014 21.8847 48.2411C21.8614 48.4808 21.8907 48.7223 21.9709 48.9518C22.051 49.1813 22.1805 49.3943 22.352 49.5786C22.5234 49.763 22.7334 49.9151 22.97 50.0262C23.2066 50.1373 23.4652 50.2054 23.731 50.2264C23.9967 50.2474 24.2644 50.221 24.5189 50.1487ZM29.9849 52.6653C30.5188 52.7094 31.0503 52.5614 31.4636 52.2534L34.5763 49.8974C34.7807 49.7428 34.9494 49.5534 35.0726 49.3399C35.1958 49.1265 35.2713 48.8933 35.2946 48.6536C35.3179 48.4139 35.2886 48.1724 35.2084 47.9429C35.1282 47.7134 34.9986 47.5004 34.8272 47.316C34.6557 47.1317 34.4456 46.9797 34.209 46.8686C33.9723 46.7575 33.7137 46.6896 33.448 46.6687C33.1822 46.6477 32.9145 46.6742 32.6601 46.7467C32.4057 46.8191 32.1696 46.936 31.9653 47.0907L28.8536 49.4458C28.4454 49.7592 28.1911 50.2055 28.1461 50.6873C28.1012 51.1692 28.2693 51.6475 28.6137 52.018C28.9582 52.3886 29.4511 52.6212 29.9849 52.6653ZM35.0772 53.1056C35.5506 52.9892 35.9605 52.7206 36.2297 52.3505V52.345C36.3961 52.1149 36.5028 51.8539 36.5419 51.5814C36.5809 51.3089 36.5512 51.032 36.4551 50.7713C36.2845 50.9648 36.0926 51.1422 35.8823 51.3008L33.6593 52.9826C34.0994 53.1783 34.6037 53.222 35.0772 53.1056ZM50.8432 42.1353C51.0643 42.0007 51.2539 41.8282 51.4012 41.6275C51.6978 41.2223 51.8041 40.7275 51.6965 40.2517C51.5889 39.7759 51.2763 39.3581 50.8274 39.0901L39.6917 32.4397C39.24 32.3614 38.7956 32.2521 38.3623 32.1127C37.1399 31.7263 36.033 31.0904 35.1279 30.2546C34.2228 29.4188 33.544 28.4058 33.1444 27.2944L29.4366 27.9787L27.6928 30.3475C26.949 31.359 25.791 32.0632 24.4725 32.3058C23.154 32.5484 21.7827 32.3097 20.659 31.6419C19.9862 31.2378 19.5175 30.6104 19.3551 29.8962C19.1927 29.182 19.3496 28.4388 19.7917 27.8285L23.6133 22.6318C24.1597 21.8862 24.9365 21.3014 25.8475 20.95L29.9027 19.3928L29.1471 19.1024C27.9313 18.6342 26.5946 18.4819 25.288 18.6627L13.6547 20.2602C13.5455 20.2772 13.4339 20.2772 13.3246 20.2602L10.3247 19.783L7.46382 34.4165L8.846 34.6364C9.01691 34.6634 9.17731 34.7294 9.31189 34.8282C9.44647 34.9269 9.55075 35.0552 9.61478 35.2006C10.1554 36.4238 10.9565 37.5394 11.9729 38.4846C12.1727 38.2156 12.4118 37.9722 12.6838 37.7609L16.5744 34.8159C17.2543 34.2984 18.1042 33.9971 18.9928 33.9587C19.8814 33.9203 20.7593 34.1469 21.4909 34.6034C22.2225 35.06 22.7671 35.7211 23.0406 36.4847C23.314 37.2482 23.3012 38.0718 23.004 38.8281C23.9537 38.9627 24.8174 39.4027 25.4355 40.067C26.0536 40.7312 26.3843 41.5748 26.3665 42.4418C26.8924 42.359 27.4313 42.3719 27.9516 42.4797C28.4719 42.5876 28.963 42.7883 29.396 43.07C29.8289 43.3517 30.195 43.7087 30.4727 44.12C30.7503 44.5312 30.934 44.9885 31.0127 45.4647C31.6283 45.0851 32.3486 44.8672 33.0934 44.8351C33.8382 44.8031 34.5783 44.9582 35.2311 45.2832C35.8839 45.6082 36.4239 46.0903 36.7908 46.6758C37.1577 47.2614 37.3372 47.9273 37.3092 48.5994L38.4669 49.2901C38.916 49.5558 39.4634 49.6504 39.9895 49.553C40.5156 49.4557 40.9775 49.1744 41.2743 48.7706C41.571 48.3668 41.6783 47.8735 41.5728 47.3985C41.4674 46.9235 41.1576 46.5055 40.7113 46.236L35.6335 43.2012C35.4375 43.0849 35.2922 42.9108 35.2223 42.7087C35.1525 42.5067 35.1624 42.289 35.2503 42.0927C35.3383 41.8965 35.4989 41.7338 35.7048 41.6323C35.9108 41.5307 36.1493 41.4967 36.38 41.5359C36.5136 41.5583 36.6408 41.6051 36.7537 41.6733L43.5305 45.7185C43.9795 45.9871 44.5284 46.0838 45.0565 45.9873C45.5845 45.8908 46.0484 45.6091 46.3462 45.2041C46.644 44.7991 46.7512 44.304 46.6442 43.8278C46.5373 43.3515 46.2249 42.933 45.776 42.6644L38.9981 38.6183C38.8804 38.5549 38.7782 38.4705 38.6976 38.3705C38.617 38.2704 38.5597 38.1566 38.5292 38.036C38.4986 37.9154 38.4955 37.7905 38.52 37.6688C38.5444 37.5471 38.596 37.4311 38.6715 37.3278C38.747 37.2246 38.8449 37.1362 38.9593 37.068C39.0737 36.9998 39.2022 36.9532 39.3371 36.931C39.472 36.9088 39.6105 36.9115 39.7442 36.9389C39.878 36.9663 40.0042 37.0178 40.1152 37.0904L48.586 42.1441C48.8085 42.277 49.0577 42.369 49.3196 42.4149C49.5815 42.4608 49.8508 42.4598 50.1122 42.4118C50.3737 42.3638 50.622 42.2699 50.8432 42.1353ZM55.6813 34.8308C55.8163 34.7315 55.9773 34.6652 56.1489 34.6382L57.5321 34.422L54.6774 19.7885L51.6713 20.263C51.5626 20.2781 51.452 20.2781 51.3433 20.263L39.7151 18.6599C38.4083 18.4822 37.0724 18.6347 35.8559 19.1005L26.6539 22.6364C26.1088 22.8477 25.644 23.1979 25.3164 23.644L21.4969 28.8397C21.3497 29.0444 21.2979 29.2931 21.3526 29.5319C21.4074 29.7708 21.5643 29.9806 21.7894 30.1158C22.4638 30.5156 23.2864 30.6582 24.0772 30.5125C24.8679 30.3668 25.5625 29.9445 26.009 29.3381L27.9782 26.655C28.1267 26.4531 28.3578 26.3124 28.6211 26.2639L33.6796 25.3295C33.9427 25.281 34.2163 25.3285 34.4407 25.4616C34.6651 25.5946 34.8219 25.8024 34.8769 26.0394C34.9205 26.2321 34.974 26.4229 35.0374 26.6111C35.3296 27.4819 35.846 28.2781 36.5444 28.9346C37.2428 29.5911 38.1034 30.0894 39.056 30.3888C40.0911 30.7258 41.199 30.8407 42.2919 30.7245C43.3848 30.6083 44.4326 30.2641 45.3525 29.7191L46.9428 28.7756C47.168 28.642 47.4428 28.5945 47.7068 28.6437C47.9707 28.6928 48.2023 28.8345 48.3504 29.0376C48.4985 29.2407 48.5512 29.4886 48.4967 29.7267C48.4422 29.9648 48.2851 30.1736 48.06 30.3072L46.4645 31.2507C45.5065 31.8146 44.438 32.2082 43.3163 32.4104L51.9485 37.5612C52.3652 37.8124 52.7259 38.1318 53.0118 38.5029C54.0331 37.5546 54.8372 36.434 55.3781 35.2052C55.4419 35.059 55.5463 34.9301 55.6813 34.8308ZM56.2779 17.4489L59.8049 35.4947L62.8049 35.0174L59.2789 16.9717L56.2779 17.4489Z" fill="white"/>
<path d="M51 9V3C51 1.5 52.5 0 54 0V9C54 12.5 51.5 15 48 15H43C41.501 15 40.002 13.502 40 12.0029C39.9981 13.502 38.499 15 37 15H35C31.5 15 29 12.4999 29 8.9999L29 3C29 1.5 30.5 0 32 0V8.9999C32 10.4999 33.5 12 35 12L40 12V3C40 1.5 41.5 0 43 0V12H48C49.5 12 51 10.5 51 9Z" fill="white"/>
</svg>
