<svg width="32" height="33" viewBox="0 0 32 33" fill="none" xmlns="http://www.w3.org/2000/svg">
<path d="M15.7766 32.9C14.4766 32.9 13.1766 32.8 11.9766 32.5C11.4766 32.4 11.0766 31.9 11.0766 31.4V28.5L10.7766 28.4C9.97664 28 8.77664 27.3 7.97664 26.7L7.67664 26.5L5.27664 28C5.07664 28.1 4.87664 28.2 4.67664 28.2C4.37664 28.2 4.07664 28.1 3.87664 27.8C2.07664 25.9 0.776641 23.6 0.0766407 21.2C-0.0233593 20.7 0.176641 20.2 0.576641 19.9L3.07664 18.4V18.1C2.97664 17.7 2.97664 16.9 2.97664 16.5C2.97664 16.1 2.97664 15.3 3.07664 14.9V14.6L0.576641 13.1C0.0766407 12.8 -0.123359 12.3 0.0766407 11.8C0.776641 9.3 2.07664 7.1 3.87664 5.2C4.07664 5 4.37664 4.8 4.67664 4.8C4.87664 4.8 5.07664 4.9 5.27664 5L7.77664 6.5L7.97664 6.2C8.67664 5.7 9.97664 4.9 10.7766 4.6L11.0766 4.5V1.6C11.0766 1.1 11.4766 0.6 11.9766 0.5C13.2766 0.1 14.4766 0 15.7766 0C17.0766 0 18.3766 0.1 19.5766 0.4C20.0766 0.5 20.4766 1 20.4766 1.5V4.4L20.7766 4.5C21.5766 4.8 22.8766 5.6 23.5766 6.1L23.8766 6.3L26.3766 4.8C26.5766 4.7 26.7766 4.6 26.9766 4.6C27.2766 4.6 27.5766 4.7 27.7766 5C29.5766 6.9 30.8766 9.2 31.5766 11.6C31.7766 12.1 31.4766 12.6 31.0766 12.9L28.5766 14.4V14.7C28.6766 15.1 28.6766 15.9 28.6766 16.3C28.6766 16.7 28.6766 17.5 28.5766 17.9V18.2L31.0766 19.7C31.5766 20 31.7766 20.5 31.5766 21C30.8766 23.5 29.5766 25.7 27.7766 27.6C27.5766 27.8 27.2766 28 26.9766 28C26.7766 28 26.5766 27.9 26.3766 27.8L23.8766 26.3L23.5766 26.5C22.8766 27 21.5766 27.8 20.7766 28.1L20.4766 28.2V31.1C20.4766 31.6 20.0766 32.1 19.5766 32.2C18.3766 32.8 17.0766 32.9 15.7766 32.9ZM12.2766 31.3L12.6766 31.4C13.4766 31.6 14.8766 31.7 15.7766 31.7C16.6766 31.7 18.0766 31.6 18.8766 31.4L19.2766 31.3V27.6C21.2766 26.9 22.0766 26.4 23.6766 25.1L26.8766 27L27.1766 26.7C28.5766 25.1 29.5766 23.3 30.2766 21.3L30.3766 20.9L27.1766 19C27.5766 16.9 27.5766 16 27.1766 13.9L30.3766 12L30.2766 11.6C29.5766 9.6 28.5766 7.8 27.1766 6.2L26.8766 6L23.6766 7.9C22.0766 6.5 21.2766 6.1 19.2766 5.3V1.6L18.8766 1.5C18.0766 1.3 16.6766 1.2 15.7766 1.2C14.8766 1.2 13.4766 1.3 12.6766 1.5L12.2766 1.6V5.3C10.2766 6 9.47664 6.5 7.87664 7.9L4.67664 6L4.37664 6.3C2.97664 7.9 1.97664 9.7 1.27664 11.7L1.17664 12L4.37664 13.9C3.97664 16 3.97664 16.9 4.37664 19L1.17664 20.9L1.27664 21.3C1.97664 23.2 2.97664 25 4.37664 26.6L4.67664 26.9L7.87664 25C9.47664 26.4 10.2766 26.8 12.2766 27.5V31.3ZM15.7766 22.5C12.4766 22.5 9.67664 19.8 9.67664 16.4C9.67664 13 12.3766 10.3 15.7766 10.3C19.1766 10.3 21.8766 13 21.8766 16.4C21.8766 19.8 19.1766 22.5 15.7766 22.5ZM15.7766 11.6C13.0766 11.6 10.8766 13.8 10.8766 16.5C10.8766 19.2 13.0766 21.4 15.7766 21.4C18.4766 21.4 20.6766 19.2 20.6766 16.5C20.6766 13.8 18.4766 11.6 15.7766 11.6Z" fill="#C3C3C7"/>
<path fill-rule="evenodd" clip-rule="evenodd" d="M12.2766 31.3L12.6766 31.4C13.4766 31.6 14.8766 31.7 15.7766 31.7C16.6766 31.7 18.0766 31.6 18.8766 31.4L19.2766 31.3V27.6C21.2766 26.9 22.0766 26.4 23.6766 25.1L26.8766 27L27.1766 26.7C28.5766 25.1 29.5766 23.3 30.2766 21.3L30.3766 20.9L27.1766 19C27.5766 16.9 27.5766 16 27.1766 13.9L30.3766 12L30.2766 11.6C29.5766 9.6 28.5766 7.8 27.1766 6.2L26.8766 6L23.6766 7.9C22.0766 6.5 21.2766 6.1 19.2766 5.3V1.6L18.8766 1.5C18.0766 1.3 16.6766 1.2 15.7766 1.2C14.8766 1.2 13.4766 1.3 12.6766 1.5L12.2766 1.6V5.3C10.2766 6 9.47664 6.5 7.87664 7.9L4.67664 6L4.37664 6.3C2.97664 7.9 1.97664 9.7 1.27664 11.7L1.17664 12L4.37664 13.9C3.97664 16 3.97664 16.9 4.37664 19L1.17664 20.9L1.27664 21.3C1.97664 23.2 2.97664 25 4.37664 26.6L4.67664 26.9L7.87664 25C9.47664 26.4 10.2766 26.8 12.2766 27.5V31.3ZM9.67664 16.4C9.67664 19.8 12.4766 22.5 15.7766 22.5C19.1766 22.5 21.8766 19.8 21.8766 16.4C21.8766 13 19.1766 10.3 15.7766 10.3C12.3766 10.3 9.67664 13 9.67664 16.4Z" fill="#C3C3C7" fill-opacity="0.1"/>
</svg>
