<?xml version="1.0" encoding="utf-8"?>
<!-- Generator: Adobe Illustrator 25.0.1, SVG Export Plug-In . SVG Version: 6.00 Build 0)  -->
<svg version="1.1" id="Layer_1" xmlns="http://www.w3.org/2000/svg" xmlns:xlink="http://www.w3.org/1999/xlink" x="0px" y="0px"
	 width="26px" height="20px" viewBox="0 0 26 20" style="enable-background:new 0 0 26 20;" xml:space="preserve">
<style type="text/css">
	.st0{fill:#C3C3C7;}
</style>
<path class="st0" d="M20.9,9.8L17.8,5c-0.1-0.1-0.2-0.2-0.4-0.2c-0.2,0-0.3,0.1-0.4,0.2l-3,4.8c-0.1,0.1-0.2,0.3-0.1,0.5
	c0.2,2,2,3.4,4,3.2c1.7-0.2,3-1.5,3.2-3.2C21,10.1,21,9.9,20.9,9.8z M17.4,12.6c-1.1,0-2.2-0.7-2.6-1.7H20
	C19.6,12,18.6,12.7,17.4,12.6z M14.9,10l2.6-4l2.6,4H14.9z M18.1,16.1h-5.6V6.4c0.6-0.2,1.1-0.6,1.3-1.2l4.2-1.4
	c0.1,0,0.2-0.2,0.1-0.3c0,0,0,0,0,0l-0.1-0.4c0-0.1-0.1-0.2-0.2-0.2l-3.9,1.3C13.5,3.5,12.8,3,12,3c-1,0-1.8,0.8-1.8,1.7
	c0,0,0,0,0,0c0,0.2,0,0.5,0.1,0.7L6.1,6.8C6,6.8,5.9,6.9,6,7c0,0,0,0,0,0l0.1,0.4c0,0.1,0.1,0.2,0.2,0.1c0,0,0,0,0,0l4.5-1.4
	c0.2,0.1,0.4,0.2,0.7,0.3v10.3c0,0.1,0.1,0.2,0.2,0.2c0,0,0,0,0,0h6.3c0.1,0,0.2-0.1,0.2-0.2c0,0,0,0,0,0v-0.4
	C18.4,16.2,18.2,16.1,18.1,16.1C18.1,16.1,18.1,16.1,18.1,16.1z M11.1,4.7c0-0.5,0.4-0.9,0.9-0.9c0.5,0,0.9,0.4,0.9,0.9
	c0,0.5-0.4,0.9-0.9,0.9C11.5,5.6,11.1,5.2,11.1,4.7L11.1,4.7z M7,8.5C6.9,8.3,6.8,8.3,6.6,8.2c-0.2,0-0.3,0.1-0.4,0.2l-3.1,4.8
	C3,13.4,3,13.6,3,13.8c0.2,1.9,1.8,3.3,3.6,3.2c1.8,0,3.4-1.4,3.6-3.2c0-0.2,0-0.4-0.1-0.5L7,8.5z M6.6,16.1c-1.1,0-2.2-0.7-2.6-1.7
	h5.1C8.7,15.4,7.7,16.1,6.6,16.1L6.6,16.1z M4.1,13.5l2.6-4l2.5,4H4.1z"/>
</svg>
