<?xml version="1.0" encoding="utf-8"?>
<!-- Generator: Adobe Illustrator 25.0.1, SVG Export Plug-In . SVG Version: 6.00 Build 0)  -->
<svg version="1.1" id="Layer_1" xmlns="http://www.w3.org/2000/svg" xmlns:xlink="http://www.w3.org/1999/xlink" x="0px" y="0px"
	 width="26px" height="20px" viewBox="0 0 26 20" style="enable-background:new 0 0 26 20;" xml:space="preserve">
<style type="text/css">
	.st0{fill:#C3C3C7;}
</style>
<path class="st0" d="M12,11c1.1,0,2-0.9,2-2s-0.9-2-2-2c0,0-0.1,0-0.1,0c0,0.2,0.1,0.3,0.1,0.5C12,8.3,11.3,9,10.5,9
	c-0.2,0-0.3,0-0.5-0.1V9C10,10.1,10.9,11,12,11z M20.9,9.6C19.2,6.2,15.8,4,12,4C8.2,4,4.8,6.2,3.1,9.6C3,9.7,3,9.8,3,10
	c0,0.2,0,0.3,0.1,0.4C4.8,13.8,8.2,16,12,16c3.8,0,7.2-2.2,8.9-5.5C21,10.2,21,9.9,20.9,9.6z M12,5c2.2,0,4,1.8,4,4s-1.8,4-4,4
	s-4-1.8-4-4S9.8,5,12,5z M12,15c-3.4,0-6.5-2-8-5c1-1.7,2.3-3,4-4C7.3,6.9,7,7.9,7,9c0,2.8,2.2,5,5,5s5-2.2,5-5c0-1.1-0.4-2.1-1-3
	c1.7,1,3,2.3,4,4C18.5,13,15.4,15,12,15z"/>
</svg>
