<?xml version="1.0" encoding="utf-8"?>
<!-- Generator: Adobe Illustrator 25.0.1, SVG Export Plug-In . SVG Version: 6.00 Build 0)  -->
<svg version="1.1" id="Layer_1" xmlns="http://www.w3.org/2000/svg" xmlns:xlink="http://www.w3.org/1999/xlink" x="0px" y="0px"
	 width="26px" height="20px" viewBox="0 0 26 20" style="enable-background:new 0 0 26 20;" xml:space="preserve">
<style type="text/css">
	.st0{fill:#C3C3C7;}
</style>
<path class="st0" d="M19.5,4c-1.8-1.4-4.3-1.2-5.8,0.4L13,5l-0.6-0.6C10.8,2.8,8.3,2.6,6.6,4c-1.9,1.6-2.1,4.5-0.4,6.3
	c0,0.1,0.1,0.1,0.1,0.2l6.1,6.3c0.2,0.2,0.4,0.3,0.7,0.2c0.3,0,0.5-0.1,0.7-0.3l6.1-6.3c1.7-1.8,1.6-4.7-0.2-6.4
	C19.5,4.1,19.5,4,19.5,4z M19,9.8L13,16L7,9.8C5.7,8.4,5.8,6.2,7.2,4.9c0,0,0.1-0.1,0.1-0.1c1.3-1.1,3.3-0.9,4.5,0.3L13,6.5l1.3-1.4
	c1.2-1.3,3.1-1.4,4.5-0.3c1.4,1.3,1.6,3.5,0.3,4.9C19.1,9.7,19,9.7,19,9.8z"/>
</svg>
