<?xml version="1.0" encoding="utf-8"?>
<!-- Generator: Adobe Illustrator 25.0.1, SVG Export Plug-In . SVG Version: 6.00 Build 0)  -->
<svg version="1.1" id="Layer_1" xmlns="http://www.w3.org/2000/svg" xmlns:xlink="http://www.w3.org/1999/xlink" x="0px" y="0px"
	 width="26px" height="26px" viewBox="0 0 26 26" style="enable-background:new 0 0 26 26;" xml:space="preserve">
<style type="text/css">
	.st0{fill:#1E1E20;}
</style>
<path class="st0" d="M19.2,6.8c-3.3-3.3-8.7-3.3-11.9,0.1c-2.7,2.7-3.2,6.8-1.4,10.1l-1.2,4.4l4.5-1.2c1.2,0.6,2.6,1,4,1
	c4.7,0,8.5-3.8,8.5-8.4c0,0,0,0,0,0C21.6,10.4,20.8,8.3,19.2,6.8z M17.3,15.8c-0.3,0.5-0.8,0.9-1.4,1c-0.4,0.1-0.9,0-1.3,0
	c-0.4-0.1-0.8-0.3-1.2-0.5c-1.5-0.7-2.7-1.8-3.6-3.2c-0.5-0.6-0.8-1.4-0.9-2.2c0-0.7,0.2-1.3,0.7-1.8c0.1-0.2,0.4-0.3,0.6-0.3h0.4
	c0.1,0,0.3-0.1,0.5,0.4s0.6,1.5,0.6,1.5c0.1,0.1,0.1,0.2,0,0.4c-0.1,0.1-0.1,0.2-0.2,0.4c-0.1,0.1-0.2,0.2-0.3,0.4
	c-0.1,0.1-0.2,0.2-0.1,0.4c0.3,0.6,0.7,1.1,1.2,1.5c0.5,0.5,1.1,0.8,1.7,1.1c0.2,0.1,0.4,0.1,0.5-0.1c0.2-0.3,0.5-0.5,0.7-0.8
	c0.1-0.2,0.3-0.2,0.5-0.1c0.5,0.2,1,0.4,1.4,0.7c0.1,0.1,0.3,0.1,0.4,0.2C17.5,15.1,17.5,15.4,17.3,15.8L17.3,15.8z"/>
</svg>
