<?xml version="1.0" encoding="UTF-8"?><svg id="Layer_1" xmlns="http://www.w3.org/2000/svg" viewBox="0 0 150 88"><defs><style>.cls-1{fill:#0095da;}.cls-1,.cls-2,.cls-3,.cls-4,.cls-5{stroke-width:0px;}.cls-2,.cls-6{fill:#008bd2;}.cls-3{fill:#fff;}.cls-4,.cls-5{fill:#6e6e73;}.cls-6{stroke:#6e6e73;stroke-miterlimit:10;stroke-width:3px;}.cls-5{fill-rule:evenodd;}</style></defs><path class="cls-3" d="m92.38,29.91v-1.75c0-8.83-7.57-15.99-16.91-15.99s-16.91,7.16-16.91,15.99v1.75c-1.79,0-3.24,1.95-3.24,4.35s1.45,4.35,3.24,4.35c.05,0,.11,0,.16,0,1.11,7.81,8.19,13.83,16.75,13.83s15.65-6.03,16.76-13.83c.05,0,.11,0,.16,0,1.79,0,3.24-1.95,3.24-4.35s-1.45-4.35-3.24-4.35h0Z"/><path class="cls-5" d="m57.54,28.62c0-9.61,8.03-17.38,17.92-17.38s17.92,7.78,17.92,17.38v.67c.81.32,1.49.9,1.98,1.58.76,1.04,1.18,2.41,1.18,3.86s-.43,2.82-1.18,3.86c-.56.78-1.36,1.42-2.33,1.7-1.62,7.99-8.88,14.01-17.58,14.01s-15.96-6.02-17.58-14.01c-.97-.28-1.76-.92-2.33-1.7-.76-1.04-1.18-2.41-1.18-3.86s.43-2.82,1.18-3.86c.5-.68,1.17-1.26,1.99-1.58v-.67Zm34.46,3.11c.31,0,.72.17,1.11.71.39.53.67,1.34.67,2.3s-.28,1.76-.67,2.3c-.38.53-.79.7-1.09.71h0s-.02,0-.02,0c-.02,0-.04,0-.06,0-.73-.04-1.36.47-1.46,1.17-.99,7.16-7.33,12.7-15.01,12.7s-14.01-5.53-15.01-12.7c-.1-.7-.73-1.21-1.46-1.17-.03,0-.05,0-.07,0h-.02s0,0,0,0c-.3,0-.71-.18-1.09-.71-.39-.53-.67-1.34-.67-2.3s.28-1.76.67-2.3c.39-.54.8-.71,1.11-.71.77,0,1.39-.6,1.39-1.35v-1.76c0-8.1,6.77-14.68,15.15-14.68s15.15,6.58,15.15,14.68v1.66s0,.06,0,.09c0,.75.62,1.35,1.39,1.35Z"/><path class="cls-3" d="m111.57,71.87c-2.41-8.68-9.62-9.62-9.62-9.62l-19.92-4.83v-5.93c-2.3,1.1-4.76,1.72-7.5,1.72s-5.2-.62-7.5-1.72v5.93l-19.92,4.83s-7.21.95-9.62,9.62l-2.8,15.19h79.69l-2.81-15.19Z"/><path class="cls-5" d="m66.76,50.76c.41-.24.93-.27,1.36-.07,2.11.99,4.36,1.54,6.88,1.54s4.77-.55,6.88-1.54c.44-.2.95-.18,1.36.06.41.24.66.67.66,1.14v4.75l20.67,4.45s.03,0,.04,0c.07.01.17.03.29.05.24.05.58.13.98.25.81.25,1.9.67,3.07,1.39,2.37,1.45,5,4.07,6.31,8.66.01.04.02.07.03.11l2.81,14.85c.07.39-.04.79-.31,1.09-.27.3-.66.48-1.08.48H33.28c-.42,0-.81-.18-1.08-.48-.27-.3-.38-.7-.31-1.09l2.8-14.85s.02-.08.03-.11c1.3-4.59,3.94-7.2,6.31-8.66,1.17-.72,2.26-1.15,3.07-1.39.4-.12.74-.2.98-.25.12-.03.22-.04.29-.05.02,0,.03,0,.04,0l20.67-4.45v-4.75c0-.46.25-.89.66-1.14Zm-20.86,12.98s.1-.02.15-.03l21.79-4.72c.63-.15,1.07-.68,1.07-1.3v-3.78c1.89.64,3.91,1,6.09,1s4.2-.35,6.1-1v3.78c0,.61.44,1.15,1.07,1.3l21.79,4.72s.1.02.14.03c0,0,0,0,0,0h0s0,0,0,0c0,0,.01,0,.03,0,.03,0,.09.02.17.03.16.03.41.09.72.19.62.19,1.48.52,2.41,1.1,1.83,1.12,3.99,3.2,5.1,7.05l2.5,13.22H34.96l2.5-13.22c1.11-3.86,3.28-5.93,5.1-7.05.93-.57,1.79-.91,2.41-1.1.31-.09.56-.15.72-.19.08-.02.14-.03.17-.03.02,0,.03,0,.03,0h0Z"/><path class="cls-3" d="m66.79,57.11l-7.73,1.8,9.18,10.37,6.76-7.21-8.21-4.96Z"/><path class="cls-3" d="m83.91,57.11l7.03,1.8-9.38,10.37-6.56-7.21,8.91-4.96Z"/><path class="cls-1" d="m74.53,62.72l-3.28,3.06,3.28,3.5,3.28-3.5-3.28-3.06Z"/><path class="cls-2" d="m76.88,67.54l-2.34,1.74-2.34-1.87-4.69,19.66h14.06l-4.69-19.52Z"/><path class="cls-5" d="m67.8,55.56c-.33-.2-.73-.27-1.1-.18l-7.5,1.81c-.47.11-.84.45-.99.9-.15.44-.06.93.25,1.29l8.91,10.43c.26.31.65.49,1.06.49.41,0,.81-.16,1.08-.46l1.59-1.76-4.9,19.92h17.63l-4.95-19.97,1.64,1.81c.27.3.65.47,1.06.46.41,0,.79-.17,1.06-.47l9.38-10.43c.32-.35.43-.84.28-1.29-.14-.45-.51-.8-.98-.92l-7.03-1.81c-.36-.09-.74-.04-1.07.14l-8.16,4.57-7.25-4.54Zm6.23,14.83l.97,1.07.96-1.06.52-.37,3.78,15.24h-10.5l3.76-15.29.52.4Zm-5.56-3.54l-6.43-7.54,4.74-1.15,6.09,3.81-4.4,4.87Zm8.72-4.81l6.92-3.88,4.29,1.11-6.84,7.61-4.38-4.84Zm-3.54,3.79l1.36,1.5,1.36-1.5-1.36-1.31-1.36,1.31Z"/><path class="cls-1" d="m77.81,10.3l-.82-9.36h-3.05l-.82,9.36h4.69Z"/><path class="cls-5" d="m72.26,0h5.49l1.01,12.17h-7.5l1.01-12.17Zm2.6,2.83l-.54,6.51h1.37l-.54-6.51h-.29Z"/><path class="cls-6" d="m94.69,26.21c0-6.23-2.66-12.57-7.86-16.73-1.29-1.03-2.7-1.88-4.21-2.54l-.43-2.74c-2-.91-3.43-1.22-5.14-1.39l.22,7.98h-4.54l.46-7.98c-3.43.3-5.38,1.39-5.38,1.39l-.5,2.74c-5.2,2.35-8.97,6.88-10.75,11.89-.84,2.38-1.26,4.88-1.26,7.38h39.38Z"/><path class="cls-5" d="m82.25,13.11l-1.62-8.95,3.07-.41,1.62,8.95-3.07.41Z"/><path class="cls-5" d="m69.38,4.21l-1.42,8.89-2.33-.47,1.42-8.89,2.33.47Z"/><path class="cls-4" d="m94.67,23.55s.24.04.39.09c.3.09.69.26,1.08.57.83.67,1.38,1.79,1.36,3.44v1.38h-44.99v-1.39c-.01-1.65.54-2.77,1.38-3.44,1.53-1.22,1.71-.67,1.73-.67l39.06.02Z"/></svg>