<svg width="20" height="18" viewBox="0 0 20 18" fill="none" xmlns="http://www.w3.org/2000/svg">
<path d="M17.2422 2.46484C15.3086 0.847656 12.4609 1.09375 10.668 2.95703L10 3.66016L9.29688 2.95703C7.85547 1.48047 4.97266 0.566406 2.72266 2.46484C0.507812 4.36328 0.402344 7.73828 2.37109 9.77734L9.19141 16.8086C9.40234 17.0195 9.68359 17.125 9.96484 17.125C10.2812 17.125 10.5625 17.0195 10.7734 16.8086L17.5938 9.77734C19.5625 7.73828 19.457 4.36328 17.2422 2.46484ZM16.7852 9.00391L10 16.0352L3.17969 9.00391C1.84375 7.59766 1.5625 4.96094 3.46094 3.34375C5.39453 1.69141 7.64453 2.88672 8.48828 3.73047L10 5.27734L11.4766 3.73047C12.2852 2.88672 14.5703 1.69141 16.5039 3.34375C18.4023 4.96094 18.1211 7.59766 16.7852 9.00391Z" fill="#FFFFFF"/>
</svg>
