<svg width="220" height="140" viewBox="0 0 220 140" fill="none" xmlns="http://www.w3.org/2000/svg">
<g clip-path="url(#clip0_2670_9376)">
<path fill-rule="evenodd" clip-rule="evenodd" d="M156.723 75.5C153.583 75.5 151.677 74.0198 151.677 72.2257V70.824H151.868C152.832 71.7323 154.2 72.2706 156.588 72.2706C158.842 72.2706 160.323 71.1717 160.323 68.9178V66.8994C159.863 68.0543 158.663 69.1533 156.802 69.1533C153.258 69.1533 150.488 67.1348 150.488 63.0868C150.488 59.3304 153.124 56 157.956 56C161.747 56 163.911 58.2315 163.911 62.3131V68.9963C163.922 73.0779 160.883 75.5 156.723 75.5ZM157.452 59.1958C155.602 59.1958 154.2 60.7545 154.2 62.9298C154.2 64.8137 155.355 66.2041 157.071 66.2041C158.865 66.2041 160.154 64.8585 160.154 62.5486C160.166 60.3059 159.033 59.1958 157.452 59.1958ZM90.1156 71.0705H89.3867C85.9555 71.0705 83.5895 69.1418 83.5895 66.4843C83.5895 63.9052 85.4733 61.9429 90.7884 61.9429H92.0443V61.7522C92.0443 59.7114 91.08 59.0947 88.927 59.0947C86.3255 59.0947 84.879 60.0927 84.3407 60.7543H84.2062V59.5993C84.2062 57.9846 85.6527 56.0559 89.4652 56.0559C92.6835 56.0559 95.5877 57.5585 95.5877 62.5484V65.8788C95.5989 68.94 93.3451 71.0705 90.1156 71.0705ZM92.078 64.5107H90.7884C88.0524 64.5107 87.2674 65.1499 87.2674 66.3385C87.2674 67.4711 88.1757 68.1326 89.768 68.1326C91.3267 68.1326 92.078 67.3814 92.078 65.9012V64.5107ZM80.3715 70.8241C79.0595 70.8241 78.1961 70.1289 78.1961 68.7048C78.1961 67.2582 77.9494 63.1766 77.7139 60.9451C77.5009 61.4834 77.2317 62.1786 76.9402 63.042C76.8906 63.1917 76.8332 63.3667 76.769 63.5624C76.1648 65.404 74.9583 69.0807 74.0359 70.8241H73.2622C72.0512 70.8241 71.199 69.8822 70.1786 66.877C70.0452 66.4802 69.8789 65.9429 69.6926 65.3414C69.2367 63.8689 68.6617 62.0116 68.1602 60.8891C67.8125 63.8942 67.5434 68.245 67.5434 70.8241H66.1754C65.0428 70.8241 64 70.0504 64 68.7048C64 64.8137 64.8074 59.5547 65.4802 56.3252H66.7921C69.8705 56.3252 71.0371 59.9099 71.9038 62.5734C72.0126 62.9078 72.1168 63.2277 72.2194 63.5242C72.3422 63.8737 72.4372 64.2293 72.5319 64.584C72.6621 65.0715 72.7919 65.5575 72.9931 66.0248C73.6659 64.04 74.5518 61.4834 75.2806 59.6668C75.8413 58.2427 76.6711 56.9532 77.299 56.3364H78.0503C79.9566 56.3364 80.82 57.4914 81.0555 59.4201C81.4367 62.5599 81.8853 66.9891 81.9413 70.8241H80.3715ZM104.637 59.3304H106.79C108.293 59.3304 109.234 58.3436 109.246 57.3457V56.3252H98.694C97.2698 56.3252 96.4064 57.3456 96.4064 58.3661V59.3304H101.049V68.245C101.049 69.9382 102.047 70.8241 103.762 70.8241H104.637V59.3304ZM116.725 71.1156C113.855 71.1156 110.524 70.2074 110.524 66.2266V56.3252H111.141C113.238 56.3252 114.124 57.2111 114.124 58.9043V61.4497C114.64 61.1582 115.839 60.6424 116.938 60.6424C120.403 60.6424 122.736 62.9299 122.736 65.9351C122.736 68.9739 120.482 71.1156 116.725 71.1156ZM116.378 63.4121C115.509 63.4121 114.733 63.8015 114.196 64.0709L114.124 64.1073V66.3387C114.124 67.7292 115.57 68.2674 116.759 68.2674C118.183 68.2674 119.091 67.404 119.091 65.8566C119.091 64.3316 117.903 63.4121 116.378 63.4121ZM129.968 64.2531C129.968 68.7608 132.188 71.0147 137.077 71.0147C139.298 71.0147 141.473 70.555 142.695 70.1849V58.9043C142.695 57.2111 141.809 56.3252 139.713 56.3252H139.096V67.6843C138.67 67.7965 137.862 67.9535 136.898 67.9535C134.723 67.9535 133.568 66.9106 133.568 64.3876V58.9155C133.568 57.2223 132.682 56.3364 130.585 56.3364H129.968V64.2531ZM166.479 64.2531C166.479 68.7608 168.699 71.0147 173.588 71.0147C175.808 71.0147 177.984 70.555 179.206 70.1849V58.9043C179.206 57.2111 178.32 56.3252 176.223 56.3252H175.606V67.6843C175.18 67.7965 174.373 67.9535 173.409 67.9535C171.233 67.9535 170.078 66.9106 170.078 64.3876V58.9155C170.078 57.2223 169.192 56.3364 167.095 56.3364H166.479V64.2531ZM190.924 59.3304H188.771V70.8241H187.885C186.169 70.8241 185.171 69.9382 185.171 68.245V59.3304H180.529V58.3661C180.529 57.3456 181.392 56.3252 182.816 56.3252H193.368V57.3457C193.368 58.3436 192.426 59.3304 190.924 59.3304ZM202.821 68.2451C202.821 69.9383 203.819 70.8242 205.535 70.8242V70.8129H206.342V56.9869C204.952 56.4487 202.373 56.0226 200.253 56.0226C197.013 56.0226 194.299 57.3906 194.299 60.5079C194.299 62.7393 195.891 64.2419 197.203 64.4326C196.183 64.7241 195.476 66.0697 195.185 66.7425C194.916 67.4153 193.794 69.6916 193.122 70.2859V70.555C193.548 70.8242 194.736 70.9811 195.297 70.9811C197.32 70.9811 197.942 69.4297 198.626 67.7216C198.689 67.5644 198.753 67.4059 198.818 67.2471C199.356 65.9576 200.141 65.7782 200.78 65.666C201.147 65.621 201.605 65.5761 202.02 65.5353C202.33 65.5049 202.615 65.4769 202.821 65.453V68.2451ZM200.803 58.9604C201.319 58.9604 202.53 59.1511 202.821 59.2296V62.773C202.148 62.8515 201.128 62.9075 200.511 62.9075C199.087 62.9075 197.988 62.1338 197.988 60.8667C197.988 59.0165 199.356 58.9604 200.803 58.9604Z" fill="#4A3942"/>
<path fill-rule="evenodd" clip-rule="evenodd" d="M54.6715 68.3179C55.1462 70.0765 53.2851 73.1539 52.298 74.0862C46.383 79.6878 36.3613 81.0597 29.2708 78.8919C28.7057 78.6721 28.6303 79.1268 29.2708 79.2936C40.4227 82.894 49.9923 77.9899 53.3152 73.9271C53.805 81.3402 40.905 85.8957 33.8747 85.3954C33.4 85.5091 33.709 85.6834 34.0179 85.6834C42.3818 86.5854 49.3894 82.0678 51.0246 80.1274C48.4626 85.3727 41.779 89.3976 35.2687 89.7084C20.1986 90.2693 11.91 75.3066 16.318 71.0619C17.4257 70.1523 18.8347 69.7126 20.2589 69.8263C23.6496 69.9097 26.6486 71.8805 29.8887 73.5102C33.7466 75.5719 38.1923 76.2086 42.4723 75.3217C47.2043 74.4349 51.5068 71.9714 54.6715 68.3179ZM32.3903 58.3883C32.8048 58.3656 33.1589 58.6915 33.1815 59.1084C33.1815 59.1235 33.1815 59.1311 33.1815 59.1463C33.1664 59.5859 32.8198 59.9346 32.3903 59.9498C31.9759 59.9725 31.6142 59.6541 31.5916 59.2372C31.5916 59.2221 31.5916 59.2069 31.5916 59.1918C31.6067 58.7521 31.9533 58.4035 32.3903 58.3883ZM21.9317 53.3401C21.1781 53.0445 20.4623 52.6352 19.8218 52.1349C19.7616 52.0894 19.8218 51.9985 19.8821 52.0212C21.261 52.2486 22.6701 52.2107 24.0415 51.9151C27.5453 49.8609 31.6444 49.1333 34.6659 51.3769C37.6875 53.6206 37.8231 57.7971 35.1105 61.1019C34.4323 61.9205 35.9167 63.3152 35.653 63.6639C35.5701 63.7624 35.2009 63.6639 34.7413 63.535C33.7768 63.156 32.7595 62.9211 31.7272 62.8377C29.3989 62.7998 27.9597 64.3537 28.1556 66.5594C28.5701 70.4251 34.2515 70.5919 36.1428 74.7912C30.2956 74.0332 26.5507 69.8339 21.2309 68.7273C19.6259 68.3104 17.923 68.5681 16.5064 69.4398C14.9617 70.463 14.5925 72.6082 14.6076 74.5713C13.9746 71.9942 13.8541 70.3342 14.163 66.5594C14.4719 62.7846 17.1318 56.7056 21.9317 53.3401ZM39.9103 67.4463C39.3 69.3109 36.2483 71.9335 38.117 74.9352C42.0201 75.0565 45.8781 74.0559 49.2387 72.0548C48.862 71.168 48.2517 70.4024 47.468 69.8491C46.6467 69.1441 45.5466 68.8637 44.4917 69.0911C43.7005 69.4094 43.286 70.2811 43.5272 71.0998C43.5272 71.1756 43.5272 71.2589 43.5799 71.3423C43.708 71.8805 43.3991 71.5015 43.3614 71.3423C43.3237 71.1831 43.3011 71.1831 43.271 71.0998C42.9018 69.9931 43.173 69.0229 44.0772 68.6666C45.1849 68.4013 46.3528 68.6818 47.2269 69.4246C47.031 69.0153 46.8727 68.5832 46.7748 68.136C46.6316 67.234 46.5713 66.3244 46.5939 65.4148C46.5111 63.2925 45.4109 61.5491 42.9846 61.7234C41.764 61.8296 40.7015 62.5951 40.2042 63.717C39.8651 64.2627 38.8554 64.24 38.7801 64.4749C38.7047 64.7099 39.3151 65.0434 39.6541 65.4452C40.0761 66.0516 40.1665 66.8323 39.8802 67.5145L39.9103 67.4463ZM42.4647 63.6563C42.736 63.6412 42.9771 63.8458 42.9922 64.1263C42.9922 64.1263 42.9922 64.1338 42.9922 64.1414C42.9846 64.4219 42.7586 64.6493 42.4723 64.6569C42.2085 64.6796 41.9749 64.4749 41.9523 64.2096C41.9523 64.2021 41.9523 64.1869 41.9523 64.1793C41.9523 63.8913 42.1859 63.6639 42.4647 63.6563Z" fill="#E14312"/>
<path d="M68.6937 77.6V78.4312H65.6688V84H64.7031V77.6H68.6937Z" fill="#4A3942"/>
<path d="M69.782 84V77.6H72.0633C72.5612 77.6 72.9737 77.6906 73.3008 77.8719C73.6279 78.0531 73.8727 78.301 74.0352 78.6156C74.1977 78.9281 74.2789 79.2802 74.2789 79.6719C74.2789 80.0656 74.1966 80.4198 74.032 80.7344C73.8695 81.0469 73.6237 81.2948 73.2945 81.4781C72.9674 81.6594 72.556 81.75 72.0602 81.75H70.4914V80.9312H71.9727C72.2872 80.9312 72.5424 80.8771 72.7383 80.7687C72.9341 80.6583 73.0779 80.5083 73.1695 80.3187C73.2612 80.1292 73.307 79.9135 73.307 79.6719C73.307 79.4302 73.2612 79.2156 73.1695 79.0281C73.0779 78.8406 72.9331 78.6937 72.7352 78.5875C72.5393 78.4812 72.281 78.4281 71.9602 78.4281H70.7477V84H69.782Z" fill="#4A3942"/>
<path d="M75.8641 84.0875V83.2375H76.2484C76.4089 83.2375 76.5411 83.2104 76.6453 83.1562C76.7516 83.1021 76.838 83.0292 76.9047 82.9375C76.9734 82.8438 77.0307 82.7417 77.0766 82.6312L77.1672 82.4031L74.9172 77.6H75.9422L77.6203 81.3L79.1141 77.6H80.1266L77.9141 82.8906C77.8203 83.1031 77.712 83.3 77.5891 83.4813C77.4682 83.6625 77.3068 83.8094 77.1047 83.9219C76.9026 84.0323 76.6349 84.0875 76.3016 84.0875H75.8641Z" fill="#4A3942"/>
<path d="M86.043 77.6V84H85.0805V78.425H82.068V84H81.1055V77.6H86.043Z" fill="#4A3942"/>
<path d="M92.5227 77.6V84H91.5602V78.425H88.5477V84H87.5852V77.6H92.5227Z" fill="#4A3942"/>
<path d="M94.5398 84H93.5148L95.818 77.6H96.9336L99.2367 84H98.2117L96.4023 78.7625H96.3523L94.5398 84ZM94.7117 81.4937H98.0367V82.3062H94.7117V81.4937Z" fill="#4A3942"/>
<path d="M106.287 84L104.137 81.1312H103.455V84H102.49V77.6H103.455V80.3031H103.771L106.19 77.6H107.368L104.809 80.4656L107.465 84H106.287Z" fill="#4A3942"/>
<path d="M113.601 80.8C113.601 81.4833 113.476 82.0708 113.226 82.5625C112.976 83.0521 112.633 83.4292 112.198 83.6937C111.764 83.9562 111.272 84.0875 110.72 84.0875C110.165 84.0875 109.671 83.9562 109.235 83.6937C108.802 83.4292 108.46 83.051 108.21 82.5594C107.96 82.0677 107.835 81.4812 107.835 80.8C107.835 80.1167 107.96 79.5302 108.21 79.0406C108.46 78.549 108.802 78.1719 109.235 77.9094C109.671 77.6448 110.165 77.5125 110.72 77.5125C111.272 77.5125 111.764 77.6448 112.198 77.9094C112.633 78.1719 112.976 78.549 113.226 79.0406C113.476 79.5302 113.601 80.1167 113.601 80.8ZM112.645 80.8C112.645 80.2792 112.56 79.8406 112.391 79.4844C112.225 79.126 111.996 78.8552 111.704 78.6719C111.414 78.4865 111.086 78.3937 110.72 78.3937C110.351 78.3937 110.022 78.4865 109.732 78.6719C109.442 78.8552 109.213 79.126 109.045 79.4844C108.878 79.8406 108.795 80.2792 108.795 80.8C108.795 81.3208 108.878 81.7604 109.045 82.1187C109.213 82.475 109.442 82.7458 109.732 82.9312C110.022 83.1146 110.351 83.2062 110.72 83.2062C111.086 83.2062 111.414 83.1146 111.704 82.9312C111.996 82.7458 112.225 82.475 112.391 82.1187C112.56 81.7604 112.645 81.3208 112.645 80.8Z" fill="#4A3942"/>
<path d="M114.805 77.6H115.977L118.014 82.575H118.089L120.127 77.6H121.298V84H120.38V79.3687H120.32L118.433 83.9906H117.67L115.783 79.3656H115.723V84H114.805V77.6Z" fill="#4A3942"/>
<path d="M127.705 77.6V84H126.743V78.425H123.73V84H122.768V77.6H127.705Z" fill="#4A3942"/>
<path d="M129.723 84H128.698L131.001 77.6H132.116L134.42 84H133.395L131.585 78.7625H131.535L129.723 84ZM129.895 81.4937H133.22V82.3062H129.895V81.4937Z" fill="#4A3942"/>
<path d="M135.344 84V77.6H136.309V80.3812H139.5V77.6H140.469V84H139.5V81.2094H136.309V84H135.344Z" fill="#4A3942"/>
<path d="M141.875 77.6H142.831V82.3H142.891L146.147 77.6H147.041V84H146.075V79.3062H146.016L142.766 84H141.875V77.6Z" fill="#4A3942"/>
<path d="M148.449 77.6H149.405V82.3H149.465L152.721 77.6H153.615V84H152.649V79.3062H152.59L149.34 84H148.449V77.6ZM151.646 75.975H152.415C152.415 76.3271 152.29 76.6135 152.04 76.8344C151.792 77.0531 151.457 77.1625 151.034 77.1625C150.613 77.1625 150.278 77.0531 150.03 76.8344C149.783 76.6135 149.659 76.3271 149.659 75.975H150.424C150.424 76.1312 150.47 76.2698 150.562 76.3906C150.653 76.5094 150.811 76.5687 151.034 76.5687C151.252 76.5687 151.409 76.5094 151.502 76.3906C151.598 76.2719 151.646 76.1333 151.646 75.975Z" fill="#4A3942"/>
</g>
<defs>
<clipPath id="clip0_2670_9376">
<rect width="193" height="40" fill="white" transform="translate(14 50)"/>
</clipPath>
</defs>
</svg>
