<svg width="220" height="140" viewBox="0 0 220 140" fill="none" xmlns="http://www.w3.org/2000/svg">
<path d="M10 60.7624H13.3998V78.1729H10V60.7624Z" fill="#55565B"/>
<path d="M78.7764 69.1829L79.1811 65.75H79.0192L77.9669 68.5291L74.3242 74.9865H73.2718L69.3864 68.4473L68.3341 65.6682H68.1722L68.6579 69.1012V78.1743H65.4199V60.7638H68.4959L73.11 68.6925L73.9195 70.6543H74.0005L74.729 68.6108L79.1001 60.6821H82.1761V78.1743H78.7764V69.1829Z" fill="#55565B"/>
<path d="M85.0101 66.4844C85.6577 66.1575 86.4671 65.9122 87.3576 65.7487C88.248 65.5852 89.2195 65.5035 90.1908 65.5035C91.0812 65.5035 91.7288 65.5852 92.2954 65.8305C92.862 66.0758 93.3477 66.321 93.6715 66.7296C93.9954 67.1383 94.2382 67.547 94.4001 68.1192C94.5619 68.6097 94.6429 69.2635 94.6429 69.9174C94.6429 70.6531 94.6429 71.3888 94.5619 72.1244C94.481 72.8601 94.481 73.5957 94.481 74.3314C94.481 75.0671 94.481 75.7209 94.5619 76.3749C94.6429 77.0288 94.7239 77.6827 94.9667 78.2548H92.3764L91.8907 76.5384H91.5669C91.2431 77.0288 90.7575 77.5192 90.1908 77.8462C89.6242 78.2548 88.8956 78.4183 87.9243 78.4183C87.3576 78.4183 86.8719 78.3366 86.3863 78.1731C85.9006 78.0096 85.4958 77.7644 85.1721 77.4375C84.8482 77.1105 84.6054 76.7019 84.4434 76.2931C84.2816 75.8844 84.2006 75.394 84.2006 74.8219C84.2006 74.0861 84.3626 73.4322 84.6864 72.8601C85.0101 72.3697 85.4958 71.8792 86.1434 71.5522C86.791 71.2253 87.5195 70.9801 88.41 70.8984C89.3003 70.7349 90.2717 70.7349 91.324 70.8166C91.405 69.9174 91.405 69.2635 91.1622 68.8549C90.9193 68.4462 90.3527 68.2827 89.5432 68.2827C88.8956 68.2827 88.248 68.3645 87.5195 68.4462C86.791 68.6097 86.2243 68.7731 85.7386 68.9366L85.0101 66.4844ZM89.0575 75.7209C89.7051 75.7209 90.1908 75.5575 90.5955 75.3123C91.0002 74.9853 91.2431 74.7401 91.405 74.4132V72.7784C90.9193 72.6966 90.4336 72.6966 89.948 72.7784C89.4623 72.7784 89.0575 72.8601 88.7337 73.0236C88.41 73.1053 88.0861 73.2688 87.8433 73.514C87.6005 73.7592 87.5195 74.0044 87.5195 74.3314C87.5195 74.8219 87.6814 75.1488 87.9243 75.394C88.1671 75.5575 88.5718 75.7209 89.0575 75.7209Z" fill="#55565B"/>
<path d="M104.033 68.7731C103.547 68.6097 103.062 68.5279 102.657 68.5279C102.09 68.5279 101.605 68.6914 101.2 69.0183C100.795 69.3453 100.552 69.754 100.39 70.1627V78.1731H97.1526V65.7487H99.6619L100.067 67.3835H100.148C100.39 66.8114 100.795 66.321 101.281 65.9939C101.767 65.667 102.333 65.5035 102.981 65.5035C103.386 65.5035 103.871 65.5852 104.438 65.7487L104.033 68.7731Z" fill="#55565B"/>
<path d="M105.733 62.2337C105.733 61.7432 105.894 61.3345 106.299 61.0076C106.623 60.6806 107.109 60.5171 107.756 60.5171C108.404 60.5171 108.889 60.6806 109.294 61.0076C109.699 61.3345 109.861 61.7432 109.861 62.2337C109.861 62.7241 109.699 63.1328 109.294 63.4597C108.889 63.7868 108.404 63.9502 107.756 63.9502C107.109 63.9502 106.623 63.7868 106.299 63.4597C105.894 63.1328 105.733 62.7241 105.733 62.2337ZM106.137 65.7485H109.375V78.1729H106.137V65.7485Z" fill="#55565B"/>
<path d="M120.06 78.1724V71.1428C120.06 70.162 119.899 69.4263 119.656 68.9359C119.332 68.5272 118.846 68.282 118.199 68.282C117.551 68.282 117.066 68.4455 116.66 68.8541C116.256 69.1811 115.932 69.6715 115.771 70.162V78.1724H112.532V65.748H115.042L115.446 67.3828H115.527C115.932 66.8924 116.418 66.402 117.066 65.9932C117.713 65.5845 118.523 65.4211 119.494 65.4211C120.06 65.4211 120.627 65.5028 121.113 65.6663C121.599 65.8297 122.003 66.075 122.327 66.4837C122.65 66.8924 122.894 67.3828 123.056 68.0367C123.218 68.6907 123.299 69.508 123.299 70.489V78.1724H120.06Z" fill="#55565B"/>
<path d="M130.987 74.7394C130.987 74.4125 130.825 74.1671 130.582 73.9219C130.34 73.7585 129.934 73.5133 129.53 73.3498C129.126 73.1863 128.639 73.0229 128.154 72.8594C127.669 72.6959 127.182 72.4507 126.778 72.1237C126.374 71.7967 126.049 71.388 125.726 70.9794C125.483 70.489 125.321 69.9167 125.321 69.1811C125.321 67.955 125.645 67.0559 126.374 66.402C127.102 65.748 128.154 65.4211 129.53 65.4211C130.502 65.4211 131.311 65.5028 132.039 65.748C132.768 65.9115 133.415 66.1568 133.821 66.402L133.092 68.7724C132.687 68.6089 132.201 68.4455 131.635 68.282C131.068 68.1185 130.502 68.0367 129.854 68.0367C128.883 68.0367 128.397 68.4455 128.397 69.1811C128.397 69.508 128.558 69.7532 128.802 69.9167C129.045 70.0802 129.449 70.2438 129.854 70.4072C130.259 70.5707 130.744 70.7342 131.23 70.8976C131.716 71.0611 132.201 71.3063 132.606 71.6333C133.011 71.9602 133.334 72.2872 133.659 72.7776C133.902 73.2681 134.063 73.8402 134.063 74.5759C134.063 75.802 133.659 76.8646 132.849 77.5185C132.039 78.2541 130.825 78.5812 129.287 78.5812C128.397 78.5812 127.588 78.4994 126.859 78.2541C126.13 78.0089 125.483 77.7637 124.997 77.4368L125.887 75.0663C126.292 75.3115 126.778 75.475 127.425 75.7202C128.073 75.9654 128.72 76.0472 129.368 76.0472C129.854 76.0472 130.259 75.9654 130.502 75.802C130.906 75.475 130.987 75.1481 130.987 74.7394Z" fill="#55565B"/>
<path d="M206.923 74.7394C206.923 74.4125 206.762 74.1671 206.519 73.9219C206.276 73.7585 205.872 73.5133 205.467 73.3498C205.062 73.1863 204.576 73.0229 204.091 72.8594C203.605 72.6959 203.119 72.4507 202.715 72.1237C202.31 71.7967 201.986 71.388 201.662 70.9794C201.42 70.489 201.258 69.9167 201.258 69.1811C201.258 67.955 201.581 67.0559 202.31 66.402C203.038 65.748 204.091 65.4211 205.467 65.4211C206.438 65.4211 207.248 65.5028 207.976 65.748C208.705 65.9115 209.352 66.1568 209.757 66.402L209.028 68.7724C208.624 68.6089 208.138 68.4455 207.572 68.282C207.004 68.1185 206.438 68.0367 205.79 68.0367C204.82 68.0367 204.333 68.4455 204.333 69.1811C204.333 69.508 204.495 69.7532 204.739 69.9167C204.981 70.0802 205.386 70.2438 205.79 70.4072C206.196 70.5707 206.681 70.7342 207.167 70.8976C207.652 71.0611 208.138 71.3063 208.543 71.6333C208.947 71.9602 209.271 72.2872 209.596 72.7776C209.838 73.2681 210 73.8402 210 74.5759C210 75.802 209.596 76.8646 208.786 77.5185C207.976 78.2541 206.762 78.5812 205.224 78.5812C204.333 78.5812 203.525 78.4994 202.796 78.2541C202.067 78.0089 201.42 77.7637 200.933 77.4368L201.824 75.0663C202.228 75.3115 202.715 75.475 203.362 75.7202C204.01 75.9654 204.658 76.0472 205.305 76.0472C205.79 76.0472 206.196 75.9654 206.438 75.802C206.843 75.475 206.923 75.1481 206.923 74.7394Z" fill="#55565B"/>
<path d="M57.1111 66.6469C57.1921 66.5651 57.1921 66.4834 57.1921 66.4834C57.1111 66.4834 57.1111 66.5651 57.1111 66.6469ZM45.1309 76.2104C42.0549 79.0713 41.0835 79.9705 38.9789 83.0765C38.736 82.8313 37.4408 80.8695 36.8742 80.2157C36.6313 79.8887 36.4695 79.7251 36.3076 79.5617L36.0648 79.2347C35.9838 79.153 35.9838 79.153 35.9838 79.0713C35.9028 79.0713 35.9028 78.9895 35.5791 78.6626C35.741 78.8261 36.2266 79.3982 36.7933 80.0522C37.117 80.3791 37.36 80.7878 37.6028 81.1965C38.817 82.8313 37.5218 81.033 37.5218 81.033C37.6028 81.033 37.6837 81.1147 37.7647 81.36C39.6265 83.8121 37.5218 80.8695 36.9552 80.2157C36.6313 79.807 36.3885 79.4799 36.2267 79.3165C36.0648 79.0713 36.0648 79.0713 36.2267 79.3165C36.7123 79.807 36.9552 80.2157 37.198 80.5426C37.4408 80.7878 37.6028 81.033 37.6837 81.1147C37.9265 81.36 37.8456 81.2782 37.7647 81.1147C37.6837 80.9513 37.5218 80.7061 37.4408 80.6243C37.4408 80.6243 37.4408 80.6243 37.4408 80.5426C36.8742 79.807 36.2267 79.0713 35.66 78.4991C35.0125 77.7635 34.4458 77.1913 34.0411 76.7826C33.5554 76.3739 33.3126 76.047 33.2316 75.9652C33.1506 75.8018 33.3126 75.9652 33.6363 76.2922C34.3648 77.0278 35.0934 77.7635 35.822 78.5809C36.5505 79.3165 37.279 80.1339 37.8456 81.033C37.5218 80.6243 37.36 80.3791 37.279 80.2157C37.117 80.0522 37.0361 79.9705 37.0361 79.9705C37.0361 79.8887 37.279 80.1339 37.36 80.2974C37.4408 80.3791 37.4408 80.3791 37.4408 80.3791C37.36 80.2974 37.36 80.2157 37.198 80.0522C37.0361 79.807 36.7933 79.5617 36.4695 79.153C36.0648 78.6626 35.5791 78.1722 34.9315 77.4365C35.741 78.3356 36.6314 79.2347 37.4408 80.2157C37.1171 79.7251 36.8742 79.4799 36.6314 79.2347L36.2267 78.7443C36.0648 78.4991 35.9838 78.4174 35.9028 78.3356C35.822 78.2539 35.66 78.0087 35.2553 77.5999C35.0125 77.3547 34.7696 77.0278 34.3648 76.7008C33.9601 76.2922 33.4744 75.8018 32.8268 75.1478C33.5554 75.8018 34.122 76.3739 34.5268 76.7826C34.9315 77.1913 35.1743 77.4365 35.1743 77.4365C34.6077 76.8643 34.203 76.4556 33.8791 76.047C33.4744 75.72 33.2316 75.4747 32.9078 75.1478L31.6936 73.9217C31.3698 73.6765 31.1269 73.4312 30.8032 73.1043C30.5603 72.8591 30.2366 72.6139 29.9937 72.2869L29.9127 72.2052C30.0746 72.3687 30.3174 72.6139 30.5603 72.8591C31.1269 73.4312 31.9364 74.1669 32.3411 74.5756C32.5031 74.7391 32.9078 75.066 33.2316 75.393C33.6363 75.8018 34.0411 76.1287 34.203 76.3739C34.4458 76.6191 34.5268 76.7008 34.3648 76.4556C34.2839 76.3739 34.122 76.2104 33.8791 75.9652C33.3935 75.5564 32.9888 75.1478 32.5031 74.6574C33.1506 75.2295 33.5554 75.6382 33.8791 75.9652C34.203 76.2922 34.5268 76.5374 34.7696 76.8643C34.203 76.2922 33.5554 75.72 33.0696 75.2295C32.584 74.6574 32.0983 74.2487 31.7746 73.9217C31.4507 73.5947 31.2889 73.4312 31.3698 73.513C31.4507 73.5947 31.6936 73.84 32.3411 74.4121C31.3698 73.4312 30.7222 72.7773 29.9937 72.0417C29.6699 71.633 29.2652 71.306 28.8604 70.8156C28.7794 70.7339 28.6985 70.6521 28.6176 70.5704C28.9414 70.9791 29.1842 71.2243 29.2652 71.2243C29.3461 71.306 29.2652 71.2243 29.1842 71.1425C29.0224 70.9791 28.8604 70.8156 28.6176 70.5704C29.508 71.633 30.5603 72.6139 31.6126 73.6765C32.0174 74.0852 31.8554 73.84 31.2889 73.3495C30.8031 72.7773 29.9937 71.96 29.2652 71.1425C29.7509 71.633 30.0746 71.96 30.2366 72.2052C30.4794 72.4504 30.6413 72.6139 30.7222 72.6956C30.8841 72.8591 30.8031 72.7773 30.6413 72.5321C30.4794 72.3687 30.3174 72.2052 30.2366 72.1235C30.1556 72.0417 30.3174 72.2052 30.8841 72.6956C30.3984 72.2052 30.1556 71.96 30.0746 71.8783C29.9937 71.7965 29.9937 71.7965 29.9937 71.7148C29.9127 71.633 29.8318 71.4695 29.4271 71.1425C29.2652 70.8973 29.0224 70.6521 28.6985 70.3252C28.3747 69.9165 27.97 69.5078 27.4843 68.8538C28.0509 69.5896 28.6985 70.3252 29.3461 71.0608C29.508 71.2243 29.5889 71.306 29.7509 71.3877C29.9127 71.5512 30.1556 71.7965 30.7222 72.2869C30.8841 72.4504 30.8031 72.3687 30.5603 72.1235C30.3174 71.8783 29.9937 71.5512 29.5889 71.1425C29.1842 70.7339 28.7794 70.2434 28.3747 69.753C27.97 69.2625 27.6462 68.8538 27.4843 68.5269C27.889 69.0173 28.2937 69.5078 28.6985 70.08C28.1319 69.426 27.4034 68.5269 26.8367 67.5461C26.432 66.8921 26.0272 66.1565 25.7035 65.4209C25.5415 64.9303 25.3797 64.5217 25.2987 64.113C25.2987 64.113 25.2987 64.113 25.2987 64.0312C25.2178 63.9495 25.2178 63.7043 25.0559 63.2955C25.1368 63.5408 25.2178 63.786 25.2987 64.0312C25.2987 64.113 25.2987 64.113 25.2987 64.113C25.2987 64.113 25.2987 64.113 25.3797 64.1947C25.4606 64.2765 25.4606 64.5217 25.6225 64.9303C25.7035 65.2573 25.8653 65.6661 26.1082 66.1565C26.351 66.6469 26.5939 67.1373 26.9987 67.7913C27.4034 68.3634 27.8081 69.0173 28.4557 69.6713C29.0224 70.3252 29.6699 71.0608 30.3174 71.7148C30.5603 71.96 30.3984 71.7965 30.0746 71.3877C29.7509 71.0608 29.3461 70.5704 28.9414 70.1617C28.6176 69.753 28.2937 69.426 28.2937 69.3442C28.2937 69.2625 28.3747 69.426 28.5366 69.5896C28.6985 69.753 28.9414 70.08 29.2652 70.4886C29.4271 70.6521 29.5889 70.7339 29.508 70.7339C29.508 70.7339 29.3461 70.5704 29.1842 70.3252C28.9414 70.08 28.6985 69.753 28.2937 69.1808C28.2129 69.0173 28.0509 68.9356 27.97 68.7721C27.97 68.6904 27.889 68.6904 27.889 68.6904C27.889 68.6086 27.8081 68.6086 27.8081 68.6086C27.6462 68.4452 27.5652 68.2817 27.4843 68.1182C27.2415 67.873 27.0795 67.5461 26.9177 67.219C27.1605 67.5461 27.3224 67.873 27.4843 68.1182C27.6462 68.2817 27.7272 68.4452 27.8081 68.6086C27.889 68.6904 27.889 68.6904 27.889 68.7721C28.2129 69.2625 28.6176 69.6713 29.1842 70.3252C29.1842 70.2434 29.1032 70.1617 28.8604 69.9165C28.7794 69.753 28.6176 69.5896 28.3747 69.3442C28.1319 69.099 27.889 68.7721 27.6462 68.3634C27.889 68.6086 27.97 68.7721 27.97 68.7721C28.0509 68.8538 28.0509 68.8538 27.97 68.7721C27.889 68.6904 27.7272 68.4452 27.7272 68.5269C27.3224 67.9548 26.9987 67.5461 26.8367 67.1373C26.6748 66.7286 26.432 66.4834 26.27 66.0747C26.1082 65.7478 25.9463 65.339 25.7035 64.7669C25.5415 64.5217 25.4606 64.1947 25.3797 63.8678C25.2178 63.5408 25.1368 63.1321 25.1368 62.6416C25.2178 63.1321 25.2987 63.5408 25.3797 63.786C25.4606 64.0312 25.4607 64.113 25.4607 63.9495C25.2178 63.2955 25.1368 62.7234 25.1368 62.3147C25.0559 61.906 25.0559 61.6608 25.0559 61.4973C25.0559 61.4156 25.0559 61.4156 25.0559 61.6608C25.1368 61.906 25.1368 62.3147 25.2178 62.8869C25.3797 63.5408 25.5415 64.1947 25.7035 64.6851C25.7844 64.9303 25.8653 65.0938 25.9463 65.2573C25.9463 65.1755 25.8653 65.0938 25.8653 65.0121C25.8653 64.9303 25.8653 64.9303 25.7844 64.9303L25.8653 65.0121C25.5415 64.113 25.2987 63.2138 25.1368 62.233C25.2178 62.5599 25.2178 62.7234 25.2178 62.8869C25.2987 63.0503 25.2987 63.1321 25.2987 63.2138C25.2987 63.3774 25.2987 63.2955 25.2178 62.9686C25.1368 62.7234 25.0559 62.3147 25.0559 61.8243C25.0559 61.6608 25.0559 61.5791 25.0559 61.4156V61.2521V61.1704C25.0559 61.0886 25.0559 61.0069 25.0559 60.9251C25.0559 60.6799 25.0559 60.353 25.1368 60.1077C25.0559 60.353 25.0559 60.5982 25.0559 60.8434C25.0559 61.0069 25.0559 61.0886 25.0559 61.2521V61.3338V61.4156C25.0559 61.4973 25.1368 61.5791 25.1368 61.6608L25.0559 61.4973V61.3338V61.2521V61.1704C25.0559 61.0886 25.0559 61.0886 25.0559 61.0069C25.0559 60.7617 25.1368 60.5164 25.1368 60.353C25.1368 60.2712 25.2178 60.1895 25.2178 60.1895C25.2178 60.1077 25.2178 60.1077 25.2178 60.1077C25.2178 60.1895 25.2178 60.1895 25.2178 60.1895C25.2987 59.7808 25.3797 59.4538 25.4607 59.1269C25.2178 59.3721 25.2178 59.3721 25.2178 59.2903C25.2178 59.2086 25.2987 59.0451 25.2987 58.8816C25.4606 58.5547 25.3797 58.7182 25.2987 58.8816C25.2178 59.0451 25.2178 59.2086 25.1368 59.4538C25.0559 59.8625 24.975 60.2712 24.975 60.7617C24.975 60.8434 24.975 61.0069 24.975 61.0886C24.975 61.1704 24.975 61.1704 24.975 61.2521V61.4973C24.975 61.7425 25.0559 61.9877 25.0559 62.1512C25.0559 62.233 25.1368 62.4782 25.1368 62.8051C25.2178 63.1321 25.2987 63.5408 25.3797 63.786C25.4606 64.0312 25.4607 64.1947 25.4607 64.113C25.3797 64.0313 25.3797 63.9495 25.2987 63.7043C25.2178 63.4591 25.1368 63.2138 25.1368 62.8051C25.0559 62.5599 25.0559 62.233 24.975 61.9877C24.975 61.8243 24.975 61.6608 24.894 61.4973V61.1704C24.894 61.0886 24.894 61.0069 24.894 60.9251C24.894 60.2712 25.0559 59.5356 25.2178 58.8816C25.1368 59.0451 25.1368 59.1269 25.0559 59.2903C24.975 59.4538 24.975 59.6173 24.975 59.699C24.894 59.8625 24.894 59.9443 24.894 60.026C24.894 60.1077 24.894 60.026 24.894 59.9443C24.975 59.2903 25.1368 58.7999 25.2178 58.5547C25.2178 58.6364 25.2178 58.6364 25.2178 58.6364C25.2178 58.5547 25.2178 58.5547 25.2178 58.5547C25.2987 58.473 25.2987 58.473 25.2178 58.5547V58.6364C26.0272 56.6747 25.4607 57.9825 25.0559 59.0451C24.975 59.2903 24.894 59.4538 24.894 59.699C24.813 60.1077 24.813 60.353 24.813 60.353C24.813 54.059 33.1506 53.9773 35.9838 58.5547C36.4695 59.2903 37.36 61.0886 37.0361 61.8243C37.0361 61.8243 35.9028 63.9495 35.5791 65.0938C35.4981 65.339 35.4172 65.5026 35.4172 65.6661L35.4981 65.7478C35.5791 65.5843 35.66 65.4209 35.741 65.1755L35.9028 64.8486C36.3076 63.786 36.7933 62.8051 37.36 61.8243L37.4408 61.6608C37.198 62.0695 36.9552 62.3964 36.7933 62.8051C36.8742 62.8051 37.279 62.0695 37.279 62.1512C37.36 62.1512 37.279 62.233 37.117 62.4782C37.4408 61.9878 37.6837 61.5791 38.0075 61.0886C38.1694 60.9251 38.2503 60.8434 38.3313 60.7617C37.8456 61.4156 37.4408 62.1512 37.0361 62.8051C36.7933 63.2955 36.6313 63.6226 36.5505 63.9495C36.3885 64.1947 36.3885 64.4399 36.3076 64.5217C36.1457 65.0938 36.4695 64.6034 36.5505 64.5217C36.6313 64.4399 36.6313 64.5217 36.4695 64.9303C36.6313 64.6851 36.7933 64.3582 37.0361 63.8678C37.6028 62.7234 38.4122 61.6608 39.3027 60.7617C39.7074 60.353 40.0312 59.9443 40.355 59.7808C41.8121 58.3095 43.5929 57.0016 45.4547 56.1843L45.3738 56.3477C44.969 56.5929 44.5643 56.7564 44.1596 57.0016C44.5643 56.7564 44.969 56.5929 45.3738 56.4295L45.2928 56.5112C45.0499 56.5929 44.8881 56.6747 44.7261 56.7564C44.6452 56.8382 44.6452 56.7564 44.969 56.6747C44.8071 56.7564 44.7261 56.8382 44.6452 56.8382L44.7261 56.7564C44.8071 56.6747 45.0499 56.5929 45.2928 56.5112L45.2118 56.5929C43.5119 57.3286 41.8121 58.5547 40.5169 59.9443C41.3264 59.2086 42.2168 58.473 43.1072 57.9008C43.5119 57.6556 43.8357 57.4921 43.9167 57.4921C43.9976 57.4103 43.9167 57.4921 43.8357 57.5738C43.6739 57.6556 43.5119 57.819 43.2691 57.9825C43.1881 58.0643 43.3501 57.9008 43.5929 57.7373C43.7548 57.6556 43.8357 57.5738 43.9167 57.5738C43.9976 57.4921 44.1596 57.4103 44.3214 57.3286C44.4024 57.3286 44.4024 57.2469 44.4024 57.2469C44.5643 57.1651 44.7261 57.0016 44.969 56.9199C44.8071 57.0016 44.6452 57.0834 44.4833 57.1651C44.8881 56.9199 45.0499 56.9199 45.1309 56.8382C44.3214 57.2469 43.5119 57.7373 42.7024 58.3095C42.5406 58.3912 42.5406 58.473 42.4596 58.473C42.4596 58.5547 42.6215 58.3912 42.7024 58.3095C42.8644 58.2277 43.0262 58.146 42.9453 58.146C42.8644 58.2277 42.7834 58.2277 42.7024 58.3912C42.6215 58.473 42.5406 58.5547 42.3787 58.6364C42.4596 58.6364 42.4596 58.6364 42.4596 58.6364C42.7024 58.473 42.7834 58.3912 42.7834 58.3912C42.8644 58.3912 42.5406 58.6364 42.2167 58.8816C41.893 59.1269 41.6502 59.3721 41.5692 59.4538C41.5692 59.5356 41.5692 59.4538 41.7311 59.2903C41.893 59.1269 42.1359 58.9634 42.4596 58.7182C42.2977 58.7999 42.2167 58.9634 42.0549 59.0451C42.1359 58.9634 42.2167 58.8816 42.2167 58.8816C42.3787 58.7182 42.0549 59.0451 41.6502 59.3721C41.4074 59.5356 41.2454 59.7808 41.0835 59.9443C40.9216 60.1077 40.8407 60.2712 40.7597 60.2712C40.6787 60.353 40.7597 60.2712 40.9216 60.1077C41.0835 59.9443 41.4074 59.6173 41.893 59.2086C41.4882 59.5356 41.1644 59.8625 40.8407 60.1895C41.0835 59.9443 40.9216 60.2712 41.0026 60.2712C41.0835 60.1895 41.1644 60.1077 41.4074 59.9443C41.893 59.5356 42.2977 59.1269 42.8644 58.7182C43.0262 58.6364 42.9453 58.6364 42.9453 58.7182C42.8644 58.7999 42.7024 58.9634 42.5406 59.1269C42.0549 59.5356 41.6502 59.9443 41.1644 60.353C40.7597 60.8434 40.4359 61.2521 40.355 61.3338C40.274 61.4156 40.274 61.4156 40.4359 61.2521C40.5979 61.0886 40.7597 60.9251 41.0026 60.5982C41.0835 60.5164 41.1644 60.4347 41.2454 60.353C41.4882 60.1077 41.6502 59.9443 41.7311 59.8625C41.8121 59.7808 41.893 59.699 41.893 59.699C42.0549 59.699 42.2167 59.5356 42.3787 59.3721C42.8644 58.9634 43.3501 58.5547 43.6739 58.3912C43.5929 58.473 43.1072 58.7999 42.5406 59.2086C42.2977 59.3721 42.1359 59.6173 41.893 59.7808C41.8121 59.8625 41.8121 59.8625 41.7311 59.9443C41.4882 60.1077 41.2454 60.4347 41.0835 60.5982C40.8407 60.8434 40.6787 61.0069 40.7597 61.0069C41.2454 60.5164 41.6502 60.026 42.2167 59.5356C42.4596 59.2903 42.7834 59.0451 43.3501 58.6364C42.9453 58.9634 42.5406 59.2903 42.2167 59.5356C41.9739 59.7808 41.812 59.8625 41.812 59.9443C41.7311 60.026 41.893 59.8625 42.1359 59.6173C42.3787 59.3721 42.7024 59.2086 42.7024 59.1269C42.7024 59.1269 42.6215 59.2086 42.4596 59.2903C42.2977 59.4538 42.0549 59.6173 41.7311 59.9443C42.7024 59.0451 43.7548 58.2277 44.969 57.5738C45.0499 57.5738 45.0499 57.6556 45.0499 57.6556C44.5643 57.9008 44.0786 58.2277 43.5119 58.5547C43.6739 58.473 43.7548 58.3912 43.7548 58.3912C43.7548 58.3912 43.6739 58.473 43.4309 58.6364C43.2691 58.7999 42.9453 59.0451 42.5406 59.3721C43.3501 58.7182 44.1596 58.0643 45.1309 57.6556H45.2118C44.6452 57.9008 44.1596 58.2277 43.6739 58.5547C43.5119 58.7182 43.4309 58.7182 43.6739 58.5547C43.8357 58.473 44.2404 58.146 44.1596 58.3095L43.8357 58.5547C44.3214 58.2277 44.8071 57.9008 45.2928 57.7373C45.3738 57.7373 45.3738 57.7373 45.3738 57.7373C45.1309 57.819 44.969 57.9825 44.7261 58.146C44.7261 58.2277 44.8071 58.2277 44.8071 58.2277C44.8071 58.2277 44.6452 58.3912 44.4833 58.473V58.5547C44.7261 58.3912 45.0499 58.2277 45.2928 58.0643C45.3738 57.9825 45.5356 57.9825 45.6166 57.9008H45.6976C45.6166 57.9008 45.6166 57.9008 45.6166 57.9825C45.6976 57.9008 45.8594 57.9008 45.9404 57.819C46.1023 57.7373 46.8308 57.4103 47.3165 57.4103C51.9305 56.1843 54.8446 58.473 54.6827 63.4591C54.278 69.5896 49.0163 72.4504 45.1309 76.2104ZM22.5465 65.7478C22.4656 65.5843 22.4656 65.4209 22.3846 65.2573C22.3036 65.0938 22.3036 65.0121 22.3036 64.8486C22.2227 64.8486 22.2227 64.7669 22.2227 64.7669C22.1418 64.4399 22.0608 64.1947 21.9798 63.9495V63.8678C21.8989 63.7043 21.8989 63.6226 21.8989 63.4591C21.8989 63.3774 21.8989 63.2955 21.818 63.2955C21.8989 63.4591 21.8989 63.6226 21.9798 63.786V63.8678V63.9495C22.0608 64.1947 22.1418 64.4399 22.2227 64.7669C22.3036 64.9303 22.3036 65.0121 22.3846 65.1755C22.4656 65.4209 22.4656 65.5843 22.5465 65.7478ZM21.9798 63.6226C22.0608 63.7043 22.0608 63.7043 22.0608 63.7043L21.9798 63.6226ZM22.5465 65.4209C22.4656 65.339 22.4656 65.2573 22.4656 65.1755V65.0938C22.4656 65.2573 22.4656 65.339 22.5465 65.4209ZM21.6561 63.7043C21.6561 63.4591 21.5751 63.2955 21.5751 63.1321V63.0503C21.6561 63.3774 21.737 63.6226 21.737 63.8678C21.818 64.0313 21.818 64.113 21.818 64.2765C21.818 64.113 21.737 63.8678 21.6561 63.7043ZM21.4941 62.4782C21.5751 62.8869 21.6561 63.2955 21.737 63.7043V63.786C21.6561 63.4591 21.5751 63.1321 21.5751 62.8869C21.4941 62.7234 21.4941 62.5599 21.4941 62.4782ZM21.818 62.3147C21.818 62.1512 21.818 61.9878 21.737 61.906C21.818 62.233 21.818 62.4782 21.8989 62.7234V62.9686C21.818 62.7234 21.818 62.5599 21.818 62.3147ZM58.5683 61.3338C58.4873 60.9251 58.4063 60.353 58.2444 59.6173C56.9493 54.3042 51.121 52.0973 46.1023 53.8138C42.3787 55.3669 41.2454 56.4295 38.3313 59.2086C37.5218 55.6121 33.4744 51.0347 27.5652 52.179C24.7321 52.9147 22.9513 54.7947 22.2227 57.1651C22.3036 57.0834 22.3036 57.0834 22.3036 57.0016C22.2227 57.0834 22.2227 57.1651 22.2227 57.1651C22.1418 57.3286 22.1418 57.4103 22.1418 57.4921C22.1418 57.4103 22.1418 57.4103 22.1418 57.4103C22.2227 57.3286 22.2227 57.2469 22.3036 57.0834C22.3036 57.1651 22.3036 57.2469 22.2227 57.2469C22.5465 56.5929 22.6275 55.7756 21.9798 58.473C21.8989 58.7182 21.8989 58.9634 21.8989 59.2086C21.8989 59.0451 21.9798 58.9634 21.9798 58.9634C21.8989 59.2086 21.8989 59.3721 21.8989 59.6173C21.8989 59.6173 21.8989 59.699 21.818 59.699C21.818 59.699 21.818 59.699 21.818 59.7808C21.818 60.1077 21.737 60.4347 21.737 60.6799C21.6561 60.8434 21.6561 61.0069 21.6561 61.1704C21.6561 61.1704 21.6561 61.0069 21.6561 60.8434C21.6561 60.7617 21.737 60.6799 21.737 60.6799C21.737 60.2712 21.737 59.8625 21.818 59.4538C21.818 59.2086 21.818 58.9634 21.8989 58.7999C21.818 58.9634 21.818 59.1269 21.737 59.2903C21.6561 59.4538 21.6561 59.699 21.6561 59.8625C21.6561 59.9443 21.6561 60.026 21.6561 60.1077C21.6561 60.2712 21.6561 60.4347 21.5751 60.5982C21.5751 60.8434 21.5751 61.0886 21.6561 61.3338C21.6561 61.4156 21.6561 61.4973 21.6561 61.5791C21.6561 61.7425 21.6561 61.8243 21.6561 61.906C21.6561 61.9878 21.6561 61.9878 21.6561 62.0695C21.5751 61.6608 21.5751 61.2521 21.5751 60.8434C21.5751 61.0069 21.5751 61.1704 21.5751 61.3338C21.5751 61.579 21.5751 61.7425 21.6561 61.9877C21.6561 62.0695 21.6561 62.1512 21.6561 62.3147C21.6561 62.3964 21.6561 62.4782 21.737 62.5599C21.6561 62.3964 21.6561 62.233 21.6561 61.9877C21.6561 62.3147 21.737 62.6416 21.818 62.9686C21.818 63.2955 21.8989 63.6226 21.9798 63.8678C22.0608 64.1947 22.1418 64.4399 22.1418 64.6034L22.2227 64.9303C22.2227 64.9303 22.2227 64.8486 22.1418 64.6034C22.1418 64.5217 22.0608 64.3582 21.9798 64.113C21.8989 63.8678 21.818 63.5408 21.818 63.2138C21.737 62.9686 21.737 62.7234 21.737 62.5599C21.737 62.8869 21.818 63.1321 21.818 63.3774C21.8989 63.6226 21.8989 63.786 21.8989 63.8678C21.818 63.5408 21.737 63.1321 21.6561 62.7234C21.6561 62.4782 21.5751 62.3147 21.5751 62.1512C21.4941 61.906 21.4941 61.7425 21.4941 61.4973C21.4941 61.2521 21.4941 61.0069 21.4941 60.7617C21.4941 60.7617 21.4133 60.7617 21.4133 60.6799C21.4133 60.5982 21.4133 60.5982 21.4133 60.5164C21.4941 59.7808 21.5751 59.0451 21.737 58.3095C21.818 58.0643 21.818 57.9008 21.8989 57.7373C21.818 57.819 21.818 57.9008 21.818 57.9008C21.737 57.9825 21.8989 57.6556 21.8989 57.5738C21.818 57.7373 21.737 57.819 21.737 57.9008C21.4941 58.7999 21.3323 59.7808 21.3323 60.7617V60.8434C21.3323 60.9251 21.3323 60.9251 21.3323 61.0069C21.3323 60.9251 21.3323 60.8434 21.3323 60.8434C21.3323 60.9251 21.3323 61.0069 21.3323 61.0886C21.3323 61.1704 21.3323 61.1704 21.3323 61.2521C21.2513 60.7617 21.3323 60.2712 21.4133 59.699C21.4133 59.4538 21.4941 59.2903 21.4941 59.0451C21.4133 59.3721 21.3323 59.7808 21.3323 60.1895C21.2513 60.4347 21.2513 60.4347 21.2513 60.4347V60.1077C21.2513 59.9443 21.2513 59.8625 21.3323 59.7808C21.3323 59.6173 21.4133 59.3721 21.4133 59.2086C21.4133 59.1269 21.4941 59.0451 21.4941 58.8816C21.4133 59.1269 21.4133 59.3721 21.4133 59.4538C21.3323 59.699 21.3323 59.7808 21.3323 59.8625C21.3323 59.9443 21.3323 59.9443 21.3323 59.9443V59.7808C21.3323 59.699 21.3323 59.7808 21.3323 59.8625C21.3323 59.7808 21.4133 59.699 21.4133 59.6173C21.3323 59.8625 21.3323 60.1077 21.2513 60.353C21.3323 60.7617 21.3323 61.0069 21.3323 61.0069C21.3323 61.0886 21.3323 60.9251 21.3323 60.7617C21.3323 60.5164 21.4133 60.2712 21.4133 59.9443C21.4133 59.6173 21.4941 59.2903 21.5751 58.9634C21.737 58.473 21.818 58.0643 21.8989 57.9008C21.818 57.9825 21.818 57.9825 21.818 58.0643C21.737 58.146 21.737 58.3095 21.6561 58.3912C21.6561 58.473 21.6561 58.473 21.6561 58.5547C21.5751 58.7999 21.4941 58.9634 21.4941 59.2086C21.4941 59.2903 21.4133 59.3721 21.4133 59.4538C21.3323 59.699 21.3323 60.026 21.3323 60.2712C21.3323 59.9443 21.4133 59.699 21.4133 59.4538C21.4133 59.3721 21.4941 59.2903 21.4941 59.2086C21.4941 59.1269 21.4941 59.1269 21.4941 59.1269C21.5751 58.8816 21.6561 58.7182 21.6561 58.5547C21.6561 58.3912 21.737 58.2277 21.818 58.0643C21.818 57.9008 21.8989 57.9008 21.8989 57.819V57.9008C22.0608 57.4103 22.2227 56.9199 22.4656 56.4295C22.3036 56.7564 22.1418 57.0834 22.0608 57.3286C21.9798 57.5738 21.8989 57.819 21.818 57.9825C21.6561 58.3912 21.6561 58.5547 21.6561 58.6364C21.5751 58.7999 21.6561 58.5547 21.737 58.2277C21.818 57.9008 21.8989 57.6556 21.8989 57.6556C21.8989 57.7373 21.818 57.819 21.737 58.0643C21.6561 58.146 21.6561 58.3095 21.5751 58.473C21.4941 58.7999 21.4133 59.1269 21.4133 59.4538C21.4941 59.0451 21.5751 58.7182 21.5751 58.473C21.5751 58.3912 21.5751 58.3912 21.6561 58.3095C21.737 57.9825 21.818 57.819 21.818 57.819C21.818 57.819 21.737 57.9008 21.6561 58.146C21.5751 58.3912 21.4941 58.6364 21.4941 58.9634C21.4133 59.5356 21.3323 59.8625 21.3323 60.2712C21.2513 60.5982 21.2513 60.9251 21.2513 61.1704V61.3338V61.4973V61.6608C21.2513 61.7425 21.2513 61.7425 21.2513 61.4973V61.2521C21.2513 61.1704 21.2513 61.0886 21.2513 61.0069C21.2513 60.7617 21.2513 60.5164 21.3323 60.2712C21.2513 60.5164 21.2513 60.7617 21.2513 61.0886C21.2513 61.1704 21.2513 61.2521 21.2513 61.3338V61.4973V61.6608C21.2513 61.8243 21.2513 62.0695 21.3323 62.3147C21.3323 62.4782 21.3323 62.5599 21.3323 62.6416C21.4133 62.9686 21.4133 63.2955 21.4941 63.6226C21.4941 63.786 21.4941 63.8678 21.5751 63.9495C21.5751 64.0313 21.6561 64.113 21.6561 64.1947C21.6561 64.113 21.5751 64.0313 21.5751 63.8678C21.4941 63.786 21.4941 63.6226 21.4941 63.5408C21.4133 63.2138 21.3323 62.8869 21.3323 62.6416C21.3323 62.5599 21.2513 62.3964 21.2513 62.3147C21.2513 62.0695 21.1704 61.8243 21.1704 61.5791C21.1704 61.3338 21.1704 61.0886 21.1704 60.9251C21.1704 61.0886 21.1704 61.2521 21.1704 61.3338C21.1704 61.4973 21.1704 61.5791 21.1704 61.6608C21.1704 61.906 21.1704 62.0695 21.1704 62.233C21.1704 62.5599 21.2513 62.8051 21.2513 63.2138C21.2513 63.4591 21.3323 63.6226 21.3323 63.9495C21.4133 64.1947 21.4941 64.5217 21.5751 64.9303C21.737 65.339 21.818 65.8295 22.0608 66.4017C22.3036 66.9738 22.5465 67.6278 22.9513 68.2817C22.7084 67.873 22.4656 67.4643 22.3036 66.9738C22.0608 66.5651 21.8989 66.1565 21.818 65.6661C21.8989 65.993 21.9798 66.2382 22.0608 66.4017C22.1418 66.6469 22.2227 66.8104 22.3036 66.8921C22.3846 67.1373 22.3846 67.219 22.3846 67.1373C22.3036 67.0556 22.2227 66.8921 22.1418 66.7286C22.0608 66.4834 21.9798 66.3199 21.8989 66.0747C21.818 65.8295 21.737 65.7478 21.737 65.6661C21.737 65.5843 21.737 65.6661 21.818 65.9113C21.8989 66.1565 22.0608 66.5651 22.3846 67.219C22.7084 67.873 23.1131 68.7721 23.8417 69.8348C24.2464 70.4069 24.6512 70.9791 25.1368 71.5512C25.2178 71.633 25.2178 71.633 25.2178 71.7148C25.7035 72.2052 26.1082 72.6956 26.5939 73.2678C26.27 72.9408 25.9463 72.6139 25.6225 72.2052C25.4606 72.0417 25.3797 71.8783 25.2178 71.7148C25.2178 71.633 25.1368 71.633 25.1368 71.5512C24.975 71.306 24.7321 71.0608 24.5702 70.8156C24.2464 70.3252 23.9226 69.9165 23.5988 69.426C23.356 69.0173 23.1131 68.6086 22.8703 68.2C23.1131 68.5269 23.1941 68.7721 23.356 68.9356C23.5178 69.1808 23.5988 69.2625 23.5988 69.426C23.7607 69.6713 23.8417 69.753 23.9226 69.9165C24.0035 70.08 24.0845 70.2434 24.3273 70.5704C24.4892 70.8156 24.6512 71.0608 24.975 71.3877C25.1368 71.633 25.2987 71.7965 25.5415 72.0417C25.2987 71.7965 25.1368 71.5512 24.975 71.3877C24.7321 71.0608 24.4892 70.8156 24.3273 70.5704C24.0035 70.1617 23.7607 69.753 23.437 69.1808C23.275 69.0173 23.437 69.1808 23.6798 69.5896C23.9226 69.9982 24.3273 70.4886 24.6512 71.0608C24.813 71.306 24.975 71.4695 25.1368 71.7148C25.2178 71.7965 25.2987 71.8783 25.3797 71.96C25.5415 72.1235 25.6225 72.2869 25.7035 72.3687C25.9463 72.6956 26.0272 72.7773 25.8653 72.5321C25.7035 72.3687 25.5415 72.2052 25.3797 72.0417C25.2987 71.96 25.2178 71.8782 25.1368 71.7965C24.975 71.5512 24.7321 71.306 24.5702 71.1425C24.0035 70.4069 23.5178 69.6713 23.0322 68.8538C22.5465 68.1182 22.2227 67.3825 21.8989 66.6469C21.5751 65.993 21.4133 65.339 21.2513 64.7669C21.0894 64.2765 21.0085 63.8678 20.9276 63.4591C20.8466 63.1321 20.8466 63.0503 20.8466 63.0503C20.7656 63.0503 20.8466 63.2138 20.9276 63.6226C21.0085 63.9495 21.0894 64.5217 21.3323 65.2573C21.5751 65.993 21.8989 66.9738 22.4656 68.1182C22.5465 68.3634 22.6275 68.3634 22.5465 68.3634C22.5465 68.2817 22.4656 68.2 22.3846 67.9548C22.2227 67.7095 22.1418 67.4643 21.9798 67.1373C21.818 66.8104 21.6561 66.4017 21.5751 65.993C21.4133 65.5843 21.3323 65.2573 21.1704 64.8486C21.0894 64.4399 21.0085 64.113 20.9276 63.786C20.8466 63.4591 20.7656 63.2138 20.7656 63.0503C20.6847 62.8869 20.6847 62.8051 20.6847 62.8869C20.7656 63.3774 20.8466 63.786 20.9276 64.1947C21.0085 64.5217 21.0894 64.8486 21.1704 65.0121C21.3323 65.5026 21.4133 65.6661 21.4133 65.7478C21.4941 65.9113 21.2513 65.4209 21.1704 65.1755C21.0894 65.0121 21.0085 64.9303 21.0085 64.9303C21.0085 64.9303 21.0894 65.0938 21.1704 65.4209C21.2513 65.5843 21.3323 65.8295 21.4941 66.1565C21.5751 66.4834 21.737 66.6469 21.8989 67.0556C22.1418 67.4643 22.3846 67.9548 22.7084 68.5269C23.0322 69.099 23.356 69.6713 23.8417 70.3252C26.9177 74.2487 30.4794 76.7008 33.8791 80.1339C35.4172 81.6869 36.2267 82.2591 37.4408 83.9757C38.4932 85.2017 39.6265 87.2452 38.8979 85.4469C38.736 85.0382 38.4122 84.3844 38.817 85.12C39.7074 86.7548 39.7074 87 39.8693 87C39.9502 86.9183 39.7074 85.9374 39.7074 85.8556C39.5455 82.1774 49.8258 76.2104 52.4162 73.9217C54.197 72.2869 54.8446 71.5512 55.5731 70.5704C55.6541 70.4886 55.6541 70.4886 55.7351 70.3252C55.8969 70.1617 56.0588 69.9165 56.3017 69.3442C56.4636 69.0173 56.6254 68.6904 56.7874 68.2817C56.9493 67.873 57.1921 67.3825 57.354 66.7286C57.1921 67.4643 56.9493 68.0365 56.7874 68.4452C56.6254 68.9356 56.4636 69.2625 56.3017 69.5896C56.0588 70.1617 55.8159 70.4886 55.6541 70.8156C55.4922 71.1425 55.3303 71.3877 55.1684 71.7148C54.9256 72.0417 54.6827 72.4504 54.3589 73.1043C54.8446 72.2869 55.1684 71.7965 55.3303 71.4695C55.5731 71.1425 55.5731 71.0608 55.5731 71.0608C55.4922 71.1425 55.4922 71.2243 55.4922 71.2243C55.4922 71.2243 55.5731 71.1425 55.7351 70.8156C55.5731 71.0608 55.4922 71.2243 55.3303 71.4695C55.6541 70.9791 55.4112 71.4695 55.0874 71.8783L54.8446 72.2869C54.7637 72.3687 54.9256 72.2869 55.0874 71.96C55.3303 71.633 55.4922 71.2243 55.7351 70.8973C55.9779 70.5704 56.0589 70.3252 56.0589 70.3252C56.1398 70.2434 56.0589 70.4069 55.9779 70.4886C55.8969 70.6521 55.8159 70.8973 55.6541 71.1425C55.5731 71.306 55.4922 71.4695 55.4112 71.5512C55.4922 71.306 55.6541 71.1425 55.7351 70.9791C55.3303 71.633 55.0874 72.1235 54.9256 72.4504C54.7637 72.6956 54.6827 72.8591 54.6827 72.8591C54.6017 72.8591 54.9256 72.4504 55.2494 71.96C55.3303 71.7965 55.4112 71.7148 55.4922 71.5512C55.1684 72.1235 54.8446 72.7773 54.4399 73.2678C54.6017 73.0225 54.7637 72.7773 54.8446 72.6139L55.1684 72.1235C55.2494 71.96 55.0874 72.2052 55.0065 72.4504C54.8446 72.6956 54.6827 72.9408 54.6827 72.9408C54.7637 72.8591 54.7637 72.7773 54.9256 72.6139C55.0065 72.5321 55.0874 72.3687 55.1684 72.2869C55.3303 72.0417 55.4922 71.7965 55.5731 71.633C55.4112 71.8783 55.2494 72.1235 55.1684 72.2869C55.1684 72.3687 55.0874 72.3687 55.0874 72.4504C54.9256 72.6956 54.8446 72.8591 54.8446 72.8591C54.8446 72.8591 54.9256 72.7773 55.0065 72.6139C55.1684 72.2869 55.5731 71.7148 55.8159 71.1425C56.1398 70.6521 56.3826 70.1617 56.4636 69.9982C56.5446 69.9165 56.4636 69.9165 56.3826 70.1617C56.3017 70.4069 56.1398 70.6521 55.8969 71.1425C56.0588 70.9791 56.1398 70.7339 56.2207 70.4886C56.3826 70.2434 56.5446 69.9165 56.7064 69.5077C56.9493 69.099 57.1111 68.6086 57.354 67.9548C57.5159 67.5461 57.5968 67.1373 57.7588 66.6469C57.8396 66.4017 57.8396 66.2382 57.9206 65.993C57.9206 65.9113 58.0016 65.9113 58.0016 65.8295C58.0016 65.7478 58.0016 65.7478 58.0826 65.6661V65.4209V65.339H58.1635V65.1755V65.0938C58.1635 65.0121 58.1635 64.8486 58.1635 64.7669V65.0938V65.1755C58.1635 65.1755 58.1635 65.1755 58.1635 65.2573V65.339V65.4209H57.7588V65.6661C57.7588 65.7478 57.7588 65.7478 57.7588 65.7478C57.7588 65.8295 57.7588 65.8295 57.7588 65.8295C57.6778 65.9113 57.6778 65.9113 57.6778 65.9113C57.5968 66.0747 57.5968 66.3199 57.5159 66.4834V66.5651C57.354 67.0556 57.2731 67.3825 57.1111 67.7913C57.1111 67.873 57.1111 67.873 57.1111 67.873C57.0302 67.9548 57.0302 68.0365 57.0302 68.0365C56.7064 69.0173 56.2207 69.9982 55.8969 70.6521C56.1398 70.1617 56.3017 69.8348 56.4636 69.5896C56.6254 69.3443 56.7064 69.099 56.8683 68.7721C56.9493 68.6086 57.0302 68.4452 57.1111 68.2C57.2731 67.9548 57.354 67.6278 57.4349 67.3008C57.5968 66.8921 57.6778 66.4834 57.8396 65.8295V65.7478L57.9206 65.5843V65.5026V65.4209C57.9206 65.4209 57.9206 65.339 57.9206 65.2573H58.0016V65.0938C58.0016 64.9303 58.0016 64.7669 58.0826 64.6851C58.0826 64.3582 58.1635 64.0313 58.1635 63.6226C58.1635 64.113 58.0826 64.5217 58.0826 64.9303V65.0938V65.4209L57.9206 65.7478C57.8396 65.993 57.8396 66.2382 57.7588 66.4834C57.8396 66.1565 57.9206 65.9113 57.9206 65.6661V65.5026L58.0016 65.4209V65.339V65.1755L58.0826 64.9303C58.0826 64.6851 58.0826 64.6851 58.0826 64.6851C58.0826 64.7669 58.0826 64.9303 58.0826 65.0938L58.0016 65.2573V65.339V65.4209L57.9206 65.5843C57.9206 65.7478 57.8396 65.8295 57.8396 65.9113C57.7588 66.1565 57.7588 66.2382 57.7588 66.3199C57.7588 66.4017 57.7588 66.2382 57.8396 65.993C57.8396 65.8295 57.9206 65.7478 57.9206 65.5026L58.0016 65.339V65.2573V65.1755L58.0826 65.0121V65.0938C58.0826 64.9303 58.0826 64.7669 58.1635 64.6034C58.1635 64.2765 58.2444 63.8678 58.2444 63.3774C58.2444 62.8869 58.2444 62.3964 58.1635 61.7425C58.1635 61.3338 58.0826 61.0069 58.0016 60.5982C58.2444 61.7425 58.2444 62.8051 58.2444 63.5408C58.3254 62.8869 58.2444 62.4782 58.2444 62.233C58.2444 61.906 58.1635 61.8243 58.1635 61.6608C58.1635 61.4973 58.0826 61.3338 58.0826 60.9251C58.0826 60.7617 58.0016 60.6799 58.0016 60.5164C58.0016 60.6799 58.0826 60.8434 58.0826 61.0069C58.1635 61.2521 58.1635 61.4973 58.1635 61.7425C58.2444 61.9877 58.2444 62.233 58.2444 62.5599C58.2444 62.6416 58.2444 62.6416 58.2444 62.5599C58.2444 62.4782 58.2444 62.3147 58.1635 62.0695C58.1635 61.6608 58.0826 61.0886 58.0016 60.4347V60.353C58.2444 61.2521 58.2444 62.1512 58.3254 63.0503C58.3254 63.4591 58.3254 63.8678 58.3254 64.1947C58.2444 64.4399 58.2444 64.6034 58.2444 64.7669V65.0938L58.1635 65.2573V65.339C58.1635 65.2573 58.1635 65.2573 58.1635 65.5026V65.5843L58.0826 65.7478V65.9113C58.0016 65.993 58.0016 66.0747 58.0016 66.1565C57.9206 66.3199 57.9206 66.4834 57.8396 66.6469C57.7588 66.9738 57.6778 67.219 57.5968 67.4643C57.4349 67.9548 57.2731 68.3634 57.1921 68.6086C57.1111 68.9356 57.0302 69.0173 57.0302 69.0173C57.0302 69.0173 57.1111 68.8538 57.2731 68.5269C57.354 68.3634 57.4349 68.1182 57.5159 67.873C57.5968 67.6278 57.6778 67.3008 57.8396 66.9738C57.9206 66.5651 58.0826 66.1565 58.1635 65.6661L58.2444 65.5026V65.4209C58.1635 65.5843 58.2444 65.2573 58.2444 65.2573V65.1755L58.3254 65.0938C58.3254 64.9303 58.3254 64.8486 58.3254 64.6851C58.4063 64.4399 58.4063 64.1947 58.4063 63.8678C58.4063 63.6226 58.4063 63.6226 58.4063 63.6226C58.4063 63.7043 58.4063 63.786 58.4063 64.0312C58.4063 64.2765 58.4063 64.5217 58.3254 64.8486V65.0938V65.2573L58.2444 65.4209V65.5026V65.6661C58.1635 65.9113 58.1635 66.0747 58.0826 66.2382C58.0016 66.6469 57.8396 67.0556 57.7588 67.3825C57.5968 67.7913 57.5159 68.0365 57.4349 68.3634C57.354 68.6086 57.2731 68.8538 57.1921 69.0173C57.1111 69.1808 57.1111 69.1808 57.1111 69.1808C57.5159 68.2817 57.6778 67.6278 57.8396 67.219C58.0016 66.8104 58.0826 66.5651 58.0826 66.5651C58.1635 66.4017 58.0016 66.8921 58.0016 67.1373C57.9206 67.3008 57.9206 67.3825 57.9206 67.3825C58.0016 67.3825 58.0016 67.219 58.0826 66.8921C58.1635 66.7286 58.2444 66.4834 58.2444 66.2382C58.3254 66.1565 58.3254 66.0747 58.3254 65.993L58.4873 65.6661V65.5026C58.4873 65.4209 58.5683 65.339 58.5683 65.339V65.0938C58.5683 65.0121 58.5682 64.8486 58.6491 64.7669C58.6491 64.3582 58.7301 63.8678 58.7301 63.2955C58.6491 62.7234 58.6491 62.0695 58.5683 61.3338Z" fill="#E62987"/>
<path d="M146.899 70.8981V78.1729H143.581V60.7624H146.981V67.8737H153.294V60.7624H156.694V78.1729H153.294V70.8981H146.899Z" fill="#55565B"/>
<path d="M158.877 71.9602C158.877 69.835 159.363 68.2003 160.416 67.1376C161.468 65.9932 162.844 65.4211 164.705 65.4211C165.677 65.4211 166.567 65.5845 167.295 65.9115C168.024 66.2385 168.591 66.6472 169.077 67.2193C169.562 67.7915 169.886 68.4455 170.129 69.2628C170.372 70.0802 170.453 70.9794 170.453 71.9602C170.453 74.0854 169.967 75.7202 168.915 76.7829C167.943 77.9272 166.487 78.4994 164.624 78.4994C163.653 78.4994 162.763 78.3359 162.034 78.0089C161.305 77.682 160.739 77.2733 160.254 76.7011C159.767 76.1289 159.444 75.475 159.201 74.6577C159.04 73.8402 158.877 72.9411 158.877 71.9602ZM162.196 71.9602C162.196 72.5324 162.277 73.0229 162.358 73.5133C162.439 74.0037 162.601 74.4125 162.763 74.7394C162.925 75.0663 163.248 75.3933 163.572 75.5567C163.896 75.7202 164.301 75.802 164.705 75.802C165.515 75.802 166.163 75.475 166.567 74.9029C166.972 74.3307 167.214 73.3498 167.214 71.9602C167.214 70.8159 167.053 69.9167 166.648 69.1811C166.244 68.4455 165.596 68.1185 164.705 68.1185C163.896 68.1185 163.329 68.4455 162.844 69.0176C162.439 69.5898 162.196 70.5707 162.196 71.9602Z" fill="#55565B"/>
<path d="M171.423 65.7494H173.123V63.379L176.361 62.4799V65.7494H179.356V68.4468H176.361V73.2695C176.361 74.1686 176.442 74.7408 176.603 75.1495C176.765 75.5582 177.09 75.7217 177.575 75.7217C177.899 75.7217 178.223 75.7217 178.385 75.6399C178.627 75.5582 178.87 75.4765 179.194 75.313L179.761 77.7651C179.356 78.0104 178.789 78.1738 178.223 78.3373C177.656 78.5008 177.009 78.5825 176.442 78.5825C175.308 78.5825 174.5 78.2556 173.932 77.6834C173.366 77.1113 173.123 76.1303 173.123 74.8226V68.5286H171.423V65.7494Z" fill="#55565B"/>
<path d="M191.013 77.1098C190.528 77.5185 189.88 77.8454 188.99 78.0906C188.181 78.3359 187.209 78.4994 186.318 78.4994C184.295 78.4994 182.919 77.9272 181.948 76.7829C181.057 75.6385 180.572 74.0037 180.572 71.9602C180.572 69.7532 181.057 68.1185 182.11 67.0559C183.162 65.9932 184.619 65.4211 186.481 65.4211C187.128 65.4211 187.695 65.5028 188.261 65.6663C188.829 65.8297 189.395 66.075 189.799 66.4837C190.285 66.8924 190.609 67.3828 190.932 68.0367C191.176 68.6907 191.338 69.508 191.338 70.4072C191.338 70.7342 191.338 71.1428 191.257 71.5515C191.176 71.9602 191.176 72.369 191.094 72.7776H183.728C183.809 73.8402 184.053 74.5759 184.538 75.1481C185.023 75.6385 185.833 75.9654 186.885 75.9654C187.532 75.9654 188.181 75.8837 188.666 75.6385C189.233 75.3933 189.637 75.2298 189.88 74.9846L191.013 77.1098ZM186.481 67.955C185.671 67.955 185.023 68.2003 184.619 68.6907C184.214 69.1811 183.971 69.835 183.89 70.7342H188.423C188.504 69.835 188.342 69.1811 188.019 68.6907C187.695 68.2003 187.209 67.955 186.481 67.955Z" fill="#55565B"/>
<path d="M197.003 74.0042C197.003 74.5764 197.084 74.9851 197.247 75.3121C197.408 75.5573 197.651 75.7207 197.975 75.7207C198.136 75.7207 198.38 75.7207 198.542 75.639C198.704 75.639 198.946 75.5573 199.27 75.3938L199.594 77.9277C199.351 78.0912 198.946 78.1729 198.38 78.3364C197.813 78.4998 197.247 78.4999 196.68 78.4999C195.708 78.4999 195.061 78.2546 194.575 77.846C194.089 77.4373 193.847 76.7017 193.847 75.639V60.7624H197.084V74.0042H197.003Z" fill="#55565B"/>
</svg>
