<svg width="220" height="140" viewBox="0 0 220 140" fill="none" xmlns="http://www.w3.org/2000/svg">
<path fill-rule="evenodd" clip-rule="evenodd" d="M35.4453 80.4107C35.3278 80.4107 34.752 78.5037 34.1761 76.2556L33.945 75.3603V75.0231C33.945 74.9223 33.9215 74.7983 33.8941 74.6626C33.8628 74.4959 33.8275 74.3099 33.8275 74.1238C33.7687 73.8874 33.7374 73.6471 33.7061 73.3913C33.6787 73.1665 33.6512 72.93 33.5964 72.6664C33.4828 72.1044 33.3653 71.5424 33.2517 70.8719C33.2008 70.5695 33.1263 70.2672 33.048 69.9571C32.954 69.5734 32.8521 69.1742 32.7895 68.7362C32.6759 68.3447 32.5858 67.9532 32.4996 67.5579C32.4134 67.1664 32.3272 66.7749 32.2136 66.3796C31.9825 65.5966 31.7514 64.6974 31.6339 63.9106C31.5203 63.4609 31.4028 63.0113 31.2892 62.678L30.9445 61.3291H30.9405C30.827 60.8795 30.7134 60.4299 30.5958 60.0966L30.3647 59.4221C30.3647 59.1973 30.2511 58.8601 30.1336 58.6353C29.6714 57.6275 29.0956 56.7283 28.4022 56.1663C27.846 55.6275 27.2153 55.2283 26.6317 54.8601H26.6238C26.5572 54.8174 26.4906 54.7748 26.428 54.7322C26.3535 54.6895 26.283 54.643 26.2086 54.5965C25.766 54.3097 25.3233 54.0655 24.9081 53.8407C24.677 53.7167 24.4537 53.5926 24.25 53.4725C23.353 52.9996 22.5735 52.6352 21.9467 52.3445C21.6843 52.2244 21.4532 52.112 21.2456 52.0151C20.9635 51.8756 20.7402 51.7593 20.5679 51.6662C20.3094 51.5306 20.1605 51.4531 20.0939 51.4531L20.325 51.6779C20.372 51.7244 20.4386 51.8097 20.517 51.9104H20.5209V51.9143C20.5875 51.9957 20.6619 52.0887 20.7402 52.1779C20.7912 52.2399 20.846 52.298 20.9008 52.3523C21.132 52.6895 21.4767 53.0228 21.9389 53.3601C22.4011 53.6973 22.8633 54.1469 23.3256 54.5965C23.6311 54.8329 23.9053 55.0733 24.1991 55.3291C24.4576 55.5539 24.7318 55.7903 25.057 56.0539C25.6328 56.5035 26.2086 57.0655 26.6708 57.6275C27.1331 58.1857 27.4817 58.8601 27.7089 59.5345C27.7089 59.6353 27.7324 59.6896 27.7598 59.7516C27.7911 59.8252 27.8264 59.9105 27.8264 60.0966L27.94 60.7671L28.2886 62.116C28.2965 62.1625 28.3082 62.209 28.316 62.2555L28.3356 62.3563C28.4375 62.864 28.5511 63.4299 28.7509 63.9106C28.461 63.7012 28.1711 63.5346 27.9087 63.3834C27.8342 63.3408 27.7637 63.2981 27.6971 63.2594L27.6423 63.2284L27.5914 63.1935C27.5522 63.1702 27.5169 63.147 27.4817 63.1276L22.9769 60.9919C20.7872 59.9842 18.3625 57.1779 17.6692 54.9337L15.2445 47.6391C14.4375 45.391 15.7067 44.3832 17.9003 45.391L30.7134 51.3407C32.907 52.3523 34.8656 55.1585 34.8656 57.5151L35.6764 76.368C35.6294 77.1432 35.602 77.9146 35.5824 78.5735C35.5432 79.6394 35.5158 80.4107 35.4453 80.4107ZM60.2606 53.0228L58.1806 60.8795C57.3736 64.023 54.2595 67.8408 51.3725 69.523L47.2164 71.8796C46.7542 72.1044 46.2959 72.4416 45.7161 72.8913C45.7749 72.7789 45.8023 72.6936 45.8336 72.6083C45.8611 72.5269 45.8885 72.4416 45.9472 72.3292C46.4095 71.3176 46.7542 70.3098 47.1028 69.1858C47.2164 68.961 47.3339 68.6238 47.3339 68.4028L47.4475 68.178V68.0656L47.565 67.616C47.6199 67.5036 47.6512 67.3912 47.6786 67.2788C47.706 67.1664 47.7374 67.054 47.7961 66.9416L48.1408 66.2672C48.6031 65.3718 49.2964 64.4726 49.9858 63.6857C50.6792 62.7904 51.3725 62.0036 52.0658 61.2167C52.4928 60.7322 52.9315 60.2477 53.3624 59.771C54.3339 58.6973 55.2701 57.6586 55.9909 56.7283C56.5667 56.0539 57.0289 55.3795 57.3736 54.7089C57.3932 54.6702 57.4128 54.6353 57.4285 54.6004L57.4715 54.519C57.5303 54.4105 57.5851 54.3058 57.6439 54.2012C57.8868 53.7477 58.0983 53.3562 58.1806 53.0228C58.3177 52.7632 58.3725 52.4996 58.4195 52.2825C58.4508 52.1275 58.4822 51.9957 58.5292 51.9027V51.4531C58.5292 51.4531 58.4117 51.5655 58.2981 51.7903C58.1806 52.0151 57.9534 52.3523 57.6047 52.798C57.26 53.2477 56.9114 53.5849 56.3356 54.1469C55.8733 54.5965 55.2975 55.1585 54.6042 55.7167C53.9108 56.2787 53.2175 56.8407 52.4106 57.5151L49.9858 59.5345C49.7234 59.7904 49.4453 60.05 49.1632 60.3097C48.5874 60.8485 47.992 61.3989 47.4475 62.0036C46.6406 62.9028 45.8336 63.9106 45.2539 65.0346C45.2186 65.1005 45.1755 65.1819 45.1246 65.2633V65.2672C45.011 65.461 44.8739 65.6974 44.7917 65.93C44.7133 66.1664 44.5762 66.4028 44.4626 66.5966C44.4391 66.6354 44.4195 66.6703 44.3999 66.7052C44.3843 66.7323 44.3725 66.7555 44.3569 66.7827L44.3451 66.8021L44.3334 66.8292L44.2158 67.2788L44.1022 67.5036L43.9847 67.7284C43.9299 67.8408 43.8985 67.9804 43.8711 68.1199C43.8398 68.2594 43.8124 68.4028 43.7536 68.5114C43.7184 68.6315 43.6831 68.7478 43.6439 68.8641C43.6008 68.9997 43.5617 69.1354 43.5186 69.2672L43.5147 69.2788L43.5108 69.2866C43.2522 70.1122 43.0093 70.8835 42.8292 71.6548C42.4844 72.6664 42.2533 73.6742 42.0222 74.6858C41.9948 74.7983 41.9674 74.9068 41.94 75.0231C41.889 75.2169 41.842 75.4145 41.7911 75.6083C41.6383 76.2324 41.4856 76.8564 41.3289 77.3797C41.227 77.7324 41.1448 78.0851 41.0664 78.4301C40.9724 78.8487 40.8823 79.2557 40.7531 79.6239C40.7531 79.6781 40.7452 79.7247 40.7374 79.7634C40.7217 79.8254 40.7021 79.8797 40.6826 79.9262C40.6669 79.9572 40.6551 79.9844 40.6473 80.0115C40.6473 80.0192 40.6434 80.0309 40.6395 80.0386C40.6395 80.0502 40.6395 80.0619 40.6395 80.0735C40.5219 80.2983 40.5219 80.5231 40.5219 80.7479L40.1772 82.5425C40.1772 82.7673 40.0597 82.9921 40.0597 82.9921L39.0217 88.4922C38.4458 91.6356 37.7525 94.217 37.6389 94.3256C37.5214 94.3256 37.2903 91.7442 37.2903 88.4922L36.9456 66.6044C36.9456 63.3485 39.2528 59.4221 42.1397 57.9609L56.222 50.4414C59.4536 48.5344 61.185 49.8833 60.2606 53.0228ZM51.3725 76.1432V94.8876H54.9489V79.1743H59.7983C61.4122 79.1743 62.2231 79.9611 62.2231 81.5309C62.2231 83.4417 60.6053 84.6743 57.3736 85.2363L57.8358 88.3798C63.2611 87.593 65.917 85.2363 65.917 81.4185C65.917 77.9417 63.9545 76.1432 60.0295 76.1432H51.3725ZM68.2242 76.1432H76.9947C80.9197 76.1432 82.8822 77.8293 82.8822 81.1975C82.8822 83.4417 81.3819 85.3487 78.2639 86.8061L84.3825 94.8876H79.8817L73.9942 86.6937V85.1239C77.4569 84.5619 79.0747 83.2169 79.0747 81.3099C79.0747 79.9611 78.2639 79.2867 76.65 79.2867H71.8005V95H68.2242V76.1432ZM86.1139 76.1432H89.6942V94.8876H86.1139V76.1432ZM93.7328 94.8876V76.1432H97.4267L104.004 90.3992L110.353 76.1432H113.93V94.8876H110.698V81.8681L105.39 94.8876H102.39L97.078 81.8681V94.8876H93.7328ZM131.13 79.1743V76.1432H117.972V94.8876H131.361V91.8566H121.549V86.9185H130.668V83.8875H121.549V79.1743H131.13ZM138.4 94.8876V76.1432H146.481C150.175 76.1432 152.138 77.8293 152.138 81.3099C152.138 84.6743 149.133 86.8061 143.132 87.7054L142.901 86.4689C147.982 85.7984 150.52 84.1123 150.52 81.4185C150.52 78.7285 149.133 77.3797 146.25 77.3797H139.787V94.8876H138.4ZM151.676 94.8876H153.176L161.139 77.2673L165.754 87.4805H158.715L158.139 88.6046H166.216L169.103 94.8876H170.834L162.064 76.1432H160.333L151.676 94.8876ZM173.373 76.1432H181.336C184.799 76.1432 186.531 77.6045 186.531 80.6355C186.531 83.2169 184.686 85.0115 180.878 86.1356L187.337 94.8876H185.379L179.029 86.248V85.3487C182.954 84.7867 184.917 83.3293 184.917 80.8603C184.917 78.6161 183.648 77.4921 180.992 77.4921H174.642V95H173.373V76.1432ZM195.536 85.0115L204.651 76.1432H202.806L194.149 84.6743V85.4611L202.92 94.8876H205L195.536 85.0115ZM190.111 94.8876H191.494V76.1432H190.111V94.8876Z" fill="url(#paint0_linear_2668_9151)"/>
<defs>
<linearGradient id="paint0_linear_2668_9151" x1="15.5617" y1="75.244" x2="203.98" y2="64.1484" gradientUnits="userSpaceOnUse">
<stop stop-color="#A67F38"/>
<stop offset="0.411765" stop-color="#CDAF74"/>
<stop offset="0.701961" stop-color="#F1DBAA"/>
<stop offset="1" stop-color="#A67F38"/>
</linearGradient>
</defs>
</svg>
