<?xml version="1.0" encoding="UTF-8"?><svg id="Layer_1" xmlns="http://www.w3.org/2000/svg" width="22" height="22" viewBox="0 0 22 22"><defs><style>.cls-1{fill:#6e6e73;}</style></defs><path class="cls-1" d="M21.86,21.42l-.43.43c-.2.2-.53.2-.73,0l-5.55-5.55c-.1-.1-.15-.23-.15-.37v-.43c-3.63,3.35-9.28,3.12-12.63-.5C-.98,11.37-.75,5.72,2.87,2.37s9.28-3.12,12.63.5c3.16,3.42,3.16,8.7,0,12.13h.44c.14,0,.27.06.37.15l5.55,5.55c.18.21.18.52,0,.72ZM16.5,8.92c0-4.19-3.4-7.58-7.58-7.58-4.19,0-7.58,3.4-7.58,7.58,0,4.18,3.39,7.58,7.57,7.58h0c4.18.01,7.58-3.37,7.59-7.55,0-.01,0-.02,0-.03Z"/></svg>