<svg xmlns="http://www.w3.org/2000/svg" viewBox="0 0 73.67 13"><defs><style>.cls-1{fill:#ddd;}</style></defs><title>rs00</title><g id="Layer_2" data-name="Layer 2"><polygon class="cls-1" points="6.83 0 8.95 4.28 13.67 4.97 10.25 8.3 11.06 13 6.83 10.78 2.61 13 3.42 8.3 0 4.97 4.72 4.28 6.83 0"/><polygon class="cls-1" points="21.84 0 23.95 4.28 28.67 4.97 25.25 8.3 26.06 13 21.84 10.78 17.61 13 18.42 8.3 15 4.97 19.72 4.28 21.84 0"/><polygon class="cls-1" points="36.84 0 38.95 4.28 43.67 4.97 40.25 8.3 41.06 13 36.84 10.78 32.61 13 33.42 8.3 30 4.97 34.72 4.28 36.84 0"/><polygon class="cls-1" points="51.84 0 53.95 4.28 58.67 4.97 55.25 8.3 56.06 13 51.84 10.78 47.61 13 48.42 8.3 45 4.97 49.72 4.28 51.84 0"/><polygon class="cls-1" points="66.83 0 68.95 4.28 73.67 4.97 70.25 8.3 71.06 13 66.83 10.78 62.61 13 63.42 8.3 60 4.97 64.72 4.28 66.83 0"/></g></svg>