<svg width="120" height="120" viewBox="0 0 120 120" fill="none" xmlns="http://www.w3.org/2000/svg">
<path d="M120 60C120 93.1371 93.1371 120 60 120C26.8629 120 0 93.1371 0 60C0 26.8629 26.8629 0 60 0C93.1371 0 120 26.8629 120 60Z" fill="#1D1D1F"/>
<path d="M48.5482 63.8333L43.2815 75.5167H41.2982L42.6482 72.6333L38.7148 63.8333H40.7315L43.5648 70.6167L46.5648 63.8333H48.5482Z" fill="white"/>
<path d="M57.1201 72.6667H52.2201C51.5312 72.6667 50.9589 72.5722 50.5034 72.3833C50.0589 72.1944 49.7201 71.9 49.4867 71.5C49.2534 71.0889 49.0923 70.6333 49.0034 70.1333C48.9256 69.6333 48.8867 69 48.8867 68.2333C48.8867 66.5222 49.2089 65.3444 49.8534 64.7C50.5089 64.0555 51.6089 63.7333 53.1534 63.7333C54.5312 63.7333 55.5812 63.9889 56.3034 64.5C57.0367 65 57.4034 65.9111 57.4034 67.2333C57.4034 68.3444 56.9478 68.9 56.0367 68.9H50.9034C50.9034 69.6667 51.0256 70.2389 51.2701 70.6167C51.5256 70.9833 52.0367 71.1667 52.8034 71.1667H57.1201V72.6667ZM50.9034 67.4H54.9534C55.2423 67.4 55.3867 67.2278 55.3867 66.8833C55.3867 66.3389 55.1701 65.9278 54.7367 65.65C54.3145 65.3722 53.7867 65.2333 53.1534 65.2333C52.3312 65.2333 51.7478 65.4056 51.4034 65.75C51.0701 66.0833 50.9034 66.6333 50.9034 67.4Z" fill="white"/>
<path d="M59.0582 63.8333H64.0749C64.886 63.8333 65.5027 64.0722 65.9249 64.55C66.3471 65.0278 66.5582 65.6556 66.5582 66.4333V71.1667C66.5582 72.1667 66.0582 72.6667 65.0582 72.6667H60.6082C59.1415 72.6667 58.4082 71.75 58.4082 69.9167C58.4082 69.0611 58.5915 68.3889 58.9582 67.9C59.3249 67.4111 59.8749 67.1667 60.6082 67.1667H64.6082V66.6C64.6082 65.7556 64.1971 65.3333 63.3749 65.3333H59.0582V63.8333ZM64.6082 68.6667H61.3582C60.736 68.6667 60.4249 69.0833 60.4249 69.9167C60.4249 70.75 60.736 71.1667 61.3582 71.1667H64.1082C64.4415 71.1667 64.6082 71 64.6082 70.6667V68.6667Z" fill="white"/>
<path d="M68.0987 72.6667V67.1667C68.0987 66 68.3931 65.1556 68.982 64.6333C69.5709 64.1 70.4654 63.8333 71.6654 63.8333H72.982V65.3333H72.1654C71.3987 65.3333 70.8543 65.5222 70.532 65.9C70.2098 66.2778 70.0487 66.8722 70.0487 67.6833V72.6667H68.0987Z" fill="white"/>
<path d="M73.5298 72.6667V71.1667H78.4965C78.7187 71.1667 78.9076 71.1 79.0632 70.9667C79.2298 70.8333 79.3132 70.6333 79.3132 70.3667C79.3132 70.1889 79.2798 70.0389 79.2132 69.9167C79.1465 69.7833 79.0354 69.6778 78.8798 69.6C78.7243 69.5111 78.5909 69.45 78.4798 69.4167C78.3687 69.3722 78.1909 69.3222 77.9465 69.2667C77.702 69.2 77.5409 69.1556 77.4632 69.1333L75.7632 68.6667C74.852 68.4222 74.2298 68.1056 73.8965 67.7167C73.5743 67.3167 73.4132 66.7778 73.4132 66.1C73.4132 65.3 73.6132 64.7222 74.0132 64.3667C74.4132 64.0111 75.0576 63.8333 75.9465 63.8333H80.9298V65.3333H76.2465C75.9132 65.3333 75.6743 65.3889 75.5298 65.5C75.3854 65.6111 75.3132 65.8222 75.3132 66.1333C75.3132 66.3667 75.3909 66.5667 75.5465 66.7333C75.7132 66.8889 75.8687 66.9944 76.0132 67.05C76.1687 67.1056 76.3965 67.1778 76.6965 67.2667L78.5965 67.8C78.9854 67.9111 79.2854 68.0056 79.4965 68.0833C79.7076 68.15 79.9465 68.2556 80.2132 68.4C80.4909 68.5333 80.6965 68.6833 80.8298 68.85C80.9743 69.0167 81.0965 69.2333 81.1965 69.5C81.2965 69.7667 81.3465 70.0722 81.3465 70.4167C81.3465 71.15 81.1854 71.7111 80.8632 72.1C80.5409 72.4778 79.9798 72.6667 79.1798 72.6667H73.5298Z" fill="white"/>
<path d="M22.0709 77.1667H27.0876C27.8987 77.1667 28.5153 77.4056 28.9376 77.8833C29.3598 78.3611 29.5709 78.9889 29.5709 79.7667V84.5C29.5709 85.5 29.0709 86 28.0709 86H23.6209C22.1542 86 21.4209 85.0833 21.4209 83.25C21.4209 82.3944 21.6042 81.7222 21.9709 81.2333C22.3376 80.7444 22.8876 80.5 23.6209 80.5H27.6209V79.9333C27.6209 79.0889 27.2098 78.6667 26.3876 78.6667H22.0709V77.1667ZM27.6209 82H24.3709C23.7487 82 23.4376 82.4167 23.4376 83.25C23.4376 84.0833 23.7487 84.5 24.3709 84.5H27.1209C27.4542 84.5 27.6209 84.3333 27.6209 84V82Z" fill="white"/>
<path d="M30.8947 86V84.5H35.8614C36.0836 84.5 36.2725 84.4333 36.4281 84.3C36.5947 84.1667 36.6781 83.9667 36.6781 83.7C36.6781 83.5222 36.6447 83.3722 36.5781 83.25C36.5114 83.1167 36.4003 83.0111 36.2447 82.9333C36.0892 82.8444 35.9558 82.7833 35.8447 82.75C35.7336 82.7056 35.5558 82.6556 35.3114 82.6C35.0669 82.5333 34.9058 82.4889 34.8281 82.4667L33.1281 82C32.2169 81.7556 31.5947 81.4389 31.2614 81.05C30.9392 80.65 30.7781 80.1111 30.7781 79.4333C30.7781 78.6333 30.9781 78.0555 31.3781 77.7C31.7781 77.3444 32.4225 77.1667 33.3114 77.1667H38.2947V78.6667H33.6114C33.2781 78.6667 33.0392 78.7222 32.8947 78.8333C32.7503 78.9444 32.6781 79.1556 32.6781 79.4667C32.6781 79.7 32.7558 79.9 32.9114 80.0667C33.0781 80.2222 33.2336 80.3278 33.3781 80.3833C33.5336 80.4389 33.7614 80.5111 34.0614 80.6L35.9614 81.1333C36.3503 81.2444 36.6503 81.3389 36.8614 81.4167C37.0725 81.4833 37.3114 81.5889 37.5781 81.7333C37.8558 81.8667 38.0614 82.0167 38.1947 82.1833C38.3392 82.35 38.4614 82.5667 38.5614 82.8333C38.6614 83.1 38.7114 83.4056 38.7114 83.75C38.7114 84.4833 38.5503 85.0444 38.2281 85.4333C37.9058 85.8111 37.3447 86 36.5447 86H30.8947Z" fill="white"/>
<path d="M39.7001 86V84.5H44.6667C44.889 84.5 45.0778 84.4333 45.2334 84.3C45.4001 84.1667 45.4834 83.9667 45.4834 83.7C45.4834 83.5222 45.4501 83.3722 45.3834 83.25C45.3167 83.1167 45.2056 83.0111 45.0501 82.9333C44.8945 82.8444 44.7612 82.7833 44.6501 82.75C44.539 82.7056 44.3612 82.6556 44.1167 82.6C43.8723 82.5333 43.7112 82.4889 43.6334 82.4667L41.9334 82C41.0223 81.7556 40.4001 81.4389 40.0667 81.05C39.7445 80.65 39.5834 80.1111 39.5834 79.4333C39.5834 78.6333 39.7834 78.0555 40.1834 77.7C40.5834 77.3444 41.2278 77.1667 42.1167 77.1667H47.1001V78.6667H42.4167C42.0834 78.6667 41.8445 78.7222 41.7001 78.8333C41.5556 78.9444 41.4834 79.1556 41.4834 79.4667C41.4834 79.7 41.5612 79.9 41.7167 80.0667C41.8834 80.2222 42.039 80.3278 42.1834 80.3833C42.339 80.4389 42.5667 80.5111 42.8667 80.6L44.7667 81.1333C45.1556 81.2444 45.4556 81.3389 45.6667 81.4167C45.8778 81.4833 46.1167 81.5889 46.3834 81.7333C46.6612 81.8667 46.8667 82.0167 47.0001 82.1833C47.1445 82.35 47.2667 82.5667 47.3667 82.8333C47.4667 83.1 47.5167 83.4056 47.5167 83.75C47.5167 84.4833 47.3556 85.0444 47.0334 85.4333C46.7112 85.8111 46.1501 86 45.3501 86H39.7001Z" fill="white"/>
<path d="M56.8887 77.1667V84.5C56.8887 85.5 56.3887 86 55.3887 86H52.1554C51.0665 86 50.2221 85.7722 49.6221 85.3167C49.0221 84.8611 48.7221 84.0833 48.7221 82.9833V77.1667H50.6721V82.4667C50.6721 83.1556 50.8165 83.6667 51.1054 84C51.3943 84.3333 51.8665 84.5 52.5221 84.5H54.4387C54.7721 84.5 54.9387 84.3333 54.9387 84V77.1667H56.8887Z" fill="white"/>
<path d="M58.4226 86V80.5C58.4226 79.3333 58.717 78.4889 59.3059 77.9667C59.8948 77.4333 60.7893 77.1667 61.9893 77.1667H63.3059V78.6667H62.4893C61.7226 78.6667 61.1781 78.8556 60.8559 79.2333C60.5337 79.6111 60.3726 80.2056 60.3726 81.0167V86H58.4226Z" fill="white"/>
<path d="M64.1282 77.1667H69.1449C69.956 77.1667 70.5726 77.4056 70.9949 77.8833C71.4171 78.3611 71.6282 78.9889 71.6282 79.7667V84.5C71.6282 85.5 71.1282 86 70.1282 86H65.6782C64.2115 86 63.4782 85.0833 63.4782 83.25C63.4782 82.3944 63.6615 81.7222 64.0282 81.2333C64.3949 80.7444 64.9449 80.5 65.6782 80.5H69.6782V79.9333C69.6782 79.0889 69.2671 78.6667 68.4449 78.6667H64.1282V77.1667ZM69.6782 82H66.4282C65.806 82 65.4949 82.4167 65.4949 83.25C65.4949 84.0833 65.806 84.5 66.4282 84.5H69.1782C69.5115 84.5 69.6782 84.3333 69.6782 84V82Z" fill="white"/>
<path d="M73.1687 86V78.6667C73.1687 77.6667 73.6687 77.1667 74.6687 77.1667H77.7687C78.8576 77.1667 79.702 77.3944 80.302 77.85C80.902 78.3056 81.202 79.0833 81.202 80.1833V86H79.252V80.7C79.252 80.0111 79.1076 79.5 78.8187 79.1667C78.5298 78.8333 78.0576 78.6667 77.402 78.6667H75.6187C75.2854 78.6667 75.1187 78.8333 75.1187 79.1667V86H73.1687Z" fill="white"/>
<path d="M89.9557 78.6667H86.739C86.339 78.6667 86.0001 78.7167 85.7223 78.8167C85.4446 78.9167 85.2223 79.0444 85.0557 79.2C84.9001 79.3556 84.7779 79.5667 84.689 79.8333C84.6001 80.1 84.5446 80.3611 84.5223 80.6167C84.5001 80.8722 84.489 81.1889 84.489 81.5667C84.489 82.0444 84.5112 82.4389 84.5557 82.75C84.6001 83.05 84.6946 83.35 84.839 83.65C84.9834 83.9389 85.2112 84.1556 85.5223 84.3C85.8446 84.4333 86.2501 84.5 86.739 84.5H90.1557V86H86.2557C84.8446 86 83.8612 85.6278 83.3057 84.8833C82.7501 84.1278 82.4723 83.0222 82.4723 81.5667C82.4723 80.1222 82.7501 79.0278 83.3057 78.2833C83.8612 77.5389 84.8446 77.1667 86.2557 77.1667H89.9557V78.6667Z" fill="white"/>
<path d="M98.9576 86H94.0576C93.3687 86 92.7965 85.9056 92.341 85.7167C91.8965 85.5278 91.5576 85.2333 91.3243 84.8333C91.091 84.4222 90.9298 83.9667 90.841 83.4667C90.7632 82.9667 90.7243 82.3333 90.7243 81.5667C90.7243 79.8556 91.0465 78.6778 91.6909 78.0333C92.3465 77.3889 93.4465 77.0667 94.991 77.0667C96.3687 77.0667 97.4187 77.3222 98.141 77.8333C98.8743 78.3333 99.241 79.2444 99.241 80.5667C99.241 81.6778 98.7854 82.2333 97.8743 82.2333H92.741C92.741 83 92.8632 83.5722 93.1076 83.95C93.3632 84.3167 93.8743 84.5 94.641 84.5H98.9576V86ZM92.741 80.7333H96.791C97.0798 80.7333 97.2243 80.5611 97.2243 80.2167C97.2243 79.6722 97.0076 79.2611 96.5743 78.9833C96.1521 78.7056 95.6243 78.5667 94.991 78.5667C94.1687 78.5667 93.5854 78.7389 93.241 79.0833C92.9076 79.4167 92.741 79.9667 92.741 80.7333Z" fill="white"/>
<path d="M38.8234 90.5H41.9067C42.9067 90.5 43.4067 91 43.4067 92V102.167H41.4567V99.3333H38.8234C37.49 99.3333 36.5512 98.9556 36.0067 98.2C35.4734 97.4444 35.2067 96.3444 35.2067 94.9C35.2067 93.4556 35.4734 92.3611 36.0067 91.6167C36.54 90.8722 37.4789 90.5 38.8234 90.5ZM41.4567 97.8333V92.4333C41.4567 92.1444 41.29 92 40.9567 92H39.3067C38.8512 92 38.4789 92.0667 38.19 92.2C37.9012 92.3333 37.69 92.5444 37.5567 92.8333C37.4234 93.1222 37.3345 93.4222 37.29 93.7333C37.2456 94.0333 37.2234 94.4222 37.2234 94.9C37.2234 95.3778 37.2456 95.7722 37.29 96.0833C37.3345 96.3833 37.4234 96.6833 37.5567 96.9833C37.69 97.2722 37.9012 97.4889 38.19 97.6333C38.4789 97.7667 38.8512 97.8333 39.3067 97.8333H41.4567Z" fill="white"/>
<path d="M53.1127 90.5V97.8333C53.1127 98.8333 52.6127 99.3333 51.6127 99.3333H48.3794C47.2905 99.3333 46.446 99.1055 45.846 98.65C45.246 98.1944 44.946 97.4167 44.946 96.3167V90.5H46.896V95.8C46.896 96.4889 47.0405 97 47.3294 97.3333C47.6182 97.6667 48.0905 97.8333 48.746 97.8333H50.6627C50.996 97.8333 51.1627 97.6667 51.1627 97.3333V90.5H53.1127Z" fill="white"/>
<path d="M55.0299 90.5H60.0466C60.8577 90.5 61.4743 90.7389 61.8966 91.2167C62.3188 91.6944 62.5299 92.3222 62.5299 93.1V97.8333C62.5299 98.8333 62.0299 99.3333 61.0299 99.3333H56.5799C55.1132 99.3333 54.3799 98.4167 54.3799 96.5833C54.3799 95.7278 54.5632 95.0556 54.9299 94.5667C55.2966 94.0778 55.8465 93.8333 56.5799 93.8333H60.5799V93.2667C60.5799 92.4222 60.1688 92 59.3465 92H55.0299V90.5ZM60.5799 95.3333H57.3299C56.7077 95.3333 56.3966 95.75 56.3966 96.5833C56.3966 97.4167 56.7077 97.8333 57.3299 97.8333H60.0799C60.4132 97.8333 60.5799 97.6667 60.5799 97.3333V95.3333Z" fill="white"/>
<path d="M64.0704 99.3333V87.6667H66.0204V99.3333H64.0704Z" fill="white"/>
<path d="M67.5535 99.3333V90.5H69.5034V99.3333H67.5535ZM69.5034 89.3333H67.5535V87.5333H69.5034V89.3333Z" fill="white"/>
<path d="M75.9532 99.3333H74.7365C73.681 99.3333 72.8754 99.1111 72.3199 98.6667C71.7643 98.2222 71.4865 97.4833 71.4865 96.45V92H70.2699V90.5H71.4865V87.6667H73.4365V90.5H75.9532V92H73.4365V96.05C73.4365 96.6944 73.6032 97.1556 73.9365 97.4333C74.2699 97.7 74.781 97.8333 75.4699 97.8333H75.9532V99.3333Z" fill="white"/>
<path d="M86.1214 90.5L80.8548 102.183H78.8714L80.2214 99.3L76.2881 90.5H78.3048L81.1381 97.2833L84.1381 90.5H86.1214Z" fill="white"/>
<path d="M57.9688 59.3333H30.3385V52.5625L39.6354 43.1615C41.5625 41.1476 43.0556 39.533 44.1146 38.3177C45.191 37.1024 45.9462 36.0694 46.3802 35.2188C46.8142 34.3681 47.0312 33.4826 47.0312 32.5625C47.0312 31.434 46.6667 30.6181 45.9375 30.1146C45.2083 29.6111 44.349 29.3594 43.3594 29.3594C42.1615 29.3594 40.9462 29.7066 39.7135 30.401C38.4983 31.0781 37.1181 32.0851 35.5729 33.4219L29.9219 26.8073C31.0677 25.783 32.283 24.8108 33.5677 23.8906C34.8524 22.9531 36.3715 22.1892 38.125 21.599C39.8785 21.0087 42.0139 20.7135 44.5312 20.7135C47.1181 20.7135 49.3576 21.1649 51.25 22.0677C53.1597 22.9705 54.6354 24.2118 55.6771 25.7917C56.7188 27.3542 57.2396 29.1337 57.2396 31.1302C57.2396 33.3351 56.8316 35.3056 56.0156 37.0417C55.217 38.7604 54.0104 40.4878 52.3958 42.224C50.7812 43.9427 48.7674 45.8958 46.3542 48.0833L43.5677 50.5833V50.8438H57.9688V59.3333Z" fill="white"/>
<path d="M89.375 40.349C89.375 43.4045 89.1319 46.1389 88.6458 48.5521C88.1597 50.9479 87.3785 52.9878 86.3021 54.6719C85.2431 56.3559 83.8368 57.6406 82.0833 58.526C80.3299 59.4115 78.1771 59.8542 75.625 59.8542C72.4479 59.8542 69.8438 59.0816 67.8125 57.5365C65.7812 55.974 64.2795 53.7431 63.3073 50.8438C62.3524 47.9271 61.875 44.4288 61.875 40.349C61.875 36.2344 62.309 32.7188 63.1771 29.8021C64.0625 26.8681 65.5122 24.6198 67.526 23.0573C69.5399 21.4948 72.2396 20.7135 75.625 20.7135C78.8021 20.7135 81.3976 21.4948 83.4115 23.0573C85.4427 24.6024 86.9445 26.842 87.9167 29.776C88.8889 32.6927 89.375 36.217 89.375 40.349ZM72.1094 40.349C72.1094 42.8316 72.1962 44.9149 72.3698 46.599C72.5608 48.283 72.908 49.5503 73.4115 50.401C73.9323 51.2344 74.6701 51.651 75.625 51.651C76.5799 51.651 77.309 51.2344 77.8125 50.401C78.316 49.5503 78.6632 48.2917 78.8542 46.625C79.0451 44.941 79.1406 42.849 79.1406 40.349C79.1406 37.8316 79.0451 35.7309 78.8542 34.0469C78.6632 32.3628 78.316 31.0955 77.8125 30.2448C77.309 29.3767 76.5799 28.9427 75.625 28.9427C74.6701 28.9427 73.9323 29.3767 73.4115 30.2448C72.908 31.0955 72.5608 32.3628 72.3698 34.0469C72.1962 35.7309 72.1094 37.8316 72.1094 40.349Z" fill="white"/>
</svg>
