<svg width="120" height="120" viewBox="0 0 120 120" fill="none" xmlns="http://www.w3.org/2000/svg">
<path d="M120 60C120 93.1371 93.1371 120 60 120C26.8629 120 0 93.1371 0 60C0 26.8629 26.8629 0 60 0C93.1371 0 120 26.8629 120 60Z" fill="#1D1D1F"/>
<path d="M48.5482 63.8333L43.2815 75.5167H41.2982L42.6482 72.6333L38.7148 63.8333H40.7315L43.5648 70.6167L46.5648 63.8333H48.5482Z" fill="white"/>
<path d="M57.12 72.6667H52.2201C51.5312 72.6667 50.9589 72.5722 50.5034 72.3833C50.0589 72.1944 49.7201 71.9 49.4867 71.5C49.2534 71.0889 49.0923 70.6333 49.0034 70.1333C48.9256 69.6333 48.8867 69 48.8867 68.2333C48.8867 66.5222 49.2089 65.3444 49.8534 64.7C50.5089 64.0556 51.6089 63.7333 53.1534 63.7333C54.5312 63.7333 55.5812 63.9889 56.3034 64.5C57.0367 65 57.4034 65.9111 57.4034 67.2333C57.4034 68.3444 56.9478 68.9 56.0367 68.9H50.9034C50.9034 69.6667 51.0256 70.2389 51.2701 70.6167C51.5256 70.9833 52.0367 71.1667 52.8034 71.1667H57.12V72.6667ZM50.9034 67.4H54.9534C55.2423 67.4 55.3867 67.2278 55.3867 66.8833C55.3867 66.3389 55.1701 65.9278 54.7367 65.65C54.3145 65.3722 53.7867 65.2333 53.1534 65.2333C52.3312 65.2333 51.7478 65.4056 51.4034 65.75C51.0701 66.0833 50.9034 66.6333 50.9034 67.4Z" fill="white"/>
<path d="M59.0582 63.8333H64.0749C64.886 63.8333 65.5026 64.0722 65.9249 64.55C66.3471 65.0278 66.5582 65.6556 66.5582 66.4333V71.1667C66.5582 72.1667 66.0582 72.6667 65.0582 72.6667H60.6082C59.1415 72.6667 58.4082 71.75 58.4082 69.9167C58.4082 69.0611 58.5915 68.3889 58.9582 67.9C59.3249 67.4111 59.8749 67.1667 60.6082 67.1667H64.6082V66.6C64.6082 65.7556 64.1971 65.3333 63.3749 65.3333H59.0582V63.8333ZM64.6082 68.6667H61.3582C60.736 68.6667 60.4249 69.0833 60.4249 69.9167C60.4249 70.75 60.736 71.1667 61.3582 71.1667H64.1082C64.4415 71.1667 64.6082 71 64.6082 70.6667V68.6667Z" fill="white"/>
<path d="M68.0987 72.6667V67.1667C68.0987 66 68.3931 65.1556 68.982 64.6333C69.5709 64.1 70.4654 63.8333 71.6654 63.8333H72.982V65.3333H72.1654C71.3987 65.3333 70.8543 65.5222 70.532 65.9C70.2098 66.2778 70.0487 66.8722 70.0487 67.6833V72.6667H68.0987Z" fill="white"/>
<path d="M73.5298 72.6667V71.1667H78.4965C78.7187 71.1667 78.9076 71.1 79.0631 70.9667C79.2298 70.8333 79.3131 70.6333 79.3131 70.3667C79.3131 70.1889 79.2798 70.0389 79.2132 69.9167C79.1465 69.7833 79.0354 69.6778 78.8798 69.6C78.7243 69.5111 78.5909 69.45 78.4798 69.4167C78.3687 69.3722 78.1909 69.3222 77.9465 69.2667C77.702 69.2 77.5409 69.1556 77.4632 69.1333L75.7632 68.6667C74.852 68.4222 74.2298 68.1056 73.8965 67.7167C73.5743 67.3167 73.4131 66.7778 73.4131 66.1C73.4131 65.3 73.6132 64.7222 74.0132 64.3667C74.4132 64.0111 75.0576 63.8333 75.9465 63.8333H80.9298V65.3333H76.2465C75.9132 65.3333 75.6743 65.3889 75.5298 65.5C75.3854 65.6111 75.3131 65.8222 75.3131 66.1333C75.3131 66.3667 75.3909 66.5667 75.5465 66.7333C75.7131 66.8889 75.8687 66.9944 76.0132 67.05C76.1687 67.1056 76.3965 67.1778 76.6965 67.2667L78.5965 67.8C78.9854 67.9111 79.2854 68.0056 79.4965 68.0833C79.7076 68.15 79.9465 68.2556 80.2132 68.4C80.4909 68.5333 80.6965 68.6833 80.8298 68.85C80.9743 69.0167 81.0965 69.2333 81.1965 69.5C81.2965 69.7667 81.3465 70.0722 81.3465 70.4167C81.3465 71.15 81.1854 71.7111 80.8631 72.1C80.5409 72.4778 79.9798 72.6667 79.1798 72.6667H73.5298Z" fill="white"/>
<path d="M28.3673 86H25.534C24.2007 86 23.2618 85.6222 22.7173 84.8667C22.184 84.1111 21.9173 83.0111 21.9173 81.5667C21.9173 80.1222 22.184 79.0278 22.7173 78.2833C23.2507 77.5389 24.1895 77.1667 25.534 77.1667H28.8173C29.8173 77.1667 30.3173 77.6667 30.3173 78.6667V85.3167C30.3173 86.5722 30.0118 87.4833 29.4007 88.05C28.8007 88.6278 27.834 88.9167 26.5007 88.9167H22.534V87.4167H26.5007C27.6118 87.4167 28.234 86.9444 28.3673 86ZM27.8673 78.6667H26.0173C25.5618 78.6667 25.1895 78.7333 24.9007 78.8667C24.6118 79 24.4007 79.2111 24.2673 79.5C24.134 79.7889 24.0451 80.0889 24.0007 80.4C23.9562 80.7 23.934 81.0889 23.934 81.5667C23.934 82.0444 23.9562 82.4389 24.0007 82.75C24.0451 83.05 24.134 83.35 24.2673 83.65C24.4007 83.9389 24.6118 84.1556 24.9007 84.3C25.1895 84.4333 25.5618 84.5 26.0173 84.5H28.3673V79.1667C28.3673 78.8333 28.2007 78.6667 27.8673 78.6667Z" fill="white"/>
<path d="M40.0186 77.1667V84.5C40.0186 85.5 39.5186 86 38.5186 86H35.2853C34.1964 86 33.352 85.7722 32.752 85.3167C32.152 84.8611 31.852 84.0833 31.852 82.9833V77.1667H33.802V82.4667C33.802 83.1556 33.9464 83.6667 34.2353 84C34.5242 84.3333 34.9964 84.5 35.652 84.5H37.5686C37.902 84.5 38.0686 84.3333 38.0686 84V77.1667H40.0186Z" fill="white"/>
<path d="M41.9358 77.1667H46.9525C47.7636 77.1667 48.3803 77.4056 48.8025 77.8833C49.2247 78.3611 49.4358 78.9889 49.4358 79.7667V84.5C49.4358 85.5 48.9358 86 47.9358 86H43.4858C42.0191 86 41.2858 85.0833 41.2858 83.25C41.2858 82.3944 41.4691 81.7222 41.8358 81.2333C42.2025 80.7444 42.7525 80.5 43.4858 80.5H47.4858V79.9333C47.4858 79.0889 47.0747 78.6667 46.2525 78.6667H41.9358V77.1667ZM47.4858 82H44.2358C43.6136 82 43.3025 82.4167 43.3025 83.25C43.3025 84.0833 43.6136 84.5 44.2358 84.5H46.9858C47.3191 84.5 47.4858 84.3333 47.4858 84V82Z" fill="white"/>
<path d="M50.9763 86V80.5C50.9763 79.3333 51.2707 78.4889 51.8596 77.9667C52.4485 77.4333 53.343 77.1667 54.543 77.1667H55.8596V78.6667H55.043C54.2763 78.6667 53.7319 78.8556 53.4096 79.2333C53.0874 79.6111 52.9263 80.2056 52.9263 81.0167V86H50.9763Z" fill="white"/>
<path d="M56.6819 77.1667H61.6986C62.5097 77.1667 63.1263 77.4056 63.5486 77.8833C63.9708 78.3611 64.1819 78.9889 64.1819 79.7667V84.5C64.1819 85.5 63.6819 86 62.6819 86H58.2319C56.7652 86 56.0319 85.0833 56.0319 83.25C56.0319 82.3944 56.2152 81.7222 56.5819 81.2333C56.9486 80.7444 57.4986 80.5 58.2319 80.5H62.2319V79.9333C62.2319 79.0889 61.8208 78.6667 60.9986 78.6667H56.6819V77.1667ZM62.2319 82H58.9819C58.3597 82 58.0486 82.4167 58.0486 83.25C58.0486 84.0833 58.3597 84.5 58.9819 84.5H61.7319C62.0652 84.5 62.2319 84.3333 62.2319 84V82Z" fill="white"/>
<path d="M65.7224 86V78.6667C65.7224 77.6667 66.2224 77.1667 67.2224 77.1667H70.3224C71.4113 77.1667 72.2557 77.3944 72.8557 77.85C73.4557 78.3056 73.7557 79.0833 73.7557 80.1833V86H71.8057V80.7C71.8057 80.0111 71.6613 79.5 71.3724 79.1667C71.0835 78.8333 70.6113 78.6667 69.9557 78.6667H68.1724C67.8391 78.6667 67.6724 78.8333 67.6724 79.1667V86H65.7224Z" fill="white"/>
<path d="M80.2094 86H78.9927C77.9371 86 77.1316 85.7778 76.576 85.3333C76.0205 84.8889 75.7427 84.15 75.7427 83.1167V78.6667H74.526V77.1667H75.7427V74.3333H77.6927V77.1667H80.2094V78.6667H77.6927V82.7167C77.6927 83.3611 77.8594 83.8222 78.1927 84.1C78.526 84.3667 79.0372 84.5 79.726 84.5H80.2094V86Z" fill="white"/>
<path d="M88.9397 86H84.0397C83.3508 86 82.7786 85.9056 82.323 85.7167C81.8786 85.5278 81.5397 85.2333 81.3064 84.8333C81.073 84.4222 80.9119 83.9667 80.823 83.4667C80.7453 82.9667 80.7064 82.3333 80.7064 81.5667C80.7064 79.8556 81.0286 78.6778 81.673 78.0333C82.3286 77.3889 83.4286 77.0667 84.973 77.0667C86.3508 77.0667 87.4008 77.3222 88.123 77.8333C88.8564 78.3333 89.223 79.2444 89.223 80.5667C89.223 81.6778 88.7675 82.2333 87.8564 82.2333H82.723C82.723 83 82.8453 83.5722 83.0897 83.95C83.3453 84.3167 83.8564 84.5 84.623 84.5H88.9397V86ZM82.723 80.7333H86.773C87.0619 80.7333 87.2064 80.5611 87.2064 80.2167C87.2064 79.6722 86.9897 79.2611 86.5564 78.9833C86.1342 78.7056 85.6064 78.5667 84.973 78.5667C84.1508 78.5667 83.5675 78.7389 83.223 79.0833C82.8897 79.4167 82.723 79.9667 82.723 80.7333Z" fill="white"/>
<path d="M98.4612 86H93.5612C92.8723 86 92.3001 85.9056 91.8445 85.7167C91.4001 85.5278 91.0612 85.2333 90.8279 84.8333C90.5945 84.4222 90.4334 83.9667 90.3445 83.4667C90.2668 82.9667 90.2279 82.3333 90.2279 81.5667C90.2279 79.8556 90.5501 78.6778 91.1945 78.0333C91.8501 77.3889 92.9501 77.0667 94.4945 77.0667C95.8723 77.0667 96.9223 77.3222 97.6445 77.8333C98.3779 78.3333 98.7445 79.2444 98.7445 80.5667C98.7445 81.6778 98.289 82.2333 97.3779 82.2333H92.2445C92.2445 83 92.3668 83.5722 92.6112 83.95C92.8668 84.3167 93.3779 84.5 94.1445 84.5H98.4612V86ZM92.2445 80.7333H96.2945C96.5834 80.7333 96.7279 80.5611 96.7279 80.2167C96.7279 79.6722 96.5112 79.2611 96.0779 78.9833C95.6556 78.7056 95.1279 78.5667 94.4945 78.5667C93.6723 78.5667 93.089 78.7389 92.7445 79.0833C92.4112 79.4167 92.2445 79.9667 92.2445 80.7333Z" fill="white"/>
<path d="M38.8234 90.5H41.9067C42.9067 90.5 43.4067 91 43.4067 92V102.167H41.4567V99.3333H38.8234C37.49 99.3333 36.5512 98.9556 36.0067 98.2C35.4734 97.4444 35.2067 96.3444 35.2067 94.9C35.2067 93.4555 35.4734 92.3611 36.0067 91.6167C36.54 90.8722 37.4789 90.5 38.8234 90.5ZM41.4567 97.8333V92.4333C41.4567 92.1444 41.29 92 40.9567 92H39.3067C38.8512 92 38.4789 92.0667 38.19 92.2C37.9012 92.3333 37.69 92.5444 37.5567 92.8333C37.4234 93.1222 37.3345 93.4222 37.29 93.7333C37.2456 94.0333 37.2234 94.4222 37.2234 94.9C37.2234 95.3778 37.2456 95.7722 37.29 96.0833C37.3345 96.3833 37.4234 96.6833 37.5567 96.9833C37.69 97.2722 37.9012 97.4889 38.19 97.6333C38.4789 97.7667 38.8512 97.8333 39.3067 97.8333H41.4567Z" fill="white"/>
<path d="M53.1127 90.5V97.8333C53.1127 98.8333 52.6127 99.3333 51.6127 99.3333H48.3794C47.2905 99.3333 46.446 99.1055 45.846 98.65C45.246 98.1944 44.946 97.4167 44.946 96.3167V90.5H46.896V95.8C46.896 96.4889 47.0405 97 47.3294 97.3333C47.6182 97.6667 48.0905 97.8333 48.746 97.8333H50.6627C50.996 97.8333 51.1627 97.6667 51.1627 97.3333V90.5H53.1127Z" fill="white"/>
<path d="M55.0299 90.5H60.0465C60.8577 90.5 61.4743 90.7389 61.8965 91.2167C62.3188 91.6944 62.5299 92.3222 62.5299 93.1V97.8333C62.5299 98.8333 62.0299 99.3333 61.0299 99.3333H56.5799C55.1132 99.3333 54.3799 98.4167 54.3799 96.5833C54.3799 95.7278 54.5632 95.0556 54.9299 94.5667C55.2965 94.0778 55.8465 93.8333 56.5799 93.8333H60.5799V93.2667C60.5799 92.4222 60.1688 92 59.3465 92H55.0299V90.5ZM60.5799 95.3333H57.3299C56.7077 95.3333 56.3965 95.75 56.3965 96.5833C56.3965 97.4167 56.7077 97.8333 57.3299 97.8333H60.0799C60.4132 97.8333 60.5799 97.6667 60.5799 97.3333V95.3333Z" fill="white"/>
<path d="M64.0704 99.3333V87.6667H66.0204V99.3333H64.0704Z" fill="white"/>
<path d="M67.5535 99.3333V90.5H69.5034V99.3333H67.5535ZM69.5034 89.3333H67.5535V87.5333H69.5034V89.3333Z" fill="white"/>
<path d="M75.9532 99.3333H74.7365C73.681 99.3333 72.8754 99.1111 72.3199 98.6667C71.7643 98.2222 71.4865 97.4833 71.4865 96.45V92H70.2699V90.5H71.4865V87.6667H73.4365V90.5H75.9532V92H73.4365V96.05C73.4365 96.6944 73.6032 97.1556 73.9365 97.4333C74.2699 97.7 74.781 97.8333 75.4699 97.8333H75.9532V99.3333Z" fill="white"/>
<path d="M86.1214 90.5L80.8548 102.183H78.8714L80.2214 99.3L76.2881 90.5H78.3047L81.1381 97.2833L84.1381 90.5H86.1214Z" fill="white"/>
<path d="M62 34.3854C64.1181 34.3854 66.0451 34.8628 67.7812 35.8177C69.5174 36.7726 70.9062 38.1615 71.9479 39.9844C72.9896 41.8073 73.5104 44.0295 73.5104 46.651C73.5104 49.4809 72.9375 51.8854 71.7917 53.8646C70.6632 55.8264 68.9531 57.3194 66.6615 58.3438C64.3871 59.3507 61.5139 59.8542 58.0417 59.8542C55.8368 59.8542 53.8229 59.6806 52 59.3333C50.1944 59.0035 48.5799 58.4913 47.1562 57.7969V49.3594C48.4931 49.967 50.099 50.5226 51.974 51.026C53.8663 51.5122 55.6024 51.7552 57.1823 51.7552C58.4496 51.7552 59.526 51.5729 60.4115 51.2083C61.2969 50.8438 61.9653 50.3056 62.4167 49.5938C62.8854 48.8819 63.1198 48.0052 63.1198 46.9635C63.1198 45.5226 62.599 44.3941 61.5573 43.5781C60.5156 42.7448 58.9358 42.3281 56.8177 42.3281C55.8628 42.3281 54.9253 42.4236 54.0052 42.6146C53.0851 42.8056 52.2778 43.0139 51.5833 43.2396L47.8073 41.3646L49.2396 21.2604H70.9583V29.8281H57.9896L57.5208 34.8542C58.0764 34.75 58.6406 34.6458 59.2135 34.5417C59.8038 34.4375 60.7326 34.3854 62 34.3854Z" fill="white"/>
</svg>
