<svg width="120" height="120" viewBox="0 0 120 120" fill="none" xmlns="http://www.w3.org/2000/svg">
<path d="M120 60C120 93.1371 93.1371 120 60 120C26.8629 120 0 93.1371 0 60C0 26.8629 26.8629 0 60 0C93.1371 0 120 26.8629 120 60Z" fill="#1D1D1F"/>
<path d="M24.1001 37.45C32.5565 35.9125 54.639 28.43 60 19C65.3611 28.43 87.4436 35.9125 95.9 37.45C97.1366 41.4221 97.8817 46.0621 98 51H22C22.1183 46.0621 22.8634 41.4221 24.1001 37.45Z" fill="#1D1D1F"/>
<path d="M25.7602 73C30.8467 86.0666 41.4701 97.5611 59.9999 101C78.5298 97.5611 89.1532 86.0666 94.2398 73H25.7602Z" fill="#1D1D1F"/>
<path d="M20.3316 56.4H24.6316C25.965 56.4 26.6316 57.0667 26.6316 58.4V66.1C26.6316 67.6467 26.265 68.7733 25.5316 69.48C24.7983 70.1867 23.6316 70.54 22.0316 70.54H16.7116V68.34H21.4916C22.665 68.34 23.3383 67.8933 23.5116 67H20.3316C18.7183 67 17.585 66.5533 16.9316 65.66C16.2916 64.7533 15.9716 63.4333 15.9716 61.7C15.9716 59.9667 16.2916 58.6533 16.9316 57.76C17.585 56.8533 18.7183 56.4 20.3316 56.4ZM23.5116 64.7V59.5C23.5116 59.1933 23.4516 58.9867 23.3316 58.88C23.2116 58.76 23.005 58.7 22.7116 58.7H21.2516C20.7983 58.7 20.425 58.7733 20.1316 58.92C19.8516 59.0667 19.645 59.2933 19.5116 59.6C19.3783 59.9067 19.285 60.22 19.2316 60.54C19.1916 60.8467 19.1716 61.2333 19.1716 61.7C19.1716 62.0467 19.185 62.3467 19.2116 62.6C19.2383 62.8533 19.2916 63.12 19.3716 63.4C19.4516 63.68 19.5583 63.9133 19.6916 64.1C19.8383 64.2733 20.0383 64.42 20.2916 64.54C20.5583 64.6467 20.865 64.7 21.2116 64.7H23.5116Z" fill="white"/>
<path d="M38.9429 56.4V65C38.9429 66.3333 38.2762 67 36.9429 67H32.4629C31.1562 67 30.1362 66.6933 29.4029 66.08C28.6696 65.4667 28.3029 64.5067 28.3029 63.2V56.4H31.4229V62.4C31.4229 63.2133 31.5962 63.8067 31.9429 64.18C32.2896 64.54 32.8562 64.72 33.6429 64.72H35.1029C35.3562 64.72 35.5362 64.6667 35.6429 64.56C35.7496 64.4533 35.8029 64.2733 35.8029 64.02V56.4H38.9429Z" fill="white"/>
<path d="M47.4671 67H45.2871C42.6604 67 41.3471 65.8267 41.3471 63.48V58.7H39.8671V56.4H41.3471V53H44.4671V56.4H47.4671V58.7H44.4671V62.34C44.4671 63.1533 44.6604 63.7533 45.0471 64.14C45.4338 64.5133 46.0471 64.7 46.8871 64.7H47.4671V67Z" fill="white"/>
<path d="M58.521 67H52.121C50.481 67 49.3943 66.62 48.861 65.86C48.341 65.1 48.081 63.7 48.081 61.66C48.081 60.5133 48.161 59.6 48.321 58.92C48.481 58.24 48.781 57.7 49.221 57.3C49.661 56.8867 50.201 56.6133 50.841 56.48C51.4943 56.3467 52.3743 56.28 53.481 56.28C54.441 56.28 55.221 56.3333 55.821 56.44C56.421 56.5333 56.9677 56.7267 57.461 57.02C57.9677 57.3133 58.3277 57.7467 58.541 58.32C58.7677 58.8933 58.881 59.6333 58.881 60.54C58.881 62.0067 58.3277 62.74 57.221 62.74H51.241C51.241 63.4333 51.3877 63.9467 51.681 64.28C51.9877 64.6 52.5477 64.76 53.361 64.76H58.521V67ZM51.241 60.58H55.121C55.5077 60.58 55.701 60.3667 55.701 59.94C55.701 59.4467 55.4743 59.0867 55.021 58.86C54.581 58.6333 54.0677 58.52 53.481 58.52C52.7077 58.52 52.141 58.6733 51.781 58.98C51.421 59.2867 51.241 59.82 51.241 60.58Z" fill="white"/>
<path d="M68.816 67H64.576C62.8693 67 61.6893 66.56 61.036 65.68C60.396 64.8 60.076 63.4667 60.076 61.68C60.076 59.9333 60.4027 58.62 61.056 57.74C61.7093 56.8467 62.8827 56.4 64.576 56.4H68.596V57.76H64.876C63.6493 57.76 62.8293 58.08 62.416 58.72C62.016 59.3467 61.816 60.3333 61.816 61.68C61.816 63.0667 62.016 64.0733 62.416 64.7C62.816 65.3267 63.636 65.64 64.876 65.64H68.816V67Z" fill="white"/>
<path d="M70.1426 67V53H71.8226V67H70.1426Z" fill="white"/>
<path d="M82.8345 67H77.2944C75.8145 67 74.8078 66.5667 74.2745 65.7C73.7411 64.82 73.4744 63.5 73.4744 61.74C73.4744 59.7667 73.8344 58.3667 74.5545 57.54C75.2745 56.7 76.5211 56.28 78.2944 56.28C79.8278 56.28 81.0145 56.5933 81.8545 57.22C82.6945 57.8333 83.1145 58.8933 83.1145 60.4C83.1145 61.04 82.9945 61.5133 82.7545 61.82C82.5145 62.1133 82.1078 62.26 81.5345 62.26H75.2145C75.2145 62.7533 75.2411 63.18 75.2944 63.54C75.3611 63.8867 75.4745 64.2333 75.6345 64.58C75.7944 64.9267 76.0411 65.1933 76.3745 65.38C76.7211 65.5533 77.1478 65.64 77.6544 65.64H82.8345V67ZM75.2145 60.9H80.8745C81.1945 60.9 81.3545 60.72 81.3545 60.36V60.28C81.3545 58.52 80.3411 57.64 78.3145 57.64C77.2078 57.64 76.4144 57.8867 75.9344 58.38C75.4545 58.86 75.2145 59.7 75.2145 60.9Z" fill="white"/>
<path d="M85.2315 56.4H90.8115C91.7182 56.4 92.4048 56.66 92.8715 57.18C93.3382 57.7 93.5715 58.4067 93.5715 59.3V65.4C93.5715 65.96 93.4448 66.3667 93.1915 66.62C92.9381 66.8733 92.5115 67 91.9115 67H87.1915C86.2315 67 85.5315 66.74 85.0915 66.22C84.6515 65.6867 84.4315 64.8667 84.4315 63.76C84.4315 61.6133 85.3515 60.54 87.1915 60.54H91.8915V59.28C91.8915 58.2667 91.3915 57.76 90.3915 57.76H85.2315V56.4ZM91.8915 61.9H87.5115C87.0182 61.9 86.6715 62.06 86.4715 62.38C86.2848 62.6867 86.1915 63.1467 86.1915 63.76C86.1915 64.3733 86.2848 64.84 86.4715 65.16C86.6715 65.48 87.0182 65.64 87.5115 65.64H91.3315C91.7048 65.64 91.8915 65.46 91.8915 65.1V61.9Z" fill="white"/>
<path d="M95.5723 67V58.14C95.5723 56.98 96.1123 56.4 97.1923 56.4H100.992C103.379 56.4 104.572 57.5467 104.572 59.84V67H102.892V60.14C102.892 58.5533 102.186 57.76 100.772 57.76H97.8723C97.6589 57.76 97.4989 57.8133 97.3923 57.92C97.2989 58.0133 97.2523 58.1867 97.2523 58.44V67H95.5723Z" fill="white"/>
<path d="M29.4659 47H27.7659C26.9659 47 26.4026 46.7733 26.0759 46.32C25.7559 45.8667 25.5959 45.2067 25.5959 44.34C25.5959 43.4733 25.7559 42.8167 26.0759 42.37C26.3959 41.9233 26.9592 41.7 27.7659 41.7H29.7359C30.3359 41.7 30.6359 42 30.6359 42.6V46.59C30.6359 47.3433 30.4526 47.89 30.0859 48.23C29.7259 48.5767 29.1459 48.75 28.3459 48.75H25.9659V47.85H28.3459C29.0126 47.85 29.3859 47.5667 29.4659 47ZM29.1659 42.6H28.0559C27.7826 42.6 27.5592 42.64 27.3859 42.72C27.2126 42.8 27.0859 42.9267 27.0059 43.1C26.9259 43.2733 26.8726 43.4533 26.8459 43.64C26.8192 43.82 26.8059 44.0533 26.8059 44.34C26.8059 44.6267 26.8192 44.8633 26.8459 45.05C26.8726 45.23 26.9259 45.41 27.0059 45.59C27.0859 45.7633 27.2126 45.8933 27.3859 45.98C27.5592 46.06 27.7826 46.1 28.0559 46.1H29.4659V42.9C29.4659 42.7 29.3659 42.6 29.1659 42.6Z" fill="#1D1D1F"/>
<path d="M31.3567 47V40H32.5267V47H31.3567Z" fill="#1D1D1F"/>
<path d="M33.4765 41.7H36.4865C36.9732 41.7 37.3432 41.8433 37.5965 42.13C37.8499 42.4167 37.9765 42.7933 37.9765 43.26V46.1C37.9765 46.7 37.6765 47 37.0765 47H34.4065C33.5265 47 33.0865 46.45 33.0865 45.35C33.0865 44.8367 33.1965 44.4333 33.4165 44.14C33.6365 43.8467 33.9665 43.7 34.4065 43.7H36.8065V43.36C36.8065 42.8533 36.5599 42.6 36.0665 42.6H33.4765V41.7ZM36.8065 44.6H34.8565C34.4832 44.6 34.2965 44.85 34.2965 45.35C34.2965 45.85 34.4832 46.1 34.8565 46.1H36.5065C36.7065 46.1 36.8065 46 36.8065 45.8V44.6Z" fill="#1D1D1F"/>
<path d="M38.5708 47V46.1H41.5508C41.6842 46.1 41.7975 46.06 41.8908 45.98C41.9908 45.9 42.0408 45.78 42.0408 45.62C42.0408 45.5133 42.0208 45.4233 41.9808 45.35C41.9408 45.27 41.8742 45.2067 41.7808 45.16C41.6875 45.1067 41.6075 45.07 41.5408 45.05C41.4742 45.0233 41.3675 44.9933 41.2208 44.96C41.0742 44.92 40.9775 44.8933 40.9308 44.88L39.9108 44.6C39.3642 44.4533 38.9908 44.2633 38.7908 44.03C38.5975 43.79 38.5008 43.4667 38.5008 43.06C38.5008 42.58 38.6208 42.2333 38.8608 42.02C39.1008 41.8067 39.4875 41.7 40.0208 41.7H43.0108V42.6H40.2008C40.0008 42.6 39.8575 42.6333 39.7708 42.7C39.6842 42.7667 39.6408 42.8933 39.6408 43.08C39.6408 43.22 39.6875 43.34 39.7808 43.44C39.8808 43.5333 39.9742 43.5967 40.0608 43.63C40.1542 43.6633 40.2908 43.7067 40.4708 43.76L41.6108 44.08C41.8442 44.1467 42.0242 44.2033 42.1508 44.25C42.2775 44.29 42.4208 44.3533 42.5808 44.44C42.7475 44.52 42.8708 44.61 42.9508 44.71C43.0375 44.81 43.1108 44.94 43.1708 45.1C43.2308 45.26 43.2608 45.4433 43.2608 45.65C43.2608 46.09 43.1642 46.4267 42.9708 46.66C42.7775 46.8867 42.4408 47 41.9608 47H38.5708Z" fill="#1D1D1F"/>
<path d="M43.654 47V46.1H46.634C46.7674 46.1 46.8807 46.06 46.974 45.98C47.074 45.9 47.124 45.78 47.124 45.62C47.124 45.5133 47.104 45.4233 47.064 45.35C47.024 45.27 46.9574 45.2067 46.864 45.16C46.7707 45.1067 46.6907 45.07 46.624 45.05C46.5574 45.0233 46.4507 44.9933 46.304 44.96C46.1574 44.92 46.0607 44.8933 46.014 44.88L44.994 44.6C44.4474 44.4533 44.074 44.2633 43.874 44.03C43.6807 43.79 43.584 43.4667 43.584 43.06C43.584 42.58 43.704 42.2333 43.944 42.02C44.184 41.8067 44.5707 41.7 45.104 41.7H48.094V42.6H45.284C45.084 42.6 44.9407 42.6333 44.854 42.7C44.7674 42.7667 44.724 42.8933 44.724 43.08C44.724 43.22 44.7707 43.34 44.864 43.44C44.964 43.5333 45.0574 43.5967 45.144 43.63C45.2374 43.6633 45.374 43.7067 45.554 43.76L46.694 44.08C46.9274 44.1467 47.1074 44.2033 47.234 44.25C47.3607 44.29 47.504 44.3533 47.664 44.44C47.8307 44.52 47.954 44.61 48.034 44.71C48.1207 44.81 48.194 44.94 48.254 45.1C48.314 45.26 48.344 45.4433 48.344 45.65C48.344 46.09 48.2474 46.4267 48.054 46.66C47.8607 46.8867 47.524 47 47.044 47H43.654Z" fill="#1D1D1F"/>
<path d="M51.9012 41.7H53.7512C54.5579 41.7 55.1212 41.9233 55.4412 42.37C55.7612 42.8167 55.9212 43.4733 55.9212 44.34C55.9212 45.2067 55.7579 45.8667 55.4312 46.32C55.1112 46.7733 54.5512 47 53.7512 47H52.1712V48.7H51.0012V42.6C51.0012 42 51.3012 41.7 51.9012 41.7ZM52.1712 42.86V46.1H53.4612C53.9745 46.1 54.3112 45.9533 54.4712 45.66C54.6312 45.3667 54.7112 44.9267 54.7112 44.34C54.7112 44.0533 54.6979 43.82 54.6712 43.64C54.6445 43.4533 54.5912 43.2733 54.5112 43.1C54.4312 42.9267 54.3045 42.8 54.1312 42.72C53.9579 42.64 53.7345 42.6 53.4612 42.6H52.4712C52.2712 42.6 52.1712 42.6867 52.1712 42.86Z" fill="#1D1D1F"/>
<path d="M56.4848 47V43.7C56.4848 43 56.6615 42.4933 57.0148 42.18C57.3681 41.86 57.9048 41.7 58.6248 41.7H59.4148V42.6H58.9248C58.4648 42.6 58.1381 42.7133 57.9448 42.94C57.7515 43.1667 57.6548 43.5233 57.6548 44.01V47H56.4848Z" fill="#1D1D1F"/>
<path d="M59.9882 42.23C60.4348 41.8367 61.1515 41.64 62.1382 41.64C63.1248 41.64 63.8415 41.8367 64.2882 42.23C64.7348 42.6233 64.9582 43.3267 64.9582 44.34C64.9582 45.3667 64.7348 46.0767 64.2882 46.47C63.8482 46.8633 63.1315 47.06 62.1382 47.06C61.1448 47.06 60.4248 46.8633 59.9782 46.47C59.5382 46.0767 59.3182 45.3667 59.3182 44.34C59.3182 43.3267 59.5415 42.6233 59.9882 42.23ZM60.5282 44.34C60.5282 45 60.6482 45.47 60.8882 45.75C61.1282 46.0233 61.5448 46.16 62.1382 46.16C62.7315 46.16 63.1482 46.0233 63.3882 45.75C63.6282 45.47 63.7482 45 63.7482 44.34C63.7482 43.6867 63.6282 43.2233 63.3882 42.95C63.1482 42.6767 62.7315 42.54 62.1382 42.54C61.5448 42.54 61.1282 42.6767 60.8882 42.95C60.6482 43.2233 60.5282 43.6867 60.5282 44.34Z" fill="#1D1D1F"/>
<path d="M68.4684 47H67.7384C67.1051 47 66.6217 46.8667 66.2884 46.6C65.9551 46.3333 65.7884 45.89 65.7884 45.27V42.6H65.0584V41.7H65.7884V40H66.9584V41.7H68.4684V42.6H66.9584V45.03C66.9584 45.4167 67.0584 45.6933 67.2584 45.86C67.4584 46.02 67.7651 46.1 68.1784 46.1H68.4684V47Z" fill="#1D1D1F"/>
<path d="M73.5066 47H70.5666C70.1533 47 69.8099 46.9433 69.5366 46.83C69.2699 46.7167 69.0666 46.54 68.9266 46.3C68.7866 46.0533 68.6899 45.78 68.6366 45.48C68.5899 45.18 68.5666 44.8 68.5666 44.34C68.5666 43.3133 68.7599 42.6067 69.1466 42.22C69.5399 41.8333 70.1999 41.64 71.1266 41.64C71.9533 41.64 72.5833 41.7933 73.0166 42.1C73.4566 42.4 73.6766 42.9467 73.6766 43.74C73.6766 44.4067 73.4033 44.74 72.8566 44.74H69.7766C69.7766 45.2 69.8499 45.5433 69.9966 45.77C70.1499 45.99 70.4566 46.1 70.9166 46.1H73.5066V47ZM69.7766 43.84H72.2066C72.3799 43.84 72.4666 43.7367 72.4666 43.53C72.4666 43.2033 72.3366 42.9567 72.0766 42.79C71.8233 42.6233 71.5066 42.54 71.1266 42.54C70.6333 42.54 70.2833 42.6433 70.0766 42.85C69.8766 43.05 69.7766 43.38 69.7766 43.84Z" fill="#1D1D1F"/>
<path d="M78.5695 42.6H76.6395C76.3995 42.6 76.1962 42.63 76.0295 42.69C75.8628 42.75 75.7295 42.8267 75.6295 42.92C75.5362 43.0133 75.4628 43.14 75.4095 43.3C75.3562 43.46 75.3228 43.6167 75.3095 43.77C75.2962 43.9233 75.2895 44.1133 75.2895 44.34C75.2895 44.6267 75.3028 44.8633 75.3295 45.05C75.3562 45.23 75.4128 45.41 75.4995 45.59C75.5862 45.7633 75.7228 45.8933 75.9095 45.98C76.1028 46.06 76.3462 46.1 76.6395 46.1H78.6895V47H76.3495C75.5028 47 74.9128 46.7767 74.5795 46.33C74.2462 45.8767 74.0795 45.2133 74.0795 44.34C74.0795 43.4733 74.2462 42.8167 74.5795 42.37C74.9128 41.9233 75.5028 41.7 76.3495 41.7H78.5695V42.6Z" fill="#1D1D1F"/>
<path d="M82.2336 47H81.5036C80.8703 47 80.387 46.8667 80.0536 46.6C79.7203 46.3333 79.5536 45.89 79.5536 45.27V42.6H78.8236V41.7H79.5536V40H80.7236V41.7H82.2336V42.6H80.7236V45.03C80.7236 45.4167 80.8236 45.6933 81.0236 45.86C81.2236 46.02 81.5303 46.1 81.9436 46.1H82.2336V47Z" fill="#1D1D1F"/>
<path d="M82.4918 47V41.7H83.6618V47H82.4918ZM83.6618 41H82.4918V39.92H83.6618V41Z" fill="#1D1D1F"/>
<path d="M84.8917 42.23C85.3383 41.8367 86.055 41.64 87.0417 41.64C88.0284 41.64 88.745 41.8367 89.1917 42.23C89.6384 42.6233 89.8617 43.3267 89.8617 44.34C89.8617 45.3667 89.6384 46.0767 89.1917 46.47C88.7517 46.8633 88.035 47.06 87.0417 47.06C86.0483 47.06 85.3284 46.8633 84.8817 46.47C84.4417 46.0767 84.2217 45.3667 84.2217 44.34C84.2217 43.3267 84.445 42.6233 84.8917 42.23ZM85.4317 44.34C85.4317 45 85.5517 45.47 85.7917 45.75C86.0317 46.0233 86.4483 46.16 87.0417 46.16C87.635 46.16 88.0517 46.0233 88.2917 45.75C88.5317 45.47 88.6517 45 88.6517 44.34C88.6517 43.6867 88.5317 43.2233 88.2917 42.95C88.0517 42.6767 87.635 42.54 87.0417 42.54C86.4483 42.54 86.0317 42.6767 85.7917 42.95C85.5517 43.2233 85.4317 43.6867 85.4317 44.34Z" fill="#1D1D1F"/>
<path d="M90.4219 47V42.6C90.4219 42 90.7219 41.7 91.3219 41.7H93.1819C93.8353 41.7 94.3419 41.8367 94.7019 42.11C95.0619 42.3833 95.2419 42.85 95.2419 43.51V47H94.0719V43.82C94.0719 43.4067 93.9852 43.1 93.8119 42.9C93.6386 42.7 93.3552 42.6 92.9619 42.6H91.8919C91.6919 42.6 91.5919 42.7 91.5919 42.9V47H90.4219Z" fill="#1D1D1F"/>
<path d="M41.6722 83H38.7322C38.3189 83 37.9756 82.9433 37.7022 82.83C37.4356 82.7167 37.2322 82.54 37.0922 82.3C36.9522 82.0533 36.8556 81.78 36.8022 81.48C36.7556 81.18 36.7322 80.8 36.7322 80.34C36.7322 79.3133 36.9256 78.6067 37.3122 78.22C37.7056 77.8333 38.3656 77.64 39.2922 77.64C40.1189 77.64 40.7489 77.7933 41.1822 78.1C41.6222 78.4 41.8422 78.9467 41.8422 79.74C41.8422 80.4067 41.5689 80.74 41.0222 80.74H37.9422C37.9422 81.2 38.0156 81.5433 38.1622 81.77C38.3156 81.99 38.6222 82.1 39.0822 82.1H41.6722V83ZM37.9422 79.84H40.3722C40.5456 79.84 40.6322 79.7367 40.6322 79.53C40.6322 79.2033 40.5022 78.9567 40.2422 78.79C39.9889 78.6233 39.6722 78.54 39.2922 78.54C38.7989 78.54 38.4489 78.6433 38.2422 78.85C38.0422 79.05 37.9422 79.38 37.9422 79.84Z" fill="#1D1D1F"/>
<path d="M42.6351 77.7H45.6451C46.1318 77.7 46.5018 77.8433 46.7551 78.13C47.0085 78.4167 47.1351 78.7933 47.1351 79.26V82.1C47.1351 82.7 46.8351 83 46.2351 83H43.5651C42.6851 83 42.2451 82.45 42.2451 81.35C42.2451 80.8367 42.3551 80.4333 42.5751 80.14C42.7951 79.8467 43.1251 79.7 43.5651 79.7H45.9651V79.36C45.9651 78.8533 45.7185 78.6 45.2251 78.6H42.6351V77.7ZM45.9651 80.6H44.0151C43.6418 80.6 43.4551 80.85 43.4551 81.35C43.4551 81.85 43.6418 82.1 44.0151 82.1H45.6651C45.8651 82.1 45.9651 82 45.9651 81.8V80.6Z" fill="#1D1D1F"/>
<path d="M47.7294 83V82.1H50.7094C50.8427 82.1 50.9561 82.06 51.0494 81.98C51.1494 81.9 51.1994 81.78 51.1994 81.62C51.1994 81.5133 51.1794 81.4233 51.1394 81.35C51.0994 81.27 51.0327 81.2067 50.9394 81.16C50.8461 81.1067 50.7661 81.07 50.6994 81.05C50.6328 81.0233 50.5261 80.9933 50.3794 80.96C50.2327 80.92 50.1361 80.8933 50.0894 80.88L49.0694 80.6C48.5227 80.4533 48.1494 80.2633 47.9494 80.03C47.7561 79.79 47.6594 79.4667 47.6594 79.06C47.6594 78.58 47.7794 78.2333 48.0194 78.02C48.2594 77.8067 48.6461 77.7 49.1794 77.7H52.1694V78.6H49.3594C49.1594 78.6 49.0161 78.6333 48.9294 78.7C48.8427 78.7667 48.7994 78.8933 48.7994 79.08C48.7994 79.22 48.8461 79.34 48.9394 79.44C49.0394 79.5333 49.1327 79.5967 49.2194 79.63C49.3127 79.6633 49.4494 79.7067 49.6294 79.76L50.7694 80.08C51.0028 80.1467 51.1827 80.2033 51.3094 80.25C51.4361 80.29 51.5794 80.3533 51.7394 80.44C51.9061 80.52 52.0294 80.61 52.1094 80.71C52.1961 80.81 52.2694 80.94 52.3294 81.1C52.3894 81.26 52.4194 81.4433 52.4194 81.65C52.4194 82.09 52.3227 82.4267 52.1294 82.66C51.9361 82.8867 51.5994 83 51.1194 83H47.7294Z" fill="#1D1D1F"/>
<path d="M58.185 77.7L55.025 84.71H53.835L54.645 82.98L52.285 77.7H53.495L55.195 81.77L56.995 77.7H58.185Z" fill="#1D1D1F"/>
<path d="M64.8121 78.6H62.8821C62.6421 78.6 62.4387 78.63 62.2721 78.69C62.1054 78.75 61.9721 78.8267 61.8721 78.92C61.7787 79.0133 61.7054 79.14 61.6521 79.3C61.5987 79.46 61.5654 79.6167 61.5521 79.77C61.5387 79.9233 61.5321 80.1133 61.5321 80.34C61.5321 80.6267 61.5454 80.8633 61.5721 81.05C61.5987 81.23 61.6554 81.41 61.7421 81.59C61.8287 81.7633 61.9654 81.8933 62.1521 81.98C62.3454 82.06 62.5887 82.1 62.8821 82.1H64.9321V83H62.5921C61.7454 83 61.1554 82.7767 60.8221 82.33C60.4887 81.8767 60.3221 81.2133 60.3221 80.34C60.3221 79.4733 60.4887 78.8167 60.8221 78.37C61.1554 77.9233 61.7454 77.7 62.5921 77.7H64.8121V78.6Z" fill="#1D1D1F"/>
<path d="M65.4286 83V76H66.5986V83H65.4286Z" fill="#1D1D1F"/>
<path d="M72.0984 83H69.1584C68.7451 83 68.4017 82.9433 68.1284 82.83C67.8617 82.7167 67.6584 82.54 67.5184 82.3C67.3784 82.0533 67.2817 81.78 67.2284 81.48C67.1817 81.18 67.1584 80.8 67.1584 80.34C67.1584 79.3133 67.3517 78.6067 67.7384 78.22C68.1317 77.8333 68.7917 77.64 69.7184 77.64C70.5451 77.64 71.1751 77.7933 71.6084 78.1C72.0484 78.4 72.2684 78.9467 72.2684 79.74C72.2684 80.4067 71.9951 80.74 71.4484 80.74H68.3684C68.3684 81.2 68.4417 81.5433 68.5884 81.77C68.7417 81.99 69.0484 82.1 69.5084 82.1H72.0984V83ZM68.3684 79.84H70.7984C70.9717 79.84 71.0584 79.7367 71.0584 79.53C71.0584 79.2033 70.9284 78.9567 70.6684 78.79C70.4151 78.6233 70.0984 78.54 69.7184 78.54C69.2251 78.54 68.8751 78.6433 68.6684 78.85C68.4684 79.05 68.3684 79.38 68.3684 79.84Z" fill="#1D1D1F"/>
<path d="M73.0613 77.7H76.0713C76.558 77.7 76.928 77.8433 77.1813 78.13C77.4346 78.4167 77.5613 78.7933 77.5613 79.26V82.1C77.5613 82.7 77.2613 83 76.6613 83H73.9913C73.1113 83 72.6713 82.45 72.6713 81.35C72.6713 80.8367 72.7813 80.4333 73.0013 80.14C73.2213 79.8467 73.5513 79.7 73.9913 79.7H76.3913V79.36C76.3913 78.8533 76.1446 78.6 75.6513 78.6H73.0613V77.7ZM76.3913 80.6H74.4413C74.068 80.6 73.8813 80.85 73.8813 81.35C73.8813 81.85 74.068 82.1 74.4413 82.1H76.0913C76.2913 82.1 76.3913 82 76.3913 81.8V80.6Z" fill="#1D1D1F"/>
<path d="M78.2856 83V78.6C78.2856 78 78.5856 77.7 79.1856 77.7H81.0456C81.6989 77.7 82.2056 77.8367 82.5656 78.11C82.9256 78.3833 83.1056 78.85 83.1056 79.51V83H81.9356V79.82C81.9356 79.4067 81.8489 79.1 81.6756 78.9C81.5023 78.7 81.2189 78.6 80.8256 78.6H79.7556C79.5556 78.6 79.4556 78.7 79.4556 78.9V83H78.2856Z" fill="#1D1D1F"/>
</svg>
