<svg width="40" height="40" viewBox="0 0 40 40" fill="none" xmlns="http://www.w3.org/2000/svg">
<path opacity="0.66" d="M-1.19209e-06 20C-1.19209e-06 31.0457 8.9543 40 20 40C31.0457 40 40 31.0457 40 20C40 8.95431 31.0457 0 20 0C8.9543 0 -1.19209e-06 8.95431 -1.19209e-06 20Z" fill="#C3C3C7"/>
<path d="M17.3637 10.1695L16.4678 11.0282C16.2886 11.2542 16.2886 11.6158 16.4678 11.7966L24.5758 19.9774L16.4678 28.2034C16.2886 28.3842 16.2886 28.7458 16.4678 28.9718L17.3637 29.8305C17.5877 30.0565 17.9012 30.0565 18.1252 29.8305L27.5323 20.3842C27.7115 20.1582 27.7115 19.8418 27.5323 19.6158L18.1252 10.1695C17.9012 9.9435 17.5877 9.9435 17.3637 10.1695Z" fill="#1D1D1F"/>
</svg>
