<?xml version="1.0" encoding="utf-8"?>
<!-- Generator: Adobe Illustrator 25.0.1, SVG Export Plug-In . SVG Version: 6.00 Build 0)  -->
<svg version="1.1" id="Layer_1" xmlns="http://www.w3.org/2000/svg" xmlns:xlink="http://www.w3.org/1999/xlink" x="0px" y="0px"
	 width="20px" height="20px" viewBox="0 0 20 20" style="enable-background:new 0 0 20 20;" xml:space="preserve">
<style type="text/css">
	.st0{fill:#6E6E73;}
</style>
<path class="st0" d="M7.7,3.3L7.1,3.9C7,4,7,4.3,7.1,4.4l5.5,5.6l-5.5,5.6C7,15.8,7,16,7.1,16.1l0.6,0.6c0.1,0.1,0.4,0.1,0.5,0
	c0,0,0,0,0,0l6.4-6.4c0.1-0.2,0.1-0.4,0-0.5L8.2,3.3C8.1,3.2,7.9,3.2,7.7,3.3C7.7,3.3,7.7,3.3,7.7,3.3z"/>
</svg>
