<svg id="Layer_1" data-name="Layer 1" xmlns="http://www.w3.org/2000/svg" width="36" height="30" viewBox="0 0 36 30"><defs><style>.cls-1{fill:#999999;}</style></defs><title>ti-dlvr3</title><path class="cls-1" d="M35,17.8h-.53v-6A3.29,3.29,0,0,0,31.1,8.55H16.62L6.85,5.85H6.42l0,0h0l0,0h0l0,0V6l0,0v0l0,0v0l0,0V6.2h0l-.6,2.33H3.89A3.3,3.3,0,0,0,.55,11.77h0V28.52a.52.52,0,0,0,.53.51.52.52,0,0,0,.53-.51V14.14A3.4,3.4,0,0,0,3.89,15H31.11a2.27,2.27,0,0,1,2.28,2.22v2.61H27.34l0,0h0l0,0h0l0,0,0,0,0,0,0,0h0l-2.81,4.08a.41.41,0,0,0-.05.09s0,0,0,0h0s0,0,0,0h0v.15h0v0h0s0,0,0,0h0l0,0a.41.41,0,0,0,.05.09l2.81,4.08h0l0,.05h0l0,0h0l0,0h0l.05,0h0l0,0h6V32.6a2.25,2.25,0,0,1-2.29,2.21H3.89A2.25,2.25,0,0,1,1.61,32.6h0v-2a.52.52,0,0,0-.53-.51.52.52,0,0,0-.53.51v2.06a3.29,3.29,0,0,0,3.34,3.21H31.1a3.29,3.29,0,0,0,3.34-3.23h0V29H35a1.56,1.56,0,0,0,1.58-1.53V19.33A1.56,1.56,0,0,0,35,17.8ZM7.08,7l9.31,2.57h0l6.24,1.72H6Zm26.31,7.89A3.41,3.41,0,0,0,31.1,14H3.89a2.21,2.21,0,1,1,0-4.42H5.33l-.44,1.7h-1a.51.51,0,0,0-.52.51.51.51,0,0,0,.52.51H30.4a.52.52,0,0,0,.53-.51.52.52,0,0,0-.53-.51H26.47l-6.16-1.7H31.1a2.25,2.25,0,0,1,2.29,2.21ZM35.5,27.5h0A.52.52,0,0,1,35,28h-7.1l-2.46-3.57,2.46-3.58H35a1.7,1.7,0,0,0,.51-.08V27.5ZM35,19.84h-.53v-1H35a.51.51,0,1,1,0,1Z" transform="translate(-0.55 -5.83)"/><path class="cls-1" d="M29.7,22.56a1.88,1.88,0,1,0,1.93,1.88A1.91,1.91,0,0,0,29.7,22.56Zm0,2.73a.86.86,0,1,1,.88-.85A.87.87,0,0,1,29.7,25.29Z" transform="translate(-0.55 -5.83)"/></svg>