<svg xmlns="http://www.w3.org/2000/svg" width="80" height="80" viewBox="0 0 80 80"><defs><style>.cls-1{fill:#ddd;}.cls-2{fill:#666;}</style></defs><title>ti-pay2</title><g id="Layer_1" data-name="Layer 1"><rect class="cls-1" width="80" height="80"/></g><g id="Layer_2" data-name="Layer 2"><g id="surface1"><path class="cls-2" d="M60.75,21.34V15.75a5,5,0,0,0-5-5h-40a5,5,0,0,0-5,5v22a5,5,0,0,0,4.48,5L19,52.46a5,5,0,0,0,6.47,2.86l23.47-9a14.46,14.46,0,0,0,1.25,12.84l.57.92v9.71a1,1,0,0,0,1,1h18a1,1,0,0,0,1-1v-33a13.12,13.12,0,0,0-3.83-9.22Zm0,6,3,7.88a3,3,0,0,1-1.72,3.88l-1.73.67a5.09,5.09,0,0,0,.42-2Zm-48,10.43v-22a3,3,0,0,1,3-3h40a3,3,0,0,1,3,3v6.36h0V37.75a3.09,3.09,0,0,1-.07.52l-9.16-9.16a5.33,5.33,0,0,0-7.7,7.37l3.91,4.27h-30A3,3,0,0,1,12.75,37.75Zm12.81,5-7.11,2.74L17.4,42.75Zm-.82,10.71a3,3,0,0,1-3.88-1.72l-1.69-4.39,11.94-4.6H47.56l1.3,1.42Zm44,15.29h-16v-8h16Zm0-10H52.31l-.44-.69a12.48,12.48,0,0,1-.25-12.81,1,1,0,0,0-.13-1.17l-8.2-8.94a3.34,3.34,0,0,1,4.82-4.61L64,46.46,65.46,45l-3.7-3.7,1-.4a5,5,0,0,0,2.87-6.46l-3.38-8.79,3.23,3.25a11.08,11.08,0,0,1,3.25,7.8Z"/><path class="cls-2" d="M22.15,24.75a2.59,2.59,0,0,0,2.6-2.6v-4.8a2.59,2.59,0,0,0-2.6-2.6h-4.8a2.59,2.59,0,0,0-2.6,2.6v4.8a2.59,2.59,0,0,0,2.6,2.6Zm-5.4-2.6v-1.4h2v-2h-2v-1.4a.6.6,0,0,1,.6-.6h4.8a.6.6,0,0,1,.6.6v1.4h-2v2h2v1.4a.6.6,0,0,1-.6.6h-4.8A.6.6,0,0,1,16.75,22.15Z"/><path class="cls-2" d="M15.75,27.75h4v2h-4Z"/><path class="cls-2" d="M15.75,33.75h4v2h-4Z"/><path class="cls-2" d="M33.75,33.75h4v2h-4Z"/><path class="cls-2" d="M21.75,27.75h4v2h-4Z"/><path class="cls-2" d="M27.75,27.75h4v2h-4Z"/><path class="cls-2" d="M33.75,27.75h4v2h-4Z"/><path class="cls-2" d="M52.75,15.75h2v3h-2Z"/><path class="cls-2" d="M48.75,15.75h2v3h-2Z"/><path class="cls-2" d="M44.75,15.75h2v3h-2Z"/><path class="cls-2" d="M40.75,15.75h2v3h-2Z"/><path class="cls-2" d="M54.75,62.75h2v2h-2Z"/></g></g></svg>