<?xml version="1.0" encoding="utf-8"?>
<!-- Generator: Adobe Illustrator 23.0.0, SVG Export Plug-In . SVG Version: 6.00 Build 0)  -->
<svg version="1.1" id="Layer_1" xmlns="http://www.w3.org/2000/svg" xmlns:xlink="http://www.w3.org/1999/xlink" x="0px" y="0px"
	 width="80px" height="80px" viewBox="0 0 80 80" style="enable-background:new 0 0 80 80;" xml:space="preserve">
<style type="text/css">
	.st0{fill:#DDDDDD;}
	.st1{fill:#2F9A41;}
</style>
<title>ti-pay4</title>
<g>
	<rect class="st0" width="80" height="80"/>
</g>
<path class="st1" d="M65.1,22.4c-0.7-0.9-1.3-1.8-1.9-2.7l-35,20.1l-16.9-9.7c-0.4,1-0.6,2.1-0.7,3.2l17.7,10.3L65.1,22.4z"/>
<path class="st1" d="M28.3,47.3L10.2,36.9C10,37.5,10,38.2,10,38.9c0,16.6,13.4,30,30,30s30-13.4,30-30c0-4.7-1.1-9.4-3.2-13.7
	L28.3,47.3z"/>
<path class="st1" d="M60.8,17.2c-0.9-0.8-1.8-1.6-2.7-2.3L28.3,32.2L13.9,24c-0.5,0.9-1,1.9-1.5,2.9L28.1,36L60.8,17.2z"/>
<path class="st1" d="M55.2,12.9c-1.1-0.7-2.3-1.3-3.5-1.8L28.3,24.6l-10.5-5.9c-0.7,0.7-1.4,1.6-2.1,2.5l12.5,7.2L55.2,12.9z"/>
</svg>
