<?xml version="1.0" encoding="utf-8"?>
<!-- Generator: Adobe Illustrator 25.0.1, SVG Export Plug-In . SVG Version: 6.00 Build 0)  -->
<svg version="1.1" id="Layer_1" xmlns="http://www.w3.org/2000/svg" xmlns:xlink="http://www.w3.org/1999/xlink" x="0px" y="0px"
	 width="30px" height="30px" viewBox="0 0 30 30" style="enable-background:new 0 0 30 30;" xml:space="preserve">
<style type="text/css">
	.st0{fill:#CCCCCC;}
</style>
<g id="Layer_2_1_">
	<path class="st0" d="M13,29.8l-1.3-1.3c-0.3-0.3-0.3-0.8,0-1.1c0,0,0,0,0,0L23.9,15L11.7,2.7c-0.3-0.3-0.3-0.8,0-1.1c0,0,0,0,0,0
		L13,0.2c0.3-0.3,0.8-0.3,1.1,0c0,0,0,0,0,0l14.2,14.2c0.3,0.3,0.3,0.8,0,1.1c0,0,0,0,0,0L14.2,29.8C13.8,30.1,13.3,30.1,13,29.8
		C13,29.8,13,29.8,13,29.8z"/>
</g>
</svg>
