<svg width="87" height="60" viewBox="0 0 87 60" fill="none" xmlns="http://www.w3.org/2000/svg">
<rect x="27" width="60" height="60" rx="4" fill="#008BD2"/>
<path d="M33.5589 27.8927H36.0826C36.8651 27.8927 37.2564 28.2829 37.2564 29.0634V33.5707C37.2564 34.4761 37.0412 35.1356 36.6108 35.5493C36.1804 35.9629 35.4957 36.1698 34.5566 36.1698H31.4343V34.882H34.2397C34.9283 34.882 35.3235 34.6205 35.4253 34.0976H33.5589C32.612 34.0976 31.9469 33.8361 31.5634 33.3132C31.1878 32.7824 31 32.0098 31 30.9951C31 29.9805 31.1878 29.2117 31.5634 28.6888C31.9469 28.1581 32.612 27.8927 33.5589 27.8927ZM35.4253 32.7512V29.7073C35.4253 29.5278 35.39 29.4068 35.3196 29.3444C35.2492 29.2741 35.1279 29.239 34.9557 29.239H34.0988C33.8328 29.239 33.6137 29.282 33.4415 29.3678C33.2772 29.4537 33.1559 29.5863 33.0776 29.7659C32.9994 29.9454 32.9446 30.1288 32.9133 30.3161C32.8898 30.4956 32.8781 30.722 32.8781 30.9951C32.8781 31.198 32.8859 31.3737 32.9016 31.5219C32.9172 31.6702 32.9485 31.8263 32.9955 31.9902C33.0424 32.1541 33.105 32.2907 33.1833 32.4C33.2694 32.5015 33.3867 32.5873 33.5354 32.6576C33.6919 32.72 33.8719 32.7512 34.0754 32.7512H35.4253Z" fill="white"/>
<path d="M44.4819 27.8927V32.9268C44.4819 33.7073 44.0906 34.0976 43.3081 34.0976H40.6788C39.9119 34.0976 39.3132 33.918 38.8828 33.559C38.4524 33.2 38.2373 32.638 38.2373 31.8732V27.8927H40.0684V31.4049C40.0684 31.881 40.1701 32.2283 40.3736 32.4468C40.577 32.6576 40.9096 32.7629 41.3713 32.7629H42.2282C42.3769 32.7629 42.4825 32.7317 42.5451 32.6693C42.6077 32.6068 42.639 32.5015 42.639 32.3532V27.8927H44.4819Z" fill="white"/>
<path d="M49.4848 34.0976H48.2053C46.6637 34.0976 45.8929 33.4107 45.8929 32.0371V29.239H45.0243V27.8927H45.8929V25.9024H47.7241V27.8927H49.4848V29.239H47.7241V31.3698C47.7241 31.8459 47.8376 32.1971 48.0645 32.4234C48.2914 32.642 48.6514 32.7512 49.1444 32.7512H49.4848V34.0976Z" fill="white"/>
<path d="M55.9724 34.0976H52.2162C51.2537 34.0976 50.6159 33.8751 50.3029 33.4302C49.9977 32.9854 49.8451 32.1659 49.8451 30.9717C49.8451 30.3005 49.892 29.7659 49.986 29.3678C50.0799 28.9698 50.2559 28.6537 50.5142 28.4195C50.7724 28.1776 51.0893 28.0176 51.465 27.9395C51.8484 27.8615 52.3649 27.8224 53.0144 27.8224C53.5778 27.8224 54.0356 27.8537 54.3877 27.9161C54.7399 27.9707 55.0607 28.0839 55.3503 28.2556C55.6476 28.4273 55.8589 28.681 55.9841 29.0166C56.1171 29.3522 56.1837 29.7854 56.1837 30.3161C56.1837 31.1746 55.8589 31.6039 55.2094 31.6039H51.6997C51.6997 32.0098 51.7858 32.3102 51.958 32.5054C52.1379 32.6927 52.4666 32.7863 52.9439 32.7863H55.9724V34.0976ZM51.6997 30.3395H53.9769C54.2038 30.3395 54.3173 30.2146 54.3173 29.9649C54.3173 29.6761 54.1843 29.4654 53.9182 29.3327C53.66 29.2 53.3587 29.1337 53.0144 29.1337C52.5605 29.1337 52.2279 29.2234 52.0166 29.4029C51.8054 29.5824 51.6997 29.8946 51.6997 30.3395Z" fill="white"/>
<path d="M62.0145 34.0976H59.5261C58.5244 34.0976 57.8319 33.84 57.4484 33.3249C57.0728 32.8098 56.885 32.0293 56.885 30.9834C56.885 29.961 57.0767 29.1922 57.4602 28.6771C57.8436 28.1541 58.5322 27.8927 59.5261 27.8927H61.8854V28.6888H59.7021C58.9822 28.6888 58.5009 28.8761 58.2584 29.2507C58.0236 29.6176 57.9062 30.1951 57.9062 30.9834C57.9062 31.7951 58.0236 32.3844 58.2584 32.7512C58.4931 33.118 58.9744 33.3015 59.7021 33.3015H62.0145V34.0976Z" fill="white"/>
<path d="M62.7931 34.0976V25.9024H63.7791V34.0976H62.7931Z" fill="white"/>
<path d="M70.242 34.0976H66.9906C66.1219 34.0976 65.5311 33.8439 65.2181 33.3366C64.9051 32.8215 64.7486 32.0488 64.7486 31.0185C64.7486 29.8634 64.9599 29.0439 65.3824 28.56C65.805 28.0683 66.5367 27.8224 67.5775 27.8224C68.4774 27.8224 69.1738 28.0059 69.6668 28.3727C70.1598 28.7317 70.4063 29.3522 70.4063 30.2341C70.4063 30.6088 70.3359 30.8859 70.1951 31.0654C70.0542 31.2371 69.8155 31.3229 69.479 31.3229H65.7698C65.7698 31.6117 65.7855 31.8615 65.8168 32.0722C65.8559 32.2751 65.9224 32.478 66.0163 32.681C66.1102 32.8839 66.255 33.04 66.4506 33.1493C66.6541 33.2507 66.9045 33.3015 67.2018 33.3015H70.242V34.0976ZM65.7698 30.5268H69.0917C69.2795 30.5268 69.3734 30.4215 69.3734 30.2107V30.1639C69.3734 29.1337 68.7787 28.6185 67.5892 28.6185C66.9397 28.6185 66.4741 28.7629 66.1924 29.0517C65.9107 29.3327 65.7698 29.8244 65.7698 30.5268Z" fill="white"/>
<path d="M71.6488 27.8927H74.9238C75.4559 27.8927 75.8589 28.0449 76.1328 28.3493C76.4067 28.6537 76.5436 29.0673 76.5436 29.5902V33.161C76.5436 33.4888 76.4693 33.7268 76.3206 33.8751C76.1719 34.0234 75.9215 34.0976 75.5693 34.0976H72.7992C72.2357 34.0976 71.8249 33.9454 71.5667 33.641C71.3084 33.3288 71.1793 32.8488 71.1793 32.201C71.1793 30.9444 71.7193 30.3161 72.7992 30.3161H75.5576V29.5785C75.5576 28.9854 75.2642 28.6888 74.6773 28.6888H71.6488V27.8927ZM75.5576 31.1122H72.987C72.6974 31.1122 72.494 31.2059 72.3766 31.3932C72.267 31.5727 72.2123 31.842 72.2123 32.201C72.2123 32.56 72.267 32.8332 72.3766 33.0205C72.494 33.2078 72.6974 33.3015 72.987 33.3015H75.2289C75.4481 33.3015 75.5576 33.1961 75.5576 32.9854V31.1122Z" fill="white"/>
<path d="M77.7179 34.0976V28.9112C77.7179 28.2322 78.0348 27.8927 78.6687 27.8927H80.8989C82.2996 27.8927 83 28.5639 83 29.9063V34.0976H82.014V30.0819C82.014 29.1532 81.5993 28.6888 80.7698 28.6888H79.0678C78.9425 28.6888 78.8486 28.72 78.786 28.7824C78.7313 28.8371 78.7039 28.9385 78.7039 29.0868V34.0976H77.7179Z" fill="white"/>
<path fill-rule="evenodd" clip-rule="evenodd" d="M35.7706 16.8C40.7337 15.9 53.694 11.52 56.8404 6C59.9868 11.52 72.9471 15.9 77.9102 16.8C78.636 19.1251 79.0733 21.8412 79.1427 24.7317H34.538C34.6075 21.8412 35.0448 19.1251 35.7706 16.8Z" fill="white"/>
<path fill-rule="evenodd" clip-rule="evenodd" d="M36.7449 37.6098C39.7302 45.2585 45.9651 51.987 56.8404 54C67.7156 51.987 73.9505 45.2585 76.9358 37.6098H36.7449Z" fill="white"/>
<rect y="19" width="22" height="22" rx="4" fill="white"/>
<path d="M17.9922 23.2812C18.1875 23.0859 18.5 23.0859 18.6562 23.2812L19.7891 24.375C19.9453 24.5703 19.9453 24.8828 19.7891 25.0391L8.07031 36.7578C7.875 36.9531 7.60156 36.9531 7.40625 36.7578L2.17188 31.5625C2.01562 31.3672 2.01562 31.0547 2.17188 30.8984L3.30469 29.7656C3.46094 29.6094 3.77344 29.6094 3.96875 29.7656L7.71875 33.5547L17.9922 23.2812Z" fill="#008BD2"/>
</svg>
