<svg width="56" height="29" viewBox="0 0 56 29" fill="none" xmlns="http://www.w3.org/2000/svg">
<path d="M5.24472 26.8919C4.61682 27.4324 4.20305 28.1803 4.07841 29H13.4743C17.8624 29 20.9599 25.9191 20.9599 21.5045V3.51515C20.9586 2.58329 20.5883 1.68999 19.9302 1.03107C19.2722 0.372147 18.3801 0.00136566 17.4494 0H7.4857C3.09753 0 0 3.08093 0 7.49555V11.4759C0 15.8699 3.07688 18.9715 7.4857 18.9715H13.4743C14.3014 18.9698 15.1007 18.6718 15.7275 18.1314C16.3543 17.591 16.7673 16.8438 16.8919 16.025H7.4857C6.88845 16.053 6.29196 15.9558 5.73437 15.7397C5.17679 15.5236 4.6704 15.1933 4.24763 14.77C3.82485 14.3466 3.495 13.8396 3.27918 13.2813C3.06335 12.7229 2.96632 12.1257 2.99428 11.5276V7.54724C2.97337 6.951 3.07524 6.35683 3.29355 5.80171C3.51187 5.2466 3.84195 4.74243 4.26325 4.32057C4.68456 3.8987 5.18809 3.56818 5.74247 3.34957C6.29686 3.13097 6.89024 3.02897 7.4857 3.04991H18.0173V21.5562C18.0374 22.1522 17.935 22.746 17.7165 23.3008C17.4979 23.8556 17.1678 24.3594 16.7466 24.7811C16.3255 25.2028 15.8223 25.5334 15.2682 25.7522C14.7142 25.9711 14.1211 26.0736 13.5259 26.0535H7.50118C6.67313 26.0539 5.87262 26.3514 5.24472 26.8919Z" fill="white"/>
<path d="M24.0438 11.5276C24.0438 15.9215 27.1207 19.0231 31.5295 19.0231H34.5238C35.3526 19.0225 36.1537 18.7243 36.7818 18.1828C37.4098 17.6412 37.823 16.8921 37.9466 16.0714L31.4779 16.0249C30.8808 16.0521 30.2847 15.9544 29.7275 15.738C29.1703 15.5216 28.6642 15.1913 28.2416 14.7681C27.819 14.345 27.4891 13.8383 27.273 13.2803C27.0569 12.7223 26.9593 12.1254 26.9865 11.5276V0.0878296C26.1683 0.213638 25.422 0.628227 24.8824 1.25674C24.3427 1.88525 24.0453 2.68625 24.0438 3.5151V11.5276Z" fill="white"/>
<path d="M40.0814 17.9038C40.7298 18.553 41.6088 18.9184 42.5257 18.9197L48.5143 18.9249C52.9025 18.9249 56 15.844 56 11.4294V0.0568161C55.1681 0.182816 54.4088 0.602936 53.8595 1.24111C53.3102 1.87929 53.0074 2.69331 53.0057 3.53578V11.5483C53.0329 12.1461 52.9353 12.743 52.7192 13.301C52.5031 13.8589 52.1732 14.3657 51.7506 14.7888C51.328 15.212 50.8219 15.5423 50.2647 15.7587C49.7075 15.9751 49.1113 16.0728 48.5143 16.0456H42.0095V0.0361328C41.1913 0.161942 40.445 0.576531 39.9054 1.20504C39.3658 1.83355 39.0683 2.63455 39.0668 3.46341V15.4563C39.0682 16.3744 39.4331 17.2546 40.0814 17.9038Z" fill="white"/>
</svg>
