<svg width="17" height="18" viewBox="0 0 17 18" fill="none" xmlns="http://www.w3.org/2000/svg">
<path d="M3 8.49868C3 8.77403 2.77619 8.99725 2.50011 8.99725C2.22403 8.99725 2.00022 8.77403 2.00022 8.49868C2.00022 8.22334 2.22403 8.00012 2.50011 8.00012C2.77619 8.00012 3 8.22334 3 8.49868Z" fill="#6E6E73"/>
<path d="M5 8.49868C5 8.77403 4.77619 8.99725 4.50011 8.99725C4.22403 8.99725 4.00022 8.77403 4.00022 8.49868C4.00022 8.22334 4.22403 8.00012 4.50011 8.00012C4.77619 8.00012 5 8.22334 5 8.49868Z" fill="#6E6E73"/>
<path d="M6.49886 8.99725C6.77494 8.99725 6.99875 8.77403 6.99875 8.49868C6.99875 8.22334 6.77494 8.00012 6.49886 8.00012C6.22278 8.00012 5.99897 8.22334 5.99897 8.49868C5.99897 8.77403 6.22278 8.99725 6.49886 8.99725Z" fill="#6E6E73"/>
<path d="M3.00079 10.5001C3.00079 10.7755 2.77698 10.9987 2.5009 10.9987C2.22482 10.9987 2.00101 10.7755 2.00101 10.5001C2.00101 10.2248 2.22482 10.0016 2.5009 10.0016C2.77698 10.0016 3.00079 10.2248 3.00079 10.5001Z" fill="#6E6E73"/>
<path d="M4.50011 10.9987C4.77619 10.9987 5 10.7755 5 10.5001C5 10.2248 4.77619 10.0016 4.50011 10.0016C4.22403 10.0016 4.00022 10.2248 4.00022 10.5001C4.00022 10.7755 4.22403 10.9987 4.50011 10.9987Z" fill="#6E6E73"/>
<path d="M7 10.5016C7 10.7769 6.77619 11.0001 6.50011 11.0001C6.22403 11.0001 6.00022 10.7769 6.00022 10.5016C6.00022 10.2262 6.22403 10.003 6.50011 10.003C6.77619 10.003 7 10.2262 7 10.5016Z" fill="#6E6E73"/>
<path d="M2.5009 13.0001C2.77698 13.0001 3.00079 12.7769 3.00079 12.5016C3.00079 12.2262 2.77698 12.003 2.5009 12.003C2.22482 12.003 2.00101 12.2262 2.00101 12.5016C2.00101 12.7769 2.22482 13.0001 2.5009 13.0001Z" fill="#6E6E73"/>
<path d="M5 12.5016C5 12.7769 4.77619 13.0001 4.50011 13.0001C4.22403 13.0001 4.00022 12.7769 4.00022 12.5016C4.00022 12.2262 4.22403 12.003 4.50011 12.003C4.77619 12.003 5 12.2262 5 12.5016Z" fill="#6E6E73"/>
<path d="M6.50011 13.0001C6.77619 13.0001 7 12.7769 7 12.5016C7 12.2262 6.77619 12.003 6.50011 12.003C6.22403 12.003 6.00022 12.2262 6.00022 12.5016C6.00022 12.7769 6.22403 13.0001 6.50011 13.0001Z" fill="#6E6E73"/>
<path d="M10.4878 6.99557C10.2451 6.99557 9.98795 7.25207 9.98795 7.49413V10.4999C9.98795 10.7419 10.2451 10.9984 10.4878 10.9984C10.7305 10.9984 10.9877 10.7419 10.9877 10.4999V7.49413C10.9877 7.25207 10.7305 6.99557 10.4878 6.99557Z" fill="#6E6E73"/>
<path fill-rule="evenodd" clip-rule="evenodd" d="M15.9831 -0.00012207H0L0.000221252 17.5001C0.000221252 17.7422 0.25758 18.0001 0.500221 18.0001H15.5014C15.7441 18.0001 16.0014 17.7422 16.0014 17.5001L15.9831 -0.00012207ZM1 2.99988L1.00022 15.0001L8 15.0087L8.00368 0.999878H1V1.99988L4.51651 2.00155C4.79259 2.00155 5.00011 2.2274 5.00011 2.50275C5.00011 2.50275 5.00011 2.50275 5.00011 2.50011C5.00011 2.50275 5.00011 2.50275 5.00011 2.50011V4.00275C5.17038 4.04089 5.3536 4.16372 5.51475 4.23908C5.83619 4.38941 6.12826 4.60976 6.37428 4.88753C6.6203 5.16531 6.81545 5.49507 6.9486 5.858C6.96649 5.90676 6.98321 5.95599 6.99875 6.00563L7.00011 6.003C7.27619 6.003 7.5 6.22621 7.5 6.50156C7.5 6.77691 7.27619 7.00012 7.00011 7.00012H2.00011C1.72403 7.00012 1.50022 6.77691 1.50022 6.50156C1.50022 6.22621 1.72403 6.003 2.00011 6.003L2.00297 6.00563C2.01852 5.95599 2.03524 5.90676 2.05312 5.858C2.18627 5.49507 2.38142 5.16531 2.62744 4.88753C2.87346 4.60976 3.16553 4.38941 3.48698 4.23908C3.65798 4.15911 3.81901 4.04077 4.00011 4.00275V3.00275L1 2.99988ZM15.0016 17.0001H1.00022V16.0001H15.0016V17.0001ZM15.0016 15.0087H9.00346V0.999878H14.9877L15.0016 15.0087ZM5.92729 6.00563H3.07444C3.15709 5.83397 3.25953 5.68001 3.37675 5.54766C3.53658 5.36721 3.71954 5.23163 3.91144 5.14188C4.10285 5.05236 4.30271 5.0085 4.50086 5.0085C4.69901 5.0085 4.89888 5.05236 5.09028 5.14188C5.28218 5.23163 5.46515 5.36721 5.62497 5.54766C5.74219 5.68001 5.84463 5.83397 5.92729 6.00563Z" fill="#6E6E73"/>
</svg>
