<svg id="Layer_1" data-name="Layer 1" xmlns="http://www.w3.org/2000/svg" width="21" height="21" viewBox="0 0 21 21"><defs><style>.cls-1,.cls-2{fill:#FFFFFF;}.cls-2{fill-rule:evenodd;}</style></defs><path class="cls-1" d="M4,8.5a.5.5,0,0,1-1,0,.5.5,0,0,1,1,0Z" transform="translate(0 0)"/><path class="cls-1" d="M6,8.5a.5.5,0,0,1-1,0,.5.5,0,0,1,1,0Z" transform="translate(0 0)"/><path class="cls-1" d="M7.5,9A.51.51,0,0,0,8,8.5.5.5,0,0,0,7.5,8a.5.5,0,0,0-.5.5A.5.5,0,0,0,7.5,9Z" transform="translate(0 0)"/><path class="cls-1" d="M4,10.5a.5.5,0,1,1-.5-.5A.5.5,0,0,1,4,10.5Z" transform="translate(0 0)"/><path class="cls-1" d="M5.5,11a.5.5,0,1,0-.5-.5A.5.5,0,0,0,5.5,11Z" transform="translate(0 0)"/><path class="cls-1" d="M8,10.5a.5.5,0,0,1-1,0,.5.5,0,0,1,1,0Z" transform="translate(0 0)"/><path class="cls-1" d="M3.5,13a.5.5,0,0,0,.5-.5.5.5,0,0,0-1,0A.5.5,0,0,0,3.5,13Z" transform="translate(0 0)"/><path class="cls-1" d="M6,12.5a.5.5,0,0,1-1,0,.5.5,0,0,1,1,0Z" transform="translate(0 0)"/><path class="cls-1" d="M7.5,13a.5.5,0,0,0,.5-.5.5.5,0,0,0-1,0A.5.5,0,0,0,7.5,13Z" transform="translate(0 0)"/><path class="cls-1" d="M12.49,7a.54.54,0,0,0-.5.49v3a.5.5,0,0,0,1,0v-3A.54.54,0,0,0,12.49,7Z" transform="translate(0 0)"/><path class="cls-2" d="M21,0H0V20.5a.55.55,0,0,0,.5.5h20a.55.55,0,0,0,.5-.5ZM1,3V18h9V1H1V2H5.52A.49.49,0,0,1,6,2.5H6V4a2.63,2.63,0,0,1,.51.24,2.48,2.48,0,0,1,.86.65,3,3,0,0,1,.58,1L8,6H8a.5.5,0,0,1,.5.5A.5.5,0,0,1,8,7H3a.5.5,0,0,1-.5-.5A.5.5,0,0,1,3,6H3a.88.88,0,0,0,0-.15,3.17,3.17,0,0,1,.58-1,2.58,2.58,0,0,1,.86-.65A2.63,2.63,0,0,1,5,4V3ZM20,20H1V19H20Zm0-2H11V1h9ZM6.93,6H4.07a2,2,0,0,1,.31-.46,1.69,1.69,0,0,1,.53-.41,1.4,1.4,0,0,1,1.18,0,1.58,1.58,0,0,1,.53.41A2,2,0,0,1,6.93,6Z" transform="translate(0 0)"/></svg>