<svg id="Layer_1" data-name="Layer 1" xmlns="http://www.w3.org/2000/svg" width="33" height="50" viewBox="0 0 33 50"><defs><style>.cls-1{fill:#6e6e73;}</style></defs><path class="cls-1" d="M30,22h2.25a.77.77,0,0,1,.75.75v9a.24.24,0,0,1-.23.25h-.52a.23.23,0,0,1-.25-.21V23H29V17H24v3H16V31.75a.24.24,0,0,1-.23.25h-.52a.23.23,0,0,1-.25-.21v-12a.74.74,0,0,1,.73-.75H17V16.25a.24.24,0,0,1,.23-.25h.52a.26.26,0,0,1,.25.25V19h2V16.25a.24.24,0,0,1,.23-.25h.52a.26.26,0,0,1,.25.25V19h2V16.75a.74.74,0,0,1,.73-.75h5.52a.77.77,0,0,1,.75.75Z"/><path class="cls-1" d="M18,22.3a.29.29,0,0,1,.28-.3H19.7a.29.29,0,0,1,.3.28V23.7a.29.29,0,0,1-.28.3H18.3a.29.29,0,0,1-.3-.28V22.3Z"/><path class="cls-1" d="M18.3,25a.29.29,0,0,0-.3.28V26.7a.29.29,0,0,0,.28.3H19.7a.29.29,0,0,0,.3-.28V25.3a.29.29,0,0,0-.28-.3H18.3Z"/><path class="cls-1" d="M18,28.3a.29.29,0,0,1,.28-.3H19.7a.29.29,0,0,1,.3.28V29.7a.29.29,0,0,1-.28.3H18.3a.29.29,0,0,1-.3-.28V28.3Z"/><path class="cls-1" d="M22.3,22a.29.29,0,0,0-.3.28V23.7a.29.29,0,0,0,.28.3H23.7a.29.29,0,0,0,.3-.28V22.3a.29.29,0,0,0-.28-.3H22.3Z"/><path class="cls-1" d="M22,25.3a.29.29,0,0,1,.28-.3H23.7a.29.29,0,0,1,.3.28V26.7a.29.29,0,0,1-.28.3H22.3a.29.29,0,0,1-.3-.28V25.3Z"/><path class="cls-1" d="M26,19.3a.29.29,0,0,1,.28-.3H27.7a.29.29,0,0,1,.3.28V20.7a.29.29,0,0,1-.28.3H26.3a.29.29,0,0,1-.3-.28V19.3Z"/><path class="cls-1" d="M26.3,22a.29.29,0,0,0-.3.28V23.7a.29.29,0,0,0,.28.3H27.7a.29.29,0,0,0,.3-.28V22.3a.29.29,0,0,0-.28-.3H26.3Z"/><path class="cls-1" d="M29,25.3a.29.29,0,0,1,.28-.3H30.7a.29.29,0,0,1,.3.28V26.7a.29.29,0,0,1-.28.3H29.3a.29.29,0,0,1-.3-.28V25.3Z"/><path class="cls-1" d="M29.3,28a.29.29,0,0,0-.3.28V29.7a.29.29,0,0,0,.28.3H30.7a.29.29,0,0,0,.3-.28V28.3a.29.29,0,0,0-.28-.3H29.3Z"/><path class="cls-1" d="M22,28.3a.29.29,0,0,1,.28-.3H23.7a.29.29,0,0,1,.3.28V29.7a.29.29,0,0,1-.28.3H22.3a.29.29,0,0,1-.3-.28V28.3Z"/><path class="cls-1" d="M26,25.3a.29.29,0,0,1,.28-.3H27.7a.29.29,0,0,1,.3.28V26.7a.29.29,0,0,1-.28.3H26.3a.29.29,0,0,1-.3-.28V25.3Z"/></svg>