<svg width="87" height="60" viewBox="0 0 87 60" fill="none" xmlns="http://www.w3.org/2000/svg">
<rect x="27.5" y="0.5" width="59" height="59" rx="3.5" fill="white" stroke="#E7E7E9"/>
<g clip-path="url(#clip0_2079_8420)">
<path d="M46.3259 19.2671C46.2671 19.1038 46.2148 18.9339 46.1887 18.7575C46.0907 18.1239 46.2671 17.4706 46.6525 16.935C46.6525 16.9219 46.6394 16.9088 46.6329 16.8892C46.5806 16.7912 46.4826 16.7194 46.3651 16.6998C45.4505 16.5234 44.549 16.2752 43.6737 15.9551C43.6541 15.9943 43.6279 16.0335 43.6018 16.0792C43.4842 16.3078 43.2948 16.4907 43.0727 16.6083C43.0335 16.6345 42.9943 16.6541 42.9485 16.6802C43.2686 17.5555 43.5234 18.457 43.6933 19.3716C43.7129 19.4826 43.7847 19.5806 43.8827 19.6394C43.8958 19.646 43.9088 19.6525 43.9284 19.659C44.4641 19.2801 45.1108 19.1038 45.7445 19.2017C45.9208 19.2279 46.0907 19.2736 46.254 19.3389C46.2671 19.3259 46.2801 19.3193 46.2932 19.3128C46.3063 19.2997 46.3128 19.2867 46.3193 19.2801" fill="#6E6E73"/>
<path d="M42.6545 47.0431C42.5957 47.0757 42.5304 47.1084 42.4651 47.1345C42.5631 47.2978 42.6415 47.4938 42.7133 47.7029C43.0595 47.4808 43.3796 47.1737 43.6475 46.8014C43.5887 46.6707 43.5168 46.5531 43.445 46.4355C43.3404 46.5205 43.2359 46.5989 43.1183 46.6642C42.9942 46.821 42.844 46.9516 42.6545 47.0365" fill="#6E6E73"/>
<path d="M42.9355 50.4213C42.8701 50.859 42.7526 51.3032 42.5435 51.7409C42.047 52.7926 41.1129 53.5635 40.1004 53.7594C39.4732 53.877 38.8461 53.7594 38.415 53.4459C37.9773 53.1258 37.7356 52.5574 37.8336 52.0936C37.8793 51.8911 37.9838 51.7082 38.1406 51.571C38.0491 51.7866 38.0426 52.0283 38.121 52.2504C38.2125 52.4987 38.3888 52.7012 38.624 52.8187C38.7285 52.871 38.8396 52.9037 38.9506 52.9167C39.2381 52.9494 39.532 52.8775 39.7672 52.7012C40.0285 52.5052 40.1983 52.2178 40.2506 51.8977C40.3094 51.5318 40.2245 51.166 40.0089 50.8655C39.8978 50.7087 39.7541 50.5716 39.5973 50.467C39.336 50.3886 39.0747 50.2972 38.82 50.1861C38.3954 50.1469 37.9707 50.2515 37.6115 50.4866C37.1346 50.8002 36.8014 51.2836 36.6773 51.8454C36.4683 52.7795 36.8929 53.8182 37.7225 54.4257C38.2516 54.8112 38.9245 55.0137 39.63 55.0137C39.8652 55.0137 40.1004 54.9941 40.3355 54.9483C41.7139 54.687 42.9812 53.6614 43.641 52.27C44.0329 51.4404 44.1832 50.5912 44.2028 49.8203C43.8239 50.0751 43.4189 50.2776 43.0008 50.4278C42.9812 50.4278 42.9681 50.4344 42.9485 50.4409" fill="#6E6E73"/>
<path d="M78.8317 9.66507C78.2699 9.78919 77.7931 10.1223 77.473 10.5992C77.2378 10.9585 77.1333 11.3831 77.1725 11.8077C77.2835 12.069 77.375 12.3303 77.4534 12.5916C77.5644 12.7484 77.6951 12.8921 77.8519 13.0032C78.1524 13.2188 78.5182 13.3037 78.884 13.2449C79.2041 13.1926 79.4915 13.0228 79.6875 12.7615C79.8639 12.5263 79.9423 12.2389 79.9031 11.9515C79.89 11.8339 79.8573 11.7228 79.8051 11.6248C79.6875 11.3897 79.485 11.2067 79.2367 11.1218C79.0146 11.0434 78.7729 11.05 78.5574 11.1414C78.6945 10.9912 78.8775 10.8801 79.08 10.8409C79.5568 10.7364 80.1121 10.9781 80.4322 11.4223C80.7458 11.8535 80.8634 12.4871 80.7458 13.1077C80.5563 14.1203 79.7789 15.0544 78.7272 15.5509C78.2895 15.7599 77.8453 15.8775 77.4076 15.9428C77.4076 15.9624 77.3946 15.9755 77.3946 15.9951C77.2443 16.4132 77.0418 16.8182 76.787 17.1971C77.5579 17.1709 78.4071 17.0272 79.2367 16.6353C80.6282 15.982 81.6538 14.7147 81.9216 13.3298C82.1045 12.3761 81.9151 11.4223 81.399 10.7168C80.798 9.88718 79.7594 9.46909 78.8252 9.6716" fill="#6E6E73"/>
<path d="M74.1348 15.4655C74.1087 15.5308 74.0826 15.5896 74.0499 15.6484C73.9585 15.8444 73.8278 16.0012 73.671 16.1253C73.6057 16.2364 73.5273 16.3409 73.4424 16.4389C73.56 16.5107 73.6776 16.576 73.8082 16.6348C74.1806 16.3735 74.4876 16.0534 74.7097 15.7072C74.4941 15.6354 74.3047 15.557 74.1348 15.459" fill="#6E6E73"/>
<path d="M37.8597 41.9225C37.8466 42.1185 37.8336 42.3145 37.8205 42.5039C38.1667 42.7522 38.4542 43.0919 38.6436 43.4773C38.722 43.6341 38.7808 43.7974 38.8396 43.9672C38.82 43.3532 38.9637 42.7326 39.2511 42.1773C39.2054 42.1512 39.1662 42.1316 39.127 42.112C39.1139 42.112 39.1074 42.112 39.0943 42.112C38.6697 42.112 38.2516 42.0467 37.8597 41.916" fill="#6E6E73"/>
<path d="M69.1178 12.134C69.1374 12.1797 69.1636 12.2189 69.1832 12.2646C69.7384 11.9772 70.359 11.8335 70.9731 11.8531C70.8032 11.7943 70.6334 11.7355 70.4831 11.6571C70.0977 11.4676 69.7646 11.1802 69.5098 10.834C69.3204 10.847 69.1244 10.8601 68.9284 10.8666C69.0591 11.2717 69.1244 11.6963 69.1178 12.134Z" fill="#6E6E73"/>
<path d="M49.8273 21.7754C49.5464 21.7754 49.285 21.8864 49.0825 22.0824C48.8866 22.2784 48.7755 22.5462 48.7755 22.8271C48.7755 23.4085 49.2459 23.8789 49.8273 23.8789C49.8534 23.8789 49.873 23.8789 49.8926 23.8789C50.0886 23.7874 50.2911 23.709 50.4936 23.6372C50.5197 23.6176 50.5458 23.598 50.5654 23.5784C50.5916 23.5588 50.6046 23.5326 50.6242 23.5065C50.6961 23.304 50.7745 23.1015 50.8659 22.9055C50.8659 22.8794 50.8659 22.8598 50.8659 22.8337C50.8659 22.2523 50.3956 21.7819 49.8142 21.7819" fill="#6E6E73"/>
<path d="M40.5903 26.3293C40.7079 27.8317 40.3421 29.4518 39.4732 31.2874C39.4014 31.4442 39.434 31.6206 39.5647 31.7382C39.6365 31.8035 39.728 31.8362 39.826 31.8362C39.8913 31.8362 39.9632 31.8166 40.022 31.7839C40.7275 31.3593 41.3546 30.791 41.8707 30.1377C41.6486 28.8704 41.2827 27.6292 40.7667 26.4534C40.6948 26.2966 40.6295 26.1463 40.5576 25.9961C40.5707 26.1071 40.5838 26.2182 40.5968 26.3293" fill="#6E6E73"/>
<path d="M45.7379 27.6028C45.7052 27.5833 45.666 27.5702 45.6269 27.5637C44.9213 27.4199 44.2158 27.0411 43.5234 26.4531C43.8043 27.2174 44.0394 28.0013 44.2158 28.7983C44.758 28.7134 45.261 28.4978 45.7052 28.2953C45.8555 28.23 45.9469 28.0667 45.9339 27.9033C45.9339 27.8772 45.9208 27.8511 45.9143 27.8315C45.8555 27.7596 45.7967 27.6878 45.7444 27.6094" fill="#6E6E73"/>
<path d="M57.1372 14.8708C57.7904 14.3547 58.3588 13.7341 58.7834 13.022C58.8683 12.8783 58.8552 12.6889 58.7376 12.5648C58.6201 12.4406 58.4371 12.4015 58.2869 12.4733C56.4513 13.3421 54.8312 13.708 53.3287 13.5904C53.2177 13.5838 53.1066 13.5708 52.9955 13.5577C53.1393 13.6296 53.296 13.6949 53.4528 13.7668C54.6287 14.2828 55.8699 14.6486 57.1372 14.8708Z" fill="#6E6E73"/>
<path d="M53.4463 16.5163C54.0407 17.2087 54.4131 17.9143 54.5568 18.6198C54.5634 18.659 54.5764 18.6982 54.6025 18.7308C54.6744 18.7896 54.7463 18.8419 54.8181 18.9007C54.8443 18.9072 54.8638 18.9203 54.89 18.9203C54.903 18.9203 54.9161 18.9203 54.9357 18.9203C55.086 18.9203 55.2231 18.8353 55.2885 18.6916C55.491 18.2474 55.7065 17.7379 55.7915 17.1957C54.9945 17.0193 54.2106 16.7907 53.4463 16.5098" fill="#6E6E73"/>
<path d="M47.0575 9.68359C45.6399 10.5981 44.3791 11.7544 43.3339 13.0936C43.3339 13.1001 43.3274 13.1066 43.3209 13.1197C43.8696 13.0544 44.4183 13.0152 44.9671 13.0021C45.6595 12.2443 46.4369 11.5715 47.2665 10.9901C47.1424 10.559 47.0705 10.1213 47.0575 9.69013" fill="#6E6E73"/>
<path d="M60.8281 15.0937C60.7366 15.0087 60.6452 14.9303 60.5341 14.865C60.1095 14.6102 59.613 14.5319 59.1296 14.6429C58.8226 14.7148 58.5417 14.8519 58.3 15.0349C59.1427 15.1198 59.9854 15.1394 60.8281 15.0937Z" fill="#6E6E73"/>
<path d="M37.9838 20.266C38.5717 19.4298 39.2446 18.6524 39.9958 17.9665C40.0089 17.4178 40.0481 16.8625 40.1134 16.3203C40.1134 16.3203 40.1004 16.3203 40.0938 16.3268C38.7547 17.3721 37.5984 18.6394 36.6773 20.0569C37.115 20.0765 37.5461 20.1484 37.9773 20.2725" fill="#6E6E73"/>
<path d="M34.3779 28.8314C34.5216 30.5691 35.0246 32.1695 35.8412 33.4891C36.305 33.7766 36.7165 34.1881 37.0235 34.7042C37.1215 34.874 37.2065 35.0439 37.2783 35.2137C37.4612 35.377 37.6507 35.5338 37.8466 35.6775C38.1079 35.6383 38.3758 35.6253 38.6436 35.6449C39.5451 35.7298 40.3094 36.1936 40.7406 36.9187C40.7602 36.9514 40.7732 36.984 40.7928 37.0167C41.0476 37.0689 41.2958 37.1016 41.5506 37.1212C41.6616 36.775 41.7596 36.383 41.8446 35.9388C40.0481 35.8735 38.219 34.8348 37.0693 33.1821C36.2331 31.9866 35.7301 30.4776 35.5799 28.8184C35.1879 28.8967 34.7829 28.9098 34.3844 28.8445" fill="#6E6E73"/>
<path d="M45.2284 32.384C45.6138 33.0764 45.4701 34.0825 44.8822 34.7814C44.7842 34.899 44.6666 35.0035 44.549 35.1081C44.4968 35.5327 44.438 35.9508 44.3596 36.3688C44.34 36.4603 44.3204 36.5583 44.3008 36.6563C44.8887 36.3884 45.3982 36.0161 45.7902 35.5523C46.7048 34.4744 46.9007 32.9327 46.2671 31.8026C45.9143 31.1689 45.2611 30.679 44.5164 30.4961C44.5164 30.4961 44.5098 30.4961 44.5033 30.4961C44.5621 30.9403 44.6013 31.378 44.6274 31.8222C44.8756 31.9594 45.0912 32.1554 45.2153 32.384" fill="#6E6E73"/>
<path d="M49.8208 8.44922C49.7032 8.72359 49.6313 9.01755 49.6117 9.31151C49.6052 9.42257 49.6117 9.54015 49.6117 9.6512C49.775 9.57935 49.9449 9.50749 50.1082 9.44216C49.9449 9.1286 49.8469 8.79544 49.8142 8.44922" fill="#6E6E73"/>
<path d="M36.3115 22.6123C36.0175 22.6319 35.7235 22.7038 35.4492 22.8214C35.7954 22.854 36.1285 22.952 36.4421 23.1153C36.5074 22.9455 36.5793 22.7822 36.6511 22.6123C36.5336 22.6058 36.4225 22.6058 36.3115 22.6123Z" fill="#6E6E73"/>
<path d="M42.0339 31.3008C41.851 31.5425 41.7139 31.8234 41.642 32.1304C41.5309 32.6138 41.6093 33.1103 41.8641 33.5349C41.9294 33.646 42.0078 33.7374 42.0927 33.8289C42.1385 32.9862 42.1189 32.1435 42.0339 31.3008Z" fill="#6E6E73"/>
<path d="M62.1019 17.5483C61.9974 17.6725 61.8929 17.7835 61.7753 17.888C61.0828 18.476 60.0768 18.6197 59.3844 18.2343C59.1492 18.1036 58.9597 17.8946 58.8226 17.6398C58.3784 17.6137 57.9341 17.5679 57.4899 17.5091C57.4899 17.5091 57.4899 17.5157 57.4899 17.5222C57.6728 18.2604 58.1628 18.9202 58.7964 19.2729C59.9266 19.9066 61.4682 19.7106 62.5461 18.7961C63.0034 18.4041 63.3757 17.8946 63.6501 17.3066C63.5521 17.3262 63.4541 17.3458 63.3627 17.3654C62.9446 17.4438 62.5265 17.5026 62.1019 17.5483Z" fill="#6E6E73"/>
<path d="M60.4884 8.84024C59.1688 8.01714 57.5683 7.52067 55.8307 7.37695C55.896 7.78197 55.8895 8.18699 55.8111 8.57241C57.4704 8.72265 58.9794 9.22566 60.1748 10.0618C61.8276 11.2115 62.8662 13.0407 62.9316 14.8371C63.3758 14.7522 63.7677 14.6542 64.1139 14.5431C64.0943 14.2884 64.0552 14.0336 64.0029 13.7854C63.9702 13.7658 63.9376 13.7527 63.9114 13.7396C63.1863 13.302 62.729 12.5377 62.6376 11.6427C62.6115 11.3749 62.6245 11.107 62.6703 10.8457C62.5265 10.6498 62.3698 10.4603 62.1999 10.2774C62.0301 10.2055 61.8668 10.1206 61.6969 10.0226C61.1874 9.7156 60.7693 9.30405 60.4819 8.84024" fill="#6E6E73"/>
<path d="M42.6088 15.6094C42.6676 15.7466 42.7003 15.8903 42.7068 16.0405C42.7264 16.034 42.7395 16.0209 42.7591 16.0079C42.8636 15.9556 42.9485 15.8641 43.0073 15.7596C43.0138 15.74 43.0269 15.727 43.04 15.7074C42.8897 15.7008 42.746 15.6616 42.6154 15.6094" fill="#6E6E73"/>
<path d="M47.2861 22.9705C47.5474 22.3368 47.4886 21.5725 47.1294 20.9323C46.7962 20.3444 46.2605 19.959 45.653 19.8675C44.9475 19.763 44.2093 20.1223 43.7716 20.7886C43.3666 21.4027 43.334 22.1343 43.6867 22.6896C43.8631 22.9705 44.2289 23.0554 44.5098 22.879C44.7907 22.7026 44.8756 22.3368 44.6993 22.0559C44.549 21.8142 44.7189 21.5268 44.7711 21.4418C44.9475 21.174 45.2349 21.0107 45.4766 21.0499C45.7183 21.0891 45.9404 21.2589 46.0907 21.5202C46.2736 21.8403 46.3063 22.2192 46.1821 22.5132C46.1495 22.585 46.1103 22.6569 46.0646 22.7288C46.3781 22.8921 46.6198 23.186 46.7113 23.5584C46.7243 23.6237 46.7439 23.6825 46.757 23.7478C46.9791 23.5257 47.162 23.2644 47.2861 22.977" fill="#6E6E73"/>
<path d="M42.5566 21.919C42.1907 21.2592 41.9882 20.4361 41.9033 19.319C41.8249 18.2738 41.8641 17.2221 42.0209 16.1834C42.0666 15.8568 41.8445 15.5563 41.5179 15.504C41.1913 15.4583 40.8908 15.6804 40.8385 16.007C40.6687 17.1306 40.6295 18.2738 40.7079 19.4039C40.8058 20.6908 41.0541 21.6773 41.5048 22.4873C42.1058 23.5848 43.1053 24.3491 44.1832 24.545C44.2289 24.5516 44.2811 24.5581 44.3334 24.5646C44.2942 24.4274 44.2615 24.2903 44.2289 24.1465C44.1636 23.8656 44.1962 23.5913 44.3007 23.3496C43.6148 23.1928 42.9681 22.6702 42.5566 21.919Z" fill="#6E6E73"/>
<path d="M49.7293 19.0637C49.6639 19.1094 49.5921 19.1486 49.5137 19.1812C49.2197 19.3054 48.8408 19.2662 48.5207 19.0898C48.2594 18.9395 48.0831 18.7174 48.0504 18.4757C48.0112 18.234 48.1745 17.9466 48.4424 17.7702C48.5273 17.7179 48.8147 17.5481 49.0564 17.6984C49.3373 17.8747 49.7031 17.7898 49.8795 17.5089C50.0559 17.228 49.971 16.8622 49.6901 16.6858C49.1348 16.3396 48.4032 16.3722 47.7891 16.7707C47.1293 17.2084 46.7635 17.9466 46.868 18.6521C46.9595 19.2596 47.3449 19.7953 47.9328 20.1285C48.3052 20.3375 48.7233 20.4485 49.1283 20.4485C49.4157 20.4485 49.7031 20.3963 49.9644 20.2852C50.2584 20.1611 50.5197 19.9847 50.7418 19.7626C50.6765 19.743 50.6177 19.73 50.5458 19.7169C50.1735 19.6254 49.886 19.3837 49.7162 19.0702" fill="#6E6E73"/>
<path d="M51.1469 17.2221C51.2906 17.2548 51.4278 17.294 51.5649 17.3332C51.5584 17.2809 51.5519 17.2352 51.5453 17.1829C51.3559 16.1116 50.5851 15.1121 49.4941 14.5046C48.6776 14.0539 47.6977 13.8056 46.4108 13.7076C45.2806 13.6227 44.1374 13.6684 43.0138 13.8383C42.6872 13.884 42.4651 14.191 42.5108 14.5177C42.5566 14.8443 42.8636 15.0664 43.1902 15.0207C44.2289 14.8639 45.2806 14.8247 46.3258 14.9031C47.4364 14.9815 48.266 15.1905 48.9258 15.5563C49.677 15.9679 50.1996 16.6146 50.3564 17.3005C50.5981 17.196 50.879 17.1568 51.1599 17.2287" fill="#6E6E73"/>
<path d="M38.5782 36.317C38.2647 36.2844 37.9577 36.317 37.6702 36.4085C37.6702 36.4216 37.6702 36.4346 37.6768 36.4412C37.7682 36.8331 37.8335 37.2185 37.8793 37.6039C38.0556 37.5256 38.2582 37.4864 38.4672 37.506C38.7677 37.5321 39.0094 37.6693 39.14 37.8783C39.2315 38.0286 39.2576 38.1984 39.2184 38.3683C39.1923 38.4728 39.1335 38.5577 39.0421 38.6165C39.0029 38.6426 38.9571 38.6557 38.9114 38.6492C39.0159 38.4009 38.9506 38.107 38.722 37.9371C38.4737 37.7477 38.1275 37.7869 37.925 38.0155C37.9642 38.4924 37.9838 38.9627 37.9838 39.4265C38.1602 39.629 38.3953 39.7662 38.6632 39.8185C39.0225 39.8903 39.3883 39.8185 39.6953 39.6225C40.0481 39.3939 40.2898 39.0476 40.3878 38.6361C40.4988 38.1657 40.4204 37.6758 40.1722 37.2643C39.8521 36.7286 39.2707 36.3824 38.5913 36.317" fill="#6E6E73"/>
<path d="M43.6932 36.2379C44.353 32.7234 43.9219 28.9803 42.4847 25.701C41.8315 24.2181 41.0802 23.0945 40.1787 22.2779C39.0159 21.2197 37.5657 20.6579 36.1939 20.7428C34.7306 20.8342 33.3522 21.6704 32.5945 22.9181C32.0261 23.8588 31.8497 24.9563 32.1176 25.9296C32.4246 27.0336 33.3 27.9024 34.3517 28.1311C35.521 28.3858 36.7622 27.7914 37.2391 26.7462C37.4481 26.2889 37.4873 25.7532 37.3501 25.2372C37.1868 24.6296 36.8014 24.1136 36.2592 23.7869C35.8019 23.5126 35.2597 23.4277 34.7371 23.5452C34.2864 23.6498 33.9075 23.9176 33.6527 24.3095C33.4894 24.5643 33.4045 24.8583 33.411 25.1588C33.411 25.3743 33.4633 25.5899 33.5547 25.7859C33.7246 26.1452 34.0251 26.4261 34.3974 26.5633C34.7241 26.6874 35.0834 26.6809 35.4034 26.5371C35.6909 26.413 35.913 26.1844 36.0306 25.8969C36.1024 25.714 36.1351 25.5246 36.1155 25.3352C36.1416 25.4005 36.1678 25.4658 36.1873 25.5377C36.2527 25.7859 36.2396 26.0407 36.1482 26.2497C35.913 26.7788 35.214 27.0924 34.6065 26.9618C33.9924 26.8246 33.4502 26.2824 33.2673 25.6095C33.0909 24.9628 33.2216 24.1854 33.6135 23.5322C34.1623 22.6242 35.2009 21.997 36.2592 21.9317C37.3044 21.8664 38.4411 22.3106 39.3622 23.1598C40.133 23.8653 40.7928 24.8517 41.3742 26.1844C42.7199 29.2416 43.1184 32.7365 42.5043 36.0224C42.3018 37.1133 42.0209 37.9299 41.6289 38.5831C41.1521 39.3736 40.4858 39.9288 39.7606 40.1509C39.127 40.3404 38.4476 40.2424 37.9511 39.9223C37.9381 40.36 37.9185 40.7911 37.8923 41.2223C38.2712 41.366 38.6828 41.4444 39.1009 41.4444C39.3491 41.4444 39.5973 41.4182 39.8456 41.366C39.924 41.2876 40.0023 41.2092 40.0873 41.1373C40.5511 40.7454 41.1129 40.4906 41.7008 40.36C42.0536 40.0333 42.3802 39.6479 42.648 39.2037C43.2621 38.1846 43.5299 37.0284 43.6736 36.251" fill="#6E6E73"/>
<path d="M68.1249 13.1066C68.1968 13.0217 68.2686 12.9433 68.3405 12.8715C68.4842 12.2051 68.4385 11.5192 68.2098 10.9117C67.7787 10.9378 67.3475 10.964 66.9098 10.9705C67.2365 11.4604 67.3345 12.1398 67.1385 12.78C66.9164 13.5051 66.3611 14.1714 65.5707 14.6483C64.9174 15.0403 64.1074 15.3212 63.0099 15.5237C59.7241 16.1377 56.2357 15.7392 53.1719 14.3935C51.8458 13.8121 50.8529 13.1523 50.1474 12.375C49.3047 11.4474 48.8605 10.3172 48.9192 9.27203C48.9846 8.21375 49.6182 7.17508 50.5263 6.62635C51.1795 6.22787 51.9569 6.10375 52.6036 6.28013C53.2764 6.46304 53.8186 7.00524 53.9558 7.61929C54.093 8.23335 53.7729 8.9258 53.2438 9.16097C53.0413 9.25243 52.78 9.27203 52.5317 9.2067C52.4599 9.1871 52.3946 9.16097 52.3292 9.13484C52.5187 9.15444 52.7081 9.12178 52.891 9.04992C53.1785 8.93233 53.4071 8.71023 53.5312 8.4228C53.6684 8.1027 53.6815 7.74341 53.5573 7.41679C53.4136 7.04443 53.1393 6.74394 52.78 6.57409C52.584 6.48263 52.3684 6.43037 52.1529 6.43037C51.8524 6.43037 51.5584 6.50876 51.3036 6.67208C50.9182 6.92031 50.6438 7.30573 50.5393 7.74995C50.4152 8.27255 50.5001 8.81475 50.781 9.27203C51.1076 9.81423 51.6237 10.1996 52.2312 10.363C52.7473 10.5001 53.283 10.4609 53.7403 10.2519C54.7855 9.78156 55.3799 8.54038 55.1252 7.36453C54.8965 6.31279 54.0277 5.4309 52.9237 5.1304C51.9503 4.86257 50.8529 5.03894 49.9122 5.60727C48.6579 6.36505 47.8283 7.74341 47.7369 9.2067C47.6519 10.5785 48.2137 12.0288 49.272 13.1915C50.0886 14.093 51.2122 14.8443 52.6951 15.4975C54.9684 16.497 57.4638 17.0065 59.9527 17.0065C61.0567 17.0065 62.1542 16.9086 63.232 16.706C64.0094 16.5623 65.1657 16.2945 66.1847 15.6804C66.6289 15.4126 67.0144 15.0925 67.341 14.7332C67.4651 14.1388 67.7264 13.577 68.1184 13.1197" fill="#6E6E73"/>
<path d="M63.317 11.5786C63.3823 12.258 63.7285 12.8394 64.2576 13.1595C64.6692 13.4077 65.1591 13.4861 65.6295 13.3816C66.0345 13.2836 66.3872 13.0419 66.6159 12.6891C66.8119 12.3821 66.8837 12.0163 66.8119 11.657C66.7596 11.3892 66.6224 11.1605 66.4199 10.9776C65.9561 10.9776 65.4792 10.9646 65.0023 10.9188C64.7802 11.1213 64.741 11.4676 64.924 11.7158C65.0938 11.9444 65.3943 12.0163 65.6425 11.9052C65.6425 11.951 65.636 11.9967 65.6099 12.0359C65.5511 12.1273 65.4662 12.1861 65.3616 12.2123C65.1918 12.2515 65.0219 12.2253 64.8717 12.1339C64.6627 12.0098 64.5255 11.7615 64.4993 11.461C64.4797 11.252 64.5189 11.0495 64.5973 10.8731C64.2119 10.8274 63.8265 10.7621 63.4345 10.6706C63.4215 10.6706 63.4149 10.6706 63.4019 10.6641C63.317 10.9515 63.2843 11.2585 63.3104 11.5721" fill="#6E6E73"/>
<path d="M55.883 31.2809C55.3212 30.7974 54.8182 30.2814 54.3282 29.7784C54.191 29.6347 54.0538 29.4909 53.9101 29.3472C53.4267 28.8573 52.9107 28.3673 52.3554 27.9754C52.1398 27.9689 51.9308 27.9689 51.7348 27.9754C51.5715 27.9754 51.4016 27.9819 51.2383 27.9885C50.461 28.0146 49.7293 28.0407 49.063 27.8382C48.3118 27.6096 47.6062 27.0478 47.0836 26.2704C46.6329 25.6041 46.3063 24.794 46.0515 23.7227C45.9731 23.4026 45.653 23.2066 45.3329 23.2785C45.0128 23.3569 44.8103 23.677 44.8887 23.9971C45.1761 25.2121 45.5616 26.1463 46.0907 26.9367C46.7635 27.9427 47.6977 28.6678 48.7102 28.9749C49.566 29.2427 50.4414 29.21 51.2775 29.1774C51.4408 29.1708 51.5976 29.1643 51.7609 29.1643C52.5252 29.1512 53.4855 29.1904 54.1453 29.6804C54.5895 30.007 54.8835 30.5557 54.9096 31.111C54.9227 31.3658 54.8769 31.6271 54.779 31.8492C54.6287 32.1954 54.3478 32.4698 53.9951 32.6135C53.7403 32.718 53.4659 32.718 53.2112 32.6135C53.0413 32.5416 52.8976 32.411 52.8257 32.2411C52.78 32.1366 52.7735 32.0125 52.8127 31.9014C52.8323 31.8426 52.878 31.7904 52.9368 31.7643C52.9499 31.7643 52.9564 31.7577 52.976 31.7577C53.1393 32.0321 53.4855 32.1366 53.7664 31.9864C54.0604 31.8296 54.1714 31.4703 54.0212 31.1763C53.884 30.915 53.6488 30.7191 53.3679 30.6276C53.0544 30.5231 52.7147 30.5492 52.4142 30.6929C52.0745 30.8562 51.8197 31.1437 51.6891 31.4964C51.5454 31.9014 51.5584 32.3391 51.7348 32.7311C51.9373 33.1884 52.3097 33.5411 52.7669 33.724C53.0348 33.8351 53.3157 33.8873 53.5966 33.8873C53.8775 33.8873 54.1714 33.8351 54.4458 33.7175C55.086 33.4562 55.589 32.9597 55.8699 32.3261C55.9483 32.1562 56.0005 31.9733 56.0397 31.7904C55.9613 31.6271 55.9091 31.4572 55.8764 31.2809" fill="#6E6E73"/>
<path d="M53.9297 19.09C53.1524 18.5674 52.1921 18.1754 50.9901 17.888C50.67 17.8096 50.3499 18.0121 50.2715 18.3322C50.1931 18.6523 50.3956 18.9724 50.7157 19.0508C51.7871 19.3055 52.5971 19.6322 53.2634 20.0829C54.0408 20.6055 54.5961 21.311 54.8312 22.0623C55.0337 22.7286 55.0076 23.4602 54.9815 24.2376C54.9815 24.4074 54.9684 24.5708 54.9684 24.7406C54.9684 24.9366 54.9684 25.1456 54.9684 25.3612C55.3604 25.9165 55.8503 26.4325 56.3468 26.9159C56.4905 27.0531 56.6277 27.1968 56.7714 27.334C57.2744 27.824 57.797 28.327 58.2804 28.8888C58.4633 28.9214 58.6332 28.9802 58.7965 29.0586C58.9794 29.0194 59.1558 28.9671 59.3256 28.8888C59.9593 28.6144 60.4557 28.1049 60.717 27.4647C60.9391 26.9225 60.9391 26.328 60.7236 25.7793C60.5407 25.3155 60.1879 24.9496 59.7306 24.7471C59.3387 24.5708 58.901 24.5577 58.496 24.7014C58.1432 24.8321 57.8558 25.0868 57.6925 25.4265C57.5488 25.727 57.5226 26.0602 57.6272 26.3803C57.7186 26.6612 57.9146 26.8963 58.1759 27.0335C58.4698 27.1838 58.8291 27.0727 58.9794 26.7788C59.1296 26.4979 59.0251 26.1451 58.7507 25.9883C58.7507 25.9752 58.7507 25.9622 58.7573 25.9491C58.7834 25.8903 58.8357 25.8511 58.8945 25.825C59.0055 25.7858 59.1296 25.7858 59.2342 25.8381C59.404 25.9165 59.5346 26.0536 59.6065 26.23C59.711 26.4848 59.7045 26.7657 59.6065 27.0139C59.4628 27.3667 59.1884 27.641 58.8422 27.7978C58.6136 27.8958 58.3588 27.9415 58.104 27.9285C57.5553 27.8958 57.0066 27.6018 56.6734 27.1642C56.1835 26.5044 56.1377 25.5441 56.1573 24.7798C56.1573 24.6165 56.1639 24.4597 56.1704 24.2964C56.1965 23.4537 56.2292 22.5849 55.9679 21.7291C55.6543 20.7166 54.9292 19.7889 53.9297 19.1096" fill="#6E6E73"/>
<path d="M40.5446 41.6477C39.4994 42.5296 39.2185 44.1562 39.9175 45.2667C40.3421 45.9461 41.0606 46.3641 41.7988 46.3641H41.8119C42.6742 46.3641 43.4646 45.724 43.6083 44.9139C43.7063 44.3391 43.4711 43.7707 43.0139 43.4964C42.7068 43.32 42.3149 43.3004 41.9817 43.4572C41.6682 43.6009 41.4591 43.8622 41.4003 44.1823C41.3415 44.5089 41.5571 44.8159 41.8837 44.8747C42.0993 44.9139 42.3084 44.8355 42.439 44.6788C42.439 44.6853 42.439 44.6918 42.439 44.6984C42.3933 44.9466 42.1058 45.1622 41.8119 45.1622C41.4918 45.1622 41.1521 44.9531 40.9431 44.6265C40.5511 44.0059 40.7275 43.0587 41.3285 42.5557C41.9164 42.0592 42.8832 41.9808 43.6214 42.3793C44.3465 42.7713 44.8626 43.5682 44.9802 44.4632C45.0912 45.3059 44.843 46.2466 44.3138 47.0501C43.8174 47.8013 43.1315 48.3631 42.3737 48.6309C41.041 49.1013 39.323 48.6375 38.1079 47.4877C37.3632 46.7888 36.7688 45.8611 36.2984 44.6788C36.3834 44.7114 36.4748 44.7245 36.5728 44.7114C36.8798 44.6788 37.1085 44.424 37.1085 44.1104C37.1085 43.3069 37.1542 42.4838 37.2065 41.6869C37.311 40.0341 37.422 38.3226 37.0235 36.5849C36.919 36.1407 36.7622 35.5593 36.4487 35.0367C36.1025 34.4553 35.606 34.0307 35.0442 33.8348C34.3452 33.593 33.5678 33.7368 33.0648 34.194C32.4704 34.7428 32.3593 35.6965 32.8166 36.3171C33.0322 36.6176 33.3588 36.8136 33.7181 36.8724C34.0382 36.9246 34.3648 36.8528 34.6326 36.6699C34.8743 36.5066 35.0376 36.2583 35.0964 35.9644C35.1487 35.7031 35.0964 35.4418 34.9527 35.2196C34.9005 35.1413 34.8351 35.0694 34.7698 35.0106C35.0181 35.1282 35.2467 35.3568 35.4231 35.6508C35.6452 36.0231 35.7693 36.4674 35.8542 36.8528C36.1482 38.1201 36.1416 39.3809 36.0698 40.6808C36.0437 40.6286 36.0175 40.5698 35.9914 40.5175C35.3773 39.2829 34.5346 38.2899 33.5482 37.6432C33.2935 37.4799 32.9603 37.5256 32.7643 37.7608C32.5684 37.9894 32.5814 38.3291 32.7839 38.5512C33.2804 39.0804 33.6658 39.8055 33.9663 40.7658C34.1362 41.2949 34.2603 41.8306 34.3909 42.3989C34.4759 42.7517 34.5542 43.1044 34.6522 43.4506C35.2271 45.6129 36.0894 47.2134 37.2914 48.3435C38.428 49.4148 39.8717 49.9962 41.2566 49.9962C41.7792 49.9962 42.2888 49.9113 42.7722 49.7415C43.7716 49.3887 44.6731 48.6636 45.3133 47.6968C46.0058 46.645 46.3128 45.4365 46.1626 44.2999C45.9992 43.026 45.2415 41.8828 44.1832 41.3145C43.0139 40.6874 41.5245 40.818 40.5576 41.6281" fill="#6E6E73"/>
<path d="M76.7609 15.7588C77.3815 13.9885 76.8328 11.8327 75.3629 10.2715C74.2263 9.06949 72.6258 8.20719 70.4701 7.63233C70.1173 7.54088 69.7711 7.45595 69.4183 7.37103C68.85 7.24038 68.3143 7.10973 67.7852 6.94642C66.8249 6.64592 66.0998 6.25397 65.5707 5.76403C65.3486 5.55499 65.0089 5.54845 64.7802 5.74443C64.5516 5.94041 64.4993 6.27356 64.6627 6.52833C65.3094 7.51475 66.3023 8.36397 67.537 8.9715C67.5892 8.99763 67.648 9.02376 67.7003 9.04989C66.4003 9.12175 65.1395 9.12828 63.8722 8.83432C63.4868 8.74286 63.0426 8.62528 62.6702 8.40317C62.3763 8.22679 62.1542 7.99815 62.03 7.74992C62.0888 7.82177 62.1607 7.8871 62.2391 7.93936C62.4612 8.08308 62.729 8.13534 62.9903 8.08308C63.2778 8.02428 63.526 7.86097 63.6893 7.61927C63.8722 7.35143 63.9441 7.02481 63.8918 6.70471C63.833 6.33889 63.6305 6.0188 63.3365 5.80322C62.716 5.34595 61.7622 5.457 61.2135 6.05146C60.7497 6.55446 60.6059 7.33183 60.8542 8.03082C61.0502 8.58608 61.4748 9.08255 62.0562 9.42878C62.5722 9.74234 63.1536 9.89912 63.5978 10.0036C65.3355 10.4087 67.047 10.2976 68.6998 10.1866C69.451 10.1343 70.2284 10.0886 70.9927 10.0886C71.0384 10.0886 71.0711 10.0886 71.1233 10.0886C71.4304 10.0886 71.6851 9.85992 71.7178 9.5529C71.7309 9.45491 71.7178 9.36345 71.6851 9.28506C72.8675 9.7554 73.7951 10.3499 74.4941 11.0946C75.6438 12.3162 76.1077 14.0342 75.6373 15.3668C75.376 16.1181 74.8142 16.8105 74.063 17.3005C73.2595 17.8296 72.3122 18.0713 71.4696 17.9668C70.5746 17.8492 69.7711 17.3331 69.3857 16.608C68.9872 15.8699 69.0656 14.9096 69.5621 14.3151C70.0651 13.7141 71.0123 13.5377 71.6329 13.9297C71.9595 14.1387 72.1685 14.4784 72.1685 14.8051C72.1685 15.0925 71.953 15.3864 71.7047 15.4322C71.6982 15.4322 71.6917 15.4322 71.6851 15.4322C71.8419 15.295 71.9203 15.0925 71.8811 14.8769C71.8223 14.5503 71.5087 14.3347 71.1887 14.3935C70.8686 14.4523 70.6007 14.6613 70.4635 14.9749C70.3068 15.3081 70.3264 15.7065 70.5027 16.007C70.7706 16.4643 71.3389 16.706 71.9203 16.6015C72.7303 16.4578 73.364 15.6739 73.3705 14.8051C73.3705 14.0669 72.9524 13.3418 72.2731 12.9171C71.156 12.2116 69.5359 12.4925 68.654 13.5443C67.8375 14.5111 67.7133 16.0005 68.3405 17.1698C68.9088 18.2281 70.052 18.9859 71.3258 19.1492C71.5153 19.1753 71.7047 19.1884 71.8942 19.1884C72.861 19.1884 73.8474 18.8814 74.7293 18.3C75.6961 17.6598 76.4277 16.7583 76.774 15.7588" fill="#6E6E73"/>
<path d="M37.1084 17.6657C37.2521 17.3848 37.2783 17.0712 37.1803 16.7707C37.0953 16.5029 36.9124 16.2808 36.6642 16.1436C36.4356 16.0195 36.1808 15.9934 35.9326 16.0587C35.7235 16.1175 35.5471 16.2351 35.4165 16.4049C35.4883 16.2089 35.6321 16.026 35.815 15.9019C36.122 15.6929 36.5466 15.6079 37.017 15.6537C37.226 15.6733 37.4481 15.719 37.6767 15.7647C37.9772 15.8235 38.2843 15.8888 38.6174 15.9084C39.4732 15.9542 40.1983 15.6341 40.5641 15.0461C40.6752 14.8698 40.747 14.6738 40.7797 14.4713C40.6948 14.4582 40.6098 14.4386 40.5184 14.4125C40.1003 14.2884 39.728 14.0467 39.4471 13.7266C39.3491 13.7527 39.2511 13.7854 39.1531 13.805C38.8003 13.8964 38.3888 13.9944 37.9315 13.9944C37.8923 13.9944 37.8597 13.9944 37.8205 13.9944C37.8335 14.1512 37.8793 14.3014 37.9511 14.4386C37.9838 14.5039 38.023 14.5627 38.0687 14.6215C38.0164 14.6085 37.9576 14.6019 37.9054 14.5889C37.6506 14.5366 37.3893 14.4843 37.1149 14.4582C36.3637 14.3863 35.6582 14.5431 35.1291 14.909C34.4497 15.3662 34.0708 16.1436 34.1622 16.8948C34.1818 17.032 34.2145 17.1692 34.2602 17.2999C34.4235 17.731 34.7436 18.0772 35.1617 18.2732C35.3708 18.3712 35.5863 18.4169 35.8084 18.4169C35.9783 18.4169 36.1481 18.3908 36.3114 18.332C36.6446 18.2144 36.9124 17.9792 37.0757 17.6657" fill="#6E6E73"/>
<path d="M41.0018 10.8462C41.0214 11.3426 40.9169 11.7934 40.8189 12.1788C40.7666 12.3813 40.7078 12.5838 40.6491 12.7863C40.5707 13.0672 40.3943 13.3024 40.1656 13.4657C40.3355 13.6029 40.5249 13.7074 40.734 13.7727C40.8777 13.8185 41.0345 13.8381 41.1847 13.8381C41.4918 13.8381 41.7922 13.7531 42.047 13.5898C42.6349 13.224 42.955 12.4923 42.9093 11.6431C42.8897 11.31 42.8309 10.9964 42.7656 10.6959C42.7199 10.4673 42.6741 10.2452 42.6545 10.0361C42.6088 9.56577 42.7003 9.13463 42.9028 8.83413C43.0269 8.64469 43.2098 8.50097 43.4058 8.42911C43.2425 8.55976 43.1184 8.73614 43.0596 8.93865C42.9877 9.18689 43.0204 9.44819 43.1445 9.67029C43.2817 9.91853 43.5038 10.1014 43.7716 10.1798C44.0721 10.2713 44.3857 10.2452 44.6666 10.108C44.9801 9.95119 45.2153 9.67683 45.3329 9.3502C45.4635 8.97131 45.4439 8.5663 45.2741 8.20048C45.0781 7.78239 44.7319 7.4623 44.3007 7.29899C44.1701 7.24673 44.0329 7.21406 43.8957 7.201C43.1445 7.10954 42.3671 7.48843 41.9098 8.16781C41.5505 8.70348 41.3872 9.40899 41.4591 10.1537C41.4852 10.4281 41.5375 10.6894 41.5897 10.9441C41.6028 10.9964 41.6159 11.0552 41.6224 11.1075C41.5701 11.0617 41.5048 11.0225 41.4395 10.9899C41.2958 10.918 41.1455 10.8723 40.9953 10.8592" fill="#6E6E73"/>
<path d="M37.1803 10.8263C37.1019 10.4278 36.9386 10.0554 36.7165 9.71575C37.0496 9.93786 37.4285 10.1012 37.827 10.1796C37.9707 10.2057 38.1144 10.2253 38.2582 10.2449C38.5456 10.2841 38.8134 10.3167 38.9506 10.4343C39.0551 10.5193 39.1205 10.6956 39.1335 10.8981C39.1466 11.1464 39.0813 11.4207 39.0094 11.7016C38.9898 11.78 38.9702 11.8584 38.9441 11.9368C38.8657 11.9564 38.7873 11.9825 38.7089 12.0021C38.428 12.074 38.1602 12.1459 37.9054 12.1263C37.7029 12.1197 37.533 12.0479 37.4416 11.9499C37.324 11.8127 37.2848 11.5449 37.2521 11.2574C37.2326 11.1137 37.213 10.9635 37.1868 10.8263M37.8531 13.3282C37.8923 13.3282 37.9315 13.3282 37.9707 13.3282C38.3431 13.3282 38.6893 13.2433 39.0159 13.1584C39.2119 13.1061 39.4079 13.0539 39.6039 12.9951C39.7998 12.9363 39.9501 12.786 40.0089 12.5901C40.0677 12.3941 40.1199 12.1981 40.1722 12.0021C40.2636 11.6428 40.3551 11.2574 40.3355 10.8393C40.3094 10.3102 40.0938 9.8268 39.7345 9.52631C39.3295 9.18008 38.8265 9.11476 38.4215 9.0625C38.3039 9.04943 38.1863 9.02984 38.0752 9.01024C37.8662 8.96451 37.6702 8.89265 37.4873 8.7816C37.6441 8.67708 37.7552 8.5203 37.8139 8.33739C37.8793 8.11528 37.8597 7.88011 37.7552 7.6776C37.6441 7.4555 37.4481 7.28565 37.2064 7.20726C36.7426 7.05048 36.2135 7.26605 35.9587 7.70373C35.7693 8.03689 35.7562 8.46151 35.926 8.84692C35.9522 8.89919 35.9783 8.95145 36.0044 9.00371C35.9522 8.97758 35.9064 8.95145 35.8542 8.92532C35.4753 8.75547 35.0442 8.76853 34.711 8.95798C34.2733 9.20621 34.0577 9.74188 34.2145 10.1992C34.2929 10.4343 34.4628 10.6303 34.6849 10.7479C34.8939 10.8524 35.1291 10.872 35.3512 10.8067C35.5341 10.7479 35.6843 10.6368 35.7889 10.4801C35.8934 10.663 35.9718 10.8589 36.0175 11.068C36.0436 11.179 36.0567 11.2966 36.0698 11.4142C36.122 11.8192 36.1873 12.3157 36.5336 12.7272C36.8341 13.08 37.3175 13.3021 37.8466 13.3282" fill="#6E6E73"/>
<path d="M51.1403 25.3942C51.3363 25.3289 51.5388 25.2831 51.7413 25.257C52.0092 25.2243 52.2247 25.0088 52.2574 24.7409C52.2835 24.5384 52.3293 24.3359 52.3946 24.1399C52.486 24.5907 52.6494 25.048 52.8649 25.4856C53.0348 25.8188 53.2242 26.1389 53.4398 26.4394C53.1393 26.2238 52.8257 26.0344 52.486 25.8645C52.0484 25.6424 51.5911 25.4856 51.1403 25.3942ZM56.301 27.8178C56.1573 27.6806 56.0136 27.5369 55.8699 27.3997C55.1382 26.6746 54.3935 25.8776 53.9363 24.9565C53.4594 24.0093 53.3549 23.0033 53.6488 22.2063C53.7468 21.945 53.6488 21.651 53.4137 21.5008C53.1785 21.3506 52.8715 21.3767 52.6755 21.5727C51.8916 22.3239 51.369 23.2123 51.1534 24.153C50.2062 24.3686 49.3243 24.8912 48.5731 25.6751C48.3836 25.8776 48.3509 26.1846 48.5012 26.4133C48.6514 26.6484 48.9454 26.7399 49.2067 26.6484C50.0037 26.3545 51.0097 26.459 51.9569 26.9359C52.878 27.3931 53.675 28.1379 54.4001 28.876C54.5438 29.0197 54.681 29.1635 54.8247 29.3072C55.1774 29.673 55.5433 30.0388 55.9222 30.3981C56.0136 30.0454 56.1965 29.7187 56.4578 29.4574C56.7191 29.1961 57.0457 29.0132 57.3985 28.9218C57.0392 28.5429 56.6734 28.177 56.3076 27.8243" fill="#6E6E73"/>
<path d="M57.9146 31.1036C57.81 31.1036 57.7251 31.0187 57.7251 30.9142C57.7251 30.8423 57.7578 30.8031 57.7839 30.777C57.81 30.7509 57.8492 30.7248 57.9211 30.7248C58.0256 30.7248 58.1105 30.8097 58.1105 30.9142C58.1105 30.9795 58.0779 31.0252 58.0517 31.0514C58.0321 31.071 57.9864 31.1036 57.9211 31.1036M57.9211 29.5293C57.5487 29.5293 57.2025 29.673 56.9412 29.9343C56.6799 30.1956 56.5362 30.5418 56.5362 30.9142C56.5362 31.6785 57.1568 32.2991 57.9211 32.2991C58.2934 32.2991 58.6397 32.1554 58.901 31.8941C59.1623 31.6328 59.306 31.2865 59.306 30.9142C59.306 30.1499 58.6854 29.5293 57.9211 29.5293Z" fill="#6E6E73"/>
</g>
<rect y="18" width="22" height="22" rx="4" fill="white"/>
<defs>
<clipPath id="clip0_2079_8420">
<rect width="50" height="50" fill="white" transform="translate(32 5)"/>
</clipPath>
</defs>
</svg>
