<svg width="65" height="55" viewBox="0 0 65 55" fill="none" xmlns="http://www.w3.org/2000/svg">
<path d="M39 37V32.988C39 31.8778 39.8899 31 41 31V37C41 39.4785 39.2202 41 37 41H34C32.9157 41 32 40.1102 32 39V33C32 31.9157 32.8935 31 34.0037 31L34 39H37C38.1101 39 39 38.2392 39 37Z" fill="white"/>
<path d="M29 39H32C32 40.1102 31.0843 41 30 41H29C26.7798 41 25 39.4785 25 37L25 32.988C25 31.8778 25.8899 31 27 31L27 37C27 38.2392 27.8899 39 29 39Z" fill="white"/>
<path d="M17.0016 31H21.9842C23.0944 31 23.998 31.9036 23.998 33.0138V41.9983C23.998 44.2186 22.4489 46 19.9964 46H15.0137C15.0137 44.9157 15.8915 44.0121 17.0016 44.0121H20.0222C21.2356 44.0121 22.0101 43.1343 22.0101 42.0241V33.0396H17.0016C15.7882 33.0396 15.0137 33.9174 15.0137 35.0275V37.0155C15.0137 38.1256 15.7624 39.0034 17.0016 39.0034H21.9842C21.9842 40.0878 21.1065 40.9914 19.9964 40.9914H17.0016C14.5232 40.9914 13 39.21 13 36.9897V35.0017C13 32.7814 14.549 31 17.0016 31Z" fill="white"/>
<path fill-rule="evenodd" clip-rule="evenodd" d="M44.0391 27.0109H10C9.4374 27.0109 9 27.4391 9 28V49C9 49.5232 9.46485 50 10 50H44C44.4865 50 45 49.5055 45 49V28C45 27.452 44.565 27.0109 44.0391 27.0109ZM43 48.0159H11V29L43 28.995V48.0159Z" fill="white"/>
<path fill-rule="evenodd" clip-rule="evenodd" d="M64 55V53.0159L61 53V23.5391C63.4459 21.8993 65 19.2571 65 16.008C65 15.8353 64.9567 15.6657 64.8746 15.5158L57.3192 1.56836C57.0574 1.09241 56.6797 0.696811 56.2243 0.421458C55.7689 0.146104 55.2518 0.000731317 54.7253 0H10.2747C9.74816 0.000704488 9.23111 0.146066 8.7757 0.421422C8.32029 0.696779 7.94262 1.09239 7.68079 1.56836L0.125427 15.5158C0.0432739 15.6657 3.8147e-05 15.8353 0 16.008C0 19.2571 1.62475 21.945 4.07063 23.5848V53.0159L1 53V55H64ZM59 24.5V27.0105L48 27.006C47.4374 27.006 47 27.4341 47 27.995V53.0036L5.97492 53.0159V24.5469C6.89652 24.8775 7.86444 25.0461 8.83911 25.046C12.2789 25.046 15.266 22.9884 16.7261 19.9923C18.1862 22.9882 21.1732 25.046 24.613 25.046C28.0528 25.046 31.0399 22.9884 32.5 19.9923C33.9601 22.9882 36.9472 25.046 40.387 25.046C43.8268 25.046 46.8138 22.9884 48.2739 19.9923C49.734 22.9882 52.7211 25.046 56.1609 25.046C57.1633 25.046 58.101 24.8217 59 24.5ZM59 53L49 53.003V50H59V53ZM49 28.995V48H59V28.995H49ZM1.96993 17H5.97492C5.97492 17 6 14.9841 6 15H2.5L9.33423 2.55273C9.42916 2.38016 9.56609 2.23672 9.73121 2.13689C9.89632 2.03705 10.0838 1.98435 10.2747 1.98409H54.7253C54.9162 1.98433 55.1037 2.03703 55.2688 2.13687C55.4339 2.23671 55.5708 2.38015 55.6658 2.55273L62.5 15H9V17H15.7069C15.2412 20.5161 12.3397 23.0619 8.83911 23.0619C5.33825 23.0619 2.43547 20.5163 1.96993 17ZM56.1608 23.0619C52.66 23.0619 49.7586 20.5161 49.293 17H63.0299C62.5644 20.5163 59.6616 23.0619 56.1608 23.0619ZM47.2547 17C46.7891 20.5161 43.8876 23.0619 40.387 23.0619C36.8862 23.0619 33.9848 20.5161 33.5192 17H47.2547ZM31.4808 17C31.0152 20.5161 28.1136 23.0619 24.613 23.0619C21.1124 23.0619 18.2109 20.5161 17.7453 17H31.4808Z" fill="white"/>
</svg>
