<?xml version="1.0" encoding="UTF-8"?><svg id="Layer_1" xmlns="http://www.w3.org/2000/svg" viewBox="0 0 60 60"><defs><style>.cls-1{fill:#1d1d1f;}</style></defs><path class="cls-1" d="m30,60C13.46,60,0,46.54,0,30S13.46,0,30,0s30,13.46,30,30-13.46,30-30,30Zm-8.01-19.02c-4.98,0-9.04,4.05-9.04,9.04v2.26l.4.31c4.57,3.53,10.48,5.47,16.64,5.47s11.94-1.94,16.63-5.46l.41-.31v-2.27c0-4.98-4.05-9.04-9.04-9.04-.71,0-1.4.22-2.27.51-1.29.42-3.05.99-5.74.99-2.83,0-4.6-.59-5.9-1.02-.81-.27-1.45-.48-2.1-.48ZM30,1.95C14.53,1.95,1.95,14.53,1.95,30c0,7.24,2.56,13.84,7.4,19.09l1.46,1.58.32-2.12c.82-5.51,5.39-9.51,10.87-9.51.92,0,1.65.24,2.57.55,1.27.42,2.86.95,5.43.95s3.96-.49,5.27-.93c.94-.31,1.74-.57,2.74-.57,5.4,0,9.92,4,10.74,9.51l.32,2.12,1.46-1.58c4.85-5.26,7.53-12.04,7.53-19.09,0-15.47-12.58-28.05-28.05-28.05Z"/><path class="cls-1" d="m30,35c-5.61,0-10-4.39-10-10s4.49-10,10-10,10,4.58,10,10-4.49,10-10,10Zm0-18.05c-4.37,0-8.05,3.69-8.05,8.05s3.61,8.05,8.05,8.05,8.05-3.69,8.05-8.05-3.69-8.05-8.05-8.05Z"/></svg>