<?xml version="1.0" encoding="utf-8"?>
<!-- Generator: Adobe Illustrator 25.0.1, SVG Export Plug-In . SVG Version: 6.00 Build 0)  -->
<svg version="1.1" id="Layer_1" xmlns="http://www.w3.org/2000/svg" xmlns:xlink="http://www.w3.org/1999/xlink" x="0px" y="0px"
	 width="26px" height="20px" viewBox="0 0 26 20" style="enable-background:new 0 0 26 20;" xml:space="preserve">
<style type="text/css">
	.st0{fill:#C3C3C7;}
</style>
<g>
	<path class="st0" d="M21,5.6l-1.2,5.8c-0.1,0.3-0.3,0.5-0.7,0.5H9.9l0.3,1.8h8.2c0.3,0,0.6,0.2,0.6,0.5c0.3,0.3,0.5,0.8,0.5,1.3
		c0,1-0.8,1.8-1.8,1.8c-1,0-1.8-0.8-1.8-1.8v0c0-0.3,0.1-0.7,0.2-0.9h-4c0.1,0.2,0.2,0.6,0.2,0.9v0c0,1-0.8,1.8-1.8,1.8
		S9,16.5,9,15.5c0-0.5,0.2-0.9,0.5-1.2L7.5,3.9H5.3C5.1,3.9,5,3.8,5,3.6V3.4C5,3.2,5.1,3,5.3,3h2.4C8,3,8.3,3.2,8.4,3.6l0.2,1.2
		h11.7C20.8,4.8,21.1,5.2,21,5.6z M20.1,5.7H8.8l1,5.3h9.2L20.1,5.7z M10.8,14.6c-0.5,0-0.9,0.4-0.9,0.9c0,0.5,0.4,0.9,0.9,0.9
		s0.9-0.4,0.9-0.9C11.7,15,11.3,14.6,10.8,14.6z M18.8,15.5c0-0.5-0.4-0.9-0.9-0.9c-0.5,0-0.9,0.4-0.9,0.9c0,0.5,0.4,0.9,0.9,0.9
		C18.4,16.4,18.8,16,18.8,15.5z"/>
</g>
</svg>
