<svg id="Layer_1" data-name="Layer 1" xmlns="http://www.w3.org/2000/svg" width="26" height="26" viewBox="0 0 26 26"><defs><style>.cls-1{fill:#c3c3c7;}</style></defs><path class="cls-1" d="M19,9.62v6.76a1.12,1.12,0,0,1-1.12,1.12H8.12A1.12,1.12,0,0,1,7,16.38V9.62A1.12,1.12,0,0,1,8.12,8.5h9.76A1.12,1.12,0,0,1,19,9.62Zm-11.25,0v1c.51.43,1.25,1,3.53,2.84.39.31,1.18,1.07,1.72,1.06s1.32-.75,1.72-1.06c2.28-1.81,3-2.41,3.53-2.84v-1a.38.38,0,0,0-.37-.37H8.12A.38.38,0,0,0,7.75,9.62Zm10.5,6.76V11.57c-.53.44-1.38,1.12-3.06,2.45-.5.4-1.34,1.24-2.19,1.23s-1.71-.84-2.19-1.23c-1.68-1.33-2.53-2-3.06-2.45v4.81a.38.38,0,0,0,.37.37h9.76A.38.38,0,0,0,18.25,16.38Z"/></svg>