<svg id="Layer_1" data-name="Layer 1" xmlns="http://www.w3.org/2000/svg" viewBox="0 0 26 26"><defs><style>.cls-1{fill:#1e1e20;}</style></defs><path class="cls-1" d="M17.38,5.4a24.66,24.66,0,0,0-8.82,0,4.92,4.92,0,0,0-3.18,3,16.2,16.2,0,0,0,0,7,5.16,5.16,0,0,0,3.18,3,.11.11,0,0,1,.11.1v3.39a.19.19,0,0,0,.34.11l1.67-1.67,1.57-1.56a.18.18,0,0,1,.11-.05,27.23,27.23,0,0,0,5.08-.38,4.9,4.9,0,0,0,3.18-3,16.16,16.16,0,0,0,0-7A5.17,5.17,0,0,0,17.38,5.4Zm.06,10.12a2.56,2.56,0,0,1-1.17,1.24l-.51.16-.55-.16a13.2,13.2,0,0,1-4.81-3.07A13.07,13.07,0,0,1,8.56,11,15.24,15.24,0,0,1,8,9.6a1.2,1.2,0,0,1,.39-1.18,2.49,2.49,0,0,1,1-.7.62.62,0,0,1,.78.16,10.87,10.87,0,0,1,1.23,1.67.75.75,0,0,1-.22,1.07,1.08,1.08,0,0,0-.28.22c-.06.05-.17.1-.22.21a.49.49,0,0,0-.06.49,4.57,4.57,0,0,0,2.57,2.74,1.33,1.33,0,0,0,.67.16c.39,0,.56-.48.84-.7a.88.88,0,0,1,.95-.05c.28.16.56.38.89.59s.56.38.84.59A.53.53,0,0,1,17.44,15.52Zm-2.35-4h0c-.22,0-.28-.1-.33-.27a.8.8,0,0,0-.06-.37.94.94,0,0,0-.39-.59L14,10.08a1.38,1.38,0,0,0-.45-.05.29.29,0,0,1-.22-.32c0-.11.16-.22.28-.22a1.64,1.64,0,0,1,1.67,1.56v.22C15.26,11.38,15.21,11.48,15.09,11.48Zm-.55-2.36a4,4,0,0,0-.9-.27c-.11,0-.28-.06-.39-.06S13,8.69,13,8.52a.2.2,0,0,1,.28-.21,4.82,4.82,0,0,1,1.56.38,3,3,0,0,1,1.73,2.36v.7a.26.26,0,0,1-.5,0c0-.05-.06-.16-.06-.21a3.07,3.07,0,0,0-.33-1.4A3,3,0,0,0,14.54,9.12Zm3,3.22a.3.3,0,0,1-.28-.32,5.44,5.44,0,0,0-.11-1,4.06,4.06,0,0,0-3.41-3.39c-.28,0-.55,0-.78-.1s-.39,0-.44-.22S12.64,7,12.8,7h.12a4.69,4.69,0,0,1,4.69,3.82A8.46,8.46,0,0,1,17.72,12,.2.2,0,0,1,17.55,12.34Z"/></svg>