<svg id="Layer_1" data-name="Layer 1" xmlns="http://www.w3.org/2000/svg" width="26" height="26" viewBox="0 0 26 26"><defs><style>.cls-1{fill:#c3c3c7;}</style></defs><path class="cls-1" d="M10,11a6.85,6.85,0,0,0,0,4l1.16-.11a.9.9,0,0,1,.92.56l.87,2.22a.91.91,0,0,1-.36,1.1l-1.74,1.11a.87.87,0,0,1-1.1-.13,9.63,9.63,0,0,1,0-13.46.87.87,0,0,1,1.1-.13l1.74,1.11a.91.91,0,0,1,.36,1.1l-.87,2.22a.89.89,0,0,1-.92.56Zm-.58-.95,1.83.19,0,0L12.14,8s0,0,0,0L10.39,6.88h0a8.75,8.75,0,0,0,0,12.23h0L12.13,18s0,0,0,0l-.87-2.22a0,0,0,0,0,0,0l-1.83.18A7.84,7.84,0,0,1,9.41,10.07ZM15.33,8.6a1.82,1.82,0,0,1,0,1.78.32.32,0,0,1-.5.08l-.16-.16a.34.34,0,0,1-.07-.39.85.85,0,0,0,0-.82.34.34,0,0,1,.07-.39l.16-.16A.32.32,0,0,1,15.33,8.6Zm1.23,3.05a.33.33,0,0,1-.48,0l-.15-.16a.32.32,0,0,1,0-.43,2.67,2.67,0,0,0,0-3.2.34.34,0,0,1,0-.44l.15-.15a.32.32,0,0,1,.48,0A3.56,3.56,0,0,1,16.56,11.65Zm1.23,1.24a.32.32,0,0,1-.47,0l-.16-.15a.34.34,0,0,1,0-.45,4.46,4.46,0,0,0,0-5.62.32.32,0,0,1,0-.44l.16-.16a.32.32,0,0,1,.47,0A5.35,5.35,0,0,1,17.79,12.89Z"/></svg>