<svg width="528" height="280" viewBox="0 0 528 280" fill="none" xmlns="http://www.w3.org/2000/svg">
<rect width="528" height="280" fill="#F5F5F7"/>
<path d="M209.109 120.273H203.502C203.462 119.809 203.356 119.388 203.183 119.01C203.018 118.632 202.786 118.307 202.487 118.036C202.196 117.757 201.841 117.545 201.423 117.399C201.006 117.247 200.532 117.17 200.002 117.17C199.074 117.17 198.288 117.396 197.645 117.847C197.009 118.297 196.525 118.944 196.193 119.786C195.868 120.627 195.706 121.638 195.706 122.818C195.706 124.064 195.872 125.108 196.203 125.95C196.541 126.786 197.029 127.415 197.665 127.839C198.301 128.257 199.067 128.466 199.962 128.466C200.472 128.466 200.93 128.403 201.334 128.277C201.738 128.144 202.09 127.955 202.388 127.71C202.686 127.465 202.928 127.17 203.114 126.825C203.306 126.474 203.435 126.08 203.502 125.642L209.109 125.682C209.043 126.544 208.801 127.422 208.384 128.317C207.966 129.205 207.373 130.027 206.604 130.783C205.841 131.532 204.897 132.135 203.77 132.592C202.643 133.05 201.334 133.278 199.842 133.278C197.973 133.278 196.296 132.877 194.811 132.075C193.333 131.273 192.163 130.093 191.301 128.536C190.446 126.978 190.019 125.072 190.019 122.818C190.019 120.551 190.456 118.642 191.331 117.091C192.206 115.533 193.386 114.357 194.871 113.561C196.356 112.759 198.013 112.358 199.842 112.358C201.128 112.358 202.312 112.534 203.392 112.885C204.473 113.236 205.421 113.75 206.236 114.426C207.051 115.096 207.707 115.921 208.205 116.902C208.702 117.883 209.003 119.007 209.109 120.273ZM223.326 133L217.082 124.767H216.306V133H210.778V112.636H216.306V120.312H217.022L222.869 112.636H229.829L222.073 122.42L230.266 133H223.326ZM236.2 133H230.234L236.956 112.636H244.513L251.234 133H245.268L240.814 118.244H240.655L236.2 133ZM235.086 124.966H246.302V129.102H235.086V124.966ZM253.588 112.636H258.918V119.04C258.918 119.676 259.027 120.196 259.246 120.601C259.471 121.005 259.846 121.304 260.37 121.496C260.9 121.688 261.623 121.784 262.537 121.784C262.703 121.784 262.971 121.781 263.343 121.774C263.721 121.761 264.128 121.744 264.566 121.724C265.003 121.698 265.404 121.668 265.769 121.635C266.14 121.595 266.402 121.552 266.554 121.506V125.682C266.382 125.741 266.097 125.795 265.699 125.841C265.301 125.881 264.874 125.917 264.417 125.95C263.966 125.977 263.561 126 263.203 126.02C262.846 126.033 262.623 126.04 262.537 126.04C260.748 126.04 259.18 125.785 257.834 125.274C256.489 124.764 255.444 123.991 254.702 122.957C253.96 121.923 253.588 120.617 253.588 119.04V112.636ZM265.52 112.636H270.89V133H265.52V112.636ZM279.145 133H273.179L279.901 112.636H287.458L294.179 133H288.213L283.759 118.244H283.6L279.145 133ZM278.031 124.966H289.247V129.102H278.031V124.966ZM292.173 117.091V112.636H309.872V117.091H303.747V133H298.298V117.091H292.173ZM314.613 119.477H318.829C320.546 119.477 322.044 119.752 323.323 120.303C324.609 120.853 325.607 121.628 326.316 122.629C327.032 123.63 327.386 124.807 327.38 126.159C327.386 127.511 327.032 128.701 326.316 129.729C325.607 130.756 324.609 131.558 323.323 132.135C322.044 132.712 320.546 133 318.829 133H311.232V112.636H316.761V128.665H318.829C319.498 128.665 320.058 128.555 320.509 128.337C320.967 128.118 321.311 127.816 321.543 127.432C321.782 127.047 321.898 126.61 321.891 126.119C321.898 125.423 321.639 124.847 321.116 124.389C320.592 123.925 319.83 123.693 318.829 123.693H314.613V119.477ZM156.741 142.636H162.269V153.295H162.428L169.667 142.636H174.36V163H168.832V152.301H168.713L161.355 163H156.741V142.636ZM176.135 163V142.636H181.664V150.591H188.982V142.636H194.51V163H188.982V155.045H181.664V163H176.135ZM215.307 150.273H209.699C209.659 149.809 209.553 149.388 209.381 149.01C209.215 148.632 208.983 148.307 208.685 148.036C208.393 147.757 208.038 147.545 207.621 147.399C207.203 147.247 206.729 147.17 206.199 147.17C205.271 147.17 204.485 147.396 203.842 147.847C203.206 148.297 202.722 148.944 202.39 149.786C202.066 150.627 201.903 151.638 201.903 152.818C201.903 154.064 202.069 155.108 202.4 155.95C202.738 156.786 203.226 157.415 203.862 157.839C204.498 158.257 205.264 158.466 206.159 158.466C206.669 158.466 207.127 158.403 207.531 158.277C207.935 158.144 208.287 157.955 208.585 157.71C208.883 157.465 209.125 157.17 209.311 156.825C209.503 156.474 209.632 156.08 209.699 155.642L215.307 155.682C215.24 156.544 214.998 157.422 214.581 158.317C214.163 159.205 213.57 160.027 212.801 160.783C212.039 161.532 211.094 162.135 209.967 162.592C208.84 163.05 207.531 163.278 206.04 163.278C204.17 163.278 202.493 162.877 201.008 162.075C199.53 161.273 198.36 160.093 197.498 158.536C196.643 156.978 196.216 155.072 196.216 152.818C196.216 150.551 196.653 148.642 197.528 147.091C198.403 145.533 199.583 144.357 201.068 143.561C202.553 142.759 204.21 142.358 206.04 142.358C207.326 142.358 208.509 142.534 209.589 142.885C210.67 143.236 211.618 143.75 212.433 144.426C213.248 145.096 213.905 145.921 214.402 146.902C214.899 147.883 215.201 149.007 215.307 150.273ZM216.418 147.091V142.636H234.117V147.091H227.992V163H222.543V147.091H216.418ZM235.357 163V142.636H244.147C245.659 142.636 246.981 142.935 248.115 143.531C249.248 144.128 250.13 144.966 250.759 146.047C251.389 147.127 251.704 148.39 251.704 149.835C251.704 151.294 251.379 152.556 250.73 153.624C250.087 154.691 249.182 155.513 248.015 156.089C246.855 156.666 245.5 156.955 243.948 156.955H238.698V152.659H242.835C243.484 152.659 244.038 152.546 244.495 152.321C244.959 152.089 245.314 151.761 245.559 151.337C245.811 150.912 245.937 150.412 245.937 149.835C245.937 149.252 245.811 148.755 245.559 148.344C245.314 147.926 244.959 147.608 244.495 147.389C244.038 147.164 243.484 147.051 242.835 147.051H240.886V163H235.357ZM255.836 163.278V158.983H256.83C257.413 158.983 257.874 158.937 258.212 158.844C258.557 158.744 258.822 158.572 259.008 158.327C259.2 158.075 259.362 157.723 259.495 157.273L259.694 156.676L252.057 142.636H257.705L261.961 150.909L265.222 142.636H270.79L263.79 158.545C263.406 159.381 262.948 160.16 262.418 160.882C261.888 161.598 261.228 162.178 260.439 162.622C259.651 163.06 258.673 163.278 257.506 163.278H255.836ZM284.288 163L278.044 154.767H277.268V163H271.74V142.636H277.268V150.312H277.984L283.831 142.636H290.791L283.035 152.42L291.229 163H284.288ZM313.032 158.824L312.793 167.812H307.662V163H306.231V158.824H313.032ZM291.873 163V142.636H297.202V158.744H304.322V142.636H309.731V163H291.873ZM314.056 142.636H319.585V153.295H319.744L326.982 142.636H331.675V163H326.147V152.301H326.028L318.67 163H314.056V142.636ZM338.979 142.636V163H333.45V142.636H338.979ZM343.314 151.227V155.364H336.632V151.227H343.314ZM361.331 152.818C361.331 155.085 360.89 156.998 360.009 158.555C359.127 160.107 357.937 161.283 356.439 162.085C354.941 162.881 353.271 163.278 351.428 163.278C349.572 163.278 347.895 162.877 346.396 162.075C344.905 161.267 343.718 160.087 342.837 158.536C341.962 156.978 341.524 155.072 341.524 152.818C341.524 150.551 341.962 148.642 342.837 147.091C343.718 145.533 344.905 144.357 346.396 143.561C347.895 142.759 349.572 142.358 351.428 142.358C353.271 142.358 354.941 142.759 356.439 143.561C357.937 144.357 359.127 145.533 360.009 147.091C360.89 148.642 361.331 150.551 361.331 152.818ZM355.644 152.818C355.644 151.598 355.481 150.571 355.156 149.736C354.838 148.894 354.364 148.258 353.735 147.827C353.111 147.389 352.343 147.17 351.428 147.17C350.513 147.17 349.741 147.389 349.111 147.827C348.488 148.258 348.014 148.894 347.689 149.736C347.371 150.571 347.212 151.598 347.212 152.818C347.212 154.038 347.371 155.069 347.689 155.911C348.014 156.746 348.488 157.382 349.111 157.82C349.741 158.25 350.513 158.466 351.428 158.466C352.343 158.466 353.111 158.25 353.735 157.82C354.364 157.382 354.838 156.746 355.156 155.911C355.481 155.069 355.644 154.038 355.644 152.818Z" fill="#C3C3C7"/>
</svg>
