<?xml version="1.0" encoding="UTF-8"?><svg id="Layer_1" xmlns="http://www.w3.org/2000/svg" xmlns:xlink="http://www.w3.org/1999/xlink" viewBox="0 0 150 88"><defs><style>.cls-1{fill:#008bd2;}.cls-1,.cls-2,.cls-3{stroke-width:0px;}.cls-2{fill:none;}.cls-4{clip-path:url(#clippath);}.cls-3{fill:#6e6e73;}</style><clipPath id="clippath"><rect class="cls-2" width="150" height="88"/></clipPath></defs><g class="cls-4"><path class="cls-3" d="m150,44.04c-.57.6-.92,1.17-1.43,1.47-4.34,2.56-8.71,5.07-13.06,7.6-1.31.76-2.6,1.56-3.92,2.3-.64.36-1.31.42-1.9-.19-.87-.89-.83-1.91.22-2.57,1.45-.91,2.96-1.73,4.43-2.58,3.19-1.85,6.39-3.69,9.57-5.54.86-.5.26-.85-.18-1.11-1.87-1.11-3.75-2.19-5.63-3.28-8.16-4.7-16.33-9.38-24.48-14.1-12.79-7.41-25.56-14.85-38.35-22.25-.24-.14-.69-.12-.93.02-12.09,6.97-24.18,13.95-36.25,20.94-10.45,6.05-20.9,12.12-31.35,18.18-.03.02-.06.03-.09.05-1.18.68-1.18,1.35-.02,2.03,3.87,2.25,7.75,4.48,11.62,6.73.37.21.72.47,1.06.72.75.53.79,1.25.44,2.01-.37.81-1.08.91-1.84.75-.31-.06-.61-.23-.9-.4-5.24-3.04-10.47-6.09-15.7-9.14-.06-.03-.11-.07-.17-.11-1.56-.99-1.55-2.25.04-3.17,4.47-2.59,8.95-5.17,13.42-7.76,10.99-6.37,21.98-12.75,32.98-19.12,8.12-4.7,16.22-9.43,24.37-14.08,3.28-1.87,2.28-1.95,5.55-.07,10.62,6.1,21.2,12.27,31.8,18.4,11,6.36,22.01,12.7,33.02,19.05,2.08,1.2,4.17,2.4,6.21,3.66.51.32.85.91,1.44,1.56h0Z"/><path class="cls-1" d="m100.94,63.7c4.46-.12,8.77-.26,13.15.1-2.21,3.77-4.34,7.41-6.56,11.21-.75-1.31-1.39-2.34-1.94-3.41-.36-.71-.7-.74-1.37-.35-9.51,5.5-19.05,10.98-28.57,16.47-.51.29-.89.43-1.51.07-8.87-5.16-17.77-10.29-26.67-15.42-.77-.45-1.57-.84-2.32-1.31-.55-.35-.82-.16-1.08.33-.61,1.13-1.24,2.24-2.02,3.65-2.23-3.87-4.36-7.56-6.6-11.43h13.11c-.68,1.16-1.22,2.23-1.9,3.2-.57.81-.39,1.19.43,1.66,9.01,5.2,18,10.43,26.98,15.68.58.34,1.02.26,1.54-.04,6.91-4.03,13.82-8.05,20.74-12.06,2.08-1.2,4.16-2.41,6.26-3.57.62-.34.7-.69.36-1.25-.65-1.09-1.28-2.2-2.03-3.51h0Z"/><path class="cls-3" d="m96.05,14.51c.3-.19.39-.59.2-.88s-.58-.39-.88-.2l-.33.21s-.09.04-.14.07l-1.08.69s-.09.06-.12.1c-.25.2-.32.56-.14.84.19.3.58.39.88.2l1.62-1.03Z"/><path class="cls-3" d="m56.37,13.81c-.3-.19-.69-.09-.88.21-.16.26-.11.59.1.8.04.05.1.1.16.14l1.09.68s.1.05.15.07l.33.21c.3.19.69.09.88-.21.19-.3.09-.7-.21-.88l-.41-.25s-.1-.05-.15-.07l-.54-.34s-.08-.07-.13-.1l-.41-.25Z"/><path class="cls-3" d="m59.71,15.91c-.3-.19-.69-.09-.88.21-.19.3-.09.7.21.88l2.19,1.36c.3.19.69.09.88-.21s.09-.7-.21-.88l-2.19-1.36Z"/><path class="cls-3" d="m64.08,18.63c-.3-.19-.69-.09-.88.21-.19.3-.09.7.21.88l2.19,1.36c.3.19.69.09.88-.21.19-.3.09-.7-.21-.88l-2.19-1.36Z"/><path class="cls-3" d="m68.46,21.35c-.3-.19-.69-.09-.88.21-.19.3-.09.7.21.88l2.19,1.36c.3.19.69.09.88-.21.19-.3.09-.7-.21-.88l-2.19-1.36Z"/><path class="cls-3" d="m72.84,24.08c-.3-.19-.69-.09-.88.21-.19.3-.09.7.21.88l2.19,1.36c.3.19.69.09.88-.21.19-.3.09-.7-.21-.88l-2.19-1.36Z"/><path class="cls-3" d="m77.22,26.8c-.3-.19-.69-.09-.88.21-.19.3-.09.7.21.88l2.19,1.36c.3.19.69.09.88-.21.19-.3.09-.7-.21-.88l-2.19-1.36Z"/><path class="cls-3" d="m81.6,29.52c-.3-.19-.69-.09-.88.21-.19.3-.09.7.21.88l2.19,1.36c.3.19.69.09.88-.21.19-.3.09-.7-.21-.88l-2.19-1.36Z"/><path class="cls-3" d="m85.97,32.25c-.3-.19-.69-.09-.88.21-.19.3-.09.7.21.88l2.19,1.36c.3.19.69.09.88-.21.19-.3.09-.7-.21-.88l-2.19-1.36Z"/><path class="cls-3" d="m90.35,34.97c-.3-.19-.69-.09-.88.21-.19.3-.09.7.21.88l2.19,1.36c.3.19.69.09.88-.21.19-.3.09-.7-.21-.88l-2.19-1.36Z"/><path class="cls-3" d="m94.73,37.69c-.3-.19-.69-.09-.88.21-.19.3-.09.7.21.88l2.19,1.36c.3.19.69.09.88-.21.19-.3.09-.7-.21-.88l-2.19-1.36Z"/><path class="cls-3" d="m99.11,40.41c-.3-.19-.69-.09-.88.21-.19.3-.09.7.21.88l2.19,1.36c.3.19.69.09.88-.21.19-.3.09-.7-.21-.88l-2.19-1.36Z"/><path class="cls-3" d="m102.55,43.47c-.26.06-.54-.04-.69-.28-.19-.3-.1-.69.2-.88l2.15-1.37c.3-.19.69-.1.88.2.19.3.1.69-.2.88l-1.62,1.03c.08.01.15.04.23.09l2.19,1.36c.3.19.39.58.21.88-.19.3-.58.39-.88.21l-2.19-1.36c-.26-.16-.37-.48-.27-.76Z"/><path class="cls-3" d="m107.86,45.86c-.3-.19-.69-.09-.88.21s-.09.7.21.88l2.19,1.36c.3.19.69.09.88-.21.19-.3.09-.7-.21-.88l-2.19-1.36Z"/><path class="cls-3" d="m112.24,48.58c-.3-.19-.69-.09-.88.21-.19.3-.09.7.21.88l2.19,1.36c.3.19.69.09.88-.21.19-.3.09-.7-.21-.88l-2.19-1.36Z"/><path class="cls-3" d="m116.62,51.31c-.3-.19-.69-.09-.88.21-.19.3-.09.7.21.88l2.19,1.36c.3.19.69.09.88-.21.19-.3.09-.7-.21-.88l-2.19-1.36Z"/><path class="cls-3" d="m121,54.03s-.01,0-.02-.01l-.39-.24c-.3-.19-.69-.09-.88.21-.19.3-.09.7.21.88l.41.25s.01,0,.02.01l1.08.67s.01,0,.02.01l.1.06c.3.19.69.09.88-.21.19-.3.09-.7-.21-.88l-.41-.25s0,0-.01,0l-.8-.5Z"/><path class="cls-3" d="m29.69,30.25c-.3-.19-.69-.09-.88.21-.19.3-.09.7.21.88l.41.25s.07.04.11.06l.6.37s.07.06.1.08l.41.25c.3.19.69.09.88-.21.19-.3.09-.7-.21-.88l-.22-.14s-.07-.06-.1-.08l-1.09-.68s-.07-.04-.11-.06l-.1-.06Z"/><path class="cls-3" d="m32.3,32.61c.19-.3.58-.39.88-.21l2.19,1.36c.3.19.39.58.21.88-.19.3-.58.39-.88.21l-2.19-1.36c-.3-.19-.39-.58-.21-.88Z"/><path class="cls-3" d="m36.68,35.33c.19-.3.58-.39.88-.21l2.19,1.36c.3.19.39.58.21.88-.19.3-.58.39-.88.21l-2.19-1.36c-.3-.19-.39-.58-.21-.88Z"/><path class="cls-3" d="m41.06,38.06c.19-.3.58-.39.88-.21l2.19,1.36c.3.19.39.58.21.88-.19.3-.58.39-.88.21l-2.19-1.36c-.3-.19-.39-.58-.21-.88Z"/><path class="cls-3" d="m45.44,40.78c.19-.3.58-.39.88-.21l2.19,1.36c.3.19.39.58.21.88s-.58.39-.88.21l-2.19-1.36c-.3-.19-.39-.58-.21-.88Z"/><path class="cls-3" d="m49.81,43.5c.19-.3.58-.39.88-.21l2.19,1.36c.3.19.39.58.21.88s-.58.39-.88.21l-2.19-1.36c-.3-.19-.39-.58-.21-.88Z"/><path class="cls-3" d="m54.19,46.23c.19-.3.58-.39.88-.21l2.19,1.36c.3.19.39.58.21.88-.19.3-.58.39-.88.21l-2.19-1.36c-.3-.19-.39-.58-.21-.88Z"/><path class="cls-3" d="m58.57,48.95c.19-.3.58-.39.88-.21l2.19,1.36c.3.19.39.58.21.88-.19.3-.58.39-.88.21l-2.19-1.36c-.3-.19-.39-.58-.21-.88Z"/><path class="cls-3" d="m62.95,51.67c.19-.3.58-.39.88-.21l2.19,1.36c.3.19.39.58.21.88-.19.3-.58.39-.88.21l-2.19-1.36c-.3-.19-.39-.58-.21-.88Z"/><path class="cls-3" d="m67.33,54.39c.19-.3.58-.39.88-.21l2.19,1.36c.3.19.39.58.21.88-.19.3-.58.39-.88.21l-2.19-1.36c-.3-.19-.39-.58-.21-.88Z"/><path class="cls-3" d="m71.71,57.12c.19-.3.58-.39.88-.21l2.19,1.36c.3.19.39.58.21.88-.19.3-.58.39-.88.21l-2.19-1.36c-.3-.19-.39-.58-.21-.88Z"/><path class="cls-3" d="m77.09,59.71l2.03-1.29c.3-.19.39-.59.2-.88-.19-.3-.58-.39-.88-.2l-2.15,1.37c-.3.19-.39.59-.2.88.03.04.06.08.1.12-.04.04-.08.08-.11.13-.19.3-.09.7.21.88l2.19,1.36c.3.19.69.09.88-.21.19-.3.09-.7-.21-.88l-2.06-1.28Z"/><path class="cls-3" d="m80.46,62.56c.19-.3.58-.39.88-.21l2.19,1.36c.3.19.39.58.21.88-.19.3-.58.39-.88.21l-2.19-1.36c-.3-.19-.39-.58-.21-.88Z"/><path class="cls-3" d="m84.84,65.29c.19-.3.58-.39.88-.21l2.19,1.36c.3.19.39.58.21.88-.19.3-.58.39-.88.21l-2.19-1.36c-.3-.19-.39-.58-.21-.88Z"/><path class="cls-3" d="m89.22,68.01c.19-.3.58-.39.88-.21l2.19,1.36c.3.19.39.58.21.88-.19.3-.58.39-.88.21l-2.19-1.36c-.3-.19-.39-.58-.21-.88Z"/><path class="cls-3" d="m94.28,70.45c.07.02.13.04.19.08l1.09.68c.3.19.39.58.21.88-.06.1-.15.18-.25.23-.2.12-.45.12-.66,0l-.41-.25c-.06-.04-.11-.09-.16-.14l-.46-.29c-.07-.02-.13-.04-.19-.08l-.41-.25c-.3-.19-.39-.58-.21-.88.19-.3.58-.39.88-.21l.38.24Z"/><path class="cls-3" d="m121.96,30.38c.19.3.1.69-.2.88l-.72.46s-.04.03-.06.05l-1.07.68c-.3.19-.69.1-.88-.2-.19-.3-.1-.69.2-.88l.17-.11s.04-.03.07-.05l1.62-1.03c.3-.19.69-.1.88.2Z"/><path class="cls-3" d="m117.76,33.82c.3-.19.39-.59.2-.88-.19-.3-.58-.39-.88-.2l-2.15,1.37c-.3.19-.39.59-.2.88.19.3.58.39.88.2l2.15-1.37Z"/><path class="cls-3" d="m113.47,36.55c.3-.19.39-.59.2-.88-.19-.3-.58-.39-.88-.2l-2.15,1.37c-.3.19-.39.59-.2.88.19.3.58.39.88.2l2.15-1.37Z"/><path class="cls-3" d="m109.18,39.28c.3-.19.39-.59.2-.88-.19-.3-.58-.39-.88-.2l-2.15,1.37c-.3.19-.39.59-.2.88.19.3.58.39.88.2l2.15-1.37Z"/><path class="cls-3" d="m100.59,44.75c.3-.19.39-.59.2-.88-.19-.3-.58-.39-.88-.2l-2.15,1.37c-.3.19-.39.59-.2.88.19.3.58.39.88.2l2.15-1.37Z"/><path class="cls-3" d="m96.3,47.48c.3-.19.39-.59.2-.88-.19-.3-.58-.39-.88-.2l-2.15,1.37c-.3.19-.39.59-.2.88.19.3.58.39.88.2l2.15-1.37Z"/><path class="cls-3" d="m92,50.22c.3-.19.39-.59.2-.88-.19-.3-.58-.39-.88-.2l-2.15,1.37c-.3.19-.39.59-.2.88.19.3.58.39.88.2l2.15-1.37Z"/><path class="cls-3" d="m87.71,52.95c.3-.19.39-.59.2-.88-.19-.3-.58-.39-.88-.2l-2.15,1.37c-.3.19-.39.59-.2.88.19.3.58.39.88.2l2.15-1.37Z"/><path class="cls-3" d="m83.42,55.69c.3-.19.39-.59.2-.88-.19-.3-.58-.39-.88-.2l-2.15,1.37c-.3.19-.39.59-.2.88.19.3.58.39.88.2l2.15-1.37Z"/><path class="cls-3" d="m74.83,61.15c.3-.19.39-.59.2-.88-.19-.3-.58-.39-.88-.2l-2.15,1.37c-.3.19-.39.59-.2.88.19.3.58.39.88.2l2.15-1.37Z"/><path class="cls-3" d="m70.54,63.89c.3-.19.39-.59.2-.88-.19-.3-.58-.39-.88-.2l-2.15,1.37c-.3.19-.39.59-.2.88.19.3.58.39.88.2l2.15-1.37Z"/><path class="cls-3" d="m66.25,66.62c.3-.19.39-.59.2-.88-.19-.3-.58-.39-.88-.2l-2.15,1.37c-.3.19-.39.59-.2.88.19.3.58.39.88.2l2.15-1.37Z"/><path class="cls-3" d="m61.95,69.35c.3-.19.39-.59.2-.88-.19-.3-.58-.39-.88-.2l-2.15,1.37c-.3.19-.39.59-.2.88.19.3.58.39.88.2l2.15-1.37Z"/><path class="cls-3" d="m56.98,71.01s.09-.05.14-.07l.17-.11c.3-.19.69-.1.88.2.19.3.1.69-.2.88l-1.62,1.03c-.3.19-.69.1-.88-.2s-.1-.69.2-.88l.11-.07s.08-.07.12-.1l1.07-.68Z"/><path class="cls-3" d="m92.54,15.96c.19.3.1.69-.2.88l-2.15,1.37c-.3.19-.69.1-.88-.2-.19-.3-.1-.69.2-.88l2.15-1.37c.3-.19.69-.1.88.2Z"/><path class="cls-3" d="m88.24,18.71c.19.3.1.69-.2.88l-2.15,1.37c-.3.19-.69.1-.88-.2-.19-.3-.1-.69.2-.88l2.15-1.37c.3-.19.69-.1.88.2Z"/><path class="cls-3" d="m83.94,21.45c.19.3.1.69-.2.88l-2.15,1.37c-.3.19-.69.1-.88-.2-.19-.3-.1-.69.2-.88l2.15-1.37c.3-.19.69-.1.88.2Z"/><path class="cls-3" d="m79.63,24.2c.19.3.1.69-.2.88l-2.15,1.37c-.3.19-.69.1-.88-.2-.19-.3-.1-.69.2-.88l2.15-1.37c.3-.19.69-.1.88.2Z"/><path class="cls-3" d="m75.33,26.94c.19.3.1.69-.2.88l-2.15,1.37c-.3.19-.69.1-.88-.2-.19-.3-.1-.69.2-.88l2.15-1.37c.3-.19.69-.1.88.2Z"/><path class="cls-3" d="m71.03,29.68c.19.3.1.69-.2.88l-2.15,1.37c-.3.19-.69.1-.88-.2-.19-.3-.1-.69.2-.88l2.15-1.37c.3-.19.69-.1.88.2Z"/><path class="cls-3" d="m66.72,32.43c.19.3.1.69-.2.88l-2.15,1.37c-.3.19-.69.1-.88-.2-.19-.3-.1-.69.2-.88l2.15-1.37c.3-.19.69-.1.88.2Z"/><path class="cls-3" d="m62.42,35.17c.19.3.1.69-.2.88l-2.15,1.37c-.3.19-.69.1-.88-.2s-.1-.69.2-.88l2.15-1.37c.3-.19.69-.1.88.2Z"/><path class="cls-3" d="m58.12,37.92c.19.3.1.69-.2.88l-2.15,1.37c-.3.19-.69.1-.88-.2-.19-.3-.1-.69.2-.88l2.15-1.37c.3-.19.69-.1.88.2Z"/><path class="cls-3" d="m53.81,40.66c.19.3.1.69-.2.88l-2.15,1.37c-.3.19-.69.1-.88-.2-.19-.3-.1-.69.2-.88l2.15-1.37c.3-.19.69-.1.88.2Z"/><path class="cls-3" d="m49.51,43.41c.19.3.1.69-.2.88l-2.15,1.37c-.3.19-.69.1-.88-.2-.19-.3-.1-.69.2-.88l2.15-1.37c.3-.19.69-.1.88.2Z"/><path class="cls-3" d="m45.21,46.15c.19.3.1.69-.2.88l-2.15,1.37c-.3.19-.69.1-.88-.2-.19-.3-.1-.69.2-.88l2.15-1.37c.3-.19.69-.1.88.2Z"/><path class="cls-3" d="m40.9,48.89c.19.3.1.69-.2.88l-2.15,1.37c-.3.19-.69.1-.88-.2-.19-.3-.1-.69.2-.88l2.15-1.37c.3-.19.69-.1.88.2Z"/><path class="cls-3" d="m36.6,51.64c.19.3.1.69-.2.88l-2.15,1.37c-.3.19-.69.1-.88-.2-.19-.3-.1-.69.2-.88l2.15-1.37c.3-.19.69-.1.88.2Z"/><path class="cls-3" d="m32.17,55.22s-.04.03-.07.05l-1.08.69s-.05.03-.08.04l-.3.19c-.3.19-.69.1-.88-.2-.19-.3-.1-.69.2-.88l1.62-1.03c.3-.19.69-.1.88.2.19.3.1.69-.2.88l-.1.06Z"/></g></svg>