<svg width="140" height="120" viewBox="0 0 140 120" fill="none" xmlns="http://www.w3.org/2000/svg">
<path fill-rule="evenodd" clip-rule="evenodd" d="M1.18347 96.4607L60.4483 92.2422L88.169 93.7421L115.316 108.554C115.603 108.741 115.125 108.929 114.265 109.022L44.1027 119.897C43.2424 119.99 42.1909 119.99 41.9042 119.803L0.131993 96.9294C-0.250361 96.7419 0.227581 96.5544 1.18347 96.4607Z" fill="black" fill-opacity="0.1"/>
<path fill-rule="evenodd" clip-rule="evenodd" d="M44.1983 0L99.4485 11.2493L120 31.3104V107.149C120 107.993 119.331 108.555 118.375 108.649L44.1983 119.992C43.338 120.086 42.5733 119.336 42.5733 118.492V1.59364C42.5733 0.74995 43.2424 0 44.1983 0Z" fill="url(#paint0_linear_2765_9768)"/>
<path fill-rule="evenodd" clip-rule="evenodd" d="M44.8674 0.09375L45.8233 0.281238L46.1101 0.374981V119.711L44.8674 119.898V0.09375ZM48.1174 0.749957L48.691 0.937444V119.336L47.4483 119.523V0.656213L48.1174 0.749957ZM51.1763 118.867L49.9336 119.055V1.12493L51.1763 1.40616V118.867Z" fill="black" fill-opacity="0.12549"/>
<path fill-rule="evenodd" clip-rule="evenodd" d="M42.6689 54.0906L42.5733 6.65625L88.5514 15.3744C90.9411 15.8431 92.9485 17.343 92.9485 19.6866V38.1542C92.9485 40.4978 91.0367 42.1852 88.647 42.7476L42.6689 54.0906ZM98.3014 11.2497H99.3529L119.904 31.3109V32.3421H101.743C99.8308 32.3421 98.2058 30.8421 98.2058 28.8735V11.2497H98.3014Z" fill="black" fill-opacity="0.15"/>
<path fill-rule="evenodd" clip-rule="evenodd" d="M28.9041 4.12254L89.6028 15.3718C91.419 15.7468 92.9484 16.8717 92.9484 18.6528V38.0578C92.9484 39.8389 91.419 41.0576 89.6028 41.3388L28.9041 52.7756C27.0879 53.1506 25.5585 51.2757 25.5585 49.4945V7.40358C25.4629 5.62244 27.0879 3.74757 28.9041 4.12254Z" fill="url(#paint1_linear_2765_9768)"/>
<path fill-rule="evenodd" clip-rule="evenodd" d="M119.904 31.3112H101.743C100.404 31.3112 99.3528 30.28 99.3528 28.9676V11.25L119.904 31.3112Z" fill="url(#paint2_linear_2765_9768)"/>
<path d="M41.0439 38.7135V18.5586H45.6321C47.7351 18.5586 49.2645 19.1211 50.2204 20.246C51.2719 21.3709 51.7498 23.0583 51.7498 25.3081C51.7498 27.4643 51.1763 29.0579 50.0292 30.2766C48.8821 31.4952 47.3527 32.0577 45.3454 32.0577H44.963V38.6198H41.0439V38.7135ZM45.0586 21.5584V28.9642H45.2498C46.1101 28.9642 46.7792 28.6829 47.1615 28.0267C47.6395 27.3705 47.8307 26.4331 47.8307 25.2144C47.8307 23.9957 47.6395 23.152 47.1615 22.4958C46.6836 21.9334 46.0145 21.5584 45.0586 21.5584ZM54.3307 38.7135V18.5586H58.3454C61.1175 18.5586 63.0292 19.3085 64.2719 20.8084C65.5145 22.3083 66.0881 24.7457 66.0881 28.1205C66.0881 31.7765 65.5145 34.4013 64.2719 36.0887C63.1248 37.7761 61.2131 38.6198 58.6322 38.6198H54.3307V38.7135ZM58.2498 35.5262H58.3454C59.6836 35.5262 60.5439 35.0575 61.1175 34.0263C61.691 32.9951 61.8822 31.214 61.8822 28.6829C61.8822 26.0581 61.5954 24.277 61.1175 23.2458C60.5439 22.2146 59.6836 21.7459 58.3454 21.7459H58.1542V35.5262H58.2498ZM68.7645 38.7135V18.5586H77.3675V21.7459H72.7793V26.5268H77.3675V29.6204H72.7793V38.6198H68.7645V38.7135Z" fill="white"/>
<path fill-rule="evenodd" clip-rule="evenodd" d="M79.0882 76.3071L82.6249 80.3381C83.1985 80.9005 83.8676 81.463 84.5367 82.0255L87.6911 84.5566C88.7426 85.4002 89.8897 86.1502 91.0367 86.9001C91.4191 87.0876 92.5661 87.8376 92.9485 87.8376C94.4779 87.8376 96.0073 87.7438 97.5367 87.6501C99.7353 87.5564 101.934 87.4626 104.132 87.4626C106.713 87.4626 109.581 87.5564 112.162 88.1188C114.074 88.4938 116.654 89.3375 117.515 91.3061C117.61 91.5873 117.706 91.9623 117.802 92.3373C117.897 93.3685 117.706 94.3059 117.132 95.1496C116.176 96.462 114.551 97.212 113.022 97.4932C110.824 97.8682 108.051 97.4932 105.853 97.1182C103.654 96.7433 101.36 96.1808 99.1617 95.4308C97.8235 95.0559 96.5808 94.4934 95.3382 93.9309C94.3823 93.556 93.522 93.181 92.5661 92.806C92.1838 92.6185 91.5147 92.3373 91.0367 92.2436C88.4558 92.2436 85.6838 92.6185 83.1029 93.0872C80.3308 93.6497 77.5587 94.3059 74.8823 95.0559C73.6396 95.4308 70.8675 95.9933 70.1984 97.0245C68.0955 99.9305 65.6102 103.774 62.169 105.274C59.5881 106.399 56.6249 105.555 55.191 103.118C54.8087 102.462 54.6175 101.712 54.7131 100.962C55.191 97.5869 60.8307 95.6183 63.6984 94.3997C64.5587 94.0247 65.419 93.7434 66.2793 93.4622C66.6616 93.3685 67.044 93.181 67.4264 92.9935C67.7131 92.806 67.9043 92.431 68.0955 92.1498C69.0514 90.5562 69.9117 88.9625 70.6764 87.2751C70.9631 86.5252 71.2499 85.6815 71.4411 84.9315C71.8234 83.8066 72.1102 82.5879 72.397 81.3693C72.6837 80.1506 73.3528 76.8696 73.0661 75.6509L72.4925 74.8072C72.1102 74.151 71.6323 73.4948 71.2499 72.9323C70.1028 71.1512 69.0514 69.2763 68.0955 67.4014C66.9484 65.2453 65.6102 62.433 65.3234 59.9957C64.941 56.9021 65.9925 55.0273 69.0514 53.9961C70.294 53.6211 71.5367 53.5274 72.7793 54.0898C75.9337 55.5897 76.8896 60.5581 77.272 63.7454C77.5587 66.1828 77.5587 68.7139 77.5587 71.1512V73.4948C77.5587 73.776 77.5587 74.151 77.6543 74.3385C77.7499 74.526 77.8455 74.8072 78.0367 74.9947C78.419 75.4634 78.8014 75.8384 79.0882 76.3071ZM73.0661 67.1202C72.8749 64.0267 72.4925 60.6519 71.5367 58.8708C71.3455 58.4958 70.6764 58.0271 70.1984 58.1208C69.9117 58.2145 69.9117 58.9645 69.9117 59.152C69.9117 60.8394 70.9631 63.0892 71.7278 64.4954C72.2058 65.3391 72.6837 66.2765 73.0661 67.1202ZM102.89 91.8686C105.279 92.5248 107.765 93.0872 110.059 93.0872C110.919 93.0872 111.779 93.0872 112.544 92.8998C112.64 92.8998 112.735 92.806 112.926 92.806C112.544 92.6185 112.066 92.5248 111.875 92.431C110.824 92.1498 109.581 92.0561 108.529 91.9623C107.096 91.8686 105.662 91.7748 104.228 91.7748C103.846 91.8686 103.368 91.8686 102.89 91.8686ZM73.9264 90.9311C74.9778 90.6499 75.9337 90.3687 76.9852 90.0874C79.2793 89.4312 81.669 88.9625 84.0588 88.5875C84.6323 88.4938 85.1102 88.4938 85.6838 88.4001L84.8235 87.7438C83.3896 86.8064 81.8602 85.4003 80.6176 84.1816C79.4705 83.0567 78.3234 81.9317 77.272 80.7131C76.6028 84.3691 75.4558 87.6501 73.9264 90.9311ZM62.4557 99.9305C62.3602 100.024 62.169 100.024 62.0734 100.118C61.5955 100.306 60.3528 100.962 59.7793 101.43H59.9704C60.7352 101.524 61.7866 100.587 62.4557 99.9305Z" fill="url(#paint3_linear_2765_9768)"/>
<path fill-rule="evenodd" clip-rule="evenodd" d="M66.3749 97.0225C65.419 98.3349 61.4043 104.522 58.6322 102.178C57.1984 100.96 60.7352 99.366 61.5955 98.9911C63.0293 98.3349 64.8455 97.4912 66.3749 97.0225ZM71.5367 92.8977C73.7352 88.4918 75.8381 83.8983 76.2205 77.8987L77.7499 79.4924C79.5661 81.3672 83.1985 85.3045 85.4926 86.7106L88.8382 89.148C87.9779 89.4292 85.3014 89.6167 84.1544 89.7104C78.897 90.5541 76.2205 91.5853 71.5367 92.8977ZM112.257 91.3041C117.802 92.5228 114.265 96.9287 100.213 92.3353C99.5441 92.1478 98.9706 91.8665 98.2059 91.6791C97.4412 91.3978 96.772 91.3041 96.2941 90.8354C100.118 90.5541 108.338 90.4604 112.257 91.3041ZM74.4999 71.6179C73.6396 70.7742 71.4411 66.6495 70.5808 65.1496C65.8014 55.8689 71.1543 55.8689 72.5881 58.3063C74.4043 61.2123 74.4999 68.1494 74.4999 71.6179ZM69.6249 55.2127C67.5219 55.9627 66.4705 57.0876 66.7572 59.8999C67.4264 65.2433 74.2131 74.7114 74.4043 75.2739C75.169 77.6175 72.8749 85.6794 72.0146 87.8356C71.2499 89.8042 70.294 91.3041 69.3381 92.8977C68.2867 94.6789 67.7131 94.3976 64.3675 95.71C61.8822 96.7412 54.5219 99.2723 56.4337 102.647C57.294 104.241 59.4925 105.272 61.7866 104.241C64.8455 102.835 67.3308 99.0848 69.2425 96.3662C70.294 94.9601 72.8749 94.4914 74.5955 93.9289C78.897 92.6165 86.4485 90.9291 91.2279 91.0228C91.9926 91.0228 97.3456 93.4602 99.6397 94.2101C102.985 95.2413 109.103 96.835 112.831 96.1788C114.838 95.8975 116.846 94.5851 116.654 92.3353C116.081 87.0856 97.8235 88.9605 93.0441 89.0542C90.9411 89.0542 83.1985 82.6796 81.669 81.1797L78.1323 77.055C76.2205 74.4302 76.4117 75.0864 76.4117 71.1492C76.4117 68.8056 76.3161 66.1807 76.1249 63.8371C75.647 60.0874 74.2131 53.6191 69.6249 55.2127Z" fill="white"/>
<defs>
<linearGradient id="paint0_linear_2765_9768" x1="42.5733" y1="0" x2="120" y2="0" gradientUnits="userSpaceOnUse">
<stop stop-color="#EEF1F2"/>
<stop offset="1" stop-color="#D2D3D5"/>
</linearGradient>
<linearGradient id="paint1_linear_2765_9768" x1="25.5545" y1="4.07422" x2="92.9484" y2="4.07422" gradientUnits="userSpaceOnUse">
<stop stop-color="#D2D5D7"/>
<stop offset="1" stop-color="#A2A4A6"/>
</linearGradient>
<linearGradient id="paint2_linear_2765_9768" x1="99.3528" y1="11.25" x2="119.904" y2="11.25" gradientUnits="userSpaceOnUse">
<stop stop-color="#D2D4D6"/>
<stop offset="1" stop-color="#BFC0C1"/>
</linearGradient>
<linearGradient id="paint3_linear_2765_9768" x1="54.6887" y1="53.6914" x2="117.825" y2="53.6914" gradientUnits="userSpaceOnUse">
<stop stop-color="#E4E8EC"/>
<stop offset="1" stop-color="#CACDCF"/>
</linearGradient>
</defs>
</svg>
