<?xml version="1.0" encoding="UTF-8"?><svg id="Layer_1" xmlns="http://www.w3.org/2000/svg" xmlns:xlink="http://www.w3.org/1999/xlink" viewBox="0 0 150 88"><defs><style>.cls-1{fill:#0095da;}.cls-1,.cls-2,.cls-3{stroke-width:0px;}.cls-1,.cls-3{fill-rule:evenodd;}.cls-2{fill:none;}.cls-4{clip-path:url(#clippath);}.cls-3{fill:#6e6e73;}</style><clipPath id="clippath"><rect class="cls-2" width="150" height="88"/></clipPath></defs><g class="cls-4"><path class="cls-1" d="m60.83,24.39l14.04,24.52h0l13.91-24.14c1.52-2.54,2.4-5.47,2.4-8.51,0-9.02-7.21-16.26-16.19-16.26s-16.31,7.24-16.31,16.26c0,2.92.76,5.72,2.15,8.13Zm23.52-7.75c0-5.21-4.17-9.28-9.23-9.28s-9.23,4.19-9.23,9.28,4.17,9.28,9.23,9.28,9.23-4.07,9.23-9.28Z"/><path class="cls-3" d="m36.95,25.15l-25.68,59.87s0,0,0,0c.05.05.13.1.21.13.08.03.14.04.16.04h126.64,0s.06,0,.16-.05c.08-.03.15-.08.22-.13l-25.7-59.94s-.03-.09-.04-.13c-.09-.32-.18-.48-.24-.55-.02-.02-.03-.03-.04-.03,0,0-.05-.02-.16-.02h-16.93c-.77,0-1.4-.63-1.4-1.4s.63-1.4,1.4-1.4h16.93c.95,0,1.71.37,2.25.96.47.52.71,1.14.85,1.62l25.76,60.08c.63,1.28-.23,2.39-.72,2.83-.57.52-1.45.97-2.33.97H11.64c-.83,0-1.65-.36-2.25-.9-.61-.56-1.15-1.5-.89-2.64.02-.07.04-.14.06-.2l25.81-60.21c.02-.06.05-.11.08-.17.06-.12.1-.19.15-.28.04-.08.08-.16.15-.3.11-.21.27-.49.49-.75.51-.62,1.23-1.02,2.22-1.02h16.93c.77,0,1.4.63,1.4,1.4s-.63,1.4-1.4,1.4h-16.93s-.05,0-.06,0c-.03.04-.09.12-.17.28-.04.07-.07.14-.11.22,0,.02-.02.04-.03.06-.04.08-.08.16-.13.26Z"/></g></svg>