<svg width="21" height="16" viewBox="0 0 21 16" fill="none" xmlns="http://www.w3.org/2000/svg">
<path d="M20.8125 7.75L17.4062 2.25C17.3125 2.09375 17.1562 2 17 2C16.8125 2 16.6562 2.09375 16.5625 2.25L13.1562 7.75C13.0312 7.90625 12.9688 8.125 13 8.34375C13.1562 10.4062 14.875 12 17 12C19.0938 12 20.8125 10.4062 20.9688 8.34375C21 8.125 20.9375 7.90625 20.8125 7.75ZM17 11C15.6875 11 14.5625 10.1562 14.1562 9H19.8125C19.4062 10.1875 18.2812 11 17 11ZM14.1562 8L17 3.46875L19.8125 8H14.1562ZM17.75 15H11.5V3.9375C12.1875 3.75 12.7188 3.21875 12.9062 2.53125L17.5312 0.96875C17.6875 0.9375 17.75 0.78125 17.6875 0.65625L17.5312 0.1875C17.5 0.0625 17.3438 0 17.2188 0.03125L12.9062 1.46875C12.6562 0.625 11.9062 0 11 0C9.875 0 9 0.90625 9 2C9 2.28125 9.03125 2.5 9.125 2.75L4.4375 4.3125C4.28125 4.34375 4.21875 4.5 4.28125 4.625L4.4375 5.09375C4.46875 5.21875 4.625 5.3125 4.75 5.25L9.75 3.59375C9.96875 3.75 10.2188 3.875 10.5 3.9375V15.75C10.5 15.9062 10.5938 16 10.75 16H17.75C17.875 16 18 15.9062 18 15.75V15.25C18 15.125 17.875 15 17.75 15ZM10 2C10 1.46875 10.4375 1 11 1C11.5312 1 12 1.46875 12 2C12 2.5625 11.5312 3 11 3C10.4375 3 10 2.5625 10 2ZM5.40625 6.25C5.3125 6.09375 5.15625 6 5 6C4.8125 6 4.65625 6.09375 4.5625 6.25L1.15625 11.75C1.03125 11.9062 0.96875 12.125 1 12.3438C1.15625 14.4062 2.875 16 5 16C7.09375 16 8.8125 14.4062 8.96875 12.3438C9 12.125 8.9375 11.9062 8.8125 11.75L5.40625 6.25ZM5 15C3.6875 15 2.5625 14.1562 2.15625 13H7.8125C7.40625 14.1875 6.28125 15 5 15ZM2.15625 12L5 7.46875L7.8125 12H2.15625Z" fill="#1D1D1F"/>
</svg>
