<svg width="24" height="32" viewBox="0 0 24 32" fill="none" xmlns="http://www.w3.org/2000/svg">
<path d="M7.84375 3.15625C10.293 3.15625 12.2969 5.16016 12.2969 7.60938C12.2969 10.0957 10.293 12.0625 7.84375 12.0625C5.35742 12.0625 3.39062 10.0957 3.39062 7.60938C3.39062 5.16016 5.35742 3.15625 7.84375 3.15625ZM7.84375 10.875C9.625 10.875 11.1094 9.42773 11.1094 7.60938C11.1094 5.82812 9.625 4.34375 7.84375 4.34375C6.02539 4.34375 4.57812 5.82812 4.57812 7.60938C4.57812 9.42773 6.02539 10.875 7.84375 10.875ZM9.32812 7.90625C9.47656 7.90625 9.625 8.05469 9.625 8.20312V8.79688C9.625 8.98242 9.47656 9.09375 9.32812 9.09375H7.54688C7.36133 9.09375 7.25 8.98242 7.25 8.79688V5.82812C7.25 5.67969 7.36133 5.53125 7.54688 5.53125H8.14062C8.28906 5.53125 8.4375 5.67969 8.4375 5.82812V7.90625H9.32812ZM23.5781 13.8438C23.7266 13.8438 23.875 13.9922 23.875 14.1406V14.7344C23.875 14.9199 23.7266 15.0312 23.5781 15.0312H21.4258C21.4629 15.2539 21.5 15.4395 21.5 15.625C21.5 17.2949 20.1641 18.5938 18.5312 18.5938C16.8613 18.5938 15.5625 17.2949 15.5625 15.625C15.5625 15.4395 15.5625 15.2539 15.5996 15.0312H8.36328C8.40039 15.2539 8.4375 15.4395 8.4375 15.625C8.4375 17.2949 7.10156 18.5938 5.46875 18.5938C3.79883 18.5938 2.5 17.2949 2.5 15.625C2.5 15.4395 2.5 15.2539 2.53711 15.0312H1.94336C0.941406 15.0312 0.125 14.2891 0.125 13.3242V2.52539C0.125 1.56055 0.941406 0.78125 1.94336 0.78125H13.707C14.709 0.78125 15.5625 1.56055 15.5625 2.52539V4.34375H17.1953C17.8262 4.34375 18.4199 4.60352 18.8652 5.04883L21.9824 8.16602C22.4277 8.61133 22.6875 9.24219 22.6875 9.83594V13.8438H23.5781ZM5.46875 17.4062C6.43359 17.4062 7.25 16.627 7.25 15.625C7.25 14.6602 6.43359 13.8438 5.46875 13.8438C4.4668 13.8438 3.6875 14.6602 3.6875 15.625C3.6875 16.627 4.4668 17.4062 5.46875 17.4062ZM14.375 13.8438V2.52539C14.375 2.22852 14.0781 1.96875 13.707 1.96875H1.94336C1.57227 1.96875 1.3125 2.22852 1.3125 2.52539V13.3242C1.3125 13.6211 1.57227 13.8438 1.94336 13.8438H3.09375C3.65039 13.1387 4.50391 12.6562 5.46875 12.6562C6.43359 12.6562 7.28711 13.1387 7.80664 13.8438H14.375ZM15.5625 5.53125V9.13086H21.2031C21.166 9.09375 21.166 9.05664 21.1289 9.01953L18.0117 5.90234C17.7891 5.67969 17.4922 5.53125 17.1953 5.53125H15.5625ZM18.5312 17.4062C19.4961 17.4062 20.3125 16.627 20.3125 15.625C20.3125 14.6602 19.4961 13.8438 18.5312 13.8438C17.5293 13.8438 16.75 14.6602 16.75 15.625C16.75 16.627 17.5293 17.4062 18.5312 17.4062ZM21.5 13.8438V10.2812H15.5625V13.8438H16.1562C16.7129 13.1387 17.5664 12.6562 18.5312 12.6562C19.4961 12.6562 20.3496 13.1387 20.8691 13.8438H21.5Z" fill="white"/>
<path d="M3.25 31.2188L7.00586 23.9004V23.8711H2.54688V22.7637H8.30078V23.9004L4.62695 31.2188H3.25Z" fill="white"/>
<path d="M9.15063 25.2422C9.15063 24.4805 9.42406 23.8516 9.97094 23.3555C10.5217 22.8555 11.217 22.6055 12.0569 22.6055C12.8616 22.6055 13.5315 22.832 14.0666 23.2852C14.6018 23.7383 14.8694 24.3008 14.8694 24.9727C14.8694 25.4453 14.7385 25.8945 14.4768 26.3203C14.2151 26.7422 13.758 27.2871 13.1057 27.9551L10.9905 30.082V30.1113H15.0041V31.2188H9.22094V30.3281L12.2737 27.2168C12.7893 26.6777 13.135 26.2637 13.3108 25.9746C13.4866 25.6816 13.5745 25.3691 13.5745 25.0371C13.5745 24.6621 13.4241 24.3438 13.1233 24.082C12.8225 23.8203 12.4534 23.6895 12.0159 23.6895C11.5549 23.6895 11.1682 23.8379 10.8557 24.1348C10.5471 24.4277 10.3928 24.7949 10.3928 25.2363V25.2539H9.15063V25.2422Z" fill="white"/>
<path d="M20.9282 31.2188H19.6743V28.5938H19.5923C19.2212 28.9453 18.7134 29.1211 18.0688 29.1211C17.354 29.1211 16.7993 28.9199 16.4048 28.5176C16.0102 28.1152 15.813 27.5723 15.813 26.8887V25.0547H17.0727V26.7949C17.0727 27.1855 17.1763 27.4922 17.3833 27.7148C17.5903 27.9336 17.8852 28.043 18.268 28.043C18.8891 28.043 19.3579 27.8555 19.6743 27.4805V25.0547H20.9282V31.2188Z" fill="white"/>
</svg>
