<svg width="80" height="80" viewBox="0 0 80 80" fill="none" xmlns="http://www.w3.org/2000/svg">
<path d="M24.8298 50.2614C24.4112 50.6218 24.1353 51.1204 24.0523 51.6668H30.3161C33.2416 51.6668 35.3066 49.6129 35.3066 46.6698V34.6769C35.3057 34.0557 35.0588 33.4602 34.6201 33.0209C34.1814 32.5816 33.5867 32.3344 32.9663 32.3335H26.3238C23.3983 32.3335 21.3333 34.3874 21.3333 37.3305V39.9841C21.3333 42.9134 23.3846 44.9811 26.3238 44.9811H30.3161C30.8676 44.98 31.4004 44.7814 31.8183 44.4211C32.2362 44.0608 32.5115 43.5627 32.5946 43.0168H26.3238C25.9256 43.0355 25.528 42.9707 25.1562 42.8266C24.7845 42.6825 24.4469 42.4624 24.1651 42.1801C23.8832 41.8979 23.6633 41.5599 23.5194 41.1877C23.3755 40.8155 23.3109 40.4173 23.3295 40.0186V37.365C23.3156 36.9675 23.3835 36.5714 23.529 36.2013C23.6746 35.8312 23.8946 35.4951 24.1755 35.2139C24.4564 34.9326 24.792 34.7123 25.1616 34.5665C25.5312 34.4208 25.9268 34.3528 26.3238 34.3668H33.3448V46.7043C33.3583 47.1016 33.29 47.4975 33.1443 47.8674C32.9986 48.2372 32.7785 48.5731 32.4977 48.8542C32.217 49.1354 31.8815 49.3558 31.5121 49.5017C31.1428 49.6476 30.7474 49.7159 30.3506 49.7025H26.3341C25.7821 49.7028 25.2484 49.9011 24.8298 50.2614Z" fill="#6E6E73"/>
<path d="M37.3625 40.0185C37.3625 42.9478 39.4138 45.0156 42.353 45.0156H44.3492C44.9017 45.0152 45.4358 44.8164 45.8545 44.4553C46.2732 44.0943 46.5487 43.5949 46.631 43.0478L42.3186 43.0168C41.9205 43.0349 41.5231 42.9698 41.1516 42.8255C40.7802 42.6812 40.4428 42.461 40.161 42.1789C39.8793 41.8968 39.6594 41.559 39.5153 41.187C39.3712 40.8151 39.3062 40.4171 39.3243 40.0185V32.392C38.7788 32.4759 38.2813 32.7523 37.9216 33.1713C37.5618 33.5903 37.3635 34.1243 37.3625 34.6769V40.0185Z" fill="#6E6E73"/>
<path d="M49.6838 44.9467C49.0725 44.9457 48.4865 44.7022 48.0543 44.2694C47.622 43.8366 47.3788 43.2498 47.3779 42.6377V34.6424C47.3789 34.0899 47.5771 33.5559 47.9369 33.1369C48.2967 32.7178 48.7942 32.4415 49.3396 32.3576V43.0306H53.6762C54.0742 43.0487 54.4716 42.9835 54.8431 42.8393C55.2146 42.695 55.552 42.4748 55.8337 42.1927C56.1155 41.9106 56.3354 41.5728 56.4795 41.2008C56.6235 40.8288 56.6886 40.4309 56.6705 40.0323V34.6907C56.6716 34.129 56.8735 33.5864 57.2396 33.1609C57.6058 32.7355 58.112 32.4554 58.6666 32.3714V39.9531C58.6666 42.8962 56.6016 44.9501 53.6762 44.9501L49.6838 44.9467Z" fill="#6E6E73"/>
<path fill-rule="evenodd" clip-rule="evenodd" d="M33.3333 6.33333C33.3333 9.49087 35.644 12.1087 38.6667 12.5882V14.7012C32.4731 15.0223 26.8681 17.5679 22.6351 21.5543L21.3239 20.2432C23.1223 17.7668 22.9052 14.2817 20.6724 12.049C18.1991 9.57566 14.189 9.57566 11.7157 12.049C9.24241 14.5223 9.24241 18.5323 11.7157 21.0057C13.9484 23.2383 17.4333 23.4556 19.9097 21.6573L21.234 22.9816C17.2921 27.3258 14.8377 33.0444 14.6753 39.3333H12.5882C12.1087 36.3107 9.49087 34 6.33333 34C2.83553 34 0 36.8355 0 40.3333C0 43.8311 2.83553 46.6667 6.33333 46.6667C9.49087 46.6667 12.1087 44.356 12.5882 41.3333H14.7012C15.0136 47.3593 17.4318 52.8283 21.234 57.0184L19.5105 58.7419C17.0699 57.2393 13.8309 57.5457 11.7157 59.6608C9.24241 62.1341 9.24241 66.1442 11.7157 68.6175C14.189 71.0908 18.1991 71.0908 20.6724 68.6175C23.0199 66.27 23.1393 62.5383 21.0308 60.05L22.6351 58.4457C26.8681 62.4321 32.4731 64.9777 38.6667 65.2989V67.4118C35.644 67.8913 33.3333 70.5091 33.3333 73.6667C33.3333 77.1645 36.1689 80 39.6667 80C43.1645 80 46 77.1645 46 73.6667C46 70.5091 43.6893 67.8913 40.6667 67.4118V65.3247C46.9556 65.1623 52.6743 62.7079 57.0185 58.7659L58.6761 60.4235C56.8777 62.8999 57.0948 66.3849 59.3276 68.6177C61.8009 71.091 65.811 71.091 68.2843 68.6177C70.7576 66.1443 70.7576 62.1343 68.2843 59.661C66.0516 57.4283 62.5666 57.2111 60.0903 59.0093L58.4458 57.3648C62.4321 53.1319 64.9777 47.5268 65.2989 41.3333H67.4118C67.8913 44.356 70.5091 46.6667 73.6667 46.6667C77.1645 46.6667 80 43.8311 80 40.3333C80 36.8355 77.1645 34 73.6667 34C70.5091 34 67.8913 36.3107 67.4118 39.3333H65.3247C65.1579 32.8758 62.5746 27.0194 58.4457 22.6351L59.7167 21.3641C62.2051 23.4726 65.9368 23.3531 68.2843 21.0057C70.7576 18.5323 70.7576 14.5223 68.2843 12.049C65.811 9.57566 61.8009 9.57566 59.3276 12.049C57.2125 14.1641 56.9061 17.4031 58.4086 19.8437L57.0184 21.234C52.6743 17.2921 46.9556 14.8377 40.6667 14.6753V12.5882C43.6893 12.1087 46 9.49087 46 6.33333C46 2.83553 43.1645 0 39.6667 0C36.1689 0 33.3333 2.83553 33.3333 6.33333ZM39.6667 10.6667C37.2734 10.6667 35.3333 8.72657 35.3333 6.33333C35.3333 3.9401 37.2734 2 39.6667 2C42.0599 2 44 3.9401 44 6.33333C44 8.72657 42.0599 10.6667 39.6667 10.6667ZM73.6667 44.6667C76.0599 44.6667 78 42.7266 78 40.3333C78 37.9401 76.0599 36 73.6667 36C71.2734 36 69.3333 37.9401 69.3333 40.3333C69.3333 42.7266 71.2734 44.6667 73.6667 44.6667ZM10.6667 40.3333C10.6667 42.7266 8.72657 44.6667 6.33333 44.6667C3.9401 44.6667 2 42.7266 2 40.3333C2 37.9401 3.9401 36 6.33333 36C8.72657 36 10.6667 37.9401 10.6667 40.3333ZM35.3333 73.6667C35.3333 76.0599 37.2734 78 39.6667 78C42.0599 78 44 76.0599 44 73.6667C44 71.2734 42.0599 69.3333 39.6667 69.3333C37.2734 69.3333 35.3333 71.2734 35.3333 73.6667ZM60.7418 67.2035C62.4341 68.8957 65.1778 68.8957 66.8701 67.2035C68.5623 65.5112 68.5623 62.7675 66.8701 61.0752C65.1778 59.3829 62.4341 59.3829 60.7418 61.0752C59.0495 62.7675 59.0495 65.5112 60.7418 67.2035ZM19.2582 19.5915C17.5659 21.2837 14.8222 21.2837 13.1299 19.5915C11.4377 17.8992 11.4377 15.1555 13.1299 13.4632C14.8222 11.7709 17.5659 11.7709 19.2582 13.4632C20.9505 15.1555 20.9505 17.8992 19.2582 19.5915ZM19.2582 67.2033C17.5659 68.8955 14.8222 68.8955 13.1299 67.2033C11.4377 65.511 11.4377 62.7673 13.1299 61.075C14.8222 59.3827 17.5659 59.3827 19.2582 61.075C20.9505 62.7673 20.9505 65.511 19.2582 67.2033ZM60.7418 19.5915C62.4341 21.2837 65.1778 21.2837 66.8701 19.5915C68.5623 17.8992 68.5623 15.1555 66.8701 13.4632C65.1778 11.7709 62.4341 11.7709 60.7418 13.4632C59.0495 15.1555 59.0495 17.8992 60.7418 19.5915ZM63.5 40C63.5 52.9787 52.9787 63.5 40 63.5C27.0213 63.5 16.5 52.9787 16.5 40C16.5 27.0213 27.0213 16.5 40 16.5C52.9787 16.5 63.5 27.0213 63.5 40Z" fill="#6E6E73"/>
</svg>
