<svg width="80" height="80" viewBox="0 0 80 80" fill="none" xmlns="http://www.w3.org/2000/svg">
<path d="M8.66666 5.33344H6V8.0001H8.66666V5.33344Z" fill="#6E6E73"/>
<path d="M11.3333 5.33344H14V8.0001H11.3333V5.33344Z" fill="#6E6E73"/>
<path d="M20 5.33344H17.3333V8.0001H20V5.33344Z" fill="#6E6E73"/>
<path fill-rule="evenodd" clip-rule="evenodd" d="M69.9999 13.3334L2 13.3333V64.6666H30V66.6666H1.66667C1.29355 66.6666 0.819341 66.3753 0.555521 66.1111C0.291702 65.8468 0 65.3737 0 65V1.47059C0 0.692325 0.693578 0 1.47059 0L70.5294 0.000111898C70.9025 0.000111898 71.324 0.148597 71.5879 0.412839C71.8517 0.677081 71.9999 1.09698 71.9999 1.4707V17.3335H69.9999L69.9999 13.3334ZM69.9999 2.00011L2 2V11.3333L69.9999 11.3334V2.00011Z" fill="#6E6E73"/>
<path d="M21.9191 24.586L23.3333 26.0002L16.6666 32.6669L12 28.0002L13.4142 26.586L16.6666 29.8385L21.9191 24.586Z" fill="#6E6E73"/>
<path fill-rule="evenodd" clip-rule="evenodd" d="M28.6666 28.3335C28.6666 34.0715 24.2731 38.7834 18.6666 39.2886V50.0004C18.6666 50.2646 18.7071 50.5262 18.8082 50.7702C18.9093 51.0143 19.0574 51.236 19.2442 51.4228C19.431 51.6096 19.6528 51.7578 19.8968 51.8589C20.1409 51.96 20.4025 52.0004 20.6666 52.0004H30V54.0004H20.6666C20.1414 54.0004 19.6212 53.897 19.1359 53.6959C18.6506 53.4949 18.2097 53.2003 17.8382 52.8288C17.4668 52.4574 17.1721 52.0165 16.9711 51.5312C16.7701 51.0459 16.6666 50.5257 16.6666 50.0004V39.2886C11.0602 38.7834 6.66666 34.0715 6.66666 28.3335C6.66666 22.2583 11.5915 17.3335 17.6666 17.3335C23.7418 17.3335 28.6666 22.2583 28.6666 28.3335ZM17.6666 37.3334C22.6372 37.3334 26.6666 33.304 26.6666 28.3335C26.6666 23.3629 22.6372 19.3335 17.6666 19.3335C12.6961 19.3335 8.66666 23.3629 8.66666 28.3335C8.66666 33.304 12.6961 37.3334 17.6666 37.3334Z" fill="#6E6E73"/>
<path d="M42.6667 43.0001C42.6667 43.5524 42.219 44.0001 41.6667 44.0001C41.1144 44.0001 40.6667 43.5524 40.6667 43.0001C40.6667 42.4478 41.1144 42.0001 41.6667 42.0001C42.219 42.0001 42.6667 42.4478 42.6667 43.0001Z" fill="#6E6E73"/>
<path d="M45.6667 44.0001C46.219 44.0001 46.6667 43.5524 46.6667 43.0001C46.6667 42.4478 46.219 42.0001 45.6667 42.0001C45.1144 42.0001 44.6667 42.4478 44.6667 43.0001C44.6667 43.5524 45.1144 44.0001 45.6667 44.0001Z" fill="#6E6E73"/>
<path d="M50.6667 43.0001C50.6667 43.5524 50.219 44.0001 49.6667 44.0001C49.1144 44.0001 48.6667 43.5524 48.6667 43.0001C48.6667 42.4478 49.1144 42.0001 49.6667 42.0001C50.219 42.0001 50.6667 42.4478 50.6667 43.0001Z" fill="#6E6E73"/>
<path d="M41.6667 48.0001C42.219 48.0001 42.6667 47.5524 42.6667 47.0001C42.6667 46.4478 42.219 46.0001 41.6667 46.0001C41.1144 46.0001 40.6667 46.4478 40.6667 47.0001C40.6667 47.5524 41.1144 48.0001 41.6667 48.0001Z" fill="#6E6E73"/>
<path d="M46.6667 47.0001C46.6667 47.5524 46.219 48.0001 45.6667 48.0001C45.1144 48.0001 44.6667 47.5524 44.6667 47.0001C44.6667 46.4478 45.1144 46.0001 45.6667 46.0001C46.219 46.0001 46.6667 46.4478 46.6667 47.0001Z" fill="#6E6E73"/>
<path d="M49.6667 48.0001C50.219 48.0001 50.6667 47.5524 50.6667 47.0001C50.6667 46.4478 50.219 46.0001 49.6667 46.0001C49.1144 46.0001 48.6667 46.4478 48.6667 47.0001C48.6667 47.5524 49.1144 48.0001 49.6667 48.0001Z" fill="#6E6E73"/>
<path d="M42.6667 51.0001C42.6667 51.5524 42.219 52.0001 41.6667 52.0001C41.1144 52.0001 40.6667 51.5524 40.6667 51.0001C40.6667 50.4478 41.1144 50.0001 41.6667 50.0001C42.219 50.0001 42.6667 50.4478 42.6667 51.0001Z" fill="#6E6E73"/>
<path d="M45.6667 52.0001C46.219 52.0001 46.6667 51.5524 46.6667 51.0001C46.6667 50.4478 46.219 50.0001 45.6667 50.0001C45.1144 50.0001 44.6667 50.4478 44.6667 51.0001C44.6667 51.5524 45.1144 52.0001 45.6667 52.0001Z" fill="#6E6E73"/>
<path d="M50.6667 51.0001C50.6667 51.5524 50.219 52.0001 49.6667 52.0001C49.1144 52.0001 48.6667 51.5524 48.6667 51.0001C48.6667 50.4478 49.1144 50.0001 49.6667 50.0001C50.219 50.0001 50.6667 50.4478 50.6667 51.0001Z" fill="#6E6E73"/>
<path d="M41.6667 56.0001C42.219 56.0001 42.6667 55.5524 42.6667 55.0001C42.6667 54.4478 42.219 54.0001 41.6667 54.0001C41.1144 54.0001 40.6667 54.4478 40.6667 55.0001C40.6667 55.5524 41.1144 56.0001 41.6667 56.0001Z" fill="#6E6E73"/>
<path d="M46.6667 55.0001C46.6667 55.5524 46.219 56.0001 45.6667 56.0001C45.1144 56.0001 44.6667 55.5524 44.6667 55.0001C44.6667 54.4478 45.1144 54.0001 45.6667 54.0001C46.219 54.0001 46.6667 54.4478 46.6667 55.0001Z" fill="#6E6E73"/>
<path d="M49.6667 56.0001C50.219 56.0001 50.6667 55.5524 50.6667 55.0001C50.6667 54.4478 50.219 54.0001 49.6667 54.0001C49.1144 54.0001 48.6667 54.4478 48.6667 55.0001C48.6667 55.5524 49.1144 56.0001 49.6667 56.0001Z" fill="#6E6E73"/>
<path d="M42.6667 59.0001C42.6667 59.5524 42.219 60.0001 41.6667 60.0001C41.1144 60.0001 40.6667 59.5524 40.6667 59.0001C40.6667 58.4478 41.1144 58.0001 41.6667 58.0001C42.219 58.0001 42.6667 58.4478 42.6667 59.0001Z" fill="#6E6E73"/>
<path d="M45.6667 60.0001C46.219 60.0001 46.6667 59.5524 46.6667 59.0001C46.6667 58.4478 46.219 58.0001 45.6667 58.0001C45.1144 58.0001 44.6667 58.4478 44.6667 59.0001C44.6667 59.5524 45.1144 60.0001 45.6667 60.0001Z" fill="#6E6E73"/>
<path d="M50.6667 59.0001C50.6667 59.5524 50.219 60.0001 49.6667 60.0001C49.1144 60.0001 48.6667 59.5524 48.6667 59.0001C48.6667 58.4478 49.1144 58.0001 49.6667 58.0001C50.219 58.0001 50.6667 58.4478 50.6667 59.0001Z" fill="#6E6E73"/>
<path d="M41.6667 64.0001C42.219 64.0001 42.6667 63.5524 42.6667 63.0001C42.6667 62.4478 42.219 62.0001 41.6667 62.0001C41.1144 62.0001 40.6667 62.4478 40.6667 63.0001C40.6667 63.5524 41.1144 64.0001 41.6667 64.0001Z" fill="#6E6E73"/>
<path d="M46.6667 63.0001C46.6667 63.5524 46.219 64.0001 45.6667 64.0001C45.1144 64.0001 44.6667 63.5524 44.6667 63.0001C44.6667 62.4478 45.1144 62.0001 45.6667 62.0001C46.219 62.0001 46.6667 62.4478 46.6667 63.0001Z" fill="#6E6E73"/>
<path d="M49.6667 64.0001C50.219 64.0001 50.6667 63.5524 50.6667 63.0001C50.6667 62.4478 50.219 62.0001 49.6667 62.0001C49.1144 62.0001 48.6667 62.4478 48.6667 63.0001C48.6667 63.5524 49.1144 64.0001 49.6667 64.0001Z" fill="#6E6E73"/>
<path d="M42.6667 67.0001C42.6667 67.5524 42.219 68.0001 41.6667 68.0001C41.1144 68.0001 40.6667 67.5524 40.6667 67.0001C40.6667 66.4478 41.1144 66.0001 41.6667 66.0001C42.219 66.0001 42.6667 66.4478 42.6667 67.0001Z" fill="#6E6E73"/>
<path d="M45.6667 68.0001C46.219 68.0001 46.6667 67.5524 46.6667 67.0001C46.6667 66.4478 46.219 66.0001 45.6667 66.0001C45.1144 66.0001 44.6667 66.4478 44.6667 67.0001C44.6667 67.5524 45.1144 68.0001 45.6667 68.0001Z" fill="#6E6E73"/>
<path d="M50.6667 67.0001C50.6667 67.5524 50.219 68.0001 49.6667 68.0001C49.1144 68.0001 48.6667 67.5524 48.6667 67.0001C48.6667 66.4478 49.1144 66.0001 49.6667 66.0001C50.219 66.0001 50.6667 66.4478 50.6667 67.0001Z" fill="#6E6E73"/>
<path d="M41.6667 72.0001C42.219 72.0001 42.6667 71.5524 42.6667 71.0001C42.6667 70.4478 42.219 70.0001 41.6667 70.0001C41.1144 70.0001 40.6667 70.4478 40.6667 71.0001C40.6667 71.5524 41.1144 72.0001 41.6667 72.0001Z" fill="#6E6E73"/>
<path d="M46.6667 71.0001C46.6667 71.5524 46.219 72.0001 45.6667 72.0001C45.1144 72.0001 44.6667 71.5524 44.6667 71.0001C44.6667 70.4478 45.1144 70.0001 45.6667 70.0001C46.219 70.0001 46.6667 70.4478 46.6667 71.0001Z" fill="#6E6E73"/>
<path d="M49.6667 72.0001C50.219 72.0001 50.6667 71.5524 50.6667 71.0001C50.6667 70.4478 50.219 70.0001 49.6667 70.0001C49.1144 70.0001 48.6667 70.4478 48.6667 71.0001C48.6667 71.5524 49.1144 72.0001 49.6667 72.0001Z" fill="#6E6E73"/>
<path d="M61.3333 45.6668C61.3333 45.1145 61.781 44.6668 62.3333 44.6668C62.8856 44.6668 63.3333 45.1145 63.3333 45.6668V53.6668C63.3333 54.219 62.8856 54.6668 62.3333 54.6668C61.781 54.6668 61.3333 54.219 61.3333 53.6668V45.6668Z" fill="#6E6E73"/>
<path fill-rule="evenodd" clip-rule="evenodd" d="M34.3334 20.6024H78.9382C79.5247 20.6024 79.9999 21.0788 79.9999 21.6668V78.9356C79.9999 79.5236 79.5247 80.0001 78.9382 80.0001H34.3334C33.747 80.0001 33.2716 79.5236 33.2716 78.9356V21.6668C33.2716 21.0788 33.747 20.6024 34.3334 20.6024ZM56 22.6023H35.2716V27.3336H42.6667C43.192 27.3336 43.7122 27.4371 44.1975 27.6381C44.6828 27.8391 45.1237 28.1338 45.4952 28.5052C45.8666 28.8766 46.1612 29.3176 46.3622 29.8029C46.5633 30.2882 46.6667 30.8083 46.6667 31.3336L46.6728 32.7429C47.246 32.8302 47.808 32.9918 48.3455 33.225C49.1947 33.5935 49.9664 34.1337 50.6164 34.8147C51.2664 35.4956 51.7821 36.3041 52.1338 37.1938C52.2381 37.4574 52.3273 37.7267 52.4013 38.0001C52.577 38.6495 52.6667 39.3224 52.6667 40.0001H38.6667C38.6667 39.3225 38.7564 38.6495 38.9321 38.0001C39.006 37.7267 39.0953 37.4574 39.1995 37.1938C39.5513 36.3041 40.0669 35.4956 40.7169 34.8147C41.367 34.1337 42.1386 33.5935 42.9879 33.225C43.5293 32.9901 44.0954 32.8278 44.6728 32.7411L44.6667 31.3336C44.6667 31.0694 44.6263 30.8079 44.5252 30.5638C44.4241 30.3198 44.2759 30.098 44.0891 29.9112C43.9023 29.7244 43.6806 29.5762 43.4365 29.4752C43.1925 29.3741 42.9309 29.3336 42.6667 29.3336H35.2716V74.0001H56V22.6023ZM35.2716 78.0001H77.9999V76.0001H35.2716V78.0001ZM58 74.0001H77.9999V22.6023H58V74.0001ZM50.2739 37.9291C50.2833 37.9527 50.2924 37.9764 50.3014 38.0001H41.0319L41.0433 37.9705L41.0594 37.9291C41.318 37.2752 41.6947 36.6869 42.1637 36.1956C42.6325 35.7045 43.1839 35.3201 43.7841 35.0597C44.3839 34.7994 45.0233 34.6668 45.6667 34.6668C46.31 34.6668 46.9495 34.7994 47.5493 35.0597C48.1494 35.3201 48.7009 35.7045 49.1697 36.1956C49.6387 36.6869 50.0154 37.2752 50.2739 37.9291Z" fill="#6E6E73"/>
</svg>
