<svg width="80" height="80" viewBox="0 0 80 80" fill="none" xmlns="http://www.w3.org/2000/svg">
<path fill-rule="evenodd" clip-rule="evenodd" d="M41.2313 56.3019C39.7648 55.6914 38.1522 56.0042 37.0232 57.123L29.0631 65.0041C27.9279 66.1283 27.6008 67.7443 28.2085 69.2219C28.8162 70.6994 30.186 71.6172 31.7827 71.6172H39.7427C41.8739 71.6172 43.6086 69.8832 43.6086 67.7513L43.6093 59.8701C43.6093 58.2809 42.6978 56.9137 41.2313 56.3019ZM41.6428 67.7519C41.6428 68.7992 40.7909 69.6504 39.7443 69.6504H31.7843C30.9879 69.6504 30.3315 69.2107 30.0283 68.4734C29.7251 67.7367 29.8815 66.9623 30.4481 66.4012L38.4081 58.52C38.7792 58.1523 39.2415 57.9623 39.723 57.9623C39.972 57.9623 40.2265 58.0131 40.4755 58.1167C41.2074 58.4219 41.6436 59.0776 41.6436 59.8699L41.6428 67.7519Z" fill="#6E6E73"/>
<path d="M8.77923 40.5946C8.36051 40.955 8.08459 41.4535 8.00148 42H14.2671C17.1934 42 19.2589 39.946 19.2589 37.003V25.0101C19.258 24.3889 19.0111 23.7933 18.5723 23.354C18.1335 22.9148 17.5385 22.6676 16.9179 22.6667H10.2736C7.34738 22.6667 5.28178 24.7206 5.28178 27.6637V30.3173C5.28178 33.2466 7.33361 35.3143 10.2736 35.3143H14.2671C14.8187 35.3132 15.3517 35.1145 15.7697 34.7543C16.1877 34.394 16.4631 33.8959 16.5461 33.35H10.2736C9.87536 33.3686 9.47758 33.3039 9.10575 33.1598C8.73393 33.0157 8.39625 32.7955 8.11432 32.5133C7.83239 32.2311 7.61243 31.8931 7.46851 31.5208C7.32458 31.1486 7.25988 30.7504 7.27852 30.3517V27.6982C7.26458 27.3007 7.33251 26.9046 7.47809 26.5345C7.62367 26.1644 7.84379 25.8283 8.12474 25.547C8.40569 25.2658 8.74146 25.0454 9.11116 24.8997C9.48085 24.754 9.87655 24.686 10.2736 24.6999H17.2966V37.0374C17.3101 37.4348 17.2418 37.8307 17.096 38.2005C16.9503 38.5704 16.7301 38.9063 16.4493 39.1874C16.1684 39.4685 15.8329 39.6889 15.4634 39.8348C15.094 39.9807 14.6985 40.0491 14.3015 40.0356H10.284C9.73177 40.0359 9.19794 40.2342 8.77923 40.5946Z" fill="#6E6E73"/>
<path d="M21.3154 30.3517C21.3154 33.281 23.3673 35.3488 26.3073 35.3488H28.304C28.8567 35.3483 29.391 35.1496 29.8097 34.7885C30.2285 34.4274 30.5041 33.928 30.5865 33.381L26.2729 33.3499C25.8747 33.3681 25.4772 33.3029 25.1056 33.1587C24.734 33.0144 24.3965 32.7942 24.1147 32.5121C23.8329 32.23 23.6129 31.8922 23.4688 31.5202C23.3247 31.1482 23.2596 30.7503 23.2778 30.3517V22.7252C22.7322 22.8091 22.2345 23.0855 21.8746 23.5045C21.5148 23.9235 21.3164 24.4575 21.3154 25.0101V30.3517Z" fill="#6E6E73"/>
<path d="M33.6401 35.2798C33.0287 35.2789 32.4425 35.0354 32.0102 34.6025C31.5778 34.1697 31.3345 33.5829 31.3336 32.9709V24.9756C31.3346 24.423 31.5329 23.889 31.8928 23.47C32.2526 23.051 32.7503 22.7746 33.2959 22.6908V33.3637H37.6336C38.0317 33.3819 38.4293 33.3167 38.8009 33.1725C39.1725 33.0282 39.5099 32.808 39.7917 32.5259C40.0736 32.2438 40.2936 31.9059 40.4377 31.534C40.5818 31.162 40.6468 30.7641 40.6287 30.3655V25.0239C40.6298 24.4622 40.8318 23.9195 41.1981 23.4941C41.5643 23.0686 42.0707 22.7885 42.6255 22.7045V30.2862C42.6255 33.2293 40.5599 35.2833 37.6336 35.2833L33.6401 35.2798Z" fill="#6E6E73"/>
<path fill-rule="evenodd" clip-rule="evenodd" d="M61.6316 80H70.1269C75.571 80 80 75.5828 80 70.1531V26.5303C80 26.5272 79.9992 26.5245 79.9983 26.5218L79.9969 26.5167L79.9966 26.5132C79.9966 26.5104 79.9973 26.5078 79.998 26.5051C79.9988 26.5018 79.9997 26.4985 79.9993 26.4947L79.9712 25.0687C79.9362 19.6939 75.5224 14.6545 70.1332 14.6545L16.6151 14.6565V0.984909C16.6151 0.441657 16.1748 0.00130335 15.6315 0.00130335L8.50532 0C3.81573 0 0.000595065 3.80476 0.000595065 8.48275L0.0287221 64.3372C0.0534141 68.1056 2.23524 71.4797 5.56678 73.0943L0.291407 78.3175C0.0081214 78.598 -0.0776208 79.0212 0.0739695 79.3902C0.226243 79.7586 0.585671 79.9993 0.984182 79.9993H50.9485C51.4917 79.9993 51.9321 79.559 51.9321 79.0157V74H60.6151L60.6491 79.0157C60.6491 79.559 61.0891 80 61.6316 80ZM78.0334 70.1531C78.0334 74.4983 74.4865 78.0335 70.1269 78.0335H62.6151V36.6521H69.9485C73.1791 36.6521 76.2309 34.8218 78.0334 32.4218V70.1531ZM8.50456 1.96771L14.6472 1.96901V14.6578L8.00938 14.6565C4.67784 14.6565 1.96719 11.9463 1.96649 8.61498V8.48328C1.96649 4.89046 4.90014 1.96771 8.50456 1.96771ZM49.9631 78.0337H3.3737L9.73969 71.7302L10.8385 72.8291C11.0299 73.0211 11.2816 73.1172 11.5333 73.1172C11.7851 73.1172 12.0368 73.0211 12.2289 72.8291C12.613 72.445 12.613 71.8228 12.2289 71.4387L11.1376 70.3474L14.5062 67.0119L15.5817 68.0874C15.7738 68.2794 16.0255 68.3755 16.2772 68.3755C16.5289 68.3755 16.7807 68.2794 16.9727 68.0874C17.3568 67.7033 17.3568 67.0811 16.9727 66.697L15.9041 65.6284L19.2727 62.2928L20.3242 63.3443C20.5162 63.5364 20.7679 63.6324 21.0197 63.6324C21.2714 63.6324 21.5231 63.5364 21.7152 63.3443C22.0993 62.9602 22.0993 62.3381 21.7152 61.954L20.6705 60.9093L24.0391 57.5737L25.0673 58.6019C25.2594 58.794 25.5111 58.89 25.7629 58.89C26.0146 58.89 26.2663 58.794 26.4584 58.6019C26.8425 58.2178 26.8425 57.5957 26.4584 57.2116L25.437 56.1903L28.8056 52.8547L29.8105 53.8596C30.0026 54.0516 30.2543 54.1476 30.506 54.1476C30.7577 54.1476 31.0095 54.0516 31.2015 53.8596C31.5856 53.4754 31.5856 52.8533 31.2015 52.4692L30.2035 51.4712L33.5721 48.1356L34.5536 49.1171C34.7457 49.3092 34.9974 49.4052 35.2492 49.4052C35.5009 49.4052 35.7526 49.3092 35.9447 49.1171C36.3288 48.733 36.3288 48.1109 35.9447 47.7268L34.97 46.7521L38.3386 43.4165L39.2968 44.3747C39.4889 44.5668 39.7406 44.6628 39.9923 44.6628C40.244 44.6628 40.4958 44.5668 40.6878 44.3747C41.0719 43.9906 41.0719 43.3685 40.6878 42.9844L39.7365 42.033L43.105 38.6975L44.0399 39.6324C44.232 39.8244 44.4837 39.9204 44.7355 39.9204C44.9872 39.9204 45.2389 39.8244 45.431 39.6324C45.8151 39.2482 45.8151 38.6261 45.431 38.242L44.5029 37.314L49.9631 31.8229V78.0337ZM51.9321 72V29.4896C51.9321 29.0931 51.754 28.7268 51.3877 28.5739C51.0235 28.4216 50.5996 28.5032 50.3177 28.7824L7.08118 71.5939C4.05288 70.4498 2.01564 67.5758 1.9944 64.3301L1.96901 13.8551C3.43893 15.5459 5.5989 16.6207 8.0091 16.6207H70.1331C74.4455 16.6207 77.9765 20.7835 78.0053 25.1096L78.0328 26.5383C78.028 30.8788 74.3047 34.6831 69.9486 34.6831H61.6317C61.0885 34.6831 60.6481 35.1234 60.6481 35.6667V72H51.9321Z" fill="#6E6E73"/>
</svg>
