<svg width="80" height="80" viewBox="0 0 80 80" fill="none" xmlns="http://www.w3.org/2000/svg">
<path d="M24.7992 73.2612C24.3805 73.6216 24.1046 74.1202 24.0215 74.6666H30.2871C33.2134 74.6666 35.2789 72.6127 35.2789 69.6696V57.6767C35.278 57.0555 35.0311 56.46 34.5923 56.0207C34.1534 55.5814 33.5585 55.3342 32.9379 55.3333H26.2936C23.3674 55.3333 21.3018 57.3872 21.3018 60.3303V62.9839C21.3018 65.9132 23.3536 67.9809 26.2936 67.9809H30.2871C30.8387 67.9798 31.3717 67.7812 31.7897 67.4209C32.2077 67.0606 32.4831 66.5625 32.5661 66.0166H26.2936C25.8954 66.0353 25.4976 65.9705 25.1258 65.8264C24.7539 65.6823 24.4162 65.4622 24.1343 65.1799C23.8524 64.8977 23.6324 64.5597 23.4885 64.1875C23.3446 63.8153 23.2799 63.4171 23.2985 63.0184V60.3648C23.2846 59.9673 23.3525 59.5712 23.4981 59.2011C23.6437 58.831 23.8638 58.4949 24.1447 58.2137C24.4257 57.9324 24.7615 57.7121 25.1312 57.5663C25.5008 57.4206 25.8966 57.3526 26.2936 57.3666H33.3166V69.7041C33.3301 70.1014 33.2618 70.4973 33.116 70.8671C32.9703 71.237 32.7501 71.5729 32.4693 71.854C32.1884 72.1352 31.8529 72.3555 31.4834 72.5014C31.114 72.6474 30.7185 72.7157 30.3215 72.7023H26.304C25.7518 72.7026 25.2179 72.9009 24.7992 73.2612Z" fill="#6E6E73"/>
<path d="M37.3354 63.0183C37.3354 65.9476 39.3872 68.0154 42.3273 68.0154H44.324C44.8767 68.015 45.4109 67.8162 45.8297 67.4551C46.2485 67.0941 46.5241 66.5947 46.6065 66.0476L42.2928 66.0166C41.8947 66.0347 41.4972 65.9696 41.1256 65.8253C40.754 65.681 40.4165 65.4608 40.1347 65.1787C39.8529 64.8966 39.6329 64.5588 39.4888 64.1868C39.3447 63.8149 39.2796 63.4169 39.2977 63.0183V55.3919C38.7521 55.4757 38.2545 55.7521 37.8946 56.1711C37.5348 56.5901 37.3364 57.1241 37.3354 57.6767V63.0183Z" fill="#6E6E73"/>
<path d="M48.0301 67.2692C48.4625 67.702 49.0486 67.9455 49.6601 67.9464L53.6536 67.9499C56.5798 67.9499 58.6454 65.896 58.6454 62.9529V55.3712C58.0907 55.4552 57.5843 55.7353 57.218 56.1607C56.8518 56.5862 56.6498 57.1288 56.6487 57.6905V63.0321C56.6668 63.4307 56.6017 63.8286 56.4576 64.2006C56.3135 64.5726 56.0935 64.9104 55.8117 65.1925C55.5299 65.4746 55.1924 65.6948 54.8209 65.8391C54.4493 65.9833 54.0517 66.0485 53.6536 66.0303H49.3158V55.3574C48.7702 55.4413 48.2726 55.7177 47.9127 56.1367C47.5529 56.5557 47.3545 57.0897 47.3535 57.6422V65.6375C47.3545 66.2496 47.5978 66.8363 48.0301 67.2692Z" fill="#6E6E73"/>
<path fill-rule="evenodd" clip-rule="evenodd" d="M51.917 9.99094C51.4459 7.351 50.1101 4.93222 48.107 3.12387C45.8796 1.11309 42.9855 0 39.9848 0C36.9841 0 34.09 1.11309 31.8626 3.12387C29.8595 4.9322 28.5237 7.35094 28.0526 9.99083C27.5526 10.0309 27.081 10.2474 26.7238 10.6045C26.3269 11.0012 26.1036 11.5391 26.1028 12.1002V15.6156C26.1036 16.1768 26.3269 16.7147 26.7237 17.1115C27.1205 17.5083 27.6585 17.7316 28.2196 17.7324H29.4244C29.3394 18.2814 29.2968 18.8367 29.297 19.3936C29.297 22.6669 30.7616 25.605 33.07 27.5865L32.6871 31.1056C31.8975 31.2437 30.7175 31.4755 29.3988 31.8205C29.3696 31.8267 29.3408 31.8343 29.3125 31.8431C28.3529 32.0966 27.3235 32.4097 26.3196 32.7898C22.1767 34.3577 18.7327 36.1303 18.6667 38.6666C18.6659 38.6797 18.6655 38.6928 18.6653 38.7059L14.6632 50H12.6402L11.3028 45.885C11.2996 45.8719 11.2973 45.8627 11.2947 45.8536C11.2886 45.8322 11.2808 45.8113 11.2545 45.7415C11.217 45.6418 11.142 45.4425 10.9812 45C10.4874 43.8967 9.31261 43.3333 7.97773 43.3333C3.63935 43.3333 1.10026 44.038 0.211322 46.345C-0.161381 47.5751 -0.0315751 48.6666 0.525594 49.7709L4.70602 59.4725C4.20558 59.627 3.75489 59.9232 3.40644 60.3217C2.9217 60.9037 2.63086 61.6797 2.72781 62.4558C3.23095 67.1546 5.42713 70.2554 8.99233 70.9878L13.3289 80H66.6711L71.0077 70.9878C74.5729 70.2554 76.769 67.1546 77.2722 62.4558C77.3691 61.6797 77.0783 60.9037 76.5936 60.3217C76.2451 59.9232 75.7944 59.627 75.294 59.4725L79.4744 49.7709C80.0316 48.6666 80.1614 47.5751 79.7887 46.345C78.8997 44.038 76.3606 43.3333 72.0223 43.3333C70.6874 43.3333 69.5126 43.8967 69.0188 45C68.8579 45.4426 68.783 45.6419 68.7455 45.7415C68.7192 45.8113 68.7113 45.8322 68.7053 45.8536C68.7046 45.8558 68.704 45.8579 68.7034 45.8601C68.7015 45.8673 68.6996 45.875 68.6971 45.885L67.3598 50H65.3367L61.5001 38.7749C61.5 38.757 61.4994 38.7393 61.4983 38.7216C61.4251 36.1914 57.7843 34.3549 53.6487 32.7898C52.6449 32.4097 51.6155 32.0966 50.656 31.8432C50.6276 31.8343 50.5987 31.8267 50.5695 31.8204C49.2528 31.476 48.0745 31.2444 47.285 31.1063L46.9189 27.7477C49.3381 25.7661 50.8843 22.7561 50.8843 19.3917C50.8847 18.8355 50.8421 18.2808 50.7572 17.7324H51.7487C52.3099 17.7316 52.8478 17.5083 53.2446 17.1115C53.6414 16.7147 53.8647 16.1768 53.8655 15.6156V12.1002C53.8647 11.5391 53.6414 11.0012 53.2446 10.6045C52.8876 10.2477 52.4165 10.0313 51.917 9.99094ZM68.6726 70.9878L65.3367 77.9973H14.6632L11.3274 70.9878C13.0357 70.8879 14.3436 70.3233 15.234 69.3432C16.4944 67.6941 16.8822 64.9779 16.2035 61.8738C15.7188 59.7396 14.4585 58.6726 12.5195 58.6726C11.5501 58.6726 10.5805 58.8666 9.61108 59.0606C9.02943 59.2546 8.44768 59.3516 7.86603 59.4486C7.47904 59.5131 7.09205 59.5347 6.7336 59.5134L3.56204 51.8841C3.82181 51.9353 4.36562 52 4.63699 52H75.363C75.6344 52 76.1782 51.9353 76.438 51.8841L73.2664 59.5134C72.9079 59.5347 72.5209 59.5131 72.1339 59.4486C71.5522 59.3516 70.9705 59.2546 70.3888 59.0606C69.4194 58.8666 68.4499 58.6726 67.4805 58.6726C65.5415 58.6726 64.2812 59.7396 63.7965 61.8738C63.1178 64.9779 63.5056 67.6941 64.766 69.3432C65.6564 70.3233 66.9643 70.8879 68.6726 70.9878ZM52.6087 41.8242V50H27.3559V41.8242C27.3568 41.7419 27.39 41.6632 27.4486 41.6053C27.5071 41.5473 27.5861 41.5148 27.6684 41.5148H28.6096V45.5866C28.6096 45.8518 28.7149 46.1062 28.9025 46.2937C29.09 46.4812 29.3444 46.5866 29.6096 46.5866C29.8748 46.5866 30.1291 46.4812 30.3166 46.2937C30.5042 46.1062 30.6095 45.8518 30.6095 45.5866V41.5148H49.3588V45.5866C49.3588 45.8518 49.4642 46.1062 49.6517 46.2937C49.8393 46.4812 50.0936 46.5866 50.3588 46.5866C50.624 46.5866 50.8784 46.4812 51.0659 46.2937C51.2534 46.1062 51.3588 45.8518 51.3588 45.5866V41.5148H52.2962C52.3786 41.5148 52.4576 41.5473 52.5161 41.6053C52.5746 41.6632 52.6079 41.7419 52.6087 41.8242ZM63.3368 50H54.6124V41.8242C54.6116 41.2115 54.3676 40.6241 53.934 40.1911C53.5004 39.7581 52.9127 39.5149 52.3 39.5149H51.3588V34.1217C51.8836 34.2826 52.4159 34.4618 52.9399 34.6603C55.2236 35.5246 59.462 36.7457 59.4995 38.8081C59.4997 38.8156 59.4999 38.823 59.5002 38.8304L63.3368 50ZM25.356 50V41.8242C25.3568 41.2115 25.6008 40.6241 26.0344 40.1911C26.468 39.7581 27.0557 39.5149 27.6684 39.5149H28.6096V34.1201C28.0845 34.2806 27.552 34.4593 27.0277 34.6572C24.7584 35.5161 20.7368 36.6578 20.6662 38.698L20.6664 38.7102L20.6664 38.7216L16.6644 50H25.356ZM50.9859 11.9839C51.0059 11.9851 51.0261 11.9858 51.0463 11.9858C51.0661 11.9858 51.0864 11.9851 51.1071 11.9839L51.7487 11.9839C51.7796 11.9839 51.8092 11.9962 51.8311 12.0179C51.853 12.0397 51.8654 12.0693 51.8656 12.1002V15.6144C51.8656 15.6454 51.8533 15.6751 51.8313 15.697C51.8094 15.7189 51.7797 15.7312 51.7487 15.7312H30.7376C30.6885 15.7276 30.6391 15.7276 30.5899 15.7312H28.2196C28.1886 15.7312 28.1589 15.7189 28.137 15.697C28.1151 15.6751 28.1027 15.6454 28.1027 15.6144V12.0989C28.1029 12.068 28.1153 12.0385 28.1372 12.0167C28.1591 11.9949 28.1887 11.9827 28.2196 11.9827L28.8428 11.9827C28.8957 11.9869 28.9486 11.9869 29.0013 11.9827L36.5909 11.9831C36.6049 11.9837 36.619 11.9841 36.633 11.9841C36.6482 11.9841 36.6634 11.9838 36.6786 11.9831L41.9478 11.9834C41.9574 11.9837 41.967 11.9838 41.9766 11.9838C41.9857 11.9838 41.9947 11.9837 42.0037 11.9834L50.9859 11.9839ZM43.2936 9.98404H49.8773C49.4311 7.91947 48.3473 6.03599 46.7653 4.60841C46.2591 4.15158 45.7116 3.75026 45.1323 3.4081L43.2936 9.98404ZM43.2934 2.55742C42.2379 2.19228 41.1205 2.00134 39.9848 2.00134C38.6485 2.00134 37.3374 2.26572 36.1227 2.76719L37.4677 9.98404H41.2171L43.2934 2.55742ZM35.4306 9.98404L34.2719 3.76785C33.8995 4.02251 33.5427 4.30306 33.2043 4.60841C31.6223 6.03599 30.5385 7.91947 30.0923 9.98404H35.4306ZM46.9234 33.0732C47.5305 33.1788 48.3864 33.3436 49.3588 33.5776V39.5149H30.6095V33.5773C31.5821 33.3438 32.438 33.179 33.045 33.0734C34.325 35.1955 37.0049 36.5744 39.9842 36.5744C42.9635 36.5744 45.6433 35.195 46.9234 33.0732ZM31.297 19.3936C31.2964 18.8356 31.3489 18.2794 31.4535 17.7324H48.7279C48.8325 18.2798 48.885 18.8364 48.8844 19.3948C48.8844 24.2439 44.9389 28.1887 40.0904 28.1887C35.2418 28.1887 31.297 24.2427 31.297 19.3936ZM34.6232 31.7984L34.9409 28.8788C36.4722 29.7138 38.2269 30.1886 40.0904 30.1886C41.8729 30.1886 43.5559 29.7542 45.0391 28.9857L45.3455 31.7975C44.5104 33.4413 42.3506 34.572 39.9842 34.572C37.6181 34.572 35.4585 33.4439 34.6232 31.7984ZM10.6394 50H4.63699C3.84682 50 2.81454 49.5599 2.32068 48.9581C2.02437 48.6572 1.69079 47.7578 1.9871 46.9554C2.57972 45.2502 5.71987 45.0859 7.99159 45.2865C8.60827 45.3409 8.97889 45.6667 8.97889 46C8.97889 46.5192 8.55813 47.233 5.99009 47.3334C5.39747 47.3334 4.98934 47.6887 4.98934 48.2905C4.98934 48.8924 5.49624 49.3334 5.99009 49.3334C7.64602 49.2711 8.95309 48.5592 9.86477 48.0627L9.98006 48L10.6394 50ZM5.73318 61.2917C5.44234 61.2917 5.1515 61.3887 4.9576 61.6797C4.86065 61.6797 4.66676 61.9708 4.76371 62.2618C5.05455 64.8809 6.12097 69.1492 10.9683 69.1492C12.2287 69.1492 13.1981 68.7612 13.7798 67.9851C14.7493 66.8211 14.9432 64.5899 14.4585 62.1648C14.1676 60.6127 13.489 60.5157 12.7134 60.5157C12.0348 60.5157 11.1622 60.7097 10.2897 60.9037C9.99887 60.9522 9.68379 61.025 9.36871 61.0977C9.05363 61.1705 8.73855 61.2432 8.44771 61.2917C7.57518 61.3887 6.7996 61.3887 6.02402 61.2917H5.73318ZM75.363 50H69.3606L70.0199 48L70.1352 48.0627C71.0469 48.5592 72.354 49.2711 74.0099 49.3334C74.5038 49.3334 75.0107 48.8924 75.0107 48.2905C75.0107 47.6887 74.6025 47.3334 74.0099 47.3334C71.4419 47.233 71.0211 46.5192 71.0211 46C71.0211 45.6667 71.3917 45.3409 72.0084 45.2865C74.2801 45.0859 77.4203 45.2502 78.0129 46.9554C78.3092 47.7578 77.9756 48.6572 77.6793 48.9581C77.1855 49.5599 76.1532 50 75.363 50ZM75.0424 61.6797C74.8485 61.3887 74.5577 61.2917 74.2668 61.2917H73.976C73.2004 61.3887 72.4248 61.3887 71.5523 61.2917C71.2614 61.2432 70.9464 61.1705 70.6313 61.0977C70.3162 61.025 70.0011 60.9522 69.7103 60.9037C68.8377 60.7097 67.9652 60.5157 67.2866 60.5157C66.511 60.5157 65.8324 60.6127 65.5415 62.1648C65.0568 64.5899 65.2507 66.8211 66.2202 67.9851C66.8018 68.7612 67.7713 69.1492 69.0316 69.1492C73.879 69.1492 74.9454 64.8809 75.2363 62.2618C75.3332 61.9708 75.1393 61.6797 75.0424 61.6797Z" fill="#6E6E73"/>
<path d="M24.7992 73.2612C24.3805 73.6216 24.1046 74.1202 24.0215 74.6666H30.2871C33.2134 74.6666 35.2789 72.6127 35.2789 69.6696V57.6767C35.278 57.0555 35.0311 56.46 34.5923 56.0207C34.1534 55.5814 33.5585 55.3342 32.9379 55.3333H26.2936C23.3674 55.3333 21.3018 57.3872 21.3018 60.3303V62.9839C21.3018 65.9132 23.3536 67.9809 26.2936 67.9809H30.2871C30.8387 67.9798 31.3717 67.7812 31.7897 67.4209C32.2077 67.0606 32.4831 66.5625 32.5661 66.0166H26.2936C25.8954 66.0353 25.4976 65.9705 25.1258 65.8264C24.7539 65.6823 24.4162 65.4622 24.1343 65.1799C23.8524 64.8977 23.6324 64.5597 23.4885 64.1875C23.3446 63.8153 23.2799 63.4171 23.2985 63.0184V60.3648C23.2846 59.9673 23.3525 59.5712 23.4981 59.2011C23.6437 58.831 23.8638 58.4949 24.1447 58.2137C24.4257 57.9324 24.7615 57.7121 25.1312 57.5663C25.5008 57.4206 25.8966 57.3526 26.2936 57.3666H33.3166V69.7041C33.3301 70.1014 33.2618 70.4973 33.116 70.8671C32.9703 71.237 32.7501 71.5729 32.4693 71.854C32.1884 72.1352 31.8529 72.3555 31.4834 72.5014C31.114 72.6474 30.7185 72.7157 30.3215 72.7023H26.304C25.7518 72.7026 25.2179 72.9009 24.7992 73.2612Z" fill="#6E6E73"/>
<path d="M37.3354 63.0183C37.3354 65.9476 39.3872 68.0154 42.3273 68.0154H44.324C44.8767 68.015 45.4109 67.8162 45.8297 67.4551C46.2485 67.0941 46.5241 66.5947 46.6065 66.0476L42.2928 66.0166C41.8947 66.0347 41.4972 65.9696 41.1256 65.8253C40.754 65.681 40.4165 65.4608 40.1347 65.1787C39.8529 64.8966 39.6329 64.5588 39.4888 64.1868C39.3447 63.8149 39.2796 63.4169 39.2977 63.0183V55.3919C38.7521 55.4757 38.2545 55.7521 37.8946 56.1711C37.5348 56.5901 37.3364 57.1241 37.3354 57.6767V63.0183Z" fill="#6E6E73"/>
<path d="M48.0301 67.2692C48.4625 67.702 49.0486 67.9455 49.6601 67.9464L53.6536 67.9499C56.5798 67.9499 58.6454 65.896 58.6454 62.9529V55.3712C58.0907 55.4552 57.5843 55.7353 57.218 56.1607C56.8518 56.5862 56.6498 57.1288 56.6487 57.6905V63.0321C56.6668 63.4307 56.6017 63.8286 56.4576 64.2006C56.3135 64.5726 56.0935 64.9104 55.8117 65.1925C55.5299 65.4746 55.1924 65.6948 54.8209 65.8391C54.4493 65.9833 54.0517 66.0485 53.6536 66.0303H49.3158V55.3574C48.7702 55.4413 48.2726 55.7177 47.9127 56.1367C47.5529 56.5557 47.3545 57.0897 47.3535 57.6422V65.6375C47.3545 66.2496 47.5978 66.8363 48.0301 67.2692Z" fill="#6E6E73"/>
</svg>
