<svg width="220" height="140" viewBox="0 0 220 140" fill="none" xmlns="http://www.w3.org/2000/svg">
<path d="M177.563 72.187V69.6394H189V72.187H184.724V84.2522H181.849V72.187H177.563Z" fill="#55565B"/>
<path d="M166.781 83.6714L167.701 81.2257C167.858 81.3072 168.06 81.3989 168.305 81.5009C168.551 81.596 168.827 81.6877 169.134 81.776C169.441 81.8575 169.764 81.9254 170.105 81.9798C170.446 82.0341 170.798 82.0613 171.159 82.0613C172.012 82.0613 172.663 81.9187 173.113 81.6333C173.57 81.348 173.798 80.9132 173.798 80.329C173.798 79.8806 173.635 79.5206 173.307 79.2488C172.98 78.9703 172.567 78.7155 172.07 78.4845C171.579 78.2536 171.043 78.0158 170.464 77.7712C169.884 77.5267 169.345 77.2278 168.847 76.8745C168.349 76.5212 167.937 76.0797 167.609 75.5498C167.282 75.0199 167.118 74.3439 167.118 73.5219C167.118 72.8154 167.238 72.2006 167.476 71.6775C167.715 71.1544 168.053 70.7196 168.489 70.3731C168.932 70.0267 169.454 69.7719 170.054 69.6089C170.654 69.439 171.323 69.3541 172.059 69.3541C172.912 69.3541 173.717 69.4288 174.474 69.5783C175.231 69.721 175.851 69.9315 176.335 70.2101L175.435 72.6048C175.128 72.4078 174.668 72.2311 174.054 72.0749C173.44 71.9118 172.775 71.8303 172.059 71.8303C171.391 71.8303 170.88 71.9628 170.525 72.2277C170.17 72.4927 169.993 72.8494 169.993 73.2977C169.993 73.7121 170.157 74.0586 170.484 74.3371C170.811 74.6157 171.221 74.8738 171.712 75.1116C172.209 75.3494 172.748 75.5939 173.328 75.8453C173.908 76.0966 174.446 76.3989 174.944 76.7522C175.442 77.1055 175.855 77.5436 176.182 78.0667C176.509 78.5898 176.673 79.2386 176.673 80.0131C176.673 80.7943 176.543 81.4669 176.284 82.0307C176.025 82.5946 175.66 83.0634 175.19 83.437C174.726 83.8106 174.16 84.0892 173.492 84.2726C172.83 84.456 172.104 84.5477 171.313 84.5477C170.262 84.5477 169.338 84.4492 168.54 84.2522C167.749 84.0552 167.163 83.8616 166.781 83.6714Z" fill="#55565B"/>
<path d="M161.799 84.2522V69.6394H164.663V84.2522H161.799Z" fill="#55565B"/>
<path d="M148.899 84.2522V69.7923C149.22 69.7379 149.564 69.687 149.932 69.6394C150.307 69.5851 150.679 69.5443 151.047 69.5171C151.416 69.49 151.774 69.4696 152.121 69.456C152.469 69.4424 152.79 69.4356 153.083 69.4356C153.765 69.4356 154.437 69.5002 155.098 69.6292C155.767 69.7515 156.363 69.9655 156.889 70.2712C157.414 70.5769 157.833 70.9981 158.147 71.5348C158.46 72.0715 158.617 72.7407 158.617 73.5423C158.617 74.7379 158.338 75.7128 157.779 76.4669C157.219 77.221 156.472 77.7441 155.538 78.0362L156.561 78.6782L159.917 84.2522H156.612L153.277 78.5355L151.763 78.2604V84.2522H148.899ZM151.763 76.3242H152.981C153.779 76.3242 154.413 76.1442 154.883 75.7841C155.361 75.4173 155.6 74.8161 155.6 73.9805C155.6 73.3555 155.405 72.8663 155.016 72.5131C154.628 72.1598 154.055 71.9832 153.298 71.9832C153.005 71.9832 152.715 71.99 152.428 72.0036C152.142 72.0171 151.92 72.0443 151.763 72.0851V76.3242Z" fill="#55565B"/>
<path d="M135.702 79.4322V69.6394H138.567V78.8718C138.567 79.4424 138.618 79.9248 138.72 80.3188C138.829 80.7128 138.997 81.0321 139.222 81.2767C139.447 81.5212 139.726 81.6979 140.06 81.8066C140.395 81.9085 140.783 81.9594 141.227 81.9594C142.106 81.9594 142.741 81.7148 143.129 81.2257C143.525 80.7366 143.723 79.9519 143.723 78.8718V69.6394H146.444V79.0756C146.444 80.0199 146.318 80.8351 146.065 81.5212C145.82 82.2006 145.472 82.7644 145.022 83.2128C144.579 83.6544 144.033 83.9805 143.385 84.1911C142.744 84.4017 142.042 84.507 141.278 84.507C137.561 84.507 135.702 82.8154 135.702 79.4322Z" fill="#55565B"/>
<path d="M121.268 76.9458C121.268 74.5138 121.804 72.6421 122.874 71.331C123.952 70.0131 125.49 69.3541 127.488 69.3541C128.538 69.3541 129.452 69.5341 130.23 69.8942C131.014 70.2542 131.665 70.7705 132.183 71.4431C132.702 72.1089 133.084 72.9071 133.329 73.8378C133.582 74.7685 133.708 75.8045 133.708 76.9458C133.708 79.3779 133.165 81.2529 132.081 82.5708C131.004 83.8888 129.473 84.5477 127.488 84.5477C126.424 84.5477 125.5 84.3677 124.716 84.0076C123.938 83.6408 123.294 83.1245 122.782 82.4587C122.278 81.793 121.899 80.9947 121.647 80.064C121.394 79.1265 121.268 78.0871 121.268 76.9458ZM124.286 76.9458C124.286 77.6863 124.347 78.3657 124.47 78.9839C124.6 79.6021 124.791 80.1354 125.043 80.5837C125.302 81.0253 125.633 81.3718 126.035 81.6231C126.444 81.8745 126.929 82.0002 127.488 82.0002C128.511 82.0002 129.299 81.6028 129.851 80.8079C130.41 80.0131 130.69 78.7257 130.69 76.9458C130.69 76.2393 130.632 75.5803 130.516 74.9689C130.4 74.3575 130.216 73.8208 129.964 73.3589C129.711 72.8969 129.38 72.5402 128.971 72.2889C128.569 72.0307 128.074 71.9017 127.488 71.9017C126.465 71.9017 125.674 72.3093 125.115 73.1245C124.562 73.9329 124.286 75.2067 124.286 76.9458Z" fill="#55565B"/>
<path d="M109.616 72.187V69.6394H121.053V72.187H116.777V84.2522H113.903V72.187H109.616Z" fill="#55565B"/>
<path d="M96.87 84.2522V69.5375H98.9671L104.512 77.3229L105.627 79.5545H105.729L105.391 77.3229V69.6394H108.123V84.3541H106.026L100.512 76.6299L99.3661 74.3371H99.2535L99.5911 76.6299V84.2522H96.87Z" fill="#55565B"/>
<path d="M91.1924 84.2522V69.6394H94.0568V84.2522H91.1924Z" fill="#55565B"/>
<path d="M72.5741 84.2522L77.8527 69.5375H79.9703L85.2489 84.2522H82.2311L81.0546 81.0219H76.5535L75.4487 84.2522H72.5741ZM77.2901 78.7189H80.4306L79.3463 75.4682L78.8961 73.1754H78.7938L78.354 75.4886L77.2901 78.7189Z" fill="#55565B"/>
<path d="M62.5386 72.187V69.6394H73.9756V72.187H69.6995V84.2522H66.8249V72.187H62.5386Z" fill="#55565B"/>
<path d="M55.5414 84.2522V69.6394H58.4058V81.7047H64.8199V84.2522H55.5414Z" fill="#55565B"/>
<path d="M41.5981 84.2522L46.8767 69.5375H48.9943L54.2729 84.2522H51.2551L50.0787 81.0219H45.5775L44.4727 84.2522H41.5981ZM46.3141 78.7189H49.4546L48.3703 75.4682L47.9202 73.1754H47.8179L47.378 75.4886L46.3141 78.7189Z" fill="#55565B"/>
<path d="M31 69.6394H34.4168L37.097 75.132L37.3937 76.6809H37.496L37.8131 75.0912L40.4012 69.6394H43.4906L38.6928 78.8004V84.2522H35.8183V78.831L31 69.6394Z" fill="#55565B"/>
<path d="M64.441 56.7044V42.0916H67.3053V56.7044H64.441Z" fill="#55565B"/>
<path d="M104.043 47.227C104.11 47.1587 104.11 47.0905 104.11 47.0905C104.043 47.0905 104.043 47.1587 104.043 47.227ZM94.0028 55.2105C91.4251 57.5986 90.611 58.3493 88.8473 60.9421C88.6437 60.7374 87.5583 59.0998 87.0835 58.554C86.88 58.281 86.7443 58.1445 86.6086 58.008L86.4052 57.7351C86.3373 57.6669 86.3373 57.6669 86.3373 57.5986C86.2694 57.5986 86.2694 57.5304 85.9981 57.2575C86.1338 57.3939 86.5408 57.8716 87.0157 58.4175C87.287 58.6904 87.4906 59.0316 87.694 59.3727C88.7116 60.7374 87.6262 59.2363 87.6262 59.2363C87.694 59.2363 87.7619 59.3045 87.8297 59.5092C89.39 61.5562 87.6262 59.0998 87.1514 58.554C86.88 58.2128 86.6765 57.9398 86.5409 57.8033C86.4052 57.5986 86.4052 57.5986 86.5409 57.8033C86.9478 58.2128 87.1514 58.554 87.3549 58.8269C87.5583 59.0316 87.694 59.2363 87.7619 59.3045C87.9654 59.5092 87.8975 59.441 87.8297 59.3045C87.7619 59.168 87.6262 58.9633 87.5583 58.8951C87.5583 58.8951 87.5583 58.8951 87.5583 58.8269C87.0835 58.2128 86.5409 57.5986 86.066 57.121C85.5233 56.5069 85.0484 56.0292 84.7092 55.6881C84.3022 55.3469 84.0987 55.074 84.0309 55.0058C83.963 54.8693 84.0987 55.0058 84.3701 55.2787C84.9806 55.8928 85.5911 56.5069 86.2017 57.1893C86.8122 57.8033 87.4227 58.4857 87.8975 59.2363C87.6262 58.8951 87.4906 58.6904 87.4227 58.554C87.287 58.4175 87.2191 58.3493 87.2191 58.3493C87.2191 58.281 87.4227 58.4857 87.4906 58.6222C87.5583 58.6904 87.5583 58.6904 87.5583 58.6904C87.4906 58.6222 87.4906 58.554 87.3549 58.4175C87.2191 58.2128 87.0157 58.008 86.7443 57.6669C86.4052 57.2575 85.9981 56.8481 85.4555 56.2339C86.1338 56.9846 86.88 57.7351 87.5583 58.554C87.287 58.1445 87.0835 57.9398 86.88 57.7351L86.5409 57.3257C86.4052 57.121 86.3373 57.0528 86.2694 56.9846C86.2017 56.9163 86.066 56.7116 85.7268 56.3704C85.5233 56.1657 85.3197 55.8928 84.9806 55.6198C84.6414 55.2787 84.2343 54.8693 83.6917 54.3234C84.3022 54.8693 84.7771 55.3469 85.1163 55.6881C85.4555 56.0292 85.6589 56.2339 85.6589 56.2339C85.1841 55.7563 84.8449 55.4152 84.5735 55.074C84.2343 54.8011 84.0309 54.5963 83.7595 54.3234L82.742 53.2999C82.4707 53.0952 82.2671 52.8904 81.9958 52.6175C81.7923 52.4128 81.521 52.2081 81.3174 51.9352L81.2495 51.867C81.3853 52.0034 81.5887 52.2081 81.7923 52.4128C82.2671 52.8904 82.9455 53.5046 83.2846 53.8457C83.4204 53.9822 83.7595 54.2551 84.0309 54.5281C84.3701 54.8693 84.7092 55.1422 84.8449 55.3469C85.0484 55.5516 85.1163 55.6198 84.9806 55.4152C84.9127 55.3469 84.7771 55.2105 84.5735 55.0058C84.1666 54.6645 83.8274 54.3234 83.4204 53.914C83.963 54.3916 84.3022 54.7328 84.5735 55.0058C84.8449 55.2787 85.1163 55.4834 85.3197 55.7563C84.8449 55.2787 84.3022 54.8011 83.8952 54.3916C83.4882 53.914 83.0812 53.5728 82.8098 53.2999C82.5384 53.0269 82.4028 52.8904 82.4707 52.9587C82.5384 53.0269 82.742 53.2317 83.2846 53.7093C82.4707 52.8904 81.9279 52.3446 81.3174 51.7305C81.0461 51.3893 80.7069 51.1163 80.3677 50.7069C80.2998 50.6387 80.232 50.5705 80.1642 50.5022C80.4356 50.8434 80.639 51.0481 80.7069 51.0481C80.7747 51.1163 80.7069 51.0481 80.639 50.9799C80.5034 50.8434 80.3677 50.7069 80.1642 50.5022C80.9104 51.3893 81.7923 52.2081 82.6741 53.0952C83.0133 53.4364 82.8776 53.2317 82.4028 52.8222C81.9958 52.3446 81.3174 51.6623 80.7069 50.9799C81.1139 51.3893 81.3852 51.6623 81.521 51.867C81.7244 52.0716 81.8601 52.2081 81.9279 52.2763C82.0636 52.4128 81.9958 52.3446 81.8601 52.1399C81.7244 52.0034 81.5887 51.867 81.521 51.7987C81.4531 51.7305 81.5887 51.867 82.0636 52.2763C81.6566 51.867 81.4531 51.6623 81.3853 51.594C81.3174 51.5258 81.3174 51.5258 81.3174 51.4576C81.2495 51.3893 81.1818 51.2528 80.8426 50.9799C80.7069 50.7752 80.5034 50.5705 80.232 50.2976C79.9607 49.9564 79.6215 49.6152 79.2144 49.0693C79.6893 49.6835 80.232 50.2975 80.7747 50.9116C80.9104 51.0481 80.9782 51.1163 81.1139 51.1846C81.2495 51.321 81.4531 51.5258 81.9279 51.9352C82.0636 52.0716 81.9958 52.0034 81.7923 51.7987C81.5887 51.594 81.3174 51.321 80.9782 50.9799C80.639 50.6387 80.2998 50.2293 79.9607 49.8199C79.6215 49.4105 79.3501 49.0693 79.2144 48.7964C79.5536 49.2058 79.8928 49.6152 80.232 50.0929C79.7572 49.5469 79.1467 48.7964 78.6718 47.9776C78.3326 47.4317 77.9934 46.8176 77.7221 46.2035C77.5864 45.794 77.4508 45.4529 77.3829 45.1117C77.3829 45.1117 77.3829 45.1117 77.3829 45.0435C77.315 44.9753 77.315 44.7706 77.1794 44.4293C77.2472 44.6341 77.315 44.8388 77.3829 45.0435C77.3829 45.1117 77.3829 45.1117 77.3829 45.1117C77.3829 45.1117 77.3829 45.1117 77.4508 45.1799C77.5185 45.2482 77.5185 45.4529 77.6542 45.794C77.7221 46.067 77.8577 46.4082 78.0613 46.8176C78.2647 47.227 78.4683 47.6364 78.8075 48.1823C79.1467 48.6599 79.4859 49.2058 80.0285 49.7517C80.5034 50.2976 81.0461 50.9116 81.5887 51.4576C81.7923 51.6623 81.6566 51.5258 81.3853 51.1846C81.1139 50.9116 80.7747 50.5022 80.4356 50.1611C80.1642 49.8199 79.8928 49.5469 79.8928 49.4787C79.8928 49.4105 79.9607 49.5469 80.0964 49.6835C80.232 49.8199 80.4356 50.0929 80.7069 50.434C80.8426 50.5705 80.9782 50.6387 80.9104 50.6387C80.9104 50.6387 80.7747 50.5022 80.639 50.2976C80.4356 50.0929 80.232 49.8199 79.8928 49.3422C79.825 49.2058 79.6893 49.1375 79.6215 49.0011C79.6215 48.9328 79.5536 48.9328 79.5536 48.9328C79.5536 48.8646 79.4859 48.8646 79.4859 48.8646C79.3501 48.7281 79.2823 48.5917 79.2144 48.4552C79.011 48.2505 78.8753 47.9776 78.7396 47.7046C78.9431 47.9776 79.0788 48.2505 79.2144 48.4552C79.3501 48.5917 79.418 48.7281 79.4859 48.8646C79.5536 48.9328 79.5536 48.9328 79.5536 49.0011C79.825 49.4105 80.1642 49.7517 80.639 50.2976C80.639 50.2293 80.5712 50.1611 80.3677 49.9564C80.2998 49.8199 80.1642 49.6835 79.9607 49.4787C79.7572 49.274 79.5536 49.0011 79.3501 48.6599C79.5536 48.8646 79.6215 49.0011 79.6215 49.0011C79.6893 49.0693 79.6893 49.0693 79.6215 49.0011C79.5536 48.9328 79.418 48.7281 79.418 48.7964C79.0788 48.3188 78.8075 47.9776 78.6718 47.6364C78.5361 47.2952 78.3326 47.0905 78.1969 46.7494C78.0613 46.4764 77.9256 46.1352 77.7221 45.6576C77.5864 45.4529 77.5185 45.1799 77.4508 44.907C77.315 44.6341 77.2472 44.2929 77.2472 43.8835C77.315 44.2929 77.3829 44.6341 77.4508 44.8388C77.5185 45.0435 77.5186 45.1117 77.5186 44.9753C77.315 44.4293 77.2472 43.9517 77.2472 43.6105C77.1794 43.2694 77.1794 43.0647 77.1794 42.9282C77.1794 42.86 77.1794 42.86 77.1794 43.0647C77.2472 43.2694 77.2472 43.6105 77.315 44.0882C77.4508 44.6341 77.5864 45.1799 77.7221 45.5893C77.7899 45.794 77.8577 45.9305 77.9256 46.067C77.9256 45.9987 77.8577 45.9305 77.8577 45.8623C77.8577 45.794 77.8577 45.794 77.7899 45.794L77.8577 45.8623C77.5864 45.1117 77.3829 44.3611 77.2472 43.5423C77.315 43.8152 77.315 43.9517 77.315 44.0882C77.3829 44.2246 77.3829 44.2929 77.3829 44.3611C77.3829 44.4976 77.3829 44.4293 77.315 44.1564C77.2472 43.9517 77.1794 43.6105 77.1794 43.2011C77.1794 43.0647 77.1794 42.9964 77.1794 42.86V42.7235V42.6553C77.1794 42.587 77.1794 42.5188 77.1794 42.4506C77.1794 42.2458 77.1794 41.9729 77.2472 41.7682C77.1794 41.9729 77.1794 42.1776 77.1794 42.3823C77.1794 42.5188 77.1794 42.587 77.1794 42.7235V42.7917V42.86C77.1794 42.9282 77.2472 42.9964 77.2472 43.0647L77.1794 42.9282V42.7917V42.7235V42.6553C77.1794 42.587 77.1794 42.587 77.1794 42.5188C77.1794 42.3141 77.2472 42.1094 77.2472 41.9729C77.2472 41.9047 77.315 41.8364 77.315 41.8364C77.315 41.7682 77.315 41.7682 77.315 41.7682C77.315 41.8364 77.315 41.8364 77.315 41.8364C77.3829 41.4953 77.4508 41.2223 77.5186 40.9494C77.315 41.1541 77.315 41.1541 77.315 41.0859C77.315 41.0176 77.3829 40.8812 77.3829 40.7447C77.5185 40.4718 77.4508 40.6082 77.3829 40.7447C77.315 40.8812 77.315 41.0176 77.2472 41.2223C77.1794 41.5635 77.1116 41.9047 77.1116 42.3141C77.1116 42.3823 77.1116 42.5188 77.1116 42.587C77.1116 42.6553 77.1116 42.6553 77.1116 42.7235V42.9282C77.1116 43.1329 77.1794 43.3376 77.1794 43.4741C77.1794 43.5423 77.2472 43.747 77.2472 44.0199C77.315 44.2929 77.3829 44.6341 77.4508 44.8388C77.5185 45.0435 77.5186 45.1799 77.5186 45.1117C77.4508 45.0435 77.4508 44.9753 77.3829 44.7706C77.315 44.5659 77.2472 44.3611 77.2472 44.0199C77.1794 43.8152 77.1794 43.5423 77.1116 43.3376C77.1116 43.2011 77.1116 43.0647 77.0437 42.9282V42.6553C77.0437 42.587 77.0437 42.5188 77.0437 42.4506C77.0437 41.9047 77.1794 41.2906 77.315 40.7447C77.2472 40.8812 77.2472 40.9494 77.1794 41.0859C77.1116 41.2223 77.1116 41.3588 77.1116 41.427C77.0437 41.5635 77.0437 41.6317 77.0437 41.7C77.0437 41.7682 77.0437 41.7 77.0437 41.6317C77.1116 41.0859 77.2472 40.6765 77.315 40.4718C77.315 40.54 77.315 40.54 77.315 40.54C77.315 40.4718 77.315 40.4718 77.315 40.4718C77.3829 40.4035 77.3829 40.4035 77.315 40.4718V40.54C77.9934 38.9024 77.5186 39.9941 77.1794 40.8812C77.1116 41.0859 77.0437 41.2223 77.0437 41.427C76.9759 41.7682 76.9759 41.9729 76.9759 41.9729C76.9759 36.7188 83.963 36.6506 86.3373 40.4718C86.7443 41.0859 87.4906 42.587 87.2191 43.2011C87.2191 43.2011 86.2694 44.9753 85.9981 45.9305C85.9303 46.1352 85.8625 46.2717 85.8625 46.4082L85.9303 46.4764C85.9981 46.34 86.066 46.2035 86.1338 45.9987L86.2694 45.7258C86.6086 44.8388 87.0157 44.0199 87.4906 43.2011L87.5583 43.0647C87.3548 43.4058 87.1514 43.6788 87.0157 44.0199C87.0835 44.0199 87.4227 43.4058 87.4227 43.4741C87.4906 43.4741 87.4227 43.5423 87.287 43.747C87.5583 43.3376 87.7619 42.9964 88.0332 42.587C88.1689 42.4506 88.2367 42.3823 88.3045 42.3141C87.8975 42.86 87.5583 43.4741 87.2191 44.0199C87.0157 44.4293 86.88 44.7023 86.8122 44.9753C86.6765 45.1799 86.6765 45.3846 86.6086 45.4529C86.473 45.9305 86.7443 45.5211 86.8122 45.4529C86.88 45.3846 86.88 45.4529 86.7443 45.794C86.88 45.5893 87.0157 45.3164 87.2191 44.907C87.694 43.9517 88.3724 43.0647 89.1186 42.3141C89.4578 41.9729 89.7291 41.6317 90.0005 41.4953C91.2216 40.267 92.7139 39.1753 94.2741 38.4929L94.2064 38.6294C93.8672 38.8341 93.528 38.9706 93.1888 39.1753C93.528 38.9706 93.8672 38.8341 94.2064 38.6977L94.1385 38.7659C93.935 38.8341 93.7993 38.9024 93.6636 38.9706C93.5958 39.0388 93.5958 38.9706 93.8672 38.9024C93.7315 38.9706 93.6636 39.0388 93.5958 39.0388L93.6636 38.9706C93.7315 38.9024 93.935 38.8341 94.1385 38.7659L94.0707 38.8341C92.6461 39.4482 91.2216 40.4718 90.1362 41.6317C90.8145 41.0176 91.5608 40.4035 92.3069 39.9259C92.6461 39.7212 92.9174 39.5847 92.9853 39.5847C93.0531 39.5165 92.9853 39.5847 92.9174 39.6529C92.7818 39.7212 92.6461 39.8576 92.4426 39.9941C92.3747 40.0623 92.5105 39.9259 92.7139 39.7894C92.8496 39.7212 92.9174 39.6529 92.9853 39.6529C93.0531 39.5847 93.1888 39.5165 93.3244 39.4482C93.3923 39.4482 93.3923 39.38 93.3923 39.38C93.528 39.3118 93.6636 39.1753 93.8672 39.1071C93.7315 39.1753 93.5958 39.2435 93.4602 39.3118C93.7993 39.1071 93.935 39.1071 94.0028 39.0388C93.3244 39.38 92.6461 39.7894 91.9677 40.267C91.8321 40.3353 91.8321 40.4035 91.7642 40.4035C91.7642 40.4718 91.8999 40.3353 91.9677 40.267C92.1034 40.1988 92.239 40.1306 92.1713 40.1306C92.1034 40.1988 92.0356 40.1988 91.9677 40.3353C91.8999 40.4035 91.8321 40.4718 91.6964 40.54C91.7642 40.54 91.7642 40.54 91.7642 40.54C91.9677 40.4035 92.0356 40.3353 92.0356 40.3353C92.1034 40.3353 91.8321 40.54 91.5607 40.7447C91.2893 40.9494 91.0859 41.1541 91.018 41.2223C91.018 41.2906 91.018 41.2223 91.1537 41.0859C91.2893 40.9494 91.4929 40.8129 91.7642 40.6082C91.6285 40.6765 91.5607 40.8129 91.4251 40.8812C91.4929 40.8129 91.5607 40.7447 91.5607 40.7447C91.6964 40.6082 91.4251 40.8812 91.0859 41.1541C90.8824 41.2906 90.7467 41.4953 90.611 41.6317C90.4754 41.7682 90.4075 41.9047 90.3397 41.9047C90.2718 41.9729 90.3396 41.9047 90.4754 41.7682C90.611 41.6317 90.8824 41.3588 91.2893 41.0176C90.9502 41.2906 90.6788 41.5635 90.4075 41.8364C90.611 41.6317 90.4754 41.9047 90.5432 41.9047C90.611 41.8364 90.6788 41.7682 90.8824 41.6317C91.2893 41.2906 91.6285 40.9494 92.1034 40.6082C92.239 40.54 92.1713 40.54 92.1713 40.6082C92.1034 40.6765 91.9677 40.8129 91.8321 40.9494C91.4251 41.2906 91.0859 41.6317 90.6788 41.9729C90.3397 42.3823 90.0683 42.7235 90.0005 42.7917C89.9326 42.86 89.9326 42.86 90.0683 42.7235C90.204 42.587 90.3397 42.4506 90.5432 42.1776C90.611 42.1094 90.6788 42.0411 90.7467 41.9729C90.9502 41.7682 91.0859 41.6317 91.1537 41.5635C91.2216 41.4953 91.2893 41.427 91.2893 41.427C91.4251 41.427 91.5607 41.2906 91.6964 41.1541C92.1034 40.8129 92.5105 40.4718 92.7818 40.3353C92.7139 40.4035 92.3069 40.6765 91.8321 41.0176C91.6285 41.1541 91.4929 41.3588 91.2893 41.4953C91.2216 41.5635 91.2216 41.5635 91.1537 41.6317C90.9502 41.7682 90.7467 42.0411 90.611 42.1776C90.4075 42.3823 90.2718 42.5188 90.3397 42.5188C90.7467 42.1094 91.0859 41.7 91.5607 41.2906C91.7642 41.0859 92.0356 40.8812 92.5105 40.54C92.1713 40.8129 91.8321 41.0859 91.5607 41.2906C91.3572 41.4953 91.2215 41.5635 91.2215 41.6317C91.1537 41.7 91.2893 41.5635 91.4929 41.3588C91.6964 41.1541 91.9677 41.0176 91.9677 40.9494C91.9677 40.9494 91.8999 41.0176 91.7642 41.0859C91.6285 41.2223 91.4251 41.3588 91.1537 41.6317C91.9677 40.8812 92.8496 40.1988 93.8672 39.6529C93.935 39.6529 93.935 39.7212 93.935 39.7212C93.528 39.9259 93.121 40.1988 92.6461 40.4718C92.7818 40.4035 92.8496 40.3353 92.8496 40.3353C92.8496 40.3353 92.7818 40.4035 92.5782 40.54C92.4426 40.6765 92.1713 40.8812 91.8321 41.1541C92.5105 40.6082 93.1888 40.0623 94.0028 39.7212H94.0707C93.5958 39.9259 93.1888 40.1988 92.7818 40.4718C92.6461 40.6082 92.5782 40.6082 92.7818 40.4718C92.9174 40.4035 93.2566 40.1306 93.1888 40.267L92.9174 40.4718C93.3244 40.1988 93.7315 39.9259 94.1385 39.7894C94.2064 39.7894 94.2064 39.7894 94.2064 39.7894C94.0028 39.8576 93.8672 39.9941 93.6636 40.1306C93.6636 40.1988 93.7315 40.1988 93.7315 40.1988C93.7315 40.1988 93.5958 40.3353 93.4602 40.4035V40.4718C93.6636 40.3353 93.935 40.1988 94.1385 40.0623C94.2064 39.9941 94.342 39.9941 94.4099 39.9259H94.4777C94.4098 39.9259 94.4099 39.9259 94.4099 39.9941C94.4777 39.9259 94.6133 39.9259 94.6812 39.8576C94.8169 39.7894 95.4274 39.5165 95.8344 39.5165C99.7011 38.4929 102.143 40.4035 102.008 44.5659C101.668 49.6835 97.2589 52.0716 94.0028 55.2105ZM75.0765 46.4764C75.0086 46.34 75.0086 46.2035 74.9408 46.067C74.8729 45.9305 74.8729 45.8623 74.8729 45.7258C74.8051 45.7258 74.8051 45.6576 74.8051 45.6576C74.7373 45.3846 74.6694 45.1799 74.6016 44.9753V44.907C74.5337 44.7706 74.5337 44.7023 74.5337 44.5659C74.5337 44.4976 74.5337 44.4293 74.466 44.4293C74.5337 44.5659 74.5337 44.7023 74.6016 44.8388V44.907V44.9753C74.6694 45.1799 74.7373 45.3846 74.8051 45.6576C74.8729 45.794 74.8729 45.8623 74.9408 45.9987C75.0086 46.2035 75.0086 46.34 75.0765 46.4764ZM74.6016 44.7023C74.6694 44.7706 74.6694 44.7706 74.6694 44.7706L74.6016 44.7023ZM75.0765 46.2035C75.0086 46.1352 75.0086 46.067 75.0086 45.9987V45.9305C75.0086 46.067 75.0086 46.1352 75.0765 46.2035ZM74.3302 44.7706C74.3302 44.5659 74.2624 44.4293 74.2624 44.2929V44.2246C74.3302 44.4976 74.3981 44.7023 74.3981 44.907C74.466 45.0435 74.466 45.1117 74.466 45.2482C74.466 45.1117 74.3981 44.907 74.3302 44.7706ZM74.1945 43.747C74.2624 44.0882 74.3302 44.4293 74.3981 44.7706V44.8388C74.3302 44.5659 74.2624 44.2929 74.2624 44.0882C74.1945 43.9517 74.1945 43.8152 74.1945 43.747ZM74.466 43.6105C74.466 43.4741 74.466 43.3376 74.3981 43.2694C74.466 43.5423 74.466 43.747 74.5337 43.9517V44.1564C74.466 43.9517 74.466 43.8152 74.466 43.6105ZM105.264 42.7917C105.196 42.4506 105.128 41.9729 104.992 41.3588C103.907 36.9235 99.0227 35.0812 94.8169 36.5141C91.6964 37.8106 90.7467 38.6977 88.3045 41.0176C87.6262 38.0153 84.2343 34.1942 79.2823 35.1494C76.908 35.7636 75.4156 37.333 74.8051 39.3118C74.8729 39.2435 74.8729 39.2435 74.8729 39.1753C74.8051 39.2435 74.8051 39.3118 74.8051 39.3118C74.7373 39.4482 74.7373 39.5165 74.7373 39.5847C74.7373 39.5165 74.7373 39.5165 74.7373 39.5165C74.8051 39.4482 74.8051 39.38 74.8729 39.2435C74.8729 39.3118 74.8729 39.38 74.8051 39.38C75.0765 38.8341 75.1443 38.1518 74.6016 40.4035C74.5337 40.6082 74.5337 40.8129 74.5337 41.0176C74.5337 40.8812 74.6016 40.8129 74.6016 40.8129C74.5337 41.0176 74.5337 41.1541 74.5337 41.3588C74.5337 41.3588 74.5337 41.427 74.466 41.427C74.466 41.427 74.466 41.427 74.466 41.4953C74.466 41.7682 74.3981 42.0411 74.3981 42.2459C74.3302 42.3823 74.3302 42.5188 74.3302 42.6553C74.3302 42.6553 74.3302 42.5188 74.3302 42.3823C74.3302 42.3141 74.3981 42.2459 74.3981 42.2459C74.3981 41.9047 74.3981 41.5635 74.466 41.2223C74.466 41.0176 74.466 40.8129 74.5337 40.6765C74.466 40.8129 74.466 40.9494 74.3981 41.0859C74.3302 41.2223 74.3302 41.427 74.3302 41.5635C74.3302 41.6317 74.3302 41.7 74.3302 41.7682C74.3302 41.9047 74.3302 42.0411 74.2624 42.1776C74.2624 42.3823 74.2624 42.587 74.3302 42.7917C74.3302 42.86 74.3302 42.9282 74.3302 42.9964C74.3302 43.1329 74.3302 43.2011 74.3302 43.2694C74.3302 43.3376 74.3302 43.3376 74.3302 43.4058C74.2624 43.0647 74.2624 42.7235 74.2624 42.3823C74.2624 42.5188 74.2624 42.6553 74.2624 42.7917C74.2624 42.9964 74.2624 43.1329 74.3302 43.3376C74.3302 43.4058 74.3302 43.4741 74.3302 43.6105C74.3302 43.6788 74.3302 43.747 74.3981 43.8152C74.3302 43.6788 74.3302 43.5423 74.3302 43.3376C74.3302 43.6105 74.3981 43.8835 74.466 44.1564C74.466 44.4293 74.5337 44.7023 74.6016 44.907C74.6694 45.1799 74.7373 45.3846 74.7373 45.5211L74.8051 45.794C74.8051 45.794 74.8051 45.7258 74.7373 45.5211C74.7373 45.4529 74.6694 45.3164 74.6016 45.1117C74.5337 44.907 74.466 44.6341 74.466 44.3611C74.3981 44.1564 74.3981 43.9517 74.3981 43.8152C74.3981 44.0882 74.466 44.2929 74.466 44.4976C74.5337 44.7023 74.5337 44.8388 74.5337 44.907C74.466 44.6341 74.3981 44.2929 74.3302 43.9517C74.3302 43.747 74.2624 43.6105 74.2624 43.4741C74.1945 43.2694 74.1945 43.1329 74.1945 42.9282C74.1945 42.7235 74.1945 42.5188 74.1945 42.3141C74.1945 42.3141 74.1268 42.3141 74.1268 42.2459C74.1268 42.1776 74.1268 42.1776 74.1268 42.1094C74.1945 41.4953 74.2624 40.8812 74.3981 40.267C74.466 40.0623 74.466 39.9259 74.5337 39.7894C74.466 39.8576 74.466 39.9259 74.466 39.9259C74.3981 39.9941 74.5337 39.7212 74.5337 39.6529C74.466 39.7894 74.3981 39.8576 74.3981 39.9259C74.1945 40.6765 74.0589 41.4953 74.0589 42.3141V42.3823C74.0589 42.4506 74.0589 42.4506 74.0589 42.5188C74.0589 42.4506 74.0589 42.3823 74.0589 42.3823C74.0589 42.4506 74.0589 42.5188 74.0589 42.587C74.0589 42.6553 74.0589 42.6553 74.0589 42.7235C73.9911 42.3141 74.0589 41.9047 74.1268 41.427C74.1268 41.2223 74.1945 41.0859 74.1945 40.8812C74.1268 41.1541 74.0589 41.4953 74.0589 41.8364C73.9911 42.0411 73.9911 42.0411 73.9911 42.0411V41.7682C73.9911 41.6317 73.9911 41.5635 74.0589 41.4953C74.0589 41.3588 74.1268 41.1541 74.1268 41.0176C74.1268 40.9494 74.1945 40.8812 74.1945 40.7447C74.1268 40.9494 74.1268 41.1541 74.1268 41.2223C74.0589 41.427 74.0589 41.4953 74.0589 41.5635C74.0589 41.6317 74.0589 41.6317 74.0589 41.6317V41.4953C74.0589 41.427 74.0589 41.4953 74.0589 41.5635C74.0589 41.4953 74.1268 41.427 74.1268 41.3588C74.0589 41.5635 74.0589 41.7682 73.9911 41.9729C74.0589 42.3141 74.0589 42.5188 74.0589 42.5188C74.0589 42.587 74.0589 42.4506 74.0589 42.3141C74.0589 42.1094 74.1268 41.9047 74.1268 41.6317C74.1268 41.3588 74.1945 41.0859 74.2624 40.8129C74.3981 40.4035 74.466 40.0623 74.5337 39.9259C74.466 39.9941 74.466 39.9941 74.466 40.0623C74.3981 40.1306 74.3981 40.267 74.3302 40.3353C74.3302 40.4035 74.3302 40.4035 74.3302 40.4718C74.2624 40.6765 74.1945 40.8129 74.1945 41.0176C74.1945 41.0859 74.1268 41.1541 74.1268 41.2223C74.0589 41.427 74.0589 41.7 74.0589 41.9047C74.0589 41.6317 74.1268 41.427 74.1268 41.2223C74.1268 41.1541 74.1945 41.0859 74.1945 41.0176C74.1945 40.9494 74.1945 40.9494 74.1945 40.9494C74.2624 40.7447 74.3302 40.6082 74.3302 40.4718C74.3302 40.3353 74.3981 40.1988 74.466 40.0623C74.466 39.9259 74.5337 39.9259 74.5337 39.8576V39.9259C74.6694 39.5165 74.8051 39.1071 75.0086 38.6977C74.8729 38.9706 74.7373 39.2435 74.6694 39.4482C74.6016 39.6529 74.5337 39.8576 74.466 39.9941C74.3302 40.3353 74.3302 40.4718 74.3302 40.54C74.2624 40.6765 74.3302 40.4718 74.3981 40.1988C74.466 39.9259 74.5337 39.7212 74.5337 39.7212C74.5337 39.7894 74.466 39.8576 74.3981 40.0623C74.3302 40.1306 74.3302 40.267 74.2624 40.4035C74.1945 40.6765 74.1268 40.9494 74.1268 41.2223C74.1945 40.8812 74.2624 40.6082 74.2624 40.4035C74.2624 40.3353 74.2624 40.3353 74.3302 40.267C74.3981 39.9941 74.466 39.8576 74.466 39.8576C74.466 39.8576 74.3981 39.9259 74.3302 40.1306C74.2624 40.3353 74.1945 40.54 74.1945 40.8129C74.1268 41.2906 74.0589 41.5635 74.0589 41.9047C73.9911 42.1776 73.9911 42.4506 73.9911 42.6553V42.7917V42.9282V43.0647C73.9911 43.1329 73.9911 43.1329 73.9911 42.9282V42.7235C73.9911 42.6553 73.9911 42.587 73.9911 42.5188C73.9911 42.3141 73.9911 42.1094 74.0589 41.9047C73.9911 42.1094 73.9911 42.3141 73.9911 42.587C73.9911 42.6553 73.9911 42.7235 73.9911 42.7917V42.9282V43.0647C73.9911 43.2011 73.9911 43.4058 74.0589 43.6105C74.0589 43.747 74.0589 43.8152 74.0589 43.8835C74.1268 44.1564 74.1268 44.4293 74.1945 44.7023C74.1945 44.8388 74.1945 44.907 74.2624 44.9753C74.2624 45.0435 74.3302 45.1117 74.3302 45.1799C74.3302 45.1117 74.2624 45.0435 74.2624 44.907C74.1945 44.8388 74.1945 44.7023 74.1945 44.6341C74.1268 44.3611 74.0589 44.0882 74.0589 43.8835C74.0589 43.8152 73.9911 43.6788 73.9911 43.6105C73.9911 43.4058 73.9232 43.2011 73.9232 42.9964C73.9232 42.7917 73.9232 42.587 73.9232 42.4506C73.9232 42.587 73.9232 42.7235 73.9232 42.7917C73.9232 42.9282 73.9232 42.9964 73.9232 43.0647C73.9232 43.2694 73.9232 43.4058 73.9232 43.5423C73.9232 43.8152 73.9911 44.0199 73.9911 44.3611C73.9911 44.5659 74.0589 44.7023 74.0589 44.9753C74.1268 45.1799 74.1945 45.4529 74.2624 45.794C74.3981 46.1352 74.466 46.5447 74.6694 47.0223C74.8729 47.4999 75.0765 48.0458 75.4157 48.5917C75.2121 48.2505 75.0086 47.9094 74.8729 47.4999C74.6694 47.1587 74.5337 46.8176 74.466 46.4082C74.5337 46.6811 74.6016 46.8858 74.6694 47.0223C74.7373 47.227 74.8051 47.3634 74.8729 47.4317C74.9408 47.6364 74.9408 47.7046 74.9408 47.6364C74.8729 47.5681 74.8051 47.4317 74.7373 47.2952C74.6694 47.0905 74.6016 46.954 74.5337 46.7494C74.466 46.5447 74.3981 46.4764 74.3981 46.4082C74.3981 46.34 74.3981 46.4082 74.466 46.6129C74.5337 46.8176 74.6694 47.1587 74.9408 47.7046C75.2121 48.2505 75.5513 49.0011 76.1619 49.8882C76.5011 50.3658 76.8402 50.8434 77.2472 51.321C77.315 51.3893 77.315 51.3893 77.315 51.4576C77.7221 51.867 78.0613 52.2763 78.4683 52.754C78.1969 52.481 77.9256 52.2081 77.6542 51.867C77.5185 51.7305 77.4508 51.594 77.315 51.4576C77.315 51.3893 77.2472 51.3893 77.2472 51.321C77.1116 51.1163 76.908 50.9116 76.7724 50.7069C76.5011 50.2976 76.2296 49.9564 75.9583 49.5469C75.7548 49.2058 75.5513 48.8646 75.3478 48.5235C75.5513 48.7964 75.6191 49.0011 75.7548 49.1375C75.8905 49.3422 75.9583 49.4105 75.9583 49.5469C76.094 49.7517 76.1619 49.8199 76.2296 49.9564C76.2975 50.0929 76.3653 50.2293 76.5688 50.5022C76.7045 50.7069 76.8402 50.9116 77.1116 51.1846C77.2472 51.3893 77.3829 51.5258 77.5864 51.7305C77.3829 51.5258 77.2472 51.321 77.1116 51.1846C76.908 50.9116 76.7045 50.7069 76.5688 50.5022C76.2975 50.1611 76.094 49.8199 75.8227 49.3422C75.687 49.2058 75.8227 49.3422 76.0262 49.6835C76.2296 50.0246 76.5688 50.434 76.8402 50.9116C76.9759 51.1163 77.1116 51.2528 77.2472 51.4576C77.315 51.5258 77.3829 51.594 77.4508 51.6623C77.5864 51.7987 77.6542 51.9352 77.7221 52.0034C77.9256 52.2763 77.9934 52.3446 77.8577 52.1399C77.7221 52.0034 77.5864 51.867 77.4508 51.7305C77.3829 51.6623 77.315 51.594 77.2472 51.5258C77.1116 51.321 76.908 51.1163 76.7724 50.9799C76.2975 50.3658 75.8905 49.7517 75.4835 49.0693C75.0765 48.4552 74.8051 47.8411 74.5337 47.227C74.2624 46.6811 74.1268 46.1352 73.9911 45.6576C73.8554 45.2482 73.7876 44.907 73.7197 44.5659C73.6519 44.2929 73.6519 44.2246 73.6519 44.2246C73.584 44.2246 73.6519 44.3611 73.7197 44.7023C73.7876 44.9753 73.8554 45.4529 74.0589 46.067C74.2624 46.6811 74.5337 47.4999 75.0086 48.4552C75.0765 48.6599 75.1443 48.6599 75.0765 48.6599C75.0765 48.5917 75.0086 48.5235 74.9408 48.3188C74.8051 48.1141 74.7373 47.9094 74.6016 47.6364C74.466 47.3634 74.3302 47.0223 74.2624 46.6811C74.1268 46.34 74.0589 46.067 73.9232 45.7258C73.8554 45.3846 73.7876 45.1117 73.7197 44.8388C73.6519 44.5659 73.584 44.3611 73.584 44.2246C73.5162 44.0882 73.5162 44.0199 73.5162 44.0882C73.584 44.4976 73.6519 44.8388 73.7197 45.1799C73.7876 45.4529 73.8554 45.7258 73.9232 45.8623C74.0589 46.2717 74.1268 46.4082 74.1268 46.4764C74.1945 46.6129 73.9911 46.2035 73.9232 45.9987C73.8554 45.8623 73.7876 45.794 73.7876 45.794C73.7876 45.794 73.8554 45.9305 73.9232 46.2035C73.9911 46.34 74.0589 46.5447 74.1945 46.8176C74.2624 47.0905 74.3981 47.227 74.5337 47.5681C74.7373 47.9094 74.9408 48.3188 75.2121 48.7964C75.4835 49.274 75.7548 49.7517 76.1619 50.2976C78.7396 53.5728 81.7244 55.6198 84.5735 58.4857C85.8625 59.7821 86.5409 60.2598 87.5583 61.6928C88.4403 62.7162 89.3899 64.4221 88.7794 62.9209C88.6437 62.5798 88.3724 62.0339 88.7116 62.648C89.4578 64.0127 89.4578 64.2174 89.5934 64.2174C89.6613 64.1492 89.4578 63.3304 89.4578 63.2621C89.3221 60.1916 97.9373 55.2105 100.108 53.2999C101.6 51.9352 102.143 51.321 102.754 50.5022C102.822 50.434 102.822 50.434 102.889 50.2976C103.025 50.1611 103.161 49.9564 103.364 49.4787C103.5 49.2058 103.636 48.9328 103.771 48.5917C103.907 48.2505 104.11 47.8411 104.246 47.2952C104.11 47.9094 103.907 48.387 103.771 48.7281C103.636 49.1375 103.5 49.4105 103.364 49.6835C103.161 50.1611 102.957 50.434 102.822 50.7069C102.686 50.9799 102.55 51.1846 102.415 51.4576C102.211 51.7305 102.008 52.0716 101.736 52.6175C102.143 51.9352 102.415 51.5258 102.55 51.2528C102.754 50.9799 102.754 50.9116 102.754 50.9116C102.686 50.9799 102.686 51.0481 102.686 51.0481C102.686 51.0481 102.754 50.9799 102.889 50.7069C102.754 50.9116 102.686 51.0481 102.55 51.2528C102.822 50.8434 102.618 51.2528 102.347 51.594L102.143 51.9352C102.075 52.0034 102.211 51.9352 102.347 51.6623C102.55 51.3893 102.686 51.0481 102.889 50.7752C103.093 50.5022 103.161 50.2976 103.161 50.2976C103.229 50.2293 103.161 50.3658 103.093 50.434C103.025 50.5705 102.957 50.7752 102.822 50.9799C102.754 51.1163 102.686 51.2528 102.618 51.321C102.686 51.1163 102.822 50.9799 102.889 50.8434C102.55 51.3893 102.347 51.7987 102.211 52.0716C102.075 52.2763 102.008 52.4128 102.008 52.4128C101.94 52.4128 102.211 52.0716 102.482 51.6623C102.55 51.5258 102.618 51.4576 102.686 51.321C102.415 51.7987 102.143 52.3446 101.804 52.754C101.94 52.5493 102.075 52.3446 102.143 52.2081L102.415 51.7987C102.482 51.6623 102.347 51.867 102.279 52.0716C102.143 52.2763 102.008 52.481 102.008 52.481C102.075 52.4128 102.075 52.3446 102.211 52.2081C102.279 52.1399 102.347 52.0034 102.415 51.9352C102.55 51.7305 102.686 51.5258 102.754 51.3893C102.618 51.594 102.482 51.7987 102.415 51.9352C102.415 52.0034 102.347 52.0034 102.347 52.0716C102.211 52.2763 102.143 52.4128 102.143 52.4128C102.143 52.4128 102.211 52.3446 102.279 52.2081C102.415 51.9352 102.754 51.4576 102.957 50.9799C103.229 50.5705 103.432 50.1611 103.5 50.0246C103.568 49.9564 103.5 49.9564 103.432 50.1611C103.364 50.3658 103.229 50.5705 103.025 50.9799C103.161 50.8434 103.229 50.6387 103.296 50.434C103.432 50.2293 103.568 49.9564 103.703 49.6152C103.907 49.274 104.043 48.8646 104.246 48.3188C104.382 47.9776 104.45 47.6364 104.585 47.227C104.653 47.0223 104.653 46.8858 104.721 46.6811C104.721 46.6129 104.789 46.6129 104.789 46.5447C104.789 46.4764 104.789 46.4764 104.857 46.4082V46.2035V46.1352H104.925V45.9987V45.9305C104.925 45.8623 104.925 45.7258 104.925 45.6576V45.9305V45.9987C104.925 45.9987 104.925 45.9987 104.925 46.067V46.1352V46.2035H104.585V46.4082C104.585 46.4764 104.585 46.4764 104.585 46.4764C104.585 46.5447 104.585 46.5447 104.585 46.5447C104.518 46.6129 104.518 46.6129 104.518 46.6129C104.45 46.7494 104.45 46.954 104.382 47.0905V47.1587C104.246 47.5681 104.178 47.8411 104.043 48.1823C104.043 48.2505 104.043 48.2505 104.043 48.2505C103.975 48.3188 103.975 48.387 103.975 48.387C103.703 49.2058 103.296 50.0246 103.025 50.5705C103.229 50.1611 103.364 49.8882 103.5 49.6835C103.636 49.4787 103.703 49.274 103.839 49.0011C103.907 48.8646 103.975 48.7281 104.043 48.5235C104.178 48.3188 104.246 48.0458 104.314 47.7728C104.45 47.4317 104.518 47.0905 104.653 46.5447V46.4764L104.721 46.34V46.2717V46.2035C104.721 46.2035 104.721 46.1352 104.721 46.067H104.789V45.9305C104.789 45.794 104.789 45.6576 104.857 45.5893C104.857 45.3164 104.925 45.0435 104.925 44.7023C104.925 45.1117 104.857 45.4529 104.857 45.794V45.9305V46.2035L104.721 46.4764C104.653 46.6811 104.653 46.8858 104.585 47.0905C104.653 46.8176 104.721 46.6129 104.721 46.4082V46.2717L104.789 46.2035V46.1352V45.9987L104.857 45.794C104.857 45.5893 104.857 45.5893 104.857 45.5893C104.857 45.6576 104.857 45.794 104.857 45.9305L104.789 46.067V46.1352V46.2035L104.721 46.34C104.721 46.4764 104.653 46.5447 104.653 46.6129C104.585 46.8176 104.585 46.8858 104.585 46.954C104.585 47.0223 104.585 46.8858 104.653 46.6811C104.653 46.5447 104.721 46.4764 104.721 46.2717L104.789 46.1352V46.067V45.9987L104.857 45.8623V45.9305C104.857 45.794 104.857 45.6576 104.925 45.5211C104.925 45.2482 104.992 44.907 104.992 44.4976C104.992 44.0882 104.992 43.6788 104.925 43.1329C104.925 42.7917 104.857 42.5188 104.789 42.1776C104.992 43.1329 104.992 44.0199 104.992 44.6341C105.06 44.0882 104.992 43.747 104.992 43.5423C104.992 43.2694 104.925 43.2011 104.925 43.0647C104.925 42.9282 104.857 42.7917 104.857 42.4506C104.857 42.3141 104.789 42.2459 104.789 42.1094C104.789 42.2459 104.857 42.3823 104.857 42.5188C104.925 42.7235 104.925 42.9282 104.925 43.1329C104.992 43.3376 104.992 43.5423 104.992 43.8152C104.992 43.8835 104.992 43.8835 104.992 43.8152C104.992 43.747 104.992 43.6105 104.925 43.4058C104.925 43.0647 104.857 42.587 104.789 42.0411V41.9729C104.992 42.7235 104.992 43.4741 105.06 44.2246C105.06 44.5659 105.06 44.907 105.06 45.1799C104.992 45.3846 104.992 45.5211 104.992 45.6576V45.9305L104.925 46.067V46.1352C104.925 46.067 104.925 46.067 104.925 46.2717V46.34L104.857 46.4764V46.6129C104.789 46.6811 104.789 46.7494 104.789 46.8176C104.721 46.954 104.721 47.0905 104.653 47.227C104.585 47.4999 104.518 47.7046 104.45 47.9094C104.314 48.3188 104.178 48.6599 104.11 48.8646C104.043 49.1375 103.975 49.2058 103.975 49.2058C103.975 49.2058 104.043 49.0693 104.178 48.7964C104.246 48.6599 104.314 48.4552 104.382 48.2505C104.45 48.0458 104.518 47.7728 104.653 47.4999C104.721 47.1587 104.857 46.8176 104.925 46.4082L104.992 46.2717V46.2035C104.925 46.34 104.992 46.067 104.992 46.067V45.9987L105.06 45.9305C105.06 45.794 105.06 45.7258 105.06 45.5893C105.128 45.3846 105.128 45.1799 105.128 44.907C105.128 44.7023 105.128 44.7023 105.128 44.7023C105.128 44.7706 105.128 44.8388 105.128 45.0435C105.128 45.2482 105.128 45.4529 105.06 45.7258V45.9305V46.067L104.992 46.2035V46.2717V46.4082C104.925 46.6129 104.925 46.7494 104.857 46.8858C104.789 47.227 104.653 47.5681 104.585 47.8411C104.45 48.1823 104.382 48.387 104.314 48.6599C104.246 48.8646 104.178 49.0693 104.11 49.2058C104.043 49.3422 104.043 49.3422 104.043 49.3422C104.382 48.5917 104.518 48.0458 104.653 47.7046C104.789 47.3634 104.857 47.1587 104.857 47.1587C104.925 47.0223 104.789 47.4317 104.789 47.6364C104.721 47.7728 104.721 47.8411 104.721 47.8411C104.789 47.8411 104.789 47.7046 104.857 47.4317C104.925 47.2952 104.992 47.0905 104.992 46.8858C105.06 46.8176 105.06 46.7494 105.06 46.6811L105.196 46.4082V46.2717C105.196 46.2035 105.264 46.1352 105.264 46.1352V45.9305C105.264 45.8623 105.264 45.7258 105.332 45.6576C105.332 45.3164 105.399 44.907 105.399 44.4293C105.332 43.9517 105.332 43.4058 105.264 42.7917Z" fill="#E62987"/>
<path d="M151.605 54.6154V42.0916H154.326V53.1989C154.326 53.6881 154.387 54.0447 154.51 54.2689C154.639 54.4863 154.844 54.595 155.124 54.595C155.294 54.595 155.458 54.5814 155.615 54.5542C155.778 54.5271 155.976 54.4659 156.208 54.3708L156.505 56.5006C156.28 56.6093 155.935 56.718 155.471 56.8266C155.015 56.9421 154.544 56.9999 154.06 56.9999C153.262 56.9999 152.651 56.8165 152.229 56.4496C151.813 56.076 151.605 55.4646 151.605 54.6154Z" fill="#55565B"/>
<path d="M140.382 51.487C140.382 49.6527 140.822 48.277 141.702 47.3599C142.582 46.436 143.816 45.9741 145.405 45.9741C145.937 45.9741 146.452 46.0454 146.95 46.1881C147.455 46.3239 147.901 46.5515 148.29 46.8708C148.686 47.1901 149.003 47.6215 149.241 48.165C149.48 48.7084 149.6 49.3844 149.6 50.1928C149.6 50.4849 149.579 50.7974 149.538 51.1303C149.504 51.4632 149.453 51.8131 149.385 52.1799H143.104C143.145 53.0563 143.37 53.7186 143.779 54.167C144.195 54.6086 144.863 54.8294 145.784 54.8294C146.357 54.8294 146.868 54.741 147.318 54.5644C147.775 54.3878 148.123 54.2112 148.362 54.0345L149.262 55.8076C148.846 56.1405 148.276 56.4224 147.554 56.6534C146.837 56.8844 146.074 56.9999 145.262 56.9999C143.571 56.9999 142.333 56.5108 141.549 55.5325C140.771 54.5474 140.382 53.1989 140.382 51.487ZM143.165 50.4883H147.063C147.069 50.366 147.073 50.2506 147.073 50.1419C147.073 49.5576 146.953 49.0957 146.715 48.756C146.428 48.3484 145.978 48.1446 145.364 48.1446C144.655 48.1446 144.127 48.3586 143.779 48.7866C143.438 49.2078 143.233 49.775 143.165 50.4883Z" fill="#55565B"/>
<path d="M132.587 48.5624V46.2696H134.04V44.3029L136.761 43.5386V46.2696H139.319V48.5624H136.761V52.5671C136.761 53.2872 136.833 53.8069 136.976 54.1262C137.126 54.4387 137.402 54.595 137.805 54.595C138.084 54.595 138.326 54.5678 138.531 54.5135C138.735 54.4591 138.96 54.3742 139.206 54.2587L139.697 56.3477C139.322 56.5311 138.882 56.684 138.377 56.8063C137.873 56.9353 137.361 56.9999 136.843 56.9999C135.881 56.9999 135.172 56.7519 134.715 56.256C134.265 55.7601 134.04 54.9482 134.04 53.8205V48.5624H132.587Z" fill="#55565B"/>
<path d="M121.928 51.487C121.928 49.7207 122.361 48.362 123.227 47.4109C124.093 46.453 125.307 45.9741 126.869 45.9741C127.708 45.9741 128.434 46.1065 129.048 46.3715C129.662 46.6364 130.17 47.0101 130.572 47.4924C130.981 47.9679 131.285 48.5488 131.482 49.2349C131.687 49.9143 131.789 50.665 131.789 51.487C131.789 53.2533 131.36 54.6154 130.5 55.5732C129.641 56.5243 128.431 56.9999 126.869 56.9999C126.03 56.9999 125.304 56.8674 124.69 56.6025C124.076 56.3375 123.561 55.9673 123.145 55.4917C122.736 55.0094 122.429 54.4285 122.224 53.7492C122.027 53.0631 121.928 52.309 121.928 51.487ZM124.731 51.487C124.731 51.9489 124.772 52.3735 124.854 52.7607C124.942 53.148 125.068 53.4877 125.232 53.7798C125.403 54.0719 125.624 54.2995 125.897 54.4625C126.17 54.6188 126.494 54.6969 126.869 54.6969C127.578 54.6969 128.107 54.4421 128.454 53.9326C128.809 53.4163 128.986 52.6011 128.986 51.487C128.986 50.5291 128.826 49.7546 128.506 49.1636C128.185 48.5726 127.639 48.277 126.869 48.277C126.2 48.277 125.675 48.5284 125.293 49.0311C124.918 49.527 124.731 50.3457 124.731 51.487Z" fill="#55565B"/>
<path d="M111.013 56.7044V42.0916H113.734V47.4414H113.816C114.15 46.9931 114.562 46.6364 115.053 46.3715C115.544 46.1065 116.165 45.9741 116.915 45.9741C117.447 45.9741 117.914 46.0454 118.317 46.1881C118.726 46.3239 119.067 46.5515 119.34 46.8708C119.612 47.1901 119.814 47.6249 119.943 48.1751C120.08 48.7254 120.148 49.4048 120.148 50.2132V56.7044H117.416V50.7737C117.416 49.9245 117.297 49.3131 117.058 48.9394C116.827 48.5658 116.397 48.379 115.769 48.379C115.306 48.379 114.879 48.5352 114.491 48.8477C114.109 49.1602 113.856 49.561 113.734 50.0501V56.7044H111.013Z" fill="#55565B"/>
<path d="M93.0551 95.9392L94.184 99.4001H97.8372L94.8817 101.539L96.0106 105L93.0551 102.861L90.0996 105L91.2285 101.539L88.273 99.4001H91.9262L93.0551 95.9392Z" fill="#55565B"/>
<path d="M105.626 95.9392L106.754 99.4001H110.408L107.452 101.539L108.581 105L105.626 102.861L102.67 105L103.799 101.539L100.843 99.4001H104.497L105.626 95.9392Z" fill="#55565B"/>
<path d="M118.196 95.9392L119.325 99.4001H122.978L120.023 101.539L121.151 105L118.196 102.861L115.24 105L116.369 101.539L113.414 99.4001H117.067L118.196 95.9392Z" fill="#55565B"/>
<path d="M130.766 95.9392L131.895 99.4001H135.548L132.593 101.539L133.722 105L130.766 102.861L127.811 105L128.94 101.539L125.984 99.4001H129.637L130.766 95.9392Z" fill="#55565B"/>
</svg>
