<svg width="220" height="140" viewBox="0 0 220 140" fill="none" xmlns="http://www.w3.org/2000/svg">
<path fill-rule="evenodd" clip-rule="evenodd" d="M50.6046 44.9578L57.2264 30L65.9108 49.6151L67.9395 45.033L82.3207 77.5171L67.9395 110L59.2549 90.3855L57.2264 94.9669L54.0037 87.6899L47.3822 102.646L33 70.1627L47.3822 37.6791L50.6046 44.9578ZM51.3036 46.5366L61.7635 70.1627L54.4146 86.7619L54.7039 86.1093L57.2264 91.8082L70.2088 62.4836L57.2264 33.1588L51.3036 46.5366ZM59.9542 88.8059L67.9395 106.841L80.9219 77.5171L67.9395 48.1919L66.6101 51.1945L71.6082 62.4836L59.9542 88.8059ZM47.3822 99.4874L34.3998 70.1627L47.3822 40.838L60.3646 70.1627L47.3822 99.4874Z" fill="#0E528C"/>
<path fill-rule="evenodd" clip-rule="evenodd" d="M175.148 44.488C178.853 44.488 181.917 45.6912 184.346 48.1076C186.784 50.5181 188 53.5674 188 57.2562C188 60.9522 186.784 64.0019 184.363 66.4021C181.933 68.8034 178.869 70.0093 175.148 70.0093C171.45 70.0093 168.392 68.8034 165.98 66.4021C163.573 64.0019 162.365 60.9522 162.365 57.2562C162.365 53.5516 163.573 50.4947 165.994 48.0949C168.409 45.6912 171.465 44.488 175.148 44.488ZM175.148 67.1621C177.921 67.1621 180.221 66.2282 182.047 64.3619C183.865 62.4962 184.774 60.1236 184.774 57.2562C184.774 54.3787 183.865 52.0011 182.054 50.1333C180.244 48.2669 177.936 47.3328 175.148 47.3328C172.374 47.3328 170.074 48.2741 168.248 50.1493C166.429 52.0229 165.521 54.3949 165.521 57.2562C165.521 60.1236 166.429 62.4962 168.248 64.3619C170.074 66.2282 172.374 67.1621 175.148 67.1621Z" fill="#0E528C"/>
<path d="M102.195 69.3693H100.269L88.3572 45.0215H91.6969L101.233 64.5354L110.768 45.0215H114.168L102.195 69.3693Z" fill="#0E528C"/>
<path fill-rule="evenodd" clip-rule="evenodd" d="M126.21 45.0223H123.658L111.547 69.3686H114.841L118.103 62.8185H131.757L135.119 69.3686H138.449L126.21 45.0223ZM130.389 59.9737H119.517L124.934 49.1924L124.953 49.2301L130.389 59.9737Z" fill="#0E528C"/>
<path d="M142.21 45.0215V69.3693H161.41V66.568H145.272V45.0215H142.21Z" fill="#0E528C"/>
<path d="M164.366 84.5961V95.5435H166.058V84.5961H164.366Z" fill="#0E528C"/>
<path d="M164.373 82.4365C164.612 82.6599 164.896 82.7715 165.226 82.7715C165.556 82.7715 165.838 82.6599 166.072 82.4365C166.311 82.2132 166.43 81.9448 166.43 81.6312C166.43 81.3176 166.311 81.0491 166.072 80.8258C165.838 80.6025 165.556 80.4908 165.226 80.4908C164.896 80.4908 164.612 80.6025 164.373 80.8258C164.139 81.0491 164.022 81.3176 164.022 81.6312C164.022 81.9448 164.139 82.2132 164.373 82.4365Z" fill="#0E528C"/>
<path d="M173.944 84.5961V86.0215H171.593V92.4075C171.593 92.8826 171.662 93.239 171.801 93.4766C171.944 93.7094 172.126 93.8662 172.346 93.947C172.57 94.023 172.807 94.061 173.055 94.061C173.242 94.061 173.394 94.0515 173.514 94.0325L173.801 93.9755L174.145 95.4864C174.03 95.5292 173.87 95.572 173.664 95.6147C173.459 95.6622 173.199 95.686 172.883 95.686C172.405 95.686 171.937 95.5838 171.478 95.3795C171.024 95.1752 170.647 94.864 170.346 94.4459C170.049 94.0277 169.901 93.5003 169.901 92.8636V86.0215H168.238V84.5961H169.901V81.9733H171.593V84.5961H173.944Z" fill="#0E528C"/>
<path d="M177.578 99.6487C177.291 99.6487 177.036 99.625 176.811 99.5774C176.587 99.5347 176.431 99.4919 176.345 99.4492L176.775 97.9667C177.186 98.0712 177.549 98.1092 177.865 98.0807C178.18 98.0522 178.46 97.9121 178.703 97.6602C178.952 97.4131 179.179 97.0117 179.384 96.4557L179.7 95.6005L175.628 84.5961H177.463L180.503 93.3198H180.617L183.656 84.5961H185.491L180.818 97.1399C180.608 97.7054 180.347 98.1734 180.037 98.544C179.726 98.9194 179.365 99.1973 178.954 99.3779C178.548 99.5584 178.089 99.6487 177.578 99.6487Z" fill="#0E528C"/>
<path d="M161.723 85.5084H159.945C159.84 85 159.656 84.5533 159.393 84.1685C159.135 83.7836 158.82 83.4605 158.447 83.1992C158.079 82.9331 157.671 82.7335 157.222 82.6005C156.772 82.4674 156.304 82.4009 155.817 82.4009C154.928 82.4009 154.123 82.6242 153.401 83.0709C152.684 83.5175 152.113 84.1756 151.688 85.0451C151.267 85.9146 151.057 86.9813 151.057 88.2452C151.057 89.5091 151.267 90.5758 151.688 91.4453C152.113 92.3148 152.684 92.9729 153.401 93.4195C154.123 93.8662 154.928 94.0895 155.817 94.0895C156.304 94.0895 156.772 94.023 157.222 93.8899C157.671 93.7569 158.079 93.5597 158.447 93.2984C158.82 93.0323 159.135 92.7068 159.393 92.322C159.656 91.9323 159.84 91.4857 159.945 90.982H161.723C161.589 91.728 161.345 92.3956 160.992 92.9848C160.638 93.574 160.199 94.0752 159.673 94.4886C159.147 94.8972 158.557 95.2085 157.902 95.4223C157.253 95.6361 156.557 95.743 155.817 95.743C154.565 95.743 153.451 95.4389 152.476 94.8307C151.502 94.2225 150.735 93.3578 150.176 92.2364C149.616 91.1151 149.337 89.7847 149.337 88.2452C149.337 86.7057 149.616 85.3753 150.176 84.254C150.735 83.1326 151.502 82.2679 152.476 81.6597C153.451 81.0515 154.565 80.7474 155.817 80.7474C156.557 80.7474 157.253 80.8543 157.902 81.0681C158.557 81.2819 159.147 81.5955 159.673 82.0089C160.199 82.4175 160.638 82.9164 160.992 83.5056C161.345 84.0901 161.589 84.7576 161.723 85.5084Z" fill="#0E528C"/>
<path d="M140.906 95.5435V80.947H139.214V95.5435H140.906Z" fill="#0E528C"/>
<path fill-rule="evenodd" clip-rule="evenodd" d="M132.082 95.7715C131.021 95.7715 130.106 95.5387 129.337 95.0731C128.572 94.6027 127.982 93.947 127.567 93.106C127.156 92.2602 126.95 91.2766 126.95 90.1553C126.95 89.034 127.156 88.0456 127.567 87.1904C127.982 86.3304 128.56 85.6604 129.301 85.1805C130.047 84.6959 130.916 84.4535 131.91 84.4535C132.484 84.4535 133.05 84.5486 133.609 84.7386C134.168 84.9287 134.677 85.2375 135.136 85.6652C135.594 86.088 135.96 86.6487 136.232 87.3472C136.505 88.0456 136.641 88.9057 136.641 89.9272V90.6399H128.645C128.67 91.3683 128.812 91.9931 129.072 92.5144C129.363 93.0846 129.767 93.5193 130.283 93.8187C130.799 94.1133 131.399 94.2606 132.082 94.2606C132.527 94.2606 132.928 94.1988 133.286 94.0752C133.65 93.947 133.963 93.7569 134.225 93.5051C134.488 93.2485 134.691 92.9301 134.835 92.55L136.469 93.0062C136.297 93.5573 136.008 94.042 135.602 94.4601C135.195 94.8735 134.694 95.1966 134.096 95.4294C133.499 95.6575 132.828 95.7715 132.082 95.7715ZM128.65 89.186H134.921C134.921 88.5683 134.796 88.0171 134.548 87.5325C134.304 87.0478 133.955 86.6653 133.501 86.385C133.052 86.1047 132.522 85.9645 131.91 85.9645C131.236 85.9645 130.653 86.1308 130.161 86.4634C129.674 86.7913 129.299 87.2189 129.036 87.7463C128.811 88.1983 128.682 88.6782 128.65 89.186Z" fill="#0E528C"/>
<path d="M125.04 86.0215V84.5961H122.689V81.9733H120.997V84.5961H119.334V86.0215H120.997V92.8636C120.997 93.5003 121.145 94.0277 121.442 94.4459C121.743 94.864 122.12 95.1752 122.574 95.3795C123.033 95.5838 123.501 95.686 123.979 95.686C124.294 95.686 124.555 95.6622 124.76 95.6147C124.966 95.572 125.126 95.5292 125.241 95.4864L124.897 93.9755L124.61 94.0325C124.49 94.0515 124.337 94.061 124.151 94.061C123.903 94.061 123.666 94.023 123.441 93.947C123.222 93.8662 123.04 93.7094 122.897 93.4766C122.758 93.239 122.689 92.8826 122.689 92.4075V86.0215H125.04Z" fill="#0E528C"/>
<path fill-rule="evenodd" clip-rule="evenodd" d="M112.681 95.7715C111.687 95.7715 110.815 95.5363 110.065 95.0659C109.319 94.5955 108.736 93.9375 108.316 93.0917C107.9 92.2459 107.692 91.2576 107.692 90.1268C107.692 88.9864 107.9 87.991 108.316 87.1405C108.736 86.29 109.319 85.6295 110.065 85.1591C110.815 84.6887 111.687 84.4535 112.681 84.4535C113.675 84.4535 114.544 84.6887 115.29 85.1591C116.04 85.6295 116.623 86.29 117.039 87.1405C117.459 87.991 117.67 88.9864 117.67 90.1268C117.67 91.2576 117.459 92.2459 117.039 93.0917C116.623 93.9375 116.04 94.5955 115.29 95.0659C114.544 95.5363 113.675 95.7715 112.681 95.7715ZM112.681 94.2606C113.436 94.2606 114.057 94.0681 114.544 93.6833C115.032 93.2984 115.393 92.7924 115.627 92.1652C115.861 91.538 115.978 90.8585 115.978 90.1268C115.978 89.3951 115.861 88.7132 115.627 88.0813C115.393 87.4493 115.032 86.9386 114.544 86.5489C114.057 86.1593 113.436 85.9645 112.681 85.9645C111.926 85.9645 111.305 86.1593 110.817 86.5489C110.33 86.9386 109.969 87.4493 109.735 88.0813C109.501 88.7132 109.384 89.3951 109.384 90.1268C109.384 90.8585 109.501 91.538 109.735 92.1652C109.969 92.7924 110.33 93.2984 110.817 93.6833C111.305 94.0681 111.926 94.2606 112.681 94.2606Z" fill="#0E528C"/>
<path d="M93.4962 80.947V95.5435H95.2738V89.0149H103.101V95.5435H104.879V80.947H103.101V87.447H95.2738V80.947H93.4962Z" fill="#0E528C"/>
</svg>
