<svg width="220" height="140" viewBox="0 0 220 140" fill="none" xmlns="http://www.w3.org/2000/svg">
<path fill-rule="evenodd" clip-rule="evenodd" d="M178.466 61.3702C178.511 66.9187 182.149 71.8987 188.42 71.8456V71.8835C195.159 71.8305 198.714 66.7974 198.669 60.5137C198.623 54.9652 194.977 49.9474 188.707 50.0004C181.975 50.0004 178.413 55.0865 178.466 61.3702ZM183.844 60.5971C183.813 57.1407 185.303 54.6241 188.284 54.6241C191.687 54.5938 193.291 57.0649 193.291 61.2565C193.321 64.6675 191.876 67.184 188.851 67.184C185.402 67.2143 183.844 64.7433 183.844 60.5971Z" fill="#4A3942"/>
<path d="M174.487 71.4893C172.007 71.4893 170.569 70.2462 170.547 67.7979L170.509 62.6435L162.491 62.7042L162.567 71.5878H161.289C158.808 71.5878 157.363 70.3371 157.348 67.8888L157.212 50.7204H158.097C161.122 50.7204 162.408 51.9711 162.423 54.4118L162.461 58.7172L170.479 58.6035L170.411 50.5764H171.296C174.321 50.5764 175.607 51.8195 175.622 54.2678L175.773 71.4817H174.487V71.4893Z" fill="#4A3942"/>
<path d="M130.641 71.846C128.16 71.846 126.716 70.6029 126.701 68.1546L126.61 60.1654C126.61 56.5195 125.256 55.0186 122.117 55.0414C120.907 55.0565 119.712 55.2536 118.562 55.6175L118.713 71.9445H117.435C114.962 71.9445 113.517 70.7014 113.502 68.2531L113.366 52.0094C116.195 51.1832 119.122 50.7209 122.072 50.6223C127.366 50.5768 131.768 52.4415 131.829 60.317L131.927 71.8384H130.641V71.846Z" fill="#4A3942"/>
<path fill-rule="evenodd" clip-rule="evenodd" d="M101.544 72.4213H102.587L102.565 72.4517C107.209 72.3834 110.439 69.2984 110.401 64.8718V60.0661C110.34 52.8501 106.142 50.7126 101.498 50.7505C95.9843 50.7884 93.9345 53.6005 93.9345 55.9275V57.6178H94.1312C94.8951 56.64 96.9524 55.162 100.734 55.162C103.851 55.1165 105.273 56.0033 105.273 58.9519V59.2172H103.45C95.7876 59.2778 93.1328 62.1355 93.1328 65.8572C93.163 69.7002 96.5894 72.4668 101.544 72.4213ZM103.48 62.9389H105.341L105.356 62.9238V64.94C105.371 67.07 104.335 68.169 102.05 68.1842C99.7661 68.1994 98.4349 67.3201 98.4274 65.6146C98.4198 63.9091 99.5317 62.9389 103.48 62.9389Z" fill="#4A3942"/>
<path d="M86.5221 69.7231C86.8473 71.1708 88.1332 72.1865 89.6081 72.1789V72.1486H92.3915C91.8848 66.4865 88.2542 57.6332 85.3876 53.3505C84.3362 51.8118 83.4815 51.2812 81.9688 51.2812H80.9628C78.6634 54.4951 76.3867 59.5584 75.0177 63.409C73.7697 66.9109 73.2932 69.2 73.2932 69.8216C73.3083 71.5271 73.9663 72.2851 75.7514 72.2851H77.96C78.6937 67.1762 80.1913 62.2038 82.4074 57.5422C84.374 61.3776 85.7582 65.4783 86.5221 69.7231Z" fill="#4A3942"/>
<path d="M135.179 62.3098C135.232 68.8209 138.469 72.0575 145.518 71.9968C148.256 71.9589 150.972 71.5345 153.596 70.7462L153.46 54.4494C153.445 52.0087 152.159 50.7656 149.134 50.7656H148.249L148.377 67.176C147.341 67.4413 146.275 67.5778 145.208 67.5854C142.069 67.6081 140.368 66.1149 140.368 62.4689L140.299 54.5555C140.284 52.1072 138.998 50.8641 135.973 50.8641H135.088L135.179 62.3098Z" fill="#4A3942"/>
<path fill-rule="evenodd" clip-rule="evenodd" d="M62.8261 68.5942C63.3026 70.3528 61.4344 73.4302 60.4436 74.3625C54.5061 79.964 44.4463 81.336 37.3289 79.1682C36.7616 78.9483 36.6859 79.4031 37.3289 79.5699C48.5232 83.1703 58.1291 78.2661 61.4647 74.2033C61.9563 81.6165 49.0072 86.172 41.9503 85.6717C41.4738 85.7854 41.7839 85.9597 42.094 85.9597C50.4897 86.8617 57.524 82.3441 59.1653 80.4037C56.5936 85.649 49.8846 89.6739 43.3496 89.9846C28.2221 90.5456 19.9021 75.5829 24.3268 71.3381C25.4387 70.4286 26.8531 69.9889 28.2827 70.1026C31.6863 70.186 34.6967 72.1568 37.9491 73.7864C41.8217 75.8482 46.2843 76.4849 50.5805 75.598C55.3305 74.7112 59.6494 72.2477 62.8261 68.5942ZM40.4602 58.6646C40.8762 58.6418 41.2317 58.9678 41.2544 59.3847C41.2544 59.3998 41.2544 59.4074 41.2544 59.4226C41.2393 59.8622 40.8914 60.2109 40.4602 60.226C40.0442 60.2488 39.6812 59.9304 39.6585 59.5135C39.6585 59.4984 39.6585 59.4832 39.6585 59.468C39.6736 59.0284 40.0215 58.6797 40.4602 58.6646ZM29.9618 53.6164C29.2054 53.3208 28.4869 52.9115 27.844 52.4112C27.7835 52.3657 27.844 52.2747 27.9045 52.2975C29.2886 52.5249 30.703 52.487 32.0796 52.1914C35.5968 50.1372 39.7114 49.4095 42.7445 51.6532C45.7775 53.8968 45.9137 58.0734 43.1907 61.3782C42.51 62.1968 44.0001 63.5915 43.7353 63.9402C43.6521 64.0387 43.2815 63.9402 42.8201 63.8113C41.852 63.4323 40.8309 63.1973 39.7946 63.114C37.4574 63.0761 36.0128 64.6299 36.2094 66.8357C36.6254 70.7014 42.3285 70.8682 44.227 75.0674C38.3575 74.3094 34.5984 70.1102 29.2584 69.0035C27.6473 68.5866 25.9379 68.8444 24.5159 69.716C22.9654 70.7393 22.5947 72.8844 22.6099 74.8476C21.9745 72.2705 21.8535 70.6105 22.1636 66.8357C22.4737 63.0609 25.1437 56.9818 29.9618 53.6164ZM48.0088 67.7225C47.3962 69.5872 44.3329 72.2098 46.2087 75.2115C50.1267 75.3327 53.9993 74.3322 57.3727 72.3311C56.9945 71.4443 56.3819 70.6787 55.5952 70.1254C54.7708 69.4204 53.6665 69.14 52.6076 69.3674C51.8134 69.6857 51.3974 70.5574 51.6394 71.376C51.6394 71.4518 51.6394 71.5352 51.6923 71.6186C51.8209 72.1568 51.5108 71.7778 51.473 71.6186C51.4352 71.4594 51.4125 71.4594 51.3822 71.376C51.0116 70.2694 51.2839 69.2992 52.1916 68.9429C53.3034 68.6776 54.4758 68.9581 55.3532 69.7009C55.1565 69.2916 54.9977 68.8595 54.8994 68.4123C54.7557 67.5103 54.6951 66.6007 54.7178 65.6911C54.6346 63.5688 53.5303 61.8254 51.0948 61.9997C49.8695 62.1058 48.803 62.8714 48.3038 63.9932C47.9634 64.539 46.9499 64.5162 46.8743 64.7512C46.7986 64.9862 47.4113 65.3197 47.7517 65.7214C48.1752 66.3278 48.266 67.1086 47.9786 67.7908L48.0088 67.7225ZM50.5729 63.9326C50.8452 63.9174 51.0873 64.1221 51.1024 64.4025C51.1024 64.4025 51.1024 64.4101 51.1024 64.4177C51.0948 64.6982 50.8679 64.9256 50.5805 64.9331C50.3158 64.9559 50.0813 64.7512 50.0586 64.4859C50.0586 64.4783 50.0586 64.4632 50.0586 64.4556C50.0586 64.1676 50.2931 63.9402 50.5729 63.9326Z" fill="#E14312"/>
<path d="M195.022 80.1812H196.754C197.231 80.1812 197.636 80.2583 197.971 80.4125C198.306 80.5667 198.561 80.7844 198.736 81.0656C198.914 81.3469 199.002 81.6781 199 82.0594C199.002 82.4406 198.914 82.7771 198.736 83.0687C198.561 83.3604 198.306 83.5885 197.971 83.7531C197.636 83.9177 197.231 84 196.754 84H194.348V77.6H195.32V83.1875H196.754C197.032 83.1875 197.266 83.1333 197.457 83.025C197.649 82.9167 197.794 82.776 197.893 82.6031C197.993 82.4302 198.043 82.2448 198.043 82.0469C198.043 81.7594 197.932 81.5125 197.711 81.3062C197.489 81.0979 197.17 80.9937 196.754 80.9937H195.022V80.1812Z" fill="#4A3942"/>
<path d="M187.506 84V83.1625L187.695 83.1562C187.95 83.15 188.151 83.0635 188.297 82.8969C188.445 82.7302 188.553 82.4615 188.62 82.0906C188.689 81.7198 188.735 81.225 188.758 80.6062L188.868 77.6H192.93V84H191.973V78.4187H189.781L189.68 80.8625C189.653 81.5479 189.584 82.124 189.473 82.5906C189.362 83.0552 189.174 83.4062 188.909 83.6437C188.645 83.8812 188.27 84 187.783 84H187.506Z" fill="#4A3942"/>
<path d="M182.35 84H181.321L183.633 77.6H184.753L187.065 84H186.036L184.22 78.7625H184.17L182.35 84ZM182.523 81.4937H185.86V82.3062H182.523V81.4937Z" fill="#4A3942"/>
<path d="M176.496 78.4312V77.6H181.468V78.4312H179.463V84H178.497V78.4312H176.496Z" fill="#4A3942"/>
<path d="M170.214 77.6H171.173V82.3H171.233L174.502 77.6H175.399V84H174.43V79.3062H174.37L171.108 84H170.214V77.6Z" fill="#4A3942"/>
<path d="M168.731 77.6V84H167.765V78.425H164.741V84H163.775V77.6H168.731Z" fill="#4A3942"/>
<path d="M162.549 79.6812H161.571C161.533 79.4729 161.463 79.2896 161.361 79.1312C161.258 78.9729 161.133 78.8385 160.984 78.7281C160.836 78.6177 160.669 78.5344 160.485 78.4781C160.303 78.4219 160.11 78.3937 159.905 78.3937C159.535 78.3937 159.203 78.4865 158.911 78.6719C158.62 78.8573 158.39 79.1292 158.221 79.4875C158.053 79.8458 157.97 80.2833 157.97 80.8C157.97 81.3208 158.053 81.7604 158.221 82.1187C158.39 82.4771 158.621 82.7479 158.914 82.9312C159.207 83.1146 159.536 83.2062 159.902 83.2062C160.105 83.2062 160.297 83.1792 160.479 83.125C160.663 83.0687 160.829 82.9865 160.978 82.8781C161.126 82.7698 161.252 82.6375 161.354 82.4812C161.459 82.3229 161.531 82.1417 161.571 81.9375L162.549 81.9406C162.497 82.2552 162.396 82.5448 162.245 82.8094C162.097 83.0719 161.905 83.299 161.671 83.4906C161.439 83.6802 161.173 83.8271 160.874 83.9312C160.575 84.0354 160.249 84.0875 159.896 84.0875C159.339 84.0875 158.844 83.9562 158.409 83.6937C157.974 83.4292 157.631 83.051 157.38 82.5594C157.131 82.0677 157.007 81.4812 157.007 80.8C157.007 80.1167 157.132 79.5302 157.383 79.0406C157.634 78.549 157.977 78.1719 158.412 77.9094C158.847 77.6448 159.341 77.5125 159.896 77.5125C160.236 77.5125 160.554 77.5615 160.849 77.6594C161.146 77.7552 161.413 77.8969 161.649 78.0844C161.885 78.2698 162.081 78.4969 162.236 78.7656C162.39 79.0323 162.495 79.3375 162.549 79.6812Z" fill="#4A3942"/>
<path d="M156.005 80.8C156.005 81.4833 155.88 82.0708 155.629 82.5625C155.378 83.0521 155.034 83.4292 154.597 83.6937C154.162 83.9562 153.667 84.0875 153.113 84.0875C152.557 84.0875 152.06 83.9562 151.623 83.6937C151.188 83.4292 150.845 83.051 150.594 82.5594C150.343 82.0677 150.218 81.4812 150.218 80.8C150.218 80.1167 150.343 79.5302 150.594 79.0406C150.845 78.549 151.188 78.1719 151.623 77.9094C152.06 77.6448 152.557 77.5125 153.113 77.5125C153.667 77.5125 154.162 77.6448 154.597 77.9094C155.034 78.1719 155.378 78.549 155.629 79.0406C155.88 79.5302 156.005 80.1167 156.005 80.8ZM155.045 80.8C155.045 80.2792 154.961 79.8406 154.791 79.4844C154.624 79.126 154.394 78.8552 154.101 78.6719C153.81 78.4865 153.481 78.3937 153.113 78.3937C152.743 78.3937 152.412 78.4865 152.122 78.6719C151.831 78.8552 151.601 79.126 151.432 79.4844C151.264 79.8406 151.181 80.2792 151.181 80.8C151.181 81.3208 151.264 81.7604 151.432 82.1187C151.601 82.475 151.831 82.7458 152.122 82.9312C152.412 83.1146 152.743 83.2062 153.113 83.2062C153.481 83.2062 153.81 83.1146 154.101 82.9312C154.394 82.7458 154.624 82.475 154.791 82.1187C154.961 81.7604 155.045 81.3208 155.045 80.8Z" fill="#4A3942"/>
<path d="M149.608 77.6V78.4312H146.572V84H145.602V77.6H149.608Z" fill="#4A3942"/>
<path d="M136.665 77.6H137.625V82.3H137.685L140.954 77.6H141.851V84H140.881V79.3062H140.822L137.559 84H136.665V77.6ZM139.874 75.975H140.646C140.646 76.3271 140.521 76.6135 140.27 76.8344C140.021 77.0531 139.684 77.1625 139.26 77.1625C138.837 77.1625 138.502 77.0531 138.253 76.8344C138.004 76.6135 137.879 76.3271 137.879 75.975H138.648C138.648 76.1312 138.694 76.2698 138.786 76.3906C138.878 76.5094 139.036 76.5687 139.26 76.5687C139.479 76.5687 139.636 76.5094 139.73 76.3906C139.826 76.2719 139.874 76.1333 139.874 75.975Z" fill="#4A3942"/>
<path d="M130.066 77.6H131.026V82.3H131.086L134.354 77.6H135.252V84H134.282V79.3062H134.223L130.96 84H130.066V77.6Z" fill="#4A3942"/>
<path d="M127.986 84L125.828 81.1312H125.144V84H124.174V77.6H125.144V80.3031H125.461L127.888 77.6H129.071L126.502 80.4656L129.168 84H127.986Z" fill="#4A3942"/>
<path d="M123.015 79.6812H122.036C121.998 79.4729 121.928 79.2896 121.826 79.1312C121.723 78.9729 121.598 78.8385 121.449 78.7281C121.301 78.6177 121.135 78.5344 120.95 78.4781C120.769 78.4219 120.575 78.3937 120.37 78.3937C120 78.3937 119.669 78.4865 119.376 78.6719C119.085 78.8573 118.855 79.1292 118.686 79.4875C118.518 79.8458 118.435 80.2833 118.435 80.8C118.435 81.3208 118.518 81.7604 118.686 82.1187C118.855 82.4771 119.086 82.7479 119.379 82.9312C119.672 83.1146 120.001 83.2062 120.367 83.2062C120.57 83.2062 120.762 83.1792 120.944 83.125C121.128 83.0687 121.294 82.9865 121.443 82.8781C121.591 82.7698 121.717 82.6375 121.819 82.4812C121.924 82.3229 121.996 82.1417 122.036 81.9375L123.015 81.9406C122.962 82.2552 122.861 82.5448 122.71 82.8094C122.562 83.0719 122.37 83.299 122.136 83.4906C121.904 83.6802 121.639 83.8271 121.339 83.9312C121.04 84.0354 120.714 84.0875 120.361 84.0875C119.804 84.0875 119.309 83.9562 118.874 83.6937C118.439 83.4292 118.096 83.051 117.845 82.5594C117.596 82.0677 117.472 81.4812 117.472 80.8C117.472 80.1167 117.597 79.5302 117.848 79.0406C118.099 78.549 118.442 78.1719 118.877 77.9094C119.312 77.6448 119.807 77.5125 120.361 77.5125C120.702 77.5125 121.019 77.5615 121.314 77.6594C121.611 77.7552 121.878 77.8969 122.114 78.0844C122.351 78.2698 122.546 78.4969 122.701 78.7656C122.856 79.0323 122.96 79.3375 123.015 79.6812Z" fill="#4A3942"/>
<path d="M112.356 84V77.6H116.384V78.4312H113.326V80.3812H116.174V81.2094H113.326V83.1687H116.422V84H112.356Z" fill="#4A3942"/>
<path d="M106.024 77.6H106.98V79.7125C106.98 80.0062 107.032 80.2385 107.134 80.4094C107.237 80.5781 107.385 80.6979 107.58 80.7687C107.776 80.8396 108.015 80.875 108.295 80.875C108.443 80.875 108.594 80.8698 108.746 80.8594C108.901 80.8469 109.055 80.8302 109.208 80.8094C109.36 80.7865 109.508 80.7604 109.65 80.7312C109.794 80.7 109.928 80.6656 110.051 80.6281V81.45C109.93 81.4896 109.802 81.525 109.666 81.5562C109.532 81.5854 109.392 81.6115 109.245 81.6344C109.099 81.6552 108.946 81.6719 108.787 81.6844C108.628 81.6969 108.464 81.7031 108.295 81.7031C107.826 81.7031 107.422 81.6365 107.081 81.5031C106.742 81.3677 106.481 81.1542 106.297 80.8625C106.115 80.5708 106.024 80.1875 106.024 79.7125V77.6ZM109.907 77.6H110.867V84H109.907V77.6Z" fill="#4A3942"/>
<path d="M99.2958 77.6H100.256V82.3H100.315L103.584 77.6H104.481V84H103.512V79.3062H103.452L100.19 84H99.2958V77.6Z" fill="#4A3942"/>
<path d="M92.7398 84V77.6H93.7091V80.3812H96.9118V77.6H97.8842V84H96.9118V81.2094H93.7091V84H92.7398Z" fill="#4A3942"/>
<path d="M86.1405 77.6H87.1004V82.3H87.16L90.4287 77.6H91.3258V84H90.3565V79.3062H90.2969L87.0346 84H86.1405V77.6Z" fill="#4A3942"/>
<path d="M79.3053 84V83.1625L79.4935 83.1562C79.7486 83.15 79.9494 83.0635 80.0958 82.8969C80.2443 82.7302 80.352 82.4615 80.4189 82.0906C80.4879 81.7198 80.5339 81.225 80.5569 80.6062L80.6667 77.6H84.729V84H83.7722V78.4187H81.5795L81.4791 80.8625C81.452 81.5479 81.3829 82.124 81.2721 82.5906C81.1613 83.0552 80.9731 83.4062 80.7075 83.6437C80.444 83.8812 80.0686 84 79.5813 84H79.3053Z" fill="#4A3942"/>
<path d="M77.711 84L75.5528 81.1312H74.869V84H73.8997V77.6H74.869V80.3031H75.1858L77.6137 77.6H78.7963L76.2272 80.4656L78.8936 84H77.711Z" fill="#4A3942"/>
</svg>
