<svg width="220" height="140" viewBox="0 0 220 140" fill="none" xmlns="http://www.w3.org/2000/svg">
<path d="M165 61.2241L158.572 71.2685V78.8017H156.395V71.2685L150.044 61.2241H152.554L157.573 69.2596L162.618 61.2241H165Z" fill="#0AA8E5"/>
<path d="M139.273 78.8012H137.096V61.2237C138.095 61.2237 141.398 61.1734 141.911 61.1734C146.802 61.1734 148.287 63.559 148.287 66.3965C148.287 69.1336 146.367 70.8662 144.395 71.3684L150.362 78.8012H147.698L142.192 71.7702H139.273V78.8012ZM141.783 63.1823C141.219 63.1823 140.118 63.2074 139.273 63.2325V69.7613H141.911C143.985 69.7613 145.983 68.5058 145.983 66.4216C145.983 64.6136 144.958 63.1823 141.783 63.1823Z" fill="#0AA8E5"/>
<path d="M119.432 63.233V61.2241H134.158V63.233H127.883V78.8017H125.707V63.233H119.432Z" fill="#0AA8E5"/>
<path d="M116.489 78.8017H114.748L103.556 64.9908V78.8017H101.507V61.2241H103.249L114.44 75.0853V61.2241H116.489V78.8017Z" fill="#0AA8E5"/>
<path d="M96.386 61.2241V71.4693C96.386 76.8431 91.8326 79.0522 88.1704 79.0522C83.8679 79.0522 79.458 76.4413 79.458 71.2936V65.9076L81.6348 65.4093V70.8918C81.6348 74.7086 84.8155 77.0433 88.1704 77.0433C91.1155 77.0433 94.2092 75.0351 94.2092 71.0425V61.2241H96.386Z" fill="#0AA8E5"/>
<path d="M71.1061 70.0123C71.1061 64.9148 74.922 60.9724 80.2488 60.9724C85.4476 60.9724 89.3915 64.6637 89.3915 70.0123C89.3915 75.2353 85.4476 79.0522 80.2488 79.0522C75.05 79.0522 71.1061 75.3609 71.1061 70.0123ZM73.411 70.0123C73.411 74.0049 76.4074 77.0433 80.2488 77.0433C84.3464 77.0433 87.0866 73.9798 87.0866 70.0123C87.0866 65.9192 84.0903 62.9812 80.2488 62.9812C76.3561 62.9812 73.411 65.9192 73.411 70.0123Z" fill="#0AA8E5"/>
<path d="M68.8805 75.4864L69.7512 77.0935C68.5476 78.2988 66.3195 79.0522 64.0915 79.0522C58.7134 79.0522 55 75.4864 55 70.0123C55 64.965 58.3293 60.9724 63.9378 60.9724C66.2427 60.9724 68.1122 61.6001 69.3927 62.6799L68.3939 64.287C67.2159 63.4332 65.8329 62.9812 63.9634 62.9812C60.0707 62.9812 57.3049 65.8439 57.3049 70.0123C57.3049 74.2058 60.1476 77.0433 64.2963 77.0433C66.0122 77.0433 67.6512 76.4657 68.8805 75.4864Z" fill="#0AA8E5"/>
<path d="M131.614 104.725V87.1972C132.613 87.1721 134.866 87.0968 136.531 87.0968C140.808 87.0968 142.293 89.0052 142.293 91.4409C142.293 93.6507 140.936 94.9565 139.22 95.5089V95.5591C141.448 95.9107 142.933 97.3169 142.933 99.7275C142.933 103.293 140.142 104.825 136.428 104.825C134.841 104.825 132.664 104.775 131.614 104.725ZM136.685 96.7393H133.791V102.716C134.38 102.766 135.532 102.816 136.557 102.816C139.194 102.816 140.757 101.761 140.757 99.602C140.757 97.7438 139.271 96.7393 136.685 96.7393ZM136.48 89.1056C135.532 89.1056 134.431 89.1559 133.791 89.181V94.856H136.659C138.554 94.856 140.116 93.8265 140.116 91.9181C140.116 90.085 138.861 89.1056 136.48 89.1056Z" fill="#0AA8E5"/>
<path d="M126.492 87.172V97.4172C126.492 102.791 123.214 104.976 119.552 104.976C115.25 104.976 112.125 102.389 112.125 97.2414V87.172H114.302V96.8396C114.302 100.656 116.197 102.967 119.552 102.967C122.497 102.967 124.316 100.983 124.316 96.9903V87.172H126.492Z" fill="#0AA8E5"/>
<path d="M98.3012 104.75V87.172H100.478V102.741H109.313V104.75H98.3012Z" fill="#0AA8E5"/>
<path d="M93.9667 101.434L94.8374 103.041C93.6338 104.247 91.4057 105 89.1777 105C83.7996 105 80.0862 101.434 80.0862 95.9601C80.0862 90.9128 83.4155 86.9202 89.024 86.9202C91.3289 86.9202 93.1984 87.548 94.4789 88.6277L93.4801 90.2348C92.3021 89.3811 90.9191 88.9291 89.0496 88.9291C85.1569 88.9291 82.3911 91.7917 82.3911 95.9601C82.3911 100.154 85.2338 102.991 89.3826 102.991C91.0984 102.991 92.7374 102.414 93.9667 101.434Z" fill="#0AA8E5"/>
<path d="M129.504 44.065C129.504 38.9675 133.32 35 138.826 35C144.152 35 148.173 38.5908 148.173 44.065C148.173 49.3383 144.152 53.13 138.826 53.13C133.499 53.13 129.504 49.5392 129.504 44.065ZM132.833 44.065C132.833 47.5805 135.471 50.2423 138.826 50.2423C142.59 50.2423 144.844 47.5303 144.844 44.065C144.844 40.4239 142.206 37.8877 138.826 37.8877C135.394 37.8877 132.833 40.4239 132.833 44.065Z" fill="#0AA8E5"/>
<path d="M122.748 52.8539V45.3457H114.553V52.8539H111.403V35.2763H114.553V42.458H122.748V35.2763H125.873V52.8539H122.748Z" fill="#0AA8E5"/>
<path d="M89.0883 44.065C89.0883 38.9675 92.9041 35 98.4102 35C103.737 35 107.758 38.5908 107.758 44.065C107.758 49.3383 103.737 53.13 98.4102 53.13C93.0834 53.13 89.0883 49.5392 89.0883 44.065ZM92.4176 44.065C92.4176 47.5805 95.0554 50.2423 98.4102 50.2423C102.175 50.2423 104.429 47.5303 104.429 44.065C104.429 40.4239 101.791 37.8877 98.4102 37.8877C94.9785 37.8877 92.4176 40.4239 92.4176 44.065Z" fill="#0AA8E5"/>
<path d="M83.4609 48.1832C83.4609 44.7179 75.3427 45.5717 75.3427 39.8464C75.3427 37.2098 77.4427 35 80.9256 35C83.128 35 84.9719 35.7282 86.0475 36.8833L84.3573 39.1935C83.4866 38.3648 82.6158 37.8877 81.1817 37.8877C79.6195 37.8877 78.6719 38.6662 78.6719 39.8213C78.6719 43.4623 86.7902 42.3072 86.7902 48.1581C86.7902 51.1211 84.1524 53.13 80.7975 53.13C78.4927 53.13 75.8036 52.1507 74.9329 50.3678L76.7256 48.2585C77.7756 49.5894 79.4658 50.2423 80.8488 50.2423C82.3341 50.2423 83.4609 49.5141 83.4609 48.1832Z" fill="#0AA8E5"/>
</svg>
