<svg width="220" height="140" viewBox="0 0 220 140" fill="none" xmlns="http://www.w3.org/2000/svg">
<path d="M115.555 45C110.999 45 107.622 48.4631 107.124 52.9157H109.098C109.547 49.3967 112.154 46.8273 115.531 46.8273C117.81 46.8273 119.398 47.8248 120.81 49.2292L122.109 47.7769C120.433 46.1251 118.604 45 115.555 45Z" fill="#928B7D"/>
<path d="M102.953 55.6445L97.7869 62.7942H100.113L104.991 55.9956H112.282V58.7167C112.852 59.1236 113.494 59.4109 114.176 59.5545V48.3592C113.486 48.5108 112.844 48.7901 112.282 49.1891V54.2162H104.622C102.103 54.2162 100.298 52.8676 100.298 50.5935C100.298 48.423 101.878 47.1224 104.597 47.1224H107.943C107.969 47.096 107.99 47.0696 108.015 47.0387L108.031 47.0186C108.665 46.3324 109.387 45.7499 110.165 45.295H104.445C100.747 45.295 98.3725 47.3697 98.3725 50.5137C98.3885 53.4422 100.314 55.1418 102.953 55.6445Z" fill="#928B7D"/>
<path d="M115.531 61.2622C117.833 61.2622 119.342 60.3445 120.954 58.7406L122.205 60.0094C120.449 61.8526 118.531 63.0815 115.483 63.0815C111.769 63.0815 108.801 60.7515 107.614 57.4H109.747C110.814 59.7221 112.956 61.2622 115.531 61.2622Z" fill="#928B7D"/>
<path fill-rule="evenodd" clip-rule="evenodd" d="M33.3965 70.5665L28.9524 81.1712H30.9739L31.9927 78.6816H36.5169L37.5196 81.1712H39.5973L35.1532 70.5665H33.3965ZM34.2548 73.1359L35.795 76.8543H32.7226L34.2548 73.1359Z" fill="#928B7D"/>
<path fill-rule="evenodd" clip-rule="evenodd" d="M40.6641 70.6467H44.4664C47.5789 70.6467 49.833 72.849 49.833 75.8971C49.833 78.9613 47.5789 81.1795 44.4664 81.1795H40.6641V70.6467ZM44.4664 79.2964C46.4558 79.2964 47.7874 77.9399 47.7874 75.9211C47.7874 73.9183 46.4237 72.5139 44.4664 72.5059H42.6294V79.2964H44.4664Z" fill="#928B7D"/>
<path fill-rule="evenodd" clip-rule="evenodd" d="M77.5801 70.4631C74.5639 70.4631 72.2858 72.809 72.2858 75.921C72.2858 79.017 74.5479 81.347 77.556 81.347C80.5722 81.347 82.8504 79.0011 82.8504 75.8891C82.8504 72.8011 80.5802 70.4631 77.5801 70.4631ZM80.8048 75.921C80.8048 77.9398 79.4171 79.4639 77.5801 79.4639C75.7271 79.4639 74.3313 77.9318 74.3313 75.8971C74.3313 73.8783 75.7191 72.3542 77.556 72.3542C79.4091 72.3542 80.8048 73.8863 80.8048 75.921Z" fill="#928B7D"/>
<path fill-rule="evenodd" clip-rule="evenodd" d="M24.5162 70.6371C26.8506 70.6371 28.3025 71.9377 28.3025 74.0203C28.3025 75.6083 27.4923 76.7413 26.0083 77.2201L28.7116 81.1699H26.3933L23.9627 77.5792H21.9573V81.1699H20V70.6371H24.5162ZM24.3879 75.7519C25.5751 75.7519 26.3131 75.1295 26.3131 74.1241C26.3131 73.0867 25.6232 72.5122 24.3719 72.5122H21.9573V75.7519H24.3879Z" fill="#928B7D"/>
<path d="M53.4187 70.6451H51.4614V81.1779H53.4187V70.6451Z" fill="#928B7D"/>
<path d="M57.1807 73.454C57.1807 74.1641 57.5256 74.4993 59.4428 74.978C61.7531 75.5605 62.6996 76.4702 62.7077 78.1139C62.7077 80.0609 61.2798 81.3217 59.0658 81.3217C57.4935 81.3217 56.0416 80.7472 54.8624 79.646L54.7902 79.5742L55.9774 78.106L56.0657 78.1858C57.0844 79.1034 57.9989 79.4944 59.1139 79.4944C60.1247 79.4944 60.7504 79.0396 60.7504 78.2975C60.7504 77.6272 60.4375 77.2522 58.6005 76.8133C56.4587 76.2787 55.2234 75.5765 55.2234 73.6136C55.2234 71.7863 56.6593 70.5016 58.7128 70.5016C60.1086 70.5016 61.3119 70.9325 62.3707 71.8262L62.451 71.89L61.3921 73.438L61.2958 73.3662C60.3974 72.664 59.5471 72.3289 58.6807 72.3289C57.7823 72.3289 57.1807 72.7837 57.1807 73.454Z" fill="#928B7D"/>
<path d="M67.9861 74.9781C66.069 74.4994 65.724 74.1642 65.724 73.4541C65.724 72.7838 66.3256 72.329 67.2241 72.329C68.0904 72.329 68.9407 72.6641 69.8392 73.3663L69.9354 73.4381L70.9943 71.8901L70.9141 71.8263C69.8552 70.9326 68.652 70.5017 67.2562 70.5017C65.2026 70.5017 63.7667 71.7864 63.7667 73.6136C63.7667 75.5766 65.0021 76.2788 67.1439 76.8134C68.9808 77.2523 69.2937 77.6273 69.2937 78.2976C69.2937 79.0397 68.668 79.4945 67.6573 79.4945C66.5422 79.4945 65.6278 79.1035 64.609 78.1859L64.5208 78.1061L63.3335 79.5743L63.4057 79.6461C64.5849 80.7473 66.0369 81.3218 67.6091 81.3218C69.8231 81.3218 71.251 80.061 71.251 78.114C71.251 76.4703 70.3044 75.5606 67.9861 74.9781Z" fill="#928B7D"/>
<path d="M91.2893 77.5473V70.6451H93.2145V81.17H91.5942L91.5621 81.13L86.3078 74.0683V81.17H84.3746V70.6451H86.1554L86.1875 70.685L91.2893 77.5473Z" fill="#928B7D"/>
<path d="M190.775 81.1715H192.604V73.6788L198.444 81.1715H200V70.6466H198.171V77.9239L192.5 70.6466H190.775V81.1715Z" fill="#928B7D"/>
<path fill-rule="evenodd" clip-rule="evenodd" d="M182.978 81.355C186.227 81.355 188.529 78.8734 188.529 75.9131V75.8811C188.529 72.9208 186.259 70.4711 183.01 70.4711C179.761 70.4711 177.459 72.9527 177.459 75.9131V75.945C177.459 78.8974 179.721 81.355 182.978 81.355ZM183.002 79.6394C180.9 79.6394 179.4 77.9558 179.4 75.9131V75.8811C179.4 73.8384 180.868 72.1787 182.97 72.1787C185.072 72.1787 186.572 73.8623 186.572 75.9051V75.937C186.572 77.9797 185.104 79.6394 183.002 79.6394Z" fill="#928B7D"/>
<path d="M173.239 81.1715H175.1V70.6466H173.239V81.1715Z" fill="#928B7D"/>
<path d="M165.964 81.1715H167.825V72.3622H171.194V70.6466H162.595V72.3622H165.964V81.1715Z" fill="#928B7D"/>
<path d="M157.124 81.355C159.105 81.355 160.316 80.6369 161.415 79.4878L160.22 78.2829C159.314 79.1208 158.479 79.6394 157.18 79.6394C155.15 79.6394 153.69 77.9717 153.69 75.9131V75.8811C153.69 73.8224 155.174 72.1787 157.164 72.1787C158.391 72.1787 159.282 72.6894 160.14 73.4713L161.335 72.0989C160.324 71.1334 159.145 70.4631 157.18 70.4631C153.987 70.4631 151.733 72.9128 151.733 75.9051V75.937C151.741 78.9612 154.019 81.355 157.124 81.355Z" fill="#928B7D"/>
<path d="M142.083 81.1715H150.008V79.5198H143.944V76.711H149.254V75.0433H143.944V72.3063H149.928V70.6546H142.083V81.1715Z" fill="#928B7D"/>
<path d="M140.158 81.1715V79.4878H134.591V70.6466H132.73V81.1715H140.158Z" fill="#928B7D"/>
<path d="M130.812 81.1715V79.4878H125.245V70.6466H123.384V81.1715H130.812Z" fill="#928B7D"/>
<path fill-rule="evenodd" clip-rule="evenodd" d="M115.595 81.355C118.844 81.355 121.146 78.8734 121.146 75.9131V75.8811C121.146 72.9208 118.876 70.4711 115.627 70.4711C112.378 70.4711 110.076 72.9527 110.076 75.9131V75.945C110.076 78.8974 112.338 81.355 115.595 81.355ZM115.619 79.6394C113.518 79.6394 112.017 77.9558 112.017 75.9131V75.8811C112.017 73.8384 113.485 72.1787 115.587 72.1787C117.689 72.1787 119.189 73.8623 119.189 75.9051V75.937C119.189 77.9797 117.721 79.6394 115.619 79.6394Z" fill="#928B7D"/>
<path d="M104.581 81.355C106.563 81.355 107.774 80.6369 108.873 79.4878L107.678 78.2829C106.771 79.1208 105.937 79.6394 104.637 79.6394C102.608 79.6394 101.148 77.9398 101.148 75.8811C101.148 73.8224 102.632 72.1787 104.621 72.1787C105.849 72.1787 106.739 72.6894 107.597 73.4713L108.793 72.0989C107.782 71.1334 106.603 70.4631 104.637 70.4631C101.445 70.4631 99.1987 72.9128 99.1987 75.9051V75.937C99.2067 78.9612 101.485 81.355 104.581 81.355Z" fill="#928B7D"/>
<path d="M72.6228 89.0864H71.5959V94.8959H72.6228V92.446H75.4146V94.8959H76.4415V89.0864H75.4146V91.5044H72.6228V89.0864Z" fill="#928B7D"/>
<path fill-rule="evenodd" clip-rule="evenodd" d="M78.0934 92.0074V91.9915C78.0934 90.3555 79.361 88.983 81.158 88.983C82.9551 88.983 84.2066 90.3396 84.2066 91.9755V91.9915C84.2066 93.6274 82.939 95 81.142 95C79.3449 95 78.0934 93.6434 78.0934 92.0074ZM83.1235 92.0074V91.9915C83.1235 90.8663 82.2972 89.9326 81.134 89.9326C79.9707 89.9326 79.1604 90.8423 79.1604 91.9755V91.9915C79.1604 93.1247 79.9867 94.0504 81.15 94.0504C82.3213 94.0504 83.1235 93.1406 83.1235 92.0074Z" fill="#928B7D"/>
<path d="M85.1365 90.028H86.9978V94.8959H88.0246V90.028H89.8859V89.0784H85.1365V90.028Z" fill="#928B7D"/>
<path d="M91.2732 89.0864H95.6053V89.9961H92.3001V91.5044H95.2283V92.4301H92.3001V93.9862H95.6454V94.8959H91.2732V89.0864Z" fill="#928B7D"/>
<path d="M98.3405 89.0864H97.3136V94.9039H101.413V93.9702H98.3405V89.0864Z" fill="#928B7D"/>
<path d="M105.809 89.0864H106.9L108.681 91.8316L110.462 89.0864H111.553V94.8959H110.526V90.7303L108.681 93.4675H108.649L106.82 90.7462V94.8959H105.809V89.0864Z" fill="#928B7D"/>
<path fill-rule="evenodd" clip-rule="evenodd" d="M113.213 91.9915V92.0074C113.213 93.6434 114.464 95 116.261 95C118.058 95 119.326 93.6274 119.326 91.9915V91.9755C119.326 90.3396 118.074 88.983 116.277 88.983C114.48 88.983 113.213 90.3555 113.213 91.9915ZM118.243 91.9915V92.0074C118.243 93.1406 117.433 94.0504 116.269 94.0504C115.106 94.0504 114.28 93.1247 114.28 91.9915V91.9755C114.28 90.8423 115.09 89.9326 116.253 89.9326C117.417 89.9326 118.243 90.8663 118.243 91.9915Z" fill="#928B7D"/>
<path d="M120.472 94.0497L121.09 93.3155C121.652 93.7943 122.213 94.0736 122.935 94.0736C123.569 94.0736 123.97 93.7783 123.97 93.3394V93.3235C123.97 92.9085 123.738 92.6851 122.655 92.4377C121.411 92.1424 120.713 91.7753 120.713 90.706V90.69C120.713 89.6925 121.547 89.0062 122.711 89.0062C123.561 89.0062 124.235 89.2616 124.829 89.7404L124.275 90.5145C123.746 90.1234 123.224 89.9159 122.687 89.9159C122.085 89.9159 121.732 90.2272 121.732 90.6022V90.6182C121.732 91.0651 121.997 91.2646 123.128 91.5279C124.363 91.8232 124.997 92.2701 124.997 93.2277V93.2437C124.997 94.329 124.139 94.9754 122.911 94.9754C122.013 94.9833 121.17 94.6721 120.472 94.0497Z" fill="#928B7D"/>
<path d="M126.264 91.9915V92.0074C126.264 93.6753 127.524 95 129.24 94.992C130.331 94.992 130.997 94.593 131.607 93.9626L130.949 93.3002C130.452 93.7711 129.986 94.0504 129.272 94.0504C128.157 94.0504 127.347 93.1326 127.347 91.9915V91.9755C127.347 90.8344 128.165 89.9326 129.264 89.9326C129.938 89.9326 130.436 90.2119 130.909 90.6428L131.567 89.8847C131.005 89.358 130.355 88.983 129.272 88.983C127.507 88.983 126.264 90.3396 126.264 91.9915Z" fill="#928B7D"/>
<path fill-rule="evenodd" clip-rule="evenodd" d="M132.617 92.0074V91.9915C132.617 90.3555 133.885 88.983 135.682 88.983C137.479 88.983 138.73 90.3396 138.73 91.9755V91.9915C138.73 93.6274 137.463 95 135.666 95C133.869 95 132.617 93.6434 132.617 92.0074ZM137.647 92.0074V91.9915C137.647 90.8663 136.821 89.9326 135.658 89.9326C134.495 89.9326 133.684 90.8423 133.684 91.9755V91.9915C133.684 93.1247 134.511 94.0504 135.674 94.0504C136.837 94.0504 137.647 93.1406 137.647 92.0074Z" fill="#928B7D"/>
<path d="M140.727 89.0871H139.62L141.65 94.9445H142.541L143.977 90.7709L145.413 94.9445H146.303L148.333 89.0871H147.258L145.862 93.3964L144.426 89.0711H143.559L142.123 93.3964L140.727 89.0871Z" fill="#928B7D"/>
</svg>
