<svg width="220" height="140" viewBox="0 0 220 140" fill="none" xmlns="http://www.w3.org/2000/svg">
<path d="M39.0417 63.1703C37.8148 60.6541 35.579 59.1057 32.7979 59.1057C29.0898 59.1057 26.0634 62.0643 26.0634 65.8523C26.0634 69.032 27.9174 70.3039 30.4531 71.6864L34.761 74.009C35.7698 74.7002 36.3697 75.3085 36.3697 76.5251C36.3697 78.5159 34.761 79.7878 32.907 79.7878C30.8075 79.7878 29.6897 78.5435 28.7626 76.8292L25 78.5712C26.2269 81.8338 29.5806 83.7693 32.907 83.7693C37.1604 83.7693 40.7867 80.5067 40.7867 76.0827C40.7867 72.4053 38.1965 70.7463 35.4972 69.5021C32.8252 68.2578 30.1804 67.373 30.1804 65.3269C30.1804 64.0274 31.3528 63.0597 32.5798 63.0597C33.8613 63.0597 34.9791 63.9444 35.4972 65.0781L39.0417 63.1703Z" fill="black"/>
<path d="M46.2125 59.7972H41.223L52.8653 83.7972L59.5999 68.2857L66.2799 83.7972L77.9222 59.7972H72.9327L66.2799 74.5622L59.5999 58.5253L52.8653 74.5622L46.2125 59.7972Z" fill="black"/>
<path fill-rule="evenodd" clip-rule="evenodd" d="M83.2662 46.083C81.603 46.083 80.2398 47.4655 80.2398 49.2074C80.2398 50.894 81.603 52.2212 83.2662 52.2212C84.9294 52.2212 86.2927 50.894 86.2927 49.2074C86.32 47.4655 84.9294 46.083 83.2662 46.083ZM85.4747 59.7973H81.085V82.9954H85.4747V59.7973Z" fill="black"/>
<path d="M103.443 63.1703C102.216 60.6541 99.9799 59.1057 97.1988 59.1057C93.4907 59.1057 90.4643 62.0643 90.4643 65.8523C90.4643 69.032 92.3183 70.3039 94.854 71.6864L99.1619 74.009C100.171 74.7002 100.771 75.3085 100.771 76.5251C100.771 78.5159 99.1619 79.7878 97.3079 79.7878C95.2084 79.7878 94.0906 78.5435 93.1635 76.8292L89.4009 78.5712C90.6279 81.8338 93.9815 83.7693 97.3079 83.7693C101.561 83.7693 105.188 80.5067 105.188 76.0827C105.188 72.4053 102.597 70.7463 99.8981 69.5021C97.2261 68.2578 94.5813 67.373 94.5813 65.3269C94.5813 64.0274 95.7538 63.0597 96.9807 63.0597C98.2622 63.0597 99.3801 63.9444 99.8981 65.0781L103.443 63.1703Z" fill="black"/>
<path d="M122.201 63.1703C120.974 60.6541 118.739 59.1057 115.957 59.1057C112.249 59.1057 109.223 62.0643 109.223 65.8523C109.223 69.032 111.077 70.3039 113.613 71.6864L117.921 74.009C118.929 74.7002 119.529 75.3085 119.529 76.5251C119.529 78.5159 117.921 79.7878 116.067 79.7878C113.967 79.7878 112.849 78.5435 111.922 76.8292L108.16 78.5712C109.386 81.8338 112.74 83.7693 116.067 83.7693C120.32 83.7693 123.946 80.5067 123.946 76.0827C123.946 72.4053 121.356 70.7463 118.657 69.5021C115.985 68.2578 113.34 67.373 113.34 65.3269C113.34 64.0274 114.512 63.0597 115.739 63.0597C117.021 63.0597 118.139 63.9444 118.657 65.0781L122.201 63.1703Z" fill="black"/>
<path fill-rule="evenodd" clip-rule="evenodd" d="M138.67 63.3638C143.032 63.3638 146.495 67.0412 146.495 71.4375C146.495 75.8062 143.032 79.5113 138.67 79.5113C134.307 79.5113 130.844 75.8062 130.844 71.4375C130.844 67.0412 134.307 63.3638 138.67 63.3638ZM138.67 59.1057C131.826 59.1057 126.455 64.4421 126.455 71.4375C126.455 78.4329 131.826 83.7693 138.67 83.7693C145.513 83.7693 150.885 78.4329 150.885 71.4375C150.885 64.4698 145.486 59.1057 138.67 59.1057Z" fill="black"/>
<path d="M159.882 63.972H164.19V59.7968H159.882V50.9489H155.492V59.7968H153.093V63.972H155.492V82.995H159.882V63.972Z" fill="black"/>
<path fill-rule="evenodd" clip-rule="evenodd" d="M169.779 68.7832C170.325 65.4652 172.86 62.9767 176.269 62.9767C179.786 62.9767 182.022 65.2993 182.567 68.7832H169.779ZM186.957 72.1564V71.4375C186.957 64.5527 183.549 59.1057 176.269 59.1057C168.907 59.1057 165.117 64.4421 165.117 71.5758C165.117 78.4053 169.371 83.7693 176.35 83.7693C180.795 83.7693 184.803 81.4468 186.957 77.4375L183.249 75.3085C181.585 78.0735 179.786 79.8154 176.405 79.8154C172.206 79.8154 169.561 76.1103 169.507 72.1288H186.957V72.1564Z" fill="black"/>
<path d="M195 40H190.61V82.9954H195V40Z" fill="black"/>
<path d="M131.008 54.5436L133.844 56.8109L138.779 52.0552L143.741 56.8109L146.631 54.5436L138.779 47.3547L131.008 54.5436Z" fill="#E6001F"/>
<path d="M31.6528 92.7284V88.0003H30.2077V99.7238H31.6528V94.1109H37.1604V99.7238H38.6055V88.0003H37.1604V92.7284H31.6528Z" fill="#E6001F"/>
<path fill-rule="evenodd" clip-rule="evenodd" d="M47.5485 93.5852C48.9118 93.5852 50.0024 94.7465 50.0024 96.129C50.0024 97.5114 48.9118 98.6727 47.5485 98.6727C46.1852 98.6727 45.0946 97.5114 45.0946 96.129C45.0946 94.7188 46.1852 93.5852 47.5485 93.5852ZM47.5485 92.2303C45.3945 92.2303 43.7041 93.917 43.7041 96.1013C43.7041 98.2856 45.3945 99.9723 47.5485 99.9723C49.7025 99.9723 51.3929 98.2856 51.3929 96.1013C51.3657 93.917 49.7025 92.2303 47.5485 92.2303Z" fill="#E6001F"/>
<path d="M58.0457 93.7791H59.409V92.4519H58.0457V89.6869H56.6552V92.4519H55.919V93.7791H56.6552V99.7238H58.0457V93.7791Z" fill="#E6001F"/>
<path fill-rule="evenodd" clip-rule="evenodd" d="M64.8893 95.2718C65.0529 94.2211 65.8436 93.4469 66.9342 93.4469C68.0521 93.4469 68.7338 94.1658 68.9246 95.2718H64.8893ZM70.2879 96.3225V96.1013C70.2879 93.9446 69.2245 92.2303 66.9342 92.2303C64.6167 92.2303 63.4443 93.917 63.4443 96.1566C63.4443 98.3133 64.7803 99.9723 66.9615 99.9723C68.352 99.9723 69.6062 99.2534 70.2879 97.9815L69.1155 97.3179C68.5974 98.175 68.0249 98.728 66.9615 98.728C65.6528 98.728 64.8075 97.5667 64.8075 96.3225H70.2879Z" fill="#E6001F"/>
<path d="M76.7498 86.2305H75.3592V99.7236H76.7498V86.2305Z" fill="#E6001F"/>
<path d="M86.5381 93.53C86.1564 92.7281 85.4475 92.2581 84.575 92.2581C83.4026 92.2581 82.4755 93.1982 82.4755 94.3871C82.4755 95.3825 83.0481 95.7972 83.8661 96.212L85.2021 96.9309C85.5293 97.1521 85.7201 97.3456 85.7201 97.7327C85.7201 98.341 85.2021 98.7558 84.6295 98.7558C83.9751 98.7558 83.6207 98.3687 83.3208 97.8157L82.1483 98.3687C82.5301 99.3917 83.5934 100 84.6295 100C85.9655 100 87.1107 98.977 87.1107 97.5945C87.1107 96.4332 86.2927 95.9078 85.4475 95.5207C84.6022 95.1336 83.7843 94.8571 83.7843 94.2212C83.7843 93.8065 84.166 93.5023 84.5204 93.5023C84.9294 93.5023 85.2839 93.7788 85.4475 94.1382L86.5381 93.53Z" fill="#E6001F"/>
<path fill-rule="evenodd" clip-rule="evenodd" d="M108.623 99.7232H110.395L108.323 97.1241L109.741 95.4374L108.814 94.4697L107.478 96.0457L105.079 93.0872C106.033 92.3683 107.178 91.4835 107.178 90.1563C107.178 88.6079 105.924 87.7232 104.506 87.7232C102.979 87.7232 101.834 88.6633 101.834 90.2946C101.834 91.29 102.434 92.1471 103.115 92.866L102.407 93.3914C101.316 94.1932 100.389 95.0227 100.389 96.4881C100.389 98.5066 101.998 99.9444 103.933 99.9444C105.297 99.9444 106.524 99.1425 107.396 98.1195L108.623 99.7232ZM104.261 92.1195L103.879 91.6218C103.552 91.1794 103.197 90.7646 103.197 90.1563C103.197 89.4098 103.797 88.9121 104.479 88.9121C105.242 88.9121 105.842 89.3545 105.842 90.184C105.842 91.0411 105.051 91.5112 104.451 91.9812L104.261 92.1195ZM103.961 93.9444L106.524 97.1241C105.815 97.843 104.942 98.6725 103.879 98.6725C102.788 98.6725 101.725 97.6218 101.725 96.5158C101.725 95.4098 103.034 94.6079 103.824 94.0549L103.961 93.9444Z" fill="#E6001F"/>
<path fill-rule="evenodd" clip-rule="evenodd" d="M124.791 89.3275H125.173C126.591 89.3275 128.309 89.604 128.309 91.4289C128.309 93.2814 126.7 93.5855 125.255 93.5855H124.791V89.3275ZM126.891 94.6362C128.554 94.4427 129.672 93.0325 129.672 91.3459C129.672 90.2399 129.127 89.1339 128.145 88.5533C127.218 88.0279 126.127 88.0003 125.091 88.0003H123.374V99.7238H124.819V94.7745H125.419L128.827 99.7238H130.572L126.891 94.6362Z" fill="#E6001F"/>
<path fill-rule="evenodd" clip-rule="evenodd" d="M136.27 95.2718C136.434 94.2211 137.225 93.4469 138.315 93.4469C139.433 93.4469 140.115 94.1658 140.306 95.2718H136.27ZM141.669 96.3225V96.1013C141.669 93.9446 140.605 92.2303 138.315 92.2303C135.998 92.2303 134.825 93.917 134.825 96.1566C134.825 98.3133 136.161 99.9723 138.342 99.9723C139.733 99.9723 140.987 99.2534 141.669 97.9815L140.496 97.3179C139.978 98.175 139.406 98.728 138.342 98.728C137.034 98.728 136.188 97.5667 136.188 96.3225H141.669Z" fill="#E6001F"/>
<path d="M150.694 93.53C150.312 92.7281 149.603 92.2581 148.731 92.2581C147.558 92.2581 146.631 93.1982 146.631 94.3871C146.631 95.3825 147.204 95.7972 148.022 96.212L149.358 96.9309C149.685 97.1521 149.876 97.3456 149.876 97.7327C149.876 98.341 149.358 98.7558 148.785 98.7558C148.131 98.7558 147.776 98.3687 147.476 97.8157L146.304 98.3687C146.686 99.3917 147.749 100 148.785 100C150.121 100 151.266 98.977 151.266 97.5945C151.266 96.4332 150.448 95.9078 149.603 95.5207C148.758 95.1336 147.94 94.8571 147.94 94.2212C147.94 93.8065 148.322 93.5023 148.676 93.5023C149.085 93.5023 149.44 93.7788 149.603 94.1382L150.694 93.53Z" fill="#E6001F"/>
<path fill-rule="evenodd" clip-rule="evenodd" d="M159.582 93.5852C160.946 93.5852 162.036 94.7465 162.036 96.129C162.036 97.5114 160.946 98.6727 159.582 98.6727C158.219 98.6727 157.128 97.5114 157.128 96.129C157.128 94.7188 158.219 93.5852 159.582 93.5852ZM159.582 92.2303C157.428 92.2303 155.738 93.917 155.738 96.1013C155.738 98.2856 157.428 99.9723 159.582 99.9723C161.736 99.9723 163.427 98.2856 163.427 96.1013C163.427 93.917 161.736 92.2303 159.582 92.2303Z" fill="#E6001F"/>
<path d="M169.97 92.4516H168.58V99.7235H169.97V96.1567C169.97 94.9677 170.161 93.5853 171.633 93.5853C171.961 93.5853 172.233 93.6682 172.479 93.8894L173.106 92.6175C172.779 92.3963 172.37 92.2581 171.961 92.2581C171.034 92.2581 170.325 92.8111 169.998 93.6682H169.943V92.4516H169.97Z" fill="#E6001F"/>
<path d="M179.595 93.7791H180.958V92.4519H179.595V89.6869H178.232V92.4519H177.468V93.7791H178.232V99.7238H179.595V93.7791Z" fill="#E6001F"/>
<path d="M189.547 93.53C189.165 92.7281 188.456 92.2581 187.584 92.2581C186.411 92.2581 185.484 93.1982 185.484 94.3871C185.484 95.3825 186.057 95.7972 186.875 96.212L188.211 96.9309C188.538 97.1521 188.729 97.3456 188.729 97.7327C188.729 98.341 188.211 98.7558 187.638 98.7558C186.984 98.7558 186.63 98.3687 186.33 97.8157L185.157 98.3687C185.539 99.3917 186.602 100 187.638 100C188.974 100 190.12 98.977 190.12 97.5945C190.12 96.4332 189.302 95.9078 188.456 95.5207C187.611 95.1336 186.793 94.8571 186.793 94.2212C186.793 93.8065 187.175 93.5023 187.529 93.5023C187.938 93.5023 188.293 93.7788 188.456 94.1382L189.547 93.53Z" fill="#E6001F"/>
</svg>
