<?xml version="1.0" encoding="utf-8"?>
<!-- Generator: Adobe Illustrator 25.0.1, SVG Export Plug-In . SVG Version: 6.00 Build 0)  -->
<svg version="1.1" id="Layer_1" xmlns="http://www.w3.org/2000/svg" xmlns:xlink="http://www.w3.org/1999/xlink" x="0px" y="0px"
	 width="73.7px" height="13px" viewBox="0 0 73.7 13" style="enable-background:new 0 0 73.7 13;" xml:space="preserve">
<style type="text/css">
	.st0{fill:#DDDDDD;}
	.st1{fill:#FF7000;}
</style>
<polygon class="st0" points="36.8,0 39,4.3 43.7,5 40.2,8.3 41.1,13 36.8,10.8 "/>
<polygon class="st1" points="21.8,0 24,4.3 28.7,5 25.2,8.3 26.1,13 21.8,10.8 17.6,13 18.4,8.3 15,5 19.7,4.3 "/>
<polygon class="st1" points="6.8,0 8.9,4.3 13.7,5 10.2,8.3 11.1,13 6.8,10.8 2.6,13 3.4,8.3 0,5 4.7,4.3 "/>
<polygon class="st0" points="51.8,0 54,4.3 58.7,5 55.2,8.3 56.1,13 51.8,10.8 47.6,13 48.4,8.3 45,5 49.7,4.3 "/>
<polygon class="st0" points="66.8,0 68.9,4.3 73.7,5 70.2,8.3 71.1,13 66.8,10.8 62.6,13 63.4,8.3 60,5 64.7,4.3 "/>
<polygon class="st1" points="36.8,0 36.8,10.8 32.6,13 33.4,8.3 30,5 34.7,4.3 "/>
</svg>
