<svg width="120" height="120" viewBox="0 0 120 120" fill="none" xmlns="http://www.w3.org/2000/svg">
<path d="M120 60C120 93.1371 93.1371 120 60 120C26.8629 120 0 93.1371 0 60C0 26.8629 26.8629 0 60 0C93.1371 0 120 26.8629 120 60Z" fill="#1D1D1F"/>
<path d="M60.3555 81.6553C60.3555 81.113 60.3555 80.5903 60.3669 80.0676C60.3783 77.9671 60.3897 75.8765 60.4011 73.776C60.4011 73.6971 60.4011 73.6182 60.4125 73.5393C60.4467 73.1745 60.6404 72.9772 61.0391 72.8786C61.5062 72.7701 61.9277 72.8096 62.3265 73.0758C62.6682 73.3027 63.0214 73.5393 63.4088 73.7168C64.8556 74.3874 66.6557 74.1803 67.8975 73.2533C69.481 72.0601 69.6975 69.8807 68.2051 68.4409C66.838 67.1294 64.5025 67.0012 62.9758 67.9281C62.7252 68.0859 62.4746 68.2437 62.2239 68.3916C61.7568 68.6678 61.2783 68.6086 60.7999 68.4114C60.6176 68.3325 60.515 68.1944 60.4809 68.0169C60.4467 67.8887 60.4353 67.7506 60.4353 67.6224C60.4467 65.0782 60.4581 62.5339 60.4695 59.9897C60.4695 59.9108 60.4809 59.8319 60.4809 59.7333C60.5948 59.7333 60.6859 59.7234 60.7885 59.7234C63.7505 59.7332 66.7126 59.7431 69.6633 59.753C70.0621 59.753 70.4494 59.6938 70.7912 59.5163C71.0646 59.3684 71.2697 59.1711 71.395 58.9246C71.7482 58.2244 71.771 57.5341 71.2355 56.8833C71.0646 56.6663 70.8709 56.4691 70.7114 56.2521C70.0279 55.3153 69.9709 54.3292 70.6317 53.3923C71.7026 51.8835 73.8103 51.8736 75.0179 52.7316C76.3052 53.6487 76.3394 55.1477 75.7242 56.0746C75.6103 56.2521 75.4508 56.4099 75.3141 56.5776C75.1774 56.7452 75.0179 56.903 74.9039 57.0805C74.4596 57.7905 74.528 58.4907 75.0179 59.1613C75.3027 59.5557 75.7698 59.7234 76.2825 59.7727C76.4306 59.7826 76.5787 59.7826 76.7154 59.7826C79.6205 59.7924 82.5256 59.8023 85.4307 59.8121C85.5333 59.8121 85.6244 59.8121 85.7497 59.822C85.7611 59.891 85.7725 59.9502 85.7725 60.0094C85.7611 62.6029 85.7497 65.1965 85.7383 67.7901C85.7383 67.9183 85.727 68.0662 85.67 68.1845C85.613 68.3029 85.5105 68.4311 85.3852 68.4903C84.9637 68.6875 84.5193 68.7565 84.0864 68.5396C83.7674 68.3818 83.494 68.1845 83.1978 67.9972C81.8193 67.159 79.9053 67.159 78.5382 68.0366C76.7268 69.2003 76.442 71.3106 77.7065 72.7899C78.9483 74.2494 81.3864 74.6044 83.1294 73.5886C83.3801 73.4407 83.6193 73.2928 83.8586 73.135C84.2915 72.849 84.7586 72.8688 85.2257 73.0265C85.4877 73.1153 85.6358 73.2829 85.6814 73.5196C85.7042 73.6281 85.7042 73.7366 85.7042 73.845C85.6928 76.4189 85.6814 78.9829 85.67 81.5567C85.67 81.6159 85.67 81.6849 85.6586 81.754C85.5675 81.754 85.4763 81.7638 85.3852 81.7638C82.4801 81.754 79.5749 81.7441 76.6698 81.7342C76.442 81.7342 76.2141 81.7342 75.9862 81.7638C75.3369 81.8624 74.8698 82.1879 74.6533 82.7302C74.3799 83.4107 74.4141 84.0615 74.9267 84.6631C75.0748 84.8406 75.2343 85.0181 75.3824 85.1956C76.1913 86.2015 76.123 87.592 75.1774 88.4795C74.0495 89.5544 72.409 89.5051 71.3722 88.9331C69.7089 88.0061 69.6861 86.1127 70.5975 85.1364C70.8254 84.8899 71.0304 84.6335 71.2241 84.3672C71.6912 83.7263 71.4975 82.4936 70.7342 82.0202C70.3811 81.8033 69.9937 81.7145 69.5836 81.7145C68.7633 81.7047 67.943 81.7047 67.1228 81.7047C64.9696 81.6948 62.8277 81.6849 60.6745 81.6849C60.6062 81.6652 60.4922 81.6652 60.3555 81.6553Z" fill="white"/>
<path d="M34.1866 58.8063C34.1866 58.7077 34.1866 58.6288 34.1866 58.5499C34.198 56.0155 34.2094 53.4909 34.2208 50.9565C34.2208 50.8283 34.2208 50.7001 34.2436 50.5818C34.2892 50.3353 34.4487 50.1577 34.7107 50.0789C35.1778 49.9309 35.6335 49.9211 36.055 50.1873C36.431 50.424 36.7956 50.6705 37.2057 50.8678C38.6298 51.5482 40.5096 51.3214 41.7172 50.3944C43.1527 49.2899 43.5286 47.2683 42.2185 45.8187C41.1931 44.6748 39.8032 44.3 38.1855 44.5663C37.5133 44.6748 36.9437 44.9706 36.4196 45.3256C36.3171 45.3947 36.2031 45.4637 36.0892 45.5327C35.6791 45.8088 35.2234 45.7891 34.7677 45.6412C34.4828 45.5524 34.312 45.3651 34.2778 45.0988C34.2664 45.0101 34.2664 44.9213 34.2664 44.8424C34.2778 42.2686 34.2892 39.6849 34.3006 37.111C34.3006 37.0518 34.312 36.9828 34.312 36.9039C34.4259 36.9039 34.5398 36.9039 34.6423 36.9039C37.5703 36.9138 40.5096 36.9236 43.4375 36.9335C43.597 36.9335 43.7451 36.9335 43.9046 36.9138C44.6337 36.8152 45.1236 36.47 45.34 35.8685C45.5793 35.2176 45.5337 34.5963 45.0438 34.0244C44.8729 33.8271 44.7021 33.6398 44.5426 33.4327C43.859 32.5057 43.802 31.5294 44.4514 30.5926C45.5109 29.0542 47.7097 29.0147 48.9515 29.991C50.0794 30.8785 50.2844 32.3578 49.4186 33.4524C49.2135 33.7088 48.9971 33.9455 48.8034 34.2019C48.3021 34.8626 48.3819 35.8586 48.9629 36.4601C49.3161 36.825 49.7946 36.9631 50.3186 36.9631C51.1047 36.9729 51.8794 36.9729 52.6655 36.9729C54.8985 36.9828 57.1314 36.9927 59.3644 36.9927C59.4441 36.9927 59.5239 37.0025 59.615 37.0025C59.615 37.0814 59.6264 37.1504 59.6264 37.2195C59.615 39.7637 59.6036 42.308 59.5922 44.8621C59.5922 44.9312 59.5922 45.0002 59.5922 45.0791C59.5695 45.4735 59.3416 45.7004 58.9087 45.799C58.3846 45.9173 57.9517 45.7891 57.5416 45.5031C57.2681 45.3158 56.9947 45.1383 56.6871 44.9903C55.1833 44.2606 53.2693 44.4775 52.0047 45.5031C50.6148 46.6273 50.3756 48.5306 51.5035 49.9014C52.9162 51.6271 55.4909 51.6666 56.9947 50.7494C57.2453 50.5917 57.496 50.4339 57.7466 50.2761C58.1796 50 58.6353 50.0394 59.1024 50.1873C59.3644 50.2761 59.5239 50.4536 59.5581 50.71C59.5695 50.8086 59.5808 50.8974 59.5808 50.996C59.5695 53.5698 59.5581 56.1535 59.5467 58.7274C59.5467 58.7866 59.5467 58.8359 59.5353 58.9148C59.4214 58.9148 59.3188 58.9246 59.2163 58.9246C56.2656 58.9148 53.3149 58.9049 50.3642 58.895C49.9085 58.895 49.487 58.9641 49.0996 59.2106C48.7692 59.4177 48.5869 59.7037 48.4844 60.0192C48.268 60.6701 48.3363 61.2815 48.8262 61.8338C48.9857 62.0211 49.1452 62.1986 49.2933 62.386C49.9655 63.2045 50.1022 64.5654 49.1452 65.5614C47.9831 66.7645 46.0464 66.7546 44.8615 65.8277C43.6767 64.9007 43.6767 63.4116 44.3375 62.4945C44.4856 62.2874 44.6565 62.0902 44.8388 61.9028C45.397 61.3012 45.5109 60.6405 45.2375 59.9206C45.0097 59.3289 44.5312 58.9838 43.8134 58.895C43.6653 58.8753 43.5058 58.8753 43.3463 58.8753C40.4184 58.8654 37.4791 58.8556 34.5512 58.8457C34.4145 58.8161 34.312 58.8161 34.1866 58.8063Z" fill="white"/>
<path d="M34.1867 59.5952C34.3006 59.5952 34.3917 59.5952 34.4829 59.5952C37.4108 59.6051 40.3273 59.6149 43.2552 59.6248C43.4033 59.6248 43.5514 59.6248 43.6881 59.6445C43.9729 59.684 44.178 59.822 44.2691 60.0488C44.44 60.4532 44.4514 60.8476 44.1438 61.2125C43.8704 61.5379 43.5856 61.8535 43.3577 62.2085C42.5716 63.4412 42.8337 65.0683 43.9046 66.1137C45.1806 67.3562 47.5161 67.6816 49.1908 66.5476C50.5123 65.66 50.9452 64.4569 50.6376 63.0566C50.5123 62.4748 50.1705 61.9817 49.7604 61.5281C49.6806 61.4393 49.6009 61.3407 49.5212 61.2421C49.2022 60.8871 49.2249 60.4926 49.3958 60.0982C49.4984 59.8516 49.7148 59.7037 50.0224 59.6741C50.125 59.6642 50.2275 59.6642 50.3186 59.6642C53.2921 59.6741 56.277 59.684 59.2505 59.6938C59.3188 59.6938 59.3986 59.7037 59.4897 59.7037C59.4897 59.8023 59.4897 59.9009 59.4897 59.9897C59.4783 62.5241 59.4669 65.0683 59.4555 67.6027C59.4555 67.7408 59.4555 67.869 59.4783 68.0071C59.5923 68.6382 59.991 69.0622 60.6859 69.2496C61.4379 69.4567 62.1556 69.4173 62.8164 68.9932C63.0442 68.8453 63.2607 68.6974 63.4999 68.5593C64.5708 67.9676 65.6987 67.9183 66.781 68.4804C68.5583 69.3975 68.6038 71.3008 67.476 72.3757C66.4506 73.352 64.7417 73.5295 63.4771 72.78C63.1809 72.6025 62.9075 72.4151 62.6113 72.2475C61.848 71.8136 60.6973 71.8826 60.0024 72.3856C59.5809 72.6913 59.4214 73.1055 59.4214 73.5591C59.41 74.2395 59.41 74.9101 59.41 75.5905C59.3986 77.5234 59.3872 79.4563 59.3872 81.3891C59.3872 81.4581 59.3758 81.5272 59.3758 81.6061C59.2847 81.6061 59.2049 81.6159 59.1252 81.6159C56.1859 81.6061 53.2466 81.5962 50.2959 81.5863C50.2161 81.5863 50.1364 81.5863 50.0452 81.5863C49.5895 81.5666 49.3275 81.3694 49.2136 80.9946C49.0768 80.541 49.2249 80.1663 49.5553 79.8113C49.7718 79.5746 49.9769 79.3379 50.1478 79.0717C50.9908 77.7699 50.7402 76.1132 49.5553 75.0186C48.2566 73.8155 46.0578 73.6084 44.4742 74.5847C42.4805 75.8075 42.4349 78.0362 43.4944 79.3379C43.6767 79.5549 43.859 79.7718 44.0413 79.9888C44.3603 80.3635 44.3147 80.758 44.1438 81.1623C44.0413 81.3891 43.8362 81.5272 43.54 81.5567C43.4261 81.5666 43.3236 81.5765 43.2096 81.5765C40.2361 81.5666 37.2513 81.5567 34.2778 81.5469C34.2094 81.5469 34.1525 81.5469 34.0613 81.537C34.0613 81.4384 34.0499 81.3497 34.0499 81.2609C34.0613 78.7068 34.0727 76.1526 34.0841 73.5985C34.0841 73.2041 34.0044 72.8392 33.7196 72.5039C33.4803 72.2179 33.1499 72.0601 32.7854 71.9714C32.0334 71.784 31.3271 71.8432 30.6891 72.2672C30.4727 72.4053 30.2676 72.5434 30.0511 72.6715C29.1055 73.2534 27.5333 73.3717 26.3827 72.5433C25.027 71.5177 25.0384 69.8314 26.1093 68.8058C27.1802 67.7802 28.9005 67.7802 29.96 68.3522C30.1992 68.4804 30.4271 68.6283 30.6435 68.7861C31.3385 69.2693 32.1018 69.368 32.9335 69.1313C33.617 68.934 34.0158 68.5199 34.1183 67.8986C34.1411 67.7704 34.1411 67.6323 34.1411 67.4943C34.1525 64.9599 34.1639 62.4156 34.1753 59.8812C34.1867 59.7924 34.1867 59.7037 34.1867 59.5952Z" fill="white"/>
<path d="M60.6176 36.9729C60.7315 36.9729 60.8226 36.9729 60.9138 36.9729C63.8417 36.9828 66.7582 36.9927 69.6861 37.0025C69.8342 37.0025 69.9823 37.0025 70.119 37.0222C70.4039 37.0617 70.6089 37.1997 70.7001 37.4266C70.871 37.8309 70.8823 38.2253 70.5747 38.5902C70.3013 38.9156 70.0165 39.2312 69.7887 39.5862C69.0026 40.8189 69.2646 42.4461 70.3355 43.4914C71.6115 44.7339 73.947 45.0593 75.6217 43.9253C76.9432 43.0377 77.3762 41.8346 77.0686 40.4343C76.9432 39.8525 76.6014 39.3594 76.1913 38.9058C76.1116 38.817 76.0318 38.7184 75.9521 38.6198C75.6331 38.2648 75.6559 37.8703 75.8268 37.4759C75.9293 37.2293 76.1457 37.0814 76.4533 37.0518C76.5559 37.042 76.6584 37.042 76.7496 37.042C79.723 37.0518 82.7079 37.0617 85.6814 37.0715C85.7498 37.0715 85.8295 37.0814 85.9206 37.0814C85.9206 37.18 85.9206 37.2786 85.9206 37.3674C85.9092 39.9018 85.8979 42.4461 85.8865 44.9805C85.8865 45.1185 85.8865 45.2467 85.9092 45.3848C86.0232 46.0159 86.4219 46.44 87.1169 46.6273C87.8688 46.8344 88.5865 46.795 89.2473 46.3709C89.4751 46.223 89.6916 46.0751 89.9308 45.937C91.0018 45.3453 92.1296 45.296 93.2119 45.8581C94.9892 46.7753 95.0348 48.6785 93.9069 49.7534C92.8815 50.7297 91.1726 50.9072 89.9081 50.1577C89.6118 49.9802 89.3384 49.7929 89.0422 49.6252C88.2789 49.1913 87.1283 49.2603 86.4333 49.7633C86.0118 50.069 85.8523 50.4832 85.8523 50.9368C85.8409 51.6172 85.8409 52.2878 85.8409 52.9683C85.8295 54.9011 85.8181 56.834 85.8181 58.7668C85.8181 58.8358 85.8067 58.9049 85.8067 58.9838C85.7156 58.9838 85.6358 58.9936 85.5561 58.9936C82.6168 58.9838 79.6775 58.9739 76.7268 58.9641C76.647 58.9641 76.5673 58.9641 76.4761 58.9641C76.0204 58.9443 75.7584 58.7471 75.6445 58.3724C75.5078 57.9187 75.6559 57.544 75.9863 57.189C76.2027 56.9523 76.4078 56.7156 76.5787 56.4494C77.4217 55.1477 77.1711 53.4909 75.9863 52.3963C74.6875 51.1932 72.4887 50.9861 70.9051 51.9624C68.9114 53.1852 68.8658 55.4139 69.9254 56.7156C70.1076 56.9326 70.2899 57.1495 70.4722 57.3665C70.7912 57.7412 70.7456 58.1357 70.5747 58.54C70.4722 58.7668 70.2671 58.9049 69.9709 58.9345C69.857 58.9443 69.7545 58.9542 69.6405 58.9542C66.6671 58.9443 63.6822 58.9345 60.7087 58.9246C60.6404 58.9246 60.5834 58.9246 60.4923 58.9147C60.4923 58.8161 60.4809 58.7274 60.4809 58.6386C60.4923 56.0845 60.5036 53.5304 60.515 50.9762C60.515 50.5818 60.4353 50.2169 60.1505 49.8816C59.9112 49.5956 59.5808 49.4379 59.2163 49.3491C58.4644 49.1617 57.758 49.2209 57.12 49.6449C56.9036 49.783 56.6985 49.9211 56.482 50.0493C55.5365 50.6311 53.9643 50.7494 52.8136 49.9211C51.4237 48.9152 51.4351 47.2387 52.506 46.2131C53.5769 45.1875 55.2972 45.1875 56.3567 45.7595C56.596 45.8877 56.8238 46.0356 57.0403 46.1934C57.7352 46.6766 58.4985 46.7752 59.3302 46.5386C60.0138 46.3413 60.4125 45.9272 60.515 45.3059C60.5378 45.1777 60.5378 45.0396 60.5378 44.9016C60.5492 42.3672 60.5606 39.8229 60.572 37.2885C60.6176 37.1702 60.6176 37.0913 60.6176 36.9729Z" fill="white"/>
<path d="M39.793 26.6667V21.3667H40.963V26.6667H39.793ZM40.963 20.6667H39.793V19.5867H40.963V20.6667Z" fill="white"/>
<path d="M41.8828 26.6667V22.2667C41.8828 21.6667 42.1828 21.3667 42.7828 21.3667H44.6428C45.2961 21.3667 45.8028 21.5033 46.1628 21.7767C46.5228 22.05 46.7028 22.5167 46.7028 23.1767V26.6667H45.5328V23.4867C45.5328 23.0733 45.4461 22.7667 45.2728 22.5667C45.0995 22.3667 44.8161 22.2667 44.4228 22.2667H43.3528C43.1528 22.2667 43.0528 22.3667 43.0528 22.5667V26.6667H41.8828Z" fill="white"/>
<path d="M52.385 19.6667V25.7667C52.385 26.3667 52.085 26.6667 51.485 26.6667H49.635C48.835 26.6667 48.2717 26.44 47.945 25.9867C47.625 25.5333 47.465 24.8733 47.465 24.0067C47.465 23.14 47.625 22.4833 47.945 22.0367C48.265 21.59 48.8283 21.3667 49.635 21.3667H51.215V19.6667H52.385ZM51.215 22.2667H49.925C49.6517 22.2667 49.4283 22.3067 49.255 22.3867C49.0817 22.4667 48.955 22.5933 48.875 22.7667C48.795 22.94 48.7417 23.12 48.715 23.3067C48.6883 23.4867 48.675 23.72 48.675 24.0067C48.675 24.2933 48.6883 24.53 48.715 24.7167C48.7417 24.8967 48.795 25.0767 48.875 25.2567C48.955 25.43 49.0817 25.56 49.255 25.6467C49.4283 25.7267 49.6517 25.7667 49.925 25.7667H50.915C51.115 25.7667 51.215 25.6667 51.215 25.4667V22.2667Z" fill="white"/>
<path d="M53.3086 26.6667V21.3667H54.4786V26.6667H53.3086ZM54.4786 20.6667H53.3086V19.5867H54.4786V20.6667Z" fill="white"/>
<path d="M56.0084 21.3667L57.4984 25.2967C57.5518 25.4367 57.5984 25.5067 57.6384 25.5067C57.6784 25.5067 57.7251 25.4367 57.7784 25.2967L59.2584 21.3667H60.4684L58.4484 26.2567C58.3884 26.4033 58.3084 26.5133 58.2084 26.5867C58.1084 26.66 58.0218 26.7 57.9484 26.7067C57.8751 26.72 57.7718 26.7267 57.6384 26.7267C57.5051 26.7267 57.4018 26.72 57.3284 26.7067C57.2551 26.7 57.1651 26.66 57.0584 26.5867C56.9584 26.5133 56.8784 26.4033 56.8184 26.2567L54.7984 21.3667H56.0084Z" fill="white"/>
<path d="M60.7891 26.6667V21.3667H61.9591V26.6667H60.7891ZM61.9591 20.6667H60.7891V19.5867H61.9591V20.6667Z" fill="white"/>
<path d="M67.6389 19.6667V25.7667C67.6389 26.3667 67.3389 26.6667 66.7389 26.6667H64.8889C64.0889 26.6667 63.5256 26.44 63.1989 25.9867C62.8789 25.5333 62.7189 24.8733 62.7189 24.0067C62.7189 23.14 62.8789 22.4833 63.1989 22.0367C63.5189 21.59 64.0822 21.3667 64.8889 21.3667H66.4689V19.6667H67.6389ZM66.4689 22.2667H65.1789C64.9056 22.2667 64.6822 22.3067 64.5089 22.3867C64.3356 22.4667 64.2089 22.5933 64.1289 22.7667C64.0489 22.94 63.9956 23.12 63.9689 23.3067C63.9422 23.4867 63.9289 23.72 63.9289 24.0067C63.9289 24.2933 63.9422 24.53 63.9689 24.7167C63.9956 24.8967 64.0489 25.0767 64.1289 25.2567C64.2089 25.43 64.3356 25.56 64.5089 25.6467C64.6822 25.7267 64.9056 25.7667 65.1789 25.7667H66.1689C66.3689 25.7667 66.4689 25.6667 66.4689 25.4667V22.2667Z" fill="white"/>
<path d="M73.4625 21.3667V25.7667C73.4625 26.3667 73.1625 26.6667 72.5625 26.6667H70.6225C69.9692 26.6667 69.4625 26.53 69.1025 26.2567C68.7425 25.9833 68.5625 25.5167 68.5625 24.8567V21.3667H69.7325V24.5467C69.7325 24.96 69.8192 25.2667 69.9925 25.4667C70.1658 25.6667 70.4492 25.7667 70.8425 25.7667H71.9925C72.1925 25.7667 72.2925 25.6667 72.2925 25.4667V21.3667H73.4625Z" fill="white"/>
<path d="M74.6128 21.3667H77.6228C78.1095 21.3667 78.4795 21.51 78.7328 21.7967C78.9862 22.0833 79.1128 22.46 79.1128 22.9267V25.7667C79.1128 26.3667 78.8128 26.6667 78.2128 26.6667H75.5428C74.6628 26.6667 74.2228 26.1167 74.2228 25.0167C74.2228 24.5033 74.3328 24.1 74.5528 23.8067C74.7728 23.5133 75.1028 23.3667 75.5428 23.3667H77.9428V23.0267C77.9428 22.52 77.6961 22.2667 77.2028 22.2667H74.6128V21.3667ZM77.9428 24.2667H75.9928C75.6195 24.2667 75.4328 24.5167 75.4328 25.0167C75.4328 25.5167 75.6195 25.7667 75.9928 25.7667H77.6428C77.8428 25.7667 77.9428 25.6667 77.9428 25.4667V24.2667Z" fill="white"/>
<path d="M80.0371 26.6667V19.6667H81.2071V26.6667H80.0371Z" fill="white"/>
<path d="M34.8463 94.0333H36.6963C37.503 94.0333 38.0663 94.2567 38.3863 94.7033C38.7063 95.15 38.8663 95.8067 38.8663 96.6733C38.8663 97.54 38.703 98.2 38.3763 98.6533C38.0563 99.1067 37.4963 99.3333 36.6963 99.3333H35.1163V101.033H33.9463V94.9333C33.9463 94.3333 34.2463 94.0333 34.8463 94.0333ZM35.1163 95.1933V98.4333H36.4063C36.9196 98.4333 37.2563 98.2867 37.4163 97.9933C37.5763 97.7 37.6563 97.26 37.6563 96.6733C37.6563 96.3867 37.643 96.1533 37.6163 95.9733C37.5896 95.7867 37.5363 95.6067 37.4563 95.4333C37.3763 95.26 37.2496 95.1333 37.0763 95.0533C36.903 94.9733 36.6796 94.9333 36.4063 94.9333H35.4163C35.2163 94.9333 35.1163 95.02 35.1163 95.1933Z" fill="white"/>
<path d="M40.1399 94.5633C40.5866 94.17 41.3032 93.9733 42.2899 93.9733C43.2766 93.9733 43.9932 94.17 44.4399 94.5633C44.8866 94.9567 45.1099 95.66 45.1099 96.6733C45.1099 97.7 44.8866 98.41 44.4399 98.8033C43.9999 99.1967 43.2832 99.3933 42.2899 99.3933C41.2966 99.3933 40.5765 99.1967 40.1299 98.8033C39.6899 98.41 39.4699 97.7 39.4699 96.6733C39.4699 95.66 39.6932 94.9567 40.1399 94.5633ZM40.6799 96.6733C40.6799 97.3333 40.7999 97.8033 41.0399 98.0833C41.2799 98.3567 41.6965 98.4933 42.2899 98.4933C42.8832 98.4933 43.2999 98.3567 43.5399 98.0833C43.7799 97.8033 43.8999 97.3333 43.8999 96.6733C43.8999 96.02 43.7799 95.5567 43.5399 95.2833C43.2999 95.01 42.8832 94.8733 42.2899 94.8733C41.6965 94.8733 41.2799 95.01 41.0399 95.2833C40.7999 95.5567 40.6799 96.02 40.6799 96.6733Z" fill="white"/>
<path d="M45.7401 99.3333V98.4333H48.7201C48.8534 98.4333 48.9668 98.3933 49.0601 98.3133C49.1601 98.2333 49.2101 98.1133 49.2101 97.9533C49.2101 97.8467 49.1901 97.7567 49.1501 97.6833C49.1101 97.6033 49.0435 97.54 48.9501 97.4933C48.8568 97.44 48.7768 97.4033 48.7101 97.3833C48.6435 97.3567 48.5368 97.3267 48.3901 97.2933C48.2435 97.2533 48.1468 97.2267 48.1001 97.2133L47.0801 96.9333C46.5334 96.7867 46.1601 96.5967 45.9601 96.3633C45.7668 96.1233 45.6701 95.8 45.6701 95.3933C45.6701 94.9133 45.7901 94.5667 46.0301 94.3533C46.2701 94.14 46.6568 94.0333 47.1901 94.0333H50.1801V94.9333H47.3701C47.1701 94.9333 47.0268 94.9667 46.9401 95.0333C46.8535 95.1 46.8101 95.2267 46.8101 95.4133C46.8101 95.5533 46.8568 95.6733 46.9501 95.7733C47.0501 95.8667 47.1435 95.93 47.2301 95.9633C47.3235 95.9967 47.4601 96.04 47.6401 96.0933L48.7801 96.4133C49.0135 96.48 49.1935 96.5367 49.3201 96.5833C49.4468 96.6233 49.5901 96.6867 49.7501 96.7733C49.9168 96.8533 50.0401 96.9433 50.1201 97.0433C50.2068 97.1433 50.2801 97.2733 50.3401 97.4333C50.4001 97.5933 50.4301 97.7767 50.4301 97.9833C50.4301 98.4233 50.3335 98.76 50.1401 98.9933C49.9468 99.22 49.6101 99.3333 49.1301 99.3333H45.7401Z" fill="white"/>
<path d="M51.0233 99.3333V98.4333H54.0033C54.1367 98.4333 54.25 98.3933 54.3433 98.3133C54.4433 98.2333 54.4933 98.1133 54.4933 97.9533C54.4933 97.8467 54.4733 97.7567 54.4333 97.6833C54.3933 97.6033 54.3267 97.54 54.2333 97.4933C54.14 97.44 54.06 97.4033 53.9933 97.3833C53.9267 97.3567 53.82 97.3267 53.6733 97.2933C53.5267 97.2533 53.43 97.2267 53.3833 97.2133L52.3633 96.9333C51.8167 96.7867 51.4433 96.5967 51.2433 96.3633C51.05 96.1233 50.9533 95.8 50.9533 95.3933C50.9533 94.9133 51.0733 94.5667 51.3133 94.3533C51.5533 94.14 51.94 94.0333 52.4733 94.0333H55.4633V94.9333H52.6533C52.4533 94.9333 52.31 94.9667 52.2233 95.0333C52.1367 95.1 52.0933 95.2267 52.0933 95.4133C52.0933 95.5533 52.14 95.6733 52.2333 95.7733C52.3333 95.8667 52.4267 95.93 52.5133 95.9633C52.6067 95.9967 52.7433 96.04 52.9233 96.0933L54.0633 96.4133C54.2967 96.48 54.4767 96.5367 54.6033 96.5833C54.73 96.6233 54.8733 96.6867 55.0333 96.7733C55.2 96.8533 55.3233 96.9433 55.4033 97.0433C55.49 97.1433 55.5633 97.2733 55.6233 97.4333C55.6833 97.5933 55.7133 97.7767 55.7133 97.9833C55.7133 98.4233 55.6167 98.76 55.4233 98.9933C55.23 99.22 54.8933 99.3333 54.4133 99.3333H51.0233Z" fill="white"/>
<path d="M56.4365 99.3333V94.0333H57.6065V99.3333H56.4365ZM57.6065 93.3333H56.4365V92.2533H57.6065V93.3333Z" fill="white"/>
<path d="M61.2764 99.3333H59.4264C58.8264 99.3333 58.5264 99.0333 58.5264 98.4333V92.3333H59.6964V94.0333H61.2764C62.083 94.0333 62.6464 94.2567 62.9664 94.7033C63.2864 95.15 63.4464 95.8067 63.4464 96.6733C63.4464 97.54 63.283 98.2 62.9564 98.6533C62.6364 99.1067 62.0764 99.3333 61.2764 99.3333ZM59.6964 94.9333V98.1333C59.6964 98.3333 59.7964 98.4333 59.9964 98.4333H60.9864C61.4997 98.4333 61.8364 98.2867 61.9964 97.9933C62.1564 97.7 62.2364 97.26 62.2364 96.6733C62.2364 96.3867 62.223 96.1533 62.1964 95.9733C62.1697 95.7867 62.1164 95.6067 62.0364 95.4333C61.9564 95.26 61.8297 95.1333 61.6564 95.0533C61.483 94.9733 61.2597 94.9333 60.9864 94.9333H59.6964Z" fill="white"/>
<path d="M64.21 99.3333V94.0333H65.38V99.3333H64.21ZM65.38 93.3333H64.21V92.2533H65.38V93.3333Z" fill="white"/>
<path d="M66.2998 99.3333V92.3333H67.4698V99.3333H66.2998Z" fill="white"/>
<path d="M68.3896 99.3333V94.0333H69.5596V99.3333H68.3896ZM69.5596 93.3333H68.3896V92.2533H69.5596V93.3333Z" fill="white"/>
<path d="M73.4295 99.3333H72.6995C72.0662 99.3333 71.5828 99.2 71.2495 98.9333C70.9162 98.6667 70.7495 98.2233 70.7495 97.6033V94.9333H70.0195V94.0333H70.7495V92.3333H71.9195V94.0333H73.4295V94.9333H71.9195V97.3633C71.9195 97.75 72.0195 98.0267 72.2195 98.1933C72.4195 98.3533 72.7262 98.4333 73.1395 98.4333H73.4295V99.3333Z" fill="white"/>
<path d="M73.8877 99.3333V94.0333H75.0577V99.3333H73.8877ZM75.0577 93.3333H73.8877V92.2533H75.0577V93.3333Z" fill="white"/>
<path d="M80.7575 99.3333H77.8175C77.4042 99.3333 77.0609 99.2767 76.7875 99.1633C76.5209 99.05 76.3175 98.8733 76.1775 98.6333C76.0375 98.3867 75.9409 98.1133 75.8875 97.8133C75.8409 97.5133 75.8175 97.1333 75.8175 96.6733C75.8175 95.6467 76.0109 94.94 76.3975 94.5533C76.7909 94.1667 77.4509 93.9733 78.3775 93.9733C79.2042 93.9733 79.8342 94.1267 80.2675 94.4333C80.7075 94.7333 80.9275 95.28 80.9275 96.0733C80.9275 96.74 80.6542 97.0733 80.1075 97.0733H77.0275C77.0275 97.5333 77.1009 97.8767 77.2475 98.1033C77.4009 98.3233 77.7075 98.4333 78.1675 98.4333H80.7575V99.3333ZM77.0275 96.1733H79.4575C79.6309 96.1733 79.7175 96.07 79.7175 95.8633C79.7175 95.5367 79.5875 95.29 79.3275 95.1233C79.0742 94.9567 78.7575 94.8733 78.3775 94.8733C77.8842 94.8733 77.5342 94.9767 77.3275 95.1833C77.1275 95.3833 77.0275 95.7133 77.0275 96.1733Z" fill="white"/>
<path d="M81.5604 99.3333V98.4333H84.5404C84.6738 98.4333 84.7871 98.3933 84.8804 98.3133C84.9804 98.2333 85.0304 98.1133 85.0304 97.9533C85.0304 97.8467 85.0104 97.7567 84.9704 97.6833C84.9304 97.6033 84.8638 97.54 84.7704 97.4933C84.6771 97.44 84.5971 97.4033 84.5304 97.3833C84.4638 97.3567 84.3571 97.3267 84.2104 97.2933C84.0638 97.2533 83.9671 97.2267 83.9204 97.2133L82.9004 96.9333C82.3538 96.7867 81.9804 96.5967 81.7804 96.3633C81.5871 96.1233 81.4904 95.8 81.4904 95.3933C81.4904 94.9133 81.6104 94.5667 81.8504 94.3533C82.0904 94.14 82.4771 94.0333 83.0104 94.0333H86.0004V94.9333H83.1904C82.9904 94.9333 82.8471 94.9667 82.7604 95.0333C82.6738 95.1 82.6304 95.2267 82.6304 95.4133C82.6304 95.5533 82.6771 95.6733 82.7704 95.7733C82.8704 95.8667 82.9638 95.93 83.0504 95.9633C83.1438 95.9967 83.2804 96.04 83.4604 96.0933L84.6004 96.4133C84.8338 96.48 85.0138 96.5367 85.1404 96.5833C85.2671 96.6233 85.4104 96.6867 85.5704 96.7733C85.7371 96.8533 85.8604 96.9433 85.9404 97.0433C86.0271 97.1433 86.1004 97.2733 86.1604 97.4333C86.2204 97.5933 86.2504 97.7767 86.2504 97.9833C86.2504 98.4233 86.1538 98.76 85.9604 98.9933C85.7671 99.22 85.4304 99.3333 84.9504 99.3333H81.5604Z" fill="white"/>
</svg>
