<svg width="120" height="120" viewBox="0 0 120 120" fill="none" xmlns="http://www.w3.org/2000/svg">
<path d="M120 60C120 93.1371 93.1371 120 60 120C26.8629 120 0 93.1371 0 60C0 26.8629 26.8629 0 60 0C93.1371 0 120 26.8629 120 60Z" fill="#1D1D1F"/>
<path d="M59.0493 35.5272H45.9291C43.4962 35.5272 41.8019 36.0608 40.8461 37.1278C39.8903 38.1661 39.4124 40.1705 39.4124 43.141C39.4124 46.1115 39.8903 48.1303 40.8461 49.1974C41.8019 50.2356 43.4962 50.7547 45.9291 50.7547H48.0144C49.2888 50.7547 49.926 50.1203 49.926 48.8513V42.2758H59.7444V53.5234C59.7444 55.023 59.3245 56.1911 58.4845 57.0274C57.6446 57.8638 56.4716 58.282 54.9655 58.282H42.6273C37.7326 58.282 34.286 57.0995 32.2876 54.7346C30.3181 52.3409 29.3333 48.4764 29.3333 43.141C29.3333 37.8056 30.3181 33.9555 32.2876 31.5906C34.286 29.1969 37.7326 28 42.6273 28H59.0493V35.5272Z" fill="white"/>
<path d="M62.2106 58.282V50.7547H79.067C80.1966 50.7547 80.7613 50.4375 80.7613 49.803C80.7613 49.3993 80.602 49.0964 80.2834 48.8946C79.9649 48.6927 79.4725 48.4908 78.8063 48.2889L67.0329 45.0012C63.6153 44.0783 61.9065 41.0645 61.9065 35.9598C61.9065 30.6533 64.2814 28 69.0313 28H89.1027V35.5272H73.6365C72.2462 35.5272 71.5511 35.8445 71.5511 36.479C71.5511 36.9404 71.7683 37.2865 72.2028 37.5172C72.6372 37.7479 73.2744 37.9642 74.1143 38.1661L84.3672 40.8915C86.6553 41.4971 88.2772 42.5065 89.233 43.9197C90.1888 45.304 90.6667 47.3084 90.6667 49.9328C90.6667 52.7014 90.1019 54.7923 88.9723 56.2055C87.8717 57.5898 85.9747 58.282 83.2811 58.282H62.2106Z" fill="white"/>
<path d="M61.5762 73.3117L56.8842 87.9336C56.5946 88.8276 56.2905 89.5342 55.9719 90.0533C55.6823 90.5436 55.1175 90.9906 54.2776 91.3944C53.4666 91.7981 52.3805 92 51.0192 92C49.0787 92 47.7174 91.6683 46.9354 91.005C46.1824 90.3129 45.5887 89.289 45.1542 87.9336L40.4622 73.3117C40.2305 72.5907 40.0423 72.2302 39.8975 72.2302C39.6368 72.2302 39.5065 72.5619 39.5065 73.2252L39.8106 91.6539H29.9052V66.3469C29.9052 62.7995 32.396 61.0259 37.3777 61.0259C38.1886 61.0259 38.8982 61.0836 39.5065 61.1989C40.1436 61.2854 40.8532 61.4873 41.6352 61.8046C42.4172 62.093 43.1123 62.5977 43.7206 63.3187C44.3288 64.0397 44.8212 64.9481 45.1977 66.044L50.1069 80.7524C50.3676 81.6753 50.6717 82.1367 51.0192 82.1367C51.3668 82.1367 51.6709 81.6753 51.9316 80.7524L56.8408 66.044C57.2173 64.9481 57.7097 64.0397 58.3179 63.3187C58.9261 62.5977 59.6212 62.093 60.4032 61.8046C61.1852 61.4873 61.8948 61.2854 62.532 61.1989C63.1692 61.0836 63.8788 61.0259 64.6608 61.0259C69.6424 61.0259 72.1332 62.7995 72.1332 66.3469V91.6539H62.2279L62.5754 73.2252C62.5754 72.5619 62.4451 72.2302 62.1844 72.2302C62.0107 72.2302 61.8079 72.5907 61.5762 73.3117Z" fill="white"/>
<path d="M79.8344 91.6539V71.4083C79.8344 70.8603 79.8055 70.4421 79.7475 70.1537C79.6896 69.8365 79.5158 69.5481 79.2262 69.2885C78.9655 69.029 78.56 68.8992 78.0097 68.8992H74.317V61.372H84.7871C86.2931 61.372 87.4806 61.819 88.3495 62.713C89.2184 63.5782 89.6528 64.7751 89.6528 66.3036V91.6539H79.8344Z" fill="white"/>
</svg>
