<svg width="120" height="120" viewBox="0 0 120 120" fill="none" xmlns="http://www.w3.org/2000/svg">
<path d="M120 60C120 93.1371 93.1371 120 60 120C26.8629 120 0 93.1371 0 60C0 26.8629 26.8629 0 60 0C93.1371 0 120 26.8629 120 60Z" fill="#1D1D1F"/>
<path d="M57.1613 80.6667H39.2473C32.6515 80.6667 28.0072 79.0527 25.3142 75.8248C22.6603 72.5575 21.3333 67.2825 21.3333 60C21.3333 52.7175 22.6603 47.4622 25.3142 44.2343C28.0072 40.967 32.6515 39.3333 39.2473 39.3333H56.5759V49.6076H46.0383C41.55 49.6076 38.5643 50.2571 37.0813 51.5562C35.6372 52.8552 34.9152 55.6698 34.9152 60C34.9152 64.3302 35.6372 67.1448 37.0813 68.4438C38.5643 69.7429 41.55 70.3924 46.0383 70.3924H57.1613V80.6667Z" fill="white"/>
<path d="M97.0992 39.3333V49.3714H76.8435C75.1262 49.3714 74.2676 50.2375 74.2676 51.9695V55.04H96.6308V64.1333H74.2676V68.0305C74.2676 69.7625 75.1262 70.6286 76.8435 70.6286H97.3333V80.6667H67.4767C65.4472 80.6667 63.8666 80.0959 62.7347 78.9543C61.6029 77.8127 61.037 76.2184 61.037 74.1714V45.8286C61.037 43.7816 61.6029 42.1873 62.7347 41.0457C63.8666 39.9041 65.4472 39.3333 67.4767 39.3333H97.0992Z" fill="white"/>
</svg>
