<svg width="40" height="40" viewBox="0 0 40 40" fill="none" xmlns="http://www.w3.org/2000/svg">
<path opacity="0.66" d="M40 20C40 31.0457 31.0457 40 20 40C8.95431 40 0 31.0457 0 20C0 8.95431 8.95431 0 20 0C31.0457 0 40 8.95431 40 20Z" fill="#C3C3C7"/>
<path d="M22.6363 10.1695L23.5322 11.0282C23.7114 11.2542 23.7114 11.6158 23.5322 11.7966L15.4242 19.9774L23.5322 28.2034C23.7114 28.3842 23.7114 28.7458 23.5322 28.9718L22.6363 29.8305C22.4123 30.0565 22.0988 30.0565 21.8748 29.8305L12.4677 20.3842C12.2885 20.1582 12.2885 19.8418 12.4677 19.6158L21.8748 10.1695C22.0988 9.9435 22.4123 9.9435 22.6363 10.1695Z" fill="#1D1D1F"/>
</svg>
