<svg id="Layer_1" data-name="Layer 1" xmlns="http://www.w3.org/2000/svg" width="36" height="30" viewBox="0 0 36 30"><defs><style>.cls-1{fill:#999999;}</style></defs><title>ti-dlvr2</title><path class="cls-1" d="M6.72,21.07a.7.7,0,0,0-.71.7v3.91a.71.71,0,0,0,1.42,0V21.77A.7.7,0,0,0,6.72,21.07Z" transform="translate(0 0)"/><path class="cls-1" d="M7.22,18.6a.73.73,0,0,0-.5-.21.71.71,0,0,0-.5.21.69.69,0,0,0,0,1,.7.7,0,0,0,.5.2.72.72,0,0,0,.5-.2.69.69,0,0,0,0-1Z" transform="translate(0 0)"/><path class="cls-1" d="M4.17,18.21a.7.7,0,0,0-.71.7v6.77a.71.71,0,0,0,1.42,0V18.91A.7.7,0,0,0,4.17,18.21Z" transform="translate(0 0)"/><path class="cls-1" d="M10.18,15.49H7.57V6.59l1-1A.69.69,0,0,0,8.72,5L7.73.66A.71.71,0,0,0,7,.12H3.84a.72.72,0,0,0-.69.54L2.16,5a.69.69,0,0,0,.19.64l1,1v8.9H.71a.7.7,0,1,0,0,1.39H.89v8.63a4.55,4.55,0,0,0,9.1,0V16.88h.19a.7.7,0,1,0,0-1.39Zm-5.77-14H6.48L7.26,4.9l-.91.93a.67.67,0,0,0-.2.53v9.13H4.74V6.38a.68.68,0,0,0-.2-.55L3.63,4.9Zm4.17,24a3.14,3.14,0,0,1-6.27,0V16.88H8.58v8.63Z" transform="translate(0 0)"/><path class="cls-1" d="M21,13.66a.72.72,0,0,0-1,0,.71.71,0,1,0,1,0Z" transform="translate(0 0)"/><path class="cls-1" d="M21.19,20.06V17a.71.71,0,0,0-1.42,0v3.46a.68.68,0,0,0,.37.61,4.1,4.1,0,0,1,.13,7.16V25.71a2.13,2.13,0,0,0-4.25,0v2.53a4.08,4.08,0,0,1-2-3.55,4.13,4.13,0,0,1,2.18-3.61.7.7,0,0,0,.36-.61V9.54a.68.68,0,0,0-.37-.61A4.1,4.1,0,0,1,16,1.77V4.29a2.13,2.13,0,0,0,4.25,0V1.76a4.1,4.1,0,0,1-.13,7.16.68.68,0,0,0-.37.61v1.74a.71.71,0,0,0,1.42,0V9.93h0a5.52,5.52,0,0,0,2.54-4.62A5.45,5.45,0,0,0,22.61,2a5.64,5.64,0,0,0-2.85-2,.72.72,0,0,0-.62.11.7.7,0,0,0-.29.56V4.29a.71.71,0,0,1-1.42,0V.7a.69.69,0,0,0-.28-.56A.74.74,0,0,0,16.52,0a5.53,5.53,0,0,0-4,5.55A5.45,5.45,0,0,0,15.1,9.94V20.07a5.5,5.5,0,0,0-2.54,4.62A5.39,5.39,0,0,0,13.68,28a5.66,5.66,0,0,0,2.84,2l.2,0a.76.76,0,0,0,.43-.14.69.69,0,0,0,.28-.56V25.71a.71.71,0,0,1,1.42,0V29.3a.7.7,0,0,0,.29.56.72.72,0,0,0,.62.11,5.52,5.52,0,0,0,4-5.55A5.44,5.44,0,0,0,21.19,20.06Z" transform="translate(0 0)"/><path class="cls-1" d="M35.65,4.25,31.39,1.82a.75.75,0,0,0-.71,0L26.43,4.25a.68.68,0,0,0-.35.6V9.7a.71.71,0,0,0,.35.61l4.25,2.42a.77.77,0,0,0,.36.09.73.73,0,0,0,.35-.09l4.26-2.42A.73.73,0,0,0,36,9.7V4.85A.7.7,0,0,0,35.65,4.25ZM34.58,9.3l-3.54,2-3.54-2v-4l3.54-2,3.54,2Z" transform="translate(0 0)"/><path class="cls-1" d="M31,5a2.24,2.24,0,1,0,2.27,2.24A2.26,2.26,0,0,0,31,5Zm0,3.08a.84.84,0,1,1,.85-.84A.85.85,0,0,1,31,8.12Z" transform="translate(0 0)"/><path class="cls-1" d="M35.29,15.16h-8.5a.71.71,0,0,0-.71.7v4.06a.7.7,0,0,0,.71.7h1.27v3.59h0v4.18A1.62,1.62,0,0,0,29.69,30h2.7A1.63,1.63,0,0,0,34,28.39V20.62h1.27a.7.7,0,0,0,.71-.7V15.86A.71.71,0,0,0,35.29,15.16ZM32.6,28.39a.22.22,0,0,1-.21.21H29.71l2.89-2.86Zm0-4.62-3.12,3.07V24.5l3.12-3.08Zm-3.12-1.25v-1.9h1.93Zm5.1-3.3H27.5V16.56h7.08Z" transform="translate(0 0)"/></svg>