<svg id="Layer_1" data-name="Layer 1" xmlns="http://www.w3.org/2000/svg" width="36" height="30" viewBox="0 0 36 30"><defs><style>.cls-1{fill:#999999;}</style></defs><title>ti-dlvr1</title><path class="cls-1" d="M33.48,16.92l-.93-3.71a.57.57,0,0,0,.44-.55v-.6A2.36,2.36,0,0,0,30.63,9.7H26.38l0-8.54A1.16,1.16,0,0,0,25.25,0H3.61A1.17,1.17,0,0,0,2.44,1.16l0,17.49a.57.57,0,0,0,.57.56.56.56,0,0,0,.56-.56l0-17.49a0,0,0,0,1,0,0H25.25a0,0,0,0,1,0,0l0,17.49a.57.57,0,0,0,1.13,0V18H33a1.83,1.83,0,0,1,1.75,1.28H33a.56.56,0,0,0-.56.56v1.2a1.76,1.76,0,0,0,1.76,1.76h.64v2.47H33.4a3.57,3.57,0,0,0-6.75,0h-.27V21.05a.57.57,0,1,0-1.13,0v4.23H13.56a3.57,3.57,0,0,0-6.75,0H3.57a0,0,0,0,1,0,0V24H6a.57.57,0,0,0,.57-.57A.56.56,0,0,0,6,22.88H.56a.56.56,0,0,0-.56.56A.57.57,0,0,0,.56,24H2.41v1.23A1.16,1.16,0,0,0,3.57,26.4h3v0a3.57,3.57,0,0,0,7.14,0v0H26.46v0a3.57,3.57,0,0,0,7.13,0v0h1.85a.56.56,0,0,0,.56-.56v-6A3,3,0,0,0,33.48,16.92Zm-7.1-6.1h4.25a1.24,1.24,0,0,1,1.24,1.24v0H26.38Zm0,6.07V13.22h5l.92,3.67Zm-16.2,12a2.44,2.44,0,1,1,2.45-2.44A2.45,2.45,0,0,1,10.18,28.88Zm19.85,0a2.44,2.44,0,1,1,2.44-2.44A2.45,2.45,0,0,1,30,28.88Zm4.84-7.2h-.64a.63.63,0,0,1-.63-.63v-.64h1.27v1.27Z"/><path class="cls-1" d="M10.18,25.28a1.16,1.16,0,1,0,1.17,1.16A1.16,1.16,0,0,0,10.18,25.28Z"/><path class="cls-1" d="M30,25.28a1.16,1.16,0,1,0,1.16,1.16A1.16,1.16,0,0,0,30,25.28Z"/><path class="cls-1" d="M23.41,22.88H15a.56.56,0,0,0-.56.56A.57.57,0,0,0,15,24h8.42a.57.57,0,0,0,.56-.57A.56.56,0,0,0,23.41,22.88Z"/><path class="cls-1" d="M9,20.49H1.77a.56.56,0,1,0,0,1.12H9a.56.56,0,1,0,0-1.12Z"/><path class="cls-1" d="M19.6,10.54a.57.57,0,0,0-.8,0l-5,5-2.61-2.6a.56.56,0,0,0-.79,0,.57.57,0,0,0,0,.8l3,3a.58.58,0,0,0,.4.17c.15,0,.29-.06.4-.38l5.41-5.39C19.82,11.11,19.82,10.75,19.6,10.54Z"/></svg>