<svg xmlns="http://www.w3.org/2000/svg" width="80" height="80" viewBox="0 0 80 80"><defs><style>.cls-1{fill:#ddd;}.cls-2{fill:#666;}</style></defs><title>ti-pay3</title><g id="Layer_1" data-name="Layer 1"><rect class="cls-1" width="80" height="80"/></g><g id="Layer_3" data-name="Layer 3"><g id="surface1"><path class="cls-2" d="M12.39,27c0,.12,0,.24,0,.36v2.47a2.47,2.47,0,0,0,1.59,2.29v3.63A2.28,2.28,0,0,0,16.12,38V59a2.28,2.28,0,0,0-2.18,2.27v3.63a2.47,2.47,0,0,0-1.59,2.3V69.6a.82.82,0,0,0,.82.81h55A.82.82,0,0,0,69,69.6V67.18a2.48,2.48,0,0,0-1.59-2.3V61.23A2.29,2.29,0,0,0,65.22,59V38a2.29,2.29,0,0,0,2.18-2.27V32.1A2.47,2.47,0,0,0,69,29.81V27.36c0-.12,0-.24,0-.36A.81.81,0,0,0,70,26.59a.82.82,0,0,0-.41-1.07L41,10.51a.79.79,0,0,0-.76,0l-28.56,15A.81.81,0,0,0,12.39,27Zm3.18,6.53V32.25H25V33.5ZM36.51,38V59a2.28,2.28,0,0,0-2.17,2.27v3.47H26.6V61.25A2.29,2.29,0,0,0,24.42,59V38a2.29,2.29,0,0,0,2.18-2.27V32.25h7.73v3.47A2.28,2.28,0,0,0,36.5,38ZM36,33.51V32.25h9.41V33.5ZM56.91,38V59a2.28,2.28,0,0,0-2.17,2.27v3.47H47V61.25A2.29,2.29,0,0,0,44.82,59V38A2.29,2.29,0,0,0,47,35.73V32.25h7.73v3.47A2.28,2.28,0,0,0,56.9,38Zm-.54-4.5V32.25h9.41V33.5Zm9.41,30v1.24H56.36V63.48Zm-20.4,0v1.24H36V63.48ZM37.32,36.39h-.71a.66.66,0,0,1-.65-.66v-.59h9.41v.59a.67.67,0,0,1-.66.66ZM43.2,38V59H38.14V38ZM37.32,60.6h7.39a.66.66,0,0,1,.66.65v.6H36v-.6a.65.65,0,0,1,.65-.65ZM25,63.48v1.24H15.56V63.48ZM15.56,35.75v-.61H25v.59a.67.67,0,0,1-.66.66H16.2a.66.66,0,0,1-.64-.66ZM22.79,38V59H17.74V38ZM15.56,61.27a.65.65,0,0,1,.65-.65h8.1a.66.66,0,0,1,.66.65v.59H15.56Zm51.79,5.94v1.6H14v-1.6a.85.85,0,0,1,.85-.84H66.51a.84.84,0,0,1,.84.83Zm-1.58-5.94v.59H56.36v-.59a.65.65,0,0,1,.65-.65h8.12a.66.66,0,0,1,.64.63ZM58.53,59V38H63.6V59Zm7.24-23.24a.66.66,0,0,1-.66.65H57a.65.65,0,0,1-.65-.65v-.61h9.4ZM40.66,12.14,65,24.9H16.38ZM14,27.36a.82.82,0,0,1,.82-.82H66.54a.82.82,0,0,1,.81.82v2.47a.81.81,0,0,1-.81.81H14.79a.82.82,0,0,1-.82-.81Z"/></g></g></svg>