<svg id="Layer_1" data-name="Layer 1" xmlns="http://www.w3.org/2000/svg" width="80" height="80" viewBox="0 0 80 80"><defs><style>.cls-1{fill:#ddd;}.cls-2{fill:#666;}</style></defs><title>ti-pay1</title><rect class="cls-1" width="80" height="80"/><path class="cls-2" d="M44.4,15.37H27.74a.88.88,0,1,0,0,1.76H44.4a.88.88,0,1,0,0-1.76Z"/><path class="cls-2" d="M44.4,20.74H27.74a.88.88,0,1,0,0,1.76H44.4a.88.88,0,1,0,0-1.76Z"/><path class="cls-2" d="M29.33,55H25.1a.88.88,0,0,0,0,1.76h4.23a.88.88,0,0,0,0-1.76Z"/><path class="cls-2" d="M38.18,55H34a.88.88,0,0,0,0,1.76h4.23a.88.88,0,0,0,0-1.76Z"/><path class="cls-2" d="M47,55H42.8a.88.88,0,0,0,0,1.76H47A.88.88,0,1,0,47,55Z"/><path class="cls-2" d="M29.33,59H25.1a.88.88,0,1,0,0,1.76h4.23a.88.88,0,0,0,0-1.76Z"/><path class="cls-2" d="M38.18,59H34a.88.88,0,0,0,0,1.76h4.23a.88.88,0,1,0,0-1.76Z"/><path class="cls-2" d="M47,59H42.8a.88.88,0,0,0,0,1.76H47A.88.88,0,1,0,47,59Z"/><path class="cls-2" d="M29.33,62.94H25.1a.88.88,0,0,0,0,1.76h4.23a.88.88,0,0,0,0-1.76Z"/><path class="cls-2" d="M38.18,62.94H34a.88.88,0,0,0,0,1.76h4.23a.88.88,0,0,0,0-1.76Z"/><path class="cls-2" d="M47,62.94H42.8a.88.88,0,0,0,0,1.76H47a.88.88,0,1,0,0-1.76Z"/><path class="cls-2" d="M49.69,33.11a1.83,1.83,0,0,0-1.83-1.83H24.28a1.84,1.84,0,0,0-1.84,1.83v2.53a.88.88,0,1,0,1.76,0V33.11a.07.07,0,0,1,.08-.07H47.86a.08.08,0,0,1,.08.07v9.17a.09.09,0,0,1-.08.08H24.28a.08.08,0,0,1-.08-.08V39.75a.88.88,0,0,0-1.76,0v2.53a1.84,1.84,0,0,0,1.84,1.83H47.86a1.83,1.83,0,0,0,1.83-1.83V33.11Z"/><path class="cls-2" d="M30.56,48a1.75,1.75,0,0,0-1.75-1.76H24.5a1.75,1.75,0,0,0-1.71,2.16l.57,2.41a1.76,1.76,0,0,0,1.71,1.35h3.74a1.75,1.75,0,0,0,1.75-1.76Zm-5.49,2.4L24.5,48h4.31v2.4Z"/><path class="cls-2" d="M40.1,50.38V48a1.76,1.76,0,0,0-1.76-1.76H33.8A1.76,1.76,0,0,0,32,48v2.4a1.76,1.76,0,0,0,1.76,1.76h4.54A1.76,1.76,0,0,0,40.1,50.38Zm-6.3,0V48h4.54v2.4Z"/><path class="cls-2" d="M48.77,50.79l.58-2.41a1.76,1.76,0,0,0-1.71-2.16H43.33A1.76,1.76,0,0,0,41.57,48v2.4a1.76,1.76,0,0,0,1.76,1.76h3.74A1.75,1.75,0,0,0,48.77,50.79Zm-1.7-.41H43.33V48h4.31Z"/><path class="cls-2" d="M61.91,18.39H57.15V14.31A4.44,4.44,0,0,0,52.69,10H26.86a4.71,4.71,0,0,0-4.7,4.7v7.52a5.28,5.28,0,0,0-4.48,5.21V39.16c0,6.6,1.16,8.37,1.16,14.8V65.54A4.47,4.47,0,0,0,23.31,70H48.83a4.46,4.46,0,0,0,4.46-4.46V61.93a.88.88,0,1,0-1.75,0v3.61a2.71,2.71,0,0,1-2.71,2.7H23.31a2.7,2.7,0,0,1-2.71-2.7V54c0-6.57-1.16-8.39-1.16-14.8V27.43A3.52,3.52,0,0,1,22.16,24v2.25a2.28,2.28,0,0,0,2.29,2.28H47.69A2.29,2.29,0,0,0,50,26.26V24a3.52,3.52,0,0,1,2.72,3.42V39.16c0,6.41-1.16,8.23-1.16,14.8v3.79a.88.88,0,1,0,1.75,0V54c0-6.4,1.17-8.24,1.17-14.8V31.21h5.4a4.48,4.48,0,0,0,4.46-4.47V20.8a2.41,2.41,0,0,0-2.41-2.41ZM48.22,26.26a.53.53,0,0,1-.53.53H24.45a.53.53,0,0,1-.53-.53V14.7a2.94,2.94,0,0,1,2.94-2.94H49.14a4.4,4.4,0,0,0-.92,2.7Zm6.24,3.19v-2A5.28,5.28,0,0,0,50,22.22V14.46a2.71,2.71,0,0,1,5.41-.1V26.74a4.41,4.41,0,0,0,.92,2.71Zm8.1-2.71a2.71,2.71,0,1,1-5.41,0V20.15h4.76a.65.65,0,0,1,.65.65Z"/></svg>