<?xml version="1.0" encoding="UTF-8"?><svg id="Layer_1" xmlns="http://www.w3.org/2000/svg" width="30cm" height="30cm" viewBox="0 0 850.39 850.39"><defs><style>.cls-1,.cls-2{stroke-width:0px;}.cls-2{fill:#fff;}</style></defs><rect class="cls-2" x=".5" y=".5" width="849.39" height="849.39"/><path class="cls-1" d="m849.39,1v848.39H1V1h848.39m1-1H0v850.39h850.39V0h0Z"/><rect class="cls-1" x="358.16" y="70.87" width="19.15" height="19.15"/><rect class="cls-1" x="568.84" y="70.87" width="19.15" height="19.15"/><rect class="cls-1" x="607.15" y="70.87" width="19.15" height="19.15"/><path class="cls-1" d="m760.37,70.87h-114.92v134.07h134.07V70.87h-19.15Zm0,38.31v76.61h-95.77v-95.77h95.77v19.15Z"/><polygon class="cls-1" points="434.77 109.17 434.77 90.02 453.93 90.02 453.93 109.17 473.08 109.17 473.08 90.02 492.23 90.02 492.23 109.17 511.39 109.17 511.39 90.02 511.39 70.87 492.23 70.87 473.08 70.87 453.93 70.87 434.77 70.87 415.62 70.87 396.47 70.87 396.47 90.02 396.47 109.17 415.62 109.17 434.77 109.17"/><rect class="cls-1" x="434.77" y="109.17" width="19.15" height="19.15"/><polygon class="cls-1" points="702.92 109.17 683.76 109.17 683.76 128.33 683.76 147.48 683.76 166.63 702.92 166.63 722.07 166.63 741.22 166.63 741.22 147.48 741.22 128.33 741.22 109.17 722.07 109.17 702.92 109.17"/><polygon class="cls-1" points="626.3 128.33 626.3 109.17 607.15 109.17 607.15 128.33 607.15 147.48 626.3 147.48 626.3 128.33"/><polygon class="cls-1" points="147.48 166.63 166.63 166.63 166.63 147.48 166.63 128.33 166.63 109.17 147.48 109.17 128.33 109.17 109.17 109.17 109.17 128.33 109.17 147.48 109.17 166.63 128.33 166.63 147.48 166.63"/><polygon class="cls-1" points="453.93 166.63 473.08 166.63 473.08 147.48 492.23 147.48 511.39 147.48 530.54 147.48 530.54 166.63 549.69 166.63 549.69 185.78 568.84 185.78 568.84 204.94 588 204.94 588 185.78 588 166.63 588 147.48 568.84 147.48 568.84 128.33 588 128.33 588 109.17 568.84 109.17 568.84 90.02 549.69 90.02 549.69 109.17 530.54 109.17 530.54 128.33 511.39 128.33 492.23 128.33 473.08 128.33 453.93 128.33 453.93 147.48 453.93 166.63"/><polygon class="cls-1" points="262.4 166.63 281.55 166.63 281.55 147.48 281.55 128.33 300.7 128.33 319.86 128.33 319.86 147.48 319.86 166.63 319.86 185.78 339.01 185.78 339.01 204.94 358.16 204.94 358.16 185.78 377.31 185.78 377.31 166.63 396.47 166.63 396.47 185.78 415.62 185.78 415.62 204.94 396.47 204.94 396.47 224.09 415.62 224.09 415.62 243.24 434.77 243.24 434.77 262.4 434.77 281.55 415.62 281.55 415.62 300.7 434.77 300.7 434.77 319.86 453.93 319.86 453.93 300.7 473.08 300.7 492.23 300.7 511.39 300.7 511.39 281.55 530.54 281.55 549.69 281.55 568.84 281.55 568.84 262.4 588 262.4 588 281.55 607.15 281.55 607.15 262.4 626.3 262.4 626.3 243.24 626.3 224.09 626.3 204.94 626.3 185.78 607.15 185.78 607.15 204.94 588 204.94 588 224.09 607.15 224.09 607.15 243.24 588 243.24 568.84 243.24 568.84 224.09 568.84 204.94 549.69 204.94 549.69 224.09 530.54 224.09 530.54 204.94 511.39 204.94 511.39 224.09 492.23 224.09 492.23 243.24 511.39 243.24 530.54 243.24 549.69 243.24 549.69 262.4 530.54 262.4 511.39 262.4 492.23 262.4 492.23 281.55 473.08 281.55 453.93 281.55 453.93 262.4 453.93 243.24 473.08 243.24 473.08 224.09 453.93 224.09 434.77 224.09 434.77 204.94 434.77 185.78 434.77 166.63 434.77 147.48 415.62 147.48 415.62 128.33 396.47 128.33 396.47 147.48 377.31 147.48 358.16 147.48 339.01 147.48 339.01 128.33 358.16 128.33 377.31 128.33 396.47 128.33 396.47 109.17 377.31 109.17 358.16 109.17 339.01 109.17 319.86 109.17 319.86 90.02 339.01 90.02 339.01 70.87 319.86 70.87 300.7 70.87 300.7 90.02 300.7 109.17 281.55 109.17 262.4 109.17 262.4 90.02 262.4 70.87 243.24 70.87 243.24 90.02 243.24 109.17 224.09 109.17 224.09 128.33 224.09 147.48 243.24 147.48 243.24 166.63 243.24 185.78 262.4 185.78 262.4 166.63"/><rect class="cls-1" x="281.55" y="166.63" width="19.15" height="19.15"/><polygon class="cls-1" points="511.39 166.63 492.23 166.63 492.23 185.78 492.23 204.94 511.39 204.94 511.39 185.78 511.39 166.63"/><path class="cls-1" d="m109.17,204.94h95.77V70.87H70.87v134.07h38.31Zm-19.15-38.31v-76.61h95.77v95.77h-95.77v-19.15Z"/><rect class="cls-1" x="224.09" y="185.78" width="19.15" height="19.15"/><rect class="cls-1" x="377.31" y="185.78" width="19.15" height="19.15"/><rect class="cls-1" x="453.93" y="185.78" width="19.15" height="19.15"/><rect class="cls-1" x="530.54" y="185.78" width="19.15" height="19.15"/><rect class="cls-1" x="473.08" y="204.94" width="19.15" height="19.15"/><polygon class="cls-1" points="147.48 224.09 128.33 224.09 128.33 243.24 147.48 243.24 166.63 243.24 166.63 224.09 147.48 224.09"/><polygon class="cls-1" points="358.16 243.24 377.31 243.24 377.31 224.09 377.31 204.94 358.16 204.94 358.16 224.09 339.01 224.09 339.01 243.24 358.16 243.24"/><polygon class="cls-1" points="204.94 262.4 224.09 262.4 243.24 262.4 262.4 262.4 262.4 243.24 262.4 224.09 281.55 224.09 281.55 243.24 300.7 243.24 300.7 262.4 319.86 262.4 319.86 243.24 319.86 224.09 339.01 224.09 339.01 204.94 319.86 204.94 319.86 185.78 300.7 185.78 300.7 204.94 281.55 204.94 281.55 185.78 262.4 185.78 262.4 204.94 243.24 204.94 243.24 224.09 243.24 243.24 224.09 243.24 224.09 224.09 204.94 224.09 185.78 224.09 185.78 243.24 204.94 243.24 204.94 262.4"/><rect class="cls-1" x="377.31" y="243.24" width="19.15" height="19.15"/><polygon class="cls-1" points="702.92 262.4 702.92 243.24 683.76 243.24 664.61 243.24 664.61 262.4 683.76 262.4 702.92 262.4"/><polygon class="cls-1" points="722.07 262.4 741.22 262.4 741.22 243.24 741.22 224.09 722.07 224.09 702.92 224.09 702.92 243.24 722.07 243.24 722.07 262.4"/><polygon class="cls-1" points="281.55 281.55 300.7 281.55 300.7 262.4 281.55 262.4 262.4 262.4 262.4 281.55 281.55 281.55"/><polygon class="cls-1" points="702.92 281.55 683.76 281.55 683.76 300.7 702.92 300.7 722.07 300.7 741.22 300.7 741.22 281.55 722.07 281.55 722.07 262.4 702.92 262.4 702.92 281.55"/><rect class="cls-1" x="760.37" y="262.4" width="19.15" height="19.15"/><polygon class="cls-1" points="185.78 300.7 185.78 281.55 204.94 281.55 204.94 262.4 185.78 262.4 185.78 243.24 166.63 243.24 166.63 262.4 166.63 281.55 147.48 281.55 128.33 281.55 128.33 262.4 109.17 262.4 109.17 243.24 90.02 243.24 70.87 243.24 70.87 262.4 90.02 262.4 90.02 281.55 90.02 300.7 70.87 300.7 70.87 319.86 70.87 339.01 90.02 339.01 90.02 319.86 109.17 319.86 109.17 339.01 90.02 339.01 90.02 358.16 70.87 358.16 70.87 377.31 70.87 396.47 70.87 415.62 90.02 415.62 90.02 396.47 90.02 377.31 109.17 377.31 109.17 358.16 128.33 358.16 128.33 339.01 147.48 339.01 147.48 319.86 128.33 319.86 128.33 300.7 147.48 300.7 147.48 319.86 166.63 319.86 166.63 300.7 185.78 300.7"/><rect class="cls-1" x="568.84" y="281.55" width="19.15" height="19.15"/><polygon class="cls-1" points="626.3 300.7 645.46 300.7 645.46 319.86 664.61 319.86 683.76 319.86 683.76 300.7 664.61 300.7 664.61 281.55 664.61 262.4 645.46 262.4 626.3 262.4 626.3 281.55 626.3 300.7"/><rect class="cls-1" x="530.54" y="300.7" width="19.15" height="19.15"/><polygon class="cls-1" points="377.31 319.86 377.31 300.7 396.47 300.7 396.47 281.55 377.31 281.55 377.31 262.4 358.16 262.4 339.01 262.4 339.01 281.55 358.16 281.55 358.16 300.7 358.16 319.86 358.16 339.01 377.31 339.01 377.31 319.86"/><polygon class="cls-1" points="434.77 358.16 434.77 339.01 415.62 339.01 415.62 319.86 415.62 300.7 396.47 300.7 396.47 319.86 396.47 339.01 396.47 358.16 415.62 358.16 434.77 358.16"/><rect class="cls-1" x="530.54" y="339.01" width="19.15" height="19.15"/><polygon class="cls-1" points="741.22 339.01 741.22 319.86 722.07 319.86 722.07 339.01 702.92 339.01 702.92 319.86 683.76 319.86 683.76 339.01 664.61 339.01 645.46 339.01 645.46 319.86 626.3 319.86 626.3 300.7 607.15 300.7 588 300.7 588 319.86 568.84 319.86 568.84 339.01 568.84 358.16 568.84 377.31 588 377.31 588 358.16 607.15 358.16 626.3 358.16 645.46 358.16 645.46 377.31 645.46 396.47 664.61 396.47 664.61 415.62 683.76 415.62 683.76 396.47 683.76 377.31 702.92 377.31 722.07 377.31 722.07 396.47 702.92 396.47 702.92 415.62 722.07 415.62 722.07 434.77 741.22 434.77 741.22 415.62 760.37 415.62 760.37 396.47 741.22 396.47 741.22 377.31 741.22 358.16 760.37 358.16 760.37 377.31 760.37 396.47 779.53 396.47 779.53 377.31 779.53 358.16 779.53 339.01 760.37 339.01 741.22 339.01"/><polygon class="cls-1" points="473.08 377.31 473.08 396.47 492.23 396.47 492.23 377.31 492.23 358.16 511.39 358.16 511.39 339.01 530.54 339.01 530.54 319.86 511.39 319.86 492.23 319.86 473.08 319.86 473.08 339.01 473.08 358.16 453.93 358.16 434.77 358.16 434.77 377.31 453.93 377.31 473.08 377.31"/><polygon class="cls-1" points="530.54 377.31 511.39 377.31 511.39 396.47 511.39 415.62 530.54 415.62 530.54 434.77 530.54 453.93 511.39 453.93 511.39 473.08 492.23 473.08 492.23 492.23 511.39 492.23 530.54 492.23 530.54 473.08 549.69 473.08 549.69 453.93 568.84 453.93 568.84 434.77 568.84 415.62 549.69 415.62 549.69 396.47 568.84 396.47 568.84 377.31 549.69 377.31 530.54 377.31"/><polygon class="cls-1" points="568.84 396.47 568.84 415.62 588 415.62 588 434.77 607.15 434.77 607.15 415.62 607.15 396.47 626.3 396.47 626.3 377.31 607.15 377.31 588 377.31 588 396.47 568.84 396.47"/><rect class="cls-1" x="90.02" y="415.62" width="19.15" height="19.15"/><path class="cls-1" d="m262.4,434.77v-19.15h-19.15v-57.46h38.31v-19.15h19.15v19.15h-19.15v38.31h38.31v-38.31h38.31v-19.15h-19.15v-19.15h-19.15v-19.15h-19.15v19.15h-19.15v-19.15h-19.15v38.31h-19.15v-19.15h-19.15v-19.15h-38.31v19.15h19.15v19.15h-19.15v-19.15h-19.15v57.46h-19.15v19.15h-19.15v19.15h19.15v38.31h19.15v-19.15h57.46v19.15h19.15v-19.15h19.15Zm-57.46-19.15h-19.15v-19.15h19.15v-19.15h-19.15v-19.15h19.15v19.15h19.15v38.31h-19.15Z"/><polygon class="cls-1" points="702.92 415.62 683.76 415.62 683.76 434.77 683.76 453.93 683.76 473.08 664.61 473.08 664.61 492.23 683.76 492.23 683.76 511.39 702.92 511.39 702.92 492.23 702.92 473.08 702.92 453.93 722.07 453.93 722.07 434.77 702.92 434.77 702.92 415.62"/><rect class="cls-1" x="70.87" y="434.77" width="19.15" height="19.15"/><rect class="cls-1" x="492.23" y="434.77" width="19.15" height="19.15"/><polygon class="cls-1" points="741.22 434.77 741.22 453.93 760.37 453.93 779.53 453.93 779.53 434.77 779.53 415.62 760.37 415.62 760.37 434.77 741.22 434.77"/><polygon class="cls-1" points="109.17 473.08 109.17 492.23 109.17 511.39 109.17 530.54 90.02 530.54 90.02 549.69 109.17 549.69 109.17 568.84 90.02 568.84 90.02 549.69 70.87 549.69 70.87 568.84 70.87 588 70.87 607.15 70.87 626.3 90.02 626.3 90.02 607.15 90.02 588 109.17 588 128.33 588 147.48 588 147.48 568.84 128.33 568.84 128.33 549.69 147.48 549.69 147.48 530.54 128.33 530.54 128.33 511.39 128.33 492.23 128.33 473.08 128.33 453.93 109.17 453.93 90.02 453.93 90.02 473.08 109.17 473.08"/><polygon class="cls-1" points="185.78 453.93 166.63 453.93 166.63 473.08 185.78 473.08 204.94 473.08 224.09 473.08 224.09 453.93 204.94 453.93 185.78 453.93"/><rect class="cls-1" x="70.87" y="473.08" width="19.15" height="19.15"/><rect class="cls-1" x="741.22" y="473.08" width="19.15" height="19.15"/><polygon class="cls-1" points="166.63 492.23 147.48 492.23 147.48 511.39 166.63 511.39 166.63 530.54 185.78 530.54 185.78 511.39 204.94 511.39 204.94 492.23 185.78 492.23 166.63 492.23"/><polygon class="cls-1" points="300.7 492.23 319.86 492.23 339.01 492.23 339.01 473.08 319.86 473.08 319.86 453.93 339.01 453.93 339.01 473.08 358.16 473.08 358.16 492.23 377.31 492.23 377.31 473.08 377.31 453.93 358.16 453.93 358.16 434.77 377.31 434.77 377.31 415.62 396.47 415.62 396.47 396.47 415.62 396.47 434.77 396.47 434.77 377.31 415.62 377.31 396.47 377.31 396.47 358.16 377.31 358.16 377.31 377.31 358.16 377.31 358.16 396.47 339.01 396.47 319.86 396.47 319.86 415.62 300.7 415.62 300.7 434.77 281.55 434.77 281.55 453.93 300.7 453.93 300.7 473.08 281.55 473.08 281.55 453.93 262.4 453.93 243.24 453.93 243.24 473.08 262.4 473.08 262.4 492.23 281.55 492.23 281.55 511.39 300.7 511.39 300.7 492.23"/><rect class="cls-1" x="339.01" y="492.23" width="19.15" height="19.15"/><polygon class="cls-1" points="645.46 511.39 645.46 530.54 645.46 549.69 664.61 549.69 683.76 549.69 683.76 530.54 683.76 511.39 664.61 511.39 664.61 492.23 645.46 492.23 645.46 511.39"/><polygon class="cls-1" points="760.37 511.39 760.37 530.54 779.53 530.54 779.53 511.39 779.53 492.23 760.37 492.23 760.37 511.39"/><rect class="cls-1" x="319.86" y="511.39" width="19.15" height="19.15"/><rect class="cls-1" x="185.78" y="530.54" width="19.15" height="19.15"/><polygon class="cls-1" points="702.92 549.69 722.07 549.69 722.07 530.54 741.22 530.54 741.22 511.39 722.07 511.39 702.92 511.39 702.92 530.54 702.92 549.69"/><rect class="cls-1" x="147.48" y="549.69" width="19.15" height="19.15"/><path class="cls-1" d="m683.76,568.84v19.15h19.15v19.15h-19.15v-19.15h-19.15v19.15h-19.15v-19.15h-38.31v-19.15h19.15v-19.15h-57.46v-57.46h19.15v38.31h38.31v-19.15h-19.15v-19.15h38.31v-19.15h19.15v-57.46h-19.15v19.15h-38.31v19.15h-38.31v19.15h-19.15v38.31h-38.31v19.15h19.15v19.15h19.15v19.15h19.15v19.15h19.15v38.31h-19.15v38.31h-19.15v19.15h19.15v19.15h19.15v38.31h19.15v-38.31h38.31v19.15h19.15v19.15h19.15v19.15h19.15v19.15h19.15v-19.15h38.31v19.15h19.15v-57.46h-38.31v-19.15h-38.31v19.15h19.15v19.15h-19.15v-19.15h-19.15v-19.15h19.15v-19.15h19.15v-19.15h19.15v-57.46h19.15v19.15h19.15v-57.46h-19.15v19.15h-38.31v-19.15h-19.15v-19.15h-19.15v19.15Zm-95.77,76.61h19.15v19.15h-19.15v-19.15Zm76.61,38.31h-38.31v-57.46h57.46v57.46h-19.15Z"/><rect class="cls-1" x="185.78" y="568.84" width="19.15" height="19.15"/><rect class="cls-1" x="224.09" y="568.84" width="19.15" height="19.15"/><polygon class="cls-1" points="281.55 568.84 281.55 549.69 262.4 549.69 262.4 530.54 281.55 530.54 281.55 511.39 262.4 511.39 243.24 511.39 243.24 530.54 243.24 549.69 243.24 568.84 262.4 568.84 262.4 588 281.55 588 300.7 588 300.7 568.84 281.55 568.84"/><polygon class="cls-1" points="511.39 568.84 492.23 568.84 492.23 588 511.39 588 511.39 607.15 530.54 607.15 530.54 588 549.69 588 549.69 568.84 530.54 568.84 511.39 568.84"/><rect class="cls-1" x="645.46" y="568.84" width="19.15" height="19.15"/><polygon class="cls-1" points="166.63 607.15 147.48 607.15 128.33 607.15 109.17 607.15 109.17 626.3 128.33 626.3 147.48 626.3 166.63 626.3 185.78 626.3 204.94 626.3 204.94 607.15 185.78 607.15 185.78 588 166.63 588 166.63 607.15"/><polygon class="cls-1" points="511.39 607.15 492.23 607.15 492.23 588 473.08 588 453.93 588 453.93 607.15 473.08 607.15 473.08 626.3 492.23 626.3 492.23 645.46 511.39 645.46 511.39 626.3 511.39 607.15"/><polygon class="cls-1" points="549.69 607.15 530.54 607.15 530.54 626.3 530.54 645.46 511.39 645.46 511.39 664.61 530.54 664.61 549.69 664.61 549.69 645.46 549.69 626.3 568.84 626.3 568.84 607.15 549.69 607.15"/><path class="cls-1" d="m396.47,626.3h-19.15v-19.15h38.31v19.15h19.15v19.15h19.15v19.15h19.15v19.15h19.15v-38.31h-19.15v-19.15h-19.15v-19.15h-19.15v-19.15h19.15v-19.15h38.31v-19.15h19.15v-19.15h-19.15v-38.31h-19.15v-76.61h-19.15v-19.15h-19.15v19.15h-38.31v19.15h-19.15v19.15h38.31v-19.15h19.15v19.15h19.15v19.15h-19.15v-19.15h-19.15v38.31h38.31v38.31h-19.15v-19.15h-38.31v-19.15h-19.15v19.15h-19.15v19.15h-19.15v19.15h-19.15v38.31h-19.15v19.15h19.15v19.15h-38.31v19.15h-19.15v-19.15h19.15v-19.15h-38.31v19.15h-19.15v38.31h57.46v19.15h19.15v-19.15h19.15v-19.15h19.15v-19.15h19.15v19.15h57.46v-19.15h-19.15Zm-57.46-57.46h19.15v-19.15h38.31v19.15h-19.15v19.15h-38.31v-19.15Z"/><path class="cls-1" d="m166.63,645.46h-95.77v134.07h134.07v-134.07h-38.31Zm19.15,38.31v76.61h-95.77v-95.77h95.77v19.15Z"/><rect class="cls-1" x="645.46" y="645.46" width="19.15" height="19.15"/><rect class="cls-1" x="358.16" y="664.61" width="19.15" height="19.15"/><polygon class="cls-1" points="434.77 664.61 434.77 645.46 415.62 645.46 415.62 664.61 396.47 664.61 396.47 683.76 377.31 683.76 377.31 702.92 377.31 722.07 396.47 722.07 396.47 702.92 415.62 702.92 415.62 683.76 434.77 683.76 453.93 683.76 453.93 664.61 434.77 664.61"/><polygon class="cls-1" points="128.33 683.76 109.17 683.76 109.17 702.92 109.17 722.07 109.17 741.22 128.33 741.22 147.48 741.22 166.63 741.22 166.63 722.07 166.63 702.92 166.63 683.76 147.48 683.76 128.33 683.76"/><polygon class="cls-1" points="262.4 702.92 262.4 722.07 262.4 741.22 243.24 741.22 243.24 760.37 243.24 779.53 262.4 779.53 262.4 760.37 281.55 760.37 281.55 741.22 281.55 722.07 300.7 722.07 300.7 702.92 281.55 702.92 281.55 683.76 262.4 683.76 262.4 702.92"/><rect class="cls-1" x="319.86" y="683.76" width="19.15" height="19.15"/><rect class="cls-1" x="453.93" y="683.76" width="19.15" height="19.15"/><polygon class="cls-1" points="741.22 702.92 760.37 702.92 779.53 702.92 779.53 683.76 779.53 664.61 779.53 645.46 760.37 645.46 760.37 664.61 741.22 664.61 741.22 683.76 741.22 702.92"/><polygon class="cls-1" points="243.24 702.92 243.24 683.76 224.09 683.76 224.09 702.92 224.09 722.07 243.24 722.07 243.24 702.92"/><polygon class="cls-1" points="492.23 722.07 511.39 722.07 511.39 702.92 511.39 683.76 492.23 683.76 492.23 702.92 492.23 722.07"/><polygon class="cls-1" points="530.54 702.92 530.54 722.07 549.69 722.07 549.69 741.22 568.84 741.22 568.84 722.07 568.84 702.92 549.69 702.92 530.54 702.92"/><rect class="cls-1" x="300.7" y="722.07" width="19.15" height="19.15"/><polygon class="cls-1" points="358.16 741.22 358.16 760.37 358.16 779.53 377.31 779.53 396.47 779.53 396.47 760.37 396.47 741.22 377.31 741.22 377.31 722.07 358.16 722.07 358.16 741.22"/><polygon class="cls-1" points="530.54 722.07 511.39 722.07 511.39 741.22 492.23 741.22 492.23 722.07 473.08 722.07 453.93 722.07 453.93 702.92 434.77 702.92 434.77 722.07 434.77 741.22 434.77 760.37 453.93 760.37 453.93 741.22 473.08 741.22 473.08 760.37 473.08 779.53 492.23 779.53 492.23 760.37 511.39 760.37 511.39 779.53 530.54 779.53 530.54 760.37 549.69 760.37 549.69 741.22 530.54 741.22 530.54 722.07"/><polygon class="cls-1" points="645.46 760.37 626.3 760.37 607.15 760.37 607.15 779.53 626.3 779.53 645.46 779.53 664.61 779.53 664.61 760.37 664.61 741.22 645.46 741.22 645.46 760.37"/><rect class="cls-1" x="281.55" y="760.37" width="19.15" height="19.15"/><rect class="cls-1" x="319.86" y="760.37" width="19.15" height="19.15"/><rect class="cls-1" x="415.62" y="760.37" width="19.15" height="19.15"/></svg>