<?xml version="1.0" standalone="no"?>
<!DOCTYPE svg PUBLIC "-//W3C//DTD SVG 20010904//EN"
 "http://www.w3.org/TR/2001/REC-SVG-20010904/DTD/svg10.dtd">
<svg version="1.0" xmlns="http://www.w3.org/2000/svg"
 width="700.000000pt" height="700.000000pt" viewBox="0 0 700.000000 700.000000"
 preserveAspectRatio="xMidYMid meet">
<metadata>
Created by potrace 1.14, written by Peter Selinger 2001-2017
</metadata>
<g transform="translate(0.000000,700.000000) scale(0.100000,-0.100000)"
fill="#000000" stroke="none">
<path d="M775 4825 c-145 -22 -311 -88 -420 -166 -67 -49 -164 -150 -211 -221
-55 -84 -89 -160 -117 -263 -21 -75 -22 -100 -22 -440 0 -400 5 -439 68 -585
45 -103 99 -183 177 -260 54 -53 179 -150 195 -150 2 0 34 -14 70 -31 81 -37
224 -74 325 -84 41 -4 264 -7 495 -7 459 1 479 3 593 61 117 59 225 206 234
317 1 13 5 21 8 19 3 -2 5 -158 4 -347 -1 -320 -3 -350 -22 -414 -44 -143
-158 -249 -312 -290 -56 -14 -128 -17 -515 -19 -435 -2 -452 -3 -515 -24 -126
-43 -229 -130 -279 -235 -30 -62 -53 -157 -42 -174 7 -10 1295 -9 1366 2 252
39 445 141 598 315 26 29 101 140 102 151 1 3 8 19 17 35 22 44 55 150 69 225
9 47 12 357 12 1140 l1 1075 -23 67 c-37 111 -113 199 -222 258 -112 59 -117
60 -869 59 -488 -1 -708 -5 -765 -14z m1390 -447 c7 -4 9 -231 8 -655 0 -356
-2 -652 -2 -656 -1 -4 -301 -7 -668 -5 l-668 3 -78 34 c-135 58 -220 154 -257
291 -15 53 -20 544 -7 630 28 187 190 334 392 357 28 3 51 6 52 7 6 5 1220 -1
1228 -6z"/>
<path d="M5192 4825 c-80 -18 -175 -70 -230 -126 -46 -47 -104 -139 -120 -191
-4 -13 -8 -354 -9 -759 -3 -648 -1 -742 13 -790 44 -150 159 -262 319 -311 67
-21 88 -22 490 -22 467 0 544 4 660 33 307 79 532 272 629 540 52 145 54 179
54 940 l0 704 -56 -7 c-208 -24 -386 -179 -420 -366 -5 -25 -9 -268 -9 -541
-1 -533 -3 -554 -55 -646 -31 -56 -96 -120 -155 -154 -108 -62 -109 -62 -570
-66 l-423 -4 0 891 0 891 -33 -3 c-19 -1 -57 -7 -85 -13z"/>
<path d="M3361 4814 c-159 -43 -290 -171 -331 -324 -14 -50 -19 -998 -6 -1105
36 -300 223 -554 499 -679 68 -31 191 -69 268 -82 19 -3 162 -8 319 -10 316
-4 361 1 470 56 122 61 224 202 237 326 6 52 5 54 -18 55 -13 0 -215 2 -449 4
-433 3 -457 4 -539 29 -167 49 -287 185 -307 345 -4 25 -6 351 -7 724 l0 677
-41 -1 c-23 0 -65 -7 -95 -15z"/>
</g>
</svg>
