<svg width="584" height="935" viewBox="0 0 584 935" fill="none" xmlns="http://www.w3.org/2000/svg">
<path fill-rule="evenodd" clip-rule="evenodd" d="M181.705 668.466V637.331L181.705 637.276C181.994 584.944 186.885 541.828 197.082 508.765L197.107 508.683L197.133 508.602C207.48 476.04 222.436 448.751 242.58 427.612C261.549 407.431 284.394 389.192 310.91 372.803C327.214 362.644 341.626 351.646 354.215 339.845C354.217 339.844 354.218 339.842 354.219 339.841C366.521 328.291 375.971 315.704 382.79 302.086C389.244 288.923 392.642 273.966 392.642 256.846C392.642 237.636 388.185 222.031 380.014 209.222C371.479 195.843 360.006 185.463 345.204 177.945L345.147 177.916L345.089 177.886C330.596 170.406 314.049 166.477 295.029 166.477C277.883 166.477 261.687 170.195 246.219 177.687L246.159 177.716L246.099 177.745C231.661 184.62 219.418 195.205 209.335 210.078C200.206 223.675 194.406 241.93 193.126 266.005L192.118 284.943H0.916016L1.45618 264.417C2.95433 207.487 16.7989 158.375 44.1129 118.189L44.1428 118.145L44.173 118.101C71.2963 78.6491 107.163 48.9956 151.395 29.3373L151.418 29.3269L151.442 29.3165C195.433 9.89975 243.676 0.34082 295.881 0.34082C352.469 0.34082 403.144 10.2686 447.424 30.7236C491.988 51.1783 527.249 80.6619 552.49 119.269C578.242 157.934 590.739 203.374 590.739 254.716C590.739 289.234 585.14 320.828 573.506 349.163C562.33 377.073 546.312 401.944 525.528 423.659C505.162 444.937 481.172 463.758 453.711 480.189C431.855 493.691 414.435 507.407 401.121 521.218C388.722 534.367 379.412 549.859 373.209 567.937C367.277 585.77 363.886 608.779 363.608 637.482V668.466H181.705ZM343.608 637.386C343.892 607.273 347.444 581.989 354.262 561.534C361.364 540.795 372.16 522.756 386.648 507.415C401.421 492.074 420.313 477.301 443.324 463.096C469.461 447.471 492.046 429.716 511.08 409.829C530.114 389.943 544.745 367.216 554.972 341.648C565.483 316.079 570.739 287.102 570.739 254.716C570.739 206.704 559.091 165.227 535.796 130.284C512.784 95.0567 480.54 67.9261 439.063 48.892C397.87 29.8579 350.142 20.3408 295.881 20.3408C246.165 20.3408 200.711 29.4317 159.517 47.6135C118.608 65.7954 85.6538 93.0681 60.6538 129.432C39.0546 161.21 26.3508 199.714 22.5423 244.943C21.9927 251.47 21.6284 258.136 21.4493 264.943H173.154C174.574 238.239 181.108 216.222 192.756 198.892C204.688 181.278 219.603 168.21 237.5 159.687C255.682 150.881 274.858 146.477 295.029 146.477C316.904 146.477 336.648 151.023 354.262 160.114C372.16 169.204 386.364 181.989 396.875 198.466C407.387 214.943 412.642 234.403 412.642 256.846C412.642 276.733 408.665 294.773 400.711 310.966C392.756 326.875 381.819 341.364 367.898 354.432C354.262 367.216 338.779 379.006 321.449 389.801C296.165 405.426 274.716 422.614 257.103 441.364C239.489 459.829 225.853 484.261 216.194 514.659C207.367 543.278 202.57 581.213 201.802 628.466C201.754 631.403 201.722 634.377 201.705 637.386V648.466H343.608V637.386ZM332.54 919.198L332.488 919.229C315.315 929.392 296.281 934.375 275.853 934.375C244.955 934.375 217.92 923.163 195.769 901.354C173.449 879.376 162.103 852.068 162.103 820.625C162.103 789.617 173.544 762.632 195.769 740.749C217.92 718.939 244.955 707.727 275.853 707.727C306.506 707.727 333.361 718.966 355.453 740.693C377.96 762.542 389.603 789.54 389.603 820.625C389.603 841.484 384.26 860.882 373.468 878.34C363.264 895.302 349.57 908.98 332.591 919.167L332.54 919.198ZM356.392 867.926C365.199 853.721 369.603 837.955 369.603 820.625C369.603 795.057 360.228 773.182 341.478 755C323.012 736.818 301.137 727.727 275.853 727.727C250.284 727.727 228.267 736.818 209.802 755C191.336 773.182 182.103 795.057 182.103 820.625C182.103 846.761 191.336 868.92 209.802 887.102C228.267 905.284 250.284 914.375 275.853 914.375C292.898 914.375 308.381 910.256 322.302 902.017C336.506 893.494 347.87 882.131 356.392 867.926Z" fill="white"/>
</svg>
