<svg id="Capa_1" data-name="Capa 1" xmlns="http://www.w3.org/2000/svg" viewBox="0 0 38.15 50"><defs><style>.cls-1{fill:#fff;}</style></defs><title>ca_b-consult</title><path class="cls-1" d="M275.07,272.38c-.11-6.79-7.06-8.8-12.13-10.27-.59-.17-1.16-.33-1.69-.5v-2.8a10.3,10.3,0,0,0,2.68-2.46H267a2.74,2.74,0,0,0,2.74-2.74v-3.32a3.61,3.61,0,0,0,.28-1.4v-1a3.59,3.59,0,0,0-.28-1.39v-1.71a13.76,13.76,0,0,0-27.52,0v1.7a3.61,3.61,0,0,0-.29,1.4v1a3.54,3.54,0,0,0,3.54,3.54h.81a9.94,9.94,0,0,0,4.45,6.38v2.8c-.53.17-1.1.33-1.69.5-5.08,1.47-12,3.48-12.14,10.27V280a1,1,0,0,0,1,1h2.9a1,1,0,0,0,0-1.95h-1.92v-6.64a6.42,6.42,0,0,1,3.42-5.6,22.65,22.65,0,0,1,5.2-2.2l2.36,4.6a1,1,0,0,0,1.41.36l1.06-.71.9,3.4-1.55,6.79h-2.11a1,1,0,1,0,0,1.95H274.1a1,1,0,0,0,1-1v-7.64ZM262.4,264l.19.06-1.68,3.29-3.16-2.13,2.67-1.81c.62.2,1.29.39,2,.59Zm-6.4,2.4,2,1.32-.95,3.55h-2l-1-3.55Zm0-2.36-3.3-2.22v-2.06a9.81,9.81,0,0,0,6.59,0v2.06ZM264,244.94l0,0c-2-1.27-3.73-2.38-6.44-1.6l-.08,0-1.6.61c-3.09,1.19-4.77,1.84-7.75,1.75v-.78a8,8,0,1,1,15.91,0v0Zm3.86,8.67a.8.8,0,0,1-.79.79h-1.95a10.06,10.06,0,0,0,.63-2h.81a3.53,3.53,0,0,0,1.3-.24v1.42Zm.28-4.72a1.59,1.59,0,0,1-1.58,1.59h-.6v-4.2h.6a1.58,1.58,0,0,1,1.58,1.58v1Zm-22.6,1.59a1.59,1.59,0,0,1-1.58-1.59v-1a1.58,1.58,0,0,1,1.58-1.58h.6v4.2Zm.62-6.16h-.62a3.45,3.45,0,0,0-1.29.25,11.8,11.8,0,0,1,23.6,0,3.49,3.49,0,0,0-1.29-.25h-.62a9.91,9.91,0,0,0-19.78,0Zm2,7h0a7.57,7.57,0,0,1-.06-1v-2.76c3.34.09,5.34-.68,8.45-1.88l1.55-.59c1.85-.52,2.91.16,4.83,1.38l1.08.68v3.17a8,8,0,0,1-1.07,4H256a1,1,0,1,0,0,2h5.28a7.94,7.94,0,0,1-13.18-5Zm3,16-1.69-3.29.2-.06c.69-.2,1.35-.39,2-.59l2.67,1.81Zm2.6,11.71,1.32-5.83h2l1.33,5.83Zm19.43,0h-12.8l-1.55-6.79.9-3.4,1.06.71a1,1,0,0,0,1.41-.36l2.36-4.6a22.58,22.58,0,0,1,5.19,2.2,6.41,6.41,0,0,1,3.43,5.6v6.64Z" transform="translate(-236.92 -231)"/><path class="cls-1" d="M269.26,274.16h-4.92a1,1,0,0,0,0,2h4.92a1,1,0,0,0,0-2Z" transform="translate(-236.92 -231)"/><path class="cls-1" d="M245.18,279.05a1,1,0,1,0,0,1.95h0a1,1,0,1,0,0-1.95Z" transform="translate(-236.92 -231)"/></svg>