<svg width="81" height="80" viewBox="0 0 81 80" fill="none" xmlns="http://www.w3.org/2000/svg">
<path d="M47.025 6.03825L26.025 0.03825C25.845 -0.01275 25.655 -0.01275 25.475 0.03825L4.475 6.03825C4.046 6.16125 3.75 6.55425 3.75 7.00025V51.5382L3.3 51.4073C2.689 51.2373 2.048 51.3573 1.542 51.7413C1.039 52.1233 0.75 52.7023 0.75 53.3303V55.2503C0.75 56.1443 1.347 56.9352 2.19 57.1702L25.47 63.9603C25.562 63.9863 25.656 64.0003 25.75 64.0003C25.844 64.0003 25.938 63.9863 26.03 63.9603L31.75 62.2919V60.2083L25.75 61.9583L2.75 55.2503V53.3303L25.469 59.9603C25.653 60.0133 25.846 60.0133 26.03 59.9603L31.75 58.2911V56.2069L25.75 57.9583L5.75 52.1223V7.75425L25.75 2.04025L45.75 7.75425V18.0002H47.75V7.00025C47.75 6.55425 47.454 6.16125 47.025 6.03825Z" fill="#1D1D1F"/>
<path fill-rule="evenodd" clip-rule="evenodd" d="M43.75 18.0002V9.86025C43.75 9.41425 43.454 9.02125 43.025 8.89825L26.025 4.03825C25.845 3.98725 25.655 3.98725 25.475 4.03825L8.475 8.89825C8.046 9.02125 7.75 9.41425 7.75 9.86025V50.1403C7.75 50.5853 8.045 50.9783 8.473 51.1013L25.475 55.9623C25.565 55.9873 25.658 56.0003 25.75 56.0003C25.842 56.0003 25.935 55.9873 26.025 55.9623L31.75 54.3265V52.2454L26.75 53.6743V9.00025C26.75 8.44725 26.302 8.00025 25.75 8.00025C25.198 8.00025 24.75 8.44725 24.75 9.00025V41.2453L9.75 45.5343V10.6143L25.75 6.04025L41.75 10.6143V18.0002H43.75ZM9.75 49.3873V47.6153L24.75 43.3263V45.2453L10.001 49.4593L9.75 49.3873ZM24.75 53.6743L13.641 50.5003L24.75 47.3263V53.6743Z" fill="#1D1D1F"/>
<path d="M20.75 26.0003C20.75 25.448 21.1977 25.0003 21.75 25.0003C22.3023 25.0003 22.75 25.448 22.75 26.0003V34.0002C22.75 34.5525 22.3023 35.0002 21.75 35.0002C21.1977 35.0002 20.75 34.5525 20.75 34.0002V26.0003Z" fill="#1D1D1F"/>
<path d="M41.8003 44.0004C42.3525 44.0004 42.8003 43.5527 42.8003 43.0004C42.8003 42.4481 42.3525 42.0004 41.8003 42.0004C41.248 42.0004 40.8003 42.4481 40.8003 43.0004C40.8003 43.5527 41.248 44.0004 41.8003 44.0004Z" fill="#1D1D1F"/>
<path d="M46.8003 43.0004C46.8003 43.5527 46.3525 44.0004 45.8003 44.0004C45.248 44.0004 44.8003 43.5527 44.8003 43.0004C44.8003 42.4481 45.248 42.0004 45.8003 42.0004C46.3525 42.0004 46.8003 42.4481 46.8003 43.0004Z" fill="#1D1D1F"/>
<path d="M50.8003 43.0004C50.8003 43.5527 50.3525 44.0004 49.8003 44.0004C49.248 44.0004 48.8003 43.5527 48.8003 43.0004C48.8003 42.4481 49.248 42.0004 49.8003 42.0004C50.3525 42.0004 50.8003 42.4481 50.8003 43.0004Z" fill="#1D1D1F"/>
<path d="M42.8003 47.0004C42.8003 47.5527 42.3525 48.0004 41.8003 48.0004C41.248 48.0004 40.8003 47.5527 40.8003 47.0004C40.8003 46.4481 41.248 46.0004 41.8003 46.0004C42.3525 46.0004 42.8003 46.4481 42.8003 47.0004Z" fill="#1D1D1F"/>
<path d="M46.8003 47.0004C46.8003 47.5527 46.3525 48.0004 45.8003 48.0004C45.248 48.0004 44.8003 47.5527 44.8003 47.0004C44.8003 46.4481 45.248 46.0004 45.8003 46.0004C46.3525 46.0004 46.8003 46.4481 46.8003 47.0004Z" fill="#1D1D1F"/>
<path d="M50.8003 47.0004C50.8003 47.5527 50.3525 48.0004 49.8003 48.0004C49.248 48.0004 48.8003 47.5527 48.8003 47.0004C48.8003 46.4481 49.248 46.0004 49.8003 46.0004C50.3525 46.0004 50.8003 46.4481 50.8003 47.0004Z" fill="#1D1D1F"/>
<path d="M42.8003 51.0004C42.8003 51.5527 42.3525 52.0004 41.8003 52.0004C41.248 52.0004 40.8003 51.5527 40.8003 51.0004C40.8003 50.4481 41.248 50.0004 41.8003 50.0004C42.3525 50.0004 42.8003 50.4481 42.8003 51.0004Z" fill="#1D1D1F"/>
<path d="M46.8003 51.0004C46.8003 51.5527 46.3525 52.0004 45.8003 52.0004C45.248 52.0004 44.8003 51.5527 44.8003 51.0004C44.8003 50.4481 45.248 50.0004 45.8003 50.0004C46.3525 50.0004 46.8003 50.4481 46.8003 51.0004Z" fill="#1D1D1F"/>
<path d="M50.8003 51.0004C50.8003 51.5527 50.3525 52.0004 49.8003 52.0004C49.248 52.0004 48.8003 51.5527 48.8003 51.0004C48.8003 50.4481 49.248 50.0004 49.8003 50.0004C50.3525 50.0004 50.8003 50.4481 50.8003 51.0004Z" fill="#1D1D1F"/>
<path d="M42.8003 55.0004C42.8003 55.5527 42.3525 56.0004 41.8003 56.0004C41.248 56.0004 40.8003 55.5527 40.8003 55.0004C40.8003 54.4481 41.248 54.0004 41.8003 54.0004C42.3525 54.0004 42.8003 54.4481 42.8003 55.0004Z" fill="#1D1D1F"/>
<path d="M46.8003 55.0004C46.8003 55.5527 46.3525 56.0004 45.8003 56.0004C45.248 56.0004 44.8003 55.5527 44.8003 55.0004C44.8003 54.4481 45.248 54.0004 45.8003 54.0004C46.3525 54.0004 46.8003 54.4481 46.8003 55.0004Z" fill="#1D1D1F"/>
<path d="M50.8003 55.0004C50.8003 55.5527 50.3525 56.0004 49.8003 56.0004C49.248 56.0004 48.8003 55.5527 48.8003 55.0004C48.8003 54.4481 49.248 54.0004 49.8003 54.0004C50.3525 54.0004 50.8003 54.4481 50.8003 55.0004Z" fill="#1D1D1F"/>
<path d="M42.8003 59.0004C42.8003 59.5527 42.3525 60.0004 41.8003 60.0004C41.248 60.0004 40.8003 59.5527 40.8003 59.0004C40.8003 58.4481 41.248 58.0004 41.8003 58.0004C42.3525 58.0004 42.8003 58.4481 42.8003 59.0004Z" fill="#1D1D1F"/>
<path d="M46.8003 59.0004C46.8003 59.5527 46.3525 60.0004 45.8003 60.0004C45.248 60.0004 44.8003 59.5527 44.8003 59.0004C44.8003 58.4481 45.248 58.0004 45.8003 58.0004C46.3525 58.0004 46.8003 58.4481 46.8003 59.0004Z" fill="#1D1D1F"/>
<path d="M50.8003 59.0004C50.8003 59.5527 50.3525 60.0004 49.8003 60.0004C49.248 60.0004 48.8003 59.5527 48.8003 59.0004C48.8003 58.4481 49.248 58.0004 49.8003 58.0004C50.3525 58.0004 50.8003 58.4481 50.8003 59.0004Z" fill="#1D1D1F"/>
<path d="M42.8003 63.0004C42.8003 63.5527 42.3525 64.0004 41.8003 64.0004C41.248 64.0004 40.8003 63.5527 40.8003 63.0004C40.8003 62.4481 41.248 62.0004 41.8003 62.0004C42.3525 62.0004 42.8003 62.4481 42.8003 63.0004Z" fill="#1D1D1F"/>
<path d="M46.8003 63.0004C46.8003 63.5527 46.3525 64.0004 45.8003 64.0004C45.248 64.0004 44.8003 63.5527 44.8003 63.0004C44.8003 62.4481 45.248 62.0004 45.8003 62.0004C46.3525 62.0004 46.8003 62.4481 46.8003 63.0004Z" fill="#1D1D1F"/>
<path d="M50.8003 63.0004C50.8003 63.5527 50.3525 64.0004 49.8003 64.0004C49.248 64.0004 48.8003 63.5527 48.8003 63.0004C48.8003 62.4481 49.248 62.0004 49.8003 62.0004C50.3525 62.0004 50.8003 62.4481 50.8003 63.0004Z" fill="#1D1D1F"/>
<path d="M42.8003 67.0004C42.8003 67.5527 42.3525 68.0004 41.8003 68.0004C41.248 68.0004 40.8003 67.5527 40.8003 67.0004C40.8003 66.4481 41.248 66.0004 41.8003 66.0004C42.3525 66.0004 42.8003 66.4481 42.8003 67.0004Z" fill="#1D1D1F"/>
<path d="M46.8003 67.0004C46.8003 67.5527 46.3525 68.0004 45.8003 68.0004C45.248 68.0004 44.8003 67.5527 44.8003 67.0004C44.8003 66.4481 45.248 66.0004 45.8003 66.0004C46.3525 66.0004 46.8003 66.4481 46.8003 67.0004Z" fill="#1D1D1F"/>
<path d="M50.8003 67.0004C50.8003 67.5527 50.3525 68.0004 49.8003 68.0004C49.248 68.0004 48.8003 67.5527 48.8003 67.0004C48.8003 66.4481 49.248 66.0004 49.8003 66.0004C50.3525 66.0004 50.8003 66.4481 50.8003 67.0004Z" fill="#1D1D1F"/>
<path d="M46.8003 71.0004C46.8003 71.5527 46.3525 72.0004 45.8003 72.0004C45.248 72.0004 44.8003 71.5527 44.8003 71.0004C44.8003 70.4481 45.248 70.0004 45.8003 70.0004C46.3525 70.0004 46.8003 70.4481 46.8003 71.0004Z" fill="#1D1D1F"/>
<path d="M62.0829 45.6673C62.0829 45.115 62.5306 44.6673 63.0829 44.6673C63.6352 44.6673 64.0829 45.115 64.0829 45.6673V53.6673C64.0829 54.2196 63.6352 54.6673 63.0829 54.6673C62.5306 54.6673 62.0829 54.2196 62.0829 53.6673V45.6673Z" fill="#1D1D1F"/>
<path fill-rule="evenodd" clip-rule="evenodd" d="M79.626 20.0004H34.7492C34.1629 20.0004 33.6875 20.4768 33.6875 21.0648L33.7492 78.9361C33.7492 79.5241 34.2246 80.0006 34.811 80.0006H79.6877C80.2742 80.0006 80.7495 79.5241 80.7495 78.9361L80.6878 21.0648C80.6878 20.4768 80.2125 20.0004 79.626 20.0004ZM35.6875 22.0004H56.6878L56.7495 74.0006H35.7492V29.0004H42.75C43.0142 29.0004 43.2758 29.0408 43.5198 29.1419C43.7639 29.243 43.9857 29.3912 44.1724 29.578C44.3592 29.7647 44.5074 29.9865 44.6085 30.2306C44.7096 30.4746 44.75 30.7362 44.75 31.0003L44.7561 33.0004C44.1787 33.0871 43.6126 33.2494 43.0712 33.4843C42.222 33.8528 41.4503 34.393 40.8003 35.074C40.1503 35.7549 39.6346 36.5633 39.2829 37.4531C39.2364 37.5705 39.193 37.6376 39.1525 37.7001C39.1021 37.778 39.0564 37.8487 39.0154 38.0004C38.8396 38.6497 38.75 39.3227 38.75 40.0004H52.75C52.75 39.3227 52.6603 38.6497 52.4846 38.0004C52.4436 37.8487 52.3978 37.778 52.3475 37.7001C52.307 37.6376 52.2636 37.5705 52.2172 37.4531C51.8654 36.5633 51.3498 35.7549 50.6997 35.074C50.0497 34.393 49.2781 33.8528 48.4288 33.4843C47.8913 33.251 47.3293 33.0894 46.7562 33.0022L46.75 31.0003C46.75 30.475 46.6466 29.9549 46.4456 29.4696C46.2445 28.9843 45.9499 28.5434 45.5785 28.1719C45.207 27.8005 44.7661 27.5059 44.2808 27.3048C43.7955 27.1038 43.2753 27.0004 42.75 27.0004H35.7492L35.6875 22.0004ZM78.7495 78.0006H35.7492V76.0006H78.7495V78.0006ZM78.7495 74.0006H58.7496L58.6878 22.0004H78.6878L78.7495 74.0006ZM50.3847 38.0004C50.3757 37.9767 50.3666 37.953 50.3572 37.9294C50.1325 37.3609 49.8185 37.0378 49.4321 36.6403C49.374 36.5805 49.3143 36.5191 49.253 36.4549C48.7842 35.9638 48.2327 35.5794 47.6326 35.319C47.0328 35.0587 46.3934 34.9261 45.75 34.9261C45.1067 34.9261 44.4672 35.0587 43.8674 35.319C43.2673 35.5794 42.7158 35.9638 42.247 36.4549C42.1858 36.519 42.1261 36.5804 42.0681 36.6401C41.6818 37.0376 41.3675 37.361 41.1427 37.9294L41.1266 37.9708L41.1152 38.0004H50.3847Z" fill="#1D1D1F"/>
</svg>
