<svg width="70" height="70" viewBox="0 0 70 70" fill="none" xmlns="http://www.w3.org/2000/svg">
<path fill-rule="evenodd" clip-rule="evenodd" d="M2 50L54.5 24L68 31V34L17 60.7379V57.2426L67 31.5L54.5 25L3.5 50.5L16 57.2308V60.7241L2 53V50Z" fill="#1D1D1F"/>
<path fill-rule="evenodd" clip-rule="evenodd" d="M4.43041 33.1781C4.69998 32.9913 5.04403 32.9485 5.35112 33.0637C13.9348 36.2825 17.5 45.337 17.5 55.5C17.5 56.0523 17.0523 56.5 16.5 56.5C15.9477 56.5 15.5 56.0523 15.5 55.5C15.5 46.2812 12.4834 38.7236 6 35.521V48.5712L4 49.5V34C4 33.672 4.16083 33.3649 4.43041 33.1781Z" fill="#1D1D1F"/>
<path fill-rule="evenodd" clip-rule="evenodd" d="M51.4153 10.1888C51.6761 10.0008 52.0113 9.94967 52.3162 10.0513C60.3226 12.7201 65.5 21.1828 65.5 31C65.5 31.5523 65.0523 32 64.5 32C63.9477 32 63.5 31.5523 63.5 31C63.5 22.4053 59.2753 15.252 53 12.4597V25.2583L51 26.2214V11C51 10.6786 51.1545 10.3767 51.4153 10.1888Z" fill="#1D1D1F"/>
</svg>
