<svg width="70" height="70" viewBox="0 0 70 70" fill="none" xmlns="http://www.w3.org/2000/svg">
<path d="M17.5815 49.3171L23.5044 52.2604V46.2646L17.5815 49.3171Z" fill="white" stroke="#1D1D1F" stroke-linejoin="round"/>
<path d="M20.5 31.25L29.5 35.25L63.5 18.25L54.4999 13.75L20.5 31.25Z" fill="white" stroke="#1D1D1F" stroke-linejoin="round"/>
<path d="M23.5 52.25L27.5 50.25V44.75L29.5 43.75V33.25L15.5 40.25V56.25L19.5 54.25V48.25L23.5 46.25V52.25Z" fill="white" stroke="#1D1D1F" stroke-linejoin="round"/>
<path d="M6.5 35.75L15.5 40.25L29.5 33.25L20 28.75L6.5 35.75Z" fill="white" stroke="#1D1D1F" stroke-linejoin="round"/>
<path d="M15.5 56.2499L6.49976 51.7494L6.50009 35.75L15.455 40.2494L15.5 56.2499Z" fill="white" stroke="#1D1D1F" stroke-linejoin="round"/>
<path d="M29.5 35.25V41.75L63.5 24.75V18.25L29.5 35.25Z" fill="#1D1D1F" stroke="#1D1D1F" stroke-linejoin="round"/>
<ellipse cx="19.5" cy="31.2793" rx="1.5" ry="0.5" fill="#1D1D1F"/>
<ellipse cx="23.5935" cy="33.25" rx="1.5" ry="0.5" fill="#1D1D1F"/>
</svg>
