<svg width="240" height="240" viewBox="0 0 240 240" fill="none" xmlns="http://www.w3.org/2000/svg">
<path d="M85.7143 160C84.2857 160 83.4285 160.571 82.8571 161.429C82.5714 161.714 80.2857 163.714 77.1428 166.571V174.571C81.4285 170.571 85.4285 166.571 86.2857 165.714L140 168.857V163.143C120 162 86.2857 160 85.7143 160Z" fill="#BCBCBC"/>
<path d="M88.5715 36.571L82.8572 38.2853V5.71387H88.5715V36.571Z" fill="black"/>
<g opacity="0.25">
<path d="M77.1428 47.4279L108.571 38.8564V170.285L77.1428 178.856V47.4279Z" fill="#0094DD"/>
</g>
<path d="M77.1429 181.714C76.5715 181.714 76.0001 181.428 75.4286 181.143C74.5715 180.857 74.2858 180 74.2858 178.857V47.4284C74.2858 45.9998 75.1429 45.1426 76.2858 44.5712L107.714 35.9998C108.571 35.7141 109.429 35.9998 110.286 36.5712C110.857 37.1426 111.429 37.9998 111.429 38.8569V170.285C111.429 171.714 110.571 172.571 109.429 173.143L78.0001 181.714C77.7143 181.714 77.4286 181.714 77.1429 181.714ZM80.0001 49.7141V175.143L105.714 168V42.8569L80.0001 49.7141Z" fill="black"/>
<g opacity="0.25">
<path d="M108.571 38.8564L137.143 53.9993V185.428L108.571 170.285V38.8564Z" fill="#0094DD"/>
</g>
<path d="M137.143 188.288C136.571 188.288 136.286 188.288 135.714 188.002L107.143 172.859C106.286 172.574 105.714 171.431 105.714 170.288V38.8594C105.714 37.7165 106.286 36.8594 107.143 36.2879C108 35.7165 109.143 35.7165 110 36.2879L138.571 51.4308C139.429 52.0022 140 52.8594 140 54.0022V185.431C140 186.574 139.429 187.431 138.571 188.002C138.286 188.288 137.714 188.288 137.143 188.288ZM111.429 168.574L134.286 180.574V55.7165L111.429 43.7165V168.574Z" fill="black"/>
<path d="M80.8572 0L51.4286 26V188.571C51.4286 188.571 61.1429 188.571 61.4286 188.571C62.8572 188.571 63.4286 188 64 187.143C64 187.143 67.4286 184 71.4286 180V171.714C66.8572 176 62.8572 179.714 62.8572 179.714V27.7143L84.8572 8L173.429 12.8571L154.286 34.8571V164C154.286 164 147.143 163.429 142.857 163.143V168.857L154.286 169.714V197.143H164C165.429 197.143 166 196.857 166.857 196L188.571 172.571V7.42857V6.85714V6L80.8572 0ZM182.857 170.286L165.714 188.571V35.7143L182.857 14.5714V170.286Z" fill="black"/>
</svg>
