<svg width="240" height="240" viewBox="0 0 240 240" fill="none" xmlns="http://www.w3.org/2000/svg">
<path d="M100.286 184.286L117.143 185.143V179.428L100.286 178.571V184.286Z" fill="#BCBCBC"/>
<path d="M120 54.2861H114.286V182.858H120V54.2861Z" fill="#BCBCBC"/>
<g opacity="0.25">
<path d="M139.714 185.143L77.1428 180V48.5713L140 54.857L139.714 185.143Z" fill="#0094DD"/>
</g>
<path d="M80.8572 0L51.4286 26V188.571C51.4286 188.571 61.1429 188.571 61.4286 188.571C62.8572 188.571 63.4286 188 64 187.143C64 187.143 67.4286 184 71.4286 180V171.714C66.8572 176 62.8572 179.714 62.8572 179.714V27.7143L82.8572 9.71429V41.1429L88.5714 41.4286V8.28571L173.429 12.8571L154.286 34.8571V164C154.286 164 150.857 163.714 145.714 163.429V169.143L154.286 169.714V197.143H164C165.429 197.143 166 196.857 166.857 196L188.571 172.571V7.42857V6.85714V6L80.8572 0ZM182.857 170.286L165.714 188.571V35.7143L182.857 14.5714V170.286Z" fill="black"/>
<path d="M140 189.429L99.7142 187.143C98.2857 187.143 97.1428 185.714 97.1428 184.286V52.8571C97.1428 52 97.4285 51.4286 98 50.8571C98.5714 50.2857 99.4285 50 100 50L140 52.2857C141.429 52.2857 142.571 53.7143 142.571 55.1429V186.571C142.571 187.429 142.286 188 141.714 188.571C141.429 189.143 140.857 189.429 140 189.429ZM102.857 181.714L137.143 183.714V58L102.857 56V181.714Z" fill="black"/>
<path d="M117.143 47.9996L103.143 47.1424L77.4286 45.7139H77.1429C76.5715 45.7139 75.7143 45.9996 75.1429 46.571C74.5715 47.1424 74.2858 47.7139 74.2858 48.571V180C74.2858 181.428 75.4286 182.857 76.8572 182.857L100.286 184.285V178.571L80.0001 177.428V51.7139L104.286 53.1424H120V50.8567C120 49.4282 118.857 47.9996 117.143 47.9996Z" fill="black"/>
</svg>
