<svg width="240" height="240" viewBox="0 0 240 240" fill="none" xmlns="http://www.w3.org/2000/svg">
<path d="M85.7143 160C84.2857 160 83.4285 160.571 82.8571 161.429C82.5714 161.714 80.2857 163.714 77.1428 166.571V174.571C81.4285 170.571 85.4285 166.571 86.2857 165.714L140 168.857V163.143C120 162 86.2857 160 85.7143 160Z" fill="#BCBCBC"/>
<g opacity="0.25">
<path d="M140 197.143L77.1428 180V48.5713L140 65.7141V197.143Z" fill="#0094DD"/>
</g>
<path d="M140 200C139.714 200 139.429 200 139.143 200L76.2858 182.857C75.1429 182.571 74.2858 181.428 74.2858 180V48.571C74.2858 47.7139 74.5715 46.8567 75.4286 46.2853C76.0001 45.7139 77.1429 45.7139 78 45.7139L140.857 62.8567C142 63.1424 142.857 64.2853 142.857 65.7139V197.142C142.857 198 142.571 198.857 141.714 199.428C141.143 199.714 140.571 200 140 200ZM80.0001 177.714L137.143 193.428V67.9996L80.0001 52.2853V177.714Z" fill="black"/>
<path d="M80.8572 0L51.4286 26V188.571C51.4286 188.571 61.1429 188.571 61.4286 188.571C62.8572 188.571 63.4286 188 64 187.143C64 187.143 67.4286 184 71.4286 180V171.714C66.8572 176 62.8572 179.714 62.8572 179.714V27.7143L82.8572 9.71429V41.1429L88.5714 43.1429V8.28571L173.429 12.8571L154.286 34.8571V164C154.286 164 150.857 163.714 145.714 163.429V169.143L154.286 169.714V197.143H164C165.429 197.143 166 196.857 166.857 196L188.571 172.571V7.42857V6.85714V6L80.8572 0ZM182.857 170.286L165.714 188.571V35.7143L182.857 14.5714V170.286Z" fill="black"/>
</svg>
