<svg width="240" height="240" viewBox="0 0 240 240" fill="none" xmlns="http://www.w3.org/2000/svg">
<path d="M109.236 151.714C109.236 151.714 108.379 151.429 107.808 151.429C107.522 151.429 106.665 151.714 106.665 151.714L82.665 161.429V167.714L107.522 157.429L154.951 182.572L157.522 177.429L109.236 151.714Z" fill="#BCBCBC"/>
<g opacity="0.25">
<path d="M130.665 57.1431H84.9507V191.429H130.665V57.1431Z" fill="#0094DD"/>
</g>
<g opacity="0.25">
<path d="M156.379 185.714L130.665 191.429V57.143L156.379 51.4287V185.714Z" fill="#0094DD"/>
</g>
<path d="M107.808 0L39.2365 27.7143V178.286V184.571L44.9507 186.857L76.0936 198.857C76.3793 198.857 76.9507 199.143 77.2364 199.143C77.5222 199.143 78.0936 199.143 78.3793 198.857L87.8079 194.857V190V40L60.9507 28.8571L104.951 10.2857V50.8571H110.665V10.2857L164.951 32.2857V182.286L162.094 180.857V187.143L164.665 188.286C164.951 188.286 165.522 188.571 165.808 188.571C166.094 188.571 166.665 188.571 166.951 188.286L176.379 184.286V179.429V27.7143L107.808 0ZM76.3793 192.571L44.9507 180.286V31.4286L76.3793 44.2857V192.571Z" fill="black"/>
<path d="M130.665 194.286H84.9508C83.5222 194.286 82.0936 193.143 82.0936 191.428V57.1428C82.0936 55.7142 83.2365 54.2856 84.9508 54.2856H130.665C132.094 54.2856 133.522 55.4285 133.522 57.1428V191.428C133.522 192.857 132.094 194.286 130.665 194.286ZM87.8079 188.571H127.808V59.9999H87.8079V188.571Z" fill="black"/>
<path d="M130.665 194.286C130.094 194.286 129.522 194 128.951 193.714C128.379 193.143 127.808 192.286 127.808 191.429V57.143C127.808 55.7144 128.665 54.5716 130.094 54.2858L155.808 48.5716C156.665 48.2858 157.522 48.5716 158.094 49.143C158.665 49.7144 159.236 50.5716 159.236 51.4287V185.714C159.236 187.143 158.379 188.286 156.951 188.572L131.236 194.286C130.951 194.286 130.951 194.286 130.665 194.286ZM133.522 59.4287V188L153.522 183.429V54.8573L133.522 59.4287Z" fill="black"/>
<path d="M153.183 206.586L130.785 194.701M181.383 198.957L159.243 187.586" stroke="#B0B3B6"/>
<path d="M177.809 197.131L147.783 203.806" stroke="#B0B3B6"/>
<path d="M68.1816 203.536L109.741 203.536" stroke="#B0B3B6"/>
<path d="M131.166 194.836L102.756 206.461M88.0728 194.836L64.1081 205.343" stroke="#B0B3B6"/>
<path fill-rule="evenodd" clip-rule="evenodd" d="M59.9811 216.003L86.1247 205.095L86.5097 206.018L60.2738 216.965L60.1814 217.003H60.0812H18.2654V216.003H59.9811Z" fill="#216FA8"/>
<path d="M78.9522 206.09L89.9576 203.871L80.8719 210.707L78.9522 206.09Z" fill="#216FA8"/>
<path d="M26.3791 207.114H25.0496C24.9985 206.83 24.9033 206.58 24.7641 206.364C24.6249 206.148 24.4544 205.965 24.2527 205.814C24.051 205.663 23.8252 205.55 23.5752 205.473C23.328 205.396 23.0652 205.358 22.7868 205.358C22.284 205.358 21.8337 205.484 21.436 205.737C21.0411 205.99 20.7286 206.361 20.4985 206.85C20.2712 207.338 20.1575 207.935 20.1575 208.639C20.1575 209.35 20.2712 209.949 20.4985 210.438C20.7286 210.926 21.0425 211.296 21.4402 211.546C21.8379 211.796 22.2854 211.921 22.7825 211.921C23.0581 211.921 23.3195 211.884 23.5666 211.81C23.8166 211.733 24.0425 211.621 24.2442 211.473C24.4459 211.325 24.6164 211.145 24.7556 210.932C24.8976 210.716 24.9956 210.469 25.0496 210.19L26.3791 210.195C26.3081 210.624 26.1703 211.019 25.9658 211.379C25.7641 211.737 25.5041 212.047 25.186 212.308C24.8706 212.567 24.5098 212.767 24.1036 212.909C23.6973 213.051 23.2541 213.122 22.774 213.122C22.0183 213.122 21.345 212.943 20.7541 212.585C20.1632 212.225 19.6973 211.709 19.3564 211.038C19.0183 210.368 18.8493 209.568 18.8493 208.639C18.8493 207.707 19.0198 206.908 19.3607 206.24C19.7016 205.57 20.1675 205.055 20.7584 204.698C21.3493 204.337 22.0212 204.156 22.774 204.156C23.2371 204.156 23.6689 204.223 24.0695 204.357C24.4729 204.487 24.8351 204.68 25.1561 204.936C25.4772 205.189 25.7428 205.499 25.953 205.865C26.1632 206.229 26.3053 206.645 26.3791 207.114ZM27.2943 213.003V211.861L27.5499 211.852C27.8965 211.844 28.1693 211.726 28.3681 211.499C28.5698 211.271 28.7161 210.905 28.8071 210.399C28.9008 209.894 28.9633 209.219 28.9946 208.375L29.1437 204.276H34.6622V213.003H33.3624V205.392H30.3838L30.2474 208.725C30.2105 209.659 30.1167 210.445 29.9661 211.081C29.8156 211.715 29.5599 212.193 29.1991 212.517C28.8411 212.841 28.3312 213.003 27.6693 213.003H27.2943ZM36.5798 213.003V204.276H42.0514V205.409H37.8965V208.068H41.7659V209.198H37.8965V211.869H42.1025V213.003H36.5798ZM43.8102 213.003V204.276H47.0063C47.6256 204.276 48.1384 204.378 48.5446 204.582C48.9509 204.784 49.2548 205.058 49.4566 205.405C49.6583 205.749 49.7591 206.136 49.7591 206.568C49.7591 206.932 49.6923 207.239 49.5588 207.489C49.4253 207.736 49.2463 207.935 49.0219 208.085C48.8003 208.233 48.556 208.341 48.2889 208.409V208.494C48.5787 208.509 48.8614 208.602 49.137 208.776C49.4154 208.946 49.6455 209.189 49.8273 209.504C50.0091 209.82 50.1 210.203 50.1 210.655C50.1 211.101 49.9949 211.502 49.7847 211.857C49.5773 212.209 49.2563 212.489 48.8216 212.696C48.387 212.901 47.8316 213.003 47.1554 213.003H43.8102ZM45.127 211.874H47.0276C47.6583 211.874 48.11 211.752 48.3827 211.507C48.6554 211.263 48.7918 210.957 48.7918 210.591C48.7918 210.315 48.7222 210.063 48.583 209.832C48.4438 209.602 48.2449 209.419 47.9864 209.283C47.7307 209.146 47.4267 209.078 47.0745 209.078H45.127V211.874ZM45.127 208.051H46.8912C47.1867 208.051 47.4523 207.994 47.6881 207.881C47.9267 207.767 48.1156 207.608 48.2548 207.403C48.3969 207.196 48.4679 206.952 48.4679 206.671C48.4679 206.31 48.3415 206.007 48.0887 205.763C47.8358 205.519 47.448 205.396 46.9253 205.396H45.127V208.051ZM52.399 213.003H51.0013L54.1419 204.276H55.6632L58.8039 213.003H57.4061L54.9388 205.861H54.8706L52.399 213.003ZM52.6334 209.585H57.1675V210.693H52.6334V209.585Z" fill="#1D1D1F"/>
<path fill-rule="evenodd" clip-rule="evenodd" d="M187.458 212.596L165.995 201.378L165.532 202.264L187.103 213.539L187.212 213.596H187.335H236.177V212.596H187.458Z" fill="#216FA8"/>
<path d="M173.695 203L162.773 200.4L171.617 207.547L173.695 203Z" fill="#216FA8"/>
<path d="M194.546 203.706H193.216C193.165 203.422 193.07 203.172 192.931 202.956C192.792 202.741 192.621 202.557 192.419 202.407C192.218 202.256 191.992 202.143 191.742 202.066C191.495 201.989 191.232 201.951 190.953 201.951C190.451 201.951 190 202.077 189.603 202.33C189.208 202.583 188.895 202.954 188.665 203.442C188.438 203.931 188.324 204.528 188.324 205.232C188.324 205.942 188.438 206.542 188.665 207.03C188.895 207.519 189.209 207.888 189.607 208.138C190.005 208.388 190.452 208.513 190.949 208.513C191.225 208.513 191.486 208.476 191.733 208.403C191.983 208.326 192.209 208.214 192.411 208.066C192.613 207.918 192.783 207.738 192.922 207.525C193.064 207.309 193.162 207.062 193.216 206.783L194.546 206.787C194.475 207.216 194.337 207.611 194.132 207.972C193.931 208.33 193.671 208.64 193.353 208.901C193.037 209.16 192.676 209.36 192.27 209.502C191.864 209.644 191.421 209.715 190.941 209.715C190.185 209.715 189.512 209.536 188.921 209.178C188.33 208.817 187.864 208.302 187.523 207.631C187.185 206.961 187.016 206.161 187.016 205.232C187.016 204.3 187.186 203.501 187.527 202.833C187.868 202.162 188.334 201.648 188.925 201.29C189.516 200.93 190.188 200.749 190.941 200.749C191.404 200.749 191.836 200.816 192.236 200.949C192.64 201.08 193.002 201.273 193.323 201.529C193.644 201.782 193.909 202.091 194.12 202.458C194.33 202.822 194.472 203.238 194.546 203.706ZM202.944 200.868V209.596H201.631V201.993H197.523V209.596H196.211V200.868H202.944ZM204.957 209.596V200.868H208.068C208.747 200.868 209.31 200.992 209.756 201.239C210.202 201.486 210.535 201.824 210.757 202.253C210.979 202.68 211.089 203.16 211.089 203.694C211.089 204.231 210.977 204.714 210.753 205.143C210.531 205.569 210.196 205.907 209.747 206.157C209.301 206.404 208.74 206.528 208.064 206.528H205.925V205.411H207.945C208.374 205.411 208.722 205.337 208.989 205.189C209.256 205.039 209.452 204.834 209.577 204.576C209.702 204.317 209.764 204.023 209.764 203.694C209.764 203.364 209.702 203.072 209.577 202.816C209.452 202.56 209.254 202.36 208.984 202.215C208.717 202.07 208.365 201.998 207.928 201.998H206.274V209.596H204.957ZM212.445 209.596H211.047L214.187 200.868H215.709L218.849 209.596H217.452L214.984 202.454H214.916L212.445 209.596ZM212.679 206.178H217.213V207.286H212.679V206.178ZM220.11 209.596V200.868H223.306C223.925 200.868 224.438 200.971 224.844 201.175C225.25 201.377 225.554 201.651 225.756 201.998C225.958 202.341 226.059 202.729 226.059 203.161C226.059 203.525 225.992 203.831 225.858 204.081C225.725 204.329 225.546 204.528 225.321 204.678C225.1 204.826 224.855 204.934 224.588 205.002V205.087C224.878 205.101 225.161 205.195 225.436 205.368C225.715 205.539 225.945 205.782 226.127 206.097C226.309 206.412 226.399 206.796 226.399 207.248C226.399 207.694 226.294 208.094 226.084 208.449C225.877 208.802 225.556 209.081 225.121 209.289C224.686 209.493 224.131 209.596 223.455 209.596H220.11ZM221.426 208.466H223.327C223.958 208.466 224.409 208.344 224.682 208.1C224.955 207.856 225.091 207.55 225.091 207.184C225.091 206.908 225.022 206.655 224.882 206.425C224.743 206.195 224.544 206.012 224.286 205.876C224.03 205.739 223.726 205.671 223.374 205.671H221.426V208.466ZM221.426 204.644H223.191C223.486 204.644 223.752 204.587 223.988 204.474C224.226 204.36 224.415 204.201 224.554 203.996C224.696 203.789 224.767 203.545 224.767 203.263C224.767 202.903 224.641 202.6 224.388 202.356C224.135 202.111 223.747 201.989 223.225 201.989H221.426V204.644ZM228.698 209.596H227.301L230.441 200.868H231.963L235.103 209.596H233.706L231.238 202.454H231.17L228.698 209.596ZM228.933 206.178H233.467V207.286H228.933V206.178Z" fill="#1D1D1F"/>
</svg>
