<?xml version="1.0" encoding="utf-8"?>
<!-- Generator: Adobe Illustrator 21.0.0, SVG Export Plug-In . SVG Version: 6.00 Build 0)  -->
<svg version="1.1" id="Layer_1" xmlns="http://www.w3.org/2000/svg" xmlns:xlink="http://www.w3.org/1999/xlink" x="0px" y="0px"
	 viewBox="0 0 70 70" style="enable-background:new 0 0 70 70;" xml:space="preserve">
<style type="text/css">
	.st0{fill:#BCBCBC;}
	.st1{opacity:0.25;enable-background:new    ;}
	.st2{fill:#0094DD;}
	.st3{fill:none;stroke:#000000;stroke-width:2;stroke-miterlimit:10;}
	.st4{fill:none;}
</style>
<g>
	<polygon class="st0" points="28.1,64.5 34,64.8 34,62.8 28.1,62.5 	"/>
</g>
<g>
	<g>
		<rect x="33" y="19" class="st0" width="2" height="45"/>
	</g>
</g>
<g class="st1">
	<polygon class="st2" points="41.9,64.8 20,63 20,17 42,19.2 	"/>
</g>
<g>
	<path class="st3" d="M50,58"/>
</g>
<g>
	<polygon class="st4" points="51,66.1 57,59.6 57,5.1 51,12.5 	"/>
</g>
<g>
	<path d="M21.3,0L11,9.1V66c0,0,3.4,0,3.5,0c0.5,0,0.7-0.2,0.9-0.5c0,0,1.2-1.1,2.6-2.5v-2.9c-1.6,1.5-3,2.8-3,2.8V9.7l7-6.3v11
		l2,0.1V2.9l29.7,1.6L47,12.2v45.2c0,0-1.2-0.1-3-0.2v2l3,0.2V69h3.4c0.5,0,0.7-0.1,1-0.4l7.6-8.2V2.6V2.4V2.1L21.3,0z M57,59.6
		L51,66V12.5l6-7.4V59.6z"/>
</g>
<g>
	<path d="M42,66.3L42,66.3l-14.1-0.8c-0.5,0-0.9-0.5-0.9-1v-46c0-0.3,0.1-0.5,0.3-0.7c0.2-0.2,0.5-0.3,0.7-0.3l14,0.8
		c0.5,0,0.9,0.5,0.9,1v46c0,0.3-0.1,0.5-0.3,0.7C42.5,66.2,42.3,66.3,42,66.3z M29,63.6l12,0.7v-44l-12-0.7V63.6z"/>
</g>
<g>
	<path d="M34,16.8l-4.9-0.3l0,0l-9-0.5l0,0H20l0,0c-0.2,0-0.5,0.1-0.7,0.3C19.1,16.5,19,16.7,19,17v46c0,0.5,0.4,1,0.9,1l8.2,0.5v-2
		L21,62.1v-44l8.5,0.5H35v-0.8C35,17.3,34.6,16.8,34,16.8z"/>
</g>
</svg>
