<?xml version="1.0" encoding="utf-8"?>
<!-- Generator: Adobe Illustrator 21.0.0, SVG Export Plug-In . SVG Version: 6.00 Build 0)  -->
<svg version="1.1" id="Layer_1" xmlns="http://www.w3.org/2000/svg" xmlns:xlink="http://www.w3.org/1999/xlink" x="0px" y="0px"
	 viewBox="0 0 70 70" style="enable-background:new 0 0 70 70;" xml:space="preserve">
<style type="text/css">
	.st0{fill:#BCBCBC;}
	.st1{opacity:0.25;fill:#0094DD;enable-background:new    ;}
</style>
<path class="st0" d="M52,59.4l-16.6-6.7c-0.3-0.1-0.5-0.1-0.8,0l-4.1,1.6v2.2l4.5-1.8l17,6.9V59.4z"/>
<polygon class="st1" points="30.2,26.9 51.6,19.3 52.1,61.2 30.6,68.8 "/>
<path d="M61,60.5L61,60.5v-50L35,0L9,10.5v49.6l0,0v2.2l3.3,1.3c0.1,0.1,0.3,0.1,0.4,0.1c0.1,0,0.3,0,0.4-0.1L28,57.4v-2.2l-15,6.3
	V12.1l21-8.5v19l1-0.4l1-0.4V3.6l21,8.5v49.4l-3-1.3v2.2l2.9,1.2c0.1,0,0.3,0.1,0.4,0.1s0.3,0,0.4-0.1l3.3-1.4
	C61,62.2,61,60.5,61,60.5z"/>
<g>
	<path d="M29.9,70c-0.2,0-0.3-0.1-0.5-0.2C29.2,69.6,29,69.3,29,69V26.9c0-0.4,0.3-0.8,0.7-0.9l22-8c0.3-0.1,0.6-0.1,0.9,0.1
		c0.3,0.2,0.4,0.5,0.4,0.8v42c0,0.4-0.3,0.8-0.7,0.9l-22,8.1C30.2,70,30,70,29.9,70z M31,27.6v40l20-7.4V20.3L31,27.6z"/>
</g>
</svg>
