<svg width="240" height="240" viewBox="0 0 240 240" fill="none" xmlns="http://www.w3.org/2000/svg">
<path d="M168.571 169.715L121.143 150.572C120.286 150.286 119.714 150.286 118.857 150.572L107.143 155.143V161.429L120 156.286L168.571 176V169.715Z" fill="#BCBCBC"/>
<path opacity="0.25" d="M106.286 76.8598L167.428 55.1455L168.857 174.86L107.428 196.574L106.286 76.8598Z" fill="#0094DD"/>
<path d="M194.286 172.857V30L120 0L45.7143 30V171.714V178L55.1429 181.714C55.4286 182 56 182 56.2857 182C56.5714 182 57.1429 182 57.4286 181.714L100 164V157.714L57.1429 175.714V34.5714L117.143 10.2857V64.5714L120 63.4286L122.857 62.2857V10.2857L182.857 34.5714V175.714L174.286 172V178.286L182.571 181.714C182.857 181.714 183.429 182 183.714 182C184 182 184.571 182 184.857 181.714L194.286 177.714V172.857Z" fill="black"/>
<path d="M105.429 199.998C104.857 199.998 104.571 199.713 104 199.427C103.429 198.856 102.857 197.998 102.857 197.141V76.8555C102.857 75.7126 103.714 74.5698 104.857 74.2841L167.714 51.4269C168.571 51.1412 169.429 51.1412 170.286 51.7126C171.143 52.2841 171.429 53.1412 171.429 53.9984V173.998C171.429 175.141 170.571 176.284 169.429 176.57L106.571 199.713C106.286 199.998 105.714 199.998 105.429 199.998ZM108.571 78.8555V193.141L165.714 171.998V57.9984L108.571 78.8555Z" fill="black"/>
</svg>
