<svg width="240" height="240" viewBox="0 0 240 240" fill="none" xmlns="http://www.w3.org/2000/svg">
<path d="M168.571 169.715L121.143 150.572C120.286 150.286 119.714 150.286 118.857 150.572L94.5714 160.572V166.857L120 156.286L168.571 176V169.715Z" fill="#BCBCBC"/>
<g opacity="0.25">
<path d="M170 55.1455L120 75.4312L92.2858 64.2884V185.717L119.714 198.003L170 177.717V55.1455Z" fill="#0094DD"/>
</g>
<path d="M194.286 172.857V30L120 0L45.7143 30V171.714V178L55.1429 181.714C55.4286 181.714 56 182 56.2857 182C56.5714 182 57.1429 182 57.4286 181.714L85.4286 169.429V163.143L57.1429 175.714V34.5714L117.143 10.2857V64.5714L120 65.7143L122.857 64.5714V10.2857L182.857 34.5714V175.714L174.286 172V178.286L182.571 181.714C182.857 181.714 183.429 182 183.714 182C184 182 184.286 182 184.857 181.714L194.286 177.714V172.857Z" fill="black"/>
<path d="M170.286 53.4314C169.714 52.86 168.571 52.86 167.714 53.1457L120 72.2885L92.2857 61.1457C91.4286 60.86 90.5714 60.86 89.7143 61.4314C88.8571 62.0028 88.5714 62.86 88.5714 63.7171V184.86C88.5714 186.289 89.1428 187.146 90.2857 187.717L118.571 199.146C118.857 199.431 119.429 199.431 119.714 199.431C120 199.431 120.286 199.431 120.857 199.146L169.429 179.431C170.571 178.86 171.429 178.003 171.429 176.86V55.7171C171.429 54.86 171.143 54.0028 170.286 53.4314ZM94.2857 68.0028L117.143 77.1457V192.289L94.2857 183.146V68.0028ZM165.714 174.86L122.857 192.289V77.4314L165.714 60.0028V174.86Z" fill="black"/>
<path fill-rule="evenodd" clip-rule="evenodd" d="M73.3917 207L100.793 194.545L101.207 195.455L73.7069 207.955L73.6083 208H73.5H16V207H73.3917Z" fill="#216FA8"/>
<path d="M94 195.229L105.005 193.009L95.9197 199.845L94 195.229Z" fill="#216FA8"/>
<path d="M19.0739 195.273H20.3778V202.858H23.2585V195.273H24.5625V202.858H27.4347V195.273H28.7344V204H19.0739V195.273ZM30.7713 195.273H32.0753V201.682H32.1562L36.5966 195.273H37.8153V204H36.4986V197.599H36.4176L31.9858 204H30.7713V195.273ZM39.7362 204V195.273H42.8469C43.5259 195.273 44.0884 195.396 44.5344 195.643C44.9805 195.891 45.3143 196.229 45.5359 196.658C45.7575 197.084 45.8683 197.564 45.8683 198.098C45.8683 198.635 45.756 199.118 45.5316 199.547C45.31 199.973 44.9748 200.311 44.5259 200.561C44.0799 200.808 43.5188 200.932 42.8427 200.932H40.7035V199.815H42.7234C43.1523 199.815 43.5004 199.741 43.7674 199.594C44.0344 199.443 44.2305 199.239 44.3555 198.98C44.4805 198.722 44.543 198.428 44.543 198.098C44.543 197.768 44.4805 197.476 44.3555 197.22C44.2305 196.964 44.033 196.764 43.7631 196.619C43.4961 196.474 43.1438 196.402 42.7063 196.402H41.0529V204H39.7362ZM47.4119 195.273H48.7159V201.682H48.7969L53.2372 195.273H54.456V204H53.1392V197.599H53.0582L48.6264 204H47.4119V195.273ZM56.3768 204V195.273H57.6935V199.065H62.0444V195.273H63.3654V204H62.0444V200.195H57.6935V204H56.3768ZM66.0202 204H64.6225L67.7631 195.273H69.2844L72.4251 204H71.0273L68.56 196.858H68.4918L66.0202 204ZM66.2546 200.582H70.7887V201.69H66.2546V200.582Z" fill="#1D1D1F"/>
<path fill-rule="evenodd" clip-rule="evenodd" d="M145.088 189.348L156.093 191.567L155.32 193.427L184.112 207H234V208H184H183.888L183.787 207.953L154.936 194.351L154.174 196.184L145.088 189.348Z" fill="#216FA8"/>
<path d="M187.298 206.109V202.884H187.874C188.07 202.719 188.253 202.484 188.423 202.18C188.594 201.876 188.739 201.466 188.858 200.949C188.977 200.432 189.06 199.768 189.105 198.959L189.31 195.273H194.692V202.884H195.68V206.097H194.419V204H188.56V206.109H187.298ZM189.425 202.884H193.43V196.406H190.503L190.366 198.959C190.33 199.575 190.268 200.129 190.183 200.621C190.101 201.112 189.994 201.547 189.864 201.925C189.736 202.3 189.589 202.619 189.425 202.884ZM196.462 204V202.858L196.718 202.849C197.065 202.841 197.337 202.723 197.536 202.496C197.738 202.268 197.884 201.902 197.975 201.396C198.069 200.891 198.131 200.216 198.163 199.372L198.312 195.273H203.83V204H202.531V196.389H199.552L199.415 199.722C199.379 200.656 199.285 201.442 199.134 202.078C198.984 202.712 198.728 203.19 198.367 203.514C198.009 203.838 197.499 204 196.837 204H196.462ZM205.748 195.273H207.052V201.682H207.133L211.573 195.273H212.792V204H211.475V197.599H211.394L206.962 204H205.748V195.273ZM214.713 204V195.273H216.029V199.065H220.38V195.273H221.701V204H220.38V200.195H216.029V204H214.713ZM224.356 204H222.958L226.099 195.273H227.62L230.761 204H229.363L226.896 196.858H226.828L224.356 204ZM224.591 200.582H229.125V201.69H224.591V200.582Z" fill="#1D1D1F"/>
</svg>
