<?xml version="1.0" encoding="utf-8"?>
<!-- Generator: Adobe Illustrator 21.0.0, SVG Export Plug-In . SVG Version: 6.00 Build 0)  -->
<svg version="1.1" id="Layer_1" xmlns="http://www.w3.org/2000/svg" xmlns:xlink="http://www.w3.org/1999/xlink" x="0px" y="0px"
	 viewBox="0 0 70 70" style="enable-background:new 0 0 70 70;" xml:space="preserve">
<style type="text/css">
	.st0{fill:#BCBCBC;}
	.st1{opacity:0.25;enable-background:new    ;}
	.st2{fill:#0094DD;}
</style>
<g>
	<path class="st0" d="M40.6,58.6l-22-8.8c-0.4-0.2-0.6-0.5-0.6-0.9V17.4h2v30.8l21.4,8.6L40.6,58.6z"/>
</g>
<g class="st1">
	<path class="st2" d="M10.4,13.8c0,0,30.3,13,30.5,12.9c0.2-0.1-0.5,42.2-0.5,42.2L10.1,57.2L10.4,13.8z"/>
</g>
<path d="M21.5,0L18,1.4v12.5l2,0.8V2.2l1.4,0.5L22.2,3L26,4.6l31.2,12.6v46.2L43,57.5v2.2l13.8,5.8c0.1,0.1,0.3,0.1,0.4,0.1
	c0.1,0,0.3,0,0.4-0.1l3.4-1.4V15.6L21.5,0z"/>
<g>
	<path d="M41.1,69.7c-0.1,0-0.4-0.1-0.6-0.2L9.6,57.7C9.2,57.6,9,57.2,9,56.8V13.9c0-0.3,0.2-0.6,0.4-0.8c0.3-0.2,0.6-0.2,0.9-0.1
		l31.1,12.6c0.4,0.2,0.6,0.5,0.6,0.9v42.2c0,0.3-0.1,0.6-0.3,0.8C41.5,69.6,41.3,69.7,41.1,69.7z M11,56l29,11.3V27.2L11,15.4V56z"
		/>
</g>
</svg>
