<svg width="240" height="240" viewBox="0 0 240 240" fill="none" xmlns="http://www.w3.org/2000/svg">
<path d="M169.143 183.143L170.286 177.143L101.714 150.572C100.857 150.286 99.9999 150.286 99.7142 150.572L69.4285 164.572V170.857L100.857 156.572L169.143 183.143Z" fill="#BCBCBC"/>
<path opacity="0.25" d="M168.286 62.8602L137.143 74.8602L72.5714 49.4316V170.289L136.857 196.575L168.286 183.432V62.8602Z" fill="#0094DD"/>
<path d="M69.7149 46.2827C70.5721 45.7113 71.4292 45.4256 72.5721 45.997L136.572 71.997L167.429 59.7113C168.286 59.4256 169.429 59.4256 170.001 59.997C170.858 60.5685 171.429 60.8542 171.429 62.2827V183.997C171.429 185.14 170.286 186.568 169.429 187.14L138.858 199.711C138.286 199.997 137.429 199.997 137.143 199.997C136.858 199.997 136.001 199.997 135.715 199.711L70.5721 173.426C69.4292 173.14 68.5721 171.711 68.5721 170.854V48.8542C68.5721 47.7113 69.1435 46.8542 69.7149 46.2827ZM165.715 66.8542L140.001 77.1399V192.568L165.715 182.283V66.8542ZM74.2863 168.568L134.286 192.854V77.1399L74.2863 53.1399V168.568Z" fill="black"/>
<path d="M99.9999 0L194.286 37.4286V185.143L184.571 189.143C184.286 189.429 183.714 189.429 183.429 189.429C183.143 189.429 182.571 189.429 182.286 189.143L174.286 185.714V179.429L182.857 182.857V41.7143L102.857 9.42857V52L97.1428 49.7143V9.42857L57.1428 25.7143V169.143L65.7142 165.714V172L58.2856 175.143C57.9999 175.429 57.4285 175.429 57.1428 175.429C56.8571 175.429 56.2856 175.429 55.9999 175.143L45.7142 171.143V22.5714L99.9999 0Z" fill="black"/>
<path fill-rule="evenodd" clip-rule="evenodd" d="M57.3845 207L97.2808 187.551L97.719 188.45L57.719 207.95L57.6152 208H57.4999H7.94165V207H57.3845Z" fill="#216FA8"/>
<path d="M91.0001 188.229L102.005 186.009L92.9197 192.845L91.0001 188.229Z" fill="#216FA8"/>
<path d="M11.2983 206.109V202.884H11.8736C12.0696 202.719 12.2528 202.484 12.4233 202.18C12.5938 201.876 12.7386 201.466 12.858 200.949C12.9773 200.432 13.0597 199.768 13.1051 198.959L13.3097 195.273H18.6918V202.884H19.6804V206.097H18.419V204H12.5597V206.109H11.2983ZM13.4247 202.884H17.4304V196.406H14.5028L14.3665 198.959C14.3295 199.575 14.2685 200.129 14.1832 200.621C14.1009 201.112 13.9943 201.547 13.8636 201.925C13.7358 202.3 13.5895 202.619 13.4247 202.884ZM20.4624 204V202.858L20.718 202.849C21.0646 202.841 21.3374 202.723 21.5362 202.496C21.7379 202.268 21.8842 201.902 21.9751 201.396C22.0689 200.891 22.1314 200.216 22.1626 199.372L22.3118 195.273H27.8303V204H26.5305V196.389H23.5518L23.4155 199.722C23.3786 200.656 23.2848 201.442 23.1342 202.078C22.9837 202.712 22.728 203.19 22.3672 203.514C22.0092 203.838 21.4993 204 20.8374 204H20.4624ZM29.7479 195.273H31.0518V201.682H31.1328L35.5732 195.273H36.7919V204H35.4751V197.599H35.3942L30.9624 204H29.7479V195.273ZM38.7127 204V195.273H40.0295V199.065H44.3803V195.273H45.7013V204H44.3803V200.195H40.0295V204H38.7127ZM48.3562 204H46.9585L50.0991 195.273H51.6204L54.761 204H53.3633L50.896 196.858H50.8278L48.3562 204ZM48.5906 200.582H53.1246V201.69H48.5906V200.582Z" fill="#1D1D1F"/>
<path fill-rule="evenodd" clip-rule="evenodd" d="M153.084 193.009L164.089 195.229L163.288 197.156L184.112 207H239.129V208H184H183.887L183.786 207.952L162.904 198.08L162.17 199.845L153.084 193.009Z" fill="#216FA8"/>
<path d="M185.074 195.273H186.378V202.858H189.258V195.273H190.562V202.858H193.434V195.273H194.734V204H185.074V195.273ZM196.771 195.273H198.075V201.682H198.156L202.596 195.273H203.815V204H202.498V197.599H202.417L197.986 204H196.771V195.273ZM205.736 204V195.273H208.847C209.526 195.273 210.088 195.396 210.534 195.643C210.98 195.891 211.314 196.229 211.536 196.658C211.757 197.084 211.868 197.564 211.868 198.098C211.868 198.635 211.756 199.118 211.531 199.547C211.31 199.973 210.975 200.311 210.526 200.561C210.08 200.808 209.519 200.932 208.842 200.932H206.703V199.815H208.723C209.152 199.815 209.5 199.741 209.767 199.594C210.034 199.443 210.23 199.239 210.355 198.98C210.48 198.722 210.543 198.428 210.543 198.098C210.543 197.768 210.48 197.476 210.355 197.22C210.23 196.964 210.033 196.764 209.763 196.619C209.496 196.474 209.144 196.402 208.706 196.402H207.053V204H205.736ZM213.412 195.273H214.716V201.682H214.797L219.237 195.273H220.456V204H219.139V197.599H219.058L214.626 204H213.412V195.273ZM222.377 204V195.273H223.693V199.065H228.044V195.273H229.365V204H228.044V200.195H223.693V204H222.377ZM232.02 204H230.622L233.763 195.273H235.284L238.425 204H237.027L234.56 196.858H234.492L232.02 204ZM232.254 200.582H236.788V201.69H232.254V200.582Z" fill="#1D1D1F"/>
</svg>
