<svg width="240" height="240" viewBox="0 0 240 240" fill="none" xmlns="http://www.w3.org/2000/svg">
<path d="M169.143 183.143L170.286 177.143L101.714 150.572C100.857 150.286 99.9999 150.286 99.7142 150.572L69.4285 164.572V170.857L100.857 156.572L169.143 183.143Z" fill="#BCBCBC"/>
<path opacity="0.25" d="M168.286 62.8602L137.143 74.8602L72.5714 49.4316V170.289L136.857 196.575L168.286 183.432V62.8602Z" fill="#0094DD"/>
<path d="M69.7149 46.2827C70.5721 45.7113 71.4292 45.4256 72.5721 45.997L136.572 71.997L167.429 59.7113C168.286 59.4256 169.429 59.4256 170.001 59.997C170.858 60.5685 171.429 60.8542 171.429 62.2827V183.997C171.429 185.14 170.286 186.568 169.429 187.14L138.858 199.711C138.286 199.997 137.429 199.997 137.143 199.997C136.858 199.997 136.001 199.997 135.715 199.711L70.5721 173.426C69.4292 173.14 68.5721 171.711 68.5721 170.854V48.8542C68.5721 47.7113 69.1435 46.8542 69.7149 46.2827ZM165.715 66.8542L140.001 77.1399V192.568L165.715 182.283V66.8542ZM74.2863 168.568L134.286 192.854V77.1399L74.2863 53.1399V168.568Z" fill="black"/>
<path d="M99.9999 0L194.286 37.4286V185.143L184.571 189.143C184.286 189.429 183.714 189.429 183.429 189.429C183.143 189.429 182.571 189.429 182.286 189.143L174.286 185.714V179.429L182.857 182.857V41.7143L102.857 9.42857V52L97.1428 49.7143V9.42857L57.1428 25.7143V169.143L65.7142 165.714V172L58.2856 175.143C57.9999 175.429 57.4285 175.429 57.1428 175.429C56.8571 175.429 56.2856 175.429 55.9999 175.143L45.7142 171.143V22.5714L99.9999 0Z" fill="black"/>
<path fill-rule="evenodd" clip-rule="evenodd" d="M57.3846 207L97.2809 187.551L97.7191 188.45L57.7191 207.95L57.6154 208H57.5H0V207H57.3846Z" fill="#216FA8"/>
<path d="M91.0001 188.229L102.005 186.009L92.9197 192.845L91.0001 188.229Z" fill="#216FA8"/>
<path d="M3.07386 195.273H4.37784V202.858H7.25852V195.273H8.5625V202.858H11.4347V195.273H12.7344V204H3.07386V195.273ZM14.7713 195.273H16.0753V201.682H16.1562L20.5966 195.273H21.8153V204H20.4986V197.599H20.4176L15.9858 204H14.7713V195.273ZM23.7362 204V195.273H26.8469C27.5259 195.273 28.0884 195.396 28.5344 195.643C28.9805 195.891 29.3143 196.229 29.5359 196.658C29.7575 197.084 29.8683 197.564 29.8683 198.098C29.8683 198.635 29.756 199.118 29.5316 199.547C29.31 199.973 28.9748 200.311 28.5259 200.561C28.0799 200.808 27.5188 200.932 26.8427 200.932H24.7035V199.815H26.7234C27.1523 199.815 27.5004 199.741 27.7674 199.594C28.0344 199.443 28.2305 199.239 28.3555 198.98C28.4805 198.722 28.543 198.428 28.543 198.098C28.543 197.768 28.4805 197.476 28.3555 197.22C28.2305 196.964 28.033 196.764 27.7631 196.619C27.4961 196.474 27.1438 196.402 26.7063 196.402H25.0529V204H23.7362ZM31.4119 195.273H32.7159V201.682H32.7969L37.2372 195.273H38.456V204H37.1392V197.599H37.0582L32.6264 204H31.4119V195.273ZM40.3768 204V195.273H41.6935V199.065H46.0444V195.273H47.3654V204H46.0444V200.195H41.6935V204H40.3768ZM50.0202 204H48.6225L51.7631 195.273H53.2844L56.4251 204H55.0273L52.56 196.858H52.4918L50.0202 204ZM50.2546 200.582H54.7887V201.69H50.2546V200.582Z" fill="#1D1D1F"/>
<path fill-rule="evenodd" clip-rule="evenodd" d="M153.084 193.009L164.089 195.229L163.288 197.156L184.112 207H234V208H184H183.888L183.786 207.952L162.904 198.08L162.17 199.845L153.084 193.009Z" fill="#216FA8"/>
<path d="M187.298 206.109V202.884H187.873C188.069 202.719 188.253 202.484 188.423 202.18C188.594 201.876 188.738 201.466 188.858 200.949C188.977 200.432 189.059 199.768 189.105 198.959L189.309 195.273H194.692V202.884H195.68V206.097H194.419V204H188.559V206.109H187.298ZM189.424 202.884H193.43V196.406H190.503L190.366 198.959C190.329 199.575 190.268 200.129 190.183 200.621C190.101 201.112 189.994 201.547 189.863 201.925C189.736 202.3 189.589 202.619 189.424 202.884ZM196.462 204V202.858L196.718 202.849C197.064 202.841 197.337 202.723 197.536 202.496C197.738 202.268 197.884 201.902 197.975 201.396C198.069 200.891 198.131 200.216 198.162 199.372L198.312 195.273H203.83V204H202.53V196.389H199.552L199.415 199.722C199.378 200.656 199.285 201.442 199.134 202.078C198.983 202.712 198.728 203.19 198.367 203.514C198.009 203.838 197.499 204 196.837 204H196.462ZM205.748 195.273H207.052V201.682H207.133L211.573 195.273H212.792V204H211.475V197.599H211.394L206.962 204H205.748V195.273ZM214.712 204V195.273H216.029V199.065H220.38V195.273H221.701V204H220.38V200.195H216.029V204H214.712ZM224.356 204H222.958L226.099 195.273H227.62L230.761 204H229.363L226.896 196.858H226.828L224.356 204ZM224.59 200.582H229.124V201.69H224.59V200.582Z" fill="#1D1D1F"/>
</svg>
