<?xml version="1.0" encoding="utf-8"?>
<!-- Generator: Adobe Illustrator 21.0.0, SVG Export Plug-In . SVG Version: 6.00 Build 0)  -->
<svg version="1.1" id="Layer_1" xmlns="http://www.w3.org/2000/svg" xmlns:xlink="http://www.w3.org/1999/xlink" x="0px" y="0px"
	 viewBox="0 0 70 70" style="enable-background:new 0 0 70 70;" xml:space="preserve">
<style type="text/css">
	.st0{fill:#BCBCBC;}
	.st1{opacity:0.25;fill:#0094DD;enable-background:new    ;}
</style>
<path class="st0" d="M23,50.2V21h-2v29.2l-10.5,4.4l0.8,1.8L22,52c0,0,0.6-0.3,0.8-0.5c0.1-0.1,0.1-0.2,0.2-0.3
	C23,51,23,50.2,23,50.2z"/>
<path class="st1" d="M11.3,17l10.3-4.7l0.5,8.8c0,0,16.6,7.1,16.8,7s10.9-4.2,10.9-4.2l0.5,39.8l-11.1,4.2l-28-11.4L11.3,17L11.3,17
	z"/>
<path d="M10,16.7v39.9c0,0.3,0.2,0.8,0.6,0.9l27.9,11.4c0.2,0.1,0.3,0.2,0.4,0.2c0.2,0,0.3,0,0.4-0.1l11-4.5c0.3-0.3,0.7-0.6,0.7-1
	V23.6c0-0.5-0.2-0.7-0.5-0.9c-0.3-0.2-0.6-0.2-0.9-0.1l-10.8,4.3L11.3,15.7c-0.4-0.2-0.8,0-1,0.1C10.1,15.9,10,16.2,10,16.7z
	 M49,62.8l-9,3.6V28.7l9-3.6V62.8z M12,18.2l26,10.5v37.7L12,55.8V18.2z"/>
<path d="M21,13.9v6.5l2,0.7v-8.8c0-0.5-0.2-0.7-0.4-0.9c-0.3-0.2-0.6-0.2-0.9-0.1l-11,4.3v1.1l1.6,0.6L21,13.9z"/>
<path d="M55.2,14.1v4.4v2v42.9L52,62.1v2.2l2.8,1.2c0.1,0.1,0.3,0.1,0.4,0.1c0.1,0,0.3-0.1,0.4-0.1l3.4-1.4V15.6L55.2,14.1z"/>
<path d="M19.5,0L16,1.4v0.1v5.9v3.8l2-0.8V7.5v-5l37.2,14.7v46.2L54.1,63v2.3l0.7,0.3c0.1,0.1,0.3,0.1,0.4,0.1
	c0.1,0,0.3-0.1,0.4-0.1l3.4-1.4V15.6L19.5,0z"/>
</svg>
