<svg width="240" height="240" viewBox="0 0 240 240" fill="none" xmlns="http://www.w3.org/2000/svg">
<path d="M70.8571 183.143L69.7142 177.143L138.286 150.572C139.143 150.286 140 150.286 140.286 150.572L170.571 164.572V170.857L139.143 156.572L70.8571 183.143Z" fill="#BCBCBC"/>
<path opacity="0.25" d="M71.7142 62.8602L102.857 74.8602L167.429 49.4316V170.289L103.143 196.575L71.7142 183.432V62.8602Z" fill="#0094DD"/>
<path d="M170.286 46.2827C169.429 45.7113 168.571 45.4256 167.429 45.997L103.429 71.997L72.5714 59.7113C71.7143 59.4256 70.5714 59.4256 70 59.997C69.1428 60.5685 68.5714 60.8542 68.5714 62.2827V183.997C68.5714 185.14 69.7143 186.568 70.5714 187.14L101.143 199.711C101.714 199.997 102.571 199.997 102.857 199.997C103.143 199.997 104 199.997 104.286 199.711L169.429 173.426C170.571 173.14 171.429 171.711 171.429 170.854V48.8542C171.429 47.7113 170.857 46.8542 170.286 46.2827ZM74.2857 66.8542L100 77.1399V192.568L74.2857 182.283V66.8542ZM165.714 168.568L105.714 192.854V77.1399L165.714 53.1399V168.568Z" fill="black"/>
<path d="M140 0L45.7142 37.4286V185.143L55.4285 189.143C55.7142 189.429 56.2857 189.429 56.5714 189.429C56.8571 189.429 57.4285 189.429 57.7142 189.143L65.7142 185.714V179.429L57.1428 182.857V41.7143L137.143 9.42857V52L142.857 49.7143V9.42857L182.857 25.7143V169.143L174.286 165.714V172L181.714 175.143C182 175.429 182.571 175.429 182.857 175.429C183.143 175.429 183.714 175.429 184 175.143L194.286 171.143V22.5714L140 0Z" fill="black"/>
<path fill-rule="evenodd" clip-rule="evenodd" d="M57.3917 207L84.7931 194.545L85.2069 195.455L57.7069 207.955L57.6083 208H57.5H0V207H57.3917Z" fill="#216FA8"/>
<path d="M76.3419 196.186L87.3472 193.966L78.2615 200.802L76.3419 196.186Z" fill="#216FA8"/>
<path d="M3.07386 195.273H4.37784V202.858H7.25852V195.273H8.5625V202.858H11.4347V195.273H12.7344V204H3.07386V195.273ZM14.7713 195.273H16.0753V201.682H16.1562L20.5966 195.273H21.8153V204H20.4986V197.599H20.4176L15.9858 204H14.7713V195.273ZM23.7362 204V195.273H26.8469C27.5259 195.273 28.0884 195.396 28.5344 195.643C28.9805 195.891 29.3143 196.229 29.5359 196.658C29.7575 197.084 29.8683 197.564 29.8683 198.098C29.8683 198.635 29.756 199.118 29.5316 199.547C29.31 199.973 28.9748 200.311 28.5259 200.561C28.0799 200.808 27.5188 200.932 26.8427 200.932H24.7035V199.815H26.7234C27.1523 199.815 27.5004 199.741 27.7674 199.594C28.0344 199.443 28.2305 199.239 28.3555 198.98C28.4805 198.722 28.543 198.428 28.543 198.098C28.543 197.768 28.4805 197.476 28.3555 197.22C28.2305 196.964 28.033 196.764 27.7631 196.619C27.4961 196.474 27.1438 196.402 26.7063 196.402H25.0529V204H23.7362ZM31.4119 195.273H32.7159V201.682H32.7969L37.2372 195.273H38.456V204H37.1392V197.599H37.0582L32.6264 204H31.4119V195.273ZM40.3768 204V195.273H41.6935V199.065H46.0444V195.273H47.3654V204H46.0444V200.195H41.6935V204H40.3768ZM50.0202 204H48.6225L51.7631 195.273H53.2844L56.4251 204H55.0273L52.56 196.858H52.4918L50.0202 204ZM50.2546 200.582H54.7887V201.69H50.2546V200.582Z" fill="#1D1D1F"/>
<path fill-rule="evenodd" clip-rule="evenodd" d="M138.312 185.922L149.317 188.141L148.526 190.044L184.113 207H234V208H184H183.887L183.785 207.951L148.142 190.968L147.398 192.758L138.312 185.922Z" fill="#216FA8"/>
<path d="M187.298 206.109V202.884H187.873C188.069 202.719 188.253 202.484 188.423 202.18C188.594 201.876 188.739 201.466 188.858 200.949C188.977 200.432 189.06 199.768 189.105 198.959L189.31 195.273H194.692V202.884H195.68V206.097H194.419V204H188.56V206.109H187.298ZM189.425 202.884H193.43V196.406H190.503L190.366 198.959C190.329 199.575 190.268 200.129 190.183 200.621C190.101 201.112 189.994 201.547 189.864 201.925C189.736 202.3 189.589 202.619 189.425 202.884ZM196.462 204V202.858L196.718 202.849C197.065 202.841 197.337 202.723 197.536 202.496C197.738 202.268 197.884 201.902 197.975 201.396C198.069 200.891 198.131 200.216 198.163 199.372L198.312 195.273H203.83V204H202.53V196.389H199.552L199.415 199.722C199.378 200.656 199.285 201.442 199.134 202.078C198.984 202.712 198.728 203.19 198.367 203.514C198.009 203.838 197.499 204 196.837 204H196.462ZM205.748 195.273H207.052V201.682H207.133L211.573 195.273H212.792V204H211.475V197.599H211.394L206.962 204H205.748V195.273ZM214.713 204V195.273H216.029V199.065H220.38V195.273H221.701V204H220.38V200.195H216.029V204H214.713ZM224.356 204H222.958L226.099 195.273H227.62L230.761 204H229.363L226.896 196.858H226.828L224.356 204ZM224.59 200.582H229.125V201.69H224.59V200.582Z" fill="#1D1D1F"/>
</svg>
