<svg width="240" height="240" viewBox="0 0 240 240" fill="none" xmlns="http://www.w3.org/2000/svg">
<path d="M168.571 169.715L121.143 150.572C120.286 150.286 119.714 150.286 118.857 150.572L71.4286 169.715V176L120 156.286L168.571 176V169.715Z" fill="#BCBCBC"/>
<path opacity="0.25" d="M145.714 67.4263L94.2858 67.7121C94.0001 67.7121 93.4286 67.7121 93.1429 67.4263L74.2858 60.2835V175.141L94.8572 185.998H144.857L166.286 174.569L166.571 59.1406L146.286 67.4263C146.571 67.4263 146 67.4263 145.714 67.4263Z" fill="#0094DD"/>
<path d="M194.286 172.857V30L120 0L45.7142 30V171.714V178L55.1428 181.714C55.4285 181.714 55.9999 182 56.2857 182C56.5714 182 57.1428 182 57.4285 181.714L65.7142 178.286V172L57.1428 175.714V34.5714L117.143 10.2857V60H122.857V10.2857L182.857 34.5714V175.714L174.286 172V178.286L182.571 181.714C182.857 181.714 183.429 182 183.714 182C184 182 184.571 182 184.857 181.714L194.286 177.714V172.857Z" fill="black"/>
<path d="M170 53.7156C169.429 53.1441 168.286 53.1441 167.429 53.4299L145.143 63.1441H94.8571L72.5714 53.4299C71.7143 53.1441 70.8571 53.1441 70 53.7156C69.1428 54.0013 68.5714 55.1441 68.5714 56.0013V176.573C68.5714 177.716 69.1428 178.573 70 179.144L92.8571 191.144C93.4286 191.43 93.7143 191.43 94.2857 191.43H145.714C146.286 191.43 146.571 191.43 147.143 191.43L170 179.43C170.857 178.858 171.429 178.001 171.429 176.858V56.0013C171.429 55.1441 170.857 54.287 170 53.7156ZM97.1428 68.5727H142.857V185.716H97.1428V68.5727ZM74.2857 60.287L91.4286 67.4299V183.716L74.2857 174.858V60.287ZM165.714 174.573L148.571 183.716V67.4299L165.714 60.0013V174.573Z" fill="black"/>
<path fill-rule="evenodd" clip-rule="evenodd" d="M51.896 198.02L79.2974 185.564L79.7112 186.475L52.2112 198.975L52.1126 199.02H52.0043H7.02734V198.02H51.896Z" fill="#216FA8"/>
<path d="M70.8463 187.205L81.8516 184.986L72.7659 191.822L70.8463 187.205Z" fill="#216FA8"/>
<path d="M17.7117 189.13H16.3821C16.331 188.846 16.2358 188.596 16.0966 188.38C15.9574 188.164 15.7869 187.981 15.5852 187.831C15.3835 187.68 15.1577 187.566 14.9077 187.49C14.6605 187.413 14.3977 187.375 14.1193 187.375C13.6165 187.375 13.1662 187.501 12.7685 187.754C12.3736 188.007 12.0611 188.377 11.831 188.866C11.6037 189.355 11.4901 189.951 11.4901 190.656C11.4901 191.366 11.6037 191.966 11.831 192.454C12.0611 192.943 12.375 193.312 12.7727 193.562C13.1705 193.812 13.6179 193.937 14.1151 193.937C14.3906 193.937 14.652 193.9 14.8992 193.826C15.1492 193.75 15.375 193.637 15.5767 193.49C15.7784 193.342 15.9489 193.162 16.0881 192.949C16.2301 192.733 16.3281 192.485 16.3821 192.207L17.7117 192.211C17.6406 192.64 17.5029 193.035 17.2983 193.396C17.0966 193.754 16.8367 194.064 16.5185 194.325C16.2031 194.583 15.8423 194.784 15.4361 194.926C15.0298 195.068 14.5867 195.139 14.1065 195.139C13.3509 195.139 12.6776 194.96 12.0867 194.602C11.4957 194.241 11.0298 193.725 10.6889 193.055C10.3509 192.385 10.1818 191.585 10.1818 190.656C10.1818 189.724 10.3523 188.924 10.6932 188.257C11.0341 187.586 11.5 187.072 12.0909 186.714C12.6818 186.353 13.3537 186.173 14.1065 186.173C14.5696 186.173 15.0014 186.24 15.402 186.373C15.8054 186.504 16.1676 186.697 16.4886 186.953C16.8097 187.206 17.0753 187.515 17.2855 187.882C17.4957 188.245 17.6378 188.662 17.7117 189.13ZM18.6268 195.02V193.877L18.8825 193.869C19.2291 193.86 19.5018 193.743 19.7007 193.515C19.9024 193.288 20.0487 192.922 20.1396 192.416C20.2333 191.91 20.2958 191.235 20.3271 190.392L20.4762 186.292H25.9947V195.02H24.695V187.409H21.7163L21.5799 190.741C21.543 191.676 21.4492 192.461 21.2987 193.098C21.1481 193.731 20.8924 194.21 20.5316 194.534C20.1737 194.858 19.6637 195.02 19.0018 195.02H18.6268ZM27.9123 195.02V186.292H33.3839V187.426H29.2291V190.085H33.0984V191.214H29.2291V193.886H33.435V195.02H27.9123ZM35.1428 195.02V186.292H38.3388C38.9581 186.292 39.4709 186.395 39.8771 186.599C40.2834 186.801 40.5874 187.075 40.7891 187.422C40.9908 187.765 41.0916 188.153 41.0916 188.585C41.0916 188.949 41.0249 189.255 40.8913 189.505C40.7578 189.752 40.5788 189.951 40.3544 190.102C40.1328 190.25 39.8885 190.358 39.6215 190.426V190.511C39.9112 190.525 40.1939 190.619 40.4695 190.792C40.7479 190.963 40.978 191.206 41.1598 191.521C41.3416 191.836 41.4325 192.22 41.4325 192.672C41.4325 193.118 41.3274 193.518 41.1172 193.873C40.9098 194.225 40.5888 194.505 40.1541 194.713C39.7195 194.917 39.1641 195.02 38.4879 195.02H35.1428ZM36.4595 193.89H38.3601C38.9908 193.89 39.4425 193.768 39.7152 193.524C39.9879 193.279 40.1243 192.974 40.1243 192.608C40.1243 192.332 40.0547 192.079 39.9155 191.849C39.7763 191.619 39.5774 191.436 39.3189 191.299C39.0632 191.163 38.7592 191.095 38.407 191.095H36.4595V193.89ZM36.4595 190.068H38.2237C38.5192 190.068 38.7848 190.011 39.0206 189.897C39.2592 189.784 39.4482 189.625 39.5874 189.42C39.7294 189.213 39.8004 188.968 39.8004 188.687C39.8004 188.326 39.674 188.024 39.4212 187.779C39.1683 187.535 38.7806 187.413 38.2578 187.413H36.4595V190.068ZM43.7315 195.02H42.3338L45.4744 186.292H46.9957L50.1364 195.02H48.7386L46.2713 187.877H46.2031L43.7315 195.02ZM43.9659 191.602H48.5V192.71H43.9659V191.602Z" fill="#1D1D1F"/>
<path fill-rule="evenodd" clip-rule="evenodd" d="M189.067 198.02L161.666 185.564L161.252 186.475L188.752 198.975L188.851 199.02H188.959H239.963V198.02H189.067Z" fill="#216FA8"/>
<path d="M170.117 187.205L159.112 184.986L168.197 191.822L170.117 187.205Z" fill="#216FA8"/>
<path d="M195.666 189.13H194.337C194.286 188.846 194.19 188.596 194.051 188.38C193.912 188.164 193.742 187.981 193.54 187.831C193.338 187.68 193.112 187.566 192.862 187.49C192.615 187.413 192.352 187.375 192.074 187.375C191.571 187.375 191.121 187.501 190.723 187.754C190.328 188.007 190.016 188.377 189.786 188.866C189.558 189.355 189.445 189.951 189.445 190.656C189.445 191.366 189.558 191.966 189.786 192.454C190.016 192.943 190.33 193.312 190.727 193.562C191.125 193.812 191.572 193.937 192.07 193.937C192.345 193.937 192.607 193.9 192.854 193.826C193.104 193.75 193.33 193.637 193.531 193.49C193.733 193.342 193.903 193.162 194.043 192.949C194.185 192.733 194.283 192.485 194.337 192.207L195.666 192.211C195.595 192.64 195.457 193.035 195.253 193.396C195.051 193.754 194.791 194.064 194.473 194.325C194.158 194.583 193.797 194.784 193.391 194.926C192.984 195.068 192.541 195.139 192.061 195.139C191.305 195.139 190.632 194.96 190.041 194.602C189.45 194.241 188.984 193.725 188.644 193.055C188.305 192.385 188.136 191.585 188.136 190.656C188.136 189.724 188.307 188.924 188.648 188.257C188.989 187.586 189.455 187.072 190.046 186.714C190.636 186.353 191.308 186.173 192.061 186.173C192.524 186.173 192.956 186.24 193.357 186.373C193.76 186.504 194.122 186.697 194.443 186.953C194.764 187.206 195.03 187.515 195.24 187.882C195.45 188.245 195.592 188.662 195.666 189.13ZM204.064 186.292V195.02H202.752V187.417H198.644V195.02H197.331V186.292H204.064ZM206.078 195.02V186.292H209.189C209.868 186.292 210.43 186.416 210.876 186.663C211.322 186.91 211.656 187.248 211.878 187.677C212.099 188.103 212.21 188.583 212.21 189.118C212.21 189.654 212.098 190.137 211.873 190.566C211.652 190.993 211.316 191.331 210.868 191.581C210.422 191.828 209.86 191.951 209.184 191.951H207.045V190.835H209.065C209.494 190.835 209.842 190.761 210.109 190.613C210.376 190.463 210.572 190.258 210.697 190C210.822 189.741 210.885 189.447 210.885 189.118C210.885 188.788 210.822 188.495 210.697 188.24C210.572 187.984 210.375 187.784 210.105 187.639C209.838 187.494 209.485 187.422 209.048 187.422H207.395V195.02H206.078ZM213.565 195.02H212.167L215.308 186.292H216.829L219.97 195.02H218.572L216.105 187.877H216.037L213.565 195.02ZM213.799 191.602H218.334V192.71H213.799V191.602ZM221.23 195.02V186.292H224.426C225.046 186.292 225.558 186.395 225.965 186.599C226.371 186.801 226.675 187.075 226.876 187.422C227.078 187.765 227.179 188.153 227.179 188.585C227.179 188.949 227.112 189.255 226.979 189.505C226.845 189.752 226.666 189.951 226.442 190.102C226.22 190.25 225.976 190.358 225.709 190.426V190.511C225.999 190.525 226.281 190.619 226.557 190.792C226.835 190.963 227.065 191.206 227.247 191.521C227.429 191.836 227.52 192.22 227.52 192.672C227.52 193.118 227.415 193.518 227.205 193.873C226.997 194.225 226.676 194.505 226.242 194.713C225.807 194.917 225.251 195.02 224.575 195.02H221.23ZM222.547 193.89H224.447C225.078 193.89 225.53 193.768 225.803 193.524C226.075 193.279 226.212 192.974 226.212 192.608C226.212 192.332 226.142 192.079 226.003 191.849C225.864 191.619 225.665 191.436 225.406 191.299C225.151 191.163 224.847 191.095 224.494 191.095H222.547V193.89ZM222.547 190.068H224.311C224.607 190.068 224.872 190.011 225.108 189.897C225.347 189.784 225.536 189.625 225.675 189.42C225.817 189.213 225.888 188.968 225.888 188.687C225.888 188.326 225.761 188.024 225.509 187.779C225.256 187.535 224.868 187.413 224.345 187.413H222.547V190.068ZM229.819 195.02H228.421L231.562 186.292H233.083L236.224 195.02H234.826L232.359 187.877H232.291L229.819 195.02ZM230.053 191.602H234.587V192.71H230.053V191.602Z" fill="#1D1D1F"/>
<path fill-rule="evenodd" clip-rule="evenodd" d="M46.0153 226.056L117.245 192.588L117.671 193.493L48.4678 226.009H166.047V227.009H46.228C45.9938 227.009 45.791 226.846 45.74 226.618C45.6889 226.389 45.8034 226.156 46.0153 226.056Z" fill="#216FA8"/>
<path d="M110.259 193.604L121.264 191.384L112.179 198.22L110.259 193.604Z" fill="#216FA8"/>
<path d="M88.3528 214.282V223.01H87.0403V215.407H82.9323V223.01H81.6198V214.282H88.3528ZM97.9472 218.646C97.9472 219.578 97.7768 220.379 97.4359 221.05C97.095 221.717 96.6276 222.231 96.0339 222.592C95.443 222.95 94.7711 223.129 94.0183 223.129C93.2626 223.129 92.5879 222.95 91.9941 222.592C91.4032 222.231 90.9373 221.716 90.5964 221.045C90.2555 220.375 90.085 219.575 90.085 218.646C90.085 217.714 90.2555 216.915 90.5964 216.247C90.9373 215.577 91.4032 215.062 91.9941 214.704C92.5879 214.344 93.2626 214.163 94.0183 214.163C94.7711 214.163 95.443 214.344 96.0339 214.704C96.6276 215.062 97.095 215.577 97.4359 216.247C97.7768 216.915 97.9472 217.714 97.9472 218.646ZM96.6433 218.646C96.6433 217.936 96.5282 217.338 96.2981 216.852C96.0708 216.363 95.7583 215.994 95.3606 215.744C94.9657 215.491 94.5183 215.365 94.0183 215.365C93.5154 215.365 93.0666 215.491 92.6717 215.744C92.2768 215.994 91.9643 216.363 91.7342 216.852C91.5069 217.338 91.3933 217.936 91.3933 218.646C91.3933 219.356 91.5069 219.956 91.7342 220.444C91.9643 220.93 92.2768 221.3 92.6717 221.552C93.0666 221.802 93.5154 221.927 94.0183 221.927C94.5183 221.927 94.9657 221.802 95.3606 221.552C95.7583 221.3 96.0708 220.93 96.2981 220.444C96.5282 219.956 96.6433 219.356 96.6433 218.646ZM106.838 217.121H105.508C105.457 216.836 105.362 216.586 105.222 216.371C105.083 216.155 104.913 215.971 104.711 215.821C104.509 215.67 104.284 215.557 104.034 215.48C103.786 215.403 103.524 215.365 103.245 215.365C102.742 215.365 102.292 215.491 101.894 215.744C101.499 215.997 101.187 216.368 100.957 216.856C100.73 217.345 100.616 217.942 100.616 218.646C100.616 219.356 100.73 219.956 100.957 220.444C101.187 220.933 101.501 221.302 101.899 221.552C102.296 221.802 102.744 221.927 103.241 221.927C103.516 221.927 103.778 221.89 104.025 221.817C104.275 221.74 104.501 221.628 104.703 221.48C104.904 221.332 105.075 221.152 105.214 220.939C105.356 220.723 105.454 220.476 105.508 220.197L106.838 220.202C106.766 220.631 106.629 221.025 106.424 221.386C106.222 221.744 105.963 222.054 105.644 222.315C105.329 222.574 104.968 222.774 104.562 222.916C104.156 223.058 103.713 223.129 103.232 223.129C102.477 223.129 101.803 222.95 101.213 222.592C100.622 222.231 100.156 221.716 99.8148 221.045C99.4767 220.375 99.3077 219.575 99.3077 218.646C99.3077 217.714 99.4781 216.915 99.819 216.247C100.16 215.577 100.626 215.062 101.217 214.704C101.808 214.344 102.48 214.163 103.232 214.163C103.695 214.163 104.127 214.23 104.528 214.363C104.931 214.494 105.293 214.687 105.615 214.943C105.936 215.196 106.201 215.506 106.411 215.872C106.622 216.236 106.764 216.652 106.838 217.121ZM108.413 223.01V214.282H113.885V215.416H109.73V218.075H113.599V219.204H109.73V221.876H113.936V223.01H108.413ZM115.644 223.01V214.282H118.754C119.433 214.282 119.996 214.406 120.442 214.653C120.888 214.9 121.222 215.238 121.443 215.667C121.665 216.094 121.776 216.574 121.776 217.108C121.776 217.645 121.664 218.128 121.439 218.557C121.217 218.983 120.882 219.321 120.433 219.571C119.987 219.818 119.426 219.942 118.75 219.942H116.611V218.825H118.631C119.06 218.825 119.408 218.751 119.675 218.604C119.942 218.453 120.138 218.248 120.263 217.99C120.388 217.731 120.45 217.437 120.45 217.108C120.45 216.778 120.388 216.486 120.263 216.23C120.138 215.974 119.94 215.774 119.671 215.629C119.404 215.484 119.051 215.412 118.614 215.412H116.96V223.01H115.644ZM123.319 223.01V214.282H128.791V215.416H124.636V218.075H128.505V219.204H124.636V221.876H128.842V223.01H123.319ZM129.889 225.119V221.893H130.465C130.661 221.729 130.844 221.494 131.014 221.19C131.185 220.886 131.33 220.476 131.449 219.959C131.568 219.442 131.651 218.778 131.696 217.969L131.901 214.282H137.283V221.893H138.271V225.106H137.01V223.01H131.151V225.119H129.889ZM132.016 221.893H136.021V215.416H133.094L132.958 217.969C132.921 218.585 132.86 219.139 132.774 219.631C132.692 220.122 132.585 220.557 132.455 220.934C132.327 221.309 132.181 221.629 132.016 221.893ZM139.714 214.282H141.018V220.692H141.099L145.539 214.282H146.758V223.01H145.441V216.609H145.36L140.928 223.01H139.714V214.282ZM148.679 223.01V214.282H149.996V218.075H154.346V214.282H155.667V223.01H154.346V219.204H149.996V223.01H148.679ZM157.585 223.01V214.282H163.057V215.416H158.902V218.075H162.771V219.204H158.902V221.876H163.108V223.01H157.585Z" fill="#1D1D1F"/>
</svg>
