<svg width="70" height="70" viewBox="0 0 70 70" fill="none" xmlns="http://www.w3.org/2000/svg">
<g clip-path="url(#clip0_2615_3627)">
<path d="M42 0L5 14.5V63.2L8.6 64.6C8.7 64.7 8.9 64.7 9 64.7C9.1 64.7 9.3 64.7 9.4 64.6L12 63.4V61.2L9 62.5V16.2L41 3.4V16.4807L43 17.3134V3.4L61 10.7V57.9L48 51.5V53.7L60.6 59.9C60.7 59.9 60.9 60 61 60C61.1 60 61.2 60 61.4 59.9L65 58.4V9.3L42 0Z" fill="black"/>
<path fill-rule="evenodd" clip-rule="evenodd" d="M13.5346 21.4235L13.5305 21.421C20.2965 18.8342 22.8414 17.8613 25.3854 16.8857C26.9192 16.2975 28.4527 15.7084 30.9107 14.7641C31.2308 14.6409 31.6144 14.6641 31.9144 14.7641C36.5458 16.6234 36.554 16.6234 46.7 20.7994C46.9655 20.9086 47 21.2994 47 21.6994V62.1995C47 62.4995 46.8 62.8995 46.4 63.0995L29.5 69.9003C29.4 70.0003 29.1 70.0003 29 70.0003C28.8828 70.0003 28.7657 69.966 28.6686 69.9375C28.6 69.9174 28.5414 69.9003 28.5 69.9003L13.6 63.8003C13.3 63.6003 13 63.2003 13 62.8003V22.4002C13 21.9002 13.1 21.7002 13.4 21.5002C13.4449 21.4702 13.4897 21.4448 13.5346 21.4235ZM16.0803 22.3011L31.4183 16.502L43.701 21.5246L29.2 27.4002L16.0803 22.3011ZM28 29.2002L15 24.0002V62.2003L28 67.4003V29.2002ZM30 67.5003L45 61.3995V23.1994L30 29.2002V67.5003Z" fill="black"/>
<path opacity="0.25" d="M30.0364 67.4738V29.2555L44.9653 23.1348V61.4523L30.0364 67.4738Z" fill="#0094DD"/>
<path d="M57.009 30.0107L46.9406 33.9589L46.9406 36.483L59.0502 31.6514C59.0502 30.8644 59.0502 29.7819 59.0502 29.0578L46.9406 24.187L46.9406 25.9757L57.009 30.0107Z" fill="black"/>
<path d="M57.0684 38.832L47 42.7803L47 45.3043L59.1097 40.4727C59.1097 39.6857 59.1097 38.6032 59.1097 37.8791L48.0451 33.5045L48.0451 35.2932L57.0684 38.832Z" fill="black"/>
<path d="M57.009 47.6987L46.9406 51.6469L46.9406 54.171L59.0502 49.3394C59.0502 48.5524 59.0502 47.4699 59.0502 46.7458L48.0297 42.3667L48.0297 44.1554L57.009 47.6987Z" fill="black"/>
</g>
<defs>
<clipPath id="clip0_2615_3627">
<rect width="70" height="70" fill="white"/>
</clipPath>
</defs>
</svg>
