<svg width="70" height="70" viewBox="0 0 70 70" fill="none" xmlns="http://www.w3.org/2000/svg">
<g clip-path="url(#clip0_2241_3737)">
<path d="M19.9 49L18.2 47.5L45.2999 36.7C45.5 36.6 45.7999 36.6 46 36.7L59.7999 42.3L59 44.2L45.5999 38.8L19.9 49Z" fill="#BCBCBC"/>
<path fill-rule="evenodd" clip-rule="evenodd" d="M45 38.2168V23.5439H47V38.2168H45Z" fill="#BCBCBC"/>
<path opacity="0.25" d="M18 22.4992L32.9 28.3992L59.8 18.1992V43.5992L33.1 54.1992L18 48.0992V22.4992Z" fill="#0094DD"/>
<path opacity="0.25" d="M46.0681 23.1589V12.542L59.7275 17.721L46.0681 23.1589Z" fill="#008BD2" stroke="#0094DD"/>
<path d="M60.7 16.9004C60.4 16.7004 60 16.6004 59.7 16.8004L33.2 27.4004L18.3 21.4004C18 21.3004 17.7 21.3004 17.4 21.5004C17.1 21.7004 17 21.9004 17 22.4004V62.8004C17 63.2004 17.3 63.6004 17.6 63.8004L32.5 69.9004C32.6 69.9004 32.8 70.0004 33 70.0004C33.1 70.0004 33.4 70.0004 33.5 69.9004L60.4 59.2004C60.8 59.0004 61 58.6004 61 58.3004V17.8004C61 17.4004 60.9 17.1004 60.7 16.9004ZM19 24.0004L32 29.2004V67.4004L19 62.2004V24.0004ZM59 57.5004L34 67.5004V29.2004L59 19.3004V57.5004Z" fill="black"/>
<path d="M32.9 55.1008C32.8 55.1008 32.6 55.1008 32.5 55.0008L18.7 49.4008L18.5 47.1008L32.9 53.0008L59.8 42.3008L59.3 44.7008L33.2 55.0008C33.1 55.1008 33 55.1008 32.9 55.1008Z" fill="black"/>
<path d="M47 13.9001V22.8806L45 23.5806V12.3001C45 11.8001 45.2 11.6001 45.4 11.4001C45.7 11.2001 46 11.2001 46.3 11.3001L60.3745 16.7417V17.8417L58.7745 18.4417L47 13.9001Z" fill="black"/>
<path d="M48.5 0L52 1.37869V11.0295L50 10.2417V2.46195L12.8 16.0374V62.435L13.9 62.041V64.306L13.2 64.6015C13.1 64.6999 12.9 64.7 12.8 64.7C12.7 64.7 12.5 64.6015 12.4 64.6015L9 63.2228V14.4618L48.5 0Z" fill="black"/>
<path d="M12.8 13.0705V62.435L16 61.1544V63.3209L13.2 64.5026C13.1 64.6011 12.9 64.6011 12.8 64.6011C12.7 64.6011 12.5 64.5026 12.4 64.5026L9 63.1239V14.4618L12.8 13.0705Z" fill="black"/>
</g>
<defs>
<clipPath id="clip0_2241_3737">
<rect width="70" height="70" fill="white" transform="matrix(-1 0 0 1 70 0)"/>
</clipPath>
</defs>
</svg>
