<?xml version="1.0" encoding="utf-8"?>
<!-- Generator: Adobe Illustrator 21.0.0, SVG Export Plug-In . SVG Version: 6.00 Build 0)  -->
<svg version="1.1" id="Layer_1" xmlns="http://www.w3.org/2000/svg" xmlns:xlink="http://www.w3.org/1999/xlink" x="0px" y="0px"
	 viewBox="0 0 70 70" style="enable-background:new 0 0 70 70;" xml:space="preserve">
<style type="text/css">
	.st0{fill:#BCBCBC;}
	.st1{opacity:0.25;fill:#0094DD;enable-background:new    ;}
</style>
<path d="M42,0L5,14.5v48.7l3.6,1.4c0.1,0.1,0.3,0.1,0.4,0.1s0.3,0,0.4-0.1l2.6-1.2v-2.2l-3,1.3V16.2L41,3.4v17.1l2-0.8V3.4l18,7.3
	v47.2l-3-1.4v2.2l2.6,1.2c0.1,0,0.3,0.1,0.4,0.1s0.2,0,0.4-0.1l3.6-1.5V9.3L42,0z"/>
<path class="st0" d="M40.1,39.6l1.1-0.4l12,4.2l-1.1,0.4l1.3,0.2l3.5-1.2c-0.1-0.2-0.3-0.3-0.5-0.4l-14.8-5.1
	c-0.2-0.1-0.5-0.1-0.7,0l-0.7,0.3L40.1,39.6L40.1,39.6z"/>
<polygon class="st1" points="40,24 56,17.7 56,43.5 40,49.9 "/>
<path d="M56.7,16.8c-0.1-0.1-0.6-0.3-1-0.1L40,23.1c-0.6,0.2-1,0.5-1,1v13.7l-25.3,9.3C13.3,47.3,13,47.6,13,48v14.8
	c0,0.4,0.2,0.8,0.6,1l14.7,6C28.6,70,28.9,70,29,70s0.4,0,0.5-0.1l26.9-10.7c0.4-0.2,0.6-0.6,0.6-0.9V17.7
	C57,17.3,56.9,17,56.7,16.8z M55,19.2v23.4l-1.8,0.7L41,48.2V24.8L55,19.2z M39,40v9l-10.1,4l-12.1-4.9L39,40z M15,62.1V49.5l13,5.2
	v12.7L15,62.1z M30,67.5V54.6l25-10.1v13L30,67.5z"/>
</svg>
