<svg width="240" height="240" viewBox="0 0 240 240" fill="none" xmlns="http://www.w3.org/2000/svg">
<path d="M140 0L34.2857 41.4286V180.571L44.5714 184.571C44.8571 184.857 45.4286 184.857 45.7143 184.857C46 184.857 46.5714 184.857 46.8571 184.571L54.2857 181.143V174.857L45.7143 178.571V46.2857L137.143 9.71429V58.5714L142.857 56.2857V9.71429L194.286 30.5714V165.429L185.714 161.429V167.714L193.143 171.143C193.429 171.143 194 171.429 194.286 171.429C194.571 171.429 194.857 171.429 195.429 171.143L205.714 166.857V26.5714L140 0Z" fill="black"/>
<path d="M134.571 113.141L137.714 111.998L172 123.998L168.857 125.141L172.571 125.713L182.571 122.284C182.286 121.713 181.714 121.427 181.143 121.141L138.857 106.57C138.286 106.284 137.429 106.284 136.857 106.57L134.857 107.427L134.571 113.141Z" fill="#BCBCBC"/>
<path opacity="0.25" d="M134.286 68.5684L180 50.5684V124.283L134.286 142.568V68.5684Z" fill="#0094DD"/>
<path d="M182 48.0029C181.714 47.7172 180.286 47.1457 179.143 47.7172L134.286 66.0029C132.571 66.5743 131.429 67.4314 131.429 68.86V108.003L59.1429 134.574C58 135.146 57.1429 136.003 57.1429 137.146V179.431C57.1429 180.574 57.7143 181.717 58.8571 182.289L100.857 199.431C101.714 200.003 102.571 200.003 102.857 200.003C103.143 200.003 104 200.003 104.286 199.717L181.143 169.146C182.286 168.574 182.857 167.431 182.857 166.574V50.5743C182.857 49.4314 182.571 48.5743 182 48.0029ZM177.143 54.86V121.717L172 123.717L137.143 137.717V70.86L177.143 54.86ZM131.429 114.289V140.003L102.571 151.431L68 137.431L131.429 114.289ZM62.8571 177.431V141.431L100 156.289V192.574L62.8571 177.431ZM105.714 192.86V156.003L177.143 127.146V164.289L105.714 192.86Z" fill="black"/>
</svg>
