<?xml version="1.0" encoding="utf-8"?>
<!-- Generator: Adobe Illustrator 25.0.1, SVG Export Plug-In . SVG Version: 6.00 Build 0)  -->
<svg version="1.1" id="Layer_1" xmlns="http://www.w3.org/2000/svg" xmlns:xlink="http://www.w3.org/1999/xlink" x="0px" y="0px"
	 width="60px" height="60px" viewBox="0 0 60 60" style="enable-background:new 0 0 60 60;" xml:space="preserve">
<style type="text/css">
	.st0{fill:#DCDCDE;}
	.st1{fill:#BCBCBC;}
</style>
<g>
	<polygon class="st0" points="44.4,52.4 44.4,17.7 30.9,23 30.9,57.9 	"/>
	<polygon class="st0" points="29.1,23 15.9,17.7 15.9,52.6 29.1,57.9 	"/>
</g>
<g>
	<g>
		<path class="st1" d="M45.4,52.8L30,46.7l-15.4,6.1l-0.6-1.7l15.6-6.2c0.2-0.1,0.6-0.1,0.7,0l15.5,6.2L45.4,52.8z"/>
	</g>
</g>
<path d="M30,0L7,9.2v43.7l3.5,1.4c0.1,0,0.2,0.1,0.3,0.1c0.1,0,0.2,0,0.3-0.1l1.8-0.8v-1.9l-2.1,0.9V11.2l18.3-7.3V20l0.9,0.3
	l0.9-0.3V3.9l18.3,7.3v41.2l-2.1-0.9v1.9l1.8,0.8c0.1,0,0.2,0.1,0.3,0.1s0.2,0,0.3-0.1l3.5-1.4V9.2L30,0z"/>
<path d="M45.6,15.6c-0.2-0.1-0.6-0.2-0.9-0.1l-14.7,6l-14.8-6c-0.2-0.1-0.7-0.1-0.9,0.1c-0.2,0.1-0.3,0.3-0.3,0.8V53
	c0,0.3,0.2,0.7,0.6,0.8l15,6.1c0.1,0,0.2,0.1,0.3,0.1c0.1,0,0.2,0,0.3-0.1l15.3-6.1c0.3-0.1,0.6-0.6,0.6-0.8V16.3
	C46,16.1,45.8,15.8,45.6,15.6z M15.6,17.7L29.1,23v34.8l-13.2-5.3V17.7H15.6z M44.4,52.4l-13.5,5.4V23l13.5-5.3V52.4z"/>
</svg>
