<?xml version="1.0" encoding="utf-8"?>
<!-- Generator: Adobe Illustrator 25.0.1, SVG Export Plug-In . SVG Version: 6.00 Build 0)  -->
<svg version="1.1" id="Layer_1" xmlns="http://www.w3.org/2000/svg" xmlns:xlink="http://www.w3.org/1999/xlink" x="0px" y="0px"
	 width="60px" height="60px" viewBox="0 0 60 60" style="enable-background:new 0 0 60 60;" xml:space="preserve">
<style type="text/css">
	.st0{fill:#DCDCDE;}
	.st1{fill:#BCBCBC;}
</style>
<g>
	<polygon class="st0" points="44.1,50.3 44.1,15.7 25.4,23.2 25.4,57.9 	"/>
	<polygon class="st0" points="23.6,57.9 23.6,23.2 15.6,20 15.6,54.7 	"/>
</g>
<g>
	<g>
		<path class="st1" d="M15.1,54.6l-0.3-1.8l20.8-7.9c0.2-0.1,0.6-0.1,0.7,0l9.2,4.1v1.9l-9.6-4.2L15.1,54.6z"/>
	</g>
</g>
<path d="M52.8,6.8L35.8,0L7,11.4v43.4l3.5,1.3c0.1,0,0.2,0.1,0.3,0.1c0.1,0,0.2,0,0.3-0.1l1.8-0.8v-1.9l-2.1,0.9V13.7L34.9,4v12.4
	l1.8-0.8V3.9l12.3,4.9v41.6l0,0l-2-0.9v1.9l1.7,0.7c0.1,0,0.2,0.1,0.3,0.1s0.2,0,0.3-0.1l3.6-1.3V6.8H52.8z"/>
<path d="M45.5,13.7c-0.2-0.1-0.6-0.2-0.9-0.1l-20.1,8.1L15,18c-0.2-0.2-0.6-0.2-0.7,0c-0.2,0.1-0.3,0.3-0.3,0.8v36.6
	c0,0.3,0.2,0.7,0.6,0.9l9.8,3.8c0.1,0,0.2,0,0.3,0c0.1,0,0.2,0,0.3-0.1l20.4-8.2c0.3-0.1,0.6-0.6,0.6-0.8V14.3
	C45.9,14,45.7,13.8,45.5,13.7z M15.6,20l8,3.1v34.7l-8-3.1V20z M44.1,50.3l-18.6,7.6V23.2l18.6-7.6V50.3z"/>
</svg>
