<?xml version="1.0" encoding="utf-8"?>
<!-- Generator: Adobe Illustrator 25.0.1, SVG Export Plug-In . SVG Version: 6.00 Build 0)  -->
<svg version="1.1" id="Layer_1" xmlns="http://www.w3.org/2000/svg" xmlns:xlink="http://www.w3.org/1999/xlink" x="0px" y="0px"
	 width="60px" height="60px" viewBox="0 0 60 60" style="enable-background:new 0 0 60 60;" xml:space="preserve">
<style type="text/css">
	.st0{fill:#DCDCDE;}
	.st1{fill:#BCBCBC;}
	.st2{fill:none;stroke:#000000;stroke-width:1.4;stroke-linejoin:round;stroke-miterlimit:10;}
</style>
<g>
	<path class="st0" d="M23.5,22.1v34.7c2,0.8,4.4,1.4,6.6,1.4c2.1,0,4.4-0.6,6.4-1.4V22.1c-2,0.8-4.2,1.2-6.5,1.2
		C27.8,23.4,25.7,22.8,23.5,22.1z"/>
	<path class="st0" d="M38.3,21.3V56c2.8-1.2,5.1-2.8,6-3.4V18.2C43,19.1,40.9,20.3,38.3,21.3z"/>
	<path class="st0" d="M21.7,56.1V21.4c-2.6-1-4.6-2.4-6-3.3v34.5C16.6,53.3,18.9,54.7,21.7,56.1z"/>
</g>
<g>
	<g>
		<path class="st1" d="M14.8,52.9l-0.7-1.7L29.7,45c0.2-0.1,0.6-0.1,0.7,0L46,51.2l-0.7,1.7l-15.3-6.1L14.8,52.9z"/>
	</g>
</g>
<g>
	<path class="st2" d="M29.9,22.8"/>
</g>
<g>
	<path class="st2" d="M29.9,59.2"/>
</g>
<path d="M29.9,0L7,9.3v43.8l3.5,1.4c0.1,0,0.2,0.1,0.3,0.1c0.1,0,0.2,0,0.3-0.1l1.8-0.8v-1.9l-2.1,0.9V11.3L29,4v16.5
	c0.3,0,0.8,0,1.1,0c0.2,0,0.3,0,0.7,0V3.9l18.4,7.3v41.4l-2.5-1v1.9l2,0.8c0.1,0,0.2,0.1,0.3,0.1s0.2,0,0.3-0.1l3.5-1.4V9.3L29.9,0z
	"/>
<path d="M45.6,15.6c-0.2-0.1-0.7-0.1-0.9,0.1c-0.1,0-7.6,5.9-14.5,5.9s-14.6-5.9-14.7-5.9c-0.2-0.2-0.7-0.2-0.9-0.1
	c-0.2,0.1-0.6,0.6-0.6,0.8v36.7c0,0.2,0.1,0.6,0.3,0.8c0.3,0.2,8.3,6.1,15.7,6.1c7.5,0,15.3-6,15.6-6.1c0.2-0.1,0.3-0.3,0.3-0.8
	V16.4C46.1,16,45.8,15.7,45.6,15.6z M15.8,18.2c1.2,0.9,3.5,2.1,6,3.3v34.6c-2.8-1.2-5.1-2.8-5.8-3.4V18.2H15.8z M23.5,56.9V22.1
	c2,0.8,4.4,1.2,6.5,1.2s4.4-0.6,6.5-1.2v34.7c-2,0.8-4.2,1.4-6.4,1.4C27.9,58.2,25.7,57.6,23.5,56.9z M44.3,52.7
	c-0.9,0.7-3,2.1-6,3.4V21.3c2.6-1,4.6-2.4,6-3.3V52.7z"/>
</svg>
