<?xml version="1.0" encoding="utf-8"?>
<!-- Generator: Adobe Illustrator 23.1.0, SVG Export Plug-In . SVG Version: 6.00 Build 0)  -->
<svg version="1.1" id="Слой_1" xmlns="http://www.w3.org/2000/svg" xmlns:xlink="http://www.w3.org/1999/xlink" x="0px" y="0px"
	 width="150px" height="200px" viewBox="0 0 150 200" style="enable-background:new 0 0 150 200;" xml:space="preserve">
<style type="text/css">
	.st0{fill:none;}
	.st1{fill:#E1E2E1;}
	.st2{fill:#868686;}
	.st3{opacity:0.8;enable-background:new    ;}
	.st4{fill:#BACCD9;}
	.st5{opacity:0.7;enable-background:new    ;}
	.st6{fill-rule:evenodd;clip-rule:evenodd;fill:#E1E2E2;}
	.st7{fill:#878787;}
	.st8{fill:#E1E2E2;}
	.st9{fill-rule:evenodd;clip-rule:evenodd;fill:#BACDDA;}
	.st10{opacity:0.8;}
	.st11{fill-rule:evenodd;clip-rule:evenodd;fill:#BACDDA;stroke:#878787;stroke-miterlimit:10;}
	.st12{fill-rule:evenodd;clip-rule:evenodd;fill:#E1E2E1;}
	.st13{fill-rule:evenodd;clip-rule:evenodd;fill:#BACCD9;}
	.st14{fill-rule:evenodd;clip-rule:evenodd;fill:#FFFFFF;}
	.st15{fill:#FFFFFF;}
	.st16{fill:#BACDDA;}
</style>
<g>
	<g>
		<g>
			<g>
				<polygon class="st6" points="11.3,187 75,161.4 75,9 11.3,34.7 				"/>
				<path class="st7" d="M11.3,187.5c-0.1,0-0.2,0-0.3-0.1c-0.1-0.1-0.2-0.2-0.2-0.4V34.7c0-0.2,0.1-0.4,0.3-0.5L74.8,8.6
					c0.2-0.1,0.3,0,0.5,0c0.1,0.1,0.2,0.2,0.2,0.4v152.3c0,0.2-0.1,0.4-0.3,0.5l-63.7,25.7C11.4,187.5,11.4,187.5,11.3,187.5z
					 M11.8,35v151.3l62.7-25.3V9.7L11.8,35z"/>
			</g>
			<g>
				<g>
					<polygon class="st7" points="11.1,186.6 74.8,160.9 75.2,161.8 11.5,187.5 					"/>
				</g>
				<g>
					<polygon class="st7" points="11.1,172.8 74.8,147.1 75.2,148 11.5,173.7 					"/>
				</g>
				<g>
					<polygon class="st7" points="11.1,158.8 74.8,133.2 75.2,134.2 11.5,159.7 					"/>
				</g>
				<g>
					<polygon class="st7" points="11.1,145 74.8,119.4 75.2,120.3 11.5,145.9 					"/>
				</g>
				<g>
					<polygon class="st7" points="11.2,131.2 74.8,105.5 75.2,106.4 11.5,132.1 					"/>
				</g>
				<g>
					<polygon class="st7" points="11.1,117.3 74.8,91.6 75.1,92.5 11.5,118.2 					"/>
				</g>
				<g>
					<polygon class="st7" points="11.1,103.5 74.8,77.8 75.2,78.7 11.5,104.4 					"/>
				</g>
				<g>
					<polygon class="st7" points="11.1,89.6 74.8,64 75.2,64.9 11.5,90.6 					"/>
				</g>
				<g>
					<polygon class="st7" points="11.1,75.7 74.8,50.2 75.2,51.1 11.5,76.7 					"/>
				</g>
				<g>
					<polygon class="st7" points="11.1,61.9 74.8,36.4 75.2,37.3 11.5,62.8 					"/>
				</g>
				<g>
					<polygon class="st7" points="11.1,48.1 74.8,22.6 75.2,23.5 11.5,49 					"/>
				</g>
				<g>
					<polygon class="st7" points="11.1,34.3 74.8,8.6 75.2,9.5 11.5,35.2 					"/>
				</g>
			</g>
			<g>
				<g>
					<rect x="74.5" y="9" class="st7" width="1" height="152.3"/>
				</g>
				<g>
					<rect x="61.8" y="14.2" class="st7" width="1" height="152.3"/>
				</g>
				<g>
					<rect x="49" y="19.4" class="st7" width="1" height="152.2"/>
				</g>
				<g>
					<rect x="36.3" y="24.5" class="st7" width="1" height="152.3"/>
				</g>
				<g>
					<rect x="23.6" y="29.5" class="st7" width="1" height="152.3"/>
				</g>
				<g>
					<rect x="10.8" y="34.7" class="st7" width="1" height="152.3"/>
				</g>
			</g>
		</g>
		<g>
			<g>
				<polygon class="st6" points="138.7,187 75,161.4 75,9 138.7,34.7 				"/>
				<path class="st7" d="M138.7,187.5c-0.1,0-0.1,0-0.2,0l-63.7-25.7c-0.2-0.1-0.3-0.3-0.3-0.5V9c0-0.2,0.1-0.3,0.2-0.4
					c0.1-0.1,0.3-0.1,0.5,0l63.7,25.7c0.2,0.1,0.3,0.3,0.3,0.5v152.3c0,0.2-0.1,0.3-0.2,0.4C138.9,187.5,138.8,187.5,138.7,187.5z
					 M75.5,161.1l62.7,25.3V35L75.5,9.7V161.1z"/>
			</g>
			<g>
				<g>
					<polygon class="st7" points="74.8,161.8 75.2,160.8 138.8,186.5 138.5,187.4 					"/>
				</g>
				<g>
					<polygon class="st7" points="74.8,147.9 75.2,147 138.8,172.7 138.5,173.6 					"/>
				</g>
				<g>
					<polygon class="st7" points="74.8,134.1 75.2,133.2 138.9,158.8 138.5,159.7 					"/>
				</g>
				<g>
					<polygon class="st7" points="74.8,120.3 75.2,119.4 138.9,145 138.6,145.9 					"/>
				</g>
				<g>
					<polygon class="st7" points="74.8,106.4 75.2,105.4 138.9,131.1 138.5,132 					"/>
				</g>
				<g>
					<polygon class="st7" points="74.8,92.5 75.2,91.6 138.9,117.3 138.5,118.2 					"/>
				</g>
				<g>
					<polygon class="st7" points="74.9,78.7 75.2,77.8 138.9,103.4 138.5,104.4 					"/>
				</g>
				<g>
					<polygon class="st7" points="74.9,64.9 75.2,64 138.9,89.6 138.5,90.5 					"/>
				</g>
				<g>
					<polygon class="st7" points="74.8,51 75.2,50.1 138.9,75.7 138.5,76.6 					"/>
				</g>
				<g>
					<polygon class="st7" points="74.8,37.2 75.2,36.3 138.9,61.8 138.5,62.8 					"/>
				</g>
				<g>
					<polygon class="st7" points="74.8,23.4 75.2,22.5 138.9,48 138.5,48.9 					"/>
				</g>
				<g>
					<polygon class="st7" points="74.8,9.4 75.2,8.5 138.9,34.2 138.5,35.1 					"/>
				</g>
			</g>
			<g>
				<g>
					<rect x="74.5" y="9" class="st7" width="1" height="152.3"/>
				</g>
				<g>
					<rect x="87.3" y="14.2" class="st7" width="1" height="152.3"/>
				</g>
				<g>
					<rect x="100" y="19.4" class="st7" width="1" height="152.2"/>
				</g>
				<g>
					<rect x="112.7" y="24.5" class="st7" width="1" height="152.3"/>
				</g>
				<g>
					<rect x="125.5" y="29.5" class="st7" width="1" height="152.3"/>
				</g>
				<g>
					<rect x="138.2" y="34.7" class="st7" width="1" height="152.3"/>
				</g>
			</g>
		</g>
	</g>
	<g>
		<polygon class="st6" points="0.5,182.8 11.4,187 11.4,34.8 0.5,30.3 		"/>
		<path class="st7" d="M11.4,187.5c-0.1,0-0.1,0-0.2,0l-10.9-4.3C0.1,183.2,0,183,0,182.8V30.3c0-0.2,0.1-0.3,0.2-0.4s0.3-0.1,0.5,0
			l10.9,4.5c0.2,0.1,0.3,0.3,0.3,0.5v152.2c0,0.2-0.1,0.3-0.2,0.4C11.6,187.5,11.5,187.5,11.4,187.5z M1,182.4l9.9,4V35.2L1,31.1
			V182.4z"/>
	</g>
	<g>
		<polygon class="st6" points="138.6,34.8 149.5,30.3 149.5,182.8 138.6,187 		"/>
		<path class="st7" d="M138.6,187.5c-0.1,0-0.2,0-0.3-0.1c-0.1-0.1-0.2-0.2-0.2-0.4V34.8c0-0.2,0.1-0.4,0.3-0.5l10.9-4.5
			c0.2-0.1,0.3,0,0.5,0c0.1,0.1,0.2,0.2,0.2,0.4v152.3c0,0.2-0.1,0.4-0.3,0.5l-10.9,4.3C138.7,187.5,138.6,187.5,138.6,187.5z
			 M139.1,35.1v151.1l9.9-4V31.1L139.1,35.1z"/>
	</g>
	<g>
		<polygon class="st6" points="75,9.1 138.7,34.7 149.5,30.3 75,0.5 0.5,30.3 11.3,34.7 		"/>
		<path class="st7" d="M138.7,35.2c-0.1,0-0.1,0-0.2,0L75,9.6L11.5,35.2c-0.1,0-0.3,0-0.4,0L0.3,30.8C0.1,30.7,0,30.5,0,30.3
			s0.1-0.4,0.3-0.5L74.8,0c0.1,0,0.3,0,0.4,0l74.5,29.8c0.2,0.1,0.3,0.3,0.3,0.5s-0.1,0.4-0.3,0.5l-10.8,4.3
			C138.8,35.2,138.8,35.2,138.7,35.2z M75,8.7c0.1,0,0.1,0,0.2,0l63.5,25.5l9.5-3.8L75,1L1.8,30.3l9.5,3.8L74.8,8.7
			C74.9,8.7,74.9,8.7,75,8.7z"/>
	</g>
	<g>
		<polygon class="st8" points="125.3,70.1 75.4,50.4 75.5,37.4 125.3,57.6 		"/>
	</g>
	<g>
		<g>
			<path class="st7" d="M81.7,44.3l-1.9-0.7c-1-0.4-1.5,0.1-1.5,1.1v0.9c0,1,0.6,2,1.5,2.4l1.1,0.5l0,0c0.4,0.1,0.7-0.1,0.7-0.6
				l-1.9-0.7C79.2,47,79,46.5,79,46.1v-0.9c0-0.5,0.2-0.7,0.7-0.6l1.9,0.7v3.8c0,0.5-0.2,0.7-0.7,0.6l-1.1-0.5
				c-0.4-0.1-0.7,0.1-0.7,0.6l0.7,0.4l1.1,0.5c1,0.4,1.5-0.1,1.5-1.1v-4C82.5,45,82.1,44.4,81.7,44.3"/>
		</g>
		<g>
			<path class="st7" d="M118.7,59.4c-1-0.4-1.5,0.1-1.5,1.1v1.7c0,0.5,0.4,1,0.7,1.1v-2.6c0-0.5,0.2-0.7,0.7-0.5l1,0.4
				c0.4,0.1,0.7-0.1,0.7-0.5L118.7,59.4z"/>
		</g>
		<g>
			<path class="st7" d="M88.9,50.7c-0.5-0.2-0.7-0.7-0.7-1.1v-1.7l1.1,0.5c0.4,0.1,0.7-0.1,0.7-0.6l-1.9-0.7v-2
				c-0.4-0.1-0.7,0.1-0.7,0.6v3.7c0,1,0.6,2,1.5,2.4h0.4c0.4,0.1,0.7-0.1,0.7-0.6L88.9,50.7z"/>
		</g>
		<g>
			<path class="st7" d="M111.1,60.7c-1-0.4-1.5-1.4-1.5-2.4v-1.7l-2.4-1v1.7c0,0.5,0.2,1,0.7,1.1l1.1,0.5c0,0.5-0.4,0.7-0.7,0.5
				l-0.4-0.1c-1-0.4-1.5-1.4-1.5-2.4v-3.7c0-0.5,0.4-0.7,0.7-0.6v2l2.4,1v-1.1c0-0.5,0.4-0.7,0.7-0.6v2l1.9,0.7
				c0,0.5-0.4,0.7-0.7,0.5l-1.1-0.2v1.7c0,0.5,0.2,1,0.7,1.1l0.4,0.1l0.7,0.4c0,0.5-0.4,0.7-0.7,0.5H111.1z"/>
		</g>
		<g>
			<path class="st7" d="M86.2,47v2.6c0,0.5,0.4,1,0.7,1.2v-4.3C86.4,46.3,86.2,46.5,86.2,47"/>
		</g>
		<g>
			<path class="st7" d="M84.3,48.9c-0.5-0.2-0.7-0.7-0.7-1.2v-2.6c-0.5-0.2-0.7,0.1-0.7,0.6v1.7c0,1,0.6,2,1.5,2.4l1,0.4
				c0.4,0.1,0.7-0.1,0.7-0.6L84.3,48.9z"/>
		</g>
		<g>
			<path class="st7" d="M100.6,52.8v1.7c0,0.5-0.4,0.7-0.7,0.6l-1.2-0.4v-3.5c-0.4-0.1-0.7,0.1-0.7,0.6v2.6c0,0.5,0.4,1,0.7,1.2
				l1.1,0.5c0.9,0.4,1.5,0,1.5-1.1l0,0v-2.6C100.8,52.1,100.6,52.3,100.6,52.8 M96.6,53.8c-0.5-0.2-0.7-0.7-0.7-1.1v-2.6
				c-0.4-0.1-0.7,0.1-0.7,0.6v1.7c0,1,0.6,2,1.5,2.4l0.6,0.2c0.4,0.1,0.7-0.1,0.7-0.6L96.6,53.8z"/>
		</g>
		<g>
			<path class="st7" d="M91.9,50.1c-0.4-0.1-0.7,0.1-0.7,0.6v-0.9c0-0.5,0.2-0.7,0.7-0.6l1.4,0.5c0.5,0.2,0.7,0.7,0.7,1.1L91.9,50.1
				z M94.6,51.4c0-1-0.6-2-1.5-2.4l-1.4-0.6c-1-0.4-1.5,0.1-1.5,1.1v1c0,1,0.6,2,1.5,2.4l1.7,0.7c0.4,0.1,0.7-0.1,0.7-0.6l-2.5-1
				c-0.3-0.3-0.6-0.8-0.6-1.1l2.9,1.1C94.4,52.1,94.6,51.9,94.6,51.4"/>
		</g>
		<g>
			<path class="st7" d="M103.3,54.8c-0.4-0.1-0.7,0.1-0.7,0.5v-0.9c0-0.5,0.2-0.7,0.7-0.6l1.4,0.5c0.5,0.2,0.7,0.7,0.7,1.1
				L103.3,54.8z M106.2,55.9c0-1-0.6-2-1.5-2.4l-1.4-0.5c-1-0.4-1.6,0.1-1.6,1.1V55c0,1,0.6,2,1.5,2.4l1.7,0.7
				c0.4,0.1,0.7-0.1,0.7-0.5l-2.5-1c-0.5-0.2-0.7-0.7-0.7-1.1l2.9,1.1C105.8,56.7,106.2,56.4,106.2,55.9"/>
		</g>
		<g>
			<path class="st7" d="M114,59.2c-0.4-0.1-0.7,0.1-0.7,0.5v-0.9c0-0.5,0.2-0.7,0.7-0.5l1.4,0.5c0.5,0.2,0.7,0.7,0.7,1.1L114,59.2z
				 M116.8,60.3c0-1-0.6-2-1.5-2.4l-1.4-0.5c-1-0.4-1.5,0.1-1.5,1.1v0.9c0,1,0.6,2,1.5,2.4l1.7,0.7c0.4,0.1,0.7-0.1,0.7-0.5l-2.5-1
				c-0.5-0.2-0.7-0.7-0.7-1.1L116,61C116.5,61,116.8,60.8,116.8,60.3"/>
		</g>
		<g>
			<path class="st7" d="M121.4,60v-0.6c0,0,0,0,0-0.1s0,0,0.1,0l0.2,0.1c0,0,0.1,0,0.1,0.1s0.1,0.1,0.1,0.2c0,0.2-0.1,0.1-0.1,0.1
				h-0.1l0.2,0.4h-0.1l-0.2-0.4c0,0,0,0,0-0.1l0,0h0.1h0.1l0,0l0,0c0,0,0,0,0-0.1c0,0,0,0-0.1,0h-0.2l0,0l0,0L121.4,60L121.4,60z
				 M121.3,60c0.1,0.2,0.2,0.2,0.4,0.2c0.1,0,0.2,0.1,0.4,0c0.1-0.1,0.1-0.2,0.1-0.4c0-0.1,0-0.2-0.1-0.4s-0.2-0.2-0.4-0.2
				s-0.2-0.1-0.4,0c-0.1,0.1-0.1,0.2-0.1,0.4C121.3,59.8,121.3,59.9,121.3,60 M121.3,59.2c0.1-0.1,0.2,0,0.4,0
				c0.1,0,0.2,0.1,0.4,0.2c0.1,0.1,0.1,0.4,0.1,0.5s0,0.4-0.1,0.4c-0.1,0.1-0.2,0-0.4-0.1c-0.1,0-0.2-0.1-0.4-0.2
				c-0.1-0.2-0.1-0.4-0.1-0.5C121.2,59.3,121.2,59.3,121.3,59.2"/>
		</g>
	</g>
	<g>
		<g class="st3">
			<polygon class="st9" points="24,43.3 24,181.2 49.5,199.5 100.5,199.5 126,181.2 126,43.3 100.5,61.4 49.5,61.4 			"/>
			<path class="st7" d="M100.5,200h-51c-0.1,0-0.2,0-0.3-0.1l-25.6-18.3c-0.1-0.1-0.2-0.3-0.2-0.4V43.3c0-0.2,0.1-0.3,0.3-0.4
				c0.2-0.1,0.3-0.1,0.5,0L49.7,61h50.6l25.5-18.2c0.2-0.1,0.3-0.1,0.5,0s0.3,0.3,0.3,0.4v137.9c0,0.2-0.1,0.3-0.2,0.4l-25.7,18.4
				C100.6,199.9,100.5,200,100.5,200z M49.7,199h50.6l25.2-18.1V44l-24.8,17.7c-0.1,0-0.2,0.1-0.3,0.1H49.5c-0.1,0-0.2,0-0.3-0.1
				L24.5,44v136.7L49.7,199z"/>
		</g>
		<g class="st10">
			<g>
				<rect x="48.9" y="61.4" class="st7" width="1" height="138.4"/>
			</g>
			<g>
				<rect x="100.1" y="61.2" class="st7" width="1" height="138.6"/>
			</g>
		</g>
	</g>
</g>
</svg>
