<?xml version="1.0" encoding="utf-8"?>
<!-- Generator: Adobe Illustrator 21.0.0, SVG Export Plug-In . SVG Version: 6.00 Build 0)  -->
<svg version="1.1" id="Layer_1" xmlns="http://www.w3.org/2000/svg" xmlns:xlink="http://www.w3.org/1999/xlink" x="0px" y="0px"
	 viewBox="0 0 70 70" style="enable-background:new 0 0 70 70;" xml:space="preserve">
<style type="text/css">
	.st0{fill:#BCBCBC;}
	.st1{opacity:0.25;fill:#0094DD;enable-background:new    ;}
</style>
<path class="st0" d="M52,59.4l-16.6-6.7c-0.3-0.1-0.5-0.1-0.8,0L18,59.4v2.2l17-6.9l17,6.9V59.4z"/>
<path class="st1" d="M35,27c-4.6,0-8.5-2.2-8.8-2.3L19,21.1V61l7.7,3.6C26.8,64.7,31,67,35,67c4.2,0,8.5-2.4,8.5-2.4L51,61V21
	l-7.5,3.7C43.3,24.8,39.5,27,35,27z"/>
<path d="M35,0L9,10.5v49.6v2.2l3.3,1.3c0.1,0,0.3,0.1,0.4,0.1c0.1,0,0.3,0,0.4-0.1l2.9-1.2v-2.2l-3,1.3V12.1l21-8.5v19.3
	c0.3,0,0.7,0,1,0s0.7,0,1,0V3.6l21,8.5v49.4l-3-1.3v2.2l2.9,1.2c0.1,0,0.3,0.1,0.4,0.1c0.1,0,0.3,0,0.4-0.1l3.3-1.4v-1.7v-50L35,0z"
	/>
<path d="M52.4,18.7c-0.3-0.2-0.7-0.2-1-0.1l-8.9,4.3c0,0-3.6,2-7.5,2c-4.1,0-7.7-2-7.8-2.1l-8.7-4.2c-0.3-0.1-0.7-0.1-1,0.1
	c-0.3,0.1-0.5,0.5-0.5,0.8v42.1c0,0.4,0.2,0.7,0.5,0.9l8.3,3.8c0.3,0.2,4.8,2.6,9.2,2.6c4.7,0,9.2-2.5,9.3-2.6l7.9-3.8
	c0.4-0.2,0.8-0.5,0.8-0.9v-42C53,19.3,52.7,18.9,52.4,18.7z M25,63.8L19,61V21.1l6,3V63.8z M27,64.8V25.1c1.4,0.7,4.5,1.9,8,1.9
	c3.6,0,6.8-1.4,8-2v39.9c-1.2,0.6-4.7,2.1-8,2.1C31.6,67,28,65.3,27,64.8z M51,61l-6,2.9V24l6-3V61z"/>
</svg>
