<svg width="70" height="70" viewBox="0 0 70 70" fill="none" xmlns="http://www.w3.org/2000/svg">
<path d="M58.5486 30.9325C59.3336 35.3843 58.7798 39.5937 57.3005 42.7913C55.8195 45.9928 53.4631 48.0935 50.656 48.5885L46.6379 49.297L42.8968 49.9567L37.334 18.4088L45.0932 17.0407C47.9004 16.5457 50.8331 17.7138 53.3198 20.2157C55.8035 22.7145 57.7636 26.4807 58.5486 30.9325Z" fill="white" stroke="#1D1D1F" stroke-width="2"/>
<path d="M50.7761 32.3029C51.558 36.7371 50.9034 40.953 49.2601 44.1777C47.617 47.4019 45.0223 49.5818 41.9119 50.1302C38.8015 50.6787 35.6177 49.5177 32.971 47.0499C30.3238 44.5818 28.2669 40.844 27.485 36.4098C26.7031 31.9756 27.3577 27.7597 29.001 24.535C30.6441 21.3108 33.2388 19.1309 36.3492 18.5824C39.4595 18.034 42.6434 19.195 45.2901 21.6628C47.9372 24.1309 49.9942 27.8687 50.7761 32.3029Z" fill="white" stroke="#1D1D1F" stroke-width="2"/>
<path d="M45.9815 33.5181C46.5289 36.6228 46.0932 39.557 44.9948 41.7835C43.8961 44.0107 42.1763 45.466 40.1507 45.8232C38.1251 46.1803 36.0112 45.401 34.217 43.6839C32.4234 41.9674 31.0103 39.3591 30.4629 36.2544C29.9155 33.1497 30.3512 30.2155 31.4496 27.989C32.5483 25.7618 34.2681 24.3065 36.2937 23.9493C38.3193 23.5922 40.4332 24.3715 42.2274 26.0886C44.021 27.8051 45.434 30.4134 45.9815 33.5181Z" fill="white" stroke="#1D1D1F" stroke-width="2"/>
<path d="M43.0034 33.6737C43.7884 38.1255 43.2346 42.3349 41.7554 45.5325C40.2743 48.734 37.9179 50.8347 35.1108 51.3297L31.0927 52.0382L27.3516 52.6979L21.7889 21.15L29.5481 19.7819C32.3552 19.2869 35.2879 20.455 37.7747 22.9569C40.2583 25.4557 42.2184 29.2219 43.0034 33.6737Z" fill="white" stroke="#1D1D1F" stroke-width="2"/>
<path d="M35.2309 35.0436C36.0128 39.4778 35.3583 43.6937 33.7149 46.9184C32.0719 50.1426 29.4771 52.3225 26.3667 52.871C23.2564 53.4194 20.0725 52.2584 17.4258 49.7906C14.7787 47.3225 12.7217 43.5847 11.9398 39.1505C11.158 34.7163 11.8125 30.5004 13.4558 27.2757C15.0989 24.0515 17.6936 21.8716 20.804 21.3232C23.9144 20.7747 27.0982 21.9357 29.7449 24.4035C32.3921 26.8717 34.4491 30.6095 35.2309 35.0436Z" fill="white" stroke="#1D1D1F" stroke-width="2"/>
<path d="M31.4605 30.6262C24.4456 33.3342 20.2424 39.7324 21.9172 46.8242C22.5672 49.5764 24.0061 52.0061 25.9728 53.9559C20.1502 54.396 14.1147 48.6397 12.2266 40.6451C10.2513 32.2808 13.5638 24.6338 19.6253 23.565C24.6508 22.6789 28.7806 26.0015 31.4605 30.6262Z" fill="#1D1D1F"/>
<path d="M35.2441 35.0417C33.7666 26.6624 28.4385 22.0113 23.7188 20.8106C36.6611 17.5118 40.4807 24.9703 43.0167 33.6712L35.2441 35.0417Z" fill="#1D1D1F"/>
<path d="M50.7892 32.3005C49.3117 23.9212 43.411 18.8629 39.264 18.0694C51.6336 14.3635 56.0258 22.2291 58.5618 30.93L50.7892 32.3005Z" fill="#1D1D1F"/>
</svg>
