<svg width="70" height="70" viewBox="0 0 70 70" fill="none" xmlns="http://www.w3.org/2000/svg">
<path d="M15.4912 28.2341C14.8363 27.8769 14.8363 27.2977 15.4912 26.9405L35.0575 16.2679C35.7124 15.9107 36.7743 15.9107 37.4292 16.2679L47.5088 21.7659C48.1637 22.1231 48.1637 22.7023 47.5088 23.0595L27.9425 33.7321C27.2876 34.0893 26.2257 34.0893 25.5708 33.7321L15.4912 28.2341Z" fill="white"/>
<path fill-rule="evenodd" clip-rule="evenodd" d="M15 32V27.6084C14.9898 27.3673 15.1538 27.1244 15.4911 26.9405L35.0575 16.2679C35.7124 15.9107 36.7742 15.9107 37.4291 16.2679L47.5088 21.7659C47.8362 21.9445 48 22.1786 48 22.4127C48 22.6468 48 28 48 32.8826L31 42.1552C26 39 22 36.5 15 32ZM21.424 29.1939L38.6069 19.1885L36.4855 18.0314C36.479 18.0292 36.4649 18.0248 36.4424 18.0198C36.3917 18.0086 36.3225 18 36.2433 18C36.1641 18 36.0949 18.0086 36.0442 18.0198C36.0217 18.0248 36.0076 18.0292 36.0011 18.0314L18.482 27.5873L21.424 29.1939ZM26.5144 31.9686L23.4757 30.3112L40.6592 20.308L44.518 22.4127L26.9988 31.9686C26.9923 31.9708 26.9782 31.9752 26.9557 31.9802C26.905 31.9914 26.8358 32 26.7566 32C26.6774 32 26.6082 31.9914 26.5575 31.9802C26.535 31.9752 26.5209 31.9708 26.5144 31.9686Z" fill="#1D1D1F"/>
<path d="M29.1472 49.135C24.2033 54.7297 16.3683 55.6301 11.6472 51.1461C6.92605 46.6621 7.10662 38.4916 12.0505 32.8968C16.9944 27.3021 24.8294 26.4016 29.5506 30.8857C34.2717 35.3697 34.0911 43.5402 29.1472 49.135Z" fill="white"/>
<path fill-rule="evenodd" clip-rule="evenodd" d="M12.9716 49.6475C16.7118 53.1999 23.3086 52.724 27.6971 47.7577C32.0856 42.7915 31.9665 35.9369 28.2262 32.3845C24.486 28.8321 17.8892 29.308 13.5007 34.2742C9.11221 39.2405 9.23135 46.0951 12.9716 49.6475ZM11.6472 51.1462C16.3683 55.6302 24.2034 54.7298 29.1473 49.1351C34.0911 43.5403 34.2717 35.3698 29.5506 30.8858C24.8295 26.4017 16.9944 27.3022 12.0505 32.8969C7.10666 38.4917 6.92608 46.6622 11.6472 51.1462Z" fill="#1D1D1F"/>
<path d="M26.7685 45.7858C24.25 48.6359 20.4917 49.316 18.3742 47.3049C16.2567 45.2937 16.5818 41.3528 19.1004 38.5027C21.6189 35.6526 25.3772 34.9724 27.4947 36.9836C29.6122 38.9948 29.2871 42.9357 26.7685 45.7858Z" fill="#1D1D1F"/>
<path d="M58.5165 35.6987C53.8857 40.9392 46.5467 41.7826 42.1246 37.5825C37.7024 33.3824 37.8715 25.7293 42.5023 20.4888C47.1332 15.2483 54.4721 14.4049 58.8943 18.605C63.3165 22.8051 63.1473 30.4582 58.5165 35.6987Z" fill="white"/>
<path fill-rule="evenodd" clip-rule="evenodd" d="M43.449 36.0839C46.8902 39.3523 52.991 38.9334 57.0664 34.3215C61.1418 29.7095 61.0112 23.3722 57.57 20.1038C54.1287 16.8353 48.028 17.2542 43.9526 21.8662C39.8771 26.4782 40.0077 32.8154 43.449 36.0839ZM42.1246 37.5826C46.5468 41.7827 53.8857 40.9393 58.5165 35.6988C63.1474 30.4583 63.3165 22.8052 58.8943 18.6051C54.4722 14.4049 47.1332 15.2483 42.5024 20.4888C37.8716 25.7293 37.7024 33.3825 42.1246 37.5826Z" fill="#1D1D1F"/>
<path d="M56.2884 32.5615C53.9293 35.2311 50.409 35.8682 48.4256 33.9844C46.4421 32.1005 46.7467 28.4092 49.1058 25.7396C51.4648 23.0699 54.9851 22.4328 56.9686 24.3167C58.952 26.2005 58.6475 29.8918 56.2884 32.5615Z" fill="#1D1D1F"/>
</svg>
