<svg width="70" height="70" viewBox="0 0 70 70" fill="none" xmlns="http://www.w3.org/2000/svg">
<path d="M15 50L29 41V28L25 25L18 26L29 19L38 17L42 19L50 17L55 22V24L53 26V36L55 37V41L37 53H33L29 50L25 53H22L15 50Z" fill="white"/>
<path d="M31.5001 26.0001L42 19.5" stroke="#1D1D1F" stroke-width="2"/>
<path d="M14.4855 27.1425C14.012 27.4267 13.8584 28.0409 14.1426 28.5145C14.4267 28.9881 15.041 29.1417 15.5145 28.8575L14.4855 27.1425ZM41.0004 28L40.1524 28.5301L41.0004 28ZM42 33L42 34L43 34L43 33L42 33ZM40.0003 35L41.0003 34.9918L40.0003 35ZM40.0003 39L39.0003 39L39.0003 39L40.0003 39ZM15.5147 49.1425C15.0412 48.8584 14.4269 49.012 14.1428 49.4855C13.8586 49.9591 14.0122 50.5734 14.4857 50.8575L15.5147 49.1425ZM41.0006 50L40.1526 49.47L41.0006 50ZM42.0002 45.0001L43.0002 45.0001L43.0002 44.0001L42.0002 44.0001L42.0002 45.0001ZM40.0005 43.0001L41.0005 43.0082L40.0005 43.0001ZM15.5145 28.8575C17.9347 27.4054 20.657 26.357 23.0105 26.1848C25.3373 26.0146 27.1296 26.6921 28.1261 28.4857L29.8744 27.5143C28.3707 24.8079 25.6629 23.9854 22.8646 24.1902C20.0931 24.393 17.0654 25.5946 14.4855 27.1425L15.5145 28.8575ZM29.7528 28.6585C32.9326 25.0245 38.0998 25.246 40.1524 28.5301L41.8484 27.47C38.9007 22.754 32.068 22.9755 28.2477 27.3415L29.7528 28.6585ZM40.1524 28.5301C40.4359 28.9835 40.6316 29.379 40.769 29.9863C40.9134 30.6244 41 31.5281 41 33L43 33C43 31.4719 42.9124 30.3963 42.7197 29.5449C42.52 28.6625 42.216 28.058 41.8484 27.47L40.1524 28.5301ZM42 32C41.1757 32 40.4325 32.4017 39.9159 32.917C39.3995 33.4321 38.9935 34.1769 39.0003 35.0082L41.0003 34.9918C40.9989 34.8231 41.0929 34.5679 41.3283 34.333C41.5636 34.0983 41.8243 34 42 34L42 32ZM39.0003 35.0082C39.0112 36.3367 39.0003 36.9577 39.0003 39L41.0003 39C41.0003 36.9828 41.0112 36.3295 41.0003 34.9918L39.0003 35.0082ZM14.4857 50.8575C17.0656 52.4054 20.0933 53.6071 22.8648 53.8099C25.6631 54.0146 28.3709 53.1922 29.8746 50.4857L28.1263 49.5144C27.1298 51.3079 25.3374 51.9855 23.0107 51.8152C20.6572 51.643 17.9349 50.5947 15.5147 49.1425L14.4857 50.8575ZM28.2479 50.6586C32.0682 55.0246 38.9009 55.246 41.8486 50.53L40.1526 49.47C38.0999 52.7541 32.9328 52.9755 29.753 49.3415L28.2479 50.6586ZM41.8486 50.53C42.2161 49.942 42.5202 49.3376 42.7199 48.4552C42.9126 47.6037 43.0002 46.5282 43.0002 45.0001L41.0002 45.0001C41.0002 46.4719 40.9136 47.3756 40.7692 48.0138C40.6318 48.621 40.436 49.0166 40.1526 49.47L41.8486 50.53ZM42.0002 44.0001C41.8245 44.0001 41.5638 43.9018 41.3285 43.667C41.093 43.4322 40.9991 43.177 41.0005 43.0082L39.0005 42.9919C38.9937 43.8232 39.3997 44.5679 39.9161 45.0831C40.4327 45.5983 41.1759 46.0001 42.0002 46.0001L42.0002 44.0001ZM41.0005 43.0082C41.0114 41.6706 41.0003 41.0169 41.0003 39L39.0003 39C39.0003 41.0426 39.0114 41.6633 39.0005 42.9919L41.0005 43.0082ZM28.0002 28L28.0004 50.0001L30.0004 50L30.0002 28L28.0002 28Z" fill="#1D1D1F"/>
<path d="M42 19.5L41.152 20.03C41.3004 20.2674 41.5415 20.4317 41.8167 20.483C42.0919 20.5343 42.376 20.4679 42.6 20.3L42 19.5ZM27.4855 19.1425C27.012 19.4266 26.8584 20.0409 27.1426 20.5144C27.4267 20.988 28.041 21.1416 28.5145 20.8574L27.4855 19.1425ZM54.0004 20L53.1524 20.53L54.0004 20ZM55 24.9999L55 25.9999L56 25.9999L56 24.9999L55 24.9999ZM53.0003 26.9999L54.0003 26.9918L53.0003 26.9999ZM53.0003 30.9999L52.0003 30.9999L52.0003 31L53.0003 30.9999ZM54.0006 42L53.1526 41.4699L54.0006 42ZM55.0002 37L56.0002 37L56.0002 36L55.0002 36L55.0002 37ZM53.0005 35L54.0005 35.0082L53.0005 35ZM28.5145 20.8574C30.9322 19.4068 33.6642 18.3515 36.0346 18.1202C38.4079 17.8887 40.1871 18.4861 41.152 20.03L42.848 18.97C41.3129 16.5138 38.5921 15.8612 35.8404 16.1297C33.0858 16.3984 30.0679 17.5931 27.4855 19.1425L28.5145 20.8574ZM42.6 20.3C44.4585 18.9061 46.6279 18.125 48.5627 18.125C50.4671 18.125 52.1156 18.8711 53.1524 20.53L54.8484 19.4699C53.3851 17.1288 51.0333 16.125 48.5626 16.125C46.1223 16.125 43.5415 17.0939 41.4 18.7L42.6 20.3ZM53.1524 20.53C53.4359 20.9834 53.6316 21.379 53.769 21.9862C53.9134 22.6243 54 23.5281 54 24.9999L56 24.9999C56 23.4718 55.9124 22.3963 55.7197 21.5448C55.52 20.6624 55.216 20.058 54.8484 19.4699L53.1524 20.53ZM55 23.9999C54.1758 23.9999 53.4325 24.4017 52.9159 24.9169C52.3995 25.4321 51.9935 26.1768 52.0003 27.0081L54.0003 26.9918C53.9989 26.823 54.0929 26.5678 54.3283 26.3329C54.5636 26.0982 54.8243 25.9999 55 25.9999L55 23.9999ZM52.0003 27.0081C52.0112 28.3367 52.0003 28.9577 52.0003 30.9999L54.0003 31C54.0003 28.9828 54.0112 28.3295 54.0003 26.9918L52.0003 27.0081ZM54.8486 42.53C55.2161 41.9419 55.5202 41.3375 55.7199 40.4551C55.9126 39.6037 56.0002 38.5281 56.0002 37L54.0002 37C54.0002 38.4718 53.9136 39.3756 53.7692 40.0137C53.6318 40.6209 53.436 41.0165 53.1526 41.4699L54.8486 42.53ZM55.0002 36C54.8245 36 54.5638 35.9017 54.3285 35.667C54.093 35.4321 53.9991 35.1769 54.0005 35.0082L52.0005 34.9918C51.9937 35.8231 52.3997 36.5679 52.9161 37.083C53.4327 37.5983 54.1759 38 55.0002 38L55.0002 36ZM54.0005 35.0082C54.0114 33.6705 54.0003 33.0168 54.0003 30.9999L52.0003 31C52.0003 33.0425 52.0114 33.6632 52.0005 34.9918L54.0005 35.0082ZM51.9011 45.1994C53.075 44.6205 54.0997 43.7282 54.8486 42.53L53.1526 41.4699C52.6068 42.3432 51.8675 42.986 51.0164 43.4057L51.9011 45.1994Z" fill="#1D1D1F"/>
<path d="M38.6077 52.2314L51.6077 44.2314" stroke="#1D1D1F" stroke-width="2"/>
<path d="M15 28L28 20" stroke="#1D1D1F" stroke-width="2"/>
<path d="M15 50L29 41.5" stroke="#1D1D1F" stroke-width="2"/>
<path d="M29 49.9999L40 43" stroke="#1D1D1F" stroke-width="2"/>
<path d="M54.0104 38V26L41 34V46L54.0104 38Z" fill="#1D1D1F"/>
</svg>
