<svg width="70" height="70" viewBox="0 0 70 70" fill="none" xmlns="http://www.w3.org/2000/svg">
<path fill-rule="evenodd" clip-rule="evenodd" d="M54.5 17L2 43V46L16 53.7241V50.2308L3.5 43.5L54.5 18L67 24.5L17 50.2426V53.7379L68 27V24L54.5 17Z" fill="#1D1D1F"/>
<path d="M55.0792 19.1683C54.6378 18.9439 53.9222 18.9439 53.4809 19.1683L6.33102 43.1428C5.88966 43.3672 5.88966 43.7311 6.33102 43.9555L15.9208 48.8317C16.3622 49.0561 17.0778 49.0561 17.5191 48.8317L64.669 24.8572C65.1103 24.6328 65.1103 24.2689 64.669 24.0445L55.0792 19.1683Z" fill="#1D1D1F"/>
<path d="M54.6796 21.4032C54.0176 21.0666 52.9442 21.0666 52.2822 21.4032C51.6201 21.7399 51.6201 22.2856 52.2822 22.6223L57.8762 25.4667C58.5382 25.8033 59.6116 25.8033 60.2737 25.4667C60.9357 25.1301 60.9357 24.5843 60.2737 24.2477L54.6796 21.4032Z" fill="white"/>
<path d="M49.8847 23.8413C49.2227 23.5047 48.1493 23.5047 47.4873 23.8413C46.8252 24.1779 46.8252 24.7237 47.4873 25.0604L53.0813 27.9048C53.7433 28.2414 54.8167 28.2414 55.4788 27.9048C56.1408 27.5682 56.1408 27.0224 55.4788 26.6857L49.8847 23.8413Z" fill="white"/>
<path d="M45.0898 26.2794C44.4278 25.9428 43.3544 25.9428 42.6924 26.2794C42.0303 26.616 42.0303 27.1618 42.6924 27.4984L48.2864 30.3429C48.9484 30.6795 50.0218 30.6795 50.6839 30.3429C51.3459 30.0062 51.3459 29.4605 50.6839 29.1238L45.0898 26.2794Z" fill="white"/>
<path d="M38.6966 29.5302C38.0346 29.1935 36.9612 29.1935 36.2992 29.5302C35.6371 29.8668 35.6371 30.4126 36.2992 30.7492L41.8932 33.5937C42.5552 33.9303 43.6286 33.9303 44.2907 33.5937C44.9527 33.257 44.9527 32.7112 44.2907 32.3746L38.6966 29.5302Z" fill="white"/>
<path d="M33.9017 31.9683C33.2397 31.6316 32.1663 31.6316 31.5042 31.9683C30.8422 32.3049 30.8422 32.8507 31.5042 33.1873L37.0983 36.0317C37.7603 36.3684 38.8337 36.3684 39.4958 36.0317C40.1578 35.6951 40.1578 35.1493 39.4958 34.8127L33.9017 31.9683Z" fill="white"/>
<path d="M29.1068 34.4063C28.4448 34.0697 27.3714 34.0697 26.7093 34.4063C26.0473 34.743 26.0473 35.2888 26.7093 35.6254L32.3034 38.4698C32.9654 38.8065 34.0388 38.8065 34.7008 38.4698C35.3629 38.1332 35.3629 37.5874 34.7008 37.2508L29.1068 34.4063Z" fill="white"/>
<path d="M22.7136 37.6571C22.0516 37.3205 20.9782 37.3205 20.3161 37.6571C19.6541 37.9938 19.6541 38.5395 20.3161 38.8762L25.9102 41.7206C26.5722 42.0572 27.6456 42.0572 28.3076 41.7206C28.9697 41.384 28.9697 40.8382 28.3076 40.5016L22.7136 37.6571Z" fill="white"/>
<path d="M17.9187 40.0952C17.2567 39.7586 16.1833 39.7586 15.5212 40.0952C14.8592 40.4318 14.8592 40.9776 15.5212 41.3143L21.1153 44.1587C21.7773 44.4953 22.8507 44.4953 23.5127 44.1587C24.1748 43.8221 24.1748 43.2763 23.5127 42.9396L17.9187 40.0952Z" fill="white"/>
<path d="M13.1238 42.5333C12.4618 42.1967 11.3884 42.1967 10.7263 42.5333C10.0643 42.8699 10.0643 43.4157 10.7263 43.7523L16.3204 46.5968C16.9824 46.9334 18.0558 46.9334 18.7178 46.5968C19.3799 46.2601 19.3799 45.7144 18.7178 45.3777L13.1238 42.5333Z" fill="white"/>
</svg>
