<svg width="70" height="70" viewBox="0 0 70 70" fill="none" xmlns="http://www.w3.org/2000/svg">
<path d="M56 42.7273V34H34V42.7273C38.5833 47.0909 50.5 47.0909 56 42.7273Z" fill="white" stroke="#1D1D1F" stroke-width="2" stroke-linejoin="round"/>
<path d="M18.8743 49.8431L43 45.0269V37L12.3403 42.6189C7.98529 43.4776 9.45836 51.1871 18.8743 49.8431Z" fill="white" stroke="#1D1D1F" stroke-width="2" stroke-linejoin="round"/>
<path d="M18.8743 41.8552L43 37.4095V30L12.3403 35.1866C7.98529 35.9793 9.45837 43.0958 18.8743 41.8552Z" fill="white" stroke="#1D1D1F" stroke-width="2" stroke-linejoin="round"/>
<path d="M29 29C29 30.9323 30.4969 32.9183 33.4471 34.4802C36.3525 36.0183 40.4354 37 45 37C49.5646 37 53.6475 36.0183 56.5529 34.4802C59.5031 32.9183 61 30.9323 61 29C61 27.0677 59.5031 25.0817 56.5529 23.5198C53.6475 21.9817 49.5646 21 45 21C40.4354 21 36.3525 21.9817 33.4471 23.5198C30.4969 25.0817 29 27.0677 29 29Z" fill="white" stroke="#1D1D1F" stroke-width="2"/>
<path d="M27 25.6C27 30.2392 35.0589 34 45 34C54.9411 34 63 30.2392 63 25.6C63 20.9608 54.9411 16 45 16C35.0589 16 27 20.9608 27 25.6Z" fill="#1D1D1F"/>
<path d="M8.31747 44.0175C9.33206 49.5113 12.4748 53.5093 15.3371 52.9473C18.1993 52.3854 19.6971 47.4762 18.6825 41.9825C17.6679 36.4887 14.5252 32.4907 11.6629 33.0527C8.80068 33.6146 7.30288 38.5238 8.31747 44.0175Z" fill="white"/>
<path fill-rule="evenodd" clip-rule="evenodd" d="M12.2206 50.3203C10.9758 48.8452 9.8782 46.5537 9.34748 43.7854C8.81676 41.0171 8.98974 38.4853 9.60156 36.659C10.2426 34.7455 11.1604 34.0864 11.7691 33.9713C12.3778 33.8562 13.4753 34.1341 14.7794 35.6797C16.0242 37.1548 17.1218 39.4463 17.6525 42.2146C18.1832 44.9829 18.0103 47.5147 17.3984 49.341C16.7574 51.2545 15.8396 51.9136 15.2309 52.0287C14.6222 52.1438 13.5247 51.8659 12.2206 50.3203ZM15.5968 53.9374C12.1999 54.5799 8.50739 50.2039 7.34936 44.1633C6.19132 38.1228 8.00629 32.7051 11.4032 32.0626C14.8001 31.4201 18.4926 35.7961 19.6506 41.8367C20.8087 47.8772 18.9937 53.2949 15.5968 53.9374Z" fill="#1D1D1F"/>
<path d="M10.4903 43.5624C11.2557 47.4053 13.1217 50.2728 14.6581 49.967C16.1945 49.6612 16.8196 46.2979 16.0543 42.4549C15.2889 38.6119 13.4229 35.7445 11.8865 36.0503C10.3501 36.3561 9.72499 39.7194 10.4903 43.5624Z" fill="#1D1D1F"/>
<path d="M44 38H42V41L44 40V38Z" fill="white"/>
</svg>
