<svg width="70" height="70" viewBox="0 0 70 70" fill="none" xmlns="http://www.w3.org/2000/svg">
<path fill-rule="evenodd" clip-rule="evenodd" d="M70 32V38L52 54V48L70 32ZM51 48H35H19V54H35H51V48ZM18 48V54L0 38V32L18 48Z" fill="#1D1D1F"/>
<path d="M35 16L0 32V33.5L35 18L70 33.5V32L35 16Z" fill="#1D1D1F"/>
<path d="M5.86589 33.7532L34.1129 20.9697C34.636 20.7329 35.2357 20.7324 35.7592 20.9684L64.132 33.755L50.638 45H34.9349L19.362 45L5.86589 33.7532Z" fill="white" stroke="#1D1D1F" stroke-width="2" stroke-linejoin="round"/>
<ellipse cx="35" cy="25.5" rx="3" ry="1.5" fill="#1D1D1F"/>
</svg>
