<svg width="70" height="70" viewBox="0 0 70 70" fill="none" xmlns="http://www.w3.org/2000/svg">
<path d="M0 32L35 16L70 32V38L36 53.5429V47.0571L68.3064 32.75L35 18L1.69355 32.75L35 47.5V54L0 38V32Z" fill="#1D1D1F"/>
<path d="M7.57109 33.4147C6.77643 33.0637 6.77643 31.9361 7.57109 31.5852L33.7254 20.0341C34.4959 19.6938 35.3739 19.693 36.145 20.0321L62.418 31.5845C63.2147 31.9348 63.2147 33.0651 62.418 33.4154L36.145 44.9678C35.3739 45.3068 34.4959 45.3061 33.7254 44.9658L7.57109 33.4147Z" fill="white"/>
<path fill-rule="evenodd" clip-rule="evenodd" d="M10.4503 32.4999L34.5334 43.1363C34.7903 43.2497 35.0829 43.25 35.3399 43.137L59.5311 32.4999L35.3399 21.8629C35.0829 21.7499 34.7903 21.7501 34.5334 21.8636L10.4503 32.4999ZM7.57109 31.5852C6.77643 31.9361 6.77643 33.0637 7.57109 33.4147L33.7254 44.9658C34.4959 45.3061 35.3739 45.3068 36.145 44.9678L62.418 33.4154C63.2147 33.0651 63.2147 31.9348 62.418 31.5845L36.145 20.0321C35.3739 19.693 34.4959 19.6938 33.7254 20.034L7.57109 31.5852Z" fill="#1D1D1F"/>
<ellipse cx="35" cy="25.5" rx="3" ry="1.5" fill="#1D1D1F"/>
</svg>
