<?xml version="1.0" encoding="utf-8"?>
<!-- Generator: Adobe Illustrator 23.1.0, SVG Export Plug-In . SVG Version: 6.00 Build 0)  -->
<svg version="1.1" id="Слой_1" xmlns="http://www.w3.org/2000/svg" xmlns:xlink="http://www.w3.org/1999/xlink" x="0px" y="0px"
	 width="150px" height="220px" viewBox="0 0 150 220" style="enable-background:new 0 0 150 220;" xml:space="preserve">
<style type="text/css">
	.st0{fill:#E1E2E1;}
	.st1{fill:#868686;}
	.st2{opacity:0.8;enable-background:new    ;}
	.st3{fill:#BACCD9;}
	.st4{opacity:0.7;enable-background:new    ;}
	.st5{fill-rule:evenodd;clip-rule:evenodd;fill:#E1E2E2;}
	.st6{fill:#878787;}
	.st7{fill:#E1E2E2;}
	.st8{fill-rule:evenodd;clip-rule:evenodd;fill:#BACDDA;}
	.st9{opacity:0.8;}
	.st10{fill-rule:evenodd;clip-rule:evenodd;fill:#BACDDA;stroke:#878787;stroke-miterlimit:10;}
	.st11{fill-rule:evenodd;clip-rule:evenodd;fill:#E1E2E1;}
	.st12{fill-rule:evenodd;clip-rule:evenodd;fill:#BACCD9;}
	.st13{fill-rule:evenodd;clip-rule:evenodd;fill:#FFFFFF;}
	.st14{fill:#FFFFFF;}
	.st15{fill:#BACDDA;}
	.st16{fill:none;}
	
		.st17{fill-rule:evenodd;clip-rule:evenodd;fill:#E1E2E1;stroke:#868686;stroke-linecap:round;stroke-linejoin:round;stroke-miterlimit:10;}
	
		.st18{fill-rule:evenodd;clip-rule:evenodd;fill:#E1E2E1;stroke:#868686;stroke-width:1.5;stroke-linecap:round;stroke-linejoin:round;stroke-miterlimit:10;}
</style>
<g>
	<g>
		<polygon class="st0" points="146.3,193.5 30.8,187.5 30.8,8.3 146.3,14.3 		"/>
		<path class="st1" d="M146.3,194.2L146.3,194.2l-115.5-6c-0.4,0-0.6-0.3-0.6-0.7V8.3c0-0.2,0.1-0.4,0.2-0.5
			c0.1-0.1,0.3-0.2,0.5-0.2l115.5,6c0.4,0,0.6,0.3,0.6,0.7v179.2c0,0.2-0.1,0.4-0.2,0.5C146.7,194.1,146.5,194.2,146.3,194.2z
			 M31.5,186.8l114.1,5.9V15L31.5,9V186.8z"/>
	</g>
	<g>
		<g>
			
				<rect x="87.9" y="-46.5" transform="matrix(5.293336e-02 -0.9986 0.9986 5.293336e-02 72.5752 99.2897)" class="st1" width="1.4" height="115.7"/>
		</g>
		<g>
			
				<rect x="87.9" y="-30.1" transform="matrix(5.175743e-02 -0.9987 0.9987 5.175743e-02 56.3769 114.7985)" class="st1" width="1.4" height="115.7"/>
		</g>
		<g>
			
				<rect x="87.9" y="-13.9" transform="matrix(5.175743e-02 -0.9987 0.9987 5.175743e-02 40.111 130.1931)" class="st1" width="1.4" height="115.7"/>
		</g>
		<g>
			
				<rect x="87.9" y="2.4" transform="matrix(5.176314e-02 -0.9987 0.9987 5.176314e-02 23.8441 145.5873)" class="st1" width="1.4" height="115.7"/>
		</g>
		<g>
			
				<rect x="87.9" y="18.7" transform="matrix(5.293336e-02 -0.9986 0.9986 5.293336e-02 7.4326 160.9853)" class="st1" width="1.4" height="115.7"/>
		</g>
		<g>
			
				<rect x="87.9" y="35.1" transform="matrix(5.175743e-02 -0.9987 0.9987 5.175743e-02 -8.7677 176.5732)" class="st1" width="1.4" height="115.7"/>
		</g>
		<g>
			
				<rect x="87.9" y="51.3" transform="matrix(5.175172e-02 -0.9987 0.9987 5.175172e-02 -25.0328 191.9686)" class="st1" width="1.4" height="115.7"/>
		</g>
		<g>
			
				<rect x="87.9" y="67.6" transform="matrix(5.176314e-02 -0.9987 0.9987 5.176314e-02 -41.211 207.4664)" class="st1" width="1.4" height="115.7"/>
		</g>
		<g>
			
				<rect x="87.8" y="83.9" transform="matrix(5.293336e-02 -0.9986 0.9986 5.293336e-02 -57.7102 222.6809)" class="st1" width="1.4" height="115.7"/>
		</g>
		<g>
			
				<rect x="87.9" y="100.2" transform="matrix(5.293336e-02 -0.9986 0.9986 5.293336e-02 -73.8852 238.1606)" class="st1" width="1.4" height="115.7"/>
		</g>
		<g>
			
				<rect x="87.9" y="116.5" transform="matrix(5.176314e-02 -0.9987 0.9987 5.176314e-02 -90.0884 253.8464)" class="st1" width="1.4" height="115.7"/>
		</g>
		<g>
			
				<rect x="87.9" y="132.8" transform="matrix(5.175172e-02 -0.9987 0.9987 5.175172e-02 -106.3534 269.2431)" class="st1" width="1.4" height="115.7"/>
		</g>
	</g>
	<g>
		<g>
			<rect x="30.3" y="8.3" class="st1" width="1.4" height="179.3"/>
		</g>
		<g>
			<rect x="49.5" y="9.3" class="st1" width="1.4" height="179.3"/>
		</g>
		<g>
			<rect x="68.7" y="10.2" class="st1" width="1.4" height="179.4"/>
		</g>
		<g>
			<rect x="88.1" y="11.3" class="st1" width="1.4" height="179.3"/>
		</g>
		<g>
			<rect x="107.3" y="12.3" class="st1" width="1.4" height="179.3"/>
		</g>
		<g>
			<rect x="126.5" y="13.4" class="st1" width="1.4" height="179.3"/>
		</g>
		<g>
			<rect x="145.8" y="14.3" class="st1" width="1.4" height="179.3"/>
		</g>
	</g>
	<g>
		<g>
			<polygon class="st0" points="149.3,187.6 131.3,218.7 131.3,39.5 149.3,8.3 			"/>
			<path class="st1" d="M131.3,219.4c-0.1,0-0.1,0-0.2,0c-0.3-0.1-0.5-0.4-0.5-0.7V39.5c0-0.1,0-0.2,0.1-0.3l18-31.2
				c0.2-0.3,0.5-0.4,0.8-0.3c0.3,0.1,0.5,0.4,0.5,0.7v179.3c0,0.1,0,0.2-0.1,0.3l-18,31.1C131.8,219.2,131.6,219.4,131.3,219.4z
				 M132,39.7v176.5l16.6-28.7V10.9L132,39.7z"/>
		</g>
		<g>
			<g>
				<polygon class="st1" points="130.7,39.1 148.7,8.1 149.9,8.8 131.9,39.8 				"/>
			</g>
			<g>
				<polygon class="st1" points="130.7,55.5 148.7,24.4 149.9,25.1 131.9,56.2 				"/>
			</g>
			<g>
				<polygon class="st1" points="130.7,71.8 148.7,40.8 149.9,41.5 131.9,72.5 				"/>
			</g>
			<g>
				<polygon class="st1" points="130.8,88.1 148.7,57.1 150,57.8 132,88.8 				"/>
			</g>
			<g>
				<polygon class="st1" points="130.7,104.4 148.7,73.3 149.9,74 131.9,105.1 				"/>
			</g>
			<g>
				<polygon class="st1" points="130.7,120.7 148.8,89.6 150,90.3 132,121.4 				"/>
			</g>
			<g>
				<polygon class="st1" points="130.7,137 148.7,105.8 149.9,106.5 131.9,137.7 				"/>
			</g>
			<g>
				<polygon class="st1" points="131.9,153.9 130.7,153.2 148.7,122.3 149.9,123 				"/>
			</g>
			<g>
				<polygon class="st1" points="131.9,170.2 130.7,169.6 148.7,138.5 149.9,139.2 				"/>
			</g>
			<g>
				<polygon class="st1" points="130.7,185.9 148.7,154.8 149.9,155.5 131.9,186.6 				"/>
			</g>
			<g>
				<polygon class="st1" points="130.8,202.2 148.8,171.1 150,171.8 132,202.9 				"/>
			</g>
			<g>
				<polygon class="st1" points="130.7,218.4 148.8,187.3 150,188 132,219.1 				"/>
			</g>
		</g>
		<g>
			<g>
				<rect x="130.6" y="39.4" class="st1" width="1.4" height="179.4"/>
			</g>
			<g>
				<rect x="136.6" y="29.1" class="st1" width="1.4" height="179.3"/>
			</g>
			<g>
				<rect x="142.6" y="18.7" class="st1" width="1.4" height="179.3"/>
			</g>
			<g>
				<rect x="148.6" y="8.3" class="st1" width="1.4" height="179.3"/>
			</g>
		</g>
	</g>
	<g>
		<g>
			<polygon class="st0" points="30.7,187.4 15.7,212.7 15.7,33.4 30.7,8 			"/>
			<path class="st1" d="M15.7,213.4c-0.1,0-0.1,0-0.2,0c-0.3-0.1-0.5-0.4-0.5-0.7V33.4c0-0.1,0-0.2,0.1-0.3l15-25.3
				c0.2-0.3,0.5-0.4,0.8-0.3c0.3,0.1,0.5,0.4,0.5,0.7v179.2c0,0.1,0,0.2-0.1,0.3l-15,25.3C16.1,213.2,15.9,213.4,15.7,213.4z
				 M16.4,33.6v176.6l13.6-23V10.5L16.4,33.6z"/>
		</g>
		<g>
			<g>
				<polygon class="st1" points="15.1,33.1 30.1,7.9 31.3,8.6 16.3,33.9 				"/>
			</g>
			<g>
				<polygon class="st1" points="15.1,49.4 30.1,24.2 31.3,25 16.3,50.1 				"/>
			</g>
			<g>
				<polygon class="st1" points="15.1,65.6 30.1,40.5 31.3,41.2 16.3,66.3 				"/>
			</g>
			<g>
				<polygon class="st1" points="15.1,82.1 30,56.8 31.2,57.5 16.3,82.8 				"/>
			</g>
			<g>
				<polygon class="st1" points="15.1,98.4 30.1,73.1 31.3,73.8 16.3,99.1 				"/>
			</g>
			<g>
				<polygon class="st1" points="15.1,114.6 30.1,89.4 31.3,90.1 16.3,115.3 				"/>
			</g>
			<g>
				<polygon class="st1" points="15.1,130.8 30.1,105.7 31.3,106.4 16.3,131.6 				"/>
			</g>
			<g>
				<polygon class="st1" points="15.1,147.3 30.1,122 31.3,122.8 16.3,148 				"/>
			</g>
			<g>
				<polygon class="st1" points="15.1,163.5 30.1,138.3 31.3,139 16.3,164.2 				"/>
			</g>
			<g>
				<polygon class="st1" points="15.1,179.8 30,154.5 31.2,155.3 16.3,180.5 				"/>
			</g>
			<g>
				<polygon class="st1" points="15.1,196 30.1,170.9 31.3,171.6 16.3,196.7 				"/>
			</g>
			<g>
				<polygon class="st1" points="15.1,212.4 30.1,187.2 31.3,187.9 16.3,213.2 				"/>
			</g>
		</g>
		<g>
			<g>
				<rect x="15" y="33.4" class="st1" width="1.4" height="179.3"/>
			</g>
			<g>
				<rect x="19.9" y="24.9" class="st1" width="1.4" height="179.4"/>
			</g>
			<g>
				<rect x="25" y="16.5" class="st1" width="1.4" height="179.3"/>
			</g>
			<g>
				<rect x="30" y="8" class="st1" width="1.4" height="179.3"/>
			</g>
		</g>
	</g>
	<g>
		<polygon class="st0" points="15.4,34.1 15.4,213.4 0.7,212.4 0.7,33.2 15,34.1 		"/>
		<path class="st1" d="M15.4,214L15.4,214l-14.8-1c-0.4,0-0.6-0.3-0.6-0.7V33.2c0-0.2,0.1-0.4,0.2-0.5c0.1-0.1,0.3-0.2,0.5-0.2
			L15,33.4h0.4c0.4,0,0.7,0.3,0.7,0.7v179.3c0,0.2-0.1,0.4-0.2,0.5C15.7,214,15.6,214,15.4,214z M1.4,211.8l13.4,0.9v-178L1.4,34
			V211.8z"/>
	</g>
	<g>
		<polygon class="st0" points="116.9,60.9 32,56.6 32,42 116.9,46.5 		"/>
	</g>
	<g>
		<path class="st1" d="M46.6,46.9l-3-0.1c-1.5-0.1-2.3,1-2.3,2.2v1.1c0,1.4,1,2.5,2.3,2.5l1.8,0.1l0,0c0.7,0,1.2-0.4,1.2-1.1l-3-0.1
			c-0.7,0-1.2-0.5-1.2-1.2v-1.2c0-0.7,0.4-1.1,1.2-1.1l3,0.1l0,0l0,0v5.3c0,0.7-0.4,1.1-1.2,1.1l-1.8-0.1c-0.7,0-1.2,0.4-1.2,1.1
			h1.2l0,0l1.8,0.1l0,0c1.5,0.1,2.3-1,2.3-2.2l0,0v-5.3C47.7,47.6,47.3,46.9,46.6,46.9z"/>
	</g>
	<g>
		<path class="st1" d="M104.6,50.1c-1.5-0.1-2.3,1-2.3,2.2v2.3c0,0.7,0.5,1.2,1.2,1.2v-3.5c0-0.7,0.4-1.1,1.2-1.1l1.5,0.1
			c0.7,0,1.2-0.4,1.2-1.1L104.6,50.1z"/>
	</g>
	<g>
		<path class="st1" d="M58,52.2c-0.7,0-1.2-0.5-1.2-1.2v-2.3l1.8,0.1c0.7,0,1.2-0.4,1.2-1.1l-3-0.1V45c-0.7,0-1.2,0.4-1.2,1.1v5
			c0,1.4,1,2.5,2.3,2.5h0.5c0.7,0,1.2-0.4,1.2-1.1L58,52.2z"/>
	</g>
	<g>
		<path class="st1" d="M92.6,55.3c-1.5-0.1-2.3-1.2-2.3-2.5v-2.3l-3.5-0.3v2.3c0,0.7,0.4,1.2,1.2,1.2l1.8,0.1c0,0.7-0.5,1.1-1.2,1.1
			H88c-1.5-0.1-2.3-1.2-2.3-2.5v-5c0-0.7,0.5-1.1,1.2-1.1v2.8l3.5,0.3v-1.5c0-0.7,0.5-1.1,1.2-1.1v2.6l3,0.1c0,0.7-0.5,1.1-1.2,1.1
			h-2v2.3l0,0c0,0.7,0.4,1.2,1.2,1.2h0.5l1.2,0.1c0,0.7-0.5,1.1-1.2,1.1L92.6,55.3z"/>
	</g>
	<g>
		<path class="st1" d="M53.6,48.5v3.6c0,0.7,0.5,1.2,1.2,1.2v-5.9C54.1,47.3,53.6,47.8,53.6,48.5z"/>
	</g>
	<g>
		<path class="st1" d="M50.7,51.8c-0.7,0-1.2-0.5-1.2-1.2v-3.5c-0.7,0-1.2,0.4-1.2,1.1v2.5c0,1.4,1,2.5,2.3,2.5l1.6,0.1
			c0.7,0,1.2-0.4,1.2-1.1L50.7,51.8z"/>
	</g>
	<g>
		<path class="st1" d="M70,52.9c-0.7,0-1.2-0.5-1.2-1.2v-3.6c-0.7,0-1.2,0.4-1.2,1.1v2.3c0,1.4,1,2.5,2.3,2.5h1
			c0.7,0,1.2-0.4,1.2-1.1H70z M76.1,49.7v2.4c0,0.7-0.5,1.1-1.2,1.1l0,0l-1.8-0.1l0,0v-4.8c-0.7,0-1.2,0.4-1.2,1.1v3.5
			c0,0.7,0.5,1.2,1.2,1.2l1.8,0.1c1.4,0,2.3-0.8,2.3-2.2l0,0v-3.5C76.6,48.5,76.1,49.1,76.1,49.7z"/>
	</g>
	<g>
		<path class="st1" d="M67,50.4c0-1.4-1-2.5-2.3-2.5l-2.2-0.1c-1.5-0.1-2.3,1-2.3,2.2v1.2c0,1.4,1,2.5,2.3,2.5l2.6,0.1
			c0.7,0,1.2-0.4,1.2-1.1l-3.8-0.3c-0.7,0-1.2-0.5-1.2-1.2l4.5,0.3C66.4,51.5,67,51,67,50.4z M62.5,50.1c-0.7,0-1.2,0.4-1.2,1.1l0,0
			V50c0-0.7,0.4-1.1,1.2-1.1l2,0.1c0.7,0,1.2,0.5,1.2,1.2L62.5,50.1z"/>
	</g>
	<g>
		<path class="st1" d="M84.8,51.4c0-1.4-1-2.5-2.3-2.5l-2-0.1c-1.5-0.1-2.3,1-2.3,2.2v1.2c0,1.4,1,2.5,2.3,2.5l2.6,0.1
			c0.7,0,1.2-0.4,1.2-1.1l-3.8-0.3c-0.7,0-1.2-0.5-1.2-1.2l4.5,0.3l0,0C84.3,52.5,84.8,52.1,84.8,51.4z M80.5,51.1
			c-0.7,0-1.2,0.4-1.2,1.1l0,0V51c0-0.7,0.4-1.1,1.2-1.1l2,0.1c0.7,0,1.2,0.5,1.2,1.2L80.5,51.1z"/>
	</g>
	<g>
		<path class="st1" d="M101.6,52.3c0-1.4-1-2.5-2.3-2.5l-2-0.1c-1.5-0.1-2.3,1-2.3,2.2v1.2c0,1.4,1,2.5,2.3,2.5l2.6,0.1
			c0.7,0,1.2-0.4,1.2-1.1l-3.8-0.3c-0.7,0-1.2-0.5-1.2-1.2l4.5,0.3C101,53.4,101.6,53,101.6,52.3z M97.1,52.1
			c-0.7,0-1.2,0.4-1.2,1.1l0,0V52c0-0.7,0.4-1.1,1.2-1.1l2,0.1c0.7,0,1.2,0.5,1.2,1.2L97.1,52.1z"/>
	</g>
	<g>
		<g>
			<path class="st1" d="M108.5,48.6c0.1-0.1,0.4-0.1,0.7-0.1c0.1,0,0.4,0,0.7,0.1c0.3,0.1,0.3,0.4,0.3,0.7s0,0.5-0.3,0.7
				c-0.1,0.1-0.4,0.1-0.7,0.1c-0.1,0-0.4,0-0.7-0.1c-0.1-0.1-0.3-0.4-0.3-0.7C108.3,49.1,108.4,48.8,108.5,48.6z M108.5,49.7
				c0.1,0.3,0.4,0.3,0.5,0.3s0.4,0,0.5-0.1c0.1-0.1,0.1-0.4,0.1-0.4c0-0.1,0-0.4-0.1-0.5c-0.1-0.3-0.4-0.3-0.5-0.3s-0.4,0-0.5,0.1
				c-0.1,0.1-0.1,0.4-0.1,0.4C108.5,49.5,108.5,49.6,108.5,49.7z M108.8,49.7v-0.8v-0.1c0,0,0,0,0.1,0h0.4c0.1,0,0.1,0,0.1,0
				c0.1,0,0.1,0.1,0.1,0.3c0,0.3-0.1,0.3-0.1,0.3h-0.1l0.4,0.4h-0.3l-0.4-0.3c0,0,0,0,0-0.1c0,0,0,0,0.1,0h0.1h0.1l0,0v-0.1
				c0,0,0,0,0-0.1h-0.1h-0.3l0,0l0,0v0.7h-0.1V49.7z"/>
		</g>
	</g>
	<g>
		<polygon class="st0" points="131,40.2 131,219.4 115,218.5 115,39.2 130.8,40.1 		"/>
		<path class="st1" d="M131,220L131,220l-16.1-0.8c-0.4,0-0.6-0.3-0.6-0.7V39.2c0-0.2,0.1-0.4,0.2-0.5c0.1-0.1,0.3-0.2,0.5-0.2
			l15.8,0.8c0.1,0,0.2,0,0.3,0.1l0.3,0.1c0.2,0.1,0.4,0.4,0.4,0.6v179.2c0,0.2-0.1,0.4-0.2,0.5C131.4,220,131.2,220,131,220z
			 M115.6,217.9l14.7,0.7V40.7l-14.7-0.8L115.6,217.9z"/>
	</g>
	<g>
		<polygon class="st0" points="149.2,7.9 130.8,40.1 115,39.2 130.6,13.4 31,7.9 15,34.1 0.7,33.2 23.3,0.7 		"/>
		<path class="st1" d="M130.8,40.7C130.8,40.7,130.7,40.7,130.8,40.7l-15.9-0.8c-0.2,0-0.5-0.2-0.6-0.4c-0.1-0.2-0.1-0.5,0-0.7
			L129.5,14L31.3,8.6L15.6,34.4c-0.1,0.2-0.4,0.3-0.6,0.3L0.6,33.9c-0.2,0-0.5-0.2-0.6-0.4c0-0.2,0-0.5,0.1-0.7L22.8,0.3
			C22.9,0.1,23.1,0,23.4,0l125.9,7.2c0.2,0,0.4,0.1,0.6,0.4c0.1,0.2,0.1,0.5,0,0.7l-18.4,32.1C131.2,40.6,131,40.7,130.8,40.7z
			 M116.1,38.6l14.3,0.7L148,8.5L23.7,1.4L1.9,32.6l12.7,0.7L30.4,7.6c0.1-0.2,0.4-0.3,0.6-0.3l99.7,5.5c0.2,0,0.5,0.2,0.6,0.4
			s0.1,0.5,0,0.7L116.1,38.6z"/>
	</g>
	<g>
		<g class="st2">
			<polygon class="st3" points="67.5,207.8 20.5,205.3 20.5,40.3 67.5,42.8 			"/>
			<path class="st1" d="M67.5,208.5L67.5,208.5L20.4,206c-0.4,0-0.6-0.3-0.6-0.7v-165c0-0.2,0.1-0.4,0.2-0.5
				c0.1-0.1,0.3-0.2,0.5-0.2l47,2.5c0.4,0,0.6,0.3,0.6,0.7v165c0,0.2-0.1,0.4-0.2,0.5C67.8,208.4,67.7,208.5,67.5,208.5z
				 M21.1,204.7l45.7,2.4V43.4L21.1,41L21.1,204.7z"/>
		</g>
		<g class="st4">
			<polygon class="st3" points="98.6,210.8 51.4,208.3 51.4,43.5 98.6,45.9 			"/>
			<path class="st1" d="M98.6,211.5L98.6,211.5L51.4,209c-0.4,0-0.6-0.3-0.6-0.7V43.5c0-0.2,0.1-0.4,0.2-0.5
				c0.1-0.1,0.3-0.2,0.5-0.2l47.2,2.5c0.4,0,0.6,0.3,0.6,0.7v164.9c0,0.2-0.1,0.4-0.2,0.5C98.9,211.4,98.8,211.5,98.6,211.5z
				 M52.1,207.7l45.8,2.4V46.6l-45.8-2.4L52.1,207.7z"/>
		</g>
	</g>
</g>
<rect y="35" class="st16" width="150" height="150"/>
</svg>
