<?xml version="1.0" encoding="utf-8"?>
<!-- Generator: Adobe Illustrator 23.1.0, SVG Export Plug-In . SVG Version: 6.00 Build 0)  -->
<svg version="1.1" id="Слой_1" xmlns="http://www.w3.org/2000/svg" xmlns:xlink="http://www.w3.org/1999/xlink" x="0px" y="0px"
	 width="150px" height="220px" viewBox="0 0 150 220" style="enable-background:new 0 0 150 220;" xml:space="preserve">
<style type="text/css">
	.st0{fill:#E1E2E1;}
	.st1{fill:#868686;}
	.st2{opacity:0.8;enable-background:new    ;}
	.st3{fill:#BACCD9;}
	.st4{opacity:0.7;enable-background:new    ;}
	.st5{fill-rule:evenodd;clip-rule:evenodd;fill:#E1E2E2;}
	.st6{fill:#878787;}
	.st7{fill:#E1E2E2;}
	.st8{fill-rule:evenodd;clip-rule:evenodd;fill:#BACDDA;}
	.st9{opacity:0.8;}
	.st10{fill-rule:evenodd;clip-rule:evenodd;fill:#BACDDA;stroke:#878787;stroke-miterlimit:10;}
	.st11{fill-rule:evenodd;clip-rule:evenodd;fill:#E1E2E1;}
	.st12{fill-rule:evenodd;clip-rule:evenodd;fill:#BACCD9;}
	.st13{fill-rule:evenodd;clip-rule:evenodd;fill:#FFFFFF;}
	.st14{fill:#FFFFFF;}
	.st15{fill:#BACDDA;}
	.st16{fill:none;}
	
		.st17{fill-rule:evenodd;clip-rule:evenodd;fill:#E1E2E1;stroke:#868686;stroke-linecap:round;stroke-linejoin:round;stroke-miterlimit:10;}
	
		.st18{fill-rule:evenodd;clip-rule:evenodd;fill:#E1E2E1;stroke:#868686;stroke-width:1.5;stroke-linecap:round;stroke-linejoin:round;stroke-miterlimit:10;}
</style>
<g>
	<g>
		<g>
			<polygon class="st11" points="73.9,183.3 11.9,207.6 11.9,33.5 73.9,9.2 			"/>
			<path class="st1" d="M11.9,208.2c-0.1,0-0.2,0-0.4-0.1c-0.2-0.1-0.3-0.3-0.3-0.5V33.5c0-0.3,0.2-0.5,0.4-0.6l62-24.3
				c0.2-0.1,0.4-0.1,0.6,0.1c0.2,0.1,0.3,0.3,0.3,0.5v174.1c0,0.3-0.2,0.5-0.4,0.6l-62,24.3C12,208.2,12,208.2,11.9,208.2z
				 M12.5,33.9v172.8l60.8-23.8V10.1L12.5,33.9z"/>
		</g>
		<g>
			<g>
				<g>
					<polygon class="st11" points="138.4,208.9 73.8,183.1 73.8,9.2 138.4,35.1 					"/>
					<path class="st1" d="M138.4,209.6c-0.1,0-0.2,0-0.2,0l-64.7-25.9c-0.2-0.1-0.4-0.3-0.4-0.6V9.2c0-0.2,0.1-0.4,0.3-0.5
						c0.2-0.1,0.4-0.1,0.6-0.1l64.6,25.9c0.2,0.1,0.4,0.3,0.4,0.6v173.9c0,0.2-0.1,0.4-0.3,0.5C138.6,209.5,138.5,209.6,138.4,209.6
						z M74.4,182.7l63.4,25.4V35.5L74.4,10.2V182.7z"/>
				</g>
				<g>
					<g>
						
							<rect x="105.4" y="161.3" transform="matrix(0.372 -0.9282 0.9282 0.372 -115.4414 221.5295)" class="st1" width="1.2" height="69.6"/>
					</g>
					<g>
						
							<rect x="105.4" y="132.3" transform="matrix(0.372 -0.9282 0.9282 0.372 -88.5368 203.3281)" class="st1" width="1.2" height="69.6"/>
					</g>
					<g>
						
							<rect x="105.4" y="146.8" transform="matrix(0.372 -0.9282 0.9282 0.372 -101.9891 212.4288)" class="st1" width="1.2" height="69.6"/>
					</g>
					<g>
						
							<rect x="105.4" y="117.8" transform="matrix(0.3737 -0.9276 0.9276 0.3737 -75.1426 193.9323)" class="st1" width="1.2" height="69.7"/>
					</g>
					<g>
						
							<rect x="105.4" y="103.3" transform="matrix(0.3736 -0.9276 0.9276 0.3736 -61.6954 184.8707)" class="st1" width="1.2" height="69.7"/>
					</g>
					<g>
						
							<rect x="105.4" y="88.8" transform="matrix(0.3736 -0.9276 0.9276 0.3736 -48.252 175.7922)" class="st1" width="1.2" height="69.7"/>
					</g>
					<g>
						
							<rect x="105.4" y="74.3" transform="matrix(0.3736 -0.9276 0.9276 0.3736 -34.8087 166.7138)" class="st1" width="1.2" height="69.7"/>
					</g>
					<g>
						
							<rect x="105.4" y="59.8" transform="matrix(0.3736 -0.9276 0.9276 0.3736 -21.3653 157.6353)" class="st1" width="1.2" height="69.7"/>
					</g>
					<g>
						
							<rect x="105.4" y="45.3" transform="matrix(0.372 -0.9282 0.9282 0.372 -7.8114 148.7412)" class="st1" width="1.3" height="69.6"/>
					</g>
					<g>
						
							<rect x="105.4" y="30.9" transform="matrix(0.372 -0.9282 0.9282 0.372 5.6409 139.6405)" class="st1" width="1.3" height="69.6"/>
					</g>
					<g>
						
							<rect x="105.4" y="16.4" transform="matrix(0.372 -0.9282 0.9282 0.372 19.0932 130.5399)" class="st1" width="1.3" height="69.6"/>
					</g>
					<g>
						
							<rect x="105.4" y="1.9" transform="matrix(0.372 -0.9282 0.9282 0.372 32.5455 121.4392)" class="st1" width="1.3" height="69.6"/>
					</g>
					<g>
						
							<rect x="105.4" y="-12.6" transform="matrix(0.372 -0.9282 0.9282 0.372 45.9978 112.3385)" class="st1" width="1.3" height="69.6"/>
					</g>
				</g>
				<g>
					<g>
						<rect x="73.1" y="9.2" class="st1" width="1.2" height="173.9"/>
					</g>
					<g>
						<rect x="86" y="14.4" class="st1" width="1.2" height="173.9"/>
					</g>
					<g>
						<rect x="99" y="19.5" class="st1" width="1.2" height="174"/>
					</g>
					<g>
						<rect x="111.9" y="24.7" class="st1" width="1.2" height="173.9"/>
					</g>
					<g>
						<rect x="124.7" y="29.9" class="st1" width="1.2" height="174"/>
					</g>
					<g>
						<rect x="137.8" y="35.1" class="st1" width="1.2" height="153.9"/>
					</g>
				</g>
			</g>
		</g>
		<g>
			<polygon class="st11" points="138,35.2 149.4,30.7 149.4,204.6 138,209.1 			"/>
			<path class="st1" d="M138,209.7c-0.1,0-0.2,0-0.4-0.1c-0.2-0.1-0.3-0.3-0.3-0.5v-174c0-0.3,0.2-0.5,0.4-0.6l11.4-4.5
				c0.2-0.1,0.4-0.1,0.6,0.1c0.2,0.1,0.3,0.3,0.3,0.5v173.9c0,0.3-0.2,0.5-0.4,0.6l-11.4,4.5C138.2,209.7,138.1,209.7,138,209.7z
				 M138.6,35.7v172.6l10.1-4V31.7L138.6,35.7z"/>
		</g>
		<g>
			<polygon class="st0" points="124.6,72.2 74.9,52.6 74.9,39.5 124.3,59 			"/>
		</g>
		<g>
			<g>
				<path class="st1" d="M80.5,45.8l-1.9-0.7c-1-0.4-1.5,0.1-1.5,1.1v0.9c0,1,0.6,2,1.5,2.4l1.1,0.5l0,0c0.4,0.1,0.8-0.1,0.8-0.5
					l-1.9-0.8c-0.5-0.3-0.8-0.7-0.8-1.1v-0.9c0-0.5,0.3-0.8,0.8-0.5l1.9,0.8v3.9c0,0.5-0.2,0.8-0.8,0.6l-1.1-0.6
					c-0.4-0.1-0.8,0.1-0.8,0.6l0.8,0.4l1.1,0.5c1,0.4,1.5-0.1,1.5-1.1v-3.9C81.3,46.5,80.9,45.9,80.5,45.8"/>
			</g>
			<g>
				<path class="st1" d="M118,61c-1-0.4-1.5,0.1-1.5,1.1v1.8c0,0.5,0.4,1,0.8,1.1v-2.6c0-0.5,0.2-0.8,0.8-0.5l1,0.4
					c0.4,0.1,0.8-0.1,0.8-0.5L118,61z"/>
			</g>
			<g>
				<path class="st1" d="M87.7,52.3C87.2,52,87,51.6,87,51.2v-1.8l1.1,0.5c0.4,0.1,0.8-0.1,0.8-0.5l-1.9-1v-2
					c-0.4-0.1-0.8,0.1-0.8,0.6v3.8c0,1,0.6,2,1.5,2.4l0.4,0.1c0.4,0.1,0.8-0.1,0.8-0.5L87.7,52.3z"/>
			</g>
			<g>
				<path class="st1" d="M110.4,62.3c-1-0.4-1.5-1.4-1.5-2.4v-1.8l-2.5-1v1.8c0,0.5,0.2,1,0.7,1.1l1.1,0.5c0,0.5-0.4,0.7-0.8,0.5
					l-0.3-0.1c-1-0.4-1.5-1.4-1.5-2.4v-3.8c0-0.5,0.4-0.8,0.7-0.6v2l2.4,1V56c0-0.5,0.4-0.8,0.7-0.5v2l1.9,0.7
					c0,0.5-0.4,0.8-0.7,0.5l-1.3-0.4v1.8c0,0.5,0.2,1,0.7,1.1l0.4,0.1l0.8,0.4C111.2,62.2,110.8,62.5,110.4,62.3L110.4,62.3z"/>
			</g>
			<g>
				<path class="st1" d="M85,48.5v2.6c0,0.5,0.4,1,0.8,1.1v-4.3C85.4,47.8,85,48,85,48.5"/>
			</g>
			<g>
				<path class="st1" d="M83.1,50.4c-0.5-0.3-0.8-0.7-0.8-1.1v-2.6c-0.5-0.3-0.8,0.1-0.8,0.6v1.8c0,1,0.6,2,1.5,2.4l1,0.4
					c0.4,0.1,0.8-0.1,0.8-0.5L83.1,50.4z"/>
			</g>
			<g>
				<path class="st1" d="M99.6,54.4v1.8c0,0.5-0.4,0.7-0.8,0.5l-1.1-0.5v-3.5c-0.4-0.1-0.8,0.1-0.8,0.5v2.7c0,0.5,0.4,1,0.8,1.1
					l1.1,0.5c0.9,0.4,1.5,0,1.5-1.1l0,0v-2.6C100,53.6,99.6,53.9,99.6,54.4 M95.6,55.4c-0.5-0.3-0.8-0.8-0.8-1.1v-2.6
					c-0.4-0.1-0.8,0.1-0.8,0.5v1.7c0,1,0.6,2,1.5,2.4l0.6,0.3c0.4,0.1,0.7-0.1,0.7-0.6L95.6,55.4z"/>
			</g>
			<g>
				<path class="st1" d="M90.8,51.6c-0.4-0.1-0.8,0.1-0.8,0.6v-0.9c0-0.5,0.2-0.8,0.8-0.5l1.4,0.5c0.5,0.3,0.8,0.7,0.8,1.1
					L90.8,51.6z M93.6,52.9c0-1-0.6-2-1.5-2.4L90.7,50c-1-0.4-1.5,0.1-1.5,1.1V52c0,1,0.6,2,1.5,2.4l1.8,0.8
					c0.4,0.1,0.8-0.1,0.8-0.5l-2.5-1c-0.6-0.3-0.8-0.8-0.8-1.2l2.9,1.1C93.4,53.6,93.6,53.3,93.6,52.9"/>
			</g>
			<g>
				<path class="st1" d="M102.4,56.4c-0.4-0.1-0.8,0.1-0.8,0.5V56c0-0.5,0.3-0.7,0.8-0.5l1.4,0.5c0.5,0.3,0.7,0.8,0.7,1.1
					L102.4,56.4z M105.2,57.5c0-1-0.6-2-1.5-2.4l-1.4-0.5c-1-0.4-1.5,0.1-1.5,1.1v0.9c0,1,0.6,2,1.5,2.4l1.8,0.7
					c0.4,0.1,0.8-0.1,0.8-0.5l-2.5-1c-0.5-0.3-0.8-0.8-0.8-1.1l2.9,1.1C104.9,58.3,105.2,58,105.2,57.5"/>
			</g>
			<g>
				<path class="st1" d="M113.2,60.8c-0.4-0.1-0.7,0.1-0.7,0.5v-0.9c0-0.5,0.2-0.8,0.7-0.5l1.4,0.5c0.5,0.3,0.8,0.7,0.8,1.1
					L113.2,60.8z M116.1,61.9c0-1-0.6-2-1.5-2.4l-1.4-0.5c-1-0.4-1.5,0.1-1.5,1.1V61c0,1,0.6,2,1.5,2.4l1.8,0.8
					c0.4,0.1,0.7-0.1,0.7-0.5l-2.5-1c-0.5-0.3-0.8-0.8-0.8-1.1l2.9,1.1C115.7,62.6,116.1,62.4,116.1,61.9"/>
			</g>
			<g>
				<path class="st1" d="M120.7,61.6V61c0,0,0,0,0-0.1s0,0,0.1,0L121,61c0,0,0.1,0,0.1,0.1s0.1,0.1,0.1,0.3c0,0.3-0.1,0.1-0.1,0.1
					H121l0.3,0.4h-0.1l-0.2-0.4c0,0,0,0,0-0.1l0,0h0.1h0.1l0,0v-0.1c0,0,0,0,0-0.1c0,0,0,0-0.1,0l-0.3-0.1l0,0l0,0L120.7,61.6
					L120.7,61.6z M120.6,61.6c0.1,0.3,0.3,0.3,0.4,0.3s0.2,0.1,0.4,0c0.1-0.1,0.1-0.3,0.1-0.4c0-0.1,0-0.3-0.1-0.4
					c-0.1-0.3-0.3-0.3-0.4-0.3s-0.3-0.1-0.4,0s-0.1,0.3-0.1,0.4C120.6,61.4,120.6,61.5,120.6,61.6 M120.6,60.8c0.1-0.1,0.3,0,0.4,0
					s0.2,0.1,0.4,0.3s0.1,0.4,0.1,0.5c0,0.1,0,0.4-0.1,0.4c-0.1,0.1-0.2,0-0.4-0.1c-0.1,0-0.3-0.1-0.4-0.3c-0.1-0.3-0.1-0.4-0.1-0.5
					S120.5,60.9,120.6,60.8"/>
			</g>
		</g>
		<g>
			<g>
				<rect x="23.4" y="31.3" class="st1" width="1.3" height="172.9"/>
			</g>
			<g>
				<rect x="35.8" y="23.8" class="st1" width="1.3" height="175"/>
			</g>
			<g>
				
					<rect x="-38.4" y="105.4" transform="matrix(1.726260e-03 -1 1 1.726260e-03 -57.183 154.793)" class="st1" width="174.7" height="1.3"/>
			</g>
			<g>
				
					<rect x="-25.5" y="100.7" transform="matrix(1.740712e-03 -1 1 1.740712e-03 -40.2714 162.4401)" class="st1" width="173.4" height="1.3"/>
			</g>
		</g>
		<g>
			<g>
				<g>
					
						<rect x="9.3" y="20.9" transform="matrix(0.9299 -0.3678 0.3678 0.9299 -4.9055 17.2226)" class="st1" width="66.9" height="1.2"/>
				</g>
				<g>
					
						<rect x="9.3" y="35.4" transform="matrix(0.9299 -0.3678 0.3678 0.9299 -10.2371 18.2387)" class="st1" width="66.9" height="1.2"/>
				</g>
				<g>
					
						<rect x="9.4" y="49.9" transform="matrix(0.9299 -0.3678 0.3678 0.9299 -15.5651 19.2737)" class="st1" width="66.8" height="1.2"/>
				</g>
				<g>
					
						<rect x="9.4" y="64.3" transform="matrix(0.9304 -0.3666 0.3666 0.9304 -20.8383 20.2198)" class="st1" width="66.8" height="1.3"/>
				</g>
				<g>
					
						<rect x="9.5" y="78.9" transform="matrix(0.9302 -0.3669 0.3669 0.9302 -26.1691 21.2624)" class="st1" width="66.7" height="1.2"/>
				</g>
				<g>
					
						<rect x="9.6" y="93.4" transform="matrix(0.9306 -0.3661 0.3661 0.9306 -31.4224 22.233)" class="st1" width="66.6" height="1.2"/>
				</g>
				<g>
					
						<rect x="9.7" y="107.8" transform="matrix(0.9311 -0.3646 0.3646 0.9311 -36.5882 23.1319)" class="st1" width="66.5" height="1.3"/>
				</g>
				<g>
					
						<rect x="9.7" y="122.3" transform="matrix(0.9318 -0.3629 0.3629 0.9318 -41.6955 23.956)" class="st1" width="66.4" height="1.2"/>
				</g>
				<g>
					
						<rect x="9.9" y="136.8" transform="matrix(0.9315 -0.3638 0.3638 0.9315 -47.0459 25.08)" class="st1" width="66.3" height="1.3"/>
				</g>
				<g>
					
						<rect x="9.9" y="151.3" transform="matrix(0.9322 -0.362 0.362 0.9322 -52.0932 25.8666)" class="st1" width="66.2" height="1.2"/>
				</g>
				<g>
					
						<rect x="10" y="165.8" transform="matrix(0.9325 -0.3613 0.3613 0.9325 -57.2166 26.7931)" class="st1" width="66.1" height="1.2"/>
				</g>
				<g>
					
						<rect x="10" y="180.3" transform="matrix(0.9325 -0.3613 0.3613 0.9325 -62.4531 27.772)" class="st1" width="66.1" height="1.2"/>
				</g>
				<g>
					
						<rect x="10" y="194.8" transform="matrix(0.9325 -0.3613 0.3613 0.9325 -67.6895 28.7509)" class="st1" width="66.1" height="1.2"/>
				</g>
			</g>
		</g>
		<g>
			<polygon class="st11" points="72.9,0.6 0.6,29.7 37.4,44.9 48.8,40.6 22.3,30 73.9,9.2 138.5,35.1 149.4,30.7 			"/>
			<path class="st1" d="M37.4,45.5c-0.1,0-0.2,0-0.2,0L0.4,30.3C0.2,30.2,0,30,0,29.7c0-0.3,0.2-0.5,0.4-0.6L72.6,0
				c0.2,0,0.4,0,0.5,0l76.5,30.1c0.2,0.1,0.4,0.3,0.4,0.6s-0.2,0.5-0.4,0.6l-10.9,4.4c-0.1,0.1-0.3,0.1-0.5,0L73.9,9.9L23.9,30
				L49,40c0.2,0.1,0.4,0.3,0.4,0.6s-0.2,0.5-0.4,0.6l-11.4,4.4C37.5,45.5,37.5,45.5,37.4,45.5z M2.3,29.8l35.1,14.6l9.7-3.7l-25-10
				c-0.2-0.1-0.4-0.3-0.4-0.6c0-0.3,0.2-0.5,0.4-0.6L73.6,8.7c0.2-0.1,0.3-0.1,0.5,0l64.4,25.8l9.2-3.7L72.9,1.3L2.3,29.8z"/>
		</g>
		<g>
			<g>
				<g>
					<polygon class="st11" points="37.3,219.3 0.9,202.4 0.8,29.7 37.3,44.9 					"/>
					<path class="st1" d="M37.2,219.9c-0.1,0-0.2,0-0.3-0.1L0.6,203c-0.2-0.1-0.4-0.3-0.4-0.6L0.1,29.7c0-0.2,0.1-0.4,0.3-0.5
						c0.2-0.1,0.4-0.1,0.6-0.1l36.5,15.2c0.2,0.1,0.4,0.3,0.4,0.6v174.4c0,0.2-0.1,0.4-0.3,0.5C37.5,219.9,37.4,219.9,37.2,219.9z
						 M1.5,202.1l35.1,16.3V45.3L1.4,30.7L1.5,202.1z"/>
				</g>
				<g>
					<g>
						
							<rect x="18.4" y="190.5" transform="matrix(0.4265 -0.9045 0.9045 0.4265 -179.751 138.035)" class="st1" width="1.2" height="40.5"/>
					</g>
					<g>
						
							<rect x="18.2" y="161.7" transform="matrix(0.414 -0.9103 0.9103 0.414 -154.5975 123.755)" class="st1" width="1.2" height="40.5"/>
					</g>
					<g>
						
							<rect x="18.2" y="176.1" transform="matrix(0.414 -0.9103 0.9103 0.414 -167.7465 132.2106)" class="st1" width="1.2" height="40.5"/>
					</g>
					<g>
						
							<rect x="18.2" y="190.6" transform="matrix(0.414 -0.9103 0.9103 0.414 -180.8956 140.6662)" class="st1" width="1.2" height="40.5"/>
					</g>
					<g>
						
							<rect x="18.1" y="147.3" transform="matrix(0.4114 -0.9115 0.9115 0.4114 -141.6299 115.6986)" class="st1" width="1.3" height="40.4"/>
					</g>
					<g>
						
							<rect x="18.2" y="132.9" transform="matrix(0.4063 -0.9137 0.9137 0.4063 -128.6879 108.078)" class="st1" width="1.3" height="40.3"/>
					</g>
					<g>
						
							<rect x="18.2" y="118.5" transform="matrix(0.401 -0.9161 0.9161 0.401 -115.7436 100.2416)" class="st1" width="1.2" height="40.2"/>
					</g>
					<g>
						
							<rect x="18.2" y="104.1" transform="matrix(0.3984 -0.9172 0.9172 0.3984 -102.564 92.0071)" class="st1" width="1.3" height="40.2"/>
					</g>
					<g>
						
							<rect x="18.2" y="89.7" transform="matrix(0.3958 -0.9183 0.9183 0.3958 -89.4422 83.551)" class="st1" width="1.2" height="40.1"/>
					</g>
					<g>
						
							<rect x="18.1" y="75.3" transform="matrix(0.3932 -0.9195 0.9195 0.3932 -76.2253 75.1147)" class="st1" width="1.3" height="40.1"/>
					</g>
					<g>
						
							<rect x="18.1" y="60.9" transform="matrix(0.3879 -0.9217 0.9217 0.3879 -63.0351 66.8183)" class="st1" width="1.3" height="40"/>
					</g>
					<g>
						
							<rect x="18.2" y="46.5" transform="matrix(0.3826 -0.9239 0.9239 0.3826 -49.7455 58.4133)" class="st1" width="1.2" height="39.9"/>
					</g>
					<g>
						
							<rect x="18.2" y="32.1" transform="matrix(0.381 -0.9246 0.9246 0.381 -36.4035 49.5986)" class="st1" width="1.3" height="39.7"/>
					</g>
					<g>
						
							<rect x="18.2" y="17.7" transform="matrix(0.3783 -0.9257 0.9257 0.3783 -23.0385 40.789)" class="st1" width="1.2" height="39.7"/>
					</g>
				</g>
				<g>
					<g>
						
							<rect x="-74.3" y="119.8" transform="matrix(1.740344e-03 -1 1 1.740344e-03 -108.6822 132.0786)" class="st1" width="172.2" height="1.3"/>
					</g>
					<g>
						<rect x="23.8" y="39.7" class="st1" width="1.3" height="173.3"/>
					</g>
					<g>
						<rect x="36.6" y="44.9" class="st1" width="1.2" height="174.4"/>
					</g>
				</g>
			</g>
		</g>
		<g>
			<polygon class="st11" points="37.3,44.9 49,40.5 49.1,214.6 37.3,219.3 			"/>
			<path class="st1" d="M37.2,219.9c-0.1,0-0.2,0-0.4-0.1c-0.2-0.1-0.3-0.3-0.3-0.5V44.9c0-0.3,0.2-0.5,0.4-0.6l11.8-4.5
				c0.2-0.1,0.4,0,0.6,0.1s0.3,0.3,0.3,0.5l0.1,174.2c0,0.3-0.2,0.5-0.4,0.6L37.4,220C37.4,219.9,37.3,219.9,37.2,219.9z M37.9,45.3
				v173.1l10.6-4.3L48.4,41.4L37.9,45.3z"/>
		</g>
	</g>
	<g>
		<g class="st2">
			<polygon class="st3" points="89.5,50.5 132.5,46.6 132.5,207.1 89.5,210.9 			"/>
			<path class="st1" d="M89.5,211.6c-0.2,0-0.3-0.1-0.4-0.2c-0.1-0.1-0.2-0.3-0.2-0.5V50.5c0-0.3,0.2-0.6,0.6-0.6l43-3.9
				c0.2,0,0.3,0,0.5,0.2c0.1,0.1,0.2,0.3,0.2,0.5v160.4c0,0.3-0.2,0.6-0.6,0.6L89.5,211.6L89.5,211.6z M90.1,51.1v159.2l41.8-3.8
				V47.3L90.1,51.1z"/>
		</g>
		<g class="st4">
			<polygon class="st3" points="61.3,54 104.3,50.1 104.3,210.6 61.3,214.4 			"/>
			<path class="st1" d="M61.3,215.1c-0.2,0-0.3-0.1-0.4-0.2c-0.1-0.1-0.2-0.3-0.2-0.5V54c0-0.3,0.2-0.6,0.6-0.6l43-3.9
				c0.2,0,0.3,0,0.5,0.2c0.1,0.1,0.2,0.3,0.2,0.5v160.4c0,0.3-0.2,0.6-0.6,0.6L61.3,215.1L61.3,215.1z M61.9,54.6v159.2l41.8-3.8
				V50.8L61.9,54.6z"/>
		</g>
	</g>
</g>
</svg>
