<svg width="84" height="16" viewBox="0 0 84 16" fill="none" xmlns="http://www.w3.org/2000/svg">
<rect x="64" y="13.0054" width="10" height="2" fill="url(#paint0_linear_1347_10593)"/>
<path d="M67.5 8.0052C69.5 8.00476 68.5 8.00447 70.5 8.00488C70.5 12.0046 74 13.0055 74 13.0055H64C64 13.0055 67.5 12.0049 67.5 8.0052Z" fill="url(#paint1_linear_1347_10593)"/>
<rect width="10" height="2" transform="matrix(1 0 0 -1 64 2.00439)" fill="url(#paint2_linear_1347_10593)"/>
<path d="M67.5 7.00456C69.5 7.005 68.5 7.0053 70.5 7.00488C70.5 3.0052 74 2.00424 74 2.00424H64C64 2.00424 67.5 3.00488 67.5 7.00456Z" fill="url(#paint3_linear_1347_10593)"/>
<path d="M83.5 6.50049H2.5V8.50049H83.5V6.50049Z" fill="#23A7EA" stroke="#008BD2"/>
<circle cx="2.5" cy="7.50439" r="2.5" fill="#1D1D1F"/>
<defs>
<linearGradient id="paint0_linear_1347_10593" x1="64" y1="13.0054" x2="74" y2="13.0054" gradientUnits="userSpaceOnUse">
<stop stop-color="#6E6E73"/>
<stop offset="0.38125" stop-color="#C3C3C7"/>
<stop offset="1" stop-color="#6E6E73"/>
</linearGradient>
<linearGradient id="paint1_linear_1347_10593" x1="64" y1="8.00525" x2="74" y2="8.00525" gradientUnits="userSpaceOnUse">
<stop stop-color="#454548"/>
<stop offset="0.38125" stop-color="#9A9A9E"/>
<stop offset="1" stop-color="#515154"/>
</linearGradient>
<linearGradient id="paint2_linear_1347_10593" x1="0" y1="0" x2="10" y2="0" gradientUnits="userSpaceOnUse">
<stop stop-color="#6E6E73"/>
<stop offset="0.38125" stop-color="#C3C3C7"/>
<stop offset="1" stop-color="#6E6E73"/>
</linearGradient>
<linearGradient id="paint3_linear_1347_10593" x1="64" y1="7.00452" x2="74" y2="7.00452" gradientUnits="userSpaceOnUse">
<stop stop-color="#454548"/>
<stop offset="0.38125" stop-color="#9A9A9E"/>
<stop offset="1" stop-color="#515154"/>
</linearGradient>
</defs>
</svg>
