<?xml version="1.0" encoding="utf-8"?>
<!-- Generator: Adobe Illustrator 21.0.0, SVG Export Plug-In . SVG Version: 6.00 Build 0)  -->
<svg version="1.1" id="Layer_1" xmlns="http://www.w3.org/2000/svg" xmlns:xlink="http://www.w3.org/1999/xlink" x="0px" y="0px"
	 viewBox="0 0 70 70" style="enable-background:new 0 0 70 70;" xml:space="preserve">
<style type="text/css">
	.st0{fill:#BCBCBC;}
	.st1{opacity:0.25;enable-background:new    ;}
	.st2{fill:#0094DD;}
</style>
<path d="M35,0L11,9.7v52.7v2.2l2,0.8l10.9,4.2c0.1,0,0.3,0.1,0.4,0.1s0.3,0,0.4-0.1l3.3-1.4v-1.7V14l-9.4-3.9L34,3.6v14.2l2-0.1V3.6
	l19,7.7v52.5l-1-0.5v2.2l0.9,0.4c0.1,0,0.3,0.1,0.4,0.1c0.1,0,0.3,0,0.4-0.1l3.3-1.4v-1.7V9.7L35,0z M24,67.4l-11-4.3V11l11,4.5
	V67.4z"/>
<g>
	<g>
		<rect x="39" y="19.9" class="st0" width="2" height="46"/>
	</g>
</g>
<g class="st1">
	<polygon class="st2" points="33.2,20.6 52,18.5 52,64.5 32.9,67.1 	"/>
</g>
<g>
	<path d="M32.3,67.5C32.1,67.3,32,67,32,66.8l0.1-46c0-0.5,0.4-1,0.9-1l11.9-0.7c0.3,0,0.5,0.1,0.7,0.3c0.2,0.2,0.3,0.5,0.3,0.7v46
		c0,0.5-0.4,1-0.9,1l-12,0.7c0,0,0,0-0.1,0C32.8,67.8,32.5,67.7,32.3,67.5z M44,21.2l-10,0.6v44l10-0.6V21.2z"/>
</g>
<path d="M52.7,17.8c-0.2-0.2-0.5-0.3-0.7-0.3h-0.1l-9,0.5L40,18.2c-0.6,0-1,0.5-1,1V20l3.5,0.1l8.5-0.5v44l-6,0.3v2l7.1-0.4
	c0.5,0,0.9-0.5,0.9-1v-46C53,18.2,52.9,18,52.7,17.8z"/>
<polygon points="31,57.3 25.6,59.5 26.3,61.3 31,59.4 "/>
</svg>
