<svg width="240" height="240" viewBox="0 0 240 240" fill="none" xmlns="http://www.w3.org/2000/svg">
<path d="M120 0L51.4286 27.7143V178.286V184.571L57.1429 186.857L88.2857 198.857C88.5714 198.857 89.1429 199.143 89.4286 199.143C89.7143 199.143 90.2857 199.143 90.5714 198.857L100 194.857V190V40L73.1429 28.8571L117.143 10.2857V50.8571L122.857 50.5714V10.2857L177.143 32.2857V182.286L174.286 180.857V187.143L176.857 188.286C177.143 188.286 177.714 188.571 178 188.571C178.286 188.571 178.857 188.571 179.143 188.286L188.571 184.286V179.429V27.7143L120 0ZM88.5714 192.571L57.1429 180.286V31.4286L88.5714 44.2857V192.571Z" fill="black"/>
<path d="M137.143 56.8584H131.429V188.287H137.143V56.8584Z" fill="#BCBCBC"/>
<g opacity="0.25">
<path d="M114.857 58.8574L168.571 52.8574V184.286L114 191.715L114.857 58.8574Z" fill="#0094DD"/>
</g>
<path d="M112.286 192.856C111.714 192.285 111.429 191.427 111.429 190.856L111.714 59.4275C111.714 57.9989 112.857 56.5703 114.286 56.5703L148.286 54.5703C149.143 54.5703 149.714 54.856 150.286 55.4275C150.857 55.9989 151.143 56.856 151.143 57.4275V188.856C151.143 190.285 150 191.713 148.571 191.713L114.286 193.713C114.286 193.713 114.286 193.713 114 193.713C113.714 193.713 112.857 193.427 112.286 192.856ZM145.714 60.5703L117.143 62.2846V187.999L145.714 186.285V60.5703Z" fill="black"/>
<path d="M170.571 50.8571C170 50.2857 169.143 50 168.571 50H168.286L142.571 51.4286L134.286 52C132.571 52 131.429 53.4286 131.429 54.8571V57.1429L141.429 57.4286L165.714 56V181.714L148.571 182.571V188.286L168.857 187.143C170.286 187.143 171.429 185.714 171.429 184.286V52.8571C171.429 52 171.143 51.4286 170.571 50.8571Z" fill="black"/>
<path d="M108.571 163.717L93.1428 170.003L95.1428 175.145L108.571 169.717V163.717Z" fill="black"/>
</svg>
