<?xml version="1.0" encoding="utf-8"?>
<!-- Generator: Adobe Illustrator 21.0.0, SVG Export Plug-In . SVG Version: 6.00 Build 0)  -->
<svg version="1.1" id="Layer_1" xmlns="http://www.w3.org/2000/svg" xmlns:xlink="http://www.w3.org/1999/xlink" x="0px" y="0px"
	 viewBox="0 0 70 70" style="enable-background:new 0 0 70 70;" xml:space="preserve">
<style type="text/css">
	.st0{fill:#BCBCBC;}
	.st1{opacity:0.25;enable-background:new    ;}
	.st2{fill:#0094DD;}
	.st3{fill:none;stroke:#000000;stroke-width:2;stroke-miterlimit:10;}
	.st4{fill:none;}
</style>
<g>
	<path class="st0" d="M23,56c-0.5,0-0.8,0.2-1,0.5c-0.1,0.1-0.9,0.8-2,1.8v2.8c1.5-1.4,2.9-2.8,3.2-3.1L42,59.1v-2
		C35,56.7,23.2,56,23,56z"/>
</g>
<g class="st1">
	<polygon class="st2" points="42,69 20,63 20,17 42,23 	"/>
</g>
<g>
	<path d="M42,70c-0.1,0-0.2,0-0.3,0l-22-6c-0.4-0.1-0.7-0.5-0.7-1V17c0-0.3,0.1-0.6,0.4-0.8C19.6,16,20,16,20.3,16l22,6
		c0.4,0.1,0.7,0.5,0.7,1v46c0,0.3-0.1,0.6-0.4,0.8C42.4,69.9,42.2,70,42,70z M21,62.2l20,5.5V23.8l-20-5.5V62.2z"/>
</g>
<g>
	<path class="st3" d="M40,54"/>
</g>
<g>
	<path class="st3" d="M50,58"/>
</g>
<g>
	<polygon class="st4" points="51,66.1 57,59.6 57,5.1 51,12.5 	"/>
</g>
<g>
	<path d="M21.3,0L11,9.1V66c0,0,3.4,0,3.5,0c0.5,0,0.7-0.2,0.9-0.5c0,0,1.2-1.1,2.6-2.5v-2.9c-1.6,1.5-3,2.8-3,2.8V9.7l7-6.3v11
		l2,0.7V2.9l29.7,1.6L47,12.2v45.2c0,0-1.2-0.1-3-0.2v2l3,0.2V69h3.4c0.5,0,0.7-0.1,1-0.4l7.6-8.2V2.6V2.4V2.1L21.3,0z M57,59.6
		L51,66V12.5l6-7.4V59.6z"/>
</g>
</svg>
