<svg width="240" height="240" viewBox="0 0 240 240" fill="none" xmlns="http://www.w3.org/2000/svg">
<path d="M124.764 151.714C124.764 151.714 125.621 151.429 126.192 151.429C126.478 151.429 127.335 151.714 127.335 151.714L151.335 161.429V167.714L126.478 157.429L79.0492 182.572L76.4778 177.429L124.764 151.714Z" fill="#BCBCBC"/>
<g opacity="0.25">
<path d="M103.335 57.1431H149.049V191.429H103.335V57.1431Z" fill="#0094DD"/>
</g>
<g opacity="0.25">
<path d="M77.6207 185.714L103.335 191.429V57.143L77.6207 51.4287V185.714Z" fill="#0094DD"/>
</g>
<path d="M126.192 0L194.764 27.7143V178.286V184.571L189.049 186.857L157.906 198.857C157.621 198.857 157.049 199.143 156.764 199.143C156.478 199.143 155.906 199.143 155.621 198.857L146.192 194.857V190V40L173.049 28.8571L129.049 10.2857V50.8571H123.335V10.2857L69.0493 32.2857V182.286L71.9064 180.857V187.143L69.335 188.286C69.0493 188.286 68.4778 188.571 68.1921 188.571C67.9064 188.571 67.335 188.571 67.0493 188.286L57.6207 184.286V179.429V27.7143L126.192 0ZM157.621 192.571L189.049 180.286V31.4286L157.621 44.2857V192.571Z" fill="black"/>
<path d="M103.335 194.286H149.049C150.478 194.286 151.906 193.143 151.906 191.429V57.1428C151.906 55.7142 150.764 54.2856 149.049 54.2856H103.335C101.906 54.2856 100.478 55.4285 100.478 57.1428V191.429C100.478 192.857 101.906 194.286 103.335 194.286ZM146.192 188.571H106.192V59.9999H146.192V188.571Z" fill="black"/>
<path d="M103.335 194.286C103.906 194.286 104.478 194 105.049 193.714C105.621 193.143 106.192 192.286 106.192 191.429V57.143C106.192 55.7144 105.335 54.5716 103.906 54.2858L78.1921 48.5716C77.335 48.2858 76.4779 48.5716 75.9064 49.143C75.335 49.7144 74.7636 50.5716 74.7636 51.4287V185.714C74.7636 187.143 75.6207 188.286 77.0493 188.572L102.764 194.286C103.049 194.286 103.049 194.286 103.335 194.286ZM100.478 59.4287V188L80.4779 183.429V54.8573L100.478 59.4287Z" fill="black"/>
<path d="M80.8174 206.586L103.215 194.701M52.617 198.957L74.7573 187.586" stroke="#B0B3B6"/>
<path d="M56.1909 197.131L86.2174 203.806" stroke="#B0B3B6"/>
<path d="M165.818 203.536L124.259 203.536" stroke="#B0B3B6"/>
<path d="M102.834 194.836L131.244 206.461M145.927 194.836L169.892 205.343" stroke="#B0B3B6"/>
<path fill-rule="evenodd" clip-rule="evenodd" d="M174.019 216.003L147.875 205.095L147.49 206.018L173.726 216.965L173.819 217.003H173.919H225.138V216.003H174.019Z" fill="#216FA8"/>
<path d="M155.048 206.09L144.042 203.871L153.128 210.707L155.048 206.09Z" fill="#216FA8"/>
<path d="M183.036 207.114H181.706C181.655 206.83 181.56 206.58 181.421 206.364C181.281 206.148 181.111 205.965 180.909 205.814C180.708 205.663 180.482 205.55 180.232 205.473C179.984 205.396 179.722 205.358 179.443 205.358C178.94 205.358 178.49 205.484 178.092 205.737C177.698 205.99 177.385 206.361 177.155 206.85C176.928 207.338 176.814 207.935 176.814 208.639C176.814 209.35 176.928 209.949 177.155 210.438C177.385 210.926 177.699 211.296 178.097 211.546C178.494 211.796 178.942 211.921 179.439 211.921C179.715 211.921 179.976 211.884 180.223 211.81C180.473 211.733 180.699 211.621 180.901 211.473C181.102 211.325 181.273 211.145 181.412 210.932C181.554 210.716 181.652 210.469 181.706 210.19L183.036 210.195C182.965 210.624 182.827 211.019 182.622 211.379C182.421 211.737 182.161 212.047 181.842 212.308C181.527 212.567 181.166 212.767 180.76 212.909C180.354 213.051 179.911 213.122 179.431 213.122C178.675 213.122 178.002 212.943 177.411 212.585C176.82 212.225 176.354 211.709 176.013 211.038C175.675 210.368 175.506 209.568 175.506 208.639C175.506 207.707 175.676 206.908 176.017 206.24C176.358 205.57 176.824 205.055 177.415 204.698C178.006 204.337 178.678 204.156 179.431 204.156C179.894 204.156 180.325 204.223 180.726 204.357C181.129 204.487 181.492 204.68 181.813 204.936C182.134 205.189 182.399 205.499 182.609 205.865C182.82 206.229 182.962 206.645 183.036 207.114ZM191.434 204.276V213.003H190.121V205.401H186.013V213.003H184.701V204.276H191.434ZM193.447 213.003V204.276H196.558C197.237 204.276 197.799 204.399 198.246 204.646C198.692 204.894 199.025 205.232 199.247 205.661C199.469 206.087 199.579 206.567 199.579 207.101C199.579 207.638 199.467 208.121 199.243 208.55C199.021 208.976 198.686 209.314 198.237 209.564C197.791 209.811 197.23 209.935 196.554 209.935H194.415V208.818H196.434C196.863 208.818 197.211 208.744 197.478 208.597C197.746 208.446 197.942 208.242 198.067 207.983C198.192 207.725 198.254 207.43 198.254 207.101C198.254 206.771 198.192 206.479 198.067 206.223C197.942 205.967 197.744 205.767 197.474 205.622C197.207 205.477 196.855 205.405 196.417 205.405H194.764V213.003H193.447ZM200.934 213.003H199.537L202.677 204.276H204.199L207.339 213.003H205.942L203.474 205.861H203.406L200.934 213.003ZM201.169 209.585H205.703V210.693H201.169V209.585ZM208.6 213.003V204.276H211.796C212.415 204.276 212.928 204.378 213.334 204.582C213.74 204.784 214.044 205.058 214.246 205.405C214.448 205.749 214.548 206.136 214.548 206.568C214.548 206.932 214.482 207.239 214.348 207.489C214.215 207.736 214.036 207.935 213.811 208.085C213.59 208.233 213.345 208.341 213.078 208.409V208.494C213.368 208.509 213.651 208.602 213.926 208.776C214.205 208.946 214.435 209.189 214.617 209.504C214.798 209.82 214.889 210.203 214.889 210.655C214.889 211.101 214.784 211.502 214.574 211.857C214.367 212.209 214.046 212.489 213.611 212.696C213.176 212.901 212.621 213.003 211.945 213.003H208.6ZM209.916 211.874H211.817C212.448 211.874 212.899 211.752 213.172 211.507C213.445 211.263 213.581 210.957 213.581 210.591C213.581 210.315 213.511 210.063 213.372 209.832C213.233 209.602 213.034 209.419 212.776 209.283C212.52 209.146 212.216 209.078 211.864 209.078H209.916V211.874ZM209.916 208.051H211.681C211.976 208.051 212.242 207.994 212.477 207.881C212.716 207.767 212.905 207.608 213.044 207.403C213.186 207.196 213.257 206.952 213.257 206.671C213.257 206.31 213.131 206.007 212.878 205.763C212.625 205.519 212.237 205.396 211.715 205.396H209.916V208.051ZM217.188 213.003H215.791L218.931 204.276H220.453L223.593 213.003H222.195L219.728 205.861H219.66L217.188 213.003ZM217.423 209.585H221.957V210.693H217.423V209.585Z" fill="#1D1D1F"/>
<path fill-rule="evenodd" clip-rule="evenodd" d="M47.3029 212.656L67.9971 201.382L68.4755 202.26L47.6695 213.595L47.5577 213.656H47.4303H3.99304V212.656H47.3029Z" fill="#216FA8"/>
<path d="M60.3048 203L71.2266 200.4L62.3834 207.547L60.3048 203Z" fill="#216FA8"/>
<path d="M12.8691 203.706H11.5396C11.4884 203.422 11.3933 203.172 11.2541 202.956C11.1149 202.741 10.9444 202.557 10.7427 202.407C10.541 202.256 10.3152 202.143 10.0652 202.066C9.81799 201.989 9.55521 201.951 9.2768 201.951C8.77396 201.951 8.32368 202.077 7.92595 202.33C7.53106 202.583 7.21856 202.954 6.98845 203.442C6.76117 203.931 6.64754 204.528 6.64754 205.232C6.64754 205.942 6.76117 206.542 6.98845 207.03C7.21856 207.519 7.53248 207.888 7.93021 208.138C8.32794 208.388 8.77538 208.513 9.27254 208.513C9.54811 208.513 9.80947 208.476 10.0566 208.403C10.3066 208.326 10.5325 208.214 10.7342 208.066C10.9359 207.918 11.1063 207.738 11.2455 207.525C11.3876 207.309 11.4856 207.062 11.5396 206.783L12.8691 206.787C12.7981 207.216 12.6603 207.611 12.4558 207.972C12.2541 208.33 11.9941 208.64 11.6759 208.901C11.3606 209.16 10.9998 209.36 10.5936 209.502C10.1873 209.644 9.74413 209.715 9.26402 209.715C8.50833 209.715 7.83504 209.536 7.24413 209.178C6.65322 208.817 6.18731 208.302 5.8464 207.631C5.50833 206.961 5.3393 206.161 5.3393 205.232C5.3393 204.3 5.50975 203.501 5.85066 202.833C6.19157 202.162 6.65748 201.648 7.24839 201.29C7.8393 200.93 8.51118 200.749 9.26402 200.749C9.72708 200.749 10.1589 200.816 10.5595 200.949C10.9629 201.08 11.3251 201.273 11.6461 201.529C11.9671 201.782 12.2328 202.091 12.443 202.458C12.6532 202.822 12.7953 203.238 12.8691 203.706ZM13.7843 209.596V208.454L14.0399 208.445C14.3865 208.437 14.6593 208.319 14.8581 208.091C15.0598 207.864 15.2061 207.498 15.297 206.992C15.3908 206.486 15.4533 205.812 15.4845 204.968L15.6337 200.868H21.1522V209.596H19.8524V201.985H16.8737L16.7374 205.317C16.7005 206.252 16.6067 207.037 16.4561 207.674C16.3056 208.307 16.0499 208.786 15.6891 209.11C15.3311 209.434 14.8212 209.596 14.1593 209.596H13.7843ZM23.0698 209.596V200.868H28.5414V202.002H24.3865V204.661H28.2558V205.79H24.3865V208.462H28.5925V209.596H23.0698ZM30.3002 209.596V200.868H33.4963C34.1156 200.868 34.6284 200.971 35.0346 201.175C35.4409 201.377 35.7448 201.651 35.9465 201.998C36.1482 202.341 36.2491 202.729 36.2491 203.161C36.2491 203.525 36.1823 203.831 36.0488 204.081C35.9153 204.329 35.7363 204.528 35.5119 204.678C35.2903 204.826 35.046 204.934 34.7789 205.002V205.087C35.0687 205.101 35.3514 205.195 35.6269 205.368C35.9054 205.539 36.1355 205.782 36.3173 206.097C36.4991 206.412 36.59 206.796 36.59 207.248C36.59 207.694 36.4849 208.094 36.2747 208.449C36.0673 208.802 35.7463 209.081 35.3116 209.289C34.8769 209.493 34.3215 209.596 33.6454 209.596H30.3002ZM31.617 208.466H33.5176C34.1482 208.466 34.6 208.344 34.8727 208.1C35.1454 207.856 35.2818 207.55 35.2818 207.184C35.2818 206.908 35.2122 206.655 35.073 206.425C34.9338 206.195 34.7349 206.012 34.4764 205.876C34.2207 205.739 33.9167 205.671 33.5644 205.671H31.617V208.466ZM31.617 204.644H33.3812C33.6767 204.644 33.9423 204.587 34.1781 204.474C34.4167 204.36 34.6056 204.201 34.7448 203.996C34.8869 203.789 34.9579 203.545 34.9579 203.263C34.9579 202.903 34.8315 202.6 34.5786 202.356C34.3258 202.111 33.938 201.989 33.4153 201.989H31.617V204.644ZM38.889 209.596H37.4913L40.6319 200.868H42.1532L45.2938 209.596H43.8961L41.4288 202.454H41.3606L38.889 209.596ZM39.1234 206.178H43.6575V207.286H39.1234V206.178Z" fill="#1D1D1F"/>
</svg>
