<svg width="70" height="70" viewBox="0 0 70 70" fill="none" xmlns="http://www.w3.org/2000/svg">
<path d="M35.5 53.1C35.5 53.1 35.2 53 35 53C34.9 53 34.5999 53.1 34.5999 53.1L26.2 56.5V58.7L34.9 55.1L51.5 63.9L52.4 62.1L35.5 53.1Z" fill="#BCBCBC"/>
<g opacity="0.25">
<path d="M43 20H27V67H43V20Z" fill="#0094DD"/>
</g>
<g opacity="0.25">
<path d="M52 65L43 67V20L52 18V65Z" fill="#0094DD"/>
</g>
<path d="M35 0L11 9.7V62.4V64.6L13 65.4L23.9 69.6C24 69.6 24.2 69.7 24.3 69.7C24.4 69.7 24.6 69.7 24.7 69.6L28 68.2V66.5V14L18.6 10.1L34 3.6V17.8H36V3.6L55 11.3V63.8L54 63.3V65.5L54.9 65.9C55 65.9 55.2 66 55.3 66C55.4 66 55.6 66 55.7 65.9L59 64.5V62.8V9.7L35 0ZM24 67.4L13 63.1V11L24 15.5V67.4Z" fill="black"/>
<path d="M43 68H27C26.5 68 26 67.6 26 67V20C26 19.5 26.4 19 27 19H43C43.5 19 44 19.4 44 20V67C44 67.5 43.5 68 43 68ZM28 66H42V21H28V66Z" fill="black"/>
<path d="M43 67.9999C42.8 67.9999 42.6 67.8999 42.4 67.7999C42.2 67.5999 42 67.2999 42 66.9999V19.9999C42 19.4999 42.3 19.0999 42.8 18.9999L51.8 16.9999C52.1 16.8999 52.4 16.9999 52.6 17.1999C52.8 17.3999 53 17.6999 53 17.9999V64.9999C53 65.4999 52.7 65.8999 52.2 65.9999L43.2 67.9999C43.1 67.9999 43.1 67.9999 43 67.9999ZM44 20.7999V65.7999L51 64.1999V19.1999L44 20.7999Z" fill="black"/>
</svg>
