<?xml version="1.0" encoding="utf-8"?>
<!-- Generator: Adobe Illustrator 21.0.0, SVG Export Plug-In . SVG Version: 6.00 Build 0)  -->
<svg version="1.1" id="Layer_1" xmlns="http://www.w3.org/2000/svg" xmlns:xlink="http://www.w3.org/1999/xlink" x="0px" y="0px"
	 viewBox="0 0 70 70" style="enable-background:new 0 0 70 70;" xml:space="preserve">
<style type="text/css">
	.st0{fill:#BCBCBC;}
	.st1{opacity:0.25;}
	.st2{fill:#0094DD;}
</style>
<path class="st0" d="M52,59.4l-16.6-6.7c-0.3-0.1-0.5-0.1-0.8,0l-8.5,3.5v2.2l8.9-3.7l17,6.9V59.4z"/>
<g class="st1">
	<polygon class="st2" points="52.5,19.3 35,26.4 25.3,22.5 25.3,65 34.9,69.3 52.5,62.2 	"/>
</g>
<path d="M61,60.5L61,60.5v-50L35,0L9,10.5v49.6l0,0v2.2l3.3,1.3c0.1,0,0.3,0.1,0.4,0.1c0.1,0,0.3,0,0.4-0.1l9.8-4.3v-2.2L13,61.5
	V12.1l21-8.5v19l1,0.4l1-0.4v-19l21,8.5v49.4l-3-1.3v2.2l2.9,1.2c0.1,0,0.3,0.1,0.4,0.1s0.2,0,0.4-0.1l3.3-1.4
	C61,62.2,61,60.5,61,60.5z"/>
<path d="M52.6,18.7c-0.2-0.2-0.6-0.2-0.9-0.1L35,25.3l-9.7-3.9c-0.3-0.1-0.6-0.1-0.9,0.1C24.1,21.7,24,22,24,22.3v42.4
	c0,0.5,0.2,0.8,0.6,1l9.9,4c0.1,0.1,0.3,0.1,0.4,0.1s0.2,0,0.4-0.1l17-6.9c0.4-0.2,0.7-0.5,0.7-0.9V19.5
	C53,19.2,52.9,18.9,52.6,18.7z M26,23.8l8,3.2v40.3l-8-3.2V23.8z M51,61.2l-15,6.1V27.1L51,21V61.2z"/>
</svg>
