<svg width="240" height="240" viewBox="0 0 240 240" fill="none" xmlns="http://www.w3.org/2000/svg">
<path d="M136 167.43L73.1428 142.287C72 141.716 71.4286 140.859 71.4286 139.716V49.7158H77.1428V137.716L138.286 162.287L136 167.43Z" fill="#BCBCBC"/>
<g opacity="0.25">
<path d="M49.7142 39.4307C49.7142 39.4307 136.286 76.5735 136.857 76.2878C137.429 76.0021 135.429 196.859 135.429 196.859L48.8571 163.431L49.7142 39.4307Z" fill="#0094DD"/>
</g>
<path d="M81.4286 0L71.4286 4V39.7143L77.1428 42V6.28571L81.1428 7.71429L83.4286 8.57143L94.2857 13.1429L183.429 49.1429V181.143L142.857 164.286V170.571L182.286 187.143C182.571 187.429 183.143 187.429 183.429 187.429C183.714 187.429 184.286 187.429 184.571 187.143L194.286 183.143V44.5714L81.4286 0Z" fill="black"/>
<path d="M137.429 199.141C137.143 199.141 136.286 198.855 135.714 198.569L47.4286 164.855C46.2857 164.569 45.7143 163.427 45.7143 162.284V39.7122C45.7143 38.8551 46.2857 37.9979 46.8572 37.4265C47.7143 36.8551 48.5714 36.8551 49.4286 37.1408L138.286 73.1408C139.429 73.7122 140 74.5694 140 75.7122V196.284C140 197.141 139.714 197.998 139.143 198.569C138.571 198.855 138 199.141 137.429 199.141ZM51.4286 159.998L134.286 192.284V77.7122L51.4286 43.9979V159.998Z" fill="black"/>
</svg>
