<?xml version="1.0" encoding="utf-8"?>
<!-- Generator: Adobe Illustrator 21.0.0, SVG Export Plug-In . SVG Version: 6.00 Build 0)  -->
<svg version="1.1" id="Layer_1" xmlns="http://www.w3.org/2000/svg" xmlns:xlink="http://www.w3.org/1999/xlink" x="0px" y="0px"
	 viewBox="0 0 70 70" style="enable-background:new 0 0 70 70;" xml:space="preserve">
<style type="text/css">
	.st0{fill:#BCBCBC;}
	.st1{opacity:0.25;fill:#0094DD;enable-background:new    ;}
</style>
<path class="st0" d="M52,59.2l-16.6-6.7c-0.3-0.1-0.5-0.1-0.8,0L18,59.2v2.2l17-6.9l17,6.9V59.2z"/>
<path class="st1" d="M18,18.9v42.7c0,0,4.5,7.4,17.1,7.4C47.5,69,52,61.6,52,61.6V18.9c0,0-4.4,7.5-16.9,7.5
	C22.4,26.3,18,18.9,18,18.9z"/>
<path d="M61,60.3L61,60.3V10.5L35,0L9,10.5v49.4l0,0v2.2l3.3,1.3c0.1,0,0.3,0.1,0.4,0.1c0.1,0,0.3,0,0.4-0.1l2.9-1.2V60l-3,1.3V12.1
	l21-8.5V24h1h1V3.6l21,8.5v49.2L54,60v2.2l2.9,1.2c0.1,0,0.3,0.1,0.4,0.1s0.3,0,0.4-0.1L61,62V60.3z"/>
<g>
	<path d="M35.1,70c-11.4,0-17.6-7.5-17.9-7.8C17.1,62,17,61.8,17,61.6V18.9c0-0.4,0.3-0.8,0.7-0.9c0.4-0.1,0.9,0,1.1,0.4l0,0
		c0.1,0.1,5.4,7.1,16.3,7.1c10.8,0,16-7,16.1-7.1c0.3-0.4,0.7-0.5,1.1-0.4c0.4,0.1,0.7,0.5,0.7,1v42.7c0,0.2-0.1,0.4-0.2,0.6
		C52.5,62.5,46.5,70,35.1,70z M19,61.2c1.2,1.3,6.8,6.8,16.1,6.8c9.2,0,14.8-5.5,15.9-6.8V21.4c-2.5,2.3-7.7,6-15.9,6
		s-13.5-3.6-16.1-6C19,21.4,19,61.2,19,61.2z"/>
</g>
</svg>
