<?xml version="1.0" encoding="utf-8"?>
<!-- Generator: Adobe Illustrator 21.0.0, SVG Export Plug-In . SVG Version: 6.00 Build 0)  -->
<svg version="1.1" id="Layer_1" xmlns="http://www.w3.org/2000/svg" xmlns:xlink="http://www.w3.org/1999/xlink" x="0px" y="0px"
	 viewBox="0 0 70 70" style="enable-background:new 0 0 70 70;" xml:space="preserve">
<style type="text/css">
	.st0{fill:#BCBCBC;}
	.st1{opacity:0.25;fill:#0094DD;enable-background:new    ;}
</style>
<path class="st0" d="M52,59.4l-16.6-6.7c-0.3-0.1-0.5-0.1-0.8,0L18,59.4v2.2l17-6.9l17,6.9V59.4z"/>
<path class="st1" d="M44,23.6l-18,0.1c-0.1,0-0.3,0-0.4-0.1L19,21.1v40.2l7.2,3.8h17.5l7.5-4l0.1-40.4l-7.1,2.9
	C44.3,23.6,44.1,23.6,44,23.6z"/>
<path d="M61,60.5L61,60.5v-50L35,0L9,10.5v49.6l0,0v2.2l3.3,1.3c0.1,0,0.3,0.1,0.4,0.1c0.1,0,0.3,0,0.4-0.1l2.9-1.2v-2.2l-3,1.3
	V12.1l21-8.5V21h2V3.6l21,8.5v49.4l-3-1.3v2.2l2.9,1.2c0.1,0,0.3,0.1,0.4,0.1s0.3,0,0.4-0.1l3.3-1.4C61,62.2,61,60.5,61,60.5z"/>
<path d="M52.5,18.8c-0.2-0.2-0.6-0.2-0.9-0.1l-7.8,3.4H26.2l-7.8-3.4c-0.3-0.1-0.6-0.1-0.9,0.1c-0.3,0.1-0.5,0.5-0.5,0.8v42.2
	c0,0.4,0.2,0.7,0.5,0.9l8,4.2C25.7,67,25.8,67,26,67h18c0.2,0,0.3,0,0.5,0l8-4.2c0.3-0.2,0.5-0.5,0.5-0.9V19.6
	C53,19.3,52.8,19,52.5,18.8z M27,24h16v41H27V24z M19,21.1l6,2.5v40.7l-6-3.1V21.1z M51,61.1l-6,3.2V23.6l6-2.6V61.1z"/>
</svg>
