<svg width="240" height="240" viewBox="0 0 240 240" fill="none" xmlns="http://www.w3.org/2000/svg">
<path d="M168.571 169.715L121.143 150.572C120.286 150.286 119.714 150.286 118.857 150.572L71.4286 169.715V176L120 156.286L168.571 176V169.715Z" fill="#BCBCBC"/>
<g opacity="0.25">
<path d="M170 55.1445L120 75.4302L69.7144 55.1445V177.716L119.714 198.002L170 177.716V55.1445Z" fill="#0094DD"/>
</g>
<path d="M194.286 172.857V30L120 0L45.7142 30V171.714V178L55.1428 181.714C55.4285 182 55.9999 182 56.2857 182C56.5714 182 57.1428 182 57.4285 181.714L65.7142 178.286V172L57.1428 175.714V34.5714L117.143 10.2857V64.5714L120 65.7143L122.857 64.5714V10.2857L182.857 34.5714V175.714L174.286 172V178.286L182.571 181.714C182.857 181.714 183.429 182 183.714 182C184 182 184.571 182 184.857 181.714L194.286 177.714V172.857Z" fill="black"/>
<path d="M170.286 53.4304C169.714 52.859 168.571 52.859 167.714 53.1447L120 72.2876L72.2857 53.1447C71.4286 52.859 70.5714 52.859 69.7143 53.4304C69.1428 54.0018 68.5714 54.859 68.5714 55.7161V176.859C68.5714 178.288 69.1428 179.145 70.2857 179.716L118.857 199.145C119.143 199.43 119.429 199.43 120 199.43C120.571 199.43 120.571 199.43 120.857 199.145L169.429 179.43C170.571 179.145 171.429 178.002 171.429 176.859V55.7161C171.429 54.859 171.143 54.0018 170.286 53.4304ZM74.2857 60.0018L117.143 77.1447V192.288L74.2857 175.145V60.0018ZM165.714 174.859L122.857 192.288V77.4304L165.714 60.0018V174.859Z" fill="black"/>
<path fill-rule="evenodd" clip-rule="evenodd" d="M57.3912 207L88.6416 192.721L89.0572 193.63L57.7078 207.955L57.6088 208H57.5H0V207H57.3912Z" fill="#216FA8"/>
<path d="M84.549 192.375L95.5544 190.156L86.4687 196.992L84.549 192.375Z" fill="#216FA8"/>
<path d="M3.07386 195.273H4.37784V202.858H7.25852V195.273H8.5625V202.858H11.4347V195.273H12.7344V204H3.07386V195.273ZM14.7713 195.273H16.0753V201.682H16.1562L20.5966 195.273H21.8153V204H20.4986V197.599H20.4176L15.9858 204H14.7713V195.273ZM23.7362 204V195.273H26.8469C27.5259 195.273 28.0884 195.396 28.5344 195.643C28.9805 195.891 29.3143 196.229 29.5359 196.658C29.7575 197.084 29.8683 197.564 29.8683 198.098C29.8683 198.635 29.756 199.118 29.5316 199.547C29.31 199.973 28.9748 200.311 28.5259 200.561C28.0799 200.808 27.5188 200.932 26.8427 200.932H24.7035V199.815H26.7234C27.1523 199.815 27.5004 199.741 27.7674 199.594C28.0344 199.443 28.2305 199.239 28.3555 198.98C28.4805 198.722 28.543 198.428 28.543 198.098C28.543 197.768 28.4805 197.476 28.3555 197.22C28.2305 196.964 28.033 196.764 27.7631 196.619C27.4961 196.474 27.1438 196.402 26.7063 196.402H25.0529V204H23.7362ZM31.4119 195.273H32.7159V201.682H32.7969L37.2372 195.273H38.456V204H37.1392V197.599H37.0582L32.6264 204H31.4119V195.273ZM40.3768 204V195.273H41.6935V199.065H46.0444V195.273H47.3654V204H46.0444V200.195H41.6935V204H40.3768ZM50.0202 204H48.6225L51.7631 195.273H53.2844L56.4251 204H55.0273L52.56 196.858H52.4918L50.0202 204ZM50.2546 200.582H54.7887V201.69H50.2546V200.582Z" fill="#1D1D1F"/>
<path fill-rule="evenodd" clip-rule="evenodd" d="M145.742 189.393L156.747 191.612L155.97 193.48L184.114 207H234V208H184H183.886L183.783 207.951L155.586 194.405L154.828 196.229L145.742 189.393Z" fill="#216FA8"/>
<path d="M187.298 206.109V202.884H187.873C188.069 202.719 188.253 202.484 188.423 202.18C188.594 201.876 188.739 201.466 188.858 200.949C188.977 200.432 189.06 199.768 189.105 198.959L189.31 195.273H194.692V202.884H195.68V206.097H194.419V204H188.56V206.109H187.298ZM189.425 202.884H193.43V196.406H190.503L190.366 198.959C190.329 199.575 190.268 200.129 190.183 200.621C190.101 201.112 189.994 201.547 189.864 201.925C189.736 202.3 189.589 202.619 189.425 202.884ZM196.462 204V202.858L196.718 202.849C197.065 202.841 197.337 202.723 197.536 202.496C197.738 202.268 197.884 201.902 197.975 201.396C198.069 200.891 198.131 200.216 198.163 199.372L198.312 195.273H203.83V204H202.53V196.389H199.552L199.415 199.722C199.378 200.656 199.285 201.442 199.134 202.078C198.984 202.712 198.728 203.19 198.367 203.514C198.009 203.838 197.499 204 196.837 204H196.462ZM205.748 195.273H207.052V201.682H207.133L211.573 195.273H212.792V204H211.475V197.599H211.394L206.962 204H205.748V195.273ZM214.713 204V195.273H216.029V199.065H220.38V195.273H221.701V204H220.38V200.195H216.029V204H214.713ZM224.356 204H222.958L226.099 195.273H227.62L230.761 204H229.363L226.896 196.858H226.828L224.356 204ZM224.59 200.582H229.125V201.69H224.59V200.582Z" fill="#1D1D1F"/>
</svg>
