<svg width="240" height="240" viewBox="0 0 240 240" fill="none" xmlns="http://www.w3.org/2000/svg">
<g clip-path="url(#clip0_2231_10387)">
<path d="M168.571 169.715L121.143 150.572C120.286 150.286 119.714 150.286 118.857 150.572L71.4286 169.715V176L120 156.286L168.571 176V169.715Z" fill="#BCBCBC"/>
<path opacity="0.25" d="M120 77.1429C106.857 77.1429 95.7143 70.8571 94.8572 70.5714L74.2858 60.2857V174.286L96.2858 184.571C96.5715 184.857 108.571 191.429 120 191.429C132 191.429 144.286 184.571 144.286 184.571L165.714 174.286V60L144.286 70.5714C143.714 70.8571 132.857 77.1429 120 77.1429Z" fill="#0094DD"/>
<path d="M120 0L45.7142 30V171.714V178L55.1428 181.714C55.4285 181.714 55.9999 182 56.2857 182C56.5714 182 57.1428 182 57.4285 181.714L65.7142 178.286V172L57.1428 175.714V34.5714L117.143 10.2857V65.4286C118 65.4286 119.143 65.4286 120 65.4286C120.857 65.4286 122 65.4286 122.857 65.4286V10.2857L182.857 34.5714V175.714L174.286 172V178.286L182.571 181.714C182.857 181.714 183.429 182 183.714 182C184 182 184.571 182 184.857 181.714L194.286 177.714V172.857V30L120 0Z" fill="black"/>
<path d="M169.714 53.4304C168.857 52.859 167.714 52.859 166.857 53.1447L141.429 65.4304C141.429 65.4304 131.143 71.1447 120 71.1447C108.286 71.1447 98 65.4304 97.7143 65.1447L72.8571 53.1447C72 52.859 70.8571 52.859 70 53.4304C69.1428 53.7161 68.5714 54.859 68.5714 55.7161V176.002C68.5714 177.145 69.1428 178.002 70 178.573L93.7143 189.43C94.5714 190.002 107.429 196.859 120 196.859C133.429 196.859 146.286 189.716 146.571 189.43L169.143 178.573C170.286 178.002 171.429 177.145 171.429 176.002V56.0018C171.429 55.1447 170.571 54.0018 169.714 53.4304ZM91.4286 182.288L74.2857 174.288V60.2876L91.4286 68.859V182.288ZM97.1428 185.145V71.7161C101.143 73.7161 110 77.1447 120 77.1447C130.286 77.1447 139.429 73.1447 142.857 71.4304V185.43C139.429 187.145 129.429 191.43 120 191.43C110.286 191.43 100 186.573 97.1428 185.145ZM165.714 174.288L148.571 182.573V68.5733L165.714 60.0018V174.288Z" fill="black"/>
<path d="M172.641 178.504L193.162 187.033" stroke="#B0B3B6"/>
<path d="M66.7329 178.715L47.2097 187.036" stroke="#B0B3B6"/>
<path d="M66.2996 178.707L140.578 213.539" stroke="#B0B3B6"/>
<path d="M51.587 185.124L105.281 211.506" stroke="#B0B3B6"/>
<path d="M173.058 178.458L100.859 213.539" stroke="#B0B3B6"/>
<path d="M188.307 185.235L136.175 211.506" stroke="#B0B3B6"/>
<path fill-rule="evenodd" clip-rule="evenodd" d="M48.8094 211L74.953 200.092L75.338 201.015L49.1021 211.961L49.0097 212H48.9096H6V211H48.8094Z" fill="#216FA8"/>
<path d="M67.7805 201.087L78.7858 198.868L69.7001 205.704L67.7805 201.087Z" fill="#216FA8"/>
<path d="M16.2074 202.111H14.8778C14.8267 201.827 14.7315 201.577 14.5923 201.361C14.4531 201.145 14.2827 200.962 14.081 200.811C13.8793 200.661 13.6534 200.547 13.4034 200.47C13.1563 200.393 12.8935 200.355 12.6151 200.355C12.1122 200.355 11.6619 200.482 11.2642 200.734C10.8693 200.987 10.5568 201.358 10.3267 201.847C10.0994 202.335 9.9858 202.932 9.9858 203.636C9.9858 204.347 10.0994 204.946 10.3267 205.435C10.5568 205.923 10.8707 206.293 11.2685 206.543C11.6662 206.793 12.1136 206.918 12.6108 206.918C12.8864 206.918 13.1477 206.881 13.3949 206.807C13.6449 206.73 13.8707 206.618 14.0724 206.47C14.2741 206.322 14.4446 206.142 14.5838 205.929C14.7259 205.713 14.8239 205.466 14.8778 205.188L16.2074 205.192C16.1364 205.621 15.9986 206.016 15.794 206.376C15.5923 206.734 15.3324 207.044 15.0142 207.305C14.6989 207.564 14.3381 207.764 13.9318 207.906C13.5256 208.048 13.0824 208.119 12.6023 208.119C11.8466 208.119 11.1733 207.94 10.5824 207.582C9.99148 207.222 9.52557 206.706 9.18466 206.036C8.84659 205.365 8.67756 204.565 8.67756 203.636C8.67756 202.705 8.84801 201.905 9.18892 201.237C9.52983 200.567 9.99574 200.053 10.5866 199.695C11.1776 199.334 11.8494 199.153 12.6023 199.153C13.0653 199.153 13.4972 199.22 13.8977 199.354C14.3011 199.484 14.6634 199.678 14.9844 199.933C15.3054 200.186 15.571 200.496 15.7812 200.862C15.9915 201.226 16.1335 201.642 16.2074 202.111ZM17.1225 208V206.858L17.3782 206.849C17.7248 206.841 17.9975 206.723 18.1964 206.496C18.3981 206.268 18.5444 205.902 18.6353 205.396C18.729 204.891 18.7915 204.216 18.8228 203.372L18.9719 199.273H24.4904V208H23.1907V200.389H20.212L20.0756 203.722C20.0387 204.656 19.945 205.442 19.7944 206.078C19.6438 206.712 19.3881 207.19 19.0273 207.514C18.6694 207.838 18.1594 208 17.4975 208H17.1225ZM26.408 208V199.273H31.8796V200.406H27.7248V203.065H31.5941V204.195H27.7248V206.866H31.9308V208H26.408ZM33.6385 208V199.273H36.8345C37.4538 199.273 37.9666 199.375 38.3729 199.58C38.7791 199.781 39.0831 200.055 39.2848 200.402C39.4865 200.746 39.5874 201.134 39.5874 201.565C39.5874 201.929 39.5206 202.236 39.3871 202.486C39.2536 202.733 39.0746 202.932 38.8501 203.082C38.6286 203.23 38.3842 203.338 38.1172 203.406V203.491C38.407 203.506 38.6896 203.599 38.9652 203.773C39.2436 203.943 39.4737 204.186 39.6555 204.501C39.8374 204.817 39.9283 205.2 39.9283 205.652C39.9283 206.098 39.8232 206.499 39.6129 206.854C39.4055 207.206 39.0845 207.486 38.6499 207.693C38.2152 207.898 37.6598 208 36.9837 208H33.6385ZM34.9553 206.871H36.8558C37.4865 206.871 37.9382 206.749 38.2109 206.504C38.4837 206.26 38.62 205.955 38.62 205.588C38.62 205.312 38.5504 205.06 38.4112 204.83C38.272 204.599 38.0732 204.416 37.8146 204.28C37.5589 204.143 37.255 204.075 36.9027 204.075H34.9553V206.871ZM34.9553 203.048H36.7195C37.0149 203.048 37.2805 202.991 37.5163 202.878C37.755 202.764 37.9439 202.605 38.0831 202.401C38.2251 202.193 38.2962 201.949 38.2962 201.668C38.2962 201.307 38.1697 201.004 37.9169 200.76C37.6641 200.516 37.2763 200.393 36.7536 200.393H34.9553V203.048ZM42.2273 208H40.8295L43.9702 199.273H45.4915L48.6321 208H47.2344L44.767 200.858H44.6989L42.2273 208ZM42.4616 204.582H46.9957V205.69H42.4616V204.582Z" fill="#1D1D1F"/>
<path fill-rule="evenodd" clip-rule="evenodd" d="M191.104 211L168.65 200.913L168.24 201.825L190.791 211.956L190.889 212H190.996H242V211H191.104Z" fill="#216FA8"/>
<path d="M174.035 201.087L163.03 198.868L172.116 205.704L174.035 201.087Z" fill="#216FA8"/>
<path d="M197.207 202.111H195.878C195.827 201.827 195.732 201.577 195.592 201.361C195.453 201.145 195.283 200.962 195.081 200.811C194.879 200.661 194.653 200.547 194.403 200.47C194.156 200.393 193.893 200.355 193.615 200.355C193.112 200.355 192.662 200.482 192.264 200.734C191.869 200.987 191.557 201.358 191.327 201.847C191.099 202.335 190.986 202.932 190.986 203.636C190.986 204.347 191.099 204.946 191.327 205.435C191.557 205.923 191.871 206.293 192.268 206.543C192.666 206.793 193.114 206.918 193.611 206.918C193.886 206.918 194.148 206.881 194.395 206.807C194.645 206.73 194.871 206.618 195.072 206.47C195.274 206.322 195.445 206.142 195.584 205.929C195.726 205.713 195.824 205.466 195.878 205.188L197.207 205.192C197.136 205.621 196.999 206.016 196.794 206.376C196.592 206.734 196.332 207.044 196.014 207.305C195.699 207.564 195.338 207.764 194.932 207.906C194.526 208.048 194.082 208.119 193.602 208.119C192.847 208.119 192.173 207.94 191.582 207.582C190.991 207.222 190.526 206.706 190.185 206.036C189.847 205.365 189.678 204.565 189.678 203.636C189.678 202.705 189.848 201.905 190.189 201.237C190.53 200.567 190.996 200.053 191.587 199.695C192.178 199.334 192.849 199.153 193.602 199.153C194.065 199.153 194.497 199.22 194.898 199.354C195.301 199.484 195.663 199.678 195.984 199.933C196.305 200.186 196.571 200.496 196.781 200.862C196.991 201.226 197.134 201.642 197.207 202.111ZM205.605 199.273V208H204.293V200.398H200.185V208H198.873V199.273H205.605ZM207.619 208V199.273H210.73C211.409 199.273 211.971 199.396 212.417 199.643C212.863 199.891 213.197 200.229 213.419 200.658C213.64 201.084 213.751 201.564 213.751 202.098C213.751 202.635 213.639 203.118 213.414 203.547C213.193 203.973 212.858 204.311 212.409 204.561C211.963 204.808 211.402 204.932 210.725 204.932H208.586V203.815H210.606C211.035 203.815 211.383 203.741 211.65 203.594C211.917 203.443 212.113 203.239 212.238 202.98C212.363 202.722 212.426 202.428 212.426 202.098C212.426 201.768 212.363 201.476 212.238 201.22C212.113 200.964 211.916 200.764 211.646 200.619C211.379 200.474 211.027 200.402 210.589 200.402H208.936V208H207.619ZM215.106 208H213.708L216.849 199.273H218.37L221.511 208H220.113L217.646 200.858H217.578L215.106 208ZM215.341 204.582H219.875V205.69H215.341V204.582ZM222.771 208V199.273H225.967C226.587 199.273 227.099 199.375 227.506 199.58C227.912 199.781 228.216 200.055 228.418 200.402C228.619 200.746 228.72 201.134 228.72 201.565C228.72 201.929 228.653 202.236 228.52 202.486C228.386 202.733 228.207 202.932 227.983 203.082C227.761 203.23 227.517 203.338 227.25 203.406V203.491C227.54 203.506 227.822 203.599 228.098 203.773C228.376 203.943 228.607 204.186 228.788 204.501C228.97 204.817 229.061 205.2 229.061 205.652C229.061 206.098 228.956 206.499 228.746 206.854C228.538 207.206 228.217 207.486 227.783 207.693C227.348 207.898 226.793 208 226.116 208H222.771ZM224.088 206.871H225.989C226.619 206.871 227.071 206.749 227.344 206.504C227.616 206.26 227.753 205.955 227.753 205.588C227.753 205.312 227.683 205.06 227.544 204.83C227.405 204.599 227.206 204.416 226.947 204.28C226.692 204.143 226.388 204.075 226.036 204.075H224.088V206.871ZM224.088 203.048H225.852C226.148 203.048 226.413 202.991 226.649 202.878C226.888 202.764 227.077 202.605 227.216 202.401C227.358 202.193 227.429 201.949 227.429 201.668C227.429 201.307 227.303 201.004 227.05 200.76C226.797 200.516 226.409 200.393 225.886 200.393H224.088V203.048ZM231.36 208H229.962L233.103 199.273H234.624L237.765 208H236.367L233.9 200.858H233.832L231.36 208ZM231.594 204.582H236.129V205.69H231.594V204.582Z" fill="#1D1D1F"/>
</g>
<defs>
<clipPath id="clip0_2231_10387">
<rect width="240" height="240" fill="white"/>
</clipPath>
</defs>
</svg>
