<svg width="240" height="240" viewBox="0 0 240 240" fill="none" xmlns="http://www.w3.org/2000/svg">
<path d="M168.571 169.144L121.143 150.001C120.286 149.716 119.714 149.716 118.857 150.001L71.4286 169.144V175.43L120 155.716L168.571 175.43V169.144Z" fill="#BCBCBC"/>
<path opacity="0.25" d="M71.4286 54.002V176.002C71.4286 176.002 84.2857 197.145 120.286 197.145C155.714 197.145 168.571 176.002 168.571 176.002V54.002C168.571 54.002 156 75.4305 120.286 75.4305C84 75.1448 71.4286 54.002 71.4286 54.002Z" fill="#0094DD"/>
<path d="M194.286 172.286V30L120 0L45.7143 30V171.143V177.429L55.1429 181.143C55.4286 181.143 56 181.429 56.2857 181.429C56.5714 181.429 57.1429 181.429 57.4286 181.143L65.7143 177.714V171.429L57.1429 175.143V34.5714L117.143 10.2857V68.5714H120H122.857V10.2857L182.857 34.5714V175.143L174.286 171.429V177.714L182.571 181.143C182.857 181.143 183.429 181.429 183.714 181.429C184 181.429 184.571 181.429 184.857 181.143L194.286 177.143V172.286Z" fill="black"/>
<path d="M120.286 200.003C87.7143 200.003 70 178.574 69.1428 177.717C68.8571 177.145 68.5714 176.574 68.5714 176.003V54.0026C68.5714 52.8597 69.4286 51.7169 70.5714 51.4312C71.7143 51.1455 73.1428 51.4312 73.7143 52.574C74 52.8597 89.1428 72.8597 120.286 72.8597C151.143 72.8597 166 52.8597 166.286 52.574C167.143 51.4312 168.286 51.1455 169.429 51.4312C170.571 51.7169 171.429 52.8597 171.429 54.2883V176.288C171.429 176.86 171.143 177.431 170.857 178.003C170 178.574 152.857 200.003 120.286 200.003ZM74.2857 174.86C77.7143 178.574 93.7143 194.288 120.286 194.288C146.571 194.288 162.571 178.574 165.714 174.86V61.1455C158.571 67.7169 143.714 78.2883 120.286 78.2883C96.8571 78.2883 81.7143 68.0026 74.2857 61.1455V174.86Z" fill="black"/>
</svg>
