<?xml version="1.0" encoding="UTF-8"?><svg id="Layer_1" xmlns="http://www.w3.org/2000/svg" width="160" height="218" viewBox="0 0 160 218"><defs><style>.cls-1{fill:#0094dd;isolation:isolate;opacity:.25;}.cls-2{fill:#bcbcbc;}</style></defs><path class="cls-2" d="m57.79,145.28V61.24h-5.68v84.04l-46.7,19.63,2.27,5.18,47.27-19.63s1.7-.86,2.27-1.44c.28-.29.28-.58.57-.86v-2.88Z"/><path class="cls-1" d="m5.7,57.01l49.73-21.31-.76,39.16s30.24,12.22,30.8,11.93,48.97-18.14,48.97-18.14l1.43,114.73-50.41,18.75L5.98,169.33l-.28-112.44v.12Z"/><path d="m3,55.03v114.84c0,.86.57,2.3,1.7,2.59l79.21,32.81c.57.29.85.58,1.14.58.57,0,.85,0,1.14-.29l49.12-19.91c.85-.86,1.99-1.73,1.99-2.88v-114.84c0-1.44-.57-2.01-1.42-2.59-.85-.58-1.7-.58-2.56-.29l-48.55,19.34L6.69,52.15c-1.14-.58-2.27,0-2.84.29-.57.29-.85,1.15-.85,2.59Zm128.61,125.73l-43.44,17.32v-108.51l43.44-17.32v108.51ZM8.68,59.34l73.82,30.22v108.51l-73.82-30.51V59.34Z"/><path d="m52.11,40.15v32.49l5.68,2.01v-39.17c0-1.4-.55-1.97-1.11-2.53-.83-.56-1.66-.56-2.49-.28L2.86,52.7v3.23l4.41,1.68,44.85-17.46Z"/><path d="m47.86,0l-9.94,4.03v28.21l5.68-2.3V7.31l105.05,42.08v129.05l-8.52-3.51v10.14l7.95,3.45c.28.29.85.29,1.14.29s.85-.29,1.14-.29l9.65-4.03V44.9L47.86,0Z"/><path d="m6.48,38.95l-1.14.44c-.04-.27-.11-.48-.23-.65-.11-.17-.26-.29-.43-.38-.17-.08-.36-.12-.57-.12-.21,0-.44.06-.67.15-.43.17-.82.44-1.16.82s-.62.86-.83,1.42c-.21.56-.32,1.19-.33,1.9-.02.71.07,1.27.25,1.68.18.41.44.68.78.79.33.12.71.09,1.14-.07.24-.09.46-.22.68-.37.21-.16.41-.34.59-.56.18-.21.33-.45.45-.71.12-.26.21-.54.27-.83l1.14-.44c-.07.45-.2.89-.38,1.31-.18.43-.41.82-.69,1.18-.28.36-.59.68-.94.96-.35.28-.73.49-1.14.65-.65.25-1.22.29-1.72.13-.5-.16-.88-.52-1.16-1.08-.27-.56-.4-1.3-.38-2.22.02-.93.19-1.78.49-2.56.31-.78.72-1.45,1.23-2,.51-.55,1.09-.95,1.74-1.2.4-.15.77-.23,1.11-.23.34,0,.65.07.91.22.27.15.49.37.66.66s.28.66.34,1.11Z"/><path d="m7.13,44.51l.03-1.14.22-.09c.3-.12.53-.33.71-.62.18-.29.31-.71.4-1.24.09-.53.16-1.23.2-2.08l.22-4.13,4.72-1.82-.2,8.7-1.11.43.17-7.58-2.55.98-.19,3.37c-.05.94-.15,1.76-.29,2.44-.14.68-.37,1.24-.69,1.69-.31.44-.75.77-1.32.99l-.32.12Z"/><path d="m15.08,41.44l.2-8.7,4.68-1.81-.03,1.13-3.56,1.37-.06,2.65,3.31-1.28-.03,1.12-3.31,1.28-.06,2.66,3.6-1.39-.03,1.13-4.73,1.83Z"/><path d="m21.27,39.05l.2-8.7,2.74-1.06c.53-.2.97-.27,1.31-.2s.6.24.76.52c.16.28.24.63.23,1.06,0,.36-.07.69-.19.98-.12.29-.28.55-.47.77-.19.22-.41.41-.64.57v.08c.24-.08.49-.08.72,0s.42.25.57.5c.15.25.22.61.21,1.06-.01.44-.11.88-.3,1.3-.19.42-.47.81-.85,1.16s-.85.63-1.43.86l-2.86,1.11Zm1.15-1.56l1.63-.63c.54-.21.93-.48,1.17-.81.24-.33.36-.68.37-1.05,0-.27-.05-.5-.16-.69-.11-.18-.28-.3-.5-.35-.22-.05-.48-.02-.78.1l-1.67.64-.06,2.79Zm.09-3.81l1.51-.58c.25-.1.48-.24.69-.43.21-.19.37-.41.5-.67.13-.25.19-.52.2-.8,0-.36-.09-.62-.3-.78-.21-.16-.54-.15-.99.02l-1.54.59-.06,2.65Z"/><path d="m28.62,36.21l-1.2.46,2.88-9.73,1.3-.5,2.49,7.66-1.2.46-1.95-6.3-.06.02-2.27,7.93Zm.28-3.48l3.88-1.5-.02,1.1-3.88,1.5.02-1.1Z"/><path d="m90.02,70.82l-1.14.44c-.04-.27-.11-.48-.23-.65s-.26-.29-.43-.38c-.17-.08-.36-.12-.57-.12-.21,0-.44.06-.67.15-.43.17-.82.44-1.16.82-.34.38-.62.86-.83,1.42-.21.56-.32,1.19-.33,1.9-.02.71.07,1.27.25,1.68.19.41.45.68.78.79.33.12.71.1,1.14-.07.24-.09.46-.22.68-.37.21-.16.41-.34.59-.56.17-.21.33-.45.45-.71s.21-.54.27-.83l1.14-.44c-.07.45-.2.89-.38,1.32-.18.43-.41.82-.69,1.18-.28.36-.59.68-.94.96-.35.28-.73.49-1.14.65-.65.25-1.22.29-1.72.13-.5-.16-.88-.52-1.16-1.08-.27-.56-.4-1.3-.38-2.22.02-.93.18-1.78.49-2.56.31-.78.72-1.45,1.23-2,.51-.55,1.09-.95,1.74-1.2.4-.15.77-.23,1.11-.23s.65.07.92.22c.27.15.49.37.66.66.17.29.28.66.34,1.1Z"/><path d="m97.27,65.22l-.2,8.7-1.12.43.17-7.58-3.52,1.36-.17,7.58-1.12.43.2-8.7,5.76-2.23Z"/><path d="m98.79,73.25l.2-8.7,2.66-1.03c.58-.22,1.06-.29,1.44-.19.38.1.65.32.83.68s.27.8.25,1.33c-.01.54-.12,1.05-.32,1.55-.2.5-.5.95-.88,1.34-.39.4-.87.71-1.45.93l-1.83.71.03-1.11,1.73-.67c.37-.14.67-.33.9-.57s.4-.51.52-.8c.11-.3.17-.61.18-.94,0-.33-.04-.6-.14-.81-.1-.21-.27-.35-.49-.4-.23-.06-.53-.01-.9.13l-1.41.55-.17,7.57-1.13.44Z"/><path d="m105.19,70.78l-1.2.46,2.88-9.73,1.3-.5,2.49,7.66-1.2.46-1.95-6.3-.06.02-2.28,7.93Zm.28-3.48l3.88-1.5-.03,1.1-3.88,1.5.03-1.1Z"/><path d="m111.75,68.25l.2-8.7,2.74-1.06c.53-.2.97-.27,1.31-.2.34.07.6.24.76.52.17.28.24.63.23,1.06,0,.36-.07.69-.19.98-.12.29-.28.55-.47.77s-.41.41-.64.57v.08c.25-.08.49-.08.72,0,.23.08.42.25.57.5.15.26.22.61.21,1.06,0,.44-.11.88-.3,1.3s-.47.81-.84,1.16c-.38.35-.86.63-1.43.86l-2.86,1.11Zm1.15-1.56l1.63-.63c.54-.21.93-.48,1.17-.81.24-.33.36-.68.37-1.05,0-.27-.05-.5-.16-.69-.11-.18-.28-.3-.5-.35-.22-.05-.48-.02-.78.1l-1.67.64-.06,2.79Zm.09-3.81l1.51-.58c.25-.1.48-.24.69-.43.21-.19.37-.41.5-.66.12-.25.19-.52.2-.8,0-.36-.09-.62-.31-.78s-.54-.15-.99.02l-1.54.59-.06,2.65Z"/><path d="m119.1,65.41l-1.2.46,2.88-9.74,1.3-.5,2.49,7.66-1.2.46-1.95-6.3-.06.02-2.28,7.93Zm.28-3.48l3.88-1.5-.03,1.1-3.88,1.5.03-1.1Z"/><path d="m13.62,182.37l-.11,8.7-1.11-.47.09-7.58-3.47-1.48-.09,7.58-1.11-.47.11-8.7,5.68,2.43Z"/><path d="m21.66,190.17c-.01.93-.16,1.66-.46,2.21-.3.54-.7.89-1.2,1.03-.5.15-1.07.08-1.71-.19-.64-.27-1.2-.7-1.7-1.27s-.88-1.25-1.16-2.04c-.28-.79-.41-1.65-.4-2.57.01-.93.16-1.66.46-2.21.3-.54.7-.89,1.2-1.03s1.08-.08,1.71.19c.64.27,1.2.69,1.7,1.26.5.57.88,1.25,1.16,2.04.28.79.41,1.65.4,2.58Zm-1.1-.47c0-.71-.08-1.35-.27-1.91-.19-.57-.45-1.05-.78-1.44-.33-.39-.71-.68-1.13-.86-.42-.18-.8-.22-1.14-.11-.34.11-.6.36-.8.77-.2.4-.3.96-.31,1.67,0,.71.08,1.34.27,1.91.19.57.45,1.05.78,1.44.33.39.71.68,1.13.86.42.18.8.22,1.14.11.34-.11.61-.36.8-.77s.3-.96.31-1.67Z"/><path d="m29.18,191.85l-1.12-.48c-.04-.3-.12-.59-.23-.85s-.26-.51-.43-.73c-.17-.22-.36-.42-.57-.58-.21-.17-.43-.3-.67-.4-.42-.18-.81-.22-1.14-.11-.34.11-.61.37-.8.77-.2.4-.3.96-.31,1.66,0,.71.08,1.35.27,1.91.19.57.45,1.05.78,1.44.33.39.71.68,1.13.86.23.1.45.15.66.17.21.01.4-.01.57-.09.17-.07.32-.19.44-.36.12-.16.21-.37.26-.63l1.12.48c-.07.4-.19.75-.36,1.03-.18.28-.4.5-.67.65-.27.15-.58.22-.92.21-.34,0-.72-.09-1.12-.27-.64-.27-1.2-.69-1.7-1.27-.49-.57-.88-1.25-1.16-2.04-.28-.79-.41-1.65-.4-2.57.01-.93.16-1.66.46-2.21.3-.54.7-.89,1.2-1.03.5-.15,1.07-.08,1.71.19.39.17.75.39,1.09.67.34.28.64.6.91.97.27.37.49.77.66,1.21.17.44.29.91.34,1.4Z"/><path d="m30.44,198.29l.11-8.7,4.62,1.97v1.13s-3.52-1.5-3.52-1.5l-.03,2.65,3.27,1.39v1.13s-3.28-1.39-3.28-1.39l-.03,2.66,3.55,1.52v1.13s-4.67-1.99-4.67-1.99Z"/><path d="m36.55,200.9l.11-8.7,2.62,1.12c.57.24,1.05.57,1.42.98.37.41.65.86.83,1.37.18.51.27,1.03.26,1.56,0,.54-.11.98-.3,1.32-.19.35-.48.56-.86.65-.38.09-.86,0-1.43-.24l-1.81-.77v-1.11s1.72.73,1.72.73c.36.15.66.21.88.15.23-.05.4-.18.5-.4.11-.21.16-.48.17-.81s-.05-.64-.15-.94c-.1-.3-.27-.57-.49-.81-.22-.24-.52-.44-.89-.6l-1.4-.6-.09,7.57-1.11-.48Z"/><path d="m43.02,203.66l.11-8.7,4.62,1.97v1.13s-3.52-1.5-3.52-1.5l-.03,2.65,3.27,1.39v1.13s-3.28-1.39-3.28-1.39l-.03,2.66,3.55,1.52v1.13s-4.67-1.99-4.67-1.99Z"/><path d="m48.54,208.14l.04-3.22.49.21c.17-.09.33-.26.47-.5.15-.24.27-.6.38-1.07.11-.47.18-1.1.23-1.89l.22-3.6,4.54,1.94-.09,7.59.83.36-.04,3.2-1.06-.45.03-2.09-4.94-2.11-.03,2.1-1.06-.45Zm1.83-2.45l3.38,1.44.08-6.46-2.47-1.06-.15,2.5c-.04.6-.1,1.13-.17,1.59-.08.46-.17.85-.29,1.18-.11.33-.24.59-.38.8Z"/><path d="m56.96,200.87l1.1.47-.08,6.39.07.03,3.83-4.79,1.03.44-.11,8.7-1.11-.47.08-6.38-.07-.03-3.82,4.78-1.02-.44.11-8.7Z"/><path d="m64.42,212.8l.11-8.7,1.11.48-.05,3.78,3.67,1.57.05-3.78,1.11.48-.11,8.7-1.11-.48.05-3.79-3.67-1.57-.05,3.79-1.11-.48Z"/><path d="m71.93,216.01l.11-8.7,4.62,1.97v1.13s-3.52-1.5-3.52-1.5l-.03,2.65,3.27,1.39v1.13s-3.28-1.39-3.28-1.39l-.03,2.66,3.55,1.51v1.13s-4.67-1.99-4.67-1.99Z"/></svg>