<?xml version="1.0" encoding="utf-8"?>
<!-- Generator: Adobe Illustrator 21.0.0, SVG Export Plug-In . SVG Version: 6.00 Build 0)  -->
<svg version="1.1" id="Layer_1" xmlns="http://www.w3.org/2000/svg" xmlns:xlink="http://www.w3.org/1999/xlink" x="0px" y="0px"
	 viewBox="0 0 70 70" style="enable-background:new 0 0 70 70;" xml:space="preserve">
<style type="text/css">
	.st0{fill:#BCBCBC;}
	.st1{opacity:0.25;fill:#0094DD;enable-background:new    ;}
</style>
<g>
	<g>
		<path class="st0" d="M17.8,64.1L17.4,62l24-9.3c0.3-0.1,0.6-0.1,0.7,0l10.6,4.9v2.2l-11-5L17.8,64.1z"/>
	</g>
</g>
<polygon class="st1" points="18.1,22 29,26.2 51.6,17.3 51.6,59.6 29.1,68.8 18.1,64.2 "/>
<path d="M52.6,16.2c-0.3-0.2-0.6-0.3-1-0.1l-22.4,9.1l-10.8-4.3c-0.3-0.1-0.7-0.1-0.9,0.1c-0.3,0.2-0.5,0.3-0.5,0.8v42.6
	c0,0.4,0.4,0.9,0.7,1.1l10.7,4.4C28.6,70,28.9,70,29,70s0.4,0,0.5-0.1l22.8-9.2c0.4-0.1,0.7-0.6,0.7-0.9V17.1
	C53,16.7,52.8,16.4,52.6,16.2z M19,23.4l9,3.6v40.4l-9-3.6V23.4z M51,59l-21,8.5V27l21-8.4V59z"/>
<path d="M42,0L9,13.1v51.7l3.4,1.4c0.1,0.1,0.3,0.1,0.4,0.1c0.1,0,0.3,0,0.4-0.1L16,65v-2.2L13,64V14.6L41,3.3v14.9l2-0.8V3.3L57,9
	v50.2L54,58v2.2l2.6,1.1c0.1,0.1,0.3,0.1,0.4,0.1s0.3,0,0.4-0.1l3.6-1.4v-52L42,0z"/>
</svg>
