<svg width="240" height="240" viewBox="0 0 240 240" fill="none" xmlns="http://www.w3.org/2000/svg">
<path fill-rule="evenodd" clip-rule="evenodd" d="M0 138.066H44.977H45.0713L45.1592 138.101L66.7505 146.55L66.3861 147.481L44.8826 139.066H0V138.066Z" fill="#216FA8"/>
<path d="M57.5632 146.217L68.936 148.027L59.5447 141.209L57.5632 146.217Z" fill="#216FA8"/>
<path d="M10.6844 129.177H9.35483C9.30369 128.893 9.20852 128.643 9.06932 128.427C8.93011 128.211 8.75966 128.028 8.55796 127.877C8.35625 127.727 8.1304 127.613 7.8804 127.537C7.63324 127.46 7.37046 127.422 7.09205 127.422C6.58921 127.422 6.13892 127.548 5.74119 127.801C5.34631 128.054 5.03381 128.424 4.80369 128.913C4.57642 129.402 4.46279 129.998 4.46279 130.703C4.46279 131.413 4.57642 132.012 4.80369 132.501C5.03381 132.99 5.34773 133.359 5.74546 133.609C6.14318 133.859 6.59063 133.984 7.08779 133.984C7.36335 133.984 7.62472 133.947 7.87188 133.873C8.12188 133.797 8.34773 133.684 8.54943 133.537C8.75114 133.389 8.92159 133.208 9.0608 132.995C9.20284 132.779 9.30085 132.532 9.35483 132.254L10.6844 132.258C10.6134 132.687 10.4756 133.082 10.271 133.443C10.0693 133.801 9.80938 134.11 9.49119 134.372C9.17585 134.63 8.81506 134.831 8.40881 134.973C8.00256 135.115 7.55938 135.186 7.07926 135.186C6.32358 135.186 5.65029 135.007 5.05938 134.649C4.46847 134.288 4.00256 133.772 3.66165 133.102C3.32358 132.431 3.15455 131.632 3.15455 130.703C3.15455 129.771 3.325 128.971 3.66591 128.304C4.00682 127.633 4.47273 127.119 5.06364 126.761C5.65455 126.4 6.32642 126.22 7.07926 126.22C7.54233 126.22 7.97415 126.287 8.37472 126.42C8.77813 126.551 9.14034 126.744 9.46136 127C9.78239 127.252 10.048 127.562 10.2582 127.929C10.4685 128.292 10.6105 128.708 10.6844 129.177ZM11.5995 135.066V133.924L11.8552 133.916C12.2018 133.907 12.4745 133.789 12.6734 133.562C12.8751 133.335 13.0214 132.968 13.1123 132.463C13.206 131.957 13.2685 131.282 13.2998 130.439L13.4489 126.339H18.9674V135.066H17.6677V127.456H14.689L14.5526 130.788C14.5157 131.723 14.4219 132.508 14.2714 133.145C14.1208 133.778 13.8651 134.257 13.5043 134.581C13.1464 134.904 12.6364 135.066 11.9745 135.066H11.5995ZM20.885 135.066V126.339H26.3566V127.473H22.2018V130.132H26.0711V131.261H22.2018V133.933H26.4077V135.066H20.885ZM28.1155 135.066V126.339H31.3115C31.9308 126.339 32.4436 126.441 32.8499 126.646C33.2561 126.848 33.5601 127.122 33.7618 127.468C33.9635 127.812 34.0643 128.2 34.0643 128.632C34.0643 128.995 33.9976 129.302 33.8641 129.552C33.7305 129.799 33.5516 129.998 33.3271 130.149C33.1055 130.297 32.8612 130.404 32.5942 130.473V130.558C32.8839 130.572 33.1666 130.666 33.4422 130.839C33.7206 131.01 33.9507 131.252 34.1325 131.568C34.3143 131.883 34.4053 132.267 34.4053 132.718C34.4053 133.164 34.3001 133.565 34.0899 133.92C33.8825 134.272 33.5615 134.552 33.1268 134.76C32.6922 134.964 32.1368 135.066 31.4607 135.066H28.1155ZM29.4322 133.937H31.3328C31.9635 133.937 32.4152 133.815 32.6879 133.571C32.9607 133.326 33.097 133.021 33.097 132.654C33.097 132.379 33.0274 132.126 32.8882 131.896C32.749 131.666 32.5501 131.483 32.2916 131.346C32.0359 131.21 31.732 131.142 31.3797 131.142H29.4322V133.937ZM29.4322 130.115H31.1965C31.4919 130.115 31.7575 130.058 31.9933 129.944C32.232 129.831 32.4209 129.672 32.5601 129.467C32.7021 129.26 32.7732 129.015 32.7732 128.734C32.7732 128.373 32.6467 128.071 32.3939 127.826C32.1411 127.582 31.7533 127.46 31.2305 127.46H29.4322V130.115ZM36.7043 135.066H35.3065L38.4472 126.339H39.9685L43.1091 135.066H41.7114L39.244 127.924H39.1759L36.7043 135.066ZM36.9386 131.649H41.4727V132.757H36.9386V131.649Z" fill="#1D1D1F"/>
<path d="M85.7143 143.429V60H80V143.429L50 156L52.2857 161.143L82.8571 148.571C82.8571 148.571 84.5714 147.714 85.1429 147.143C85.4286 146.857 85.4286 146.571 85.7143 146.286C85.7143 145.714 85.7143 143.429 85.7143 143.429Z" fill="#BCBCBC"/>
<path opacity="0.25" d="M52.2856 48.5731L81.7142 35.1445L83.1427 60.2874C83.1427 60.2874 130.571 80.5731 131.143 80.2874C131.714 80.0017 162.286 68.2874 162.286 68.2874L163.714 182.002L132 194.002L51.9999 161.43L52.2856 48.5731Z" fill="#0094DD"/>
<path d="M48.5714 47.7169V161.717C48.5714 162.574 49.1428 164.003 50.2857 164.288L130 196.86C130.571 197.145 130.857 197.431 131.143 197.431C131.714 197.431 132 197.431 132.286 197.145L163.714 184.288C164.571 183.431 165.714 182.574 165.714 181.431V67.4312C165.714 66.0026 165.143 65.4312 164.286 64.8597C163.429 64.2883 162.571 64.2883 161.714 64.574L130.857 76.8597L52.2857 44.8597C51.1428 44.2883 50 44.8597 49.4286 45.1455C48.8571 45.4312 48.5714 46.2883 48.5714 47.7169ZM160 179.431L134.286 189.717V82.0026L160 71.7169V179.431ZM54.2857 52.0026L128.571 82.0026V189.717L54.2857 159.431V52.0026Z" fill="black"/>
<path d="M80 39.7139V58.2853L85.7143 60.2853V35.1425C85.7143 33.7139 85.1428 33.1425 84.5714 32.571C83.7143 31.9996 82.8571 31.9996 82 32.2853L50.5714 44.571V47.7139L55.1428 49.4282L80 39.7139Z" fill="black"/>
<path d="M177.714 40.2852V52.8566V58.5709V181.142L168.571 177.428V183.714L176.571 187.142C176.857 187.428 177.429 187.428 177.714 187.428C178 187.428 178.571 187.142 178.857 187.142L188.571 183.142V44.5709L177.714 40.2852Z" fill="black"/>
<path d="M75.7143 0L65.7143 4V4.28571V21.1429V32L71.4286 29.7143V21.4286V7.14286L177.714 49.1429V181.143L174.571 180V186.571L176.571 187.429C176.857 187.714 177.429 187.714 177.714 187.714C178 187.714 178.571 187.429 178.857 187.429L188.571 183.429V44.5714L75.7143 0Z" fill="black"/>
<path fill-rule="evenodd" clip-rule="evenodd" d="M179.57 202.758L152.169 190.303L151.755 191.213L179.255 203.713L179.353 203.758H179.462H230.465V202.758H179.57Z" fill="#216FA8"/>
<path d="M160.62 191.943L149.614 189.724L158.7 196.56L160.62 191.943Z" fill="#216FA8"/>
<path d="M186.169 193.869H184.839C184.788 193.585 184.693 193.335 184.554 193.119C184.415 192.903 184.244 192.719 184.043 192.569C183.841 192.418 183.615 192.305 183.365 192.228C183.118 192.151 182.855 192.113 182.577 192.113C182.074 192.113 181.624 192.239 181.226 192.492C180.831 192.745 180.518 193.116 180.288 193.604C180.061 194.093 179.947 194.69 179.947 195.394C179.947 196.104 180.061 196.704 180.288 197.192C180.518 197.681 180.832 198.05 181.23 198.3C181.628 198.55 182.075 198.675 182.572 198.675C182.848 198.675 183.109 198.638 183.356 198.565C183.606 198.488 183.832 198.376 184.034 198.228C184.236 198.08 184.406 197.9 184.545 197.687C184.687 197.471 184.785 197.224 184.839 196.945L186.169 196.95C186.098 197.379 185.96 197.773 185.756 198.134C185.554 198.492 185.294 198.802 184.976 199.063C184.66 199.322 184.3 199.522 183.893 199.664C183.487 199.806 183.044 199.877 182.564 199.877C181.808 199.877 181.135 199.698 180.544 199.34C179.953 198.979 179.487 198.464 179.146 197.793C178.808 197.123 178.639 196.323 178.639 195.394C178.639 194.462 178.81 193.663 179.151 192.995C179.491 192.325 179.957 191.81 180.548 191.452C181.139 191.092 181.811 190.911 182.564 190.911C183.027 190.911 183.459 190.978 183.859 191.112C184.263 191.242 184.625 191.435 184.946 191.691C185.267 191.944 185.533 192.254 185.743 192.62C185.953 192.984 186.095 193.4 186.169 193.869ZM194.567 191.031V199.758H193.255V192.156H189.147V199.758H187.834V191.031H194.567ZM196.581 199.758V191.031H199.691C200.37 191.031 200.933 191.154 201.379 191.401C201.825 191.648 202.159 191.987 202.38 192.415C202.602 192.842 202.713 193.322 202.713 193.856C202.713 194.393 202.6 194.876 202.376 195.305C202.154 195.731 201.819 196.069 201.37 196.319C200.924 196.566 200.363 196.69 199.687 196.69H197.548V195.573H199.568C199.997 195.573 200.345 195.499 200.612 195.352C200.879 195.201 201.075 194.996 201.2 194.738C201.325 194.479 201.387 194.185 201.387 193.856C201.387 193.526 201.325 193.234 201.2 192.978C201.075 192.722 200.877 192.522 200.608 192.377C200.341 192.232 199.988 192.16 199.551 192.16H197.897V199.758H196.581ZM204.068 199.758H202.67L205.811 191.031H207.332L210.473 199.758H209.075L206.608 192.616H206.539L204.068 199.758ZM204.302 196.34H208.836V197.448H204.302V196.34ZM211.733 199.758V191.031H214.929C215.548 191.031 216.061 191.133 216.467 191.337C216.874 191.539 217.178 191.813 217.379 192.16C217.581 192.504 217.682 192.891 217.682 193.323C217.682 193.687 217.615 193.994 217.481 194.244C217.348 194.491 217.169 194.69 216.945 194.84C216.723 194.988 216.479 195.096 216.212 195.164V195.249C216.501 195.263 216.784 195.357 217.06 195.531C217.338 195.701 217.568 195.944 217.75 196.259C217.932 196.575 218.023 196.958 218.023 197.41C218.023 197.856 217.918 198.256 217.707 198.612C217.5 198.964 217.179 199.244 216.744 199.451C216.31 199.656 215.754 199.758 215.078 199.758H211.733ZM213.05 198.629H214.95C215.581 198.629 216.033 198.506 216.305 198.262C216.578 198.018 216.714 197.712 216.714 197.346C216.714 197.07 216.645 196.817 216.506 196.587C216.366 196.357 216.168 196.174 215.909 196.038C215.653 195.901 215.349 195.833 214.997 195.833H213.05V198.629ZM213.05 194.806H214.814C215.109 194.806 215.375 194.749 215.611 194.636C215.849 194.522 216.038 194.363 216.178 194.158C216.32 193.951 216.391 193.707 216.391 193.425C216.391 193.065 216.264 192.762 216.011 192.518C215.758 192.273 215.371 192.151 214.848 192.151H213.05V194.806ZM220.322 199.758H218.924L222.065 191.031H223.586L226.727 199.758H225.329L222.861 192.616H222.793L220.322 199.758ZM220.556 196.34H225.09V197.448H220.556V196.34Z" fill="#1D1D1F"/>
<path fill-rule="evenodd" clip-rule="evenodd" d="M15.224 215.295L86.4541 181.826L86.8793 182.731L17.6765 215.247H135.256V216.247H15.4366C15.2025 216.247 14.9997 216.085 14.9486 215.856C14.8976 215.628 15.0121 215.394 15.224 215.295Z" fill="#216FA8"/>
<path d="M79.3727 182.906L90.378 180.687L81.2923 187.523L79.3727 182.906Z" fill="#216FA8"/>
<path d="M57.5615 203.521V212.248H56.249V204.646H52.141V212.248H50.8285V203.521H57.5615ZM67.1559 207.884C67.1559 208.816 66.9855 209.617 66.6446 210.288C66.3037 210.955 65.8363 211.47 65.2426 211.83C64.6517 212.188 63.9798 212.367 63.2269 212.367C62.4713 212.367 61.7965 212.188 61.2028 211.83C60.6119 211.47 60.146 210.954 59.8051 210.284C59.4642 209.613 59.2937 208.813 59.2937 207.884C59.2937 206.953 59.4642 206.153 59.8051 205.485C60.146 204.815 60.6119 204.301 61.2028 203.943C61.7965 203.582 62.4713 203.401 63.2269 203.401C63.9798 203.401 64.6517 203.582 65.2426 203.943C65.8363 204.301 66.3037 204.815 66.6446 205.485C66.9855 206.153 67.1559 206.953 67.1559 207.884ZM65.8519 207.884C65.8519 207.174 65.7369 206.576 65.5068 206.09C65.2795 205.602 64.967 205.232 64.5693 204.982C64.1744 204.73 63.7269 204.603 63.2269 204.603C62.7241 204.603 62.2752 204.73 61.8804 204.982C61.4855 205.232 61.173 205.602 60.9429 206.09C60.7156 206.576 60.6019 207.174 60.6019 207.884C60.6019 208.595 60.7156 209.194 60.9429 209.683C61.173 210.169 61.4855 210.538 61.8804 210.791C62.2752 211.041 62.7241 211.166 63.2269 211.166C63.7269 211.166 64.1744 211.041 64.5693 210.791C64.967 210.538 65.2795 210.169 65.5068 209.683C65.7369 209.194 65.8519 208.595 65.8519 207.884ZM76.0462 206.359H74.7166C74.6655 206.075 74.5703 205.825 74.4311 205.609C74.2919 205.393 74.1215 205.21 73.9198 205.059C73.7181 204.909 73.4922 204.795 73.2422 204.718C72.9951 204.642 72.7323 204.603 72.4539 204.603C71.951 204.603 71.5007 204.73 71.103 204.982C70.7081 205.235 70.3956 205.606 70.1655 206.095C69.9382 206.583 69.8246 207.18 69.8246 207.884C69.8246 208.595 69.9382 209.194 70.1655 209.683C70.3956 210.171 70.7095 210.541 71.1073 210.791C71.505 211.041 71.9524 211.166 72.4496 211.166C72.7252 211.166 72.9865 211.129 73.2337 211.055C73.4837 210.978 73.7095 210.866 73.9112 210.718C74.113 210.57 74.2834 210.39 74.4226 210.177C74.5647 209.961 74.6627 209.714 74.7166 209.436L76.0462 209.44C75.9752 209.869 75.8374 210.264 75.6328 210.624C75.4311 210.982 75.1712 211.292 74.853 211.553C74.5377 211.812 74.1769 212.012 73.7706 212.154C73.3644 212.296 72.9212 212.367 72.4411 212.367C71.6854 212.367 71.0121 212.188 70.4212 211.83C69.8303 211.47 69.3644 210.954 69.0235 210.284C68.6854 209.613 68.5164 208.813 68.5164 207.884C68.5164 206.953 68.6868 206.153 69.0277 205.485C69.3686 204.815 69.8345 204.301 70.4255 203.943C71.0164 203.582 71.6882 203.401 72.4411 203.401C72.9041 203.401 73.336 203.468 73.7365 203.602C74.1399 203.732 74.5022 203.926 74.8232 204.181C75.1442 204.434 75.4098 204.744 75.6201 205.11C75.8303 205.474 75.9723 205.89 76.0462 206.359ZM77.6218 212.248V203.521H83.0934V204.654H78.9386V207.313H82.8079V208.443H78.9386V211.115H83.1446V212.248H77.6218ZM84.8523 212.248V203.521H87.9631C88.6421 203.521 89.2046 203.644 89.6506 203.892C90.0966 204.139 90.4304 204.477 90.652 204.906C90.8736 205.332 90.9844 205.812 90.9844 206.346C90.9844 206.883 90.8722 207.366 90.6478 207.795C90.4262 208.221 90.0909 208.559 89.6421 208.809C89.1961 209.056 88.635 209.18 87.9588 209.18H85.8196V208.063H87.8395C88.2685 208.063 88.6165 207.99 88.8836 207.842C89.1506 207.691 89.3466 207.487 89.4716 207.228C89.5966 206.97 89.6591 206.676 89.6591 206.346C89.6591 206.017 89.5966 205.724 89.4716 205.468C89.3466 205.213 89.1492 205.012 88.8793 204.867C88.6122 204.722 88.26 204.65 87.8225 204.65H86.1691V212.248H84.8523ZM92.5281 212.248V203.521H97.9997V204.654H93.8448V207.313H97.7142V208.443H93.8448V211.115H98.0508V212.248H92.5281ZM99.098 214.357V211.132H99.6733C99.8693 210.967 100.053 210.732 100.223 210.428C100.393 210.124 100.538 209.714 100.658 209.197C100.777 208.68 100.859 208.017 100.905 207.207L101.109 203.521H106.492V211.132H107.48V214.345H106.219V212.248H100.359V214.357H99.098ZM101.224 211.132H105.23V204.654H102.303L102.166 207.207C102.129 207.823 102.068 208.377 101.983 208.869C101.901 209.36 101.794 209.795 101.663 210.173C101.536 210.548 101.389 210.867 101.224 211.132ZM108.923 203.521H110.227V209.93H110.308L114.748 203.521H115.967V212.248H114.65V205.847H114.569L110.137 212.248H108.923V203.521ZM117.887 212.248V203.521H119.204V207.313H123.555V203.521H124.876V212.248H123.555V208.443H119.204V212.248H117.887ZM126.794 212.248V203.521H132.265V204.654H128.11V207.313H131.98V208.443H128.11V211.115H132.316V212.248H126.794Z" fill="#1D1D1F"/>
</svg>
