<svg width="240" height="240" viewBox="0 0 240 240" fill="none" xmlns="http://www.w3.org/2000/svg">
<path d="M168.571 169.715L121.143 150.572C120.286 150.286 119.714 150.286 118.857 150.572L71.4286 169.715V176L120 156.286L168.571 176V169.715Z" fill="#BCBCBC"/>
<path opacity="0.25" d="M120 77.1429C106.857 77.1429 95.7143 70.8571 94.8572 70.5714L74.2858 60.2857V174.286L96.2858 184.571C96.5715 184.857 108.571 191.429 120 191.429C132 191.429 144.286 184.571 144.286 184.571L165.714 174.286V60L144.286 70.5714C143.714 70.8571 132.857 77.1429 120 77.1429Z" fill="#0094DD"/>
<path d="M120 0L45.7142 30V171.714V178L55.1428 181.714C55.4285 181.714 55.9999 182 56.2857 182C56.5714 182 57.1428 182 57.4285 181.714L65.7142 178.286V172L57.1428 175.714V34.5714L117.143 10.2857V65.4286C118 65.4286 119.143 65.4286 120 65.4286C120.857 65.4286 122 65.4286 122.857 65.4286V10.2857L182.857 34.5714V175.714L174.286 172V178.286L182.571 181.714C182.857 181.714 183.429 182 183.714 182C184 182 184.571 182 184.857 181.714L194.286 177.714V172.857V30L120 0Z" fill="black"/>
<path d="M169.714 53.4304C168.857 52.859 167.714 52.859 166.857 53.1447L141.429 65.4304C141.429 65.4304 131.143 71.1447 120 71.1447C108.286 71.1447 98 65.4304 97.7143 65.1447L72.8571 53.1447C72 52.859 70.8571 52.859 70 53.4304C69.1428 53.7161 68.5714 54.859 68.5714 55.7161V176.002C68.5714 177.145 69.1428 178.002 70 178.573L93.7143 189.43C94.5714 190.002 107.429 196.859 120 196.859C133.429 196.859 146.286 189.716 146.571 189.43L169.143 178.573C170.286 178.002 171.429 177.145 171.429 176.002V56.0018C171.429 55.1447 170.571 54.0018 169.714 53.4304ZM91.4286 182.288L74.2857 174.288V60.2876L91.4286 68.859V182.288ZM97.1428 185.145V71.7161C101.143 73.7161 110 77.1447 120 77.1447C130.286 77.1447 139.429 73.1447 142.857 71.4304V185.43C139.429 187.145 129.429 191.43 120 191.43C110.286 191.43 100 186.573 97.1428 185.145ZM165.714 174.288L148.571 182.573V68.5733L165.714 60.0018V174.288Z" fill="black"/>
<path fill-rule="evenodd" clip-rule="evenodd" d="M51.7997 184.542L67.7996 177.542L68.2005 178.458L52.2005 185.458L51.7997 184.542Z" fill="#216FA8"/>
<path fill-rule="evenodd" clip-rule="evenodd" d="M188.19 184.538L171.19 177.538L170.81 178.462L187.81 185.462L188.19 184.538Z" fill="#216FA8"/>
<path fill-rule="evenodd" clip-rule="evenodd" d="M123.216 216.549L54.2157 183.549L53.7842 184.451L122.784 217.451L123.216 216.549Z" fill="#216FA8"/>
<path d="M186 184L118 217" stroke="#216FA8"/>
<path fill-rule="evenodd" clip-rule="evenodd" d="M55.8686 213L83.2701 200.545L83.6839 201.455L56.1839 213.955L56.0853 214H55.977H11V213H55.8686Z" fill="#216FA8"/>
<path d="M74.9999 202.229L86.0053 200.009L76.9196 206.845L74.9999 202.229Z" fill="#216FA8"/>
<path d="M21.2074 204.111H19.8778C19.8267 203.827 19.7315 203.577 19.5923 203.361C19.4531 203.145 19.2827 202.962 19.081 202.811C18.8793 202.661 18.6534 202.547 18.4034 202.47C18.1563 202.393 17.8935 202.355 17.6151 202.355C17.1122 202.355 16.6619 202.482 16.2642 202.734C15.8693 202.987 15.5568 203.358 15.3267 203.847C15.0994 204.335 14.9858 204.932 14.9858 205.636C14.9858 206.347 15.0994 206.946 15.3267 207.435C15.5568 207.923 15.8707 208.293 16.2685 208.543C16.6662 208.793 17.1136 208.918 17.6108 208.918C17.8864 208.918 18.1477 208.881 18.3949 208.807C18.6449 208.73 18.8707 208.618 19.0724 208.47C19.2741 208.322 19.4446 208.142 19.5838 207.929C19.7259 207.713 19.8239 207.466 19.8778 207.188L21.2074 207.192C21.1364 207.621 20.9986 208.016 20.794 208.376C20.5923 208.734 20.3324 209.044 20.0142 209.305C19.6989 209.564 19.3381 209.764 18.9318 209.906C18.5256 210.048 18.0824 210.119 17.6023 210.119C16.8466 210.119 16.1733 209.94 15.5824 209.582C14.9915 209.222 14.5256 208.706 14.1847 208.036C13.8466 207.365 13.6776 206.565 13.6776 205.636C13.6776 204.705 13.848 203.905 14.1889 203.237C14.5298 202.567 14.9957 202.053 15.5866 201.695C16.1776 201.334 16.8494 201.153 17.6023 201.153C18.0653 201.153 18.4972 201.22 18.8977 201.354C19.3011 201.484 19.6634 201.678 19.9844 201.933C20.3054 202.186 20.571 202.496 20.7812 202.862C20.9915 203.226 21.1335 203.642 21.2074 204.111ZM22.1225 210V208.858L22.3782 208.849C22.7248 208.841 22.9975 208.723 23.1964 208.496C23.3981 208.268 23.5444 207.902 23.6353 207.396C23.729 206.891 23.7915 206.216 23.8228 205.372L23.9719 201.273H29.4904V210H28.1907V202.389H25.212L25.0756 205.722C25.0387 206.656 24.945 207.442 24.7944 208.078C24.6438 208.712 24.3881 209.19 24.0273 209.514C23.6694 209.838 23.1594 210 22.4975 210H22.1225ZM31.408 210V201.273H36.8796V202.406H32.7248V205.065H36.5941V206.195H32.7248V208.866H36.9308V210H31.408ZM38.6385 210V201.273H41.8345C42.4538 201.273 42.9666 201.375 43.3729 201.58C43.7791 201.781 44.0831 202.055 44.2848 202.402C44.4865 202.746 44.5874 203.134 44.5874 203.565C44.5874 203.929 44.5206 204.236 44.3871 204.486C44.2536 204.733 44.0746 204.932 43.8501 205.082C43.6286 205.23 43.3842 205.338 43.1172 205.406V205.491C43.407 205.506 43.6896 205.599 43.9652 205.773C44.2436 205.943 44.4737 206.186 44.6555 206.501C44.8374 206.817 44.9283 207.2 44.9283 207.652C44.9283 208.098 44.8232 208.499 44.6129 208.854C44.4055 209.206 44.0845 209.486 43.6499 209.693C43.2152 209.898 42.6598 210 41.9837 210H38.6385ZM39.9553 208.871H41.8558C42.4865 208.871 42.9382 208.749 43.2109 208.504C43.4837 208.26 43.62 207.955 43.62 207.588C43.62 207.312 43.5504 207.06 43.4112 206.83C43.272 206.599 43.0732 206.416 42.8146 206.28C42.5589 206.143 42.255 206.075 41.9027 206.075H39.9553V208.871ZM39.9553 205.048H41.7195C42.0149 205.048 42.2805 204.991 42.5163 204.878C42.755 204.764 42.9439 204.605 43.0831 204.401C43.2251 204.193 43.2962 203.949 43.2962 203.668C43.2962 203.307 43.1697 203.004 42.9169 202.76C42.6641 202.516 42.2763 202.393 41.7536 202.393H39.9553V205.048ZM47.2273 210H45.8295L48.9702 201.273H50.4915L53.6321 210H52.2344L49.767 202.858H49.6989L47.2273 210ZM47.4616 206.582H51.9957V207.69H47.4616V206.582Z" fill="#1D1D1F"/>
<path fill-rule="evenodd" clip-rule="evenodd" d="M185.105 213L157.703 200.545L157.289 201.455L184.789 213.955L184.888 214H184.996H236V213H185.105Z" fill="#216FA8"/>
<path d="M166.09 202.229L155.084 200.009L164.17 206.845L166.09 202.229Z" fill="#216FA8"/>
<path d="M191.207 204.111H189.878C189.827 203.827 189.732 203.577 189.592 203.361C189.453 203.145 189.283 202.962 189.081 202.811C188.879 202.661 188.653 202.547 188.403 202.47C188.156 202.393 187.893 202.355 187.615 202.355C187.112 202.355 186.662 202.482 186.264 202.734C185.869 202.987 185.557 203.358 185.327 203.847C185.099 204.335 184.986 204.932 184.986 205.636C184.986 206.347 185.099 206.946 185.327 207.435C185.557 207.923 185.871 208.293 186.268 208.543C186.666 208.793 187.114 208.918 187.611 208.918C187.886 208.918 188.148 208.881 188.395 208.807C188.645 208.73 188.871 208.618 189.072 208.47C189.274 208.322 189.445 208.142 189.584 207.929C189.726 207.713 189.824 207.466 189.878 207.188L191.207 207.192C191.136 207.621 190.999 208.016 190.794 208.376C190.592 208.734 190.332 209.044 190.014 209.305C189.699 209.564 189.338 209.764 188.932 209.906C188.526 210.048 188.082 210.119 187.602 210.119C186.847 210.119 186.173 209.94 185.582 209.582C184.991 209.222 184.526 208.706 184.185 208.036C183.847 207.365 183.678 206.565 183.678 205.636C183.678 204.705 183.848 203.905 184.189 203.237C184.53 202.567 184.996 202.053 185.587 201.695C186.178 201.334 186.849 201.153 187.602 201.153C188.065 201.153 188.497 201.22 188.898 201.354C189.301 201.484 189.663 201.678 189.984 201.933C190.305 202.186 190.571 202.496 190.781 202.862C190.991 203.226 191.134 203.642 191.207 204.111ZM199.605 201.273V210H198.293V202.398H194.185V210H192.873V201.273H199.605ZM201.619 210V201.273H204.73C205.409 201.273 205.971 201.396 206.417 201.643C206.863 201.891 207.197 202.229 207.419 202.658C207.64 203.084 207.751 203.564 207.751 204.098C207.751 204.635 207.639 205.118 207.414 205.547C207.193 205.973 206.858 206.311 206.409 206.561C205.963 206.808 205.402 206.932 204.725 206.932H202.586V205.815H204.606C205.035 205.815 205.383 205.741 205.65 205.594C205.917 205.443 206.113 205.239 206.238 204.98C206.363 204.722 206.426 204.428 206.426 204.098C206.426 203.768 206.363 203.476 206.238 203.22C206.113 202.964 205.916 202.764 205.646 202.619C205.379 202.474 205.027 202.402 204.589 202.402H202.936V210H201.619ZM209.106 210H207.708L210.849 201.273H212.37L215.511 210H214.113L211.646 202.858H211.578L209.106 210ZM209.341 206.582H213.875V207.69H209.341V206.582ZM216.771 210V201.273H219.967C220.587 201.273 221.099 201.375 221.506 201.58C221.912 201.781 222.216 202.055 222.418 202.402C222.619 202.746 222.72 203.134 222.72 203.565C222.72 203.929 222.653 204.236 222.52 204.486C222.386 204.733 222.207 204.932 221.983 205.082C221.761 205.23 221.517 205.338 221.25 205.406V205.491C221.54 205.506 221.822 205.599 222.098 205.773C222.376 205.943 222.607 206.186 222.788 206.501C222.97 206.817 223.061 207.2 223.061 207.652C223.061 208.098 222.956 208.499 222.746 208.854C222.538 209.206 222.217 209.486 221.783 209.693C221.348 209.898 220.793 210 220.116 210H216.771ZM218.088 208.871H219.989C220.619 208.871 221.071 208.749 221.344 208.504C221.616 208.26 221.753 207.955 221.753 207.588C221.753 207.312 221.683 207.06 221.544 206.83C221.405 206.599 221.206 206.416 220.947 206.28C220.692 206.143 220.388 206.075 220.036 206.075H218.088V208.871ZM218.088 205.048H219.852C220.148 205.048 220.413 204.991 220.649 204.878C220.888 204.764 221.077 204.605 221.216 204.401C221.358 204.193 221.429 203.949 221.429 203.668C221.429 203.307 221.303 203.004 221.05 202.76C220.797 202.516 220.409 202.393 219.886 202.393H218.088V205.048ZM225.36 210H223.962L227.103 201.273H228.624L231.765 210H230.367L227.9 202.858H227.832L225.36 210ZM225.594 206.582H230.129V207.69H225.594V206.582Z" fill="#1D1D1F"/>
</svg>
