<svg width="240" height="240" viewBox="0 0 240 240" fill="none" xmlns="http://www.w3.org/2000/svg">
<path d="M174.571 140L179.429 135.714L102 104.857C101.429 104.571 100.571 104.571 100 104.857L60.5714 120.857L62.8572 126.285L101.143 110.857L174.571 140Z" fill="#BCBCBC"/>
<path opacity="0.25" d="M180 64.2838L137.429 81.1409L60.5714 51.998V124.569L136.857 154.855L180 137.427V64.2838Z" fill="#0094DD"/>
<path d="M58 48.2866C58.8572 47.7152 60 47.4295 60.8572 48.0009L136.571 78.2866L179.143 61.1438C180 60.8581 180.857 60.8581 181.714 61.4295C182.571 62.0009 182.857 62.5724 182.857 64.0009V179.43C182.857 180.572 182 181.715 181.143 182.287L138.571 199.715C138.286 199.715 137.714 200.001 137.143 200.001C136.857 200.001 136 200.001 135.714 199.715L58.8572 169.144C57.7143 168.572 57.1429 167.43 57.1429 166.572V50.8581C57.1429 49.7152 57.4286 48.8581 58 48.2866ZM177.143 68.5724L140 83.4295V192.572L177.143 177.715V68.5724ZM62.8572 164.287L134.286 192.858V83.4295L62.8572 55.1438V164.287Z" fill="black"/>
<path d="M99.9999 0L205.714 41.4286V180.571L195.429 184.571C195.143 184.857 194.571 184.857 194.286 184.857C194 184.857 193.429 184.857 193.143 184.571L185.714 181.143V174.857L194.286 178.571V46.2857L102.857 9.71429V58.2857L97.1428 56V9.71429L45.7142 30.5714V165.429L54.2857 161.429V167.714L46.8571 171.143C46.5714 171.143 45.9999 171.429 45.7142 171.429C45.4285 171.429 45.1428 171.429 44.5714 171.143L34.2857 166.857V26.5714L99.9999 0Z" fill="black"/>
<path d="M137.429 157.431C137.714 157.431 138.286 157.431 138.571 157.145L178 141.145L178.571 134.574L137.429 151.431L60.5714 120.859L62 127.717L136.571 157.145C136.857 157.431 137.143 157.431 137.429 157.431Z" fill="black"/>
<path fill-rule="evenodd" clip-rule="evenodd" d="M182.608 201L163.809 192.518L163.398 193.429L182.294 201.955L182.392 202H182.5H240V201H182.608Z" fill="#216FA8"/>
<path d="M170.1 193.111L159.095 190.892L168.18 197.728L170.1 193.111Z" fill="#216FA8"/>
<path d="M184.074 189.272H185.378V196.857H188.259V189.272H189.562V196.857H192.435V189.272H193.734V197.999H184.074V189.272ZM195.771 189.272H197.075V195.681H197.156L201.597 189.272H202.815V197.999H201.499V191.598H201.418L196.986 197.999H195.771V189.272ZM204.736 197.999V189.272H207.847C208.526 189.272 209.088 189.395 209.534 189.642C209.98 189.89 210.314 190.228 210.536 190.657C210.757 191.083 210.868 191.563 210.868 192.097C210.868 192.634 210.756 193.117 210.532 193.546C210.31 193.972 209.975 194.31 209.526 194.56C209.08 194.807 208.519 194.931 207.843 194.931H205.703V193.814H207.723C208.152 193.814 208.5 193.741 208.767 193.593C209.034 193.442 209.23 193.238 209.355 192.979C209.48 192.721 209.543 192.427 209.543 192.097C209.543 191.767 209.48 191.475 209.355 191.219C209.23 190.964 209.033 190.763 208.763 190.618C208.496 190.473 208.144 190.401 207.706 190.401H206.053V197.999H204.736ZM212.412 189.272H213.716V195.681H213.797L218.237 189.272H219.456V197.999H218.139V191.598H218.058L213.626 197.999H212.412V189.272ZM221.377 197.999V189.272H222.694V193.064H227.044V189.272H228.365V197.999H227.044V194.194H222.694V197.999H221.377ZM231.02 197.999H229.623L232.763 189.272H234.284L237.425 197.999H236.027L233.56 190.857H233.492L231.02 197.999ZM231.255 194.581H235.789V195.689H231.255V194.581Z" fill="#1D1D1F"/>
<path fill-rule="evenodd" clip-rule="evenodd" d="M95.1554 183.393L84.1501 185.612L84.8967 187.408L55.8888 201H6.00012V202H56.0001H56.1115L56.2123 201.952L85.281 188.332L86.0697 190.229L95.1554 183.393Z" fill="#216FA8"/>
<path d="M8.29842 200.109V196.884H8.8737C9.06972 196.719 9.25296 196.484 9.42342 196.18C9.59387 195.876 9.73876 195.466 9.85808 194.949C9.97739 194.432 10.0598 193.768 10.1052 192.959L10.3098 189.273H15.6919V196.884H16.6805V200.097H15.4192V198H9.55978V200.109H8.29842ZM10.4248 196.884H14.4305V190.406H11.503L11.3666 192.959C11.3297 193.575 11.2686 194.129 11.1834 194.621C11.101 195.112 10.9944 195.547 10.8638 195.925C10.7359 196.3 10.5896 196.619 10.4248 196.884ZM17.4625 198V196.858L17.7182 196.849C18.0648 196.841 18.3375 196.723 18.5363 196.496C18.738 196.268 18.8844 195.902 18.9753 195.396C19.069 194.891 19.1315 194.216 19.1628 193.372L19.3119 189.273H24.8304V198H23.5307V190.389H20.552L20.4156 193.722C20.3787 194.656 20.2849 195.442 20.1344 196.078C19.9838 196.712 19.7281 197.19 19.3673 197.514C19.0094 197.838 18.4994 198 17.8375 198H17.4625ZM26.748 189.273H28.052V195.682H28.1329L32.5733 189.273H33.792V198H32.4753V191.599H32.3943L27.9625 198H26.748V189.273ZM35.7128 198V189.273H37.0296V193.065H41.3804V189.273H42.7015V198H41.3804V194.195H37.0296V198H35.7128ZM45.3563 198H43.9586L47.0992 189.273H48.6205L51.7611 198H50.3634L47.8961 190.858H47.8279L45.3563 198ZM45.5907 194.582H50.1248V195.69H45.5907V194.582Z" fill="#1D1D1F"/>
</svg>
