<svg width="240" height="240" viewBox="0 0 240 240" fill="none" xmlns="http://www.w3.org/2000/svg">
<path d="M149 106.017L185.571 120.857L183.286 126.286L145 110.857L71.5713 140L66.7141 135.714L143.286 105.199V67.2686H149V106.017Z" fill="#BCBCBC"/>
<path opacity="0.25" d="M66.1428 64.2833L108.714 81.1404L185.571 51.9976V124.569L109.286 154.855L66.1428 137.426V64.2833Z" fill="#0094DD"/>
<path opacity="0.25" d="M146.338 66.1686V35.8345L185.364 50.6317L146.338 66.1686Z" fill="#008BD2" stroke="#0094DD"/>
<path d="M188.143 48.2871C187.286 47.7157 186.143 47.43 185.286 48.0014L109.571 78.2871L67.0001 61.1443C66.1429 60.8586 65.2858 60.8586 64.4286 61.43C63.5715 62.0014 63.2858 62.5728 63.2858 64.0014V179.43C63.2858 180.573 64.1429 181.716 65.0001 182.287L107.571 199.716C107.857 199.716 108.429 200.001 109 200.001C109.286 200.001 110.143 200.001 110.429 199.716L187.286 169.144C188.429 168.573 189 167.43 189 166.573V50.8586C189 49.7157 188.714 48.8586 188.143 48.2871ZM69.0001 68.5728L106.143 83.43V192.573L69.0001 177.716V68.5728ZM183.286 164.287L111.857 192.859V83.43L183.286 55.1443V164.287Z" fill="black"/>
<path d="M108.714 157.431C108.429 157.431 107.857 157.431 107.571 157.145L68.1428 141.145L67.5714 134.574L108.714 151.431L185.571 120.859L184.143 127.717L109.571 157.145C109.286 157.431 109 157.431 108.714 157.431Z" fill="black"/>
<path d="M149 39.7144V65.3731L143.286 67.3731V35.143C143.286 33.7144 143.857 33.143 144.429 32.5715C145.286 32.0001 146.143 32.0001 147 32.2858L187.213 47.8335V50.9763L182.641 52.6906L149 39.7144Z" fill="black"/>
<path d="M163.286 3.93911L153.286 0L40.4286 41.4055L40.4286 180.636L50.1429 184.575C50.2858 184.575 50.5001 184.646 50.7143 184.716C50.9286 184.787 51.1429 184.857 51.2858 184.857C51.5715 184.857 52.1429 184.857 52.4286 184.575L54.4286 183.731V183.449L60.4286 180.917V174.727L51.2857 178.384L51.2857 45.9085L157.571 7.03413V29.262L163.286 31.5129V3.93911Z" fill="black"/>
<path fill-rule="evenodd" clip-rule="evenodd" d="M63.3924 201L82.1908 192.518L82.6021 193.429L63.7056 201.955L63.6076 202H63.5H6V201H63.3924Z" fill="#216FA8"/>
<path d="M75.8998 193.111L86.9052 190.892L77.8195 197.728L75.8998 193.111Z" fill="#216FA8"/>
<path d="M9.07386 189.272H10.3778V196.857H13.2585V189.272H14.5625V196.857H17.4347V189.272H18.7344V197.999H9.07386V189.272ZM20.7713 189.272H22.0753V195.681H22.1562L26.5966 189.272H27.8153V197.999H26.4986V191.598H26.4176L21.9858 197.999H20.7713V189.272ZM29.7362 197.999V189.272H32.8469C33.5259 189.272 34.0884 189.395 34.5344 189.642C34.9805 189.89 35.3143 190.228 35.5359 190.657C35.7575 191.083 35.8683 191.563 35.8683 192.097C35.8683 192.634 35.756 193.117 35.5316 193.546C35.31 193.972 34.9748 194.31 34.5259 194.56C34.0799 194.807 33.5188 194.931 32.8427 194.931H30.7035V193.814H32.7234C33.1523 193.814 33.5004 193.741 33.7674 193.593C34.0344 193.442 34.2305 193.238 34.3555 192.979C34.4805 192.721 34.543 192.427 34.543 192.097C34.543 191.767 34.4805 191.475 34.3555 191.219C34.2305 190.964 34.033 190.763 33.7631 190.618C33.4961 190.473 33.1438 190.401 32.7063 190.401H31.0529V197.999H29.7362ZM37.4119 189.272H38.7159V195.681H38.7969L43.2372 189.272H44.456V197.999H43.1392V191.598H43.0582L38.6264 197.999H37.4119V189.272ZM46.3768 197.999V189.272H47.6935V193.064H52.0444V189.272H53.3654V197.999H52.0444V194.194H47.6935V197.999H46.3768ZM56.0202 197.999H54.6225L57.7631 189.272H59.2844L62.4251 197.999H61.0273L58.56 190.857H58.4918L56.0202 197.999ZM56.2546 194.581H60.7887V195.689H56.2546V194.581Z" fill="#1D1D1F"/>
<path fill-rule="evenodd" clip-rule="evenodd" d="M150.845 183.393L161.85 185.612L161.103 187.408L190.111 201H240V202H190H189.889L189.788 201.952L160.719 188.332L159.93 190.229L150.845 183.393Z" fill="#216FA8"/>
<path d="M193.298 200.109V196.884H193.873C194.069 196.719 194.253 196.484 194.423 196.18C194.594 195.876 194.739 195.466 194.858 194.949C194.977 194.432 195.06 193.768 195.105 192.959L195.31 189.273H200.692V196.884H201.68V200.097H200.419V198H194.56V200.109H193.298ZM195.425 196.884H199.43V190.406H196.503L196.366 192.959C196.329 193.575 196.268 194.129 196.183 194.621C196.101 195.112 195.994 195.547 195.864 195.925C195.736 196.3 195.589 196.619 195.425 196.884ZM202.462 198V196.858L202.718 196.849C203.065 196.841 203.337 196.723 203.536 196.496C203.738 196.268 203.884 195.902 203.975 195.396C204.069 194.891 204.131 194.216 204.163 193.372L204.312 189.273H209.83V198H208.53V190.389H205.552L205.415 193.722C205.378 194.656 205.285 195.442 205.134 196.078C204.984 196.712 204.728 197.19 204.367 197.514C204.009 197.838 203.499 198 202.837 198H202.462ZM211.748 189.273H213.052V195.682H213.133L217.573 189.273H218.792V198H217.475V191.599H217.394L212.962 198H211.748V189.273ZM220.713 198V189.273H222.029V193.065H226.38V189.273H227.701V198H226.38V194.195H222.029V198H220.713ZM230.356 198H228.958L232.099 189.273H233.62L236.761 198H235.363L232.896 190.858H232.828L230.356 198ZM230.59 194.582H235.125V195.69H230.59V194.582Z" fill="#1D1D1F"/>
</svg>
