<?xml version="1.0" encoding="utf-8"?>
<!-- Generator: Adobe Illustrator 21.0.0, SVG Export Plug-In . SVG Version: 6.00 Build 0)  -->
<svg version="1.1" id="Layer_1" xmlns="http://www.w3.org/2000/svg" xmlns:xlink="http://www.w3.org/1999/xlink" x="0px" y="0px"
	 viewBox="0 0 70 70" style="enable-background:new 0 0 70 70;" xml:space="preserve">
<style type="text/css">
	.st0{fill:#BCBCBC;}
	.st1{opacity:0.25;fill:#0094DD;enable-background:new    ;}
</style>
<g>
	<path class="st0" d="M28.9,41.2l-1.7-1.5l14.1-5.6c0.2-0.1,0.5-0.1,0.7,0l13.8,5.6L55,41.7l-13.4-5.4L28.9,41.2z"/>
</g>
<polygon class="st1" points="28.9,27.4 55.8,17.2 55.8,41 29.1,51.7 "/>
<path d="M42,0L5,14.5v0v0.1v5.9v41.2v0l20.1,7.9l0.6,0.3C25.8,70,26,70,26.1,70c0.1,0,0.3,0,0.4-0.1l3.5-1.4V21.6l-17.4-6.9L41,3.4
	v16l2-0.8V3.4l18,7.3v45.4l-3-1.4v2.2l2.6,1.2c0.1,0,0.3,0.1,0.4,0.1s0.2,0,0.4-0.1l3.6-1.5V9.3L42,0z M26,67.7l-1.1-0.4l0,0L7,60.3
	V20.6v-5l19,7.5L26,67.7z"/>
<path d="M56.7,15.9c-0.3-0.2-0.7-0.3-1-0.1L29.2,26.3v24L29,50.4v2.1c0.1,0,0.1,0,0.2-0.1l0,0v15c0.1,0,0.2,0,0.2-0.1l26.9-10.7
	c0.4-0.2,0.6-0.6,0.6-0.9v-39C57,16.4,56.9,16.1,56.7,15.9z M55,18.3v21.8l-14,5.6V23.8L55,18.3z M30,28.2l9-3.6v21.8L30,50V28.2z
	 M30,65V52.1l25-9.9V55L30,65z"/>
</svg>
