<svg width="240" height="240" viewBox="0 0 240 240" fill="none" xmlns="http://www.w3.org/2000/svg">
<path d="M65.4286 140L60.5714 135.714L138 104.857C138.571 104.571 139.429 104.571 140 104.857L179.429 120.857L177.143 126.285L138.857 110.857L65.4286 140Z" fill="#BCBCBC"/>
<path opacity="0.25" d="M60 64.2838L102.571 81.1409L179.429 51.998V124.569L103.143 154.855L60 137.427V64.2838Z" fill="#0094DD"/>
<path d="M182 48.2866C181.143 47.7152 180 47.4295 179.143 48.0009L103.429 78.2866L60.8571 61.1438C60 60.8581 59.1428 60.8581 58.2857 61.4295C57.4285 62.0009 57.1428 62.5724 57.1428 64.0009V179.43C57.1428 180.572 58 181.715 58.8571 182.287L101.429 199.715C101.714 199.715 102.286 200.001 102.857 200.001C103.143 200.001 104 200.001 104.286 199.715L181.143 169.144C182.286 168.572 182.857 167.43 182.857 166.572V50.8581C182.857 49.7152 182.571 48.8581 182 48.2866ZM62.8571 68.5724L100 83.4295V192.572L62.8571 177.715V68.5724ZM177.143 164.287L105.714 192.858V83.4295L177.143 55.1438V164.287Z" fill="black"/>
<path d="M140 0L34.2858 41.4286V180.571L44.5715 184.571C44.8572 184.857 45.4286 184.857 45.7143 184.857C46.0001 184.857 46.5715 184.857 46.8572 184.571L54.2858 181.143V174.857L45.7143 178.571V46.2857L137.143 9.71429V58.2857L142.857 56V9.71429L194.286 30.5714V165.429L185.714 161.429V167.714L193.143 171.143C193.429 171.143 194 171.429 194.286 171.429C194.571 171.429 194.857 171.429 195.429 171.143L205.714 166.857V26.5714L140 0Z" fill="black"/>
<path d="M102.571 157.431C102.286 157.431 101.714 157.431 101.429 157.145L62 141.145L61.4286 134.574L102.571 151.431L179.429 120.859L178 127.717L103.429 157.145C103.143 157.431 102.857 157.431 102.571 157.431Z" fill="black"/>
<path fill-rule="evenodd" clip-rule="evenodd" d="M57.3924 201L76.1908 192.518L76.6021 193.429L57.7056 201.955L57.6076 202H57.5H0V201H57.3924Z" fill="#216FA8"/>
<path d="M69.8998 193.111L80.9052 190.892L71.8195 197.728L69.8998 193.111Z" fill="#216FA8"/>
<path d="M3.07386 189.273H4.37784V196.858H7.25852V189.273H8.5625V196.858H11.4347V189.273H12.7344V198H3.07386V189.273ZM14.7713 189.273H16.0753V195.682H16.1562L20.5966 189.273H21.8153V198H20.4986V191.599H20.4176L15.9858 198H14.7713V189.273ZM23.7362 198V189.273H26.8469C27.5259 189.273 28.0884 189.396 28.5344 189.643C28.9805 189.891 29.3143 190.229 29.5359 190.658C29.7575 191.084 29.8683 191.564 29.8683 192.098C29.8683 192.635 29.756 193.118 29.5316 193.547C29.31 193.973 28.9748 194.311 28.5259 194.561C28.0799 194.808 27.5188 194.932 26.8427 194.932H24.7035V193.815H26.7234C27.1523 193.815 27.5004 193.741 27.7674 193.594C28.0344 193.443 28.2305 193.239 28.3555 192.98C28.4805 192.722 28.543 192.428 28.543 192.098C28.543 191.768 28.4805 191.476 28.3555 191.22C28.2305 190.964 28.033 190.764 27.7631 190.619C27.4961 190.474 27.1438 190.402 26.7063 190.402H25.0529V198H23.7362ZM31.4119 189.273H32.7159V195.682H32.7969L37.2372 189.273H38.456V198H37.1392V191.599H37.0582L32.6264 198H31.4119V189.273ZM40.3768 198V189.273H41.6935V193.065H46.0444V189.273H47.3654V198H46.0444V194.195H41.6935V198H40.3768ZM50.0202 198H48.6225L51.7631 189.273H53.2844L56.4251 198H55.0273L52.56 190.858H52.4918L50.0202 198ZM50.2546 194.582H54.7887V195.69H50.2546V194.582Z" fill="#1D1D1F"/>
<path fill-rule="evenodd" clip-rule="evenodd" d="M144.845 183.393L155.85 185.612L155.103 187.408L184.111 200.999H234V201.999H184H183.889L183.788 201.952L154.719 188.332L153.93 190.229L144.845 183.393Z" fill="#216FA8"/>
<path d="M187.298 200.109V196.884H187.873C188.069 196.719 188.253 196.484 188.423 196.18C188.594 195.876 188.739 195.466 188.858 194.949C188.977 194.432 189.06 193.768 189.105 192.959L189.31 189.273H194.692V196.884H195.68V200.097H194.419V198H188.56V200.109H187.298ZM189.425 196.884H193.43V190.406H190.503L190.366 192.959C190.329 193.575 190.268 194.129 190.183 194.621C190.101 195.112 189.994 195.547 189.864 195.925C189.736 196.3 189.589 196.619 189.425 196.884ZM196.462 198V196.858L196.718 196.849C197.065 196.841 197.337 196.723 197.536 196.496C197.738 196.268 197.884 195.902 197.975 195.396C198.069 194.891 198.131 194.216 198.163 193.372L198.312 189.273H203.83V198H202.53V190.389H199.552L199.415 193.722C199.378 194.656 199.285 195.442 199.134 196.078C198.984 196.712 198.728 197.19 198.367 197.514C198.009 197.838 197.499 198 196.837 198H196.462ZM205.748 189.273H207.052V195.682H207.133L211.573 189.273H212.792V198H211.475V191.599H211.394L206.962 198H205.748V189.273ZM214.713 198V189.273H216.029V193.065H220.38V189.273H221.701V198H220.38V194.195H216.029V198H214.713ZM224.356 198H222.958L226.099 189.273H227.62L230.761 198H229.363L226.896 190.858H226.828L224.356 198ZM224.59 194.582H229.125V195.69H224.59V194.582Z" fill="#1D1D1F"/>
</svg>
