<?xml version="1.0" encoding="utf-8"?>
<!-- Generator: Adobe Illustrator 21.0.0, SVG Export Plug-In . SVG Version: 6.00 Build 0)  -->
<svg version="1.1" id="Layer_1" xmlns="http://www.w3.org/2000/svg" xmlns:xlink="http://www.w3.org/1999/xlink" x="0px" y="0px"
	 viewBox="0 0 70 70" style="enable-background:new 0 0 70 70;" xml:space="preserve">
<style type="text/css">
	.st0{fill:#BCBCBC;}
	.st1{opacity:0.25;fill:#0094DD;enable-background:new    ;}
</style>
<g>
	<path class="st0" d="M15.9,49l-1.7-1.5l27.1-10.8c0.2-0.1,0.5-0.1,0.7,0l13.8,5.6L55,44.2l-13.4-5.4L15.9,49z"/>
</g>
<polygon class="st1" points="14,22.5 28.9,28.4 55.8,18.2 55.8,43.6 29.1,54.2 14,48.1 "/>
<path d="M56.7,16.9c-0.3-0.2-0.7-0.3-1-0.1L29.2,27.4l-14.9-6c-0.3-0.1-0.6-0.1-0.9,0.1c-0.3,0.2-0.4,0.4-0.4,0.9v40.4
	c0,0.4,0.3,0.8,0.6,1l14.9,6.1c0.1,0,0.3,0.1,0.5,0.1c0.1,0,0.4,0,0.5-0.1l26.9-10.7c0.4-0.2,0.6-0.6,0.6-0.9V17.8
	C57,17.4,56.9,17.1,56.7,16.9z M15,24l13,5.2v38.2l-13-5.2V24z M55,57.5l-25,10V29.2l25-9.9V57.5z"/>
<path d="M42,0L5,14.5v48.7l3.6,1.4c0.1,0.1,0.3,0.1,0.4,0.1s0.3,0,0.4-0.1l2.6-1.2v-2.2l-3,1.3V16.2L41,3.4v17l2-0.8V3.4l18,7.3
	v47.2l-3-1.4v2.2l2.6,1.2c0.1,0,0.3,0.1,0.4,0.1s0.2,0,0.4-0.1l3.6-1.5V9.3L42,0z"/>
<g>
	<path d="M28.9,55.1c-0.1,0-0.3,0-0.4-0.1l-13.8-5.6l-0.2-2.3L28.9,53l26.9-10.7l-0.5,2.4L29.2,55C29.1,55.1,29,55.1,28.9,55.1z"/>
</g>
</svg>
