<svg width="70" height="70" viewBox="0 0 70 70" fill="none" xmlns="http://www.w3.org/2000/svg">
<path d="M52 49.4L35.4 42.7C35.1 42.6 34.9 42.6 34.6 42.7L18 49.4V51.6L35 44.7L52 51.6V49.4Z" fill="#BCBCBC"/>
<path opacity="0.25" d="M44 20.5992L26 20.6992C25.9 20.6992 25.7 20.6992 25.6 20.5992L19 18.0992V58.2992L26.2 62.0992H43.7L51.2 58.0992L51.3 17.6992L44.2 20.5992C44.3 20.5992 44.1 20.5992 44 20.5992Z" fill="#0094DD"/>
<path d="M61 61.5V10.5L35 0L9 10.5V61.1V63.3L12.3 64.6C12.4 64.6 12.6 64.7 12.7 64.7C12.8 64.7 13 64.7 13.1 64.6L16 63.4V61.2L13 62.5V12.1L34 3.6V18H36V3.6L57 12.1V62.5L54 61.2V63.4L56.9 64.6C57 64.6 57.2 64.7 57.3 64.7C57.4 64.7 57.6 64.7 57.7 64.6L61 63.2V61.5Z" fill="black"/>
<path d="M52.5 16.1408C52.3 15.9408 51.9 15.9408 51.6 16.0408L45.8 20.1007H24.2L18.4 16.0408C18.1 15.9408 17.8 15.9408 17.5 16.1408C17.2 16.2408 17 16.6408 17 16.9408V62.8002C17 63.2002 17.2 63.5002 17.5 63.7002L23.5 67.9002C23.7 68.0002 23.8 68.0002 24 68.0002H46C46.2 68.0002 46.3 68.0002 46.5 68.0002L52.5 63.8002C52.8 63.6002 53 63.3002 53 62.9002V16.9408C53 16.6408 52.8 16.3408 52.5 16.1408ZM25 22.0007H45V66.0002H25V22.0007ZM19 19L23 22V65L19 62.2002V19ZM51 62.1002L47 65V22L51 19V62.1002Z" fill="black"/>
<path d="M52.5 49.1408C52.3 48.9408 51.9 48.9408 51.6 49.0408L45.8 53.1007H24.2L18.4 49.0408C18.1 48.9408 17.8 48.9408 17.5 49.1408C17.2 49.2408 17 49.6408 17 49.9408V62.8002C17 63.2002 17.2 63.5002 17.5 63.7002L23.5 67.9002C23.7 68.0002 23.8 68.0002 24 68.0002H46C46.2 68.0002 46.3 68.0002 46.5 68.0002L52.5 63.8002C52.8 63.6002 53 63.3002 53 62.9002V49.9408C53 49.6408 52.8 49.3408 52.5 49.1408ZM25 55.0007H45V66.0002H25V55.0007ZM19 52L23 54.7647V65L19 62.2002V52ZM51 62.1002L47 65V54.8011L51 52V62.1002Z" fill="black"/>
<path d="M19 52L23 54.7647V65L19 62.2002V52Z" fill="white"/>
<path d="M25 55.0007H45V66.0002H25V55.0007Z" fill="white"/>
<path d="M51 62.1002L47 65V54.8011L51 52V62.1002Z" fill="white"/>
<rect x="34" y="21" width="2" height="33" fill="black"/>
</svg>
