<svg width="240" height="240" viewBox="0 0 240 240" fill="none" xmlns="http://www.w3.org/2000/svg">
<path d="M194.286 172.857V30L120 0L45.7142 30V171.714V178L55.1428 181.714C55.4285 181.714 55.9999 182 56.2857 182C56.5714 182 57.1428 182 57.4285 181.714L65.7142 178.286V172L57.1428 175.714V34.5714L117.143 10.2857V54H122.857V10.2857L182.857 34.5714V175.714L174.286 172V178.286L182.571 181.714C182.857 181.714 183.429 182 183.714 182C184 182 184.571 182 184.857 181.714L194.286 177.714V172.857Z" fill="black"/>
<path d="M168 139.117L121.129 121.201C120.282 120.933 119.718 120.933 118.871 121.201L72 139.117V145L120 126.549L168 145V139.117Z" fill="#BCBCBC"/>
<path opacity="0.25" d="M145.207 58.8378L93.9381 59.1081C87.4936 59.1081 77.9579 52.5317 72 50V139.5L89 150.5H150.5L168.5 138.5V48.5C159.261 52.7033 148.398 58.8378 145.207 58.8378Z" fill="#0094DD"/>
<path d="M169.583 46.4421C169.017 45.9084 167.883 45.9084 167.033 46.1753L149.933 57.2467H90.0667L72.9667 46.1753C72.1167 45.9084 71.2667 45.9084 70.4167 46.4421C69.5667 46.7089 69 47.7761 69 48.5765V177.126C69 178.193 69.5667 178.994 70.4167 179.527L88.0833 190.733C88.65 191 88.9333 191 89.5 191H150.5C151.067 191 151.35 191 151.917 191L169.583 179.794C170.433 179.26 171 178.46 171 177.393V48.5765C171 47.7761 170.433 46.9757 169.583 46.4421ZM92.3333 62.3161H147.667V185.664H92.3333V62.3161ZM74.6667 53.322L86.6667 61.2489V183.796L74.6667 176.029V53.322ZM165.333 176.006L153.333 183.796V61.2489L165.333 53.2403V176.006Z" fill="black"/>
<path d="M169.583 137.442C169.017 136.908 167.883 136.908 167.033 137.175L149.933 148.247H90.0667L72.9667 137.175C72.1167 136.908 71.2667 136.908 70.4167 137.442C69.5667 137.709 69 138.776 69 139.577V177.126C69 178.193 69.5667 178.994 70.4167 179.527L88.0833 190.733C88.65 191 88.9333 191 89.5 191H150.5C151.067 191 151.35 191 151.917 191L169.583 179.794C170.433 179.26 171 178.46 171 177.393V139.577C171 138.776 170.433 137.976 169.583 137.442ZM92.3333 153.316H147.667V185.664H92.3333V153.316ZM74.6667 144.322L86.6667 152.249V183.796L74.6667 176.029V144.322ZM165.333 176.006L153.333 183.796V152.249L165.333 144.24V176.006Z" fill="black"/>
<path d="M74.6667 144.322L86.6667 152.249V183.796L74.6667 176.029V144.322Z" fill="white"/>
<path d="M92.3333 153.316H147.667V185.664H92.3333V153.316Z" fill="white"/>
<path d="M165.333 176.006L153.333 183.796V152.249L165.333 144.24V176.006Z" fill="white"/>
<path d="M73.2061 189.456L52.2109 198.975L52.1123 199.02H7.02734V198.02H51.8945L72.7939 188.545L73.2061 189.456Z" fill="#216FA8"/>
<path d="M69.4947 187.883L80.5 185.664L71.4143 192.5L69.4947 187.883Z" fill="#216FA8"/>
<path d="M17.7117 189.131H16.3821C16.331 188.847 16.2358 188.597 16.0966 188.381C15.9574 188.165 15.7869 187.982 15.5852 187.831C15.3835 187.681 15.1577 187.567 14.9077 187.49C14.6605 187.413 14.3977 187.375 14.1193 187.375C13.6165 187.375 13.1662 187.502 12.7685 187.754C12.3736 188.007 12.0611 188.378 11.831 188.867C11.6037 189.355 11.4901 189.952 11.4901 190.656C11.4901 191.367 11.6037 191.966 11.831 192.455C12.0611 192.943 12.375 193.313 12.7727 193.563C13.1705 193.813 13.6179 193.938 14.1151 193.938C14.3906 193.938 14.652 193.901 14.8992 193.827C15.1492 193.75 15.375 193.638 15.5767 193.49C15.7784 193.342 15.9489 193.162 16.0881 192.949C16.2301 192.733 16.3281 192.486 16.3821 192.208L17.7117 192.212C17.6406 192.641 17.5029 193.036 17.2983 193.396C17.0966 193.754 16.8367 194.064 16.5185 194.325C16.2031 194.584 15.8423 194.784 15.4361 194.926C15.0298 195.068 14.5867 195.139 14.1065 195.139C13.3509 195.139 12.6776 194.96 12.0867 194.602C11.4957 194.242 11.0298 193.726 10.6889 193.056C10.3509 192.385 10.1818 191.585 10.1818 190.656C10.1818 189.725 10.3523 188.925 10.6932 188.257C11.0341 187.587 11.5 187.073 12.0909 186.715C12.6818 186.354 13.3537 186.173 14.1065 186.173C14.5696 186.173 15.0014 186.24 15.402 186.374C15.8054 186.504 16.1676 186.698 16.4886 186.953C16.8097 187.206 17.0753 187.516 17.2855 187.882C17.4957 188.246 17.6378 188.662 17.7117 189.131ZM18.6268 195.02V193.878L18.8825 193.869C19.2291 193.861 19.5018 193.743 19.7007 193.516C19.9024 193.288 20.0487 192.922 20.1396 192.416C20.2333 191.911 20.2958 191.236 20.3271 190.392L20.4762 186.293H25.9947V195.02H24.695V187.409H21.7163L21.5799 190.742C21.543 191.676 21.4492 192.462 21.2987 193.098C21.1481 193.732 20.8924 194.21 20.5316 194.534C20.1737 194.858 19.6637 195.02 19.0018 195.02H18.6268ZM27.9123 195.02V186.293H33.3839V187.426H29.2291V190.085H33.0984V191.215H29.2291V193.886H33.435V195.02H27.9123ZM35.1428 195.02V186.293H38.3388C38.9581 186.293 39.4709 186.395 39.8771 186.6C40.2834 186.801 40.5874 187.075 40.7891 187.422C40.9908 187.766 41.0916 188.154 41.0916 188.585C41.0916 188.949 41.0249 189.256 40.8913 189.506C40.7578 189.753 40.5788 189.952 40.3544 190.102C40.1328 190.25 39.8885 190.358 39.6215 190.426V190.511C39.9112 190.526 40.1939 190.619 40.4695 190.793C40.7479 190.963 40.978 191.206 41.1598 191.521C41.3416 191.837 41.4325 192.22 41.4325 192.672C41.4325 193.118 41.3274 193.519 41.1172 193.874C40.9098 194.226 40.5888 194.506 40.1541 194.713C39.7195 194.918 39.1641 195.02 38.4879 195.02H35.1428ZM36.4595 193.891H38.3601C38.9908 193.891 39.4425 193.769 39.7152 193.524C39.9879 193.28 40.1243 192.975 40.1243 192.608C40.1243 192.333 40.0547 192.08 39.9155 191.85C39.7763 191.619 39.5774 191.436 39.3189 191.3C39.0632 191.163 38.7592 191.095 38.407 191.095H36.4595V193.891ZM36.4595 190.068H38.2237C38.5192 190.068 38.7848 190.011 39.0206 189.898C39.2592 189.784 39.4482 189.625 39.5874 189.421C39.7294 189.213 39.8004 188.969 39.8004 188.688C39.8004 188.327 39.674 188.024 39.4212 187.78C39.1683 187.536 38.7806 187.413 38.2578 187.413H36.4595V190.068ZM43.7315 195.02H42.3338L45.4744 186.293H46.9957L50.1364 195.02H48.7386L46.2713 187.878H46.2031L43.7315 195.02ZM43.9659 191.602H48.5V192.71H43.9659V191.602Z" fill="#1D1D1F"/>
<path d="M167.774 189.381L188.751 198.975L188.85 199.02H239.963V198.02H189.066L168.19 188.471L167.774 189.381Z" fill="#216FA8"/>
<path d="M171.421 187.674L160.416 185.455L169.502 192.291L171.421 187.674Z" fill="#216FA8"/>
<path d="M195.666 189.13H194.337C194.286 188.846 194.19 188.596 194.051 188.38C193.912 188.164 193.742 187.981 193.54 187.831C193.338 187.68 193.112 187.566 192.862 187.49C192.615 187.413 192.352 187.375 192.074 187.375C191.571 187.375 191.121 187.501 190.723 187.754C190.328 188.007 190.016 188.377 189.786 188.866C189.558 189.355 189.445 189.951 189.445 190.656C189.445 191.366 189.558 191.966 189.786 192.454C190.016 192.943 190.33 193.312 190.727 193.562C191.125 193.812 191.572 193.937 192.07 193.937C192.345 193.937 192.607 193.9 192.854 193.826C193.104 193.75 193.33 193.637 193.531 193.49C193.733 193.342 193.903 193.162 194.043 192.949C194.185 192.733 194.283 192.485 194.337 192.207L195.666 192.211C195.595 192.64 195.457 193.035 195.253 193.396C195.051 193.754 194.791 194.064 194.473 194.325C194.158 194.583 193.797 194.784 193.391 194.926C192.984 195.068 192.541 195.139 192.061 195.139C191.305 195.139 190.632 194.96 190.041 194.602C189.45 194.241 188.984 193.725 188.644 193.055C188.305 192.385 188.136 191.585 188.136 190.656C188.136 189.724 188.307 188.924 188.648 188.257C188.989 187.586 189.455 187.072 190.046 186.714C190.636 186.353 191.308 186.173 192.061 186.173C192.524 186.173 192.956 186.24 193.357 186.373C193.76 186.504 194.122 186.697 194.443 186.953C194.764 187.206 195.03 187.515 195.24 187.882C195.45 188.245 195.592 188.662 195.666 189.13ZM204.064 186.292V195.02H202.752V187.417H198.644V195.02H197.331V186.292H204.064ZM206.078 195.02V186.292H209.189C209.868 186.292 210.43 186.416 210.876 186.663C211.322 186.91 211.656 187.248 211.878 187.677C212.099 188.103 212.21 188.583 212.21 189.118C212.21 189.654 212.098 190.137 211.873 190.566C211.652 190.993 211.316 191.331 210.868 191.581C210.422 191.828 209.86 191.951 209.184 191.951H207.045V190.835H209.065C209.494 190.835 209.842 190.761 210.109 190.613C210.376 190.463 210.572 190.258 210.697 190C210.822 189.741 210.885 189.447 210.885 189.118C210.885 188.788 210.822 188.495 210.697 188.24C210.572 187.984 210.375 187.784 210.105 187.639C209.838 187.494 209.485 187.422 209.048 187.422H207.395V195.02H206.078ZM213.565 195.02H212.167L215.308 186.292H216.829L219.97 195.02H218.572L216.105 187.877H216.037L213.565 195.02ZM213.799 191.602H218.334V192.71H213.799V191.602ZM221.23 195.02V186.292H224.426C225.046 186.292 225.558 186.395 225.965 186.599C226.371 186.801 226.675 187.075 226.876 187.422C227.078 187.765 227.179 188.153 227.179 188.585C227.179 188.949 227.112 189.255 226.979 189.505C226.845 189.752 226.666 189.951 226.442 190.102C226.22 190.25 225.976 190.358 225.709 190.426V190.511C225.999 190.525 226.281 190.619 226.557 190.792C226.835 190.963 227.065 191.206 227.247 191.521C227.429 191.836 227.52 192.22 227.52 192.672C227.52 193.118 227.415 193.518 227.205 193.873C226.997 194.225 226.676 194.505 226.242 194.713C225.807 194.917 225.251 195.02 224.575 195.02H221.23ZM222.547 193.89H224.447C225.078 193.89 225.53 193.768 225.803 193.524C226.075 193.279 226.212 192.974 226.212 192.608C226.212 192.332 226.142 192.079 226.003 191.849C225.864 191.619 225.665 191.436 225.406 191.299C225.151 191.163 224.847 191.095 224.494 191.095H222.547V193.89ZM222.547 190.068H224.311C224.607 190.068 224.872 190.011 225.108 189.897C225.347 189.784 225.536 189.625 225.675 189.42C225.817 189.213 225.888 188.968 225.888 188.687C225.888 188.326 225.761 188.024 225.509 187.779C225.256 187.535 224.868 187.413 224.345 187.413H222.547V190.068ZM229.819 195.02H228.421L231.562 186.292H233.083L236.224 195.02H234.826L232.359 187.877H232.291L229.819 195.02ZM230.053 191.602H234.587V192.71H230.053V191.602Z" fill="#1D1D1F"/>
<path d="M117.458 193.041L117.67 193.493L48.4672 226.01H166.047V227.01H46.2279C45.9939 227.01 45.7908 226.846 45.7396 226.618C45.6888 226.39 45.8034 226.156 46.015 226.057L117.245 192.589L117.458 193.041Z" fill="#216FA8"/>
<path d="M110.259 193.604L121.264 191.384L112.179 198.22L110.259 193.604Z" fill="#216FA8"/>
<path d="M88.3528 214.282V223.01H87.0403V215.407H82.9323V223.01H81.6198V214.282H88.3528ZM97.9472 218.646C97.9472 219.578 97.7768 220.379 97.4359 221.05C97.095 221.717 96.6276 222.231 96.0339 222.592C95.443 222.95 94.7711 223.129 94.0183 223.129C93.2626 223.129 92.5879 222.95 91.9941 222.592C91.4032 222.231 90.9373 221.716 90.5964 221.045C90.2555 220.375 90.085 219.575 90.085 218.646C90.085 217.714 90.2555 216.915 90.5964 216.247C90.9373 215.577 91.4032 215.062 91.9941 214.704C92.5879 214.344 93.2626 214.163 94.0183 214.163C94.7711 214.163 95.443 214.344 96.0339 214.704C96.6276 215.062 97.095 215.577 97.4359 216.247C97.7768 216.915 97.9472 217.714 97.9472 218.646ZM96.6433 218.646C96.6433 217.936 96.5282 217.338 96.2981 216.852C96.0708 216.363 95.7583 215.994 95.3606 215.744C94.9657 215.491 94.5183 215.365 94.0183 215.365C93.5154 215.365 93.0666 215.491 92.6717 215.744C92.2768 215.994 91.9643 216.363 91.7342 216.852C91.5069 217.338 91.3933 217.936 91.3933 218.646C91.3933 219.356 91.5069 219.956 91.7342 220.444C91.9643 220.93 92.2768 221.3 92.6717 221.552C93.0666 221.802 93.5154 221.927 94.0183 221.927C94.5183 221.927 94.9657 221.802 95.3606 221.552C95.7583 221.3 96.0708 220.93 96.2981 220.444C96.5282 219.956 96.6433 219.356 96.6433 218.646ZM106.838 217.121H105.508C105.457 216.836 105.362 216.586 105.222 216.371C105.083 216.155 104.913 215.971 104.711 215.821C104.509 215.67 104.284 215.557 104.034 215.48C103.786 215.403 103.524 215.365 103.245 215.365C102.742 215.365 102.292 215.491 101.894 215.744C101.499 215.997 101.187 216.368 100.957 216.856C100.73 217.345 100.616 217.942 100.616 218.646C100.616 219.356 100.73 219.956 100.957 220.444C101.187 220.933 101.501 221.302 101.899 221.552C102.296 221.802 102.744 221.927 103.241 221.927C103.516 221.927 103.778 221.89 104.025 221.817C104.275 221.74 104.501 221.628 104.703 221.48C104.904 221.332 105.075 221.152 105.214 220.939C105.356 220.723 105.454 220.476 105.508 220.197L106.838 220.202C106.766 220.631 106.629 221.025 106.424 221.386C106.222 221.744 105.963 222.054 105.644 222.315C105.329 222.574 104.968 222.774 104.562 222.916C104.156 223.058 103.713 223.129 103.232 223.129C102.477 223.129 101.803 222.95 101.213 222.592C100.622 222.231 100.156 221.716 99.8148 221.045C99.4767 220.375 99.3077 219.575 99.3077 218.646C99.3077 217.714 99.4781 216.915 99.819 216.247C100.16 215.577 100.626 215.062 101.217 214.704C101.808 214.344 102.48 214.163 103.232 214.163C103.695 214.163 104.127 214.23 104.528 214.363C104.931 214.494 105.293 214.687 105.615 214.943C105.936 215.196 106.201 215.506 106.411 215.872C106.622 216.236 106.764 216.652 106.838 217.121ZM108.413 223.01V214.282H113.885V215.416H109.73V218.075H113.599V219.204H109.73V221.876H113.936V223.01H108.413ZM115.644 223.01V214.282H118.754C119.433 214.282 119.996 214.406 120.442 214.653C120.888 214.9 121.222 215.238 121.443 215.667C121.665 216.094 121.776 216.574 121.776 217.108C121.776 217.645 121.664 218.128 121.439 218.557C121.217 218.983 120.882 219.321 120.433 219.571C119.987 219.818 119.426 219.942 118.75 219.942H116.611V218.825H118.631C119.06 218.825 119.408 218.751 119.675 218.604C119.942 218.453 120.138 218.248 120.263 217.99C120.388 217.731 120.45 217.437 120.45 217.108C120.45 216.778 120.388 216.486 120.263 216.23C120.138 215.974 119.94 215.774 119.671 215.629C119.404 215.484 119.051 215.412 118.614 215.412H116.96V223.01H115.644ZM123.319 223.01V214.282H128.791V215.416H124.636V218.075H128.505V219.204H124.636V221.876H128.842V223.01H123.319ZM129.889 225.119V221.893H130.465C130.661 221.729 130.844 221.494 131.014 221.19C131.185 220.886 131.33 220.476 131.449 219.959C131.568 219.442 131.651 218.778 131.696 217.969L131.901 214.282H137.283V221.893H138.271V225.106H137.01V223.01H131.151V225.119H129.889ZM132.016 221.893H136.021V215.416H133.094L132.958 217.969C132.921 218.585 132.86 219.139 132.774 219.631C132.692 220.122 132.585 220.557 132.455 220.934C132.327 221.309 132.181 221.629 132.016 221.893ZM139.714 214.282H141.018V220.692H141.099L145.539 214.282H146.758V223.01H145.441V216.609H145.36L140.928 223.01H139.714V214.282ZM148.679 223.01V214.282H149.996V218.075H154.346V214.282H155.667V223.01H154.346V219.204H149.996V223.01H148.679ZM157.585 223.01V214.282H163.057V215.416H158.902V218.075H162.771V219.204H158.902V221.876H163.108V223.01H157.585Z" fill="#1D1D1F"/>
<rect x="117" y="61" width="6" height="89" fill="black"/>
</svg>
