<svg width="240" height="240" viewBox="0 0 240 240" fill="none" xmlns="http://www.w3.org/2000/svg">
<path d="M102.571 117.715L97.7141 113.429L138 97.4291C138.571 97.1434 139.428 97.1434 140 97.4291L179.428 113.429L177.143 119.143L138.857 103.715L102.571 117.715Z" fill="#BCBCBC"/>
<path opacity="0.25" d="M102.572 78.2835L179.429 49.1406V117.141L103.143 147.712L102.572 78.2835Z" fill="#0094DD"/>
<path d="M140 0L34.2858 41.4286V41.7143V58.5714V176.286L91.7143 198.857L93.4286 199.714C93.7143 200 94.2858 200 94.5715 200C94.8572 200 95.4286 200 95.7143 199.714L105.714 195.714V61.7143L56.0001 42L137.143 9.71429V55.4286L142.857 53.1429V9.71429L194.286 30.5714V160.286L185.714 156.286V162.571L193.143 166C193.429 166 194 166.286 194.286 166.286C194.571 166.286 194.857 166.286 195.429 166L205.714 161.714V26.5714L140 0ZM94.2858 193.429L91.1429 192.286L40.0001 172.286V58.8571V44.5714L94.2858 66V193.429Z" fill="black"/>
<path d="M182 45.4292C181.143 44.8578 180 44.5721 179.143 45.1435L103.429 75.1435V143.715L102.857 144.001V150.001C103.143 150.001 103.143 150.001 103.429 149.715V192.572C103.714 192.572 104 192.572 104 192.286L180.857 161.715C182 161.144 182.571 160.001 182.571 159.144V47.7149C182.857 46.8578 182.571 46.0007 182 45.4292ZM177.143 52.2864V114.572L137.143 130.572V68.0007L177.143 52.2864ZM105.714 80.5721L131.429 70.2864V132.572L105.714 142.858V80.5721ZM105.714 185.715V148.858L177.143 120.572V157.144L105.714 185.715Z" fill="black"/>
</svg>
