<?xml version="1.0" encoding="utf-8"?>
<!-- Generator: Adobe Illustrator 23.1.0, SVG Export Plug-In . SVG Version: 6.00 Build 0)  -->
<svg version="1.1" id="Слой_1" xmlns="http://www.w3.org/2000/svg" xmlns:xlink="http://www.w3.org/1999/xlink" x="0px" y="0px"
	 width="150px" height="200px" viewBox="0 0 150 200" style="enable-background:new 0 0 150 200;" xml:space="preserve">
<style type="text/css">
	.st0{fill:none;}
	.st1{fill:#E1E2E1;}
	.st2{fill:#868686;}
	.st3{opacity:0.8;enable-background:new    ;}
	.st4{fill:#BACCD9;}
	.st5{opacity:0.7;enable-background:new    ;}
	.st6{fill-rule:evenodd;clip-rule:evenodd;fill:#E1E2E2;}
	.st7{fill:#878787;}
	.st8{fill:#E1E2E2;}
	.st9{fill-rule:evenodd;clip-rule:evenodd;fill:#BACDDA;}
	.st10{opacity:0.8;}
	.st11{fill-rule:evenodd;clip-rule:evenodd;fill:#BACDDA;stroke:#878787;stroke-miterlimit:10;}
	.st12{fill-rule:evenodd;clip-rule:evenodd;fill:#E1E2E1;}
	.st13{fill-rule:evenodd;clip-rule:evenodd;fill:#BACCD9;}
	.st14{fill-rule:evenodd;clip-rule:evenodd;fill:#FFFFFF;}
	.st15{fill:#FFFFFF;}
	.st16{fill:#BACDDA;}
</style>
<g>
	<g>
		<g>
			<g>
				<polygon class="st6" points="11.4,184.2 75,158.9 75,9.1 11.4,34.2 				"/>
				<path class="st7" d="M11.4,184.8c-0.1,0-0.2,0-0.3-0.1c-0.2-0.1-0.3-0.3-0.3-0.5V34.2c0-0.3,0.2-0.5,0.4-0.6L74.8,8.5
					c0.2-0.1,0.4-0.1,0.6,0.1c0.2,0.1,0.3,0.3,0.3,0.5V159c0,0.3-0.2,0.5-0.4,0.6l-63.6,25.3C11.6,184.8,11.5,184.8,11.4,184.8z
					 M12,34.7v148.5l62.4-24.8V9.9L12,34.7z"/>
			</g>
			<g>
				<g>
					<polygon class="st7" points="11.1,183.6 74.7,158.3 75.2,159.4 11.6,184.6 					"/>
				</g>
				<g>
					<polygon class="st7" points="11.2,170 74.7,144.7 75.2,145.8 11.6,171.1 					"/>
				</g>
				<g>
					<polygon class="st7" points="11.2,156.3 74.7,131.1 75.2,132.2 11.6,157.4 					"/>
				</g>
				<g>
					<polygon class="st7" points="11.1,142.7 74.7,117.5 75.2,118.6 11.6,143.8 					"/>
				</g>
				<g>
					<polygon class="st7" points="11.1,129 74.7,103.8 75.2,104.9 11.6,130.1 					"/>
				</g>
				<g>
					<polygon class="st7" points="11.1,115.4 74.7,90.1 75.2,91.2 11.6,116.5 					"/>
				</g>
				<g>
					<polygon class="st7" points="11.1,101.8 74.6,76.6 75.1,77.7 11.6,102.9 					"/>
				</g>
				<g>
					<polygon class="st7" points="11.1,88.2 74.7,63 75.2,64.1 11.6,89.3 					"/>
				</g>
				<g>
					<polygon class="st7" points="11.1,74.5 74.7,49.3 75.2,50.4 11.6,75.6 					"/>
				</g>
				<g>
					<polygon class="st7" points="11.1,60.9 74.7,35.8 75.1,36.9 11.6,62 					"/>
				</g>
				<g>
					<polygon class="st7" points="11.2,47.4 74.7,22.2 75.2,23.3 11.6,48.5 					"/>
				</g>
				<g>
					<polygon class="st7" points="11.2,33.7 74.7,8.5 75.2,9.6 11.6,34.8 					"/>
				</g>
			</g>
			<g>
				<g>
					<rect x="74.4" y="9.1" class="st7" width="1.2" height="149.9"/>
				</g>
				<g>
					<rect x="61.7" y="14.1" class="st7" width="1.2" height="149.9"/>
				</g>
				<g>
					<rect x="49" y="19.2" class="st7" width="1.2" height="149.9"/>
				</g>
				<g>
					<rect x="36.2" y="24.1" class="st7" width="1.2" height="149.9"/>
				</g>
				<g>
					<rect x="23.6" y="29.3" class="st7" width="1.2" height="149.7"/>
				</g>
				<g>
					<rect x="10.8" y="34.2" class="st7" width="1.2" height="149.9"/>
				</g>
			</g>
		</g>
		<g>
			<g>
				<polygon class="st6" points="138.5,184.2 75,158.9 75,9.1 138.5,34.2 				"/>
				<path class="st7" d="M138.5,184.8c-0.1,0-0.2,0-0.2,0l-63.6-25.3c-0.2-0.1-0.4-0.3-0.4-0.6V9.1c0-0.2,0.1-0.4,0.3-0.5
					c0.2-0.1,0.4-0.1,0.6-0.1l63.6,25.3c0.2,0.1,0.4,0.3,0.4,0.6v149.9c0,0.2-0.1,0.4-0.3,0.5C138.7,184.8,138.6,184.8,138.5,184.8z
					 M75.5,158.5l62.4,24.8V34.7L75.5,9.9V158.5z"/>
			</g>
			<g>
				<g>
					<polygon class="st7" points="74.7,159.5 75.2,158.4 138.8,183.6 138.3,184.7 					"/>
				</g>
				<g>
					<polygon class="st7" points="74.7,145.8 75.2,144.7 138.8,170 138.3,171.1 					"/>
				</g>
				<g>
					<polygon class="st7" points="74.7,132.1 75.2,131 138.7,156.3 138.3,157.4 					"/>
				</g>
				<g>
					<polygon class="st7" points="74.7,118.6 75.1,117.5 138.7,142.7 138.3,143.8 					"/>
				</g>
				<g>
					<polygon class="st7" points="74.8,105 75.2,103.9 138.8,129.1 138.3,130.2 					"/>
				</g>
				<g>
					<polygon class="st7" points="74.7,91.3 75.2,90.2 138.8,115.5 138.3,116.5 					"/>
				</g>
				<g>
					<polygon class="st7" points="74.7,77.7 75.2,76.7 138.7,101.8 138.3,102.9 					"/>
				</g>
				<g>
					<polygon class="st7" points="74.7,64.1 75.1,63 138.7,88.2 138.3,89.3 					"/>
				</g>
				<g>
					<polygon class="st7" points="74.7,50.4 75.1,49.3 138.7,74.6 138.3,75.7 					"/>
				</g>
				<g>
					<polygon class="st7" points="74.7,36.9 75.1,35.8 138.7,60.9 138.2,62 					"/>
				</g>
				<g>
					<polygon class="st7" points="74.7,23.2 75.2,22.1 138.7,47.4 138.3,48.5 					"/>
				</g>
				<g>
					<polygon class="st7" points="74.7,9.6 75.2,8.5 138.7,33.7 138.3,34.8 					"/>
				</g>
			</g>
			<g>
				<g>
					<rect x="74.4" y="9.1" class="st7" width="1.2" height="149.9"/>
				</g>
				<g>
					<rect x="87" y="14.1" class="st7" width="1.2" height="149.9"/>
				</g>
				<g>
					<rect x="99.7" y="19.2" class="st7" width="1.2" height="149.9"/>
				</g>
				<g>
					<rect x="112.5" y="24.1" class="st7" width="1.2" height="149.9"/>
				</g>
				<g>
					<rect x="125.2" y="29.3" class="st7" width="1.2" height="149.7"/>
				</g>
				<g>
					<rect x="137.9" y="34.2" class="st7" width="1.2" height="149.9"/>
				</g>
			</g>
		</g>
	</g>
	<g>
		<polygon class="st6" points="0.6,179.9 11.5,184.2 11.5,34.4 0.6,30 		"/>
		<path class="st7" d="M11.5,184.8c-0.1,0-0.2,0-0.2,0l-10.9-4.2c-0.2-0.1-0.4-0.3-0.4-0.6V30c0-0.2,0.1-0.4,0.3-0.5
			s0.4-0.1,0.6-0.1l10.9,4.4c0.2,0.1,0.4,0.3,0.4,0.6v149.7c0,0.2-0.1,0.4-0.3,0.5C11.8,184.8,11.7,184.8,11.5,184.8z M1.2,179.4
			l9.7,3.7V34.8l-9.7-3.9C1.2,30.9,1.2,179.4,1.2,179.4z"/>
	</g>
	<g>
		<polygon class="st6" points="138.4,34.4 149.3,30 149.3,179.9 138.4,184.2 		"/>
		<path class="st7" d="M138.4,184.8c-0.1,0-0.2,0-0.3-0.1c-0.2-0.1-0.3-0.3-0.3-0.5V34.4c0-0.3,0.2-0.5,0.4-0.6l10.9-4.4
			c0.2-0.1,0.4-0.1,0.6,0.1c0.2,0.1,0.3,0.3,0.3,0.5v149.9c0,0.3-0.2,0.5-0.4,0.6l-10.9,4.2C138.5,184.8,138.4,184.8,138.4,184.8z
			 M139,34.8v148.5l9.7-3.7V31L139,34.8z"/>
	</g>
	<g>
		<polygon class="st6" points="75,9.1 138.5,34.2 149.3,30 75,0.6 0.6,30 11.4,34.2 		"/>
		<path class="st7" d="M138.5,34.9c-0.1,0-0.2,0-0.2,0L75,9.8l-63.4,25c-0.1,0.1-0.3,0.1-0.5,0L0.4,30.6C0.2,30.5,0,30.2,0,30
			c0-0.3,0.2-0.5,0.4-0.6L74.8,0c0.1,0,0.3,0,0.4,0l74.4,29.4c0.2,0.1,0.4,0.3,0.4,0.6s-0.2,0.5-0.4,0.6l-10.8,4.2
			C138.7,34.8,138.6,34.9,138.5,34.9z M75,8.6c0.1,0,0.2,0,0.2,0l63.4,25l9.1-3.6L75,1.3L2.3,30l9.1,3.6L74.8,8.6
			C74.8,8.6,74.9,8.6,75,8.6z"/>
	</g>
	<g>
		<polygon class="st8" points="125.1,69.2 75.3,49.7 75.4,37 125.1,56.7 		"/>
	</g>
	<g>
		<g>
			<path class="st7" d="M81.6,43.8l-1.9-0.7c-1-0.4-1.5,0.1-1.5,1.1v0.9c0,1,0.6,2,1.5,2.4l1.1,0.5l0,0c0.4,0.1,0.7-0.1,0.7-0.6
				l-2-0.9c-0.4-0.3-0.6-0.7-0.6-1.2v-0.9c0-0.5,0.2-0.7,0.7-0.6l1.9,0.7v3.7c0,0.5-0.2,0.7-0.7,0.6l-1.1-0.5
				c-0.4-0.1-0.7,0.1-0.7,0.6l0.7,0.4l1.1,0.5c1,0.4,1.5-0.1,1.5-1.1V45C82.3,44.4,82,43.9,81.6,43.8"/>
		</g>
		<g>
			<path class="st7" d="M118.5,58.5c-1-0.4-1.5,0.1-1.5,1.1v1.7c0,0.5,0.4,1,0.7,1.1v-2.6c0-0.5,0.2-0.7,0.7-0.5l1,0.4
				c0.4,0.1,0.7-0.1,0.7-0.5L118.5,58.5z"/>
		</g>
		<g>
			<path class="st7" d="M88.8,50c-0.5-0.2-0.7-0.6-0.7-1.1v-1.7l1.1,0.4c0.4,0.1,0.7-0.1,0.7-0.6L88,46.4v-2
				c-0.4-0.1-0.7,0.1-0.7,0.6v3.6c0,1,0.6,2,1.5,2.4l0.4,0.1c0.4,0.1,0.7-0.1,0.7-0.6L88.8,50z"/>
		</g>
		<g>
			<path class="st7" d="M111,59.7c-1-0.4-1.5-1.4-1.5-2.4v-1.7l-2.4-1v1.7c0,0.5,0.2,1,0.7,1.1l1.1,0.5c0,0.5-0.4,0.7-0.7,0.5h-0.4
				c-1-0.4-1.5-1.4-1.5-2.4v-3.6c0-0.5,0.4-0.7,0.7-0.6v2l2.4,1v-1.1c0-0.5,0.4-0.7,0.7-0.6v2l1.9,0.7c0,0.5-0.4,0.7-0.7,0.5
				l-1.1-0.4v1.7c0,0.5,0.2,1,0.7,1.1l0.4,0.1l0.7,0.4c0,0.5-0.4,0.7-0.7,0.5L111,59.7z"/>
		</g>
		<g>
			<path class="st7" d="M86.1,46.3v2.6c0,0.5,0.4,1,0.7,1.1v-4.2C86.3,45.6,86.1,45.8,86.1,46.3"/>
		</g>
		<g>
			<path class="st7" d="M84.2,48.2c-0.5-0.2-0.7-0.7-0.7-1.1v-2.6c-0.5-0.1-0.7,0.1-0.7,0.6v1.7c0,1,0.6,2,1.5,2.4l1,0.4
				c0.4,0.1,0.7-0.1,0.7-0.6L84.2,48.2z"/>
		</g>
		<g>
			<path class="st7" d="M100.4,52v1.7c0,0.5-0.4,0.7-0.7,0.5l-1.1-0.5v-3.4c-0.4-0.1-0.7,0.1-0.7,0.6v2.6c0,0.5,0.4,1,0.7,1.1
				l1.1,0.5c0.9,0.4,1.5,0,1.5-1.1l0,0v-2.6C100.7,51.5,100.4,51.5,100.4,52 M96.5,53c-0.5-0.2-0.7-0.6-0.7-1.1v-2.6
				c-0.4-0.1-0.7,0.1-0.7,0.6v1.7c0,1,0.6,2,1.5,2.4l0.6,0.2c0.4,0.1,0.7-0.1,0.7-0.6L96.5,53z"/>
		</g>
		<g>
			<path class="st7" d="M91.8,49.5c-0.4-0.1-0.7,0.1-0.7,0.6v-0.9c0-0.5,0.2-0.7,0.7-0.6l1.4,0.5c0.5,0.2,0.7,0.6,0.7,1.1L91.8,49.5
				z M94.5,50.6c0-1-0.6-2-1.5-2.4l-1.4-0.5c-1-0.4-1.5,0.1-1.5,1.1v0.9c0,1,0.6,2,1.5,2.4l1.7,0.7c0.4,0.1,0.7-0.1,0.7-0.6l-2.5-1
				c-0.4-0.2-0.6-0.6-0.6-1l2.9,1.1C94.2,51.4,94.5,51.1,94.5,50.6"/>
		</g>
		<g>
			<path class="st7" d="M103.2,54c-0.4-0.1-0.7,0.1-0.7,0.5v-0.9c0-0.5,0.2-0.7,0.7-0.6l1.4,0.5c0.5,0.2,0.7,0.7,0.7,1.1L103.2,54z
				 M106,55.3c0-1-0.6-2-1.5-2.4l-1.4-0.5c-1-0.4-1.5,0.1-1.5,1.1v0.9c0,1,0.6,2,1.5,2.4l1.7,0.7c0.4,0.1,0.7-0.1,0.7-0.5l-2.5-1
				c-0.5-0.2-0.7-0.7-0.7-1.1l2.9,1.1C105.6,55.9,106,55.6,106,55.3"/>
		</g>
		<g>
			<path class="st7" d="M113.8,58.3c-0.4-0.1-0.7,0.1-0.7,0.5v-0.9c0-0.5,0.2-0.7,0.7-0.5l1.4,0.5c0.5,0.2,0.7,0.7,0.7,1.1
				L113.8,58.3z M116.7,59.5c0-1-0.6-2-1.5-2.4l-1.4-0.5c-1-0.4-1.5,0.1-1.5,1.1v0.7c0,1,0.6,2,1.5,2.4l1.7,0.7
				c0.4,0.1,0.7-0.1,0.7-0.5l-2.5-1c-0.5-0.2-0.7-0.7-0.7-1.1l2.9,1.1C116.3,60.1,116.7,59.9,116.7,59.5"/>
		</g>
		<g>
			<path class="st7" d="M121.3,59.2v-0.6c0,0,0,0,0-0.1c0-0.1,0,0,0.1,0l0.2,0.1c0,0,0.1,0,0.1,0.1c0,0.1,0.1,0.1,0.1,0.2
				c0,0.2-0.1,0.1-0.1,0.1h-0.1l0.2,0.4h-0.1l-0.2-0.4c0,0,0,0,0-0.1l0,0h0.1h0.1l0,0v-0.1c0,0,0,0,0-0.1c0,0,0,0-0.1,0l-0.2-0.1
				l0,0l0,0L121.3,59.2L121.3,59.2z M121.1,59.1c0.1,0.2,0.2,0.2,0.4,0.2c0.1,0,0.2,0.1,0.4,0c0.1-0.1,0.1-0.2,0.1-0.4
				s0-0.2-0.1-0.4c-0.1-0.1-0.2-0.1-0.4-0.1c-0.1,0-0.2-0.1-0.4,0c-0.1,0.1-0.1,0.2-0.1,0.4C121.1,58.9,121.1,59,121.1,59.1
				 M121.1,58.3c0.1-0.1,0.2,0,0.4,0c0.1,0,0.2,0.1,0.4,0.2c0.2,0.1,0.1,0.4,0.1,0.5c0,0.1,0,0.4-0.1,0.4c-0.1,0.1-0.2,0-0.4-0.1
				c-0.1,0-0.2-0.1-0.4-0.2c-0.1-0.1-0.1-0.4-0.1-0.5C121,58.5,121,58.4,121.1,58.3"/>
		</g>
	</g>
	<g>
		<g class="st3">
			<polygon class="st9" points="24.2,179.1 75,199.4 75,63.2 24.2,42.9 			"/>
			<path class="st7" d="M75,200c-0.1,0-0.2,0-0.2,0L24,179.7c-0.2-0.1-0.4-0.3-0.4-0.6V42.9c0-0.2,0.1-0.4,0.3-0.5
				c0.2-0.1,0.4-0.1,0.6-0.1l50.9,20.3c0.2,0.1,0.4,0.3,0.4,0.6v136.3c0,0.2-0.1,0.4-0.3,0.5C75.3,200,75.1,200,75,200z M24.8,178.8
				l49.7,19.8v-135L24.8,43.9V178.8z"/>
		</g>
		<g class="st3">
			<polygon class="st9" points="125.7,179.1 74.9,199.4 74.9,63.2 125.7,42.9 			"/>
			<path class="st7" d="M74.9,200c-0.1,0-0.2,0-0.3-0.1c-0.2-0.1-0.3-0.3-0.3-0.5V63.2c0-0.3,0.2-0.5,0.4-0.6l50.9-20.3
				c0.2-0.1,0.4-0.1,0.6,0.1c0.2,0.1,0.3,0.3,0.3,0.5v136.3c0,0.3-0.2,0.5-0.4,0.6L75,200C75,200,75,200,74.9,200z M75.4,63.6v134.9
				l49.7-19.8V43.9L75.4,63.6z"/>
		</g>
	</g>
</g>
</svg>
