<?xml version="1.0" encoding="utf-8"?>
<!-- Generator: Adobe Illustrator 23.1.0, SVG Export Plug-In . SVG Version: 6.00 Build 0)  -->
<svg version="1.1" id="Слой_1" xmlns="http://www.w3.org/2000/svg" xmlns:xlink="http://www.w3.org/1999/xlink" x="0px" y="0px"
	 width="150px" height="200px" viewBox="0 0 150 200" style="enable-background:new 0 0 150 200;" xml:space="preserve">
<style type="text/css">
	.st0{fill:none;}
	.st1{fill:#E1E2E1;}
	.st2{fill:#868686;}
	.st3{opacity:0.8;enable-background:new    ;}
	.st4{fill:#BACCD9;}
	.st5{opacity:0.7;enable-background:new    ;}
	.st6{fill-rule:evenodd;clip-rule:evenodd;fill:#E1E2E2;}
	.st7{fill:#878787;}
	.st8{fill:#E1E2E2;}
	.st9{fill-rule:evenodd;clip-rule:evenodd;fill:#BACDDA;}
	.st10{opacity:0.8;}
	.st11{fill-rule:evenodd;clip-rule:evenodd;fill:#BACDDA;stroke:#878787;stroke-miterlimit:10;}
	.st12{fill-rule:evenodd;clip-rule:evenodd;fill:#E1E2E1;}
	.st13{fill-rule:evenodd;clip-rule:evenodd;fill:#BACCD9;}
	.st14{fill-rule:evenodd;clip-rule:evenodd;fill:#FFFFFF;}
	.st15{fill:#FFFFFF;}
	.st16{fill:#BACDDA;}
</style>
<g>
	<g>
		<g>
			<polygon class="st6" points="12,39.6 12,189.7 88.4,159.1 88.4,8.9 			"/>
			<path class="st7" d="M88.8,8.5c-0.2-0.1-0.4-0.2-0.6-0.1L12,39v1.4L87.7,9.9v148.8L12,189v1.4l76.6-30.7c0.2-0.1,0.4-0.3,0.4-0.6
				V8.9C89,8.8,88.9,8.6,88.8,8.5z"/>
		</g>
		<g>
			<polygon class="st6" points="88.4,0.5 1,35.5 1,44.1 88.4,9.1 149.3,33.4 149.3,24.8 			"/>
			<path class="st7" d="M88.2,8.5L1,43.3v1.4l87.4-35l60.8,24.3v-1.4L88.7,8.5C88.5,8.4,88.3,8.4,88.2,8.5z"/>
			<polygon class="st7" points="88.7,-0.1 88.2,-0.1 1,34.8 1,36.1 88.4,1.2 149.3,25.5 149.3,24.1 			"/>
		</g>
		<g>
			<g>
				<g>
					<polygon class="st6" points="138.4,29.1 88.3,8.9 88.2,158.9 138.4,178.9 					"/>
					<path class="st7" d="M138.4,178.3l-49.6-19.9L88.9,9.9l49.5,19.8v-1.3l-50-20c-0.2,0-0.5,0-0.6,0.1c-0.1,0.1-0.2,0.2-0.2,0.5
						v150c0,0.2,0.1,0.5,0.4,0.6l50.4,20.2V178.3z"/>
				</g>
				<g>
					<g>
						<polygon class="st7" points="138.4,178.2 88.4,158.2 87.9,159.4 138.4,179.6 						"/>
					</g>
					<g>
						<polygon class="st7" points="138.4,164.6 88.5,144.6 88,145.8 138.4,166 						"/>
					</g>
					<g>
						<polygon class="st7" points="138.4,150.9 88.5,130.9 88,132.1 138.4,152.3 						"/>
					</g>
					<g>
						<polygon class="st7" points="138.4,137.4 88.5,117.4 88,118.6 138.4,138.8 						"/>
					</g>
					<g>
						<polygon class="st7" points="138.4,123.7 88.5,103.7 88,104.9 138.4,125.1 						"/>
					</g>
					<g>
						<polygon class="st7" points="138.4,110.1 88.5,90.1 88.1,91.3 138.4,111.4 						"/>
					</g>
					<g>
						<polygon class="st7" points="138.4,96.4 88.4,76.5 88,77.7 138.4,97.8 						"/>
					</g>
					<g>
						<polygon class="st7" points="138.4,82.9 88.5,62.9 88,64 138.4,84.2 						"/>
					</g>
					<g>
						<polygon class="st7" points="138.4,69.2 88.5,49.2 88,50.4 138.4,70.6 						"/>
					</g>
					<g>
						<polygon class="st7" points="138.4,55.5 88.5,35.6 88,36.8 138.4,56.9 						"/>
					</g>
					<g>
						<polygon class="st7" points="138.4,42 88.5,22 88.1,23.2 138.4,43.4 						"/>
					</g>
					<g>
						<polygon class="st7" points="138.4,28.3 88.5,8.3 88,9.5 138.4,29.7 						"/>
					</g>
				</g>
				<g>
					<g>
						<rect x="87.6" y="8.9" class="st7" width="1.3" height="150"/>
					</g>
					<g>
						<rect x="100.2" y="13.9" class="st7" width="1.3" height="150"/>
					</g>
					<g>
						<rect x="112.8" y="19" class="st7" width="1.3" height="150"/>
					</g>
					<g>
						<rect x="125.4" y="24" class="st7" width="1.3" height="150"/>
					</g>
					<g>
						<rect x="138" y="29" class="st7" width="0.3" height="150"/>
					</g>
				</g>
			</g>
		</g>
		<g>
			<polygon class="st8" points="138,69 88.7,49.5 88.7,36.9 138,56.6 			"/>
		</g>
		<g>
			<g>
				<path class="st7" d="M94.7,44.1l-1.9-0.7c-0.9-0.3-1.5,0.1-1.5,1v0.8c0,0.9,0.6,2,1.5,2.3l1.1,0.5l0,0c0.4,0.1,0.7-0.1,0.7-0.5
					L93,46.7c-0.5-0.2-0.7-0.6-0.7-1v-0.8c0-0.5,0.2-0.7,0.7-0.5l1.9,0.7v3.8c0,0.5-0.2,0.7-0.7,0.5l-1.1-0.5
					c-0.4-0.1-0.7,0.1-0.7,0.5l0.7,0.3l1.1,0.5c0.9,0.3,1.5-0.1,1.5-1v-3.8C95.6,44.7,95.1,44.2,94.7,44.1"/>
			</g>
			<g>
				<path class="st7" d="M131.6,58.9c-0.9-0.3-1.5,0.1-1.5,1v1.7c0,0.5,0.4,0.9,0.7,1v-2.6c0-0.5,0.2-0.7,0.7-0.5l0.9,0.3
					c0.4,0.1,0.7-0.1,0.7-0.5L131.6,58.9z"/>
			</g>
			<g>
				<path class="st7" d="M101.9,50.3c-0.5-0.2-0.7-0.6-0.7-1v-1.7l1.1,0.5c0.4,0.1,0.7-0.1,0.7-0.5l-1.8-0.8v-2
					c-0.4-0.1-0.7,0.1-0.7,0.5v3.7c0,0.9,0.6,2,1.5,2.3l0.4,0.1c0.4,0.1,0.7-0.1,0.7-0.6L101.9,50.3z"/>
			</g>
			<g>
				<path class="st7" d="M124,60.1c-0.9-0.3-1.5-1.4-1.5-2.3V56l-2.3-0.9v1.7c0,0.5,0.2,0.9,0.7,1l1.1,0.5c0,0.5-0.4,0.7-0.7,0.5
					l-0.4-0.1c-0.9-0.3-1.5-1.4-1.5-2.3v-3.6c0-0.5,0.4-0.7,0.7-0.6v2l2.3,0.9v-1c0-0.5,0.4-0.7,0.7-0.5v2l1.9,0.7
					c0,0.5-0.4,0.7-0.7,0.5l-1.1-0.5V58c0,0.5,0.2,0.9,0.7,1l0.4,0.1l0.7,0.3c0,0.5-0.4,0.7-0.7,0.5L124,60.1z"/>
			</g>
			<g>
				<path class="st7" d="M99.2,46.7v2.6c0,0.5,0.4,0.9,0.7,1V46C99.5,45.9,99.2,46.2,99.2,46.7"/>
			</g>
			<g>
				<path class="st7" d="M97.4,48.4c-0.5-0.2-0.7-0.7-0.7-1v-2.6c-0.5-0.1-0.7,0.1-0.7,0.6v1.7c0,0.9,0.6,2,1.5,2.3l0.9,0.3
					c0.4,0.1,0.7-0.1,0.7-0.6L97.4,48.4z"/>
			</g>
			<g>
				<path class="st7" d="M113.5,52.4v1.7c0,0.5-0.4,0.7-0.7,0.5l-1.1-0.5v-3.4c-0.4-0.1-0.7,0.1-0.7,0.5V54c0,0.5,0.4,0.9,0.7,1
					l1.1,0.5c0.8,0.3,1.5,0,1.5-1l0,0v-2.6C113.8,51.8,113.5,51.9,113.5,52.4 M109.6,53.4c-0.5-0.2-0.7-0.7-0.7-1v-2.6
					c-0.4-0.1-0.7,0.1-0.7,0.6v1.7c0,0.9,0.6,2,1.5,2.3l0.6,0.2c0.4,0.1,0.7-0.1,0.7-0.5L109.6,53.4z"/>
			</g>
			<g>
				<path class="st7" d="M104.9,49.8c-0.4-0.1-0.7,0.1-0.7,0.5v-0.8c0-0.5,0.2-0.7,0.7-0.6l1.4,0.5c0.5,0.2,0.7,0.7,0.7,1
					L104.9,49.8z M107.7,51c0-0.9-0.6-2-1.5-2.3l-1.4-0.5c-0.9-0.3-1.5,0.1-1.5,1v0.8c0,0.9,0.6,2,1.5,2.3l1.8,0.7
					c0.4,0.1,0.7-0.1,0.7-0.5l-2.5-0.9c-0.5-0.2-0.7-0.6-0.7-1l2.8,1C107.4,51.7,107.7,51.5,107.7,51"/>
			</g>
			<g>
				<path class="st7" d="M116.2,54.4c-0.4-0.1-0.7,0.1-0.7,0.6v-0.8c0-0.5,0.2-0.7,0.7-0.5l1.4,0.5c0.5,0.2,0.7,0.6,0.7,1
					L116.2,54.4z M119.1,55.4c0-0.9-0.6-2-1.5-2.3l-1.4-0.5c-0.9-0.3-1.5,0.1-1.5,1v0.8c0,0.9,0.6,2,1.5,2.3l1.8,0.7
					c0.4,0.1,0.7-0.1,0.7-0.5l-2.5-0.9c-0.5-0.2-0.7-0.6-0.7-1l2.8,1C118.6,56.2,119.1,56,119.1,55.4"/>
			</g>
			<g>
				<path class="st7" d="M126.9,58.7c-0.4-0.1-0.7,0.1-0.7,0.5v-0.8c0-0.5,0.2-0.7,0.7-0.5l1.4,0.5c0.5,0.2,0.7,0.7,0.7,1
					L126.9,58.7z M129.6,59.8c0-0.9-0.6-2-1.5-2.3l-1.4-0.5c-0.9-0.3-1.5,0.1-1.5,1v0.7c0,0.9,0.6,2,1.5,2.3l1.8,0.7
					c0.4,0.1,0.7-0.1,0.7-0.5l-2.5-0.9c-0.5-0.2-0.7-0.7-0.7-1l2.8,1C129.4,60.5,129.6,60.2,129.6,59.8"/>
			</g>
			<g>
				<path class="st7" d="M134.2,59.5v-0.6c0,0,0,0,0-0.1s0,0,0.1,0l0.2,0.1c0,0,0.1,0,0.1,0.1c0,0.1,0.1,0.1,0.1,0.2
					c0,0.2-0.1,0.1-0.1,0.1h-0.1l0.2,0.3h-0.1l-0.2-0.3c0,0,0,0,0-0.1l0,0h0.1h0.1l0,0v-0.1c0,0,0,0,0-0.1c0,0,0,0-0.1,0l-0.2-0.1
					l0,0l0,0L134.2,59.5L134.2,59.5z M134.2,59.5c0.1,0.2,0.2,0.2,0.4,0.2c0.1,0,0.2,0.1,0.4,0c0.1-0.1,0.1-0.2,0.1-0.3
					c0-0.1,0-0.2-0.1-0.3c-0.1-0.2-0.2-0.2-0.4-0.2c-0.1,0-0.2-0.1-0.4,0c-0.1,0.1-0.1,0.2-0.1,0.3
					C134.1,59.2,134.1,59.4,134.2,59.5 M134.1,58.7c0.1-0.1,0.2,0,0.4,0c0.1,0,0.2,0.1,0.4,0.2c0.1,0.1,0.1,0.3,0.1,0.5
					s0,0.3-0.1,0.3c-0.1,0.1-0.2,0-0.4-0.1c-0.1-0.1-0.2-0.1-0.4-0.2c-0.1-0.1-0.1-0.3-0.1-0.5C133.9,58.8,133.9,58.8,134.1,58.7"/>
			</g>
		</g>
		<g>
			<g>
				<rect x="11.3" y="39.9" class="st7" width="1.3" height="148.8"/>
			</g>
			<g>
				<rect x="24" y="34.7" class="st7" width="1.3" height="149.1"/>
			</g>
			<g>
				<rect x="36.7" y="29.6" class="st7" width="1.3" height="149.5"/>
			</g>
			<g>
				<rect x="49.4" y="24.4" class="st7" width="1.3" height="149.6"/>
			</g>
			<g>
				<rect x="62.2" y="19.3" class="st7" width="1.3" height="149.8"/>
			</g>
			<g>
				<rect x="74.8" y="14" class="st7" width="1.3" height="150.2"/>
			</g>
			<g>
				
					<rect x="12.9" y="83.5" transform="matrix(1.965981e-03 -1 1 1.965981e-03 3.8434 172.1165)" class="st7" width="150.4" height="1.3"/>
			</g>
		</g>
		<g>
			<g>
				<g>
					<polygon class="st7" points="11.8,40.4 88.7,9.5 88.2,8.3 11.8,39 					"/>
				</g>
				<g>
					<polygon class="st7" points="11.8,53.9 88.7,23.1 88.2,22 11.8,52.5 					"/>
				</g>
				<g>
					<polygon class="st7" points="11.8,67.6 88.7,36.8 88.2,35.7 11.8,66.2 					"/>
				</g>
				<g>
					<polygon class="st7" points="11.8,81.3 88.7,50.5 88.2,49.3 11.8,79.9 					"/>
				</g>
				<g>
					<polygon class="st7" points="11.8,95 88.7,64.2 88.2,63 11.8,93.6 					"/>
				</g>
				<g>
					<polygon class="st7" points="11.8,108.7 88.7,77.9 88.2,76.7 11.8,107.3 					"/>
				</g>
				<g>
					<polygon class="st7" points="11.8,122.4 88.6,91.6 88.1,90.5 11.8,121 					"/>
				</g>
				<g>
					<polygon class="st7" points="11.8,136.1 88.6,105.3 88.1,104.1 11.8,134.7 					"/>
				</g>
				<g>
					<polygon class="st7" points="11.8,149.6 88.6,119 88.1,117.8 11.8,148.2 					"/>
				</g>
				<g>
					<polygon class="st7" points="11.8,163.2 88.6,132.7 88.1,131.5 11.8,161.9 					"/>
				</g>
				<g>
					<polygon class="st7" points="11.8,176.9 88.6,146.3 88.1,145.2 11.8,175.6 					"/>
				</g>
				<g>
					<polygon class="st7" points="11.8,190.6 88.6,160 88.1,158.8 11.8,189.2 					"/>
				</g>
			</g>
		</g>
		<g class="st10">
			<polygon class="st9" points="126.3,172.7 63.3,199.1 63.3,62.5 126.3,37 			"/>
			<path class="st7" d="M62.8,199.9V62.1l0.3-0.1l63.7-25.7V173l-0.3,0.1L62.8,199.9z M63.8,62.8v135.6l62-26V37.8L63.8,62.8z"/>
		</g>
		<g class="st3">
			<polygon class="st9" points="24.6,184.1 62.9,199.4 62.9,62.2 24.6,46.8 			"/>
			<path class="st7" d="M62.9,199.9c-0.1,0-0.1,0-0.2,0l-38.2-15.4c-0.2-0.1-0.3-0.3-0.3-0.4V46.9c0-0.2,0.1-0.3,0.2-0.3
				c0.1-0.1,0.3-0.1,0.4-0.1L63,61.9c0.2,0.1,0.3,0.3,0.3,0.4v137.1c0,0.2-0.1,0.3-0.2,0.3C63,199.8,63,199.9,62.9,199.9z
				 M25.1,183.7l37.3,15V62.6l-37.3-15V183.7z"/>
		</g>
		<g>
			<polygon class="st6" points="138.3,29 149.4,24.7 149.4,174.7 138.3,178.8 			"/>
			<path class="st7" d="M138.3,179.5c-0.1,0-0.2,0-0.4-0.1s-0.2-0.3-0.2-0.5V29c0-0.2,0.1-0.5,0.4-0.6l11.1-4.3
				c0.2-0.1,0.4,0,0.6,0.1c0.1,0.1,0.2,0.3,0.2,0.5v150c0,0.2-0.1,0.5-0.4,0.6l-11.1,4.3C138.4,179.5,138.4,179.5,138.3,179.5z
				 M138.9,29.3V178l9.8-3.8V25.5L138.9,29.3z"/>
		</g>
		<g>
			<polygon class="st6" points="11.7,39.7 0.6,35.4 0.6,185.4 11.7,189.7 			"/>
			<path class="st7" d="M11.7,190.2c-0.1,0-0.1,0-0.2,0L0.4,186c-0.2-0.1-0.4-0.3-0.4-0.6v-150c0-0.2,0.1-0.3,0.2-0.5
				s0.4-0.1,0.6-0.1l11.1,4.3c0.2,0.1,0.4,0.3,0.4,0.6v150c0,0.2-0.1,0.3-0.2,0.5C11.9,190.2,11.8,190.2,11.7,190.2z M1.3,185
				l9.8,3.8V40.2l-9.8-3.8L1.3,185z"/>
		</g>
	</g>
</g>
</svg>
