<?xml version="1.0" encoding="utf-8"?>
<!-- Generator: Adobe Illustrator 23.1.0, SVG Export Plug-In . SVG Version: 6.00 Build 0)  -->
<svg version="1.1" id="Слой_1" xmlns="http://www.w3.org/2000/svg" xmlns:xlink="http://www.w3.org/1999/xlink" x="0px" y="0px"
	 width="150px" height="200px" viewBox="0 0 150 200" style="enable-background:new 0 0 150 200;" xml:space="preserve">
<style type="text/css">
	.st0{fill:none;}
	.st1{fill:#E1E2E1;}
	.st2{fill:#868686;}
	.st3{opacity:0.8;enable-background:new    ;}
	.st4{fill:#BACCD9;}
	.st5{opacity:0.7;enable-background:new    ;}
	.st6{fill-rule:evenodd;clip-rule:evenodd;fill:#E1E2E2;}
	.st7{fill:#878787;}
	.st8{fill:#E1E2E2;}
	.st9{fill-rule:evenodd;clip-rule:evenodd;fill:#BACDDA;}
	.st10{opacity:0.8;}
	.st11{fill-rule:evenodd;clip-rule:evenodd;fill:#BACDDA;stroke:#878787;stroke-miterlimit:10;}
	.st12{fill-rule:evenodd;clip-rule:evenodd;fill:#E1E2E1;}
	.st13{fill-rule:evenodd;clip-rule:evenodd;fill:#BACCD9;}
	.st14{fill-rule:evenodd;clip-rule:evenodd;fill:#FFFFFF;}
	.st15{fill:#FFFFFF;}
	.st16{fill:#BACDDA;}
</style>
<g>
	<g>
		<g>
			<g>
				<g>
					<polygon class="st6" points="11.4,186.5 74.9,160.9 74.9,9.2 11.4,34.6 					"/>
					<path class="st7" d="M11.4,187.1c-0.1,0-0.1,0-0.3-0.1c-0.1-0.1-0.3-0.3-0.3-0.5V34.6c0-0.3,0.1-0.5,0.4-0.5L74.8,8.5
						c0.1-0.1,0.4-0.1,0.5,0.1c0.1,0.1,0.3,0.3,0.3,0.5v151.7c0,0.3-0.1,0.5-0.4,0.5l-63.6,25.7C11.5,187.1,11.5,187.1,11.4,187.1z
						 M11.9,35v150.6l62.3-25.2V10.1L11.9,35z"/>
				</g>
				<g>
					<g>
						
							<rect x="8.8" y="173.1" transform="matrix(0.9277 -0.3734 0.3734 0.9277 -61.7524 28.6545)" class="st7" width="68.6" height="1.2"/>
					</g>
					<g>
						
							<rect x="8.8" y="159.3" transform="matrix(0.928 -0.3726 0.3726 0.928 -56.4858 27.5524)" class="st7" width="68.4" height="1.2"/>
					</g>
					<g>
						
							<rect x="8.8" y="145.5" transform="matrix(0.9277 -0.3734 0.3734 0.9277 -51.4385 26.6628)" class="st7" width="68.6" height="1.2"/>
					</g>
					<g>
						
							<rect x="8.8" y="131.7" transform="matrix(0.928 -0.3726 0.3726 0.928 -46.2039 25.5589)" class="st7" width="68.4" height="1.2"/>
					</g>
					<g>
						
							<rect x="8.8" y="117.9" transform="matrix(0.9277 -0.3734 0.3734 0.9277 -41.1347 24.6605)" class="st7" width="68.6" height="1.2"/>
					</g>
					<g>
						
							<rect x="9" y="104.2" transform="matrix(0.928 -0.3726 0.3726 0.928 -35.9372 23.6365)" class="st7" width="68.4" height="1.2"/>
					</g>
					<g>
						
							<rect x="8.8" y="90.3" transform="matrix(0.9277 -0.3734 0.3734 0.9277 -30.8208 22.6688)" class="st7" width="68.6" height="1.2"/>
					</g>
					<g>
						
							<rect x="8.8" y="76.5" transform="matrix(0.928 -0.3726 0.3726 0.928 -25.6301 21.5823)" class="st7" width="68.4" height="1.2"/>
					</g>
					<g>
						
							<rect x="8.8" y="62.7" transform="matrix(0.9277 -0.3734 0.3734 0.9277 -20.517 20.6665)" class="st7" width="68.6" height="1.2"/>
					</g>
					<g>
						
							<rect x="8.8" y="49" transform="matrix(0.928 -0.3726 0.3726 0.928 -15.3914 19.6167)" class="st7" width="68.4" height="1.2"/>
					</g>
					<g>
						
							<rect x="8.8" y="35.1" transform="matrix(0.9277 -0.3734 0.3734 0.9277 -10.2032 18.6748)" class="st7" width="68.6" height="1.2"/>
					</g>
					<g>
						
							<rect x="8.8" y="21.3" transform="matrix(0.928 -0.3726 0.3726 0.928 -5.0564 17.6057)" class="st7" width="68.4" height="1.2"/>
					</g>
				</g>
				<g>
					<g>
						<rect x="74.4" y="9.2" class="st7" width="1.2" height="151.7"/>
					</g>
					<g>
						<rect x="61.7" y="14.3" class="st7" width="1.2" height="151.7"/>
					</g>
					<g>
						<rect x="48.9" y="19.2" class="st7" width="1.2" height="151.8"/>
					</g>
					<g>
						<rect x="36.2" y="24.5" class="st7" width="1.2" height="151.7"/>
					</g>
					<g>
						<rect x="23.6" y="29.5" class="st7" width="1.2" height="151.7"/>
					</g>
					<g>
						<rect x="10.7" y="34.6" class="st7" width="1.2" height="151.8"/>
					</g>
				</g>
			</g>
			<g>
				<g>
					<polygon class="st6" points="138.5,186.5 74.9,160.9 74.9,9.2 138.5,34.6 					"/>
					<path class="st7" d="M138.5,187.1c-0.1,0-0.1,0-0.1,0l-63.6-25.7c-0.1-0.1-0.4-0.3-0.4-0.5V9.2c0-0.1,0.1-0.4,0.3-0.5
						c0.1-0.1,0.4-0.1,0.5-0.1L138.8,34c0.1,0.1,0.4,0.3,0.4,0.5v151.8c0,0.1-0.1,0.4-0.3,0.5C138.8,187.1,138.6,187.1,138.5,187.1z
						 M75.6,160.5l62.3,25.2V35L75.6,10.1V160.5z"/>
				</g>
				<g>
					<g>
						
							<rect x="106.2" y="139.5" transform="matrix(0.3746 -0.9272 0.9272 0.3746 -94.3289 207.6763)" class="st7" width="1.2" height="68.6"/>
					</g>
					<g>
						
							<rect x="106.1" y="125.7" transform="matrix(0.373 -0.9278 0.9278 0.373 -81.4531 199.2522)" class="st7" width="1.2" height="68.4"/>
					</g>
					<g>
						
							<rect x="106.2" y="111.8" transform="matrix(0.3747 -0.9272 0.9272 0.3747 -68.6506 190.3784)" class="st7" width="1.2" height="68.5"/>
					</g>
					<g>
						
							<rect x="106.2" y="98" transform="matrix(0.373 -0.9278 0.9278 0.373 -55.742 181.951)" class="st7" width="1.2" height="68.4"/>
					</g>
					<g>
						
							<rect x="106.1" y="84.3" transform="matrix(0.3747 -0.9272 0.9272 0.3747 -43.1629 173.0992)" class="st7" width="1.2" height="68.5"/>
					</g>
					<g>
						
							<rect x="106.1" y="70.5" transform="matrix(0.373 -0.9278 0.9278 0.373 -30.2371 164.623)" class="st7" width="1.2" height="68.4"/>
					</g>
					<g>
						
							<rect x="106.2" y="56.6" transform="matrix(0.3747 -0.9272 0.9272 0.3747 -17.4658 155.8471)" class="st7" width="1.2" height="68.5"/>
					</g>
					<g>
						
							<rect x="106.1" y="42.9" transform="matrix(0.373 -0.9278 0.9278 0.373 -4.6691 147.3537)" class="st7" width="1.2" height="68.4"/>
					</g>
					<g>
						
							<rect x="106.2" y="29.1" transform="matrix(0.3746 -0.9272 0.9272 0.3746 8.0476 138.5881)" class="st7" width="1.2" height="68.6"/>
					</g>
					<g>
						
							<rect x="106.1" y="15.3" transform="matrix(0.373 -0.9278 0.9278 0.373 20.9839 129.9938)" class="st7" width="1.2" height="68.4"/>
					</g>
					<g>
						
							<rect x="106.2" y="1.4" transform="matrix(0.3747 -0.9272 0.9272 0.3747 33.7188 121.3166)" class="st7" width="1.2" height="68.5"/>
					</g>
					<g>
						
							<rect x="106.1" y="-12.3" transform="matrix(0.373 -0.9278 0.9278 0.373 46.5503 112.725)" class="st7" width="1.2" height="68.4"/>
					</g>
				</g>
				<g>
					<g>
						<rect x="74.4" y="9.2" class="st7" width="1.2" height="151.7"/>
					</g>
					<g>
						<rect x="87" y="14.3" class="st7" width="1.2" height="151.7"/>
					</g>
					<g>
						<rect x="99.7" y="19.2" class="st7" width="1.2" height="151.8"/>
					</g>
					<g>
						<rect x="112.6" y="24.5" class="st7" width="1.2" height="151.7"/>
					</g>
					<g>
						<rect x="125.2" y="29.5" class="st7" width="1.2" height="151.7"/>
					</g>
					<g>
						<rect x="137.9" y="34.6" class="st7" width="1.2" height="151.8"/>
					</g>
				</g>
			</g>
		</g>
		<g>
			<polygon class="st6" points="0.5,182.3 11.5,186.5 11.5,34.8 0.5,30.4 			"/>
			<path class="st7" d="M11.5,187.1c-0.1,0-0.1,0-0.1,0l-10.8-4.3c-0.1-0.1-0.4-0.4-0.4-0.5V30.4c0-0.1,0.1-0.4,0.3-0.5
				c0.1-0.1,0.4-0.1,0.5-0.1l10.8,4.3c0.1,0.1,0.4,0.3,0.4,0.5v151.7c0,0.1-0.1,0.4-0.3,0.5C11.8,187.1,11.7,187.1,11.5,187.1z
				 M1.2,181.9l9.8,3.8V35.2l-9.8-3.8L1.2,181.9z"/>
		</g>
		<g>
			<polygon class="st6" points="138.5,34.8 149.3,30.4 149.3,182.3 138.5,186.5 			"/>
			<path class="st7" d="M138.5,187.1c-0.1,0-0.1,0-0.3-0.1c-0.1-0.1-0.3-0.3-0.3-0.5V34.8c0-0.3,0.1-0.5,0.4-0.5l10.8-4.3
				c0.1-0.1,0.4-0.1,0.5,0.1c0.1,0.1,0.3,0.3,0.3,0.5v151.7c0,0.3-0.1,0.5-0.4,0.5l-10.8,4.3C138.5,187.1,138.5,187.1,138.5,187.1z
				 M139,35.2v150.3l9.8-3.8V31.4L139,35.2z"/>
		</g>
		<g>
			<polygon class="st6" points="74.9,9.2 138.5,34.6 149.3,30.4 74.9,0.5 0.5,30.4 11.4,34.6 			"/>
			<path class="st7" d="M138.5,35.2c-0.1,0-0.1,0-0.1,0L74.9,9.7L11.5,35.2c-0.1,0.1-0.3,0.1-0.5,0L0.4,31C0.3,30.9,0,30.7,0,30.4
				c0-0.3,0.1-0.5,0.4-0.5L74.8,0c0.1,0,0.3,0,0.4,0l74.4,29.9c0.1,0.1,0.4,0.3,0.4,0.5s-0.1,0.5-0.4,0.5l-10.8,4.2
				C138.6,35.2,138.6,35.2,138.5,35.2z M74.9,8.5c0.1,0,0.1,0,0.1,0l63.4,25.3l9.1-3.7L74.9,1.4L2.3,30.4l9.1,3.7L74.8,8.5
				C74.8,8.5,74.8,8.5,74.9,8.5z"/>
		</g>
		<g>
			<polygon class="st8" points="125.2,70.1 75.3,50.2 75.5,37.3 125.2,57.4 			"/>
		</g>
		<g>
			<g>
				<path class="st7" d="M81.7,44.4l-1.9-0.7c-0.9-0.4-1.5,0.1-1.5,1.1v0.9c0,0.9,0.5,2,1.5,2.4l1.1,0.5l0,0
					c0.4,0.1,0.7-0.1,0.7-0.5l-1.9-0.7C79.1,47.4,79,47,79,46.4v-0.9c0-0.5,0.1-0.7,0.7-0.5l1.9,0.7v3.8c0,0.5-0.1,0.7-0.7,0.5
					l-1.1-0.5c-0.4-0.1-0.7,0.1-0.7,0.5l0.7,0.4l1.1,0.5c0.9,0.4,1.5-0.1,1.5-1.1V46C82.4,44.9,82.1,44.4,81.7,44.4"/>
			</g>
			<g>
				<path class="st7" d="M118.6,59.3c-0.9-0.4-1.5,0.1-1.5,1.1v1.8c0,0.5,0.4,0.9,0.7,1.1v-2.6c0-0.5,0.1-0.7,0.7-0.5l0.9,0.4
					c0.4,0.1,0.7-0.1,0.7-0.5L118.6,59.3z"/>
			</g>
			<g>
				<path class="st7" d="M88.9,50.6c-0.5-0.1-0.7-0.5-0.7-1.1v-1.8l1.1,0.5c0.4,0.1,0.7-0.1,0.7-0.5L88.1,47v-2
					c-0.4-0.1-0.7,0.1-0.7,0.5v3.7c0,0.9,0.5,2,1.5,2.4l0.4,0.1c0.4,0.1,0.7-0.1,0.7-0.5L88.9,50.6z"/>
			</g>
			<g>
				<path class="st7" d="M111,60.5c-0.9-0.4-1.5-1.4-1.5-2.4v-1.8l-2.4-0.9v1.8c0,0.5,0.1,0.9,0.7,1.1l1.1,0.5
					c0,0.5-0.4,0.7-0.7,0.5l-0.4-0.1c-0.9-0.4-1.5-1.4-1.5-2.4V53c0-0.5,0.4-0.7,0.7-0.5v2l2.4,0.9v-0.9c0-0.5,0.4-0.7,0.7-0.5v2
					l1.9,0.7c0,0.5-0.4,0.7-0.7,0.5l-1.1-0.4v1.8c0,0.5,0.1,0.9,0.7,1.1l0.4,0.1l0.7,0.4c0,0.5-0.4,0.7-0.7,0.5L111,60.5L111,60.5z"
					/>
			</g>
			<g>
				<path class="st7" d="M86.2,47v2.6c0,0.5,0.4,0.9,0.7,1.1v-4.3C86.3,46.1,86.2,46.4,86.2,47"/>
			</g>
			<g>
				<path class="st7" d="M84.3,48.7c-0.5-0.1-0.7-0.5-0.7-1.1v-2.6c-0.5-0.1-0.7,0.1-0.7,0.5v1.8c0,0.9,0.5,2,1.5,2.4l0.9,0.4
					c0.4,0.1,0.7-0.1,0.7-0.5L84.3,48.7z"/>
			</g>
			<g>
				<path class="st7" d="M100.4,52.8v1.8c0,0.5-0.4,0.7-0.7,0.5l-1.1-0.5V51c-0.4-0.1-0.7,0.1-0.7,0.5v2.6c0,0.5,0.4,0.9,0.7,1.1
					l1.1,0.5c0.9,0.4,1.5,0,1.5-1.1l0,0v-2.6C100.7,52.1,100.4,52.4,100.4,52.8 M96.6,53.7c-0.5-0.1-0.7-0.5-0.7-1.1v-2.6
					c-0.4-0.1-0.7,0.1-0.7,0.5v1.8c0,0.9,0.5,2,1.5,2.4l0.5,0.1c0.4,0.1,0.7-0.1,0.7-0.5L96.6,53.7z"/>
			</g>
			<g>
				<path class="st7" d="M91.9,50.1c-0.4,0-0.7,0.1-0.7,0.7v-0.8c0-0.5,0.1-0.7,0.7-0.5l1.4,0.5c0.5,0.1,0.7,0.5,0.7,1.1L91.9,50.1z
					 M94.6,51.3c0-0.9-0.5-2-1.5-2.4l-1.4-0.5c-0.9-0.4-1.5,0.1-1.5,1.1v0.9c0,0.9,0.5,2,1.5,2.4l1.8,0.5c0.4,0.1,0.7-0.1,0.7-0.5
					l-2.4-0.9c-0.5-0.1-0.7-0.5-0.7-1.1l2.8,1.1C94.3,52,94.6,51.7,94.6,51.3"/>
			</g>
			<g>
				<path class="st7" d="M103.3,54.7c-0.4-0.1-0.7,0.1-0.7,0.5v-0.9c0-0.5,0.1-0.7,0.7-0.5l1.4,0.5c0.5,0.1,0.7,0.5,0.7,1.1
					L103.3,54.7z M106.1,55.7c0-0.9-0.5-2-1.5-2.4l-1.4-0.5c-0.9-0.4-1.6,0.1-1.6,1.1v0.9c0,0.9,0.5,2,1.5,2.4l1.8,0.7
					c0.4,0.1,0.7-0.1,0.7-0.5l-2.4-0.9c-0.5-0.1-0.7-0.5-0.7-1.1l2.8,1.1C105.7,56.6,106.1,56.3,106.1,55.7"/>
			</g>
			<g>
				<path class="st7" d="M113.8,59c-0.4-0.1-0.7,0.1-0.7,0.5v-0.9c0-0.5,0.1-0.7,0.7-0.5l1.4,0.5c0.5,0.1,0.7,0.7,0.7,1.1L113.8,59z
					 M116.8,60.3c0-0.9-0.5-2-1.5-2.4l-1.4-0.5c-0.9-0.4-1.5,0.1-1.5,1.1v0.9c0,0.9,0.5,2,1.5,2.4l1.8,0.7c0.4,0.1,0.7-0.1,0.7-0.5
					L114,61c-0.5-0.1-0.7-0.7-0.7-1.1l2.8,1.1C116.4,60.9,116.8,60.6,116.8,60.3"/>
			</g>
			<g>
				<path class="st7" d="M121.3,59.9v-0.5c0,0,0,0,0-0.1c0-0.1,0,0,0.1,0l0.1,0.1c0,0,0.1,0,0.1,0.1s0.1,0.1,0.1,0.1
					c0,0.1-0.1,0.1-0.1,0.1h-0.1l0.1,0.4h-0.1l-0.1-0.4c0,0,0,0,0-0.1l0,0h0.1h0.1l0,0v-0.1c0,0,0,0,0-0.1c0,0,0,0-0.1,0l-0.1-0.1
					l0,0l0,0L121.3,59.9L121.3,59.9z M121.1,59.9c0.1,0.1,0.1,0.1,0.4,0.1c0.1,0,0.1,0.1,0.4,0c0.3-0.1,0.1-0.1,0.1-0.4
					c0-0.1,0-0.1-0.1-0.4c-0.1-0.1-0.1-0.1-0.4-0.1c-0.1,0-0.1-0.1-0.4,0c-0.1,0.1-0.1,0.1-0.1,0.4
					C121.1,59.7,121.1,59.8,121.1,59.9 M121.1,59c0.1-0.1,0.1,0,0.4,0c0.1,0,0.1,0.1,0.4,0.1c0.1,0.1,0.1,0.4,0.1,0.5s0,0.4-0.1,0.4
					c-0.1,0.1-0.1,0-0.4-0.1c-0.1-0.1-0.1-0.1-0.4-0.1c-0.1-0.1-0.1-0.4-0.1-0.5C121,59.3,121,59.3,121.1,59"/>
			</g>
		</g>
		<g>
			<g class="st3">
				<path class="st16" d="M24.3,181.7l24.9,11.1c16,8.8,35.2,8.9,52-0.1l24.7-10.8V43.3l-24.7,10.4c-16.9,9.3-36.2,8.9-52,0
					L24.3,43.3V181.7z"/>
				<path class="st7" d="M74.8,200c-8.9,0-17.9-2.2-26-6.6l-24.9-11.1c-0.1-0.1-0.3-0.3-0.3-0.5V43.3c0-0.1,0.1-0.4,0.3-0.5
					c0.1-0.1,0.4-0.1,0.5,0l24.9,10.4c16,9.1,35.2,9.1,51.5,0l24.7-10.4c0.1-0.1,0.4-0.1,0.5,0c0.1,0.1,0.3,0.3,0.3,0.5v138.4
					c0,0.1-0.1,0.4-0.3,0.5l-24.7,10.8C93.1,197.7,84,200,74.8,200z M24.8,181.3l24.7,11c16.3,8.9,35,8.8,51.5-0.3l24.3-10.6V44.4
					l-23.8,9.9c-16.7,9.3-36.3,9.3-52.7,0l-23.8-9.9V181.3L24.8,181.3z"/>
			</g>
			<g class="st10">
				<g>
					<rect x="44.7" y="52.3" class="st7" width="1.2" height="138.5"/>
				</g>
				<g>
					<rect x="103.9" y="51.9" class="st7" width="1.2" height="138.9"/>
				</g>
			</g>
		</g>
	</g>
</g>
</svg>
