<svg id="Light" xmlns="http://www.w3.org/2000/svg" viewBox="0 0 15 54"><defs><style>.cls-1{fill:#1d1d1f;}</style></defs><title>watch_nav_bands_large_</title><g id="bands"><path id="icon" class="cls-1" d="M.62,9.24h.63A1.24,1.24,0,0,1,2.5,10.47V30.24a5,5,0,0,0,10,0V10.47c0-.68,0-1.23,1.25-1.23h.63a.62.62,0,0,0,0-1.24H.62a.62.62,0,0,0,0,1.24Zm6.88,6a1.24,1.24,0,1,1-1.25,1.24A1.24,1.24,0,0,1,7.5,15.25Zm0,5.1a1.24,1.24,0,1,1-1.25,1.24A1.25,1.25,0,0,1,7.5,20.35Zm0,4.94a1.24,1.24,0,1,1-1.25,1.24A1.25,1.25,0,0,1,7.5,25.29Zm6.88,23.47h-.63c-1.25,0-1.25-.55-1.25-1.23V33.9a6.24,6.24,0,0,1-10,0V47.53a1.24,1.24,0,0,1-1.25,1.23H.62A.62.62,0,1,0,.62,50H14.38a.62.62,0,1,0,0-1.24Z"/></g></svg>