<?xml version="1.0" encoding="utf-8"?>
<!-- Generator: Adobe Illustrator 23.1.0, SVG Export Plug-In . SVG Version: 6.00 Build 0)  -->
<svg version="1.1" id="Слой_1" xmlns="http://www.w3.org/2000/svg" xmlns:xlink="http://www.w3.org/1999/xlink" x="0px" y="0px"
	 width="150px" height="200px" viewBox="0 0 150 200" style="enable-background:new 0 0 150 200;" xml:space="preserve">
<style type="text/css">
	.st0{fill:none;}
	.st1{fill:#E1E2E1;}
	.st2{fill:#868686;}
	.st3{opacity:0.8;enable-background:new    ;}
	.st4{fill:#BACCD9;}
	.st5{opacity:0.7;enable-background:new    ;}
	.st6{fill-rule:evenodd;clip-rule:evenodd;fill:#E1E2E2;}
	.st7{fill:#878787;}
	.st8{fill:#E1E2E2;}
	.st9{fill-rule:evenodd;clip-rule:evenodd;fill:#BACDDA;}
	.st10{opacity:0.8;}
	.st11{fill-rule:evenodd;clip-rule:evenodd;fill:#BACDDA;stroke:#878787;stroke-miterlimit:10;}
	.st12{fill-rule:evenodd;clip-rule:evenodd;fill:#E1E2E1;}
	.st13{fill-rule:evenodd;clip-rule:evenodd;fill:#BACCD9;}
	.st14{fill-rule:evenodd;clip-rule:evenodd;fill:#FFFFFF;}
	.st15{fill:#FFFFFF;}
	.st16{fill:#BACDDA;}
</style>
<g>
	<g>
		<g>
			<g>
				<polygon class="st6" points="11.4,187.2 75,161.5 75,9.2 11.4,34.8 				"/>
				<path class="st7" d="M11.4,187.8c-0.1,0-0.2,0-0.3-0.1c-0.2-0.1-0.3-0.3-0.3-0.5V34.8c0-0.3,0.2-0.5,0.4-0.6L74.8,8.6
					c0.2-0.1,0.4-0.1,0.6,0.1c0.2,0.1,0.3,0.3,0.3,0.5v152.3c0,0.3-0.2,0.5-0.4,0.6l-63.6,25.7C11.6,187.8,11.5,187.8,11.4,187.8z
					 M12,35.2v151L74.4,161V10.1L12,35.2z"/>
			</g>
			<g>
				<g>
					<polygon class="st7" points="11.6,187.7 11.2,186.6 74.8,160.9 75.1,162 					"/>
				</g>
				<g>
					
						<rect x="8.9" y="159.8" transform="matrix(0.9279 -0.3727 0.3727 0.9279 -56.6855 27.6252)" class="st7" width="68.5" height="1.2"/>
				</g>
				<g>
					<polygon class="st7" points="11.6,160 11.2,158.9 74.8,133.2 75.1,134.3 					"/>
				</g>
				<g>
					
						<rect x="8.9" y="132.1" transform="matrix(0.9279 -0.3727 0.3727 0.9279 -46.3616 25.6285)" class="st7" width="68.5" height="1.2"/>
				</g>
				<g>
					<polygon class="st7" points="11.6,132.3 11.2,131.2 74.8,105.5 75.1,106.6 					"/>
				</g>
				<g>
					
						<rect x="8.9" y="104.4" transform="matrix(0.9279 -0.3727 0.3727 0.9279 -36.0378 23.6318)" class="st7" width="68.5" height="1.2"/>
				</g>
				<g>
					<polygon class="st7" points="11.6,104.7 11.2,103.5 74.8,77.8 75.1,78.9 					"/>
				</g>
				<g>
					
						<rect x="8.9" y="76.8" transform="matrix(0.9279 -0.3727 0.3727 0.9279 -25.7459 21.6556)" class="st7" width="68.5" height="1.2"/>
				</g>
				<g>
					<polygon class="st7" points="11.6,77 11.2,75.8 74.8,50.1 75.1,51.2 					"/>
				</g>
				<g>
					
						<rect x="8.9" y="49.1" transform="matrix(0.9279 -0.3727 0.3727 0.9279 -15.4221 19.6589)" class="st7" width="68.5" height="1.2"/>
				</g>
				<g>
					<polygon class="st7" points="11.6,49.3 11.2,48.1 74.8,22.4 75.1,23.6 					"/>
				</g>
				<g>
					
						<rect x="8.9" y="21.4" transform="matrix(0.9279 -0.3727 0.3727 0.9279 -5.0983 17.6622)" class="st7" width="68.5" height="1.2"/>
				</g>
			</g>
			<g>
				<g>
					<rect x="74.4" y="9.2" class="st7" width="1.2" height="152.3"/>
				</g>
				<g>
					<rect x="61.7" y="14.3" class="st7" width="1.2" height="152.3"/>
				</g>
				<g>
					<rect x="49" y="19.4" class="st7" width="1.2" height="152.4"/>
				</g>
				<g>
					<rect x="36.2" y="24.6" class="st7" width="1.2" height="152.3"/>
				</g>
				<g>
					<rect x="23.6" y="29.7" class="st7" width="1.2" height="152.3"/>
				</g>
				<g>
					<rect x="10.8" y="34.8" class="st7" width="1.2" height="152.4"/>
				</g>
			</g>
		</g>
		<g>
			<g>
				<polygon class="st6" points="138.5,187.2 75,161.5 75,9.2 138.5,34.8 				"/>
				<path class="st7" d="M138.5,187.8c-0.1,0-0.2,0-0.2,0L74.8,162c-0.2-0.1-0.4-0.3-0.4-0.6V9.2c0-0.2,0.1-0.4,0.3-0.5
					c0.2-0.1,0.4-0.1,0.6-0.1l63.6,25.6c0.2,0.1,0.4,0.3,0.4,0.6v152.4c0,0.2-0.1,0.4-0.3,0.5C138.7,187.7,138.6,187.8,138.5,187.8z
					 M75.5,161l62.4,25.2v-151L75.5,10.1V161z"/>
			</g>
			<g>
				<g>
					
						<rect x="106.1" y="140" transform="matrix(0.3746 -0.9272 0.9272 0.3746 -94.8723 207.9644)" class="st7" width="1.2" height="68.6"/>
				</g>
				<g>
					
						<rect x="106.1" y="126.2" transform="matrix(0.373 -0.9278 0.9278 0.373 -81.9657 199.6098)" class="st7" width="1.2" height="68.5"/>
				</g>
				<g>
					
						<rect x="106.1" y="112.3" transform="matrix(0.3746 -0.9272 0.9272 0.3746 -69.1909 190.636)" class="st7" width="1.2" height="68.6"/>
				</g>
				<g>
					
						<rect x="106.1" y="98.5" transform="matrix(0.373 -0.9278 0.9278 0.373 -56.272 182.2441)" class="st7" width="1.2" height="68.5"/>
				</g>
				<g>
					
						<rect x="106.1" y="84.6" transform="matrix(0.3746 -0.9272 0.9272 0.3746 -43.5129 173.31)" class="st7" width="1.2" height="68.6"/>
				</g>
				<g>
					
						<rect x="106.1" y="70.8" transform="matrix(0.373 -0.9278 0.9278 0.373 -30.5765 164.8755)" class="st7" width="1.2" height="68.5"/>
				</g>
				<g>
					
						<rect x="106.1" y="56.9" transform="matrix(0.3746 -0.9272 0.9272 0.3746 -17.8349 155.9838)" class="st7" width="1.2" height="68.6"/>
				</g>
				<g>
					
						<rect x="106.1" y="43.1" transform="matrix(0.373 -0.9278 0.9278 0.373 -4.8803 147.5059)" class="st7" width="1.2" height="68.5"/>
				</g>
				<g>
					
						<rect x="106.1" y="29.2" transform="matrix(0.3746 -0.9272 0.9272 0.3746 7.8431 138.659)" class="st7" width="1.2" height="68.6"/>
				</g>
				<g>
					
						<rect x="106.1" y="15.4" transform="matrix(0.373 -0.9278 0.9278 0.373 20.815 130.1375)" class="st7" width="1.2" height="68.5"/>
				</g>
				<g>
					
						<rect x="106.1" y="1.5" transform="matrix(0.3746 -0.9272 0.9272 0.3746 33.5217 121.332)" class="st7" width="1.2" height="68.6"/>
				</g>
				<g>
					
						<rect x="106.1" y="-12.3" transform="matrix(0.373 -0.9278 0.9278 0.373 46.5108 112.7691)" class="st7" width="1.2" height="68.5"/>
				</g>
			</g>
			<g>
				<g>
					<rect x="74.4" y="9.2" class="st7" width="1.2" height="152.3"/>
				</g>
				<g>
					<rect x="87" y="14.3" class="st7" width="1.2" height="152.3"/>
				</g>
				<g>
					<rect x="99.7" y="19.4" class="st7" width="1.2" height="152.4"/>
				</g>
				<g>
					<rect x="112.5" y="24.6" class="st7" width="1.2" height="152.3"/>
				</g>
				<g>
					<rect x="125.2" y="29.7" class="st7" width="1.2" height="152.3"/>
				</g>
				<g>
					<rect x="137.9" y="34.8" class="st7" width="1.2" height="152.4"/>
				</g>
			</g>
		</g>
	</g>
	<g>
		<polygon class="st6" points="0.6,182.8 11.5,187.2 11.5,34.9 0.6,30.6 		"/>
		<path class="st7" d="M11.5,187.8c-0.1,0-0.2,0-0.2,0l-10.9-4.3c-0.2-0.1-0.4-0.3-0.4-0.6V30.6c0-0.2,0.1-0.4,0.3-0.5
			S0.7,30,0.9,30l10.9,4.3c0.2,0.1,0.4,0.3,0.4,0.6v152.3c0,0.2-0.1,0.4-0.3,0.5C11.8,187.7,11.7,187.8,11.5,187.8z M1.2,182.4
			l9.7,3.9v-151l-9.7-3.9C1.2,31.4,1.2,182.4,1.2,182.4z"/>
	</g>
	<g>
		<polygon class="st6" points="138.4,34.9 149.3,30.6 149.3,182.8 138.4,187.2 		"/>
		<path class="st7" d="M138.4,187.8c-0.1,0-0.2,0-0.3-0.1c-0.2-0.1-0.3-0.3-0.3-0.5V34.9c0-0.3,0.2-0.5,0.4-0.6l10.9-4.3
			c0.2-0.1,0.4-0.1,0.6,0.1c0.2,0.1,0.3,0.3,0.3,0.5v152.3c0,0.3-0.2,0.5-0.4,0.6l-10.9,4.3C138.5,187.8,138.4,187.8,138.4,187.8z
			 M139,35.3v150.9l9.7-3.9V31.5L139,35.3z"/>
	</g>
	<g>
		<polygon class="st6" points="75,9.2 138.5,34.8 149.3,30.6 75,0.6 0.6,30.6 11.4,34.8 		"/>
		<path class="st7" d="M138.5,35.4c-0.1,0-0.2,0-0.2,0L75,9.9L11.6,35.4c-0.1,0.1-0.3,0.1-0.5,0L0.4,31.1C0.2,31,0,30.8,0,30.6
			s0.2-0.5,0.4-0.6L74.8,0c0.1,0,0.3,0,0.4,0l74.4,30c0.2,0.1,0.4,0.3,0.4,0.6c0,0.3-0.2,0.5-0.4,0.6l-10.8,4.2
			C138.6,35.4,138.6,35.4,138.5,35.4z M75,8.6c0.1,0,0.2,0,0.2,0l63.4,25.5l9.1-3.6L75,1.3L2.3,30.5l9.1,3.6L74.8,8.6
			C74.8,8.6,74.9,8.6,75,8.6z"/>
	</g>
	<g>
		<polygon class="st8" points="125.1,70.3 75.3,50.4 75.4,37.5 125.1,57.6 		"/>
	</g>
	<g>
		<g>
			<path class="st7" d="M81.6,44.5l-1.9-0.7c-1-0.4-1.5,0.1-1.5,1.1v0.9c0,1,0.6,2,1.5,2.4l1.1,0.5l0,0c0.4,0.1,0.7-0.1,0.7-0.6
				l-1.9-0.7c-0.5-0.2-0.7-0.6-0.7-1.1v-0.9c0-0.5,0.2-0.7,0.7-0.6l1.9,0.7v3.9c0,0.5-0.2,0.7-0.7,0.6l-1.1-0.5
				c-0.4-0.1-0.7,0.1-0.7,0.6l0.7,0.4l1.1,0.5c1,0.4,1.5-0.1,1.5-1.1V46C82.3,45.1,82,44.6,81.6,44.5"/>
		</g>
		<g>
			<path class="st7" d="M118.5,59.5c-1-0.4-1.5,0.1-1.5,1.1v1.7c0,0.5,0.4,1,0.7,1.1v-2.6c0-0.5,0.2-0.7,0.7-0.5l1,0.4
				c0.4,0.1,0.7-0.1,0.7-0.5L118.5,59.5z"/>
		</g>
		<g>
			<path class="st7" d="M88.8,50.8c-0.5-0.2-0.7-0.6-0.7-1.1V48l1.1,0.5c0.4,0.1,0.7-0.1,0.7-0.6L88,47.2v-2
				c-0.4-0.1-0.7,0.1-0.7,0.6v3.7c0,1,0.6,2,1.5,2.4l0.4,0.1c0.4,0.1,0.7-0.1,0.7-0.6L88.8,50.8z"/>
		</g>
		<g>
			<path class="st7" d="M111,60.7c-1-0.4-1.5-1.4-1.5-2.4v-1.7l-2.4-1v1.7c0,0.5,0.2,1,0.7,1.1l1.1,0.5c0,0.5-0.4,0.7-0.7,0.5
				l-0.4-0.1c-1-0.4-1.5-1.4-1.5-2.4v-3.7c0-0.5,0.4-0.7,0.7-0.6v2l2.4,1v-1c0-0.5,0.4-0.7,0.7-0.6v2l1.9,0.7c0,0.5-0.4,0.7-0.7,0.5
				l-1.1-0.4v1.7c0,0.5,0.2,1,0.7,1.1l0.4,0.1l0.7,0.4c0,0.5-0.4,0.7-0.7,0.5H111V60.7z"/>
		</g>
		<g>
			<path class="st7" d="M86.1,47.1v2.6c0,0.5,0.4,1,0.7,1.1v-4.3C86.3,46.3,86.1,46.6,86.1,47.1"/>
		</g>
		<g>
			<path class="st7" d="M84.2,48.9c-0.5-0.2-0.7-0.6-0.7-1.1v-2.6c-0.5-0.1-0.7,0.1-0.7,0.6v1.7c0,1,0.6,2,1.5,2.4l1,0.4
				c0.4,0.1,0.7-0.1,0.7-0.6L84.2,48.9z"/>
		</g>
		<g>
			<path class="st7" d="M100.4,52.9v1.7c0,0.5-0.4,0.7-0.7,0.6l-1.1-0.5v-3.5c-0.4-0.1-0.7,0.1-0.7,0.6v2.6c0,0.5,0.4,1,0.7,1.1
				l1.1,0.5c0.9,0.4,1.5,0,1.5-1.1l0,0v-2.6C100.7,52.3,100.4,52.5,100.4,52.9 M96.5,53.9c-0.5-0.2-0.7-0.6-0.7-1.1v-2.6
				c-0.4-0.1-0.7,0.1-0.7,0.6v1.7c0,1,0.6,2,1.5,2.4l0.6,0.2c0.4,0.1,0.7-0.1,0.7-0.6L96.5,53.9z"/>
		</g>
		<g>
			<path class="st7" d="M91.8,50.3c-0.4-0.1-0.7,0.1-0.7,0.6V50c0-0.5,0.2-0.7,0.7-0.6l1.4,0.5c0.5,0.2,0.7,0.6,0.7,1.1L91.8,50.3z
				 M94.5,51.4c0-1-0.6-2-1.5-2.4l-1.4-0.5c-1-0.4-1.5,0.1-1.5,1.1v0.9c0,1,0.6,2,1.5,2.4l1.7,0.6c0.4,0.1,0.7-0.1,0.7-0.6l-2.5-1
				c-0.5-0.2-0.7-0.6-0.7-1.1l2.9,1.1C94.2,52.2,94.5,51.9,94.5,51.4"/>
		</g>
		<g>
			<path class="st7" d="M103.2,54.9c-0.4-0.1-0.7,0.1-0.7,0.6v-0.9c0-0.5,0.2-0.7,0.7-0.6l1.4,0.5c0.5,0.2,0.7,0.6,0.7,1.1
				L103.2,54.9z M106,56c0-1-0.6-2-1.5-2.4l-1.4-0.5c-1-0.4-1.6,0.2-1.6,1.1v0.9c0,1,0.6,2,1.5,2.4l1.7,0.7c0.4,0.1,0.7-0.1,0.7-0.5
				l-2.5-1c-0.5-0.2-0.7-0.6-0.7-1.1l2.9,1.1C105.6,56.8,106,56.5,106,56"/>
		</g>
		<g>
			<path class="st7" d="M113.8,59.2c-0.4-0.1-0.7,0.1-0.7,0.5v-0.9c0-0.5,0.2-0.7,0.7-0.5l1.4,0.5c0.5,0.2,0.7,0.7,0.7,1.1
				L113.8,59.2z M116.7,60.5c0-1-0.6-2-1.5-2.4l-1.4-0.5c-1-0.4-1.5,0.1-1.5,1.1v0.9c0,1,0.6,2,1.5,2.4l1.7,0.7
				c0.4,0.1,0.7-0.1,0.7-0.5l-2.5-1c-0.5-0.2-0.7-0.7-0.7-1.1l2.9,1.1C116.3,61.1,116.7,60.9,116.7,60.5"/>
		</g>
		<g>
			<path class="st7" d="M121.3,60.1v-0.5c0,0,0,0,0-0.1s0,0,0.1,0l0.2,0.1c0,0,0.1,0,0.1,0.1s0.1,0.1,0.1,0.2c0,0.2-0.1,0.1-0.1,0.1
				h-0.1l0.2,0.4h-0.1l-0.2-0.4c0,0,0,0,0-0.1l0,0h0.1h0.1l0,0v-0.1c0,0,0,0,0-0.1c0,0,0,0-0.1,0l-0.2-0.1l0,0l0,0L121.3,60.1
				L121.3,60.1z M121.1,60.1c0.1,0.2,0.2,0.2,0.4,0.2c0.1,0,0.2,0.1,0.4,0c0.1-0.1,0.1-0.2,0.1-0.4c0-0.1,0-0.2-0.1-0.4
				c-0.1-0.2-0.2-0.2-0.4-0.2c-0.1,0-0.2-0.1-0.4,0c-0.1,0.1-0.1,0.2-0.1,0.4C121.1,59.9,121.1,60,121.1,60.1 M121.1,59.2
				c0.1-0.1,0.2,0,0.4,0c0.1,0,0.2,0.1,0.4,0.2c0.1,0.1,0.1,0.4,0.1,0.5s0,0.4-0.1,0.4c-0.1,0.1-0.2,0-0.4-0.1
				c-0.1-0.1-0.2-0.1-0.4-0.2c-0.1-0.1-0.1-0.4-0.1-0.5C121,59.5,121,59.4,121.1,59.2"/>
		</g>
	</g>
	<g class="st3">
		<path class="st9" d="M24,43.1L24,43.1c29.8,23.7,72,23.7,101.7,0h0.1v138.5l0,0c-29.8,23.7-72,23.7-101.7,0.1l-0.1-0.1L24,43.1
			L24,43.1z"/>
		<path class="st7" d="M75,200c-18.5,0-36.7-6.3-51.2-17.8l-0.2-0.2c-0.1-0.1-0.2-0.3-0.2-0.4V43.1c0-0.2,0.1-0.5,0.4-0.6
			c0.2-0.1,0.5-0.1,0.7,0.1c29.7,23.7,71.3,23.7,100.9,0c0.4-0.3,1.1,0,1.1,0.5v138.5c0,0.2-0.1,0.4-0.2,0.5
			C111.7,193.6,93.5,200,75,200L75,200z M24.7,181.3c29.6,23.5,71,23.4,100.6,0v-137C110.9,55.4,93,61.5,74.9,61.5
			c-18.1,0-35.9-6.1-50.3-17.1L24.7,181.3L24.7,181.3z"/>
	</g>
</g>
</svg>
