<?xml version="1.0" encoding="utf-8"?>
<!-- Generator: Adobe Illustrator 23.1.0, SVG Export Plug-In . SVG Version: 6.00 Build 0)  -->
<svg version="1.1" id="Слой_1" xmlns="http://www.w3.org/2000/svg" xmlns:xlink="http://www.w3.org/1999/xlink" x="0px" y="0px"
	 width="150px" height="200px" viewBox="0 0 150 200" style="enable-background:new 0 0 150 200;" xml:space="preserve">
<style type="text/css">
	.st0{fill:none;}
	.st1{fill:#E1E2E1;}
	.st2{fill:#868686;}
	.st3{opacity:0.8;enable-background:new    ;}
	.st4{fill:#BACCD9;}
	.st5{opacity:0.7;enable-background:new    ;}
	.st6{fill-rule:evenodd;clip-rule:evenodd;fill:#E1E2E2;}
	.st7{fill:#878787;}
	.st8{fill:#E1E2E2;}
	.st9{fill-rule:evenodd;clip-rule:evenodd;fill:#BACDDA;}
	.st10{opacity:0.8;}
	.st11{fill-rule:evenodd;clip-rule:evenodd;fill:#BACDDA;stroke:#878787;stroke-miterlimit:10;}
	.st12{fill-rule:evenodd;clip-rule:evenodd;fill:#E1E2E1;}
	.st13{fill-rule:evenodd;clip-rule:evenodd;fill:#BACCD9;}
	.st14{fill-rule:evenodd;clip-rule:evenodd;fill:#FFFFFF;}
	.st15{fill:#FFFFFF;}
	.st16{fill:#BACDDA;}
</style>
<g>
	<g>
		<g>
			<g>
				<polygon class="st6" points="35.8,0.6 26,4.6 147.3,52.6 150.1,45.8 				"/>
				<path class="st7" d="M147.3,53.2c-0.1,0-0.2,0-0.2,0L25.8,5.2c-0.2-0.1-0.4-0.3-0.4-0.5c0-0.3,0.1-0.4,0.4-0.5l9.8-4.1
					C35.7,0,35.9,0,36.1,0l114.3,45.2c0.3,0.1,0.5,0.4,0.4,0.7l-2.8,6.8c-0.1,0.2-0.2,0.3-0.3,0.3C147.4,53.2,147.4,53.2,147.3,53.2
					z M27.6,4.6L147,51.8l2.4-5.7L35.8,1.2L27.6,4.6z"/>
			</g>
		</g>
		<g>
			<polygon class="st6" points="139.4,189.4 26.1,144.5 26.1,4.9 139.4,49.6 			"/>
			<path class="st7" d="M139.4,189.9c-0.1,0-0.2,0-0.2,0L25.9,145.1c-0.2-0.1-0.4-0.3-0.4-0.5V4.9c0-0.2,0.1-0.3,0.3-0.4
				c0.2-0.1,0.4-0.1,0.5-0.1l113.3,44.7c0.2,0.1,0.4,0.3,0.4,0.5v139.7c0,0.2-0.1,0.3-0.3,0.4C139.7,189.9,139.5,189.9,139.4,189.9z
				 M26.7,144.2l112.1,44.3V50.1L26.7,5.7V144.2z"/>
		</g>
		<g>
			<g>
				<rect x="138.9" y="49.9" class="st7" width="1.2" height="138.5"/>
			</g>
			<g>
				<rect x="126.3" y="44.9" class="st7" width="1.2" height="138.5"/>
			</g>
			<g>
				<rect x="113.7" y="39.8" class="st7" width="1.2" height="138.8"/>
			</g>
			<g>
				<rect x="101.1" y="34.7" class="st7" width="1.2" height="139.1"/>
			</g>
			<g>
				<rect x="88.4" y="29.7" class="st7" width="1.2" height="139.2"/>
			</g>
			<g>
				<rect x="75.8" y="24.7" class="st7" width="1.2" height="139.3"/>
			</g>
			<g>
				<rect x="63.2" y="19.6" class="st7" width="1.2" height="139.6"/>
			</g>
			<g>
				<rect x="38" y="9.6" class="st7" width="1.2" height="139.8"/>
			</g>
			<g>
				<rect x="50.6" y="14.5" class="st7" width="1.2" height="139.8"/>
			</g>
			<g>
				<rect x="25.4" y="4.5" class="st7" width="1.2" height="140"/>
			</g>
		</g>
		<g>
			<g>
				<g>
					<polygon class="st7" points="25.9,5.4 26.3,4.3 139.6,49.1 139.2,50.1 					"/>
				</g>
				<g>
					<polygon class="st7" points="26,18.1 26.4,17.1 139.7,61.8 139.3,62.9 					"/>
				</g>
				<g>
					<polygon class="st7" points="25.9,30.7 26.4,29.7 139.7,74.6 139.2,75.6 					"/>
				</g>
				<g>
					<polygon class="st7" points="25.9,43.4 26.4,42.4 139.7,87.3 139.2,88.3 					"/>
				</g>
				<g>
					<polygon class="st7" points="25.9,56.2 26.4,55.1 139.6,100 139.2,101 					"/>
				</g>
				<g>
					<polygon class="st7" points="25.9,68.9 26.4,67.8 139.7,112.6 139.3,113.7 					"/>
				</g>
				<g>
					<polygon class="st7" points="25.9,81.6 26.4,80.6 139.7,125.3 139.3,126.4 					"/>
				</g>
				<g>
					<polygon class="st7" points="25.9,94.3 26.3,93.3 139.5,138 139,139.1 					"/>
				</g>
				<g>
					<polygon class="st7" points="25.9,107 26.4,105.9 139.6,150.8 139.1,151.9 					"/>
				</g>
				<g>
					<polygon class="st7" points="25.9,119.7 26.4,118.6 139.6,163.5 139.1,164.6 					"/>
				</g>
				<g>
					<polygon class="st7" points="25.9,132.4 26.4,131.4 139.6,176.2 139.1,177.3 					"/>
				</g>
				<g>
					<polygon class="st7" points="25.9,145.1 26.4,144.1 139.5,189 139.1,190 					"/>
				</g>
			</g>
		</g>
	</g>
	<g>
		<polygon class="st8" points="124.5,81.3 77.5,63.3 77.5,51.9 124.8,70.1 		"/>
	</g>
	<g>
		<g>
			<path class="st7" d="M84.6,58.6l-1.8-0.7c-0.9-0.3-1.5,0.1-1.5,1v0.8c0,0.9,0.6,1.8,1.5,2.2l1.1,0.4l0,0c0.4,0.1,0.7-0.1,0.7-0.4
				l-1.8-0.7c-0.4-0.2-0.6-0.7-0.6-1v-0.9c0-0.4,0.3-0.7,0.7-0.4l1.8,0.7v3.5c0,0.4-0.3,0.7-0.7,0.4l-1.1-0.6
				c-0.4-0.1-0.7,0.1-0.7,0.4l0.7,0.3l1.1,0.4c0.9,0.3,1.5-0.1,1.5-1v-3.5C85.4,59.3,85,58.8,84.6,58.6"/>
		</g>
		<g>
			<path class="st7" d="M120.2,72.3c-0.9-0.3-1.5,0.1-1.5,1V75c0,0.4,0.4,0.9,0.7,1v-2.4c0-0.4,0.3-0.7,0.7-0.4l0.9,0.3
				c0.4,0.1,0.7-0.1,0.7-0.4L120.2,72.3z"/>
		</g>
		<g>
			<path class="st7" d="M91.6,64.5c-0.5-0.3-0.7-0.7-0.7-1v-1.6l1.1,0.4c0.4,0.1,0.7-0.1,0.7-0.4l-1.8-0.7v-1.8
				c-0.4-0.1-0.7,0.1-0.7,0.4v3.3c0,0.9,0.6,1.8,1.5,2.2l0.4,0.1c0.4,0.1,0.7-0.1,0.7-0.4L91.6,64.5z"/>
		</g>
		<g>
			<path class="st7" d="M113,73.5c-0.9-0.3-1.5-1.2-1.5-2.2v-1.5l-2.3-0.9v1.6c0,0.4,0.3,0.9,0.7,1l1.1,0.4c0,0.4-0.4,0.7-0.7,0.4
				l-0.4-0.1c-0.9-0.3-1.5-1.2-1.5-2.2v-3.3c0-0.4,0.4-0.7,0.7-0.4v1.8l2.3,0.9v-1c0-0.4,0.4-0.7,0.7-0.4v1.8l1.8,0.7
				c0,0.4-0.4,0.7-0.7,0.4l-1.1-0.4v1.6c0,0.4,0.3,0.9,0.7,1l0.4,0.1l0.7,0.3c0,0.4-0.4,0.7-0.7,0.4L113,73.5z"/>
		</g>
		<g>
			<path class="st7" d="M88.9,61.1v2.4c0,0.4,0.4,0.9,0.7,1v-4C89.3,60.4,88.9,60.7,88.9,61.1"/>
		</g>
		<g>
			<path class="st7" d="M87.2,62.9c-0.5-0.3-0.7-0.7-0.7-1v-2.4c-0.5-0.1-0.7,0.1-0.7,0.4v1.6c0,0.9,0.6,1.8,1.5,2.2l0.9,0.3
				c0.4,0.1,0.7-0.1,0.7-0.4L87.2,62.9z"/>
		</g>
		<g>
			<path class="st7" d="M102.8,66.4v1.7c0,0.4-0.4,0.7-0.7,0.4l-1.1-0.4v-3.2c-0.4-0.1-0.7,0.1-0.7,0.4v2.4c0,0.4,0.4,0.9,0.7,1
				l1.1,0.4c0.8,0.3,1.5,0,1.5-1l0,0v-2.4C103.2,65.7,102.8,66,102.8,66.4 M99,67.4c-0.5-0.3-0.7-0.7-0.7-1V64
				c-0.4-0.1-0.7,0.1-0.7,0.4V66c0,0.9,0.6,1.8,1.5,2.2l0.6,0.3c0.4,0.1,0.7-0.1,0.7-0.4L99,67.4z"/>
		</g>
		<g>
			<path class="st7" d="M94.4,64c-0.4-0.1-0.7,0.1-0.7,0.4v-0.8c0-0.4,0.3-0.7,0.7-0.4l1.3,0.4c0.5,0.3,0.7,0.7,0.7,1L94.4,64z
				 M97.2,65.1c0-0.9-0.6-1.8-1.5-2.2l-1.3-0.4c-0.9-0.3-1.5,0.1-1.5,1v0.8c0,0.9,0.6,1.8,1.5,2.2l1.6,0.7c0.4,0.1,0.7-0.1,0.7-0.4
				l-2.4-0.9c-0.5-0.3-0.7-0.7-0.7-1l2.7,1C96.8,65.6,97.2,65.6,97.2,65.1"/>
		</g>
		<g>
			<path class="st7" d="M105.4,68.3c-0.4-0.1-0.7,0.1-0.7,0.4v-0.8c0-0.4,0.3-0.7,0.7-0.4l1.3,0.4c0.5,0.3,0.7,0.7,0.7,1L105.4,68.3
				z M108.1,69.3c0-0.9-0.6-1.8-1.5-2.2l-1.3-0.4c-0.9-0.3-1.5,0.1-1.5,1v0.8c0,0.9,0.6,1.8,1.5,2.2l1.6,0.7
				c0.4,0.1,0.7-0.1,0.7-0.4l-2.4-1c-0.5-0.3-0.7-0.7-0.7-1l2.7,1C107.8,70,108.1,69.7,108.1,69.3"/>
		</g>
		<g>
			<path class="st7" d="M115.7,72.3c-0.4-0.1-0.7,0.1-0.7,0.4v-0.8c0-0.4,0.3-0.7,0.7-0.4l1.3,0.4c0.5,0.3,0.7,0.7,0.7,1L115.7,72.3
				z M118.5,73.3c0-0.9-0.6-1.8-1.5-2.2l-1.3-0.4c-0.9-0.3-1.5,0.1-1.5,1v0.7c0,0.9,0.6,1.8,1.5,2.2l1.6,0.7
				c0.4,0.1,0.7-0.1,0.7-0.4l-2.4-0.9c-0.5-0.3-0.7-0.7-0.7-1l2.7,1C118.1,73.9,118.5,73.7,118.5,73.3"/>
		</g>
		<g>
			<path class="st7" d="M122.9,73v-0.6c0,0,0,0,0-0.1s0,0,0.1,0l0.3,0.1c0,0,0.1,0,0.1,0.1c0,0.1,0.1,0.1,0.1,0.3
				c0,0.3-0.1,0.1-0.1,0.1h-0.1l0.3,0.3h-0.2l-0.3-0.3c0,0,0,0,0-0.1l0,0h0.1h0.1l0,0v-0.1c0,0,0,0,0-0.1c0,0,0,0-0.1,0l-0.3-0.1
				l0,0l0,0L122.9,73L122.9,73z M122.7,73c0.1,0.3,0.3,0.3,0.4,0.3c0.1,0,0.3,0.1,0.4,0c0.1-0.1,0.1-0.3,0.1-0.3s0-0.3-0.1-0.3
				c-0.1-0.3-0.3-0.3-0.4-0.3c-0.1,0-0.3-0.1-0.4,0c-0.1,0.1-0.1,0.3-0.1,0.3C122.7,72.7,122.7,73,122.7,73 M122.7,72.3
				c0.1-0.1,0.3,0,0.4,0c0.1,0,0.3,0.1,0.4,0.3c0.1,0.1,0.1,0.3,0.1,0.4c0,0.1,0,0.3-0.1,0.3c-0.1,0.1-0.3,0-0.4-0.1
				c-0.1,0-0.3-0.1-0.4-0.3c-0.1-0.1-0.1-0.3-0.1-0.4C122.6,72.4,122.6,72.3,122.7,72.3"/>
		</g>
	</g>
	<g class="st3">
		<polygon class="st9" points="38.8,150.5 1.4,164.9 1.4,37.3 38.8,22.9 		"/>
		<path class="st7" d="M1.4,165.5c-0.1,0-0.3,0-0.4-0.1c-0.2-0.1-0.3-0.3-0.3-0.5V37.3c0-0.3,0.2-0.4,0.4-0.5l37.5-14.5
			c0.2-0.1,0.4-0.1,0.5,0.1c0.2,0.1,0.3,0.3,0.3,0.4v127.7c0,0.3-0.2,0.4-0.4,0.5L1.6,165.4C1.5,165.5,1.4,165.5,1.4,165.5z
			 M1.9,37.7v126.4l36.3-13.9V23.7L1.9,37.7z"/>
	</g>
	<g class="st3">
		<polygon class="st11" points="1.6,165.7 89.5,199.6 89.5,71.8 1.6,38 		"/>
	</g>
	<g class="st3">
		<polygon class="st9" points="126.9,185 89.5,199.5 89.5,71.8 126.9,57.4 		"/>
		<path class="st7" d="M89.5,200c-0.1,0-0.3,0-0.4-0.1c-0.2-0.1-0.3-0.3-0.3-0.4V71.8c0-0.3,0.2-0.4,0.4-0.5l37.5-14.5
			c0.2-0.1,0.4-0.1,0.5,0.1c0.2,0.1,0.3,0.3,0.3,0.4V185c0,0.3-0.2,0.4-0.4,0.5L89.7,200C89.6,200,89.5,200,89.5,200z M90,72.2
			v126.4l36.3-13.9V58.2L90,72.2z"/>
	</g>
	<g>
		<polygon class="st6" points="139.4,49.9 150.1,45.9 150.1,185.5 139.4,189.5 		"/>
		<path class="st7" d="M139.4,190c-0.1,0-0.3,0-0.4-0.1c-0.2-0.1-0.3-0.3-0.3-0.4V49.9c0-0.3,0.2-0.4,0.4-0.5l10.7-4
			c0.2-0.1,0.4-0.1,0.5,0.1c0.2,0.1,0.3,0.3,0.3,0.4v139.6c0,0.3-0.2,0.4-0.4,0.5l-10.7,4C139.6,190,139.5,190,139.4,190z M140,50.2
			v138.4l9.5-3.6V46.7L140,50.2z"/>
	</g>
</g>
</svg>
