<svg width="70" height="70" viewBox="0 0 70 70" fill="none" xmlns="http://www.w3.org/2000/svg">
<path fill-rule="evenodd" clip-rule="evenodd" d="M5 14.5L42 0L65 9.3V56.6L61.4 58.1C61.2 58.2 61.1 58.2 61 58.2C60.95 58.2 60.875 58.175 60.8 58.15C60.725 58.125 60.65 58.1 60.6 58.1L58 56.9V54.7L61 56.1V10.7L43 3.4V15.1829L41 15.9829V3.4L12.6 14.7L30 21.6V52.5882L34.0779 51.0399V53.2922L30 54.7759V68.5L26.5 69.9C26.4 70 26.2 70 26.1 70C26 70 25.8 70 25.7 69.9L25.1 69.6L5 61.7V14.5ZM24.9 67.3L26 67.7V23.1L7 15.6V60.3L24.9 67.3Z" fill="black"/>
<path fill-rule="evenodd" clip-rule="evenodd" d="M47.6952 16.6237V58.3519L43.7632 60.1506V62.3499L49.1112 59.9035C49.467 59.7408 49.6952 59.3854 49.6952 58.9942V15.6943L47.6952 16.6237Z" fill="#BCBCBC"/>
<path opacity="0.25" d="M36.0333 64.8248L35.9398 20.9907L56.0471 12.9844L56.047 56.8067L36.0333 64.8248Z" fill="#0094DD"/>
<path fill-rule="evenodd" clip-rule="evenodd" d="M57.0398 13.0205C57.0398 12.6801 56.8666 12.363 56.5802 12.1791C56.2937 11.9951 55.9334 11.9695 55.6238 12.1111L49.628 14.8202C49.5997 14.5155 49.4329 14.2385 49.1726 14.0713C48.8862 13.8873 48.5258 13.8617 48.2163 14.0033L35.3637 20.0014C35.0079 20.1642 34.7797 20.5195 34.7797 20.9108V64.9694C34.7797 65.3098 34.9528 65.6269 35.2393 65.8108C35.5257 65.9948 35.8861 66.0204 36.1956 65.8788L42.091 63.2144C42.1273 63.5068 42.2915 63.7709 42.543 63.9324C42.8294 64.1164 43.1898 64.142 43.4994 64.0004L56.4558 57.9885C56.8116 57.8257 57.0398 57.4704 57.0398 57.0791V13.0205ZM42.0834 60.9862V19.1421L36.7797 21.553V63.4123L42.0834 60.9862ZM44.0834 61.5339V19.6746L55.0398 14.5776V56.4369L44.0834 61.5339Z" fill="black"/>
</svg>
