<svg width="70" height="70" viewBox="0 0 70 70" fill="none" xmlns="http://www.w3.org/2000/svg">
<path d="M21.5 0L18 1.4V11.2537L20 11V2.2L21.4 2.7L22.2 3L26 4.6L57.2 17.2V63.4L51 61.1472V63.4L56.8 65.5C56.9 65.6 57.1 65.6 57.2 65.6C57.3 65.6 57.5 65.6 57.6 65.5L61 64.1V15.6L21.5 0Z" fill="#1D1D1F"/>
<path d="M26.0187 53.4604L18.6 50.4929C18.2 50.2929 18 49.9929 18 49.5929V14.7608L20 14.355V48.8929L26.0187 51.3116V53.4604Z" fill="#BCBCBC"/>
<path d="M48.0879 60.201L32.0093 53.7114V55.875L48.0879 62.401V60.201Z" fill="#BCBCBC"/>
<path d="M32.018 53.7124L28.0176 52.0317V54.2395L32.018 55.8872V53.7124Z" fill="#1D1D1F"/>
<path fill-rule="evenodd" clip-rule="evenodd" d="M32.0181 70L50.0181 63V20L40.7134 21.6891L40.6886 21.6969C40.6651 21.7045 40.6341 21.7148 40.5961 21.7282C40.5201 21.7549 40.4161 21.7939 40.2881 21.8475C40.0321 21.9547 39.6794 22.1207 39.2629 22.3646C38.4291 22.8527 37.3394 23.6529 36.2582 24.9165C34.082 27.46 32.0181 31.7881 32.0181 38.9916V70ZM34.0181 67L48.0181 61.5V22.3763L41.3163 23.5963L41.3048 23.5997L41.3016 23.6007C41.2948 23.6028 41.2809 23.6074 41.2603 23.6147C41.2191 23.6292 41.1513 23.6543 41.0606 23.6923C40.8791 23.7683 40.6067 23.8954 40.2733 24.0906C39.6071 24.4806 38.6967 25.1429 37.7779 26.2167C35.9542 28.3482 34.0181 32.1951 34.0181 38.9916V67Z" fill="#1D1D1F"/>
<path d="M48.0181 61.5L34.0181 67V38.9916C34.0181 32.1951 35.9542 28.3482 37.7779 26.2167C38.6967 25.1429 39.6071 24.4806 40.2733 24.0906C40.6067 23.8954 40.8791 23.7683 41.0606 23.6923C41.1513 23.6543 41.2191 23.6292 41.2603 23.6147C41.2809 23.6074 41.2948 23.6028 41.3016 23.6007L41.3048 23.5997L41.3163 23.5963L48.0181 22.3763V61.5Z" fill="#008BD2" fill-opacity="0.3"/>
<path fill-rule="evenodd" clip-rule="evenodd" d="M9 61.0308L27 54.0308V11L17.6953 12.7199L17.6706 12.7277C17.6471 12.7353 17.6161 12.7456 17.5781 12.759C17.5021 12.7857 17.398 12.8247 17.27 12.8783C17.014 12.9856 16.6614 13.1515 16.2448 13.3954C15.411 13.8835 14.3213 14.6837 13.2402 15.9473C11.0639 18.4908 9 22.8189 9 30.0224V61.0308ZM11 58.0308L25 52.5308V13.4071L18.2982 14.6271L18.2867 14.6305L18.2835 14.6315C18.2768 14.6336 18.2629 14.6382 18.2423 14.6455C18.201 14.66 18.1332 14.6852 18.0425 14.7231C17.861 14.7991 17.5886 14.9262 17.2552 15.1214C16.589 15.5114 15.6787 16.1737 14.7598 17.2475C12.9361 19.379 11 23.2259 11 30.0224V58.0308Z" fill="#1D1D1F"/>
<path d="M25 52.5308L11 58.0308V30.0224C11 23.2259 12.9361 19.379 14.7598 17.2475C15.6787 16.1737 16.589 15.5114 17.2552 15.1214C17.5886 14.9262 17.861 14.7991 18.0425 14.7231C18.1332 14.6852 18.201 14.66 18.2423 14.6455C18.2629 14.6382 18.2768 14.6336 18.2835 14.6315L18.2867 14.6305L18.2982 14.6271L25 13.4071V52.5308Z" fill="#008BD2" fill-opacity="0.3"/>
</svg>
