<svg width="70" height="70" viewBox="0 0 70 70" fill="none" xmlns="http://www.w3.org/2000/svg">
<path d="M61.6172 18.9699C57.0909 16.5239 49.7521 16.5239 45.2257 18.9699L27.5 28.5L44 37.5L61.6172 27.8276C66.1436 25.3816 66.1436 21.4159 61.6172 18.9699Z" fill="white"/>
<path fill-rule="evenodd" clip-rule="evenodd" d="M43.5866 18.0841C49.0183 15.1489 57.9842 15.3993 63.3252 18.2993C69.2206 21.4146 67.2097 29.8995 62.9818 32.3162L47.6845 40.6714L24.7364 28.2705L43.5866 18.0841ZM45.2257 18.9699C49.7521 16.5239 57.0909 16.5239 61.6172 18.9699C62.1302 19.2471 62.5851 19.5438 62.9818 19.8556C66.0855 22.2953 65.6306 25.6588 61.6172 27.8276L44 37.5L27.5 28.5L45.2257 18.9699Z" fill="#1D1D1F"/>
<path d="M8.34484 47.7576C3.81845 45.3116 3.81845 41.3458 8.34484 38.8998L26.3443 29.1394L43 38.14L24.7364 47.7576C20.21 50.2036 12.8712 50.2036 8.34484 47.7576Z" fill="white"/>
<path fill-rule="evenodd" clip-rule="evenodd" d="M6.70568 38.014C2.14635 40.5327 2.95115 45.0699 3.25073 47.0033C4.14947 52.8033 19.188 56.0042 24.967 52.6161L47.6845 40.6714L24.7364 28.2705L6.70568 38.014ZM8.34484 38.8998C3.81845 41.3458 3.81845 45.3116 8.34484 47.7576C8.85783 48.0348 9.40694 48.2806 9.98399 48.495C14.4986 50.1722 20.7229 49.9264 24.7364 47.7576L43 38.14L26.3443 29.1394L8.34484 38.8998Z" fill="#1D1D1F"/>
<path d="M44 37.5L43 38.1366V43.5L44 43V37.5Z" fill="white"/>
<path d="M38.8986 29.3068C38.5408 29.1201 38.0061 29 37.4167 29C36.8273 29 36.2926 29.1201 35.9348 29.3068L24.268 35.3938C24.1762 35.4417 24.1114 35.4859 24.067 35.5218C24.1114 35.5576 24.1762 35.6018 24.268 35.6497L30.1014 38.6932C30.4592 38.8799 30.9939 39 31.5833 39C32.1727 39 32.7074 38.8799 33.0652 38.6932L44.732 32.6062C44.8238 32.5583 44.8886 32.5141 44.933 32.4782C44.8886 32.4424 44.8238 32.3982 44.732 32.3503L38.8986 29.3068Z" fill="white" stroke="#1D1D1F" stroke-width="2"/>
<path d="M39.1299 27.8635C38.6825 27.6301 38.0633 27.5 37.4167 27.5C36.7701 27.5 36.1509 27.6301 35.7035 27.8635L24.0367 33.9505C23.5775 34.1902 23.5 34.4223 23.5 34.5218C23.5 34.6212 23.5775 34.8534 24.0367 35.093L29.8701 38.1365C30.3175 38.3699 30.9367 38.5 31.5833 38.5C32.2299 38.5 32.8491 38.3699 33.2965 38.1365L44.9633 32.0495C45.4225 31.8098 45.5 31.5777 45.5 31.4782C45.5 31.3788 45.4225 31.1466 44.9633 30.907L39.1299 27.8635Z" fill="white" stroke="#1D1D1F"/>
</svg>
