<svg width="70" height="70" viewBox="0 0 70 70" fill="none" xmlns="http://www.w3.org/2000/svg">
<path fill-rule="evenodd" clip-rule="evenodd" d="M55.0001 23.1549V20C55.0001 19.2543 54.5851 18.5704 53.9237 18.226C53.2622 17.8817 52.4641 17.9339 51.8531 18.3615L11 46C11 47 11 47.8987 11 49C11 49.5 11.5 50 12 50H20L22.5 52.5C24.534 54.534 27.5716 54.4284 29.5 52.5C30.2078 51.7922 30.7848 50.9061 31 50H39L41.5 52.4745C43.534 54.5085 46.5 54.5 48.5 52.5C49.2078 51.7922 50 51 50 50H54C54.5 50 55 49.5 55.0001 49V45.6335C55.5743 45.3968 56.2403 45.0036 56.7066 44.5373C57.4365 43.8075 58 42.5 58 41.5C58 40 58 40 58 39L55.0001 36.1549V32.6335C55.5743 32.3968 56.1126 32.0453 56.579 31.5789C57.564 30.5939 58 29.5 57.9978 28C57.9961 26.8076 58 27 58 26L55.0001 23.1549Z" fill="#1D1D1F"/>
<mask id="path-2-outside-1_2611_12399" maskUnits="userSpaceOnUse" x="10" y="16" width="48" height="36" fill="black">
<rect fill="white" x="10" y="16" width="48" height="36"/>
<path fill-rule="evenodd" clip-rule="evenodd" d="M53 34.9895V28.9962C53.7784 29.0364 54.5701 28.7592 55.1647 28.1647C56.2784 27.051 56.2784 25.2452 55.1647 24.1315L53 21.9895V18L13 46H20.4626L23.5229 49.0603C24.7759 50.3132 26.8073 50.3132 28.0603 49.0603C28.8898 48.2308 29.1701 47.0601 28.9013 46H39.4626L42.5229 49.0603C43.7759 50.3132 45.8073 50.3132 47.0603 49.0603C47.8898 48.2308 48.1701 47.0601 47.9013 46H53V41.9962C53.7784 42.0364 54.5701 41.7592 55.1647 41.1647C56.2784 40.051 56.2784 38.2452 55.1647 37.1315L53 34.9895Z"/>
</mask>
<path fill-rule="evenodd" clip-rule="evenodd" d="M53 34.9895V28.9962C53.7784 29.0364 54.5701 28.7592 55.1647 28.1647C56.2784 27.051 56.2784 25.2452 55.1647 24.1315L53 21.9895V18L13 46H20.4626L23.5229 49.0603C24.7759 50.3132 26.8073 50.3132 28.0603 49.0603C28.8898 48.2308 29.1701 47.0601 28.9013 46H39.4626L42.5229 49.0603C43.7759 50.3132 45.8073 50.3132 47.0603 49.0603C47.8898 48.2308 48.1701 47.0601 47.9013 46H53V41.9962C53.7784 42.0364 54.5701 41.7592 55.1647 41.1647C56.2784 40.051 56.2784 38.2452 55.1647 37.1315L53 34.9895Z" fill="white"/>
<path d="M53 28.9962L53.1032 26.9988C52.5556 26.9705 52.0204 27.1683 51.6228 27.5459C51.2251 27.9235 51 28.4478 51 28.9962H53ZM53 34.9895H51C51 35.5236 51.2136 36.0355 51.5933 36.4112L53 34.9895ZM55.1647 28.1647L56.5789 29.5789V29.5789L55.1647 28.1647ZM55.1647 24.1315L56.5789 22.7173L56.5714 22.7098L55.1647 24.1315ZM53 21.9895H51C51 22.5236 51.2136 23.0355 51.5933 23.4112L53 21.9895ZM53 18H55C55 17.2542 54.5851 16.5704 53.9236 16.226C53.2622 15.8816 52.464 15.9339 51.8531 16.3615L53 18ZM13 46L11.8531 44.3615C11.1379 44.8621 10.8301 45.7687 11.0925 46.6013C11.355 47.4338 12.1271 48 13 48V46ZM20.4626 46L21.8769 44.5858C21.5018 44.2107 20.9931 44 20.4626 44V46ZM23.5229 49.0603L24.9371 47.6461L23.5229 49.0603ZM28.0603 49.0603L29.4745 50.4745H29.4745L28.0603 49.0603ZM28.9013 46V44C28.2843 44 27.7018 44.2848 27.3229 44.7718C26.9439 45.2588 26.811 45.8934 26.9627 46.4915L28.9013 46ZM39.4626 46L40.8769 44.5858C40.5018 44.2107 39.9931 44 39.4626 44V46ZM42.5229 49.0603L43.9371 47.6461H43.9371L42.5229 49.0603ZM47.0603 49.0603L48.4745 50.4745V50.4745L47.0603 49.0603ZM47.9013 46V44C47.2843 44 46.7018 44.2848 46.3229 44.7718C45.9439 45.2588 45.811 45.8934 45.9627 46.4916L47.9013 46ZM53 46V48C54.1046 48 55 47.1046 55 46H53ZM53 41.9962L53.1032 39.9988C52.5556 39.9705 52.0204 40.1683 51.6228 40.5459C51.2251 40.9235 51 41.4478 51 41.9962H53ZM55.1647 41.1647L53.7505 39.7505L53.7505 39.7505L55.1647 41.1647ZM55.1647 37.1315L56.5789 35.7173L56.5714 35.7098L55.1647 37.1315ZM51 28.9962V34.9895H55V28.9962H51ZM53.7505 26.7505C53.573 26.928 53.3399 27.0111 53.1032 26.9988L52.8968 30.9935C54.2169 31.0617 55.5673 30.5905 56.5789 29.5789L53.7505 26.7505ZM53.7505 25.5457C54.0832 25.8784 54.0832 26.4178 53.7505 26.7505L56.5789 29.5789C58.4737 27.6841 58.4737 24.6121 56.5789 22.7173L53.7505 25.5457ZM51.5933 23.4112L53.758 25.5531L56.5714 22.7098L54.4067 20.5679L51.5933 23.4112ZM51 18V21.9895H55V18H51ZM14.1469 47.6385L54.1469 19.6385L51.8531 16.3615L11.8531 44.3615L14.1469 47.6385ZM20.4626 44H13V48H20.4626V44ZM24.9371 47.6461L21.8769 44.5858L19.0484 47.4142L22.1087 50.4745L24.9371 47.6461ZM26.6461 47.6461C26.1742 48.118 25.409 48.118 24.9371 47.6461L22.1087 50.4745C24.1427 52.5085 27.4405 52.5085 29.4745 50.4745L26.6461 47.6461ZM26.9627 46.4915C27.0654 46.8967 26.9568 47.3354 26.6461 47.6461L29.4745 50.4745C30.8228 49.1262 31.2748 47.2235 30.84 45.5085L26.9627 46.4915ZM39.4626 44H28.9013V48H39.4626V44ZM43.9371 47.6461L40.8769 44.5858L38.0484 47.4142L41.1087 50.4745L43.9371 47.6461ZM45.6461 47.6461C45.1742 48.118 44.409 48.118 43.9371 47.6461L41.1087 50.4745C43.1427 52.5085 46.4405 52.5085 48.4745 50.4745L45.6461 47.6461ZM45.9627 46.4916C46.0654 46.8967 45.9568 47.3354 45.6461 47.6461L48.4745 50.4745C49.8228 49.1262 50.2748 47.2235 49.84 45.5084L45.9627 46.4916ZM53 44H47.9013V48H53V44ZM51 41.9962V46H55V41.9962H51ZM53.7505 39.7505C53.573 39.928 53.3399 40.0111 53.1032 39.9988L52.8968 43.9935C54.2169 44.0617 55.5673 43.5905 56.5789 42.5789L53.7505 39.7505ZM53.7505 38.5457C54.0832 38.8784 54.0832 39.4178 53.7505 39.7505L56.5789 42.5789C58.4737 40.6841 58.4737 37.6121 56.5789 35.7173L53.7505 38.5457ZM51.5933 36.4112L53.758 38.5531L56.5714 35.7098L54.4067 33.5679L51.5933 36.4112Z" fill="#1D1D1F" mask="url(#path-2-outside-1_2611_12399)"/>
<path d="M20 46H21V51L20 50V46Z" fill="white"/>
<path d="M39 46H40V51L39 50V46Z" fill="white"/>
</svg>
