<svg width="70" height="70" viewBox="0 0 70 70" fill="none" xmlns="http://www.w3.org/2000/svg">
<g clip-path="url(#clip0_2390_12198)">
<path d="M34.2691 18.1563C34.6728 17.9479 35.3272 17.9479 35.7309 18.1563L65.6973 33.6228C66.1009 33.8311 66.1009 34.1689 65.6973 34.3772L35.7309 49.8437C35.3272 50.0521 34.6728 50.0521 34.2691 49.8437C22.5665 43.8037 16.0053 40.4173 4.30274 34.3772C3.89909 34.1689 3.89909 33.8311 4.30274 33.6228L34.2691 18.1563Z" fill="#1D1D1F"/>
<path d="M33.9037 21.3629C34.5092 21.0504 35.4908 21.0504 36.0963 21.3629C36.7018 21.6754 36.7018 22.1821 36.0963 22.4946L26.5948 27.3986C25.9893 27.7111 25.0076 27.7111 24.4021 27.3986C23.7967 27.0861 23.7967 26.5795 24.4021 26.2669L33.9037 21.3629Z" fill="white"/>
<path d="M38.289 23.6263C38.8945 23.3138 39.8762 23.3138 40.4817 23.6263C41.0872 23.9388 41.0872 24.4455 40.4817 24.758L30.9802 29.662C30.3747 29.9746 29.393 29.9746 28.7875 29.662C28.182 29.3495 28.182 28.8429 28.7875 28.5304L38.289 23.6263Z" fill="white"/>
<path d="M43.4052 26.2669C44.0107 25.9544 44.9924 25.9544 45.5979 26.2669C46.2033 26.5794 46.2033 27.0861 45.5979 27.3986L36.0963 32.3027C35.4908 32.6152 34.5092 32.6152 33.9037 32.3027C33.2982 31.9901 33.2982 31.4835 33.9037 31.171L43.4052 26.2669Z" fill="white"/>
<path d="M33.9037 35.6975C34.5092 35.385 35.4908 35.385 36.0963 35.6975C36.7018 36.01 36.7018 36.5167 36.0963 36.8292L26.5948 41.7332C25.9893 42.0457 25.0076 42.0457 24.4021 41.7332C23.7967 41.4207 23.7967 40.914 24.4021 40.6015L33.9037 35.6975Z" fill="white"/>
<path d="M39.0198 38.3384C39.6253 38.0259 40.607 38.0259 41.2125 38.3384C41.818 38.6509 41.818 39.1576 41.2125 39.4701L31.711 44.3741C31.1055 44.6866 30.1238 44.6866 29.5183 44.3741C28.9128 44.0616 28.9128 43.5549 29.5183 43.2424L39.0198 38.3384Z" fill="white"/>
<path d="M43.4052 40.6015C44.0107 40.289 44.9924 40.289 45.5979 40.6015C46.2033 40.914 46.2033 41.4207 45.5979 41.7332L36.0963 46.6372C35.4908 46.9497 34.5092 46.9497 33.9037 46.6372C33.2982 46.3247 33.2982 45.8181 33.9037 45.5055L43.4052 40.6015Z" fill="white"/>
<path d="M10.5152 34.5659C9.90975 34.2534 9.90975 33.7468 10.5152 33.4342C11.1207 33.1217 12.1024 33.1217 12.7079 33.4342L22.2094 38.3383C22.8149 38.6508 22.8149 39.1574 22.2094 39.47C21.6039 39.7825 20.6223 39.7825 20.0168 39.47L10.5152 34.5659Z" fill="white"/>
<path d="M14.9006 32.3025C14.2951 31.99 14.2951 31.4833 14.9006 31.1708C15.5061 30.8583 16.4878 30.8583 17.0933 31.1708L26.5948 36.0748C27.2003 36.3874 27.2003 36.894 26.5948 37.2065C25.9893 37.5191 25.0076 37.5191 24.4021 37.2065L14.9006 32.3025Z" fill="white"/>
<path d="M20.0168 29.6619C19.4113 29.3494 19.4113 28.8427 20.0168 28.5302C20.6223 28.2177 21.6039 28.2177 22.2094 28.5302L31.711 33.4342C32.3164 33.7468 32.3164 34.2534 31.711 34.5659C31.1055 34.8785 30.1238 34.8785 29.5183 34.5659L20.0168 29.6619Z" fill="white"/>
<path d="M38.289 34.5659C37.6835 34.2534 37.6835 33.7468 38.289 33.4342C38.8945 33.1217 39.8762 33.1217 40.4817 33.4342L49.9832 38.3383C50.5887 38.6508 50.5887 39.1574 49.9832 39.47C49.3777 39.7825 48.396 39.7825 47.7905 39.47L38.289 34.5659Z" fill="white"/>
<path d="M43.4052 31.9253C42.7997 31.6128 42.7997 31.1061 43.4052 30.7936C44.0107 30.4811 44.9924 30.4811 45.5978 30.7936L55.0994 35.6977C55.7049 36.0102 55.7049 36.5168 55.0994 36.8294C54.4939 37.1419 53.5122 37.1419 52.9067 36.8294L43.4052 31.9253Z" fill="white"/>
<path d="M47.7905 29.6619C47.1851 29.3494 47.1851 28.8427 47.7905 28.5302C48.396 28.2177 49.3777 28.2177 49.9832 28.5302L59.4847 33.4342C60.0902 33.7468 60.0902 34.2534 59.4847 34.5659C58.8792 34.8785 57.8976 34.8785 57.2921 34.5659L47.7905 29.6619Z" fill="white"/>
<path fill-rule="evenodd" clip-rule="evenodd" d="M35.3678 17.0651L68.2969 34L36 50.6098V53.823C36 53.823 36.0001 53.823 36.0001 53.823L70 36.2612L70.0001 35.3676V35.3639V35.3592V35.3533C70.0003 34.723 70.0004 34.1005 70 33.9988C69.9994 33.8456 69.8855 33.6925 69.6582 33.5756L35.8252 16.1758C35.3695 15.9414 34.6306 15.9414 34.1748 16.1758L0.341807 33.5756C0.11381 33.6929 -0.000125623 33.8466 0 34.0003L2.81988e-05 35.3677L0 36.2612L34.3497 53.823C34.533 53.9172 34.762 53.9735 35 53.992V51C34.8138 51 34.6822 50.9607 34.6322 50.9349L1.70313 34L34.6322 17.0651C34.6822 17.0393 34.8138 17 35 17C35.1862 17 35.3178 17.0393 35.3678 17.0651Z" fill="#1D1D1F"/>
</g>
<defs>
<clipPath id="clip0_2390_12198">
<rect width="70" height="70" fill="white"/>
</clipPath>
</defs>
</svg>
