<svg width="118" height="138" viewBox="0 0 118 138" fill="none" xmlns="http://www.w3.org/2000/svg">
<path d="M50 69H99V1H1V119H49V70V69H50Z" fill="white" stroke="#1D1D1F" stroke-width="2"/>
<mask id="path-2-inside-1_1314_5845" fill="white">
<path d="M100 70H50V120H100V70Z"/>
</mask>
<path d="M100 120H100.5V120.5H100V120ZM100.5 70V72.0833H99.5V70H100.5ZM100.5 74.1667V78.3333H99.5V74.1667H100.5ZM100.5 80.4167V84.5833H99.5V80.4167H100.5ZM100.5 86.6667V90.8333H99.5V86.6667H100.5ZM100.5 92.9167V97.0833H99.5V92.9167H100.5ZM100.5 99.1667V103.333H99.5V99.1667H100.5ZM100.5 105.417V109.583H99.5V105.417H100.5ZM100.5 111.667V115.833H99.5V111.667H100.5ZM100.5 117.917V120H99.5V117.917H100.5ZM100 120.5H97.9167V119.5H100V120.5ZM95.8333 120.5H91.6667V119.5H95.8333V120.5ZM89.5833 120.5H85.4167V119.5H89.5833V120.5ZM83.3333 120.5H79.1667V119.5H83.3333V120.5ZM77.0833 120.5H72.9167V119.5H77.0833V120.5ZM70.8333 120.5H66.6667V119.5H70.8333V120.5ZM64.5833 120.5H60.4167V119.5H64.5833V120.5ZM58.3333 120.5H54.1667V119.5H58.3333V120.5ZM52.0833 120.5H50V119.5H52.0833V120.5ZM100 120H101V121H100V120ZM101 70V72.0833H99V70H101ZM101 74.1667V78.3333H99V74.1667H101ZM101 80.4167V84.5833H99V80.4167H101ZM101 86.6667V90.8333H99V86.6667H101ZM101 92.9167V97.0833H99V92.9167H101ZM101 99.1667V103.333H99V99.1667H101ZM101 105.417V109.583H99V105.417H101ZM101 111.667V115.833H99V111.667H101ZM101 117.917V120H99V117.917H101ZM100 121H97.9167V119H100V121ZM95.8333 121H91.6667V119H95.8333V121ZM89.5833 121H85.4167V119H89.5833V121ZM83.3333 121H79.1667V119H83.3333V121ZM77.0833 121H72.9167V119H77.0833V121ZM70.8333 121H66.6667V119H70.8333V121ZM64.5833 121H60.4167V119H64.5833V121ZM58.3333 121H54.1667V119H58.3333V121ZM52.0833 121H50V119H52.0833V121Z" fill="#6E6E73" mask="url(#path-2-inside-1_1314_5845)"/>
<path fill-rule="evenodd" clip-rule="evenodd" d="M98.8543 134.164C99.0486 134.35 99.0486 134.65 98.8543 134.836L95.6881 137.861C95.4938 138.046 95.1788 138.046 94.9845 137.861C94.7903 137.675 94.7903 137.374 94.9845 137.189L97.3014 134.975H51.6986L54.0155 137.189C54.2097 137.374 54.2097 137.675 54.0155 137.861C53.8212 138.046 53.5062 138.046 53.3119 137.861L50.1457 134.836C49.9514 134.65 49.9514 134.35 50.1457 134.164L53.3119 131.139C53.5062 130.954 53.8212 130.954 54.0155 131.139C54.2097 131.325 54.2097 131.626 54.0155 131.811L51.6986 134.025H97.3014L94.9845 131.811C94.7903 131.626 94.7903 131.325 94.9845 131.139C95.1788 130.954 95.4938 130.954 95.6881 131.139L98.8543 134.164Z" fill="#6E6E73"/>
<path fill-rule="evenodd" clip-rule="evenodd" d="M49 138V120H50V138H49Z" fill="#6E6E73"/>
<path fill-rule="evenodd" clip-rule="evenodd" d="M99 138L99 120L100 120L100 138L99 138Z" fill="#6E6E73"/>
<path d="M71.033 132V123.273H74.229C74.8484 123.273 75.3612 123.375 75.7674 123.58C76.1737 123.781 76.4776 124.055 76.6793 124.402C76.881 124.746 76.9819 125.134 76.9819 125.565C76.9819 125.929 76.9151 126.236 76.7816 126.486C76.6481 126.733 76.4691 126.932 76.2447 127.082C76.0231 127.23 75.7788 127.338 75.5117 127.406V127.491C75.8015 127.506 76.0842 127.599 76.3597 127.773C76.6381 127.943 76.8683 128.186 77.0501 128.501C77.2319 128.817 77.3228 129.2 77.3228 129.652C77.3228 130.098 77.2177 130.499 77.0075 130.854C76.8001 131.206 76.479 131.486 76.0444 131.693C75.6097 131.898 75.0543 132 74.3782 132H71.033ZM72.3498 130.871H74.2504C74.881 130.871 75.3327 130.749 75.6055 130.504C75.8782 130.26 76.0146 129.955 76.0146 129.588C76.0146 129.312 75.945 129.06 75.8058 128.83C75.6665 128.599 75.4677 128.416 75.2092 128.28C74.9535 128.143 74.6495 128.075 74.2972 128.075H72.3498V130.871ZM72.3498 127.048H74.114C74.4094 127.048 74.6751 126.991 74.9109 126.878C75.1495 126.764 75.3384 126.605 75.4776 126.401C75.6197 126.193 75.6907 125.949 75.6907 125.668C75.6907 125.307 75.5643 125.004 75.3114 124.76C75.0586 124.516 74.6708 124.393 74.1481 124.393H72.3498V127.048Z" fill="#6E6E73"/>
<path fill-rule="evenodd" clip-rule="evenodd" d="M114.164 70.1457C114.35 69.9514 114.65 69.9514 114.836 70.1457L117.861 73.3119C118.046 73.5062 118.046 73.8212 117.861 74.0155C117.675 74.2097 117.374 74.2097 117.189 74.0155L114.975 71.6986V117.301L117.189 114.985C117.374 114.79 117.675 114.79 117.861 114.985C118.046 115.179 118.046 115.494 117.861 115.688L114.836 118.854C114.65 119.049 114.35 119.049 114.164 118.854L111.139 115.688C110.954 115.494 110.954 115.179 111.139 114.985C111.325 114.79 111.626 114.79 111.811 114.985L114.025 117.301V71.6986L111.811 74.0155C111.626 74.2097 111.325 74.2097 111.139 74.0155C110.954 73.8212 110.954 73.5062 111.139 73.3119L114.164 70.1457Z" fill="#6E6E73"/>
<path fill-rule="evenodd" clip-rule="evenodd" d="M118 120H100V119H118V120Z" fill="#6E6E73"/>
<path fill-rule="evenodd" clip-rule="evenodd" d="M118 70L100 70L100 69L118 69L118 70Z" fill="#6E6E73"/>
<path d="M104.506 99.5V90.7727H105.822V94.5653H110.173V90.7727H111.494V99.5H110.173V95.6946H105.822V99.5H104.506Z" fill="#6E6E73"/>
</svg>
