<svg width="70" height="70" viewBox="0 0 70 70" fill="none" xmlns="http://www.w3.org/2000/svg">
<path d="M70 32V38L56 48C56 48 46.5 54 35 54C23.5 54 14 48 14 48L0 38V32L14 42C14 42 23.5 48.5 35 48.5C46.5 48.5 56 42 56 42L70 32Z" fill="#1D1D1F"/>
<path d="M35 16L0 32V33.5L35 18L70 33.5V32L35 16Z" fill="#1D1D1F"/>
<path d="M16.0762 39.6822L16.0604 39.6718L16.0594 39.6711L6.54755 33.1857L34.1265 20.9525C34.6419 20.7239 35.2298 20.7235 35.7455 20.9512L63.4497 33.1876L53.943 39.6695L53.9429 39.6696L53.9427 39.6697L53.9396 39.6718L53.9238 39.6822C53.9091 39.6919 53.8858 39.7071 53.8544 39.7274C53.7916 39.768 53.6958 39.8291 53.569 39.9076C53.3153 40.0647 52.9374 40.2917 52.4496 40.5654C51.4734 41.1129 50.0601 41.8456 48.3231 42.5787C44.8399 44.0487 40.1023 45.5 35 45.5C29.8977 45.5 25.1601 44.0487 21.6769 42.5787C19.9399 41.8456 18.5266 41.1129 17.5504 40.5654C17.0626 40.2917 16.6847 40.0647 16.431 39.9076C16.3042 39.8291 16.2084 39.768 16.1456 39.7274C16.1142 39.7071 16.0909 39.6919 16.0762 39.6822Z" fill="white" stroke="#1D1D1F" stroke-width="2" stroke-linejoin="round"/>
<ellipse cx="35" cy="25.5" rx="3" ry="1.5" fill="#1D1D1F"/>
</svg>
