<svg width="70" height="70" viewBox="0 0 70 70" fill="none" xmlns="http://www.w3.org/2000/svg">
<path d="M70 32V38C70 38 56 54 35 54C14 54 0 38 0 38V32C0 32 14 48 35 48C56 48 70 32 70 32Z" fill="#1D1D1F"/>
<path d="M35 16L0 32V33.5L35 18L70 33.5V32L35 16Z" fill="#1D1D1F"/>
<path d="M6.14819 34.2385C6.13252 34.2252 6.11645 34.2123 6.1 34.2L5.46149 33.7211L34.1237 20.956C34.6407 20.7257 35.231 20.7253 35.7483 20.9547L64.5361 33.7229L63.9 34.2C63.8848 34.2114 63.8699 34.2232 63.8554 34.2355C63.8553 34.2355 63.8552 34.2356 63.8551 34.2357L63.8544 34.2363L63.8487 34.2411L63.8226 34.2628C63.7987 34.2826 63.762 34.3128 63.7126 34.3529C63.614 34.433 63.4651 34.5523 63.2688 34.7051C62.8762 35.0109 62.294 35.4507 61.5445 35.98C60.0447 37.0391 57.8788 38.4533 55.223 39.8673C49.8977 42.7029 42.6737 45.5 34.9349 45.5C27.1967 45.5 20.0058 42.7033 14.7141 39.8685C12.075 38.4548 9.92565 37.0409 8.43826 35.9822C7.69494 35.4531 7.11799 35.0134 6.72897 34.7078C6.53449 34.555 6.38707 34.4358 6.2894 34.3557C6.24057 34.3157 6.20418 34.2855 6.18058 34.2658L6.1548 34.2441L6.14919 34.2394L6.14847 34.2388L6.14821 34.2385L6.14819 34.2385Z" fill="white" stroke="#1D1D1F" stroke-width="2" stroke-linejoin="round"/>
<ellipse cx="35" cy="25.5" rx="3" ry="1.5" fill="#1D1D1F"/>
</svg>
