<svg width="84" height="120" viewBox="0 0 84 120" fill="none" xmlns="http://www.w3.org/2000/svg">
<path fill-rule="evenodd" clip-rule="evenodd" d="M18 0L0 16V115L6 115C6.875 115 7.5 114.5 8 114L21 101L63 104V120L69 120C69.875 120 70.475 119.522 71 119L84 105V4L18 0ZM7 109L19 97V6L7 17V109ZM23 5V97L63 100V21L75 8L23 5ZM70 114L80 103V10L70 22V114Z" fill="#1D1D1F"/>
<path d="M10 32L67 36V116L10 112V32Z" fill="#008BD2" fill-opacity="0.5"/>
<path fill-rule="evenodd" clip-rule="evenodd" d="M63 40L14 36V108L63 112V40ZM10 32V112L67 116V36L10 32Z" fill="#1D1D1F"/>
</svg>
