<?xml version="1.0" encoding="utf-8"?>
<!-- Generator: Adobe Illustrator 25.0.1, SVG Export Plug-In . SVG Version: 6.00 Build 0)  -->
<svg version="1.1" id="Layer_1" xmlns="http://www.w3.org/2000/svg" xmlns:xlink="http://www.w3.org/1999/xlink" x="0px" y="0px"
	 width="512px" height="512px" viewBox="0 0 512 512" style="enable-background:new 0 0 512 512;" xml:space="preserve">
<style type="text/css">
	.st0{fill:#F1F1F3;}
	.st1{fill:#1D1D1F;}
</style>
<path class="st0" d="M452,512H60c-33.1,0-60-26.9-60-60V60C0,26.9,26.9,0,60,0h392c33.1,0,60,26.9,60,60v392
	C512,485.1,485.1,512,452,512z"/>
<path class="st1" d="M168.1,171H89.3C50.5,171,26,196.9,26,229.2v28.5C26,290,50.1,316,89.4,316h47.5c17.6,0,31.5-13.2,31.5-29H89.5
	C69.9,287,58,274.2,58,258v-29c0-16.2,12.3-29,31.5-29H169v131c0,16.2-12.3,29-31.5,29H89.6c-17.6,0-31.5,13.2-31.5,29h78.6
	c38.8,0,63.3-25.9,63.3-58.2V200.3C200,184.1,185.7,171,168.1,171z"/>
<path class="st1" d="M288,287.6c-19.9,0-32-12.8-32-29v-87.5c-17.9,0-32,13.2-32,29v58.4c0,32.4,24.5,58.4,64.4,58.4h24.1
	c17.9,0,32-13.2,32-29H288V287.6z M454,198.5v59.1c0,18.3-13.9,29.4-31.6,29.4H375V168.7c-17.9,0-32,13.4-32,29.4v88.5
	c0,16.4,14.5,29.4,32,29.4h47.4c35.3,0,63.6-22.5,63.6-59.1v-88.1C468.4,168.7,454,182.1,454,198.5z"/>
</svg>
