<svg width="93" height="15" viewBox="0 0 93 15" fill="none" xmlns="http://www.w3.org/2000/svg">
<mask id="path-1-inside-1_1347_10639" fill="white">
<path d="M13 4H21V9H13V4Z"/>
</mask>
<path d="M13 4H21V9H13V4Z" fill="url(#paint0_linear_1347_10639)"/>
<path d="M13 5H21V3H13V5ZM21 8H13V10H21V8Z" fill="white" fill-opacity="0.3" mask="url(#path-1-inside-1_1347_10639)"/>
<mask id="path-3-inside-2_1347_10639" fill="white">
<path d="M60 4H68V9H60V4Z"/>
</mask>
<path d="M60 4H68V9H60V4Z" fill="url(#paint1_linear_1347_10639)"/>
<path d="M60 5H68V3H60V5ZM68 8H60V10H68V8Z" fill="white" fill-opacity="0.3" mask="url(#path-3-inside-2_1347_10639)"/>
<rect x="73" y="13.001" width="10" height="2" fill="url(#paint2_linear_1347_10639)"/>
<path d="M76.5 8.00081C78.5 8.00037 77.5 8.00007 79.5 8.00049C79.5 12.0002 83 13.0011 83 13.0011H73C73 13.0011 76.5 12.0005 76.5 8.00081Z" fill="url(#paint3_linear_1347_10639)"/>
<rect width="10" height="2" transform="matrix(1 0 0 -1 73 2.00049)" fill="url(#paint4_linear_1347_10639)"/>
<path d="M76.5 7.00066C78.5 7.0011 77.5 7.00139 79.5 7.00098C79.5 3.0013 83 2.00033 83 2.00033H73C73 2.00033 76.5 3.00098 76.5 7.00066Z" fill="url(#paint5_linear_1347_10639)"/>
<path d="M92.5 6.5H0.5V8.5H92.5V6.5Z" fill="#23A7EA" stroke="#008BD2"/>
<defs>
<linearGradient id="paint0_linear_1347_10639" x1="13" y1="4" x2="21" y2="4" gradientUnits="userSpaceOnUse">
<stop stop-color="#6E6E73"/>
<stop offset="0.38125" stop-color="#C3C3C7"/>
<stop offset="1" stop-color="#6E6E73"/>
</linearGradient>
<linearGradient id="paint1_linear_1347_10639" x1="60" y1="4" x2="68" y2="4" gradientUnits="userSpaceOnUse">
<stop stop-color="#6E6E73"/>
<stop offset="0.38125" stop-color="#C3C3C7"/>
<stop offset="1" stop-color="#6E6E73"/>
</linearGradient>
<linearGradient id="paint2_linear_1347_10639" x1="73" y1="13.001" x2="83" y2="13.001" gradientUnits="userSpaceOnUse">
<stop stop-color="#6E6E73"/>
<stop offset="0.38125" stop-color="#C3C3C7"/>
<stop offset="1" stop-color="#6E6E73"/>
</linearGradient>
<linearGradient id="paint3_linear_1347_10639" x1="73" y1="8.00085" x2="83" y2="8.00085" gradientUnits="userSpaceOnUse">
<stop stop-color="#454548"/>
<stop offset="0.38125" stop-color="#9A9A9E"/>
<stop offset="1" stop-color="#515154"/>
</linearGradient>
<linearGradient id="paint4_linear_1347_10639" x1="0" y1="0" x2="10" y2="0" gradientUnits="userSpaceOnUse">
<stop stop-color="#6E6E73"/>
<stop offset="0.38125" stop-color="#C3C3C7"/>
<stop offset="1" stop-color="#6E6E73"/>
</linearGradient>
<linearGradient id="paint5_linear_1347_10639" x1="73" y1="7.00061" x2="83" y2="7.00061" gradientUnits="userSpaceOnUse">
<stop stop-color="#454548"/>
<stop offset="0.38125" stop-color="#9A9A9E"/>
<stop offset="1" stop-color="#515154"/>
</linearGradient>
</defs>
</svg>
